<svg width="23" height="16" viewBox="0 0 23 16" fill="none" xmlns="http://www.w3.org/2000/svg">
<g opacity="0.496047">
<path fill-rule="evenodd" clip-rule="evenodd" d="M1.13808 0.0244751H21.6238C22.2687 0.0244751 22.7619 0.517628 22.7619 1.16255V8.74985C22.7619 9.39478 22.2687 9.88793 21.6238 9.88793H1.13808C0.493152 9.88793 0 9.39478 0 8.74985V1.16255C0 0.517628 0.493152 0.0244751 1.13808 0.0244751ZM21.6238 9.1292C21.8514 9.1292 22.0032 8.97747 22.0032 8.74985H22.0031V1.16255C22.0031 0.934938 21.8514 0.78321 21.6238 0.78321H1.13808C0.948429 0.78321 0.758734 0.934938 0.758734 1.16255V8.74985C0.758734 8.97747 0.910463 9.1292 1.13808 9.1292H21.6238Z" fill="#222222"/>
<path d="M9.86323 3.43874H12.8982C13.1258 3.43874 13.2775 3.28701 13.2775 3.0594C13.2775 2.83178 13.1258 2.68005 12.8982 2.68005H9.86323C9.63562 2.68005 9.48389 2.83178 9.48389 3.0594C9.48389 3.28701 9.63562 3.43874 9.86323 3.43874Z" fill="#222222"/>
<path d="M20.8651 7.61176H1.89692C1.66931 7.61176 1.51758 7.76348 1.51758 7.9911C1.51758 8.21872 1.66931 8.37044 1.89692 8.37044H20.8651C21.0928 8.37044 21.2445 8.21872 21.2445 7.9911C21.2445 7.76348 21.0928 7.61176 20.8651 7.61176Z" fill="#222222"/>
<path d="M20.8651 6.0943H1.89692C1.66931 6.0943 1.51758 6.24603 1.51758 6.47364C1.51758 6.70126 1.66931 6.85299 1.89692 6.85299H20.8651C21.0928 6.85299 21.2445 6.70126 21.2445 6.47364C21.2445 6.24603 21.0928 6.0943 20.8651 6.0943Z" fill="#222222"/>
<path d="M11.5704 12.5814C11.1911 12.3917 11.0014 12.1641 11.0014 11.9744C11.0014 11.7847 11.229 11.5571 11.5325 11.3295C11.7222 11.2536 11.7601 11.026 11.6843 10.8363C11.6084 10.6466 11.3808 10.5708 11.1911 10.6846C10.5841 11.026 10.2427 11.4812 10.2427 11.9744C10.2427 12.4676 10.5841 12.9229 11.1911 13.3022C11.5704 13.4919 11.7601 13.7195 11.7601 13.9092C11.7601 14.0989 11.5325 14.3265 11.1911 14.5162C11.0014 14.5921 10.9256 14.8197 11.0394 15.0093C11.1153 15.1231 11.2291 15.199 11.3808 15.199C11.4567 15.199 11.4946 15.199 11.5705 15.1611C12.1775 14.8197 12.5189 14.3644 12.5189 13.8712C12.5189 13.3781 12.1775 12.8849 11.5704 12.5814Z" fill="#222222"/>
<path d="M7.3976 13.3402C7.01825 13.1505 6.82856 12.9229 6.82856 12.7332C6.82856 12.5435 7.05617 12.3159 7.35968 12.0883C7.54937 12.0124 7.62521 11.7848 7.51141 11.5951C7.43552 11.4054 7.2079 11.3296 7.01825 11.4434C6.41125 11.7848 6.06982 12.24 6.06982 12.7332C6.06982 13.2264 6.41125 13.6817 7.01825 14.061C7.3976 14.2507 7.58729 14.4783 7.58729 14.668C7.58729 14.8577 7.35968 15.0853 7.01825 15.275C6.82856 15.3509 6.75272 15.5785 6.86652 15.7682C6.94241 15.882 7.05622 15.9579 7.20795 15.9579C7.28384 15.9579 7.32176 15.9579 7.39764 15.9199C8.00465 15.5785 8.34607 15.1233 8.34607 14.6301C8.34607 14.1369 8.0046 13.6437 7.3976 13.3402Z" fill="#222222"/>
<path d="M15.7438 13.3402C15.3644 13.1505 15.1748 12.9229 15.1748 12.7332C15.1748 12.5435 15.4024 12.3159 15.7059 12.0883C15.8956 12.0124 15.9335 11.7848 15.8576 11.5951C15.7817 11.4054 15.5541 11.3296 15.3644 11.4434C14.7574 11.7848 14.416 12.24 14.416 12.7332C14.416 13.2264 14.7574 13.6817 15.3644 14.061C15.7438 14.2507 15.9335 14.4783 15.9335 14.668C15.9335 14.8577 15.7059 15.0853 15.3644 15.275C15.1748 15.3509 15.0989 15.5785 15.2127 15.7682C15.2886 15.882 15.4024 15.9579 15.5541 15.9579C15.63 15.9579 15.6679 15.9579 15.7438 15.9199C16.3508 15.5785 16.6923 15.1233 16.6923 14.6301C16.6923 14.1369 16.3508 13.6437 15.7438 13.3402Z" fill="#222222"/>
</g>
</svg>
