<svg width="48" height="48" viewBox="0 0 48 48" fill="none" xmlns="http://www.w3.org/2000/svg">
<circle cx="24" cy="24" r="24" fill="#B2D235"/>
<path d="M16.1551 24.9255H29.0581L23.421 30.5626C22.9705 31.0131 22.9705 31.7524 23.421 32.2029C23.8715 32.6534 24.5992 32.6534 25.0497 32.2029L32.6621 24.5905C33.1126 24.14 33.1126 23.4123 32.6621 22.9618L25.0613 15.3379C24.8455 15.1216 24.5525 15 24.2469 15C23.9414 15 23.6484 15.1216 23.4325 15.3379C22.982 15.7884 22.982 16.5161 23.4325 16.9666L29.0581 22.6153H16.1551C15.5198 22.6153 15 23.1351 15 23.7704C15 24.4057 15.5198 24.9255 16.1551 24.9255Z" fill="white"/>
<mask id="mask0_0_1518" style="mask-type:alpha" maskUnits="userSpaceOnUse" x="15" y="15" width="18" height="18">
<path d="M16.1551 24.9255H29.0581L23.421 30.5626C22.9705 31.0131 22.9705 31.7524 23.421 32.2029C23.8715 32.6534 24.5992 32.6534 25.0497 32.2029L32.6621 24.5905C33.1126 24.14 33.1126 23.4123 32.6621 22.9618L25.0613 15.3379C24.8455 15.1216 24.5525 15 24.2469 15C23.9414 15 23.6484 15.1216 23.4325 15.3379C22.982 15.7884 22.982 16.5161 23.4325 16.9666L29.0581 22.6153H16.1551C15.5198 22.6153 15 23.1351 15 23.7704C15 24.4057 15.5198 24.9255 16.1551 24.9255Z" fill="white"/>
</mask>
<g mask="url(#mask0_0_1518)">
</g>
</svg>
