<svg width="16" height="16" viewBox="0 0 16 16" fill="none" xmlns="http://www.w3.org/2000/svg">
<g opacity="0.501511">
<path fill-rule="evenodd" clip-rule="evenodd" d="M6.28428 8.70544H15.533C15.7909 8.70544 16 8.91531 16 9.17419V10.7221C16 10.9373 15.8556 11.1185 15.6588 11.1737V12.5239C15.6588 13.6145 14.9699 14.5466 14.0061 14.9052L14.2479 15.2732C14.3899 15.4893 14.3305 15.78 14.1152 15.9226C14.0361 15.975 13.9468 16.0001 13.8585 16.0001C13.7069 16.0001 13.5581 15.926 13.4683 15.7894L12.9906 15.0625H3.00941L2.53169 15.7894C2.44194 15.926 2.29316 16.0001 2.14147 16.0001C2.05319 16.0001 1.96397 15.975 1.88475 15.9226C1.66947 15.78 1.61003 15.4893 1.75209 15.2732L1.99394 14.9052C1.03006 14.5466 0.341219 13.6145 0.341219 12.5239V11.1737C0.144375 11.1185 0 10.9373 0 10.7221V9.17419C0 8.91531 0.209094 8.70544 0.467 8.70544H0.963875V1.77137C0.963875 0.794625 1.75553 0 2.72863 0C3.48353 0 4.15466 0.481781 4.39866 1.19887L4.57806 1.72844C5.53988 1.66272 6.45403 2.27381 6.73453 3.24009L6.87328 3.71809C6.90794 3.83744 6.89394 3.96575 6.83434 4.07472C6.77475 4.18372 6.67447 4.2645 6.55556 4.29928L3.42375 5.21522C3.18428 5.29053 2.90981 5.13906 2.84475 4.89628L2.70603 4.41828C2.42919 3.46456 2.85819 2.47003 3.68322 1.999L3.51459 1.50128C3.39994 1.16428 3.08397 0.9375 2.72863 0.9375C2.27053 0.9375 1.89787 1.31156 1.89787 1.77137V8.70544H2.83281C2.86341 8.47625 3.05847 8.29937 3.29516 8.29937H5.82194C6.05863 8.29937 6.25369 8.47628 6.28428 8.70544ZM5.84594 3.53031L5.83781 3.50234C5.68984 2.99253 5.224 2.66069 4.71978 2.66069C4.61225 2.66069 4.50297 2.67578 4.39469 2.70747C3.77847 2.88769 3.42319 3.5375 3.60275 4.15603L3.61088 4.184L5.84594 3.53031ZM3.76216 9.23687H5.35494V12.2671H3.76216V9.23687ZM14.7248 11.0646C14.7248 10.7917 14.8597 10.5499 15.066 10.4028H15.066V9.64294H6.28897V12.7358C6.28897 12.9947 6.07987 13.2046 5.82197 13.2046H3.29519C3.03728 13.2046 2.82819 12.9947 2.82819 12.7358V9.64294H0.934V10.4028C1.14034 10.5499 1.27522 10.7918 1.27522 11.0646V12.5239C1.27522 13.4068 1.99081 14.125 2.87038 14.125H13.1296C14.0092 14.125 14.7248 13.4068 14.7248 12.5239V11.0646Z" fill="#222222"/>
</g>
</svg>
