<svg viewBox="0 0 790 436" fill="none" xmlns="http://www.w3.org/2000/svg">
<g opacity="0.3">
<path d="M228.394 237.129H129.132V409.471H228.394H255.481H372.195V108.828H228.394V237.129Z" fill="#B2D235"/>
<path d="M535.813 247.502V0.727905H392.011V409.471H530.177H535.813H641.437V247.502H535.813Z" fill="#B2D235"/>
</g>
<rect x="0.238098" y="404.011" width="789" height="3.63974" fill="#D5D6DA"/>
<rect x="173.127" y="151.049" width="346.687" height="272.799" fill="#B2D235"/>
<rect x="173.127" y="181.987" width="346.687" height="241.861" fill="white"/>
<ellipse cx="185.489" cy="165.972" rx="5.09032" ry="5.09564" fill="white"/>
<path d="M212.032 165.972C212.032 168.702 209.85 171.068 206.942 171.068C204.215 171.068 201.851 168.884 201.851 165.972C201.851 163.06 204.033 160.877 206.942 160.877C209.85 160.877 212.032 163.242 212.032 165.972Z" fill="white"/>
<path d="M233.666 165.972C233.666 168.702 231.484 171.068 228.575 171.068C225.848 171.068 223.485 168.884 223.485 165.972C223.485 163.06 225.667 160.877 228.575 160.877C231.302 160.877 233.666 163.242 233.666 165.972Z" fill="white"/>
<path d="M400.556 175.072H257.845C253.118 175.072 249.118 171.25 249.118 166.336C249.118 161.604 252.936 157.601 257.845 157.601H400.556C405.282 157.601 409.282 161.422 409.282 166.336C409.1 171.25 405.282 175.072 400.556 175.072Z" fill="white"/>
<path d="M498.726 175.072H431.097C426.371 175.072 422.371 171.25 422.371 166.336C422.371 161.604 426.189 157.601 431.097 157.601H498.726C503.453 157.601 507.452 161.422 507.452 166.336C507.271 171.25 503.453 175.072 498.726 175.072Z" fill="white"/>
<rect x="200.76" y="289.723" width="123.259" height="69.701" fill="#B2D235"/>
<rect x="200.76" y="204.189" width="123.259" height="69.701" fill="#B2D235"/>
<rect x="201.851" y="377.077" width="121.259" height="5.45961" fill="#B2D235"/>
<rect x="201.851" y="395.276" width="121.259" height="5.45961" fill="#B2D235"/>
<rect x="366.741" y="377.077" width="121.259" height="5.45961" fill="#B2D235"/>
<rect x="366.741" y="395.276" width="121.259" height="5.45961" fill="#B2D235"/>
<path fill-rule="evenodd" clip-rule="evenodd" d="M171.309 425.668H521.633V149.229H171.309V425.668ZM517.997 422.028H174.945V152.869H517.997V422.028Z" fill="#D5D6DA"/>
<path fill-rule="evenodd" clip-rule="evenodd" d="M569.082 384.721H604.714V84.988H569.082V384.721ZM601.078 381.081H572.718V88.6277H601.078V381.081Z" fill="#BABABA"/>
<rect x="564.355" y="367.25" width="45.2675" height="32.5757" fill="#B2D235"/>
<path d="M603.078 350.143H571.627C570.9 350.143 570.172 349.779 569.991 349.051C569.627 348.323 569.809 347.595 570.354 347.049L600.714 314.292L603.441 316.84L575.99 346.503H603.26V350.143H603.078Z" fill="#BABABA"/>
<path d="M603.078 317.204H571.627C570.9 317.204 570.172 316.84 569.991 316.112C569.809 315.384 569.809 314.656 570.354 314.11L600.714 281.352L603.441 283.9L575.99 313.564H603.26V317.204H603.078Z" fill="#BABABA"/>
<path d="M603.078 284.446H571.627C570.9 284.446 570.172 284.082 569.991 283.354C569.627 282.626 569.809 281.898 570.354 281.352L600.714 248.594L603.441 251.142L575.99 280.806H603.26V284.446H603.078Z" fill="#BABABA"/>
<path d="M603.078 251.688H571.627C570.9 251.688 570.172 251.324 569.991 250.596C569.627 249.868 569.809 249.14 570.354 248.594L600.714 215.837L603.441 218.384L575.99 248.048H603.26V251.688H603.078Z" fill="#BABABA"/>
<path d="M603.078 218.748H571.627C570.9 218.748 570.172 218.385 569.991 217.657C569.627 216.929 569.809 216.201 570.354 215.655L600.714 182.897L603.441 185.445L575.99 215.109H603.26V218.748H603.078Z" fill="#BABABA"/>
<path d="M603.078 185.991H571.627C570.9 185.991 570.172 185.627 569.991 184.899C569.627 184.171 569.809 183.443 570.354 182.897L600.714 150.139L603.441 152.687L575.99 182.351H603.26V185.991H603.078Z" fill="#BABABA"/>
<path d="M603.078 153.233H571.627C570.9 153.233 570.172 152.869 569.991 152.141C569.627 151.413 569.809 150.685 570.354 150.139L600.714 117.382L603.441 119.929L575.99 149.593H603.26V153.233H603.078Z" fill="#BABABA"/>
<path d="M603.078 120.293H571.627C570.9 120.293 570.172 119.929 569.991 119.202C569.627 118.474 569.809 117.746 570.354 117.2L600.714 84.442L603.441 86.9898L575.99 116.654H603.26V120.293H603.078Z" fill="#516092"/>
<rect x="547.084" y="72.4308" width="57.6297" height="48.5905" fill="#ED7445"/>
<rect x="633.62" y="72.4308" width="57.6297" height="28.026" fill="#ED7445"/>
<path d="M690.34 75.8886H405.464C404.373 75.8886 403.646 75.1607 403.646 74.0688C403.646 72.9768 404.373 72.2489 405.464 72.2489H690.34C691.431 72.2489 692.158 72.9768 692.158 74.0688C692.158 75.1607 691.431 75.8886 690.34 75.8886Z" fill="#BABABA"/>
<rect x="418.735" y="82.6221" width="1.81797" height="118.292" fill="#516092"/>
<rect x="548.902" y="394.002" width="76.173" height="14.377" fill="#BABABA"/>
<path d="M575.99 75.3427C575.808 75.3427 575.445 75.3427 575.263 75.1607L559.992 59.8738H420.735L406.373 74.2508C406.01 74.6147 405.464 74.6147 405.101 74.2508C404.737 73.8868 404.737 73.3408 405.101 72.9769L419.826 58.2359H560.537L576.172 73.8868C576.535 74.2508 576.535 74.7967 576.172 75.1607C576.535 75.3427 576.354 75.3427 575.99 75.3427Z" fill="#BABABA"/>
<path d="M691.613 75.3426C691.249 75.3426 690.886 75.1607 690.886 74.7967L675.615 45.6788H638.71L624.348 73.8868C624.166 74.2507 623.621 74.4327 623.075 74.2507C622.712 74.0687 622.53 73.5228 622.712 72.9768L637.437 43.8589H676.524L692.158 73.8868C692.34 74.2507 692.158 74.7967 691.795 75.1607C691.795 75.3426 691.795 75.3426 691.613 75.3426Z" fill="#BABABA"/>
<path d="M426.371 82.6221C426.371 86.2619 423.462 89.3557 419.644 89.3557C416.008 89.3557 412.918 86.4439 412.918 82.6221C412.918 78.9824 415.827 75.8886 419.644 75.8886C423.462 75.8886 426.371 78.8004 426.371 82.6221Z" fill="#B2D235"/>
<path d="M338.547 212.505L490.796 198.419L498.04 276.889L345.791 290.974L338.547 212.505Z" fill="#B2D235"/>
<path d="M459.094 59.8738C458.731 59.8738 458.367 59.6918 458.185 59.1458C458.004 58.5998 458.367 58.2359 458.731 58.0539L593.261 16.9248C593.443 16.9248 593.624 16.9248 593.806 16.9248L657.617 43.8589C658.162 44.0409 658.344 44.5868 658.162 45.1328C657.981 45.6788 657.435 45.8607 656.89 45.6788L593.443 18.9267L459.094 59.8738C459.276 59.8738 459.276 59.8738 459.094 59.8738Z" fill="#BABABA"/>
<path d="M572.536 75.5247C572.354 75.5247 572.172 75.5247 571.809 75.3427C570.9 74.9787 570.354 73.8868 570.718 72.9768L591.988 17.1068C592.352 16.3789 593.079 15.8329 593.806 16.0149C594.533 16.0149 595.26 16.7428 595.442 17.4708L606.35 71.8849C606.532 72.7948 605.986 73.8868 604.896 74.0688C603.987 74.2507 602.896 73.7048 602.714 72.6129L593.079 24.3863L574.172 74.2507C573.99 75.1607 573.263 75.5247 572.536 75.5247Z" fill="#BABABA"/>
<path d="M597.442 17.8347C597.442 19.8366 595.806 21.4745 593.806 21.4745C591.806 21.4745 590.17 19.8366 590.17 17.8347C590.17 15.8329 591.806 14.195 593.806 14.195C595.806 14.195 597.442 15.8329 597.442 17.8347Z" fill="#BCCCFD"/>
<path d="M440.006 75.5246C439.824 75.5246 439.642 75.5246 439.46 75.3426L421.644 60.9657V74.4327C421.644 74.9787 421.281 75.3426 420.735 75.3426C420.19 75.3426 419.826 74.9787 419.826 74.4327V58.9638C419.826 58.5998 420.008 58.2359 420.372 58.0539C420.735 57.8719 421.099 57.8719 421.281 58.2359L440.551 73.8867C440.915 74.2507 440.915 74.7967 440.733 75.1607C440.551 75.5246 440.187 75.5246 440.006 75.5246Z" fill="#BABABA"/>
<path d="M457.276 75.5246C457.095 75.5246 456.913 75.5246 456.731 75.3426L438.915 60.9657V74.4327C438.915 74.9787 438.551 75.3426 438.006 75.3426C437.46 75.3426 437.097 74.9787 437.097 74.4327V58.9638C437.097 58.5998 437.279 58.2359 437.642 58.0539C438.006 57.8719 438.369 57.8719 438.551 58.2359L457.822 73.8867C458.185 74.2507 458.185 74.7967 458.004 75.1607C457.64 75.5246 457.458 75.5246 457.276 75.5246Z" fill="#BABABA"/>
<path d="M474.547 75.5246C474.365 75.5246 474.184 75.5246 474.002 75.3426L456.186 60.9657V74.4327C456.186 74.9787 455.822 75.3426 455.277 75.3426C454.731 75.3426 454.368 74.9787 454.368 74.4327V58.9638C454.368 58.5998 454.549 58.2359 454.913 58.0539C455.277 57.8719 455.64 57.8719 455.822 58.2359L475.092 73.8867C475.456 74.2507 475.456 74.7967 475.274 75.1607C474.911 75.5246 474.729 75.5246 474.547 75.5246Z" fill="#BABABA"/>
<path d="M491.636 75.5246C491.454 75.5246 491.272 75.5246 491.091 75.3426L473.275 60.9657V74.4327C473.275 74.9787 472.911 75.3426 472.366 75.3426C471.82 75.3426 471.457 74.9787 471.457 74.4327V58.9638C471.457 58.5998 471.638 58.2359 472.002 58.0539C472.366 57.8719 472.729 57.8719 472.911 58.2359L492.181 73.8867C492.545 74.2507 492.545 74.7967 492.363 75.1607C492.181 75.5246 492 75.5246 491.636 75.5246Z" fill="#BABABA"/>
<path d="M508.907 75.5246C508.725 75.5246 508.543 75.5246 508.361 75.3426L490.545 60.9657V74.4327C490.545 74.9787 490.182 75.3426 489.636 75.3426C489.091 75.3426 488.727 74.9787 488.727 74.4327V58.9638C488.727 58.5998 488.909 58.2359 489.273 58.0539C489.636 57.8719 490 57.8719 490.182 58.2359L509.452 73.8867C509.816 74.2507 509.816 74.7967 509.634 75.1607C509.452 75.5246 509.27 75.5246 508.907 75.5246Z" fill="#BABABA"/>
<path d="M526.178 75.5246C525.996 75.5246 525.814 75.5246 525.632 75.3426L507.816 60.9657V74.4327C507.816 74.9787 507.452 75.3426 506.907 75.3426C506.362 75.3426 505.998 74.9787 505.998 74.4327V58.9638C505.998 58.5998 506.18 58.2359 506.543 58.0539C506.907 57.8719 507.271 57.8719 507.452 58.2359L526.723 73.8867C527.087 74.2507 527.087 74.7967 526.905 75.1607C526.723 75.5246 526.541 75.5246 526.178 75.5246Z" fill="#BABABA"/>
<path d="M543.448 75.5246C543.266 75.5246 543.085 75.5246 542.903 75.3426L525.087 60.9657V74.4327C525.087 74.9787 524.723 75.3426 524.178 75.3426C523.632 75.3426 523.269 74.9787 523.269 74.4327V58.9638C523.269 58.5998 523.451 58.2359 523.814 58.0539C524.178 57.8719 524.541 57.8719 524.723 58.2359L543.994 73.8867C544.357 74.2507 544.357 74.7967 544.175 75.1607C543.994 75.5246 543.812 75.5246 543.448 75.5246Z" fill="#BABABA"/>
<path d="M560.719 75.5246C560.537 75.5246 560.355 75.5246 560.174 75.3426L542.357 60.9657V74.4327C542.357 74.9787 541.994 75.3426 541.448 75.3426C540.903 75.3426 540.539 74.9787 540.539 74.4327V58.9638C540.539 58.5998 540.721 58.2359 541.085 58.0539C541.448 57.8719 541.812 57.8719 541.994 58.2359L561.264 73.8867C561.628 74.2507 561.628 74.7967 561.446 75.1607C561.264 75.5246 561.083 75.5246 560.719 75.5246Z" fill="#BABABA"/>
<path d="M662.889 75.5247C662.707 75.5247 662.344 75.3427 662.162 75.1607L638.892 47.6806V74.2507C638.892 74.7967 638.528 75.1607 637.983 75.1607C637.437 75.1607 637.074 74.7967 637.074 74.2507V45.4968C637.074 45.1328 637.256 44.7688 637.619 44.5869C637.983 44.4049 638.346 44.5869 638.71 44.7688L663.434 74.0688C663.798 74.4327 663.798 74.9787 663.253 75.3427C663.253 75.5247 663.071 75.5247 662.889 75.5247Z" fill="#BABABA"/>
<path d="M680.705 75.5246C680.342 75.5246 680.16 75.3427 679.978 75.1607L662.344 48.4086V74.4327C662.344 74.9787 661.98 75.3427 661.435 75.3427C660.889 75.3427 660.526 74.9787 660.526 74.4327V45.4968C660.526 45.1328 660.707 44.7688 661.253 44.5868C661.616 44.4048 661.98 44.5868 662.344 44.9508L681.614 74.2507C681.978 74.6147 681.796 75.1607 681.432 75.5246C681.069 75.5246 680.887 75.5246 680.705 75.5246Z" fill="#BABABA"/>
<path d="M425.462 203.28C425.462 206.373 422.917 208.921 419.826 208.921C416.736 208.921 414.19 206.373 414.19 203.28C414.19 200.186 416.736 197.638 419.826 197.638C422.917 197.638 425.462 200.186 425.462 203.28Z" fill="#ED7445"/>
<rect x="109.498" y="317.567" width="3.63594" height="87.3538" fill="#BABABA"/>
<rect x="40.4153" y="317.567" width="3.63594" height="87.3538" fill="#BABABA"/>
<rect x="31.3254" y="325.757" width="91.2622" height="33.6676" fill="#E3EBFF"/>
<path d="M122.588 359.424V327.577L105.862 359.424H122.588Z" fill="#ED7445"/>
<path d="M64.9579 359.424H84.4103L102.226 325.757H82.7741L64.9579 359.424Z" fill="#ED7445"/>
<path d="M41.8697 325.757L31.3254 345.593V359.424H43.5059L61.322 325.757H41.8697Z" fill="#ED7445"/>
<rect x="26.7805" y="379.443" width="99.9885" height="3.63974" fill="#BABABA"/>
<rect x="742.153" y="317.567" width="3.63594" height="87.3538" fill="#BABABA"/>
<rect x="673.07" y="317.567" width="3.63594" height="87.3538" fill="#BABABA"/>
<rect x="663.98" y="325.757" width="91.2622" height="33.6676" fill="#E3EBFF"/>
<path d="M755.242 359.424V327.577L738.517 359.424H755.242Z" fill="#ED7445"/>
<path d="M697.612 359.424H717.065L734.881 325.757H715.428L697.612 359.424Z" fill="#ED7445"/>
<path d="M674.524 325.757L663.98 345.593V359.424H676.16L693.976 325.757H674.524Z" fill="#ED7445"/>
<rect x="659.435" y="379.443" width="99.9885" height="3.63974" fill="#BABABA"/>
<path d="M166.583 430.217H125.133C123.678 430.217 122.588 431.309 122.588 432.765C122.588 434.221 123.678 435.313 125.133 435.313H166.583C168.037 435.313 169.128 434.221 169.128 432.765C169.128 431.309 167.855 430.217 166.583 430.217Z" fill="#ED7445"/>
<path d="M149.312 394.912C149.13 394.366 148.585 394.002 148.039 394.002H143.312C142.767 394.002 142.222 394.366 142.04 394.912L128.587 433.129H163.128L149.312 394.912Z" fill="#ED7445"/>
<path d="M139.495 402.009L137.313 408.015H154.039L151.857 402.009H139.495Z" fill="#ECEFF1"/>
<path d="M134.041 417.478L132.041 423.484H159.674L157.493 417.478H134.041Z" fill="#ECEFF1"/>
<path opacity="0.3" d="M160.401 107.918C157.311 107.918 154.584 108.828 152.221 110.466V106.462C152.221 94.8153 142.949 85.5339 131.314 85.5339C119.679 85.5339 110.407 94.8153 110.407 106.462V114.288C108.589 112.468 106.044 111.376 103.135 111.376C97.3178 111.376 92.5911 116.108 92.5911 121.931H174.582C174.582 114.288 168.219 107.918 160.401 107.918Z" fill="#B2D235"/>
<path opacity="0.3" d="M329.291 50.9564C327.11 50.9564 325.11 51.6843 323.292 52.7762V49.8644C323.292 41.493 316.565 34.5775 308.021 34.5775C299.658 34.5775 292.75 41.311 292.75 49.8644V55.688C291.296 54.4141 289.478 53.5042 287.478 53.5042C283.296 53.5042 279.842 56.9619 279.842 61.1476H339.472C339.472 55.506 334.927 50.9564 329.291 50.9564Z" fill="#B2D235"/>
</svg>
