<svg width="16" height="16" viewBox="0 0 16 16" fill="none" xmlns="http://www.w3.org/2000/svg">
<g opacity="0.49893">
<path fill-rule="evenodd" clip-rule="evenodd" d="M11.4998 15.68H9.99982C9.90032 15.68 9.81982 15.5995 9.81982 15.5V0.500007C9.81982 0.400507 9.90032 0.320007 9.99982 0.320007H10.9998C11.9263 0.320007 12.6798 1.07351 12.6798 2.00001V8.00001C12.6798 8.09951 12.5993 8.18001 12.4998 8.18001H11.6798V15.5C11.6798 15.5995 11.5993 15.68 11.4998 15.68ZM10.1798 15.32H11.3193V8.00001C11.3193 7.90051 11.3998 7.82001 11.4993 7.82001H12.3193V2.00001C12.3193 1.27201 11.7273 0.680007 10.9993 0.680007H10.1793L10.1798 15.32ZM4.49982 15.68H5.99982C6.09932 15.68 6.17982 15.5995 6.17982 15.5V6.68001H6.49982C7.15032 6.68001 7.67982 6.15051 7.67982 5.50001V0.500007H7.31982V5.50001C7.31982 5.95201 6.95182 6.32001 6.49982 6.32001H5.99982C5.90032 6.32001 5.81982 6.40051 5.81982 6.50001V15.32H4.67982V6.50001C4.67982 6.40051 4.59932 6.32001 4.49982 6.32001H3.99982C3.54782 6.32001 3.17982 5.95201 3.17982 5.50001V0.500007H2.81982V5.50001C2.81982 6.15051 3.34932 6.68001 3.99982 6.68001H4.31982V15.5C4.31982 15.5995 4.40032 15.68 4.49982 15.68ZM6.17982 4.50001H5.81982V0.500007H6.17982V4.50001ZM4.31982 4.50001H4.67982V0.500007H4.31982V4.50001Z" fill="black"/>
</g>
</svg>
