<svg width="11" height="16" viewBox="0 0 11 16" fill="none" xmlns="http://www.w3.org/2000/svg">
<path fill-rule="evenodd" clip-rule="evenodd" d="M9.49982 15.68H7.99982C7.90032 15.68 7.81982 15.5995 7.81982 15.5V0.500007C7.81982 0.400507 7.90032 0.320007 7.99982 0.320007H8.99982C9.92632 0.320007 10.6798 1.07351 10.6798 2.00001V8.00001C10.6798 8.09951 10.5993 8.18001 10.4998 8.18001H9.67982V15.5C9.67982 15.5995 9.59932 15.68 9.49982 15.68ZM8.17982 15.32H9.31932V8.00001C9.31932 7.90051 9.39982 7.82001 9.49932 7.82001H10.3193V2.00001C10.3193 1.27201 9.72732 0.680007 8.99932 0.680007H8.17932L8.17982 15.32ZM2.49982 15.68H3.99982C4.09932 15.68 4.17982 15.5995 4.17982 15.5V6.68001H4.49982C5.15032 6.68001 5.67982 6.15051 5.67982 5.50001V0.500007H5.31982V5.50001C5.31982 5.95201 4.95182 6.32001 4.49982 6.32001H3.99982C3.90032 6.32001 3.81982 6.40051 3.81982 6.50001V15.32H2.67982V6.50001C2.67982 6.40051 2.59932 6.32001 2.49982 6.32001H1.99982C1.54782 6.32001 1.17982 5.95201 1.17982 5.50001V0.500007H0.819824V5.50001C0.819824 6.15051 1.34932 6.68001 1.99982 6.68001H2.31982V15.5C2.31982 15.5995 2.40032 15.68 2.49982 15.68ZM4.17982 4.50001H3.81982V0.500007H4.17982V4.50001ZM2.31982 4.50001H2.67982V0.500007H2.31982V4.50001Z" fill="black"/>
</svg>
