<svg width="30" height="30" viewBox="0 0 30 30" fill="none" xmlns="http://www.w3.org/2000/svg">
<mask id="mask0_0_17062" style="mask-type:alpha" maskUnits="userSpaceOnUse" x="0" y="0" width="30" height="30">
<path fill-rule="evenodd" clip-rule="evenodd" d="M14.621 0.749023C6.547 0.749023 0 7.29402 0 15.37C0 22.667 5.347 28.716 12.337 29.813V19.596H8.625V15.37H12.337V12.148C12.337 8.48402 14.52 6.46002 17.86 6.46002C19.459 6.46002 21.133 6.74502 21.133 6.74502V10.343H19.289C17.473 10.343 16.906 11.47 16.906 12.627V15.37H20.961L20.313 19.596H16.906V29.813C23.896 28.716 29.243 22.667 29.243 15.37C29.243 7.29402 22.696 0.749023 14.621 0.749023Z" fill="white"/>
</mask>
<g mask="url(#mask0_0_17062)">
<path fill-rule="evenodd" clip-rule="evenodd" d="M14.621 0.749023C6.547 0.749023 0 7.29402 0 15.37C0 22.667 5.347 28.716 12.337 29.813V19.596H8.625V15.37H12.337V12.148C12.337 8.48402 14.52 6.46002 17.86 6.46002C19.459 6.46002 21.133 6.74502 21.133 6.74502V10.343H19.289C17.473 10.343 16.906 11.47 16.906 12.627V15.37H20.961L20.313 19.596H16.906V29.813C23.896 28.716 29.243 22.667 29.243 15.37C29.243 7.29402 22.696 0.749023 14.621 0.749023Z" fill="url(#paint0_linear_0_17062)"/>
</g>
<path fill-rule="evenodd" clip-rule="evenodd" d="M20.313 19.5962L20.961 15.3692H16.906V12.6272C16.906 11.4702 17.473 10.3432 19.289 10.3432H21.133V6.74521C21.133 6.74521 19.459 6.46021 17.86 6.46021C14.52 6.46021 12.337 8.48421 12.337 12.1482V15.3692H8.625V19.5962H12.337V29.8132C13.081 29.9302 13.844 29.9912 14.622 29.9912C15.399 29.9912 16.162 29.9302 16.906 29.8132V19.5962H20.313Z" fill="white"/>
<defs>
<linearGradient id="paint0_linear_0_17062" x1="-6.11997" y1="15.3063" x2="14.43" y2="36.1101" gradientUnits="userSpaceOnUse">
<stop stop-color="#4675ED"/>
<stop offset="1" stop-color="#2A1D99"/>
</linearGradient>
</defs>
</svg>
