<svg width="20" height="16" viewBox="0 0 20 16" fill="none" xmlns="http://www.w3.org/2000/svg">
<g opacity="0.499372">
<path fill-rule="evenodd" clip-rule="evenodd" d="M14.6025 1.20671L5.34712 0.0574517C5.16252 0.0361914 4.9754 0.0254517 4.79101 0.0254517C2.14926 0.0254517 0 2.17838 0 4.82463V4.92403C0 6.71367 0.983178 8.27745 2.43671 9.10249L3.7166 14.2765C3.85814 14.8488 4.21414 15.3318 4.7189 15.6363C5.06751 15.8467 5.45819 15.9545 5.85512 15.9545C6.03299 15.9545 6.21211 15.9328 6.38921 15.8891L6.42438 15.8804C6.99666 15.7388 7.47962 15.3829 7.78416 14.8781C8.08871 14.3733 8.17852 13.7801 8.03693 13.2079L7.11282 9.47203L14.6025 8.542C14.8083 8.51647 14.9628 8.34162 14.9628 8.13422V1.61455C14.9628 1.40715 14.8083 1.23225 14.6025 1.20671ZM7.23901 13.4052C7.32789 13.7644 7.27151 14.1367 7.08038 14.4535C6.88921 14.7703 6.58614 14.9937 6.2269 15.0825L6.19173 15.0912C5.83266 15.1801 5.46033 15.1238 5.14351 14.9325C4.82674 14.7414 4.60334 14.4383 4.51452 14.0792L3.38482 9.51214C3.8297 9.64923 4.30192 9.7232 4.79107 9.7232C4.97551 9.7232 5.16263 9.71247 5.35085 9.69071L6.2914 9.57395L7.23901 13.4052ZM5.25315 8.87466L14.1409 7.77104H14.1409V1.97762L5.24953 0.873561C5.09967 0.856356 4.94416 0.847369 4.79101 0.847369C2.60247 0.847369 0.821918 2.63159 0.821918 4.82463V4.92403C0.821918 7.11712 2.60247 8.90129 4.79096 8.90129C4.94411 8.90129 5.09962 8.8923 5.25315 8.87466Z" fill="black"/>
<path fill-rule="evenodd" clip-rule="evenodd" d="M5.02987 7.60783C3.52258 7.60783 2.29639 6.38158 2.29639 4.87435C2.29639 3.36712 3.52263 2.14087 5.02987 2.14087C6.5371 2.14087 7.76335 3.36712 7.76335 4.87435C7.76335 6.38158 6.53715 7.60783 5.02987 7.60783ZM5.02987 6.78591C6.08389 6.78591 6.94143 5.92838 6.94143 4.87435C6.94143 3.82032 6.08389 2.96279 5.02987 2.96279C3.97584 2.96279 3.1183 3.82027 3.1183 4.87435C3.1183 5.92843 3.97584 6.78591 5.02987 6.78591Z" fill="black"/>
<path d="M15.9534 3.57753C16.1923 3.57753 16.3074 3.70614 16.5247 3.97364C16.7646 4.26899 17.0932 4.67342 17.7339 4.67342C18.3747 4.67342 18.7032 4.26899 18.9432 3.97364C19.1605 3.70608 19.2756 3.57753 19.5145 3.57753C19.7414 3.57753 19.9254 3.39359 19.9254 3.16657C19.9254 2.93956 19.7414 2.75562 19.5145 2.75562C18.8737 2.75562 18.5452 3.16005 18.3052 3.4554C18.0879 3.72296 17.9728 3.85151 17.7339 3.85151C17.495 3.85151 17.38 3.7229 17.1626 3.4554C16.9228 3.16005 16.5942 2.75562 15.9534 2.75562C15.7265 2.75562 15.5425 2.93956 15.5425 3.16657C15.5425 3.39359 15.7264 3.57753 15.9534 3.57753Z" fill="black"/>
<path d="M19.5145 5.23798C18.8737 5.23798 18.5452 5.64241 18.3052 5.93776C18.0879 6.20532 17.9728 6.33387 17.7339 6.33387C17.495 6.33387 17.38 6.20526 17.1626 5.93776C16.9228 5.64241 16.5942 5.23798 15.9534 5.23798C15.7265 5.23798 15.5425 5.42192 15.5425 5.64893C15.5425 5.87595 15.7265 6.05989 15.9534 6.05989C16.1923 6.05989 16.3074 6.1885 16.5247 6.456C16.7646 6.75135 17.0932 7.15578 17.734 7.15578C18.3748 7.15578 18.7033 6.75135 18.9432 6.456C19.1606 6.18844 19.2756 6.05989 19.5145 6.05989C19.7415 6.05989 19.9255 5.87595 19.9255 5.64893C19.9255 5.42192 19.7414 5.23798 19.5145 5.23798V5.23798Z" fill="black"/>
</g>
</svg>
