<svg width="30" height="32" viewBox="0 0 30 32" fill="none" xmlns="http://www.w3.org/2000/svg">
<mask id="mask0_0_17067" style="mask-type:alpha" maskUnits="userSpaceOnUse" x="0" y="1" width="30" height="30">
<path fill-rule="evenodd" clip-rule="evenodd" d="M14.621 1C6.547 1 0 7.547 0 15.622C0 23.696 6.547 30.243 14.621 30.243C22.696 30.243 29.243 23.696 29.243 15.622C29.243 7.547 22.696 1 14.621 1Z" fill="white"/>
</mask>
<g mask="url(#mask0_0_17067)">
<path fill-rule="evenodd" clip-rule="evenodd" d="M14.621 1C6.547 1 0 7.547 0 15.622C0 23.696 6.547 30.243 14.621 30.243C22.696 30.243 29.243 23.696 29.243 15.622C29.243 7.547 22.696 1 14.621 1Z" fill="url(#paint0_linear_0_17067)"/>
</g>
<path fill-rule="evenodd" clip-rule="evenodd" d="M19.16 10.0903C18.605 10.0903 18.155 10.5403 18.155 11.0953C18.155 11.6503 18.605 12.1003 19.16 12.1003C19.715 12.1003 20.165 11.6503 20.165 11.0953C20.165 10.5403 19.715 10.0903 19.16 10.0903Z" fill="white"/>
<path fill-rule="evenodd" clip-rule="evenodd" d="M14.6917 18.3054C13.2007 18.3054 11.9877 17.0924 11.9877 15.6014C11.9877 14.1094 13.2007 12.8964 14.6917 12.8964C16.1827 12.8964 17.3957 14.1094 17.3957 15.6014C17.3957 17.0924 16.1827 18.3054 14.6917 18.3054ZM14.6917 11.3794C12.3637 11.3794 10.4697 13.2734 10.4697 15.6014C10.4697 17.9294 12.3637 19.8234 14.6917 19.8234C17.0197 19.8234 18.9137 17.9294 18.9137 15.6014C18.9137 13.2734 17.0197 11.3794 14.6917 11.3794Z" fill="white"/>
<path fill-rule="evenodd" clip-rule="evenodd" d="M11.199 8.64205C9.24905 8.64205 7.66205 10.2281 7.66205 12.1781V19.0231C7.66205 20.9731 9.24905 22.5601 11.199 22.5601H18.043C19.994 22.5601 21.58 20.9731 21.58 19.0231V12.1781C21.58 10.2281 19.994 8.64205 18.043 8.64205H11.199ZM18.043 24.1731H11.199C8.36005 24.1731 6.05005 21.8631 6.05005 19.0231V12.1781C6.05005 9.33905 8.36005 7.02905 11.199 7.02905H18.043C20.883 7.02905 23.193 9.33905 23.193 12.1781V19.0231C23.193 21.8631 20.883 24.1731 18.043 24.1731Z" fill="white"/>
<defs>
<linearGradient id="paint0_linear_0_17067" x1="29.243" y1="1" x2="0" y2="1" gradientUnits="userSpaceOnUse">
<stop stop-color="#FBE18A"/>
<stop offset="0.320203" stop-color="#F75274"/>
<stop offset="0.592603" stop-color="#D53692"/>
<stop offset="0.802174" stop-color="#8F39CE"/>
<stop offset="1" stop-color="#5B4FE9"/>
</linearGradient>
</defs>
</svg>
