<svg width="117" height="40" viewBox="0 0 117 40" fill="none" xmlns="http://www.w3.org/2000/svg">
<rect width="117" height="40" rx="20" fill="#B2D235"/>
<path d="M29.639 25.13C29.0583 25.13 28.521 25.0173 28.027 24.792C27.5417 24.558 27.143 24.233 26.831 23.817L27.793 22.66C28.2957 23.3533 28.898 23.7 29.6 23.7C30.5447 23.7 31.017 23.141 31.017 22.023V17.317H27.78V15.9H32.707V21.932C32.707 22.998 32.447 23.7997 31.927 24.337C31.407 24.8657 30.6443 25.13 29.639 25.13ZM38.0415 25.091C37.3395 25.091 36.7068 24.9393 36.1435 24.636C35.5801 24.3327 35.1381 23.9123 34.8175 23.375C34.5055 22.829 34.3495 22.2137 34.3495 21.529C34.3495 20.8443 34.5055 20.2333 34.8175 19.696C35.1381 19.1587 35.5801 18.7383 36.1435 18.435C36.7068 18.1317 37.3395 17.98 38.0415 17.98C38.7521 17.98 39.3891 18.1317 39.9525 18.435C40.5158 18.7383 40.9535 19.1587 41.2655 19.696C41.5861 20.2333 41.7465 20.8443 41.7465 21.529C41.7465 22.2137 41.5861 22.829 41.2655 23.375C40.9535 23.9123 40.5158 24.3327 39.9525 24.636C39.3891 24.9393 38.7521 25.091 38.0415 25.091ZM38.0415 23.7C38.6395 23.7 39.1335 23.5007 39.5235 23.102C39.9135 22.7033 40.1085 22.179 40.1085 21.529C40.1085 20.879 39.9135 20.3547 39.5235 19.956C39.1335 19.5573 38.6395 19.358 38.0415 19.358C37.4435 19.358 36.9495 19.5573 36.5595 19.956C36.1781 20.3547 35.9875 20.879 35.9875 21.529C35.9875 22.179 36.1781 22.7033 36.5595 23.102C36.9495 23.5007 37.4435 23.7 38.0415 23.7ZM43.3004 18.058H44.9254V25H43.3004V18.058ZM44.1194 16.914C43.8247 16.914 43.5777 16.823 43.3784 16.641C43.179 16.4503 43.0794 16.2163 43.0794 15.939C43.0794 15.6617 43.179 15.432 43.3784 15.25C43.5777 15.0593 43.8247 14.964 44.1194 14.964C44.414 14.964 44.661 15.055 44.8604 15.237C45.0597 15.4103 45.1594 15.6313 45.1594 15.9C45.1594 16.186 45.0597 16.4287 44.8604 16.628C44.6697 16.8187 44.4227 16.914 44.1194 16.914ZM50.9972 17.98C51.8725 17.98 52.5745 18.2357 53.1032 18.747C53.6319 19.2583 53.8962 20.0167 53.8962 21.022V25H52.2712V21.23C52.2712 20.6233 52.1282 20.1683 51.8422 19.865C51.5562 19.553 51.1489 19.397 50.6202 19.397C50.0222 19.397 49.5499 19.579 49.2032 19.943C48.8565 20.2983 48.6832 20.814 48.6832 21.49V25H47.0582V18.058H48.6052V18.955C48.8739 18.6343 49.2119 18.3917 49.6192 18.227C50.0265 18.0623 50.4859 17.98 50.9972 17.98ZM67.7924 15.9V25H66.4014L61.3834 18.838V25H59.7064V15.9H61.0974L66.1154 22.062V15.9H67.7924ZM73.1948 25.091C72.4928 25.091 71.8601 24.9393 71.2968 24.636C70.7335 24.3327 70.2915 23.9123 69.9708 23.375C69.6588 22.829 69.5028 22.2137 69.5028 21.529C69.5028 20.8443 69.6588 20.2333 69.9708 19.696C70.2915 19.1587 70.7335 18.7383 71.2968 18.435C71.8601 18.1317 72.4928 17.98 73.1948 17.98C73.9055 17.98 74.5425 18.1317 75.1058 18.435C75.6691 18.7383 76.1068 19.1587 76.4188 19.696C76.7395 20.2333 76.8998 20.8443 76.8998 21.529C76.8998 22.2137 76.7395 22.829 76.4188 23.375C76.1068 23.9123 75.6691 24.3327 75.1058 24.636C74.5425 24.9393 73.9055 25.091 73.1948 25.091ZM73.1948 23.7C73.7928 23.7 74.2868 23.5007 74.6768 23.102C75.0668 22.7033 75.2618 22.179 75.2618 21.529C75.2618 20.879 75.0668 20.3547 74.6768 19.956C74.2868 19.5573 73.7928 19.358 73.1948 19.358C72.5968 19.358 72.1028 19.5573 71.7128 19.956C71.3315 20.3547 71.1408 20.879 71.1408 21.529C71.1408 22.179 71.3315 22.7033 71.7128 23.102C72.1028 23.5007 72.5968 23.7 73.1948 23.7ZM89.0923 18.058L86.5313 25H84.9713L83.1773 20.216L81.3573 25H79.7973L77.2493 18.058H78.7833L80.6163 23.18L82.5273 18.058H83.8923L85.7643 23.206L87.6493 18.058H89.0923Z" fill="white"/>
</svg>
