<svg width="50" height="60" viewBox="0 0 50 60" fill="none" xmlns="http://www.w3.org/2000/svg">
<mask id="mask0_0_17017" style="mask-type:alpha" maskUnits="userSpaceOnUse" x="0" y="0" width="50" height="60">
<path fill-rule="evenodd" clip-rule="evenodd" d="M0.000488281 0.446777H49.8498V59.7357H0.000488281V0.446777Z" fill="white"/>
</mask>
<g mask="url(#mask0_0_17017)">
<path fill-rule="evenodd" clip-rule="evenodd" d="M49.8503 25.3264C49.8503 11.5859 38.6907 0.446411 24.9254 0.446411C11.1587 0.446411 0.000488281 11.5859 0.000488281 25.3264C0.000488281 45.1782 24.9254 59.7356 24.9254 59.7356C24.9254 59.7356 49.8503 45.9716 49.8503 25.3264" fill="#ED184B"/>
</g>
<path fill-rule="evenodd" clip-rule="evenodd" d="M42.4533 24.8269C42.4533 15.1138 34.5722 7.24133 24.8513 7.24133C15.1292 7.24133 7.24805 15.1138 7.24805 24.8269C7.24805 34.54 15.1292 42.4137 24.8513 42.4137C34.5722 42.4137 42.4533 34.54 42.4533 24.8269Z" fill="white"/>
<path fill-rule="evenodd" clip-rule="evenodd" d="M24.8509 31.9451L31.8892 36.2069L30.0272 28.1702L36.2408 22.7642L28.0498 22.06L24.8509 14.4828L21.652 22.06L13.4609 22.7642L19.6746 28.1702L17.8126 36.2069L24.8509 31.9451Z" fill="#ED184B"/>
</svg>
