<svg width="16" height="22" viewBox="0 0 16 22" fill="none" xmlns="http://www.w3.org/2000/svg">
<path fill-rule="evenodd" clip-rule="evenodd" d="M0 8.05778C0 3.61422 3.58933 0 8 0C12.4107 0 16 3.61422 16 8.05778C16 14.3716 8.752 20.8907 8.44356 21.1653C8.31644 21.2773 8.15822 21.3333 8 21.3333C7.84178 21.3333 7.68356 21.2773 7.55644 21.1644C7.248 20.8907 0 14.3716 0 8.05778ZM3.55556 8C3.55556 10.4507 5.54933 12.4444 8 12.4444C10.4507 12.4444 12.4444 10.4507 12.4444 8C12.4444 5.54933 10.4507 3.55556 8 3.55556C5.54933 3.55556 3.55556 5.54933 3.55556 8Z" fill="#CCCCCC"/>
</svg>
