<svg width="16" height="18" viewBox="0 0 16 18" fill="none" xmlns="http://www.w3.org/2000/svg">
<g opacity="0.497419">
<path fill-rule="evenodd" clip-rule="evenodd" d="M15.9532 11.8123C15.9532 11.8023 15.9492 11.7935 15.9454 11.7849C15.9424 11.7783 15.9395 11.7719 15.9386 11.7652C15.9391 11.761 15.9413 11.7576 15.9435 11.7542C15.9461 11.7501 15.9488 11.746 15.9488 11.7403C15.9488 10.1395 14.6291 8.83679 13.0061 8.83679C11.4854 8.83679 10.2463 9.98582 10.0954 11.4495C9.88274 11.1767 9.57968 10.996 9.23099 10.996H8.50836V0.871831C8.50836 0.35146 8.17209 0 7.67217 0C7.17246 0 6.83578 0.35092 6.83578 0.871831V10.9954H6.11194C5.81773 10.9954 5.55477 11.128 5.35096 11.3304V8.26538C5.35096 8.14798 5.25489 8.05192 5.13722 8.05192H1.15808C1.04027 8.05192 0.944477 8.14852 0.944477 8.26538V8.36631H0.193084V9.50339H0.944544V9.53668C0.944544 9.65462 1.04027 9.74987 1.15815 9.74987H2.2743V10.1048C2.2743 10.5783 1.89199 10.9619 1.42265 10.9619C1.30485 10.9619 1.20919 11.0582 1.20919 11.1751C1.20919 11.293 1.30485 11.3882 1.42265 11.3882C2.12753 11.3882 2.70205 10.8117 2.70205 10.1048V9.74981H3.24571V12.0191H1.34414C0.632713 12.0191 0.0546875 12.6016 0.0546875 13.3137V17.1446C0.0546875 17.2625 0.15062 17.3574 0.268156 17.3574H5.13762C5.14139 17.3574 5.14417 17.3555 5.14695 17.3535C5.14931 17.3518 5.15167 17.3501 5.15464 17.3496C5.15768 17.3501 5.16007 17.3519 5.1624 17.3536C5.16503 17.3556 5.16758 17.3574 5.17091 17.3574H10.173C10.291 17.3574 10.3867 17.2606 10.3867 17.1446V13.6624L10.986 17.1808C11.0036 17.2834 11.092 17.3583 11.1956 17.3583H14.7811C14.8836 17.3583 14.9715 17.2844 14.9913 17.1841L15.9458 12.0269C15.9526 11.9921 15.9396 11.9591 15.9272 11.9276L15.922 11.9141C15.925 11.8996 15.9309 11.8858 15.9367 11.8721C15.945 11.8526 15.9532 11.8332 15.9532 11.8123ZM7.67103 0.427747C7.82373 0.427747 8.0798 0.484456 8.0798 0.871831V8.69502H7.26252V0.871831C7.26198 0.484456 7.51845 0.427747 7.67103 0.427747ZM8.07987 9.12135H7.26198V10.9949H8.07987V9.12135ZM1.37108 9.32267V8.47872H4.92314V11.0293H3.67238V9.53694C3.67238 9.41954 3.57631 9.32381 3.45864 9.32381L1.37108 9.32267ZM3.45816 12.4464H1.34306C0.86765 12.4464 0.480814 12.836 0.479801 13.3127V14.2515C0.845979 14.0285 1.58785 13.8159 2.80824 14.5247C4.12854 15.2898 4.61361 14.499 4.90228 14.0269L4.9226 14.0353V11.4557H3.6719V12.2335C3.6719 12.3506 3.57583 12.4464 3.45816 12.4464ZM0.480814 16.9293V14.7728C0.487036 14.7688 0.493983 14.7663 0.500958 14.7638C0.512903 14.7594 0.52493 14.7551 0.53354 14.7433C0.557574 14.7143 1.1383 14.0491 2.59538 14.8935C3.06167 15.1656 3.45452 15.269 3.78471 15.269C4.3067 15.269 4.67018 15.0071 4.92314 14.7257V16.9293H0.480814V16.9293ZM9.14991 16.9293H9.95876V12.2759C9.95876 11.8065 9.63167 11.4226 9.22991 11.4226H8.50762H6.8347H6.1114C5.70951 11.4226 5.38377 11.8044 5.38377 12.2759V16.9293H6.19241V14.7422C6.19241 14.6261 6.28848 14.5301 6.40588 14.5301C6.52368 14.5301 6.61975 14.6248 6.61975 14.7422V16.9293H7.45762V14.7422C7.45762 14.6261 7.55335 14.5301 7.67109 14.5301C7.7889 14.5301 7.88456 14.6248 7.88456 14.7422V16.9293H8.7227V14.7422C8.7227 14.6261 8.8185 14.5301 8.93617 14.5301C9.05411 14.5301 9.14991 14.6248 9.14991 14.7422V16.9293ZM15.2051 13.6703L15.2011 13.6687C15.0458 13.9588 14.7861 14.4435 14.3299 14.5585C14.0112 14.6367 13.623 14.529 13.1748 14.232C11.9711 13.4295 11.2273 13.6833 10.8645 13.9338L10.5994 12.3801C11.2309 12.6528 12.2805 12.744 13.0061 12.744C13.7461 12.744 14.8218 12.6488 15.4475 12.3636L15.2051 13.6703ZM13.0062 12.3149C14.6717 12.3149 15.4833 11.9521 15.5255 11.8076C15.4822 11.671 14.6694 11.3088 13.0062 11.3087C11.3437 11.3087 10.5302 11.6731 10.4855 11.8162C10.5292 11.9521 11.341 12.3149 13.0062 12.3149ZM13.0061 9.26427C14.2306 9.26427 15.2492 10.1319 15.4721 11.2747C14.8507 10.9784 13.7574 10.8826 13.0072 10.8826C12.2556 10.8826 11.161 10.98 10.5393 11.2747C10.7625 10.1308 11.7814 9.26427 13.0061 9.26427ZM11.3748 16.9293H14.6024L15.0304 14.6205C14.8672 14.7747 14.68 14.9105 14.4365 14.9719C14.3332 14.9979 14.2285 15.0109 14.1205 15.0109C13.7585 15.0109 13.3622 14.8681 12.9388 14.5859C11.5357 13.6516 10.9752 14.3761 10.9473 14.4167L11.3748 16.9293Z" fill="black"/>
</g>
</svg>
