<svg width="16" height="16" viewBox="0 0 16 16" fill="none" xmlns="http://www.w3.org/2000/svg">
<g opacity="0.502069">
<path fill-rule="evenodd" clip-rule="evenodd" d="M2.27888 0H13.7211C14.9777 0 16 1.02231 16 2.27888V13.7211C16 14.9777 14.9777 16 13.7211 16H2.27888C1.02231 16 0 14.9777 0 13.7211V2.27888C0 1.02231 1.02231 0 2.27888 0ZM13.7211 15.3626C14.6262 15.3626 15.3626 14.6262 15.3626 13.7211H15.3625V2.27888C15.3625 1.37378 14.6262 0.637438 13.7211 0.637438H2.27888C1.37378 0.637438 0.637438 1.37378 0.637438 2.27888V13.7211C0.637438 14.6262 1.37378 15.3626 2.27888 15.3626H13.7211Z" fill="black"/>
<path fill-rule="evenodd" clip-rule="evenodd" d="M5.67529 2.89618H8.2837C9.92816 2.89618 11.204 3.70424 11.204 5.90152V6.04327C11.204 8.24059 9.91398 9.0628 8.25535 9.0628H6.21395V12.8904C6.21395 13.1314 5.97298 13.259 5.74613 13.259C5.50516 13.259 5.27832 13.1314 5.27832 12.8904V3.23643H5.27835C5.27835 3.05212 5.43429 2.91037 5.67529 2.89618ZM8.25541 8.2548C9.51707 8.2548 10.2684 7.56015 10.2684 6.08584V5.91571C10.2684 4.44137 9.5171 3.76093 8.25541 3.76093H6.21401V8.2548H8.25541Z" fill="black"/>
<path d="M1.40221 9.62549C1.22621 9.62549 1.0835 9.76821 1.0835 9.94421V10.0717C1.0835 10.2477 1.22621 10.3904 1.40221 10.3904C1.57821 10.3904 1.72093 10.2477 1.72093 10.0717V9.94421C1.72093 9.76821 1.57818 9.62549 1.40221 9.62549Z" fill="black"/>
<path d="M1.40221 10.9004C1.22621 10.9004 1.0835 11.0431 1.0835 11.2191V13.8008C1.0835 13.9768 1.22621 14.1195 1.40221 14.1195C1.57821 14.1195 1.72093 13.9768 1.72093 13.8008V11.2191C1.72093 11.0431 1.57818 10.9004 1.40221 10.9004Z" fill="black"/>
</g>
</svg>
