<svg width="16" height="18" viewBox="0 0 16 18" fill="none" xmlns="http://www.w3.org/2000/svg">
<g opacity="0.498884">
<path fill-rule="evenodd" clip-rule="evenodd" d="M1.22363 8.86258C1.22363 7.55943 2.28385 6.49921 3.587 6.49921C4.89008 6.49921 5.95037 7.55943 5.95037 8.86258C5.95037 10.1657 4.89012 11.2259 3.587 11.2259C2.28385 11.2259 1.22363 10.1657 1.22363 8.86258ZM1.7981 8.86258C1.7981 9.84001 2.60957 10.6351 3.587 10.6351C4.5644 10.6351 5.34316 9.84001 5.34316 8.86258C5.34316 7.98584 4.73594 7.25624 3.84968 7.11517V7.68093C3.84968 7.84423 3.71739 7.97635 3.55425 7.97635C3.39112 7.97635 3.25883 7.84423 3.25883 7.68093V7.11517C2.44641 7.25624 1.7981 7.98584 1.7981 8.86258Z" fill="black"/>
<path fill-rule="evenodd" clip-rule="evenodd" d="M3.84998 1.17189V5.33083C5.69635 5.48157 7.11187 7.00736 7.11184 8.86261C7.11184 10.8175 5.53383 12.4077 3.57907 12.4077C1.62435 12.4077 0.0258789 10.8175 0.0258789 8.86261C0.0258789 7.00736 1.48661 5.48157 3.25914 5.33083V1.17189C3.25914 1.00858 3.39143 0.876465 3.55456 0.876465C3.71769 0.876465 3.84998 1.00858 3.84998 1.17189ZM0.633096 8.86261C0.633096 10.4915 1.9583 11.8168 3.58731 11.8168C5.21624 11.8168 6.54152 10.4915 6.54152 8.86261C6.54152 7.23374 5.21628 5.9084 3.58731 5.9084C1.9583 5.9084 0.633096 7.23374 0.633096 8.86261Z" fill="black"/>
<path fill-rule="evenodd" clip-rule="evenodd" d="M11.8261 0.295421V8.57815C14.1895 8.73083 15.9742 10.6543 15.9742 12.9985C15.9742 15.442 13.9987 17.4298 11.5552 17.4298C9.11177 17.4298 7.11572 15.442 7.11572 12.9985C7.11572 10.6543 8.94575 8.73083 11.2352 8.57815V0.295421C11.2352 0.132119 11.3675 0 11.5307 0C11.6938 0 11.8261 0.132119 11.8261 0.295421ZM7.72294 12.9985C7.72294 15.1161 9.44566 16.8389 11.5634 16.8389C13.6811 16.8389 15.4039 15.1161 15.4039 12.9985C15.4039 10.8809 13.6811 9.15799 11.5634 9.15799C9.44566 9.15799 7.72294 10.8809 7.72294 12.9985Z" fill="black"/>
<path fill-rule="evenodd" clip-rule="evenodd" d="M8.31396 12.9985C8.31396 11.2066 9.7717 9.74884 11.5636 9.74884C13.3555 9.74884 14.8132 11.2066 14.8132 12.9985C14.8132 14.7903 13.3555 16.2481 11.5636 16.2481C9.7717 16.2481 8.31396 14.7903 8.31396 12.9985ZM8.88843 12.9984C8.88843 14.4646 10.0976 15.6572 11.5636 15.6572C13.0296 15.6572 14.206 14.4646 14.206 12.9984C14.206 11.6322 13.1557 10.5039 11.8263 10.3565V10.9305C11.8263 11.0938 11.694 11.2259 11.5308 11.2259C11.3677 11.2259 11.2354 11.0938 11.2354 10.9305V10.3565C9.90603 10.504 8.88843 11.6322 8.88843 12.9984Z" fill="black"/>
</g>
</svg>
