<svg width="12" height="16" viewBox="0 0 12 16" fill="none" xmlns="http://www.w3.org/2000/svg">
<g opacity="0.497768">
<path fill-rule="evenodd" clip-rule="evenodd" d="M0.0209961 2.72356C0.0209961 1.49394 1.02141 0.493835 2.25072 0.493835C3.48034 0.493835 4.48044 1.49394 4.48044 2.72356C4.48044 3.95287 3.48034 4.95328 2.25072 4.95328C1.02141 4.95328 0.0209961 3.95318 0.0209961 2.72356ZM0.912885 2.72356C0.912885 3.46233 1.51195 4.06139 2.25072 4.06139C2.98952 4.06139 3.58855 3.46233 3.58855 2.72356C3.58855 1.98479 2.98949 1.38572 2.25072 1.38572C1.51195 1.38572 0.912885 1.98479 0.912885 2.72356Z" fill="black"/>
<path d="M7.57504 15.0575L5.79126 10.1521C5.72733 9.97584 5.55996 9.85871 5.37239 9.85871H2.25078V5.84518C2.25078 5.59872 2.05129 5.39923 1.80483 5.39923C1.55838 5.39923 1.35889 5.59872 1.35889 5.84518V10.3046C1.35889 10.5511 1.55838 10.7506 1.80483 10.7506H5.06023L6.73729 15.3625C6.803 15.5436 6.97423 15.656 7.15617 15.656C7.20672 15.656 7.25814 15.6473 7.30869 15.6289C7.53996 15.5448 7.65977 15.2891 7.57504 15.0575Z" fill="black"/>
<path d="M4.21287 11.6425H0.466941C0.220487 11.6425 0.0209961 11.8419 0.0209961 12.0884C0.0209961 12.3349 0.220487 12.5343 0.466941 12.5343H4.21287C4.45933 12.5343 4.65882 12.3349 4.65882 12.0884C4.65882 11.8419 4.45933 11.6425 4.21287 11.6425Z" fill="black"/>
<path d="M8.75713 0.246466C8.64714 0.0261763 8.37867 -0.0627339 8.15897 0.0469754C7.93868 0.157277 7.84918 0.424844 7.95948 0.645447C8.75681 2.24074 8.38549 3.63209 7.95561 5.24282C7.69073 6.2331 7.4172 7.2579 7.39849 8.41021C7.39463 8.65667 7.59084 8.85971 7.83702 8.86358C7.8397 8.86358 7.84238 8.86358 7.84444 8.86358C8.08734 8.86358 8.28652 8.66855 8.29038 8.42505C8.30731 7.38213 8.56655 6.41147 8.81691 5.4729C9.25421 3.83632 9.7058 2.1441 8.75713 0.246466Z" fill="black"/>
<path d="M11.056 0.246466C10.9454 0.0261763 10.6784 -0.0627339 10.4575 0.0469754C10.2372 0.157277 10.1477 0.424844 10.258 0.645447C11.0559 2.24074 10.6843 3.63209 10.2541 5.24345C9.79632 6.95765 9.27721 8.90078 10.2429 11.3142C10.3124 11.4888 10.4801 11.5946 10.657 11.5946C10.7123 11.5946 10.7685 11.5845 10.8226 11.5628C11.0512 11.4712 11.1627 11.2117 11.0711 10.9831C10.2155 8.84431 10.6731 7.1307 11.1154 5.47328C11.5528 3.83663 12.0049 2.14441 11.056 0.246466Z" fill="black"/>
</g>
</svg>
