<svg width="450" height="450" viewBox="0 0 450 450" fill="none" xmlns="http://www.w3.org/2000/svg">
<path d="M80.1 362.907C161.217 405.288 292.734 405.288 373.851 362.907C454.968 320.526 454.968 251.829 373.851 209.448C292.734 167.067 161.217 167.076 80.1 209.448C-1.017 251.82 -1.008 320.535 80.1 362.907Z" fill="#FAFAFA"/>
<path d="M307.495 357.579C319.501 363.303 338.995 363.303 350.992 357.579C362.989 351.855 363.007 342.576 350.992 336.879C338.977 331.182 319.492 331.155 307.495 336.879C295.498 342.603 295.48 351.9 307.495 357.579Z" fill="#EBEBEB"/>
<path d="M68.0397 229.311L73.3227 226.296C73.3227 226.296 75.8517 212.346 73.9617 200.349C71.2617 183.483 59.8137 177.669 55.6467 179.343C51.4797 181.017 50.4897 186.012 58.0227 195.759C62.4687 201.51 68.1837 213.66 68.0397 229.311Z" fill="#E0E0E0"/>
<path d="M70.435 224.1C70.3656 224.096 70.2976 224.079 70.235 224.049C70.1723 224.019 70.1163 223.977 70.0702 223.925C70.0241 223.873 69.9889 223.812 69.9665 223.746C69.9441 223.68 69.9351 223.611 69.94 223.542C71.101 202.5 67.123 190.107 56.494 181.971C56.4386 181.929 56.3919 181.877 56.3569 181.817C56.3218 181.757 56.299 181.691 56.2898 181.622C56.2806 181.554 56.2851 181.484 56.3032 181.417C56.3213 181.35 56.3525 181.287 56.395 181.233C56.4818 181.125 56.6068 181.054 56.7442 181.036C56.8816 181.017 57.0208 181.052 57.133 181.134C68.068 189.504 72.208 202.212 70.957 223.605C70.9501 223.738 70.8921 223.864 70.7949 223.956C70.6977 224.049 70.5689 224.1 70.435 224.1Z" fill="white"/>
<path d="M52.1104 238.266C51.2734 238.743 49.5544 237.699 48.8974 237.258C47.768 236.489 46.8566 235.441 46.2514 234.216C45.5617 232.823 45.3286 231.249 45.5854 229.716C45.7211 228.912 45.9105 228.118 46.1524 227.34C46.3774 226.566 46.5934 225.792 46.8184 225.027C47.0866 224.28 47.2029 223.488 47.1604 222.696C46.9534 221.112 45.5494 219.996 44.2714 219.042C42.9934 218.088 41.4004 216.612 41.4004 214.704C41.5061 213.227 42.0943 211.826 43.0744 210.717C43.9744 209.565 45.0724 208.548 45.8914 207.333C46.539 206.484 46.8786 205.439 46.8544 204.372C46.7654 203.719 46.5449 203.092 46.2064 202.527C45.4338 201.347 44.7566 200.107 44.1814 198.819C43.9061 198.168 43.82 197.453 43.9331 196.756C44.0461 196.058 44.3537 195.407 44.8204 194.877C45.2852 194.53 45.814 194.28 46.3764 194.139C46.9387 193.999 47.5233 193.971 48.0964 194.058C49.1781 194.193 50.2183 194.559 51.1474 195.129C54.1714 196.812 55.8994 200.394 59.1034 201.69C60.3821 202.083 61.6835 202.399 63.0004 202.635C63.657 202.757 64.2807 203.015 64.8311 203.394C65.3814 203.772 65.8462 204.262 66.1954 204.831C67.3744 207.18 65.1874 210.078 66.0154 212.58C66.7534 214.785 68.8954 215.631 70.1014 217.62C70.594 218.501 70.7926 219.516 70.6684 220.518C70.5642 222.208 70.1493 223.865 69.4444 225.405C68.6566 226.938 67.754 228.409 66.7444 229.806C66.7444 229.806 52.2004 238.194 52.1104 238.266Z" fill="#F0F0F0"/>
<path d="M60.7509 233.802H60.6879C60.6191 233.794 60.5526 233.773 60.4922 233.739C60.4318 233.705 60.3787 233.66 60.336 233.605C60.2933 233.551 60.2618 233.489 60.2434 233.422C60.225 233.355 60.2201 233.285 60.2289 233.217C61.7589 221.112 55.9809 204.795 47.3679 196.839C47.3176 196.792 47.2771 196.736 47.2486 196.674C47.22 196.611 47.204 196.544 47.2015 196.475C47.199 196.407 47.21 196.338 47.2339 196.274C47.2578 196.21 47.2942 196.151 47.3409 196.101C47.3876 196.051 47.4437 196.01 47.506 195.981C47.5684 195.953 47.6357 195.937 47.7043 195.934C47.7728 195.932 47.8412 195.943 47.9054 195.967C47.9697 195.991 48.0286 196.027 48.0789 196.074C57.0789 204.363 62.8659 220.743 61.2729 233.352C61.2536 233.477 61.1905 233.59 61.0948 233.673C60.9991 233.755 60.8772 233.801 60.7509 233.802Z" fill="white"/>
<path d="M59.2472 218.007C59.1331 218.007 59.0222 217.969 58.9322 217.899C54.3332 214.452 47.0072 215.1 46.9352 215.1C46.7967 215.113 46.6587 215.07 46.5516 214.982C46.4444 214.893 46.3768 214.766 46.3637 214.627C46.3505 214.489 46.393 214.351 46.4816 214.244C46.5702 214.136 46.6977 214.069 46.8362 214.056C47.1512 214.056 54.6482 213.381 59.5622 217.071C59.6176 217.112 59.6642 217.165 59.6993 217.224C59.7344 217.284 59.7572 217.35 59.7664 217.419C59.7756 217.488 59.771 217.558 59.753 217.624C59.7349 217.691 59.7037 217.754 59.6612 217.809C59.6128 217.872 59.55 217.923 59.478 217.958C59.406 217.992 59.3269 218.009 59.2472 218.007Z" fill="white"/>
<path d="M58.5002 214.983C58.3617 214.973 58.2321 214.911 58.1383 214.809C58.0445 214.707 57.9936 214.572 57.9962 214.434C58.1026 212.566 58.5885 210.739 59.424 209.065C60.2596 207.39 61.4274 205.904 62.8562 204.696C62.966 204.61 63.1054 204.571 63.2438 204.588C63.3822 204.605 63.5083 204.676 63.5942 204.786C63.6801 204.895 63.7189 205.035 63.702 205.173C63.6852 205.312 63.614 205.438 63.5042 205.524C62.1976 206.643 61.1268 208.012 60.3542 209.549C59.5816 211.086 59.1227 212.762 59.0042 214.479C58.9977 214.61 58.9425 214.735 58.8493 214.828C58.7562 214.921 58.6317 214.976 58.5002 214.983Z" fill="white"/>
<path d="M373.74 171.761L364.469 190.027L365.961 190.785L375.232 172.519L373.74 171.761Z" fill="#37474F"/>
<path d="M356.552 170.288L355.129 171.169L364.168 185.77L365.591 184.889L356.552 170.288Z" fill="#37474F"/>
<path d="M366.632 168.579V212.589C366.619 212.713 366.574 212.831 366.501 212.932C366.429 213.033 366.331 213.113 366.218 213.165C365.911 213.32 365.572 213.401 365.228 213.401C364.884 213.401 364.545 213.32 364.238 213.165C364.124 213.115 364.026 213.034 363.953 212.933C363.88 212.832 363.836 212.713 363.824 212.589V168.579H366.632Z" fill="#37474F"/>
<path d="M387.398 173.734C397.801 169.354 402.685 157.37 398.305 146.966C393.925 136.562 381.941 131.679 371.537 136.058C361.133 140.438 356.25 152.423 360.63 162.827C365.009 173.23 376.994 178.114 387.398 173.734Z" fill="#B2D235"/>
<path opacity="0.2" d="M385.865 149.652C388.502 141.354 391.31 138.105 389.528 137.097C386.143 135.18 382.28 134.269 378.395 134.471C374.509 134.673 370.762 135.98 367.593 138.239C364.425 140.497 361.967 143.613 360.508 147.22C359.05 150.827 358.651 154.775 359.359 158.601C360.067 162.427 361.852 165.971 364.505 168.818C367.157 171.664 370.568 173.694 374.334 174.669C378.101 175.644 382.068 175.524 385.768 174.322C389.469 173.121 392.75 170.888 395.225 167.886C389.177 169.659 382.499 160.416 385.865 149.652Z" fill="black"/>
<path d="M357.422 170.821C363.031 165.211 363.031 156.117 357.422 150.507C351.812 144.898 342.718 144.898 337.108 150.507C331.499 156.117 331.499 165.211 337.108 170.821C342.718 176.43 351.812 176.43 357.422 170.821Z" fill="#B2D235"/>
<path d="M347.266 146.304C344.253 146.3 341.315 147.244 338.869 149.004C338.482 157.779 345.934 166.338 343.846 169.209C341.758 172.08 336.646 170.325 334.846 167.877C336.111 170.068 337.93 171.887 340.122 173.151C342.313 174.415 344.799 175.079 347.329 175.077C349.859 175.075 352.344 174.406 354.533 173.138C356.722 171.87 358.539 170.048 359.8 167.855C361.061 165.662 361.722 163.175 361.716 160.645C361.711 158.115 361.039 155.632 359.768 153.444C358.497 151.256 356.673 149.442 354.478 148.184C352.283 146.926 349.796 146.268 347.266 146.277V146.304Z" fill="#B2D235"/>
<path opacity="0.2" d="M347.266 146.304C344.253 146.3 341.315 147.244 338.869 149.004C338.482 157.779 345.934 166.338 343.846 169.209C341.758 172.08 336.646 170.325 334.846 167.877C336.111 170.068 337.93 171.887 340.122 173.151C342.313 174.415 344.799 175.079 347.329 175.077C349.859 175.075 352.344 174.406 354.533 173.138C356.722 171.87 358.539 170.048 359.8 167.855C361.061 165.662 361.722 163.175 361.716 160.645C361.711 158.115 361.039 155.632 359.768 153.444C358.497 151.256 356.673 149.442 354.478 148.184C352.283 146.926 349.796 146.268 347.266 146.277V146.304Z" fill="black"/>
<path d="M365.229 171.531C379.783 171.531 391.581 159.733 391.581 145.179C391.581 130.625 379.783 118.827 365.229 118.827C350.675 118.827 338.877 130.625 338.877 145.179C338.877 159.733 350.675 171.531 365.229 171.531Z" fill="#B2D235"/>
<path opacity="0.1" d="M390.878 151.2C389.878 155.463 387.831 159.41 384.923 162.684C382.015 165.957 378.336 168.454 374.221 169.949C370.105 171.445 365.681 171.89 361.35 171.247C357.019 170.603 352.916 168.89 349.413 166.263C345.909 163.636 343.116 160.177 341.285 156.199C339.454 152.222 338.643 147.85 338.926 143.481C339.209 139.111 340.576 134.88 342.904 131.172C345.232 127.463 348.447 124.392 352.259 122.238C349.976 123.538 347.895 125.166 346.085 127.071C345.629 129.046 345.397 131.066 345.392 133.092C345.39 138.366 346.971 143.52 349.931 147.885C352.89 152.251 357.092 155.627 361.992 157.578C366.892 159.529 372.265 159.964 377.415 158.827C382.565 157.69 387.255 155.033 390.878 151.2Z" fill="black"/>
<path d="M386.658 228.447L200.448 335.952C199.844 336.258 199.176 336.417 198.499 336.417C197.822 336.417 197.155 336.258 196.551 335.952L43.2448 247.446C42.6791 247.075 42.2085 246.576 41.8708 245.99C41.5332 245.404 41.3379 244.746 41.3008 244.071V240.129C41.3365 239.453 41.5312 238.795 41.869 238.209C42.2067 237.622 42.6781 237.124 43.2448 236.754L229.5 129.24C230.104 128.934 230.771 128.774 231.448 128.774C232.125 128.774 232.793 128.934 233.397 129.24L386.658 217.8C387.223 218.171 387.694 218.67 388.032 219.256C388.369 219.842 388.565 220.499 388.602 221.175V225.117C388.558 225.785 388.359 226.433 388.022 227.011C387.685 227.589 387.218 228.08 386.658 228.447Z" fill="#FFD786"/>
<path opacity="0.2" d="M386.658 228.447L200.448 335.952C199.844 336.258 199.176 336.417 198.499 336.417C197.822 336.417 197.155 336.258 196.551 335.952L43.2448 247.446C42.6791 247.075 42.2085 246.576 41.8708 245.99C41.5332 245.404 41.3379 244.746 41.3008 244.071V240.129C41.3365 239.453 41.5312 238.795 41.869 238.209C42.2067 237.622 42.6781 237.124 43.2448 236.754L229.5 129.24C230.104 128.934 230.771 128.774 231.448 128.774C232.125 128.774 232.793 128.934 233.397 129.24L386.658 217.8C387.223 218.171 387.694 218.67 388.032 219.256C388.369 219.842 388.565 220.499 388.602 221.175V225.117C388.558 225.785 388.359 226.433 388.022 227.011C387.685 227.589 387.218 228.08 386.658 228.447Z" fill="black"/>
<g style="mix-blend-mode:multiply">
<path d="M388.601 221.13C388.564 220.454 388.369 219.797 388.031 219.211C387.693 218.625 387.223 218.126 386.657 217.755L384.947 216.774L198.494 324.414V336.42C199.172 336.434 199.841 336.273 200.438 335.952L386.648 228.447C387.214 228.076 387.684 227.577 388.022 226.991C388.36 226.405 388.555 225.747 388.592 225.072L388.601 221.13Z" fill="#FFD786"/>
</g>
<g style="mix-blend-mode:multiply" opacity="0.2">
<path d="M388.601 221.13C388.564 220.454 388.369 219.797 388.031 219.211C387.693 218.625 387.223 218.126 386.657 217.755L384.947 216.774L198.494 324.414V336.42C199.172 336.434 199.841 336.273 200.438 335.952L386.648 228.447C387.214 228.076 387.684 227.577 388.022 226.991C388.36 226.405 388.555 225.747 388.592 225.072L388.601 221.13Z" fill="black"/>
</g>
<path d="M43.2457 239.004L196.552 327.51C197.156 327.816 197.823 327.975 198.5 327.975C199.177 327.975 199.845 327.816 200.449 327.51L386.659 220.005C386.894 219.925 387.098 219.774 387.243 219.572C387.387 219.37 387.465 219.128 387.465 218.88C387.465 218.632 387.387 218.39 387.243 218.188C387.098 217.986 386.894 217.835 386.659 217.755L233.353 129.24C232.749 128.934 232.081 128.774 231.404 128.774C230.727 128.774 230.06 128.934 229.456 129.24L43.2457 236.754C43.0106 236.834 42.8064 236.985 42.6618 237.187C42.5172 237.389 42.4395 237.631 42.4395 237.879C42.4395 238.127 42.5172 238.369 42.6618 238.571C42.8064 238.773 43.0106 238.924 43.2457 239.004Z" fill="#DDA85B"/>
<path d="M124.901 261.369C129.185 258.894 129.185 254.844 124.901 252.369L105.47 241.2C105.264 241.081 105.093 240.911 104.975 240.706C104.856 240.5 104.793 240.267 104.793 240.03C104.793 239.792 104.856 239.559 104.975 239.354C105.093 239.149 105.264 238.978 105.47 238.86L114.416 233.703L99.7909 225.261L81.9889 235.485C77.7049 237.96 77.7139 242.001 81.9889 244.485L101.474 255.681C101.68 255.799 101.85 255.97 101.969 256.175C102.088 256.38 102.15 256.613 102.15 256.851C102.15 257.088 102.088 257.321 101.969 257.527C101.85 257.732 101.68 257.902 101.474 258.021L88.8199 265.32L103.499 273.717L124.901 261.369Z" fill="#F5F5F5"/>
<path d="M176.562 197.775L224.092 170.334V220.995L176.562 248.427V197.775Z" fill="#E0E0E0"/>
<path d="M208.495 192.042L192.16 201.438C191.878 201.626 191.643 201.876 191.474 202.17C191.306 202.463 191.207 202.792 191.188 203.13V222.03C191.188 222.651 191.629 222.93 192.16 222.588L208.495 213.192C208.778 213.007 209.014 212.757 209.183 212.463C209.352 212.169 209.449 211.839 209.467 211.5V192.6C209.467 191.979 209.035 191.7 208.495 192.042Z" fill="#455A64"/>
<path d="M207.593 211.59C207.621 211.532 207.645 211.472 207.665 211.41V194.598L193.058 202.995C193.03 203.053 193.006 203.114 192.986 203.175V219.987L207.593 211.59Z" fill="#F5F5F5"/>
<path d="M209.467 200.97L191.188 211.5V213.606L209.467 203.085V200.97Z" fill="#455A64"/>
<path d="M201.239 196.209V217.359L199.412 218.376V197.271L201.239 196.209Z" fill="#455A64"/>
<path d="M176.562 248.427V252.648L224.092 225.216V220.995L176.562 248.427Z" fill="#263238"/>
<path d="M271.619 197.775L224.09 170.334V220.995L271.619 248.427V197.775Z" fill="#F0F0F0"/>
<path d="M239.687 192.042L256.022 201.438C256.304 201.626 256.538 201.876 256.707 202.17C256.876 202.463 256.974 202.792 256.994 203.13V222.03C256.994 222.651 256.553 222.93 256.022 222.588L239.687 213.192C239.403 213.007 239.167 212.757 238.998 212.463C238.829 212.169 238.732 211.839 238.715 211.5V192.6C238.715 191.979 239.147 191.7 239.687 192.042Z" fill="#455A64"/>
<path d="M240.587 211.59C240.587 211.59 240.524 211.464 240.506 211.41V194.598L255.113 202.995C255.141 203.053 255.165 203.114 255.185 203.175V219.987L240.587 211.59Z" fill="#F5F5F5"/>
<path d="M238.715 200.97L256.994 211.5V213.606L238.715 203.085V200.97Z" fill="#455A64"/>
<path d="M246.934 196.209V217.359L248.77 218.376V197.271L246.934 196.209Z" fill="#455A64"/>
<path d="M271.619 248.427V252.648L224.09 225.216V220.995L271.619 248.427Z" fill="#455A64"/>
<path d="M271.619 197.775L311.831 119.682L341.081 157.671L341.072 208.323L271.619 248.427V197.775Z" fill="#E0E0E0"/>
<path d="M298.998 194.598L282.663 203.994C282.38 204.18 282.144 204.43 281.975 204.724C281.807 205.018 281.709 205.347 281.691 205.686V224.586C281.691 225.207 282.123 225.486 282.663 225.153L298.998 215.748C299.281 215.563 299.517 215.315 299.685 215.022C299.854 214.73 299.952 214.402 299.97 214.065V195.165C299.97 194.544 299.538 194.292 298.998 194.598Z" fill="#455A64"/>
<path d="M298.097 214.146C298.125 214.087 298.149 214.027 298.169 213.966V197.154L283.562 205.56C283.534 205.615 283.51 205.672 283.49 205.731V222.552L298.097 214.146Z" fill="#F5F5F5"/>
<path d="M299.97 203.535L281.691 214.056V216.171L299.97 205.65V203.535Z" fill="#455A64"/>
<path d="M291.743 198.774V219.924L289.916 220.932V199.827L291.743 198.774Z" fill="#455A64"/>
<path d="M331.903 175.59L315.568 184.995C315.284 185.178 315.048 185.427 314.879 185.719C314.71 186.012 314.613 186.34 314.596 186.678V205.578C314.596 206.199 315.028 206.478 315.568 206.145L331.894 196.749C332.178 196.563 332.415 196.313 332.586 196.02C332.756 195.726 332.855 195.396 332.875 195.057V176.157C332.875 175.5 332.434 175.284 331.903 175.59Z" fill="#455A64"/>
<path d="M331.003 195.138C331.032 195.08 331.056 195.02 331.075 194.958V178.146L316.468 186.552C316.468 186.552 316.405 186.669 316.387 186.732V203.544L331.003 195.138Z" fill="#F5F5F5"/>
<path d="M332.875 184.527L314.596 195.048V197.163L332.875 186.642V184.527Z" fill="#455A64"/>
<path d="M324.647 179.766V200.916L322.82 201.924V180.819L324.647 179.766Z" fill="#455A64"/>
<path d="M303.668 147.6L312.668 142.389C313.199 142.083 313.64 142.335 313.64 142.956V161.856C313.62 162.194 313.522 162.523 313.354 162.816C313.185 163.11 312.95 163.36 312.668 163.548L303.668 168.75C303.128 169.065 302.688 168.813 302.688 168.192V149.292C302.707 148.953 302.806 148.623 302.976 148.329C303.147 148.035 303.384 147.785 303.668 147.6Z" fill="#455A64"/>
<path d="M304.488 149.328L304.605 149.166L311.859 144.981V161.847C311.825 161.902 311.786 161.953 311.742 162L304.497 166.185L304.488 149.328Z" fill="#F5F5F5"/>
<path d="M311.859 152.406L304.488 156.663V158.769L311.859 154.512V152.406Z" fill="#455A64"/>
<path d="M271.619 248.427L341.072 208.323L341.081 212.544L271.619 252.648V248.427Z" fill="#263238"/>
<path d="M176.562 197.775L136.35 119.682L107.1 157.671V208.323L176.562 248.427V197.775Z" fill="#F5F5F5"/>
<path d="M114.416 212.544V174.555L129.041 182.997V220.995L114.416 212.544Z" fill="#263238"/>
<path d="M144.638 192.042L160.964 201.438C161.249 201.624 161.486 201.873 161.656 202.167C161.827 202.461 161.926 202.791 161.945 203.13V222.03C161.945 222.651 161.504 222.93 160.964 222.588L144.638 213.192C144.354 213.007 144.118 212.757 143.949 212.463C143.78 212.169 143.683 211.839 143.666 211.5V192.6C143.657 191.979 144.098 191.7 144.638 192.042Z" fill="#455A64"/>
<path d="M145.538 211.59C145.506 211.532 145.479 211.472 145.457 211.41V194.598L160.064 202.995C160.096 203.053 160.123 203.113 160.145 203.175V219.987L145.538 211.59Z" fill="#F5F5F5"/>
<path d="M143.658 200.97L161.946 211.5V213.606L143.658 203.085V200.97Z" fill="#455A64"/>
<path d="M151.883 196.209V217.359L153.71 218.376V197.271L151.883 196.209Z" fill="#455A64"/>
<path d="M144.513 147.6L135.513 142.389C134.973 142.083 134.541 142.335 134.541 142.956V161.856C134.559 162.194 134.656 162.524 134.825 162.818C134.994 163.112 135.23 163.362 135.513 163.548L144.513 168.75C145.053 169.065 145.485 168.813 145.485 168.192V149.292C145.467 148.953 145.37 148.624 145.201 148.33C145.032 148.036 144.796 147.786 144.513 147.6Z" fill="#455A64"/>
<path d="M143.684 149.328L143.576 149.166L136.322 144.981V161.847C136.356 161.902 136.395 161.953 136.439 162L143.684 166.185V149.328Z" fill="#F5F5F5"/>
<path d="M136.322 152.406L143.693 156.663V158.769L136.322 154.512V152.406Z" fill="#455A64"/>
<path d="M272.402 200.349L224.09 172.449V71.127L312.614 122.256L272.402 200.349Z" fill="#455A64"/>
<path d="M311.831 119.682L310.994 121.302L343.061 156.528L344.735 155.556L311.831 119.682Z" fill="#455A64"/>
<path d="M343.062 156.528L341.082 157.671L311.148 125.109L312.345 122.787L343.062 156.528Z" fill="#263238"/>
<path d="M271.619 197.775L224.09 170.334V69.021L311.831 119.682L271.619 197.775Z" fill="#37474F"/>
<path d="M175.778 200.349L224.09 172.449V71.127L135.566 122.256L175.778 200.349Z" fill="#455A64"/>
<path d="M136.349 119.682L137.186 121.302L105.119 156.528L103.445 155.556L136.349 119.682Z" fill="#455A64"/>
<path d="M105.119 156.528L107.099 157.671L137.033 125.109L135.836 122.787L105.119 156.528Z" fill="#263238"/>
<path d="M176.562 197.775L224.091 170.334V69.021L136.35 119.682L176.562 197.775Z" fill="#263238"/>
<path d="M177.48 146.592L187.533 166.113V145.008L177.48 139.203V146.592Z" fill="#F0F0F0"/>
<path d="M187.533 145.008L198.495 126.009L205.812 134.451V155.556L187.533 166.113V145.008Z" fill="#E0E0E0"/>
<path d="M193.293 142.677L200.052 138.771C200.457 138.537 200.781 138.726 200.781 139.194V153.342C200.767 153.594 200.693 153.84 200.567 154.059C200.44 154.278 200.264 154.464 200.052 154.602L193.293 158.508C192.888 158.742 192.555 158.508 192.555 158.094V143.946C192.569 143.691 192.643 143.443 192.772 143.223C192.9 143.002 193.078 142.815 193.293 142.677Z" fill="#455A64"/>
<path d="M193.904 143.946C193.904 143.946 193.967 143.856 193.994 143.829L199.394 140.688V153.342L199.313 153.459L193.913 156.591L193.904 143.946Z" fill="#F5F5F5"/>
<path d="M199.43 146.259L193.904 149.445V151.029L199.43 147.834V146.259Z" fill="#455A64"/>
<path d="M198.494 126.009L202.157 128.124L209.465 136.566L205.811 134.451L198.494 126.009Z" fill="#263238"/>
<path d="M198.494 125.109L202.157 127.215L209.465 135.666L205.811 133.551L198.494 125.109Z" fill="#263238"/>
<path d="M202.158 128.124L187.533 149.229L172.908 140.787L187.533 119.673L202.158 128.124Z" fill="#37474F"/>
<path d="M202.158 127.215L187.533 148.329L172.908 139.887L187.533 118.773L202.158 127.215Z" fill="#37474F"/>
<path d="M202.158 127.215V128.124L209.466 136.566V135.666L202.158 127.215Z" fill="#455A64"/>
<path d="M202.158 127.215L187.533 148.329V149.229L202.158 128.124V127.215Z" fill="#455A64"/>
<path d="M172.908 139.887V140.787L187.533 149.229V148.329L172.908 139.887Z" fill="#263238"/>
<path d="M270.701 146.592L260.648 166.113V145.008L270.701 139.203V146.592Z" fill="#E0E0E0"/>
<path d="M260.648 145.008L249.677 126.009L242.369 134.451V155.556L260.648 166.113V145.008Z" fill="#F5F5F5"/>
<path d="M254.89 142.677L248.131 138.771C247.726 138.537 247.393 138.726 247.393 139.194V153.342C247.408 153.595 247.483 153.841 247.612 154.06C247.74 154.279 247.918 154.464 248.131 154.602L254.89 158.508C255.295 158.742 255.619 158.508 255.619 158.094V143.946C255.606 143.692 255.533 143.444 255.407 143.224C255.28 143.003 255.103 142.816 254.89 142.677Z" fill="#455A64"/>
<path d="M254.268 143.946C254.244 143.905 254.217 143.866 254.187 143.829L248.787 140.688V153.342C248.82 153.378 248.85 153.418 248.877 153.459L254.277 156.591L254.268 143.946Z" fill="#FAFAFA"/>
<path d="M248.742 146.259L254.268 149.445V151.029L248.742 147.834V146.259Z" fill="#455A64"/>
<path d="M249.677 126.009L246.023 128.124L238.715 136.566L242.369 134.451L249.677 126.009Z" fill="#263238"/>
<path d="M249.677 125.109L246.023 127.215L238.715 135.666L242.369 133.551L249.677 125.109Z" fill="#263238"/>
<path d="M246.023 128.124L260.648 149.229L275.273 140.787L260.648 119.673L246.023 128.124Z" fill="#37474F"/>
<path d="M246.023 127.215L260.648 148.329L275.273 139.887L260.648 118.773L246.023 127.215Z" fill="#455A64"/>
<path d="M246.023 127.215V128.124L238.715 136.566V135.666L246.023 127.215Z" fill="#455A64"/>
<path d="M246.023 127.215L260.648 148.329V149.229L246.023 128.124V127.215Z" fill="#455A64"/>
<path d="M275.273 139.887V140.787L260.648 149.229V148.329L275.273 139.887Z" fill="#263238"/>
<path d="M176.561 248.427L161.945 256.878V261.099L176.561 252.648V248.427Z" fill="#263238"/>
<path d="M161.946 256.878L92.4844 216.765V220.995L161.946 261.099V256.878Z" fill="#455A64"/>
<path d="M107.1 208.323L92.4844 216.765L161.946 256.878L176.562 248.427L107.1 208.323Z" fill="#37474F"/>
<path d="M160.082 251.595C160.098 251.755 160.157 251.908 160.252 252.038C160.347 252.167 160.475 252.269 160.622 252.333C161.031 252.542 161.483 252.65 161.941 252.65C162.399 252.65 162.851 252.542 163.259 252.333C163.407 252.269 163.535 252.167 163.63 252.038C163.725 251.908 163.784 251.755 163.799 251.595V199.395H160.064V251.595H160.082Z" fill="#263238"/>
<path d="M99.9004 216.99C99.9155 217.153 99.9746 217.308 100.071 217.44C100.168 217.571 100.299 217.674 100.449 217.737C100.857 217.941 101.307 218.048 101.763 218.048C102.22 218.048 102.669 217.941 103.077 217.737C103.228 217.674 103.359 217.571 103.455 217.44C103.552 217.308 103.611 217.153 103.626 216.99V164.835H99.9004V216.99Z" fill="#263238"/>
<path d="M176.561 197.775L103.445 155.556L88.8203 163.998L161.936 206.217L176.561 197.775Z" fill="#455A64"/>
<path d="M161.938 206.217V208.323L176.562 199.881V197.775L161.938 206.217Z" fill="#263238"/>
<path d="M161.936 206.217L88.8203 163.998V166.113L161.936 208.323V206.217Z" fill="#37474F"/>
<path d="M239.156 344.7C239.197 345.048 239.327 345.38 239.534 345.664C239.74 345.948 240.016 346.174 240.335 346.32C241.226 346.773 242.211 347.009 243.211 347.009C244.21 347.009 245.195 346.773 246.086 346.32C246.405 346.174 246.681 345.948 246.888 345.664C247.094 345.38 247.224 345.048 247.265 344.7V285.471H239.165V344.7H239.156Z" fill="#263238"/>
<path d="M205.641 296.946V261.054L278.163 302.922V338.814L205.641 296.946Z" fill="#F0F0F0"/>
<path d="M205.641 261.054L210.816 258.066L283.347 299.934L278.163 302.922L205.641 261.054Z" fill="#F5F5F5"/>
<path d="M283.346 299.934V335.826L278.162 338.814V302.922L283.346 299.934Z" fill="#E0E0E0"/>
<path d="M211.428 288.621V275.544C211.428 275.274 211.473 275.103 211.572 275.04C211.671 274.977 211.824 275.04 212.031 275.13L216.846 277.911C217.143 278.082 217.287 278.46 217.287 279.054V279.585C217.287 280.17 217.143 280.386 216.846 280.215L213.795 278.415V282.015L216.63 283.644C216.927 283.815 217.071 284.202 217.071 284.787V285.327C217.071 285.912 216.927 286.119 216.63 285.948L213.795 284.319V289.971C213.795 290.178 213.723 290.286 213.588 290.295C213.335 290.275 213.093 290.188 212.886 290.043L212.337 289.719C211.734 289.386 211.428 289.017 211.428 288.621Z" fill="#B2D235"/>
<path d="M218.564 286.083C218.564 281.205 220.097 279.648 223.163 281.412C226.229 283.176 227.741 286.497 227.699 291.375C227.699 296.277 226.175 297.849 223.127 296.091C220.079 294.333 218.558 290.997 218.564 286.083ZM224.801 293.571C225.258 292.429 225.44 291.196 225.332 289.971C225.391 288.559 225.215 287.148 224.81 285.795C224.54 284.924 223.961 284.181 223.181 283.707C222.434 283.275 221.876 283.338 221.525 283.896C221.174 284.454 220.985 285.642 220.985 287.496C220.929 288.917 221.112 290.338 221.525 291.699C221.802 292.582 222.391 293.333 223.181 293.814C223.901 294.219 224.441 294.138 224.801 293.571Z" fill="#B2D235"/>
<path d="M229.59 299.106V286.029C229.59 285.768 229.635 285.606 229.743 285.543C229.851 285.48 229.995 285.543 230.211 285.624L233.1 287.28C234.203 287.835 235.126 288.69 235.763 289.748C236.4 290.805 236.725 292.021 236.7 293.256C236.7 294.882 236.142 295.719 235.026 295.767V295.848C235.636 296.727 236.051 297.728 236.241 298.782L237.303 303.372C237.308 303.423 237.308 303.474 237.303 303.525C237.311 303.572 237.311 303.621 237.303 303.669C237.303 303.984 236.988 303.957 236.349 303.588L235.8 303.3C235.242 302.976 234.9 302.643 234.9 302.292L233.928 297.792C233.829 297.352 233.662 296.929 233.433 296.541C233.214 296.228 232.924 295.972 232.587 295.794L231.93 295.407V300.492C231.93 300.888 231.615 300.906 231.03 300.492L230.553 300.213C229.896 299.88 229.59 299.502 229.59 299.106ZM233.19 293.607C233.312 293.697 233.464 293.739 233.615 293.724C233.766 293.71 233.907 293.639 234.009 293.526C234.274 293.152 234.396 292.695 234.351 292.239C234.372 291.674 234.258 291.112 234.018 290.601C233.826 290.189 233.512 289.846 233.118 289.62L231.903 288.918V292.86L233.19 293.607Z" fill="#B2D235"/>
<path d="M242.027 306.702C241.536 306.269 241.111 305.765 240.767 305.208C240.705 305.073 240.651 304.935 240.605 304.794C240.567 304.675 240.549 304.55 240.551 304.425C240.546 304.112 240.62 303.802 240.767 303.525C240.911 303.255 241.073 303.174 241.253 303.282C241.39 303.381 241.509 303.502 241.604 303.642C241.757 303.831 241.856 303.957 241.91 304.011C242.356 304.625 242.919 305.145 243.566 305.541C243.73 305.658 243.915 305.74 244.112 305.784C244.308 305.827 244.511 305.83 244.709 305.793C245.024 305.703 245.186 305.361 245.186 304.785C245.19 304.231 245.044 303.687 244.763 303.21C244.386 302.575 243.955 301.973 243.476 301.41C242.943 300.783 242.447 300.125 241.991 299.439C241.614 298.852 241.312 298.22 241.091 297.558C240.863 296.876 240.751 296.162 240.758 295.443C240.758 294.21 241.1 293.436 241.793 293.13C242.25 292.993 242.733 292.966 243.203 293.052C243.672 293.138 244.114 293.335 244.493 293.625C244.937 293.882 245.353 294.183 245.735 294.525C246.12 294.854 246.467 295.226 246.77 295.632C246.925 295.831 247.013 296.073 247.022 296.325C247.018 296.635 246.95 296.942 246.824 297.225C246.689 297.513 246.545 297.612 246.374 297.522C246.226 297.408 246.09 297.278 245.969 297.135C245.569 296.729 245.115 296.381 244.619 296.1C244.115 295.812 243.737 295.74 243.485 295.884C243.35 295.976 243.242 296.104 243.174 296.253C243.106 296.402 243.079 296.567 243.098 296.73C243.097 297.136 243.18 297.537 243.341 297.909C243.485 298.251 243.669 298.574 243.89 298.872C244.097 299.142 244.475 299.61 245.024 300.285C245.757 301.14 246.386 302.08 246.896 303.084C247.305 303.969 247.511 304.935 247.499 305.91C247.53 306.573 247.381 307.233 247.067 307.818C246.932 308.046 246.742 308.236 246.514 308.37C246.285 308.503 246.027 308.577 245.762 308.583C245.024 308.58 244.303 308.358 243.692 307.944C243.091 307.595 242.533 307.178 242.027 306.702Z" fill="#B2D235"/>
<path d="M247.941 309.888C247.941 309.843 247.941 309.735 247.941 309.555L250.866 298.044C250.938 297.747 251.253 297.756 251.829 298.044L252.729 298.584C252.98 298.679 253.206 298.828 253.391 299.021C253.576 299.214 253.716 299.446 253.8 299.7L256.707 314.577C256.707 314.784 256.707 314.901 256.707 314.946C256.707 315.216 256.464 315.216 255.978 314.946L255.258 314.532C254.754 314.235 254.475 313.947 254.421 313.632L253.854 310.482L250.758 308.682L250.191 311.166C250.137 311.4 249.885 311.382 249.417 311.112L248.706 310.707C248.196 310.431 247.941 310.158 247.941 309.888ZM253.539 308.142L252.576 302.796C252.495 302.31 252.423 301.779 252.36 301.212L252.27 301.158C252.207 301.662 252.135 302.103 252.054 302.499L251.154 306.738L253.539 308.142Z" fill="#B2D235"/>
<path d="M258.111 315.954C258.004 315.745 257.955 315.513 257.967 315.279V302.211C257.967 301.815 258.273 301.788 258.867 302.139L259.416 302.454C259.679 302.591 259.915 302.778 260.109 303.003C260.246 303.164 260.322 303.367 260.325 303.579V315.108L263.348 316.854C263.516 316.947 263.644 317.097 263.709 317.277C263.788 317.511 263.825 317.758 263.817 318.006V318.537C263.835 318.747 263.798 318.958 263.709 319.149C263.637 319.248 263.519 319.257 263.348 319.149L258.561 316.386C258.377 316.281 258.223 316.133 258.111 315.954Z" fill="#B2D235"/>
<path d="M265.374 320.148C265.268 319.939 265.218 319.707 265.23 319.473V306.603C265.23 306.333 265.275 306.162 265.374 306.099C265.473 306.036 265.626 306.099 265.833 306.198L271.035 309.195C271.197 309.295 271.323 309.443 271.395 309.618C271.471 309.853 271.504 310.1 271.494 310.347V310.887C271.514 311.093 271.48 311.301 271.395 311.49C271.323 311.589 271.197 311.598 271.035 311.49L267.597 309.51V313.11L270.657 314.91C270.824 314.999 270.952 315.147 271.017 315.324C271.096 315.559 271.133 315.806 271.125 316.053V316.593C271.145 316.8 271.107 317.009 271.017 317.196C270.945 317.304 270.828 317.304 270.657 317.196L267.597 315.396V319.302L271.053 321.3C271.211 321.386 271.333 321.527 271.395 321.696C271.473 321.934 271.506 322.184 271.494 322.434V322.974C271.518 323.183 271.484 323.395 271.395 323.586C271.323 323.685 271.206 323.685 271.053 323.586L265.833 320.58C265.647 320.477 265.489 320.328 265.374 320.148Z" fill="#B2D235"/>
<path d="M107.209 100.917L104.608 101.916V96.1918C104.608 91.6918 101.008 90.5578 97.0575 92.8258C93.1245 95.1028 89.9295 100.62 89.9295 105.165V106.002C89.377 105.828 88.792 105.783 88.2194 105.87C87.6468 105.957 87.1019 106.175 86.6265 106.506C85.1325 107.478 83.8892 108.789 82.9978 110.333C82.1063 111.877 81.5919 113.609 81.4965 115.389V115.767L77.8965 117.855C76.9145 118.497 76.0973 119.361 75.511 120.377C74.9247 121.393 74.5858 122.533 74.5215 123.705C74.5215 125.856 76.0335 126.729 77.8965 125.649L107.236 108.711C108.219 108.071 109.036 107.209 109.623 106.194C110.209 105.179 110.548 104.04 110.611 102.87C110.584 100.719 109.072 99.8458 107.209 100.917Z" fill="#F0F0F0"/>
<path d="M77.7609 102.816L73.0539 105.516C73.0539 105.309 73.0539 105.093 73.0539 104.895V103.527C73.0539 101.097 71.3439 100.107 69.2379 101.322C68.3508 101.885 67.5907 102.627 67.0059 103.5C66.6639 100.44 64.3059 99.3057 61.3539 100.989C59.69 102.073 58.3058 103.534 57.3142 105.255C56.3226 106.975 55.7516 108.906 55.6479 110.889V112.932C55.6246 113.748 55.7909 114.558 56.1339 115.299L52.2009 117.576C51.5868 117.976 51.0754 118.516 50.708 119.151C50.3406 119.785 50.1275 120.498 50.0859 121.23C50.0859 122.58 51.0399 123.129 52.2009 122.454L77.7609 107.703C78.3768 107.302 78.8893 106.761 79.2568 106.124C79.6243 105.488 79.8364 104.774 79.8759 104.04C79.8759 102.69 78.9309 102.15 77.7609 102.816Z" fill="#F0F0F0"/>
<path d="M344.889 338.607H339.822V345.987H344.889V338.607Z" fill="#FFC0B1"/>
<path d="M327.064 329.478L322 329.652L322.254 337.028L327.318 336.853L327.064 329.478Z" fill="#FFC0B1"/>
<path d="M344.557 266.553C344.557 271.386 345.187 302.697 345.187 302.697C345.304 304.092 346.609 306.666 346.33 312.012C345.943 319.275 345.313 339.462 345.313 339.462C345.313 339.462 342.937 341.82 339.58 339.462C339.58 339.462 334.99 312.039 334.081 304.839C333.289 298.539 331.948 281.439 331.948 281.439L327.25 301.536C327.25 301.536 328.078 306.261 328.258 309.636C328.438 313.011 327.358 332.226 327.358 332.226C326.538 332.74 325.598 333.03 324.631 333.066C323.665 333.103 322.705 332.884 321.85 332.433C321.85 332.433 317.773 304.299 317.251 301.284C316.729 298.269 320.851 266.553 320.851 266.553H344.557Z" fill="#37474F"/>
<path d="M326.134 232.794C324.055 233.037 322.399 234.162 319.384 239.292C316.972 243.396 311.932 251.262 311.932 251.262C311.464 250.902 300.304 244.413 297.829 241.362C297.322 240.203 296.697 239.099 295.966 238.068C295.012 236.835 294.04 235.62 293.032 234.468C292.956 234.375 292.868 234.294 292.771 234.225C292.402 234.009 291.871 234.333 291.781 234.747C291.698 235.172 291.748 235.612 291.925 236.007C292.105 236.547 292.645 237.294 291.925 237.42C291.265 237.456 290.608 237.309 290.026 236.997C289.054 236.583 288.1 236.097 287.164 235.62C286.59 235.245 285.937 235.011 285.256 234.936C284.757 234.959 284.278 235.133 283.88 235.435C283.483 235.737 283.188 236.153 283.033 236.628C282.888 237.106 282.845 237.609 282.905 238.105C282.966 238.6 283.129 239.078 283.384 239.508C283.895 240.367 284.578 241.112 285.391 241.695C287.092 243.018 289.36 243.63 291.43 244.179C292.473 244.46 293.459 244.92 294.346 245.538C295.993 246.69 304.66 254.745 308.665 257.895C310.573 259.398 313.291 260.235 315.469 258.03C317.647 255.825 326.386 244.17 326.386 244.17L331.885 233.289C329.993 232.904 328.063 232.738 326.134 232.794Z" fill="#FFC0B1"/>
<path d="M325.504 232.902C324.037 233.433 321.373 235.449 317.647 241.389C313.921 247.329 311.455 250.965 311.455 250.965L299.575 242.541C297.868 243.773 296.548 245.465 295.768 247.419C295.768 247.419 308.449 258.39 309.448 259.182C311.644 260.919 312.787 261.243 314.731 259.605C316.675 257.967 323.146 248.346 323.146 248.346L325.504 232.902Z" fill="#263238"/>
<path d="M336.926 233.028H336.998C339.167 233.582 341.089 234.844 342.458 236.615C343.828 238.386 344.567 240.563 344.557 242.802V266.535C341.003 270.396 328.61 272.196 320.852 266.535V241.839C320.852 237.888 323.048 233.145 329.105 232.839L336.926 233.028Z" fill="white"/>
<path d="M338.635 212.823C339.042 212.775 339.455 212.821 339.842 212.957C340.228 213.093 340.579 213.314 340.867 213.606C341.83 214.587 341.632 216.405 340.867 220.581L337.906 220.923L338.635 212.823Z" fill="#263238"/>
<path d="M321.301 211.608C320.664 211.616 320.033 211.49 319.447 211.239C318.547 210.708 318.295 211.743 318.799 212.643C319.129 213.287 319.618 213.836 320.219 214.238C320.821 214.64 321.516 214.881 322.237 214.938C322.237 214.812 323.092 212.625 323.092 212.625L321.301 211.608Z" fill="#263238"/>
<path d="M337.239 220.923C337.68 221.184 338.31 220.338 338.859 219.771C339.073 219.527 339.344 219.342 339.649 219.233C339.954 219.123 340.282 219.093 340.601 219.146C340.921 219.198 341.222 219.331 341.476 219.531C341.73 219.732 341.929 219.994 342.054 220.293C342.954 222.192 340.911 224.712 339.705 225.549C339.369 225.839 338.95 226.016 338.507 226.055C338.064 226.094 337.621 225.992 337.239 225.765L336.924 233.028C336.924 233.028 335.448 235.728 331.191 236.358C328.806 236.718 327.699 234.558 329.103 232.758V230.121C328.036 230.349 326.939 230.404 325.854 230.283C325.296 230.139 323.973 228.537 323.154 226.737C322.191 224.721 320.589 221.148 322.011 215.091C323.541 208.593 330.525 208.395 334.692 211.014C338.859 213.633 337.239 220.923 337.239 220.923Z" fill="#FFC0B1"/>
<path d="M337.239 221.661C337.464 221.661 338.31 220.266 338.859 219.771C339.615 219.078 338.634 212.823 338.634 212.823C338.634 212.823 339.399 210.447 337.905 208.872C336.411 207.297 333.486 207.558 331.362 207.486C328.749 207.501 326.161 206.98 323.757 205.956C320.733 204.651 320.508 204.489 320.157 205.821C319.806 207.153 319.635 210.186 321.444 212.22L322.938 212.769C322.938 212.769 323.748 213.489 326.538 213.831C329.141 214.026 331.756 213.978 334.35 213.687C335.169 213.57 335.34 214.362 335.781 216.531C336.177 218.43 336.501 221.652 337.239 221.661Z" fill="#263238"/>
<path d="M338.635 213.3L341.29 211.869C341.204 211.69 341.084 211.529 340.935 211.398C340.786 211.266 340.613 211.167 340.424 211.104C340.236 211.042 340.036 211.019 339.839 211.036C339.641 211.053 339.449 211.109 339.274 211.203C338.919 211.404 338.655 211.734 338.536 212.124C338.417 212.514 338.452 212.935 338.635 213.3Z" fill="#263238"/>
<path d="M329.113 230.157C330.932 229.808 332.715 229.296 334.441 228.627C335.251 228.201 335.916 227.543 336.349 226.737C336.138 227.546 335.768 228.304 335.26 228.969C334.252 230.256 329.113 231.21 329.113 231.21V230.157Z" fill="#F28F8F"/>
<path d="M330 220.189C330.003 220.415 330.036 220.633 330.093 220.817C330.15 221.001 330.229 221.142 330.32 221.223C330.412 221.304 330.512 221.322 330.608 221.273C330.704 221.224 330.791 221.112 330.859 220.949C330.928 220.787 330.974 220.582 330.992 220.36C331.01 220.138 330.999 219.909 330.96 219.701C330.922 219.493 330.858 219.316 330.776 219.191C330.694 219.067 330.598 219 330.5 219C330.433 219.002 330.367 219.034 330.306 219.095C330.244 219.156 330.189 219.244 330.142 219.354C330.096 219.465 330.059 219.596 330.035 219.739C330.01 219.882 329.999 220.035 330 220.189Z" fill="#263238"/>
<path d="M330.895 216.945L332.587 217.845C332.706 217.613 332.732 217.344 332.66 217.093C332.588 216.843 332.424 216.629 332.199 216.495C332.085 216.436 331.959 216.4 331.831 216.391C331.702 216.382 331.573 216.399 331.451 216.441C331.329 216.483 331.217 216.549 331.121 216.636C331.025 216.723 330.948 216.828 330.895 216.945Z" fill="#263238"/>
<path d="M330.12 225.297L328.32 225.981C328.36 226.102 328.423 226.213 328.507 226.309C328.59 226.405 328.692 226.482 328.806 226.538C328.92 226.593 329.045 226.625 329.171 226.632C329.298 226.638 329.425 226.619 329.544 226.575C329.786 226.476 329.98 226.289 330.088 226.051C330.195 225.813 330.207 225.543 330.12 225.297Z" fill="#F28F8F"/>
<path d="M323.001 217.602L324.54 216.414C324.471 216.306 324.38 216.213 324.273 216.142C324.165 216.072 324.044 216.025 323.917 216.006C323.79 215.986 323.66 215.994 323.536 216.029C323.412 216.063 323.297 216.124 323.199 216.207C322.994 216.37 322.859 216.606 322.823 216.865C322.786 217.125 322.85 217.388 323.001 217.602Z" fill="#263238"/>
<path d="M323.479 220.047C323.477 220.198 323.489 220.348 323.513 220.489C323.538 220.63 323.574 220.759 323.621 220.867C323.667 220.976 323.723 221.063 323.784 221.123C323.846 221.183 323.912 221.214 323.979 221.216C324.113 221.209 324.241 221.083 324.335 220.864C324.428 220.645 324.48 220.351 324.478 220.047C324.478 219.747 324.426 219.459 324.332 219.247C324.238 219.035 324.111 218.916 323.979 218.916C323.846 218.916 323.719 219.035 323.625 219.247C323.531 219.459 323.479 219.747 323.479 220.047Z" fill="#263238"/>
<path d="M327.511 218.961L327.25 223.722L324.766 222.867L327.511 218.961Z" fill="#F28F8F"/>
<path d="M339.824 343.485V342.765C339.338 342.972 338.213 347.265 336.224 349.065C334.631 350.523 332.444 352.206 331.895 353.835C331.346 355.464 334.928 356.454 336.395 356.193C338.132 355.887 341.138 354.663 341.894 353.493C342.65 352.323 343.001 350.694 343.622 349.893C344.243 349.092 345.647 348.138 345.98 347.193C346.078 346.298 345.98 345.392 345.692 344.538C345.458 343.638 345.197 342.648 344.891 342.738V343.287C344.18 343.875 343.284 344.194 342.362 344.187C341.615 344.205 339.815 344.052 339.824 343.485Z" fill="#263238"/>
<path d="M322.201 335.466C321.931 335.466 321.724 335.844 321.139 336.474C320.271 337.348 319.265 338.072 318.16 338.616C316.261 339.57 312.571 341.028 310.897 341.784C309.853 342.252 309.907 343.512 310.987 344.223C312.067 344.934 314.668 345.465 317.791 344.763C319.492 344.385 321.715 342.81 323.119 342.891C324.523 342.972 327.142 342.954 328.186 342.243C329.23 341.532 328.807 340.002 328.51 338.697C328.213 337.392 327.736 335.097 327.259 335.178V335.619C326.647 336.519 323.542 336.924 322.21 336.24L322.201 335.466Z" fill="#263238"/>
<path d="M331.949 281.475C329.91 280.566 327.95 279.488 326.09 278.253C327.332 279.784 328.86 281.059 330.59 282.006L328.133 297.702L331.949 281.475Z" fill="#263238"/>
<path d="M329.114 232.803C327.415 234.227 326.185 236.131 325.586 238.266C324.83 241.524 324.686 277.866 324.686 277.866C324.686 277.866 320.825 277.146 319.016 275.733V242.523C319.016 237.978 320.114 233.028 329.078 232.272L329.114 232.803Z" fill="#263238"/>
<path d="M336.926 232.902C336.926 232.902 332.588 235.656 332.534 248.256C332.48 259.146 332.264 278.244 332.264 278.244C332.264 278.244 339.824 279.783 345.224 276.561C345.224 276.561 344.612 249.282 344.513 245.187C344.396 240.507 345.764 236.529 343.127 235.206C341.127 234.268 339.053 233.498 336.926 232.902Z" fill="#263238"/>
<path d="M352.071 277.641L346.869 276.741C346.869 277.641 346.869 278.379 346.824 279.009C346.586 279.83 346.144 280.576 345.537 281.178C344.624 282.22 343.869 283.39 343.296 284.652C342.702 285.678 342.072 286.047 342.243 286.29C342.467 286.539 342.774 286.696 343.107 286.731C343.44 286.766 343.773 286.676 344.043 286.479C344.658 286.049 345.218 285.544 345.708 284.976C345.538 286.311 345.152 287.608 344.565 288.819C343.233 291.6 343.494 293.049 347.319 292.158C349.722 291.6 351.27 289.656 351.819 283.95C352.055 281.856 352.139 279.748 352.071 277.641Z" fill="#FFC0B1"/>
<path d="M340.624 234.135C342.24 234.705 343.782 235.469 345.214 236.412C346.357 237.312 353.008 256.401 353.269 258.111C353.53 259.821 352.54 277.911 352.54 277.911C351.651 278.487 350.628 278.826 349.571 278.894C348.513 278.961 347.456 278.756 346.501 278.298L345.439 260.19L340.201 246.465C340.201 246.465 337.555 239.031 340.624 234.135Z" fill="#263238"/>
<path d="M338.193 239.796L335.835 242.712L337.014 246.033L333.918 253.971L337.653 246.033L336.348 242.901L338.193 239.796Z" fill="#37474F"/>
<path d="M322.589 238.221L323.093 241.236L321.059 243.9L323.894 252.837L321.698 243.999L323.579 241.515L322.589 238.221Z" fill="#37474F"/>
</svg>
