<svg width="29" height="16" viewBox="0 0 29 16" fill="none" xmlns="http://www.w3.org/2000/svg">
<g opacity="0.504302">
<path fill-rule="evenodd" clip-rule="evenodd" d="M6.23879 11.1657C5.41479 11.1657 4.59194 10.8484 3.96044 10.2167L3.92311 10.1794C3.07664 9.33297 1.72908 9.31036 0.854921 10.1279C0.649969 10.3195 0.328572 10.3086 0.136953 10.1038C-0.0546662 9.89894 -0.0438726 9.57741 0.160953 9.38592C1.43765 8.19227 3.40565 8.22528 4.64108 9.46084L4.67841 9.49805C5.28514 10.1049 6.14965 10.2885 6.91194 10.0426V2.52941C6.91194 1.69462 6.23283 1.01551 5.39803 1.01551H5.35714C4.52235 1.01551 3.84324 1.69462 3.84324 2.52941V2.88395C3.84324 3.16446 3.61581 3.39189 3.3353 3.39189C3.05479 3.39189 2.82737 3.16446 2.82737 2.88395V2.52941C2.82737 1.13449 3.96222 -0.000366211 5.35714 -0.000366211H5.39803C6.79295 -0.000366211 7.92781 1.13449 7.92781 2.52941V6.47925H13.4288V2.52941C13.4288 1.69462 12.7497 1.01551 11.9149 1.01551H11.874C11.0393 1.01551 10.3601 1.69462 10.3601 2.52941V2.88395C10.3601 3.16446 10.1326 3.39189 9.85213 3.39189C9.57162 3.39189 9.34419 3.16446 9.34419 2.88395V2.52941C9.34419 1.13449 10.479 -0.000366211 11.874 -0.000366211H11.9149C13.3098 -0.000366211 14.4446 1.13449 14.4446 2.52941V10.1026C14.8294 10.023 15.198 9.839 15.5074 9.5496L15.6826 9.38579C16.959 8.19201 18.9272 8.22503 20.1627 9.46071L20.2006 9.49855C21.0464 10.3444 22.3941 10.3671 23.2681 9.5496L23.4434 9.38579C24.7201 8.19201 26.6878 8.22516 27.9235 9.46071C28.122 9.65919 28.122 9.98071 27.9235 10.1791C27.7253 10.3774 27.4034 10.3774 27.2053 10.1791C26.3589 9.33271 25.0112 9.31024 24.1373 10.1278L23.9621 10.2916C22.6853 11.4852 20.7174 11.4522 19.482 10.2167L19.4441 10.1788C18.5983 9.33284 17.2506 9.31024 16.3766 10.1278L16.2013 10.2917C14.9244 11.4853 12.9566 11.4523 11.7212 10.2168L11.6839 10.1796C10.8374 9.33309 9.48997 9.31036 8.61581 10.1279L8.44032 10.292C7.81632 10.8753 7.02698 11.1657 6.23879 11.1657ZM6.23892 15.8824C5.41479 15.8824 4.59194 15.565 3.96044 14.9332L3.92311 14.896C3.07664 14.0497 1.72908 14.0269 0.854921 14.8443C0.649969 15.0362 0.328572 15.025 0.136953 14.8203C-0.0546662 14.6155 -0.0438726 14.294 0.160953 14.1025C1.43765 12.9088 3.40552 12.9417 4.64108 14.1774L4.67841 14.2146C5.52489 15.0611 6.87232 15.0838 7.74648 14.2663L7.92197 14.1022C9.19841 12.9086 11.1664 12.9416 12.4018 14.1774L12.4392 14.2146C13.2858 15.0611 14.6332 15.0837 15.5074 14.2663L15.6826 14.1024C16.959 12.9088 18.927 12.9416 20.1627 14.1773L20.2006 14.2151C21.0464 15.0611 22.3941 15.0837 23.2681 14.2662L23.4434 14.1022C24.7201 12.9086 26.6878 12.9415 27.9235 14.1772C28.122 14.3755 28.122 14.6972 27.9235 14.8955C27.7253 15.094 27.4036 15.0939 27.2053 14.8955C26.3589 14.0493 25.0114 14.0268 24.1373 14.8441L23.9621 15.008C22.6854 16.2017 20.7177 16.1688 19.482 14.9331L19.4441 14.8953C18.5983 14.0493 17.2506 14.0267 16.3766 14.8442L16.2013 15.0081C14.9246 16.2018 12.9569 16.1689 11.7212 14.9332L11.6839 14.896C10.8374 14.0495 9.48997 14.0269 8.61581 14.8443L8.44032 15.0084C7.81645 15.5919 7.02698 15.8823 6.23892 15.8824ZM12.4018 9.46084C11.7704 8.82909 10.9475 8.51176 10.1235 8.51176C9.33772 8.51176 8.55079 8.80052 7.92781 9.38021V7.49513H13.4288V10.0725C13.0669 9.97513 12.7245 9.78338 12.4392 9.49805L12.4018 9.46084Z" fill="black"/>
</g>
</svg>
