<svg width="22" height="16" viewBox="0 0 22 16" fill="none" xmlns="http://www.w3.org/2000/svg">
<g opacity="0.49986">
<path fill-rule="evenodd" clip-rule="evenodd" d="M2.66667 0H18.6667C18.6667 0 21.3333 0 21.3333 2.66667V10.6667C21.3333 10.6667 21.3333 13.3333 18.6667 13.3333H2.66667C2.66667 13.3333 0 13.3333 0 10.6667V2.66667C0 2.66667 0 0 2.66667 0ZM18.6547 1.33333L18.6867 1.33467C18.9358 1.35163 19.1793 1.41636 19.404 1.52533C19.5658 1.60064 19.7047 1.7175 19.8067 1.864C19.896 1.99733 20 2.23333 20 2.66667V10.6547L19.9987 10.6867C19.9816 10.9358 19.9168 11.1793 19.808 11.404C19.7326 11.5658 19.6158 11.7047 19.4693 11.8067C19.336 11.896 19.1 12 18.6667 12H2.67867L2.64667 11.9987C2.39756 11.9816 2.15405 11.9168 1.92933 11.808C1.76756 11.7326 1.62863 11.6158 1.52667 11.4693C1.43733 11.336 1.33333 11.1 1.33333 10.6667V2.67867L1.33467 2.64667C1.35163 2.39754 1.41636 2.154 1.52533 1.92933C1.60069 1.76756 1.71754 1.62863 1.864 1.52667C1.99733 1.43733 2.23333 1.33333 2.66667 1.33333H18.6547ZM3.33333 15.3333C3.33333 14.9651 3.63181 14.6667 4 14.6667H17.3333C17.7015 14.6667 18 14.9651 18 15.3333C18 15.7015 17.7015 16 17.3333 16H4C3.63181 16 3.33333 15.7015 3.33333 15.3333Z" fill="black"/>
</g>
</svg>
