<svg width="20" height="16" viewBox="0 0 20 16" fill="none" xmlns="http://www.w3.org/2000/svg">
<path opacity="0.500744" d="M19.0522 4.59466C14.2186 -1.50828 4.98978 -1.51885 0.147784 4.59466C-0.0867031 4.89068 -0.0367531 5.32081 0.259309 5.55526C0.555372 5.78971 0.985422 5.7398 1.21991 5.44373C5.50657 0.0313959 13.6869 0.023108 17.9802 5.44373C18.2148 5.74002 18.6448 5.78956 18.9408 5.55526C19.2368 5.32073 19.2867 4.89068 19.0522 4.59466Z" fill="#222222"/>
<path opacity="0.500744" d="M3.27633 7.06742C3.04176 7.3634 3.09156 7.79349 3.38755 8.02802C3.68365 8.26265 4.11366 8.2127 4.34815 7.91679C7.03566 4.52533 12.1591 4.5191 14.8515 7.91679C15.0861 8.21278 15.5162 8.26258 15.8121 8.02802C16.1081 7.79345 16.158 7.3634 15.9234 7.06742C12.6882 2.98479 6.51644 2.97857 3.27633 7.06742Z" fill="#222222"/>
<path opacity="0.500744" d="M6.40352 9.53998C6.16914 9.83611 6.21917 10.2661 6.51531 10.5005C6.81144 10.7349 7.24149 10.6849 7.47587 10.3888C8.56056 9.01828 10.6378 9.01599 11.7243 10.3888C11.9587 10.6849 12.3887 10.735 12.6849 10.5005C12.981 10.2661 13.031 9.83611 12.7967 9.53998C11.1648 7.47815 8.03807 7.47485 6.40352 9.53998Z" fill="#222222"/>
<circle opacity="0.500744" cx="9.59989" cy="13.5636" r="1.72294" stroke="#222222" stroke-width="0.8"/>
</svg>
