<svg width="30" height="30" viewBox="0 0 30 30" fill="none" xmlns="http://www.w3.org/2000/svg">
<mask id="mask0_0_17055" style="mask-type:alpha" maskUnits="userSpaceOnUse" x="0" y="0" width="30" height="30">
<path fill-rule="evenodd" clip-rule="evenodd" d="M0.468994 14.873C0.468994 22.948 7.01599 29.495 15.091 29.495C23.166 29.495 29.712 22.948 29.712 14.873C29.712 6.79895 23.166 0.251953 15.091 0.251953C7.01599 0.251953 0.468994 6.79895 0.468994 14.873Z" fill="white"/>
</mask>
<g mask="url(#mask0_0_17055)">
<path fill-rule="evenodd" clip-rule="evenodd" d="M0.468994 14.873C0.468994 22.948 7.01599 29.495 15.091 29.495C23.166 29.495 29.712 22.948 29.712 14.873C29.712 6.79895 23.166 0.251953 15.091 0.251953C7.01599 0.251953 0.468994 6.79895 0.468994 14.873Z" fill="url(#paint0_linear_0_17055)"/>
</g>
<path fill-rule="evenodd" clip-rule="evenodd" d="M17.6389 15.1493L13.6129 17.1413C13.4549 17.2263 12.9189 17.1123 12.9189 16.9323V12.8443C12.9189 12.6623 13.4599 12.5483 13.6179 12.6383L17.4709 14.7353C17.6329 14.8273 17.8019 15.0603 17.6389 15.1493ZM22.9189 12.7473C22.9189 10.8083 21.3469 9.23633 19.4079 9.23633H10.4299C8.49095 9.23633 6.91895 10.8083 6.91895 12.7473V16.9253C6.91895 18.8643 8.49095 20.4363 10.4299 20.4363H19.4079C21.3469 20.4363 22.9189 18.8643 22.9189 16.9253V12.7473Z" fill="white"/>
<defs>
<linearGradient id="paint0_linear_0_17055" x1="15.0908" y1="-5.80443" x2="-5.58696" y2="14.8733" gradientUnits="userSpaceOnUse">
<stop stop-color="#FF0000"/>
<stop offset="1" stop-color="#850000"/>
</linearGradient>
</defs>
</svg>
