<svg width="9" height="13" viewBox="0 0 9 13" fill="none" xmlns="http://www.w3.org/2000/svg">
<path opacity="0.497652" d="M4.14882 0.135757L0.143779 3.92315C0.0510728 4.01075 0 4.12769 0 4.25237C0 4.37706 0.0510728 4.49399 0.143779 4.58159L0.438655 4.86051C0.6308 5.042 0.94309 5.042 1.13494 4.86051L4.49813 1.68014L7.86506 4.86404C7.95776 4.95163 8.08135 5 8.21313 5C8.34505 5 8.46864 4.95163 8.56142 4.86404L8.85622 4.58512C8.94893 4.49745 9 4.38059 9 4.2559C9 4.13122 8.94893 4.01428 8.85622 3.92668L4.84752 0.135757C4.75452 0.0479517 4.63035 -0.000275612 4.49835 9.53674e-07C4.36584 -0.000275612 4.24175 0.0479517 4.14882 0.135757Z" fill="#222222"/>
<path opacity="0.497652" d="M4.85118 12.8642L8.85622 9.07685C8.94893 8.98925 9 8.87231 9 8.74763C9 8.62294 8.94893 8.50601 8.85622 8.41841L8.56135 8.13949C8.3692 7.958 8.05691 7.958 7.86506 8.13949L4.50187 11.3199L1.13494 8.13596C1.04224 8.04837 0.918652 8 0.786872 8C0.654946 8 0.531362 8.04837 0.438581 8.13596L0.14378 8.41488C0.0510731 8.50255 0 8.61941 0 8.7441C0 8.86878 0.0510731 8.98572 0.14378 9.07332L4.15248 12.8642C4.24548 12.952 4.36965 13.0003 4.50165 13C4.63416 13.0003 4.75825 12.952 4.85118 12.8642Z" fill="#222222"/>
</svg>
