<svg width="20" height="20" viewBox="0 0 20 20" fill="none" xmlns="http://www.w3.org/2000/svg">
<path d="M6.06216 3.50001C2.71948 5.42991 1.57009 9.71948 3.49999 13.0622C5.42988 16.4048 9.71946 17.5542 13.0621 15.6243C13.1984 15.5457 13.2451 15.3714 13.1664 15.2351C13.0878 15.0989 12.9135 15.0522 12.7772 15.1309C9.70668 16.9037 5.76627 15.8479 3.99344 12.7773C2.22062 9.70664 3.27648 5.76627 6.34705 3.99347C9.41763 2.22067 13.358 3.2765 15.1308 6.34708C16.2343 8.2584 16.2851 10.5704 15.2665 12.5317C15.194 12.6713 15.2484 12.8433 15.388 12.9158C15.5277 12.9884 15.6996 12.934 15.7722 12.7943C16.8808 10.6595 16.8256 8.14284 15.6243 6.06222C13.6944 2.71948 9.40487 1.57009 6.06216 3.50001Z" fill="#B2D235"/>
<path d="M12.3305 11.165C12.259 11.0934 12.1429 11.0934 12.0715 11.165C11.9999 11.2365 11.9999 11.3525 12.0715 11.424L12.4275 11.78C12.5127 11.8653 12.5597 11.9786 12.5597 12.0992C12.5597 12.2198 12.5127 12.3332 12.4275 12.4185L12.4184 12.4275C12.3331 12.5128 12.2198 12.5597 12.0992 12.5597C11.9786 12.5597 11.8652 12.5128 11.7799 12.4275L11.4239 12.0715C11.3622 12.0099 11.2656 12.0002 11.193 12.0486C10.8607 12.2698 10.4947 12.4215 10.105 12.4997C10.0194 12.5168 9.95787 12.5919 9.95787 12.6792V13.1823C9.95787 13.4312 9.75534 13.6337 9.50641 13.6337H9.49359C9.24466 13.6337 9.04213 13.4312 9.04213 13.1823V12.6792C9.04213 12.592 8.98056 12.5168 8.89497 12.4997C8.50529 12.4215 8.13927 12.2698 7.80701 12.0486C7.73436 12.0002 7.63772 12.0098 7.576 12.0715L7.21999 12.4275C7.13474 12.5128 7.02134 12.5597 6.90077 12.5597C6.78016 12.5597 6.6668 12.5128 6.58154 12.4275L6.57247 12.4185C6.48722 12.3332 6.44024 12.2198 6.44024 12.0992C6.44024 11.9786 6.48722 11.8653 6.57247 11.78L6.92848 11.424C6.99017 11.3623 6.99979 11.2656 6.95144 11.193C6.73023 10.8607 6.57846 10.4947 6.50031 10.105C6.48316 10.0195 6.40801 9.9579 6.32074 9.9579H5.81775C5.56883 9.9579 5.3663 9.75537 5.3663 9.50647V9.49362C5.3663 9.24469 5.56883 9.04216 5.81775 9.04216H6.32077C6.40804 9.04216 6.48319 8.98059 6.50035 8.89503C6.57852 8.50532 6.73029 8.1393 6.95147 7.80707C6.99982 7.73442 6.99023 7.63775 6.92851 7.57606L6.57247 7.22008C6.48722 7.1348 6.44024 7.02143 6.44024 6.90083C6.44024 6.78022 6.48722 6.66685 6.57247 6.58157L6.58154 6.5725C6.6668 6.48725 6.78016 6.44027 6.90077 6.44027C7.02134 6.44027 7.13474 6.48725 7.21999 6.57253L7.576 6.92851C7.64755 7 7.76351 7.00003 7.835 6.92848C7.90652 6.85696 7.90652 6.741 7.835 6.66948L7.47902 6.31353C7.32457 6.15905 7.1192 6.07397 6.9008 6.07397C6.68236 6.07397 6.47699 6.15905 6.32257 6.31353L6.3135 6.3226C6.15905 6.47705 6.07398 6.68239 6.07398 6.90083C6.07398 7.11926 6.15905 7.32463 6.3135 7.47909L6.56576 7.73131C6.38759 8.0259 6.25627 8.34254 6.17407 8.67583H5.81775C5.36684 8.67583 5 9.04268 5 9.49359V9.50644C5 9.95732 5.36684 10.3242 5.81775 10.3242H6.17404C6.25621 10.6575 6.3875 10.974 6.56573 11.2687L6.3135 11.5209C6.15902 11.6754 6.07398 11.8807 6.07398 12.0992C6.07398 12.3176 6.15905 12.523 6.3135 12.6774L6.32257 12.6865C6.47702 12.841 6.68236 12.926 6.9008 12.926C7.11923 12.926 7.32457 12.841 7.47902 12.6865L7.73128 12.4342C8.02593 12.6124 8.3425 12.7437 8.67583 12.8259V13.1822C8.67583 13.6331 9.04268 14 9.49359 14H9.50641C9.95732 14 10.3242 13.6331 10.3242 13.1822V12.8259C10.6575 12.7437 10.9741 12.6124 11.2687 12.4342L11.5209 12.6865C11.6754 12.841 11.8807 12.926 12.0992 12.926C12.3176 12.926 12.523 12.841 12.6774 12.6865L12.6865 12.6774C12.8409 12.5229 12.926 12.3176 12.926 12.0992C12.926 11.8807 12.8409 11.6754 12.6865 11.521L12.3305 11.165Z" fill="#B2D235"/>
<path d="M13.1822 8.67584H12.8259C12.7437 8.34251 12.6124 8.0259 12.4342 7.73131L12.6864 7.47906C13.0053 7.16023 13.0053 6.64143 12.6864 6.32257L12.6774 6.3135C12.5229 6.15902 12.3176 6.07395 12.0992 6.07395C11.8807 6.07395 11.6753 6.15902 11.521 6.31347L11.2687 6.56576C10.974 6.38756 10.6574 6.25627 10.3241 6.1741V5.81778C10.3241 5.36688 9.9573 5 9.50636 5H9.49354C9.04263 5 8.67578 5.36688 8.67578 5.81778V6.3208C8.67578 6.42193 8.7578 6.50395 8.85893 6.50395C8.96009 6.50395 9.04208 6.42193 9.04208 6.3208V5.81778C9.04208 5.56883 9.24461 5.3663 9.49354 5.3663H9.50636C9.75529 5.3663 9.95782 5.56883 9.95782 5.81778V6.3208C9.95782 6.40804 10.0194 6.48319 10.1049 6.50038C10.4946 6.57855 10.8606 6.73029 11.1929 6.95147C11.2655 6.99976 11.3622 6.99024 11.4239 6.92851L11.7799 6.57251C11.8652 6.48725 11.9785 6.44027 12.0991 6.44027C12.2197 6.44027 12.3331 6.48725 12.4184 6.57251L12.4274 6.58157C12.5127 6.66686 12.5597 6.78023 12.5597 6.90083C12.5597 7.02143 12.5127 7.1348 12.4274 7.22006L12.0714 7.57603C12.0097 7.63772 12.0001 7.7344 12.0485 7.80704C12.2696 8.13924 12.4214 8.50526 12.4996 8.895C12.5168 8.98056 12.5919 9.04213 12.6792 9.04213H13.1822C13.4311 9.04213 13.6336 9.24466 13.6336 9.49359V9.50644C13.6336 9.75534 13.4311 9.95787 13.1822 9.95787H12.6792C12.578 9.95787 12.496 10.0399 12.496 10.141C12.496 10.2421 12.578 10.3242 12.6792 10.3242H13.1822C13.6331 10.3242 13.9999 9.95732 13.9999 9.50644V9.49359C13.9999 9.04265 13.6331 8.67584 13.1822 8.67584Z" fill="#B2D235"/>
<path d="M9.50006 10.1899C9.34008 10.1899 9.18999 10.1368 9.066 10.0363C8.98746 9.9727 8.87211 9.9847 8.8084 10.0633C8.74473 10.1418 8.75679 10.2572 8.83536 10.3209C9.02259 10.4727 9.25867 10.5562 9.50006 10.5562C10.0824 10.5562 10.5563 10.0824 10.5563 9.5C10.5563 8.91762 10.0825 8.44379 9.50006 8.44379C8.91765 8.44379 8.44385 8.91759 8.44385 9.5C8.44385 9.60113 8.52587 9.68315 8.627 9.68315C8.72812 9.68315 8.81014 9.60113 8.81014 9.5C8.81014 9.11957 9.11963 8.81008 9.50006 8.81008C9.88049 8.81008 10.19 9.11957 10.19 9.5C10.19 9.88043 9.88049 10.1899 9.50006 10.1899Z" fill="#B2D235"/>
</svg>
