<svg width="14" height="24" viewBox="0 0 14 24" fill="none" xmlns="http://www.w3.org/2000/svg">
<path d="M9.08247 11.7671L12.9556 9.57619L10.8145 0H3.18663L1.04566 9.57619L4.91875 11.7671C2.4685 12.6285 0.707031 14.9654 0.707031 17.7064C0.707031 21.1767 3.53031 24 7.00061 24C10.4709 24 13.2942 21.1767 13.2942 17.7064C13.2942 14.9654 11.5327 12.6285 9.08247 11.7671ZM11.3335 8.85567L8.16095 10.6502L10.161 3.61139L11.3335 8.85567ZM2.66777 8.85567L4.32888 1.4258H9.29978L6.56266 11.0588L2.66777 8.85567ZM7.00056 22.5742C4.31645 22.5742 2.13278 20.3905 2.13278 17.7064C2.13278 15.0223 4.31645 12.8386 7.00056 12.8386C9.68467 12.8386 11.8683 15.0223 11.8683 17.7064C11.8683 20.3905 9.68472 22.5742 7.00056 22.5742Z" fill="white"/>
</svg>
