<svg viewBox="0 0 18 21" fill="none" xmlns="http://www.w3.org/2000/svg">
<path fill-rule="evenodd" clip-rule="evenodd" d="M14.7143 6.75759L17 3.8788L14.7143 1H3.28573V6.75759H8.14288V8.48485H3.28573L1 11.3636L3.28573 14.2424H8.14288V18.2727H5.57146V20H12.4286V18.2727H9.85719V14.2424H14.7143V8.48485H9.85715V6.75759H14.7143ZM13 10.2121V12.5152H4.10966L3.19539 11.3636L4.10966 10.2121H13ZM5 2.72726V5.03026H13.8903L14.8046 3.87876L13.8903 2.72726H5Z" fill="#B2D235"/>
<path d="M17 3.8788L17.2349 4.06534L17.3831 3.8788L17.2349 3.69225L17 3.8788ZM14.7143 6.75759V7.05759H14.8591L14.9492 6.94414L14.7143 6.75759ZM14.7143 1L14.9492 0.813454L14.8591 0.7H14.7143V1ZM3.28573 1V0.7H2.98573V1H3.28573ZM3.28573 6.75759H2.98573V7.05759H3.28573V6.75759ZM8.14288 6.75759H8.44288V6.45759H8.14288V6.75759ZM8.14288 8.48485V8.78485H8.44288V8.48485H8.14288ZM3.28573 8.48485V8.18485H3.14086L3.05078 8.2983L3.28573 8.48485ZM1 11.3636L0.765052 11.1771L0.616937 11.3636L0.765052 11.5502L1 11.3636ZM3.28573 14.2424L3.05078 14.429L3.14086 14.5424H3.28573V14.2424ZM8.14288 14.2424H8.44288V13.9424H8.14288V14.2424ZM8.14288 18.2727V18.5727H8.44288V18.2727H8.14288ZM5.57146 18.2727V17.9727H5.27146V18.2727H5.57146ZM5.57146 20H5.27146V20.3H5.57146V20ZM12.4286 20V20.3H12.7286V20H12.4286ZM12.4286 18.2727H12.7286V17.9727H12.4286V18.2727ZM9.85719 18.2727H9.55719V18.5727H9.85719V18.2727ZM9.85719 14.2424V13.9424H9.55719V14.2424H9.85719ZM14.7143 14.2424V14.5424H15.0143V14.2424H14.7143ZM14.7143 8.48485H15.0143V8.18485H14.7143V8.48485ZM9.85715 8.48485H9.55715V8.78485H9.85715V8.48485ZM9.85715 6.75759V6.45759H9.55715V6.75759H9.85715ZM13 12.5152V12.8152H13.3V12.5152H13ZM13 10.2121H13.3V9.91214H13V10.2121ZM4.10966 12.5152L3.87471 12.7017L3.9648 12.8152H4.10966V12.5152ZM3.19539 11.3636L2.96044 11.1771L2.81232 11.3636L2.96044 11.5502L3.19539 11.3636ZM4.10966 10.2121V9.91214H3.9648L3.87471 10.0256L4.10966 10.2121ZM5 5.03026H4.7V5.33026H5V5.03026ZM5 2.72726V2.42726H4.7V2.72726H5ZM13.8903 5.03026V5.33026H14.0352L14.1253 5.21681L13.8903 5.03026ZM14.8046 3.87876L15.0396 4.06531L15.1877 3.87876L15.0396 3.69221L14.8046 3.87876ZM13.8903 2.72726L14.1253 2.54071L14.0352 2.42726H13.8903V2.72726ZM16.7651 3.69225L14.4793 6.57105L14.9492 6.94414L17.2349 4.06534L16.7651 3.69225ZM14.4793 1.18655L16.7651 4.06534L17.2349 3.69225L14.9492 0.813454L14.4793 1.18655ZM3.28573 1.3H14.7143V0.7H3.28573V1.3ZM3.58573 6.75759V1H2.98573V6.75759H3.58573ZM8.14288 6.45759H3.28573V7.05759H8.14288V6.45759ZM8.44288 8.48485V6.75759H7.84288V8.48485H8.44288ZM3.28573 8.78485H8.14288V8.18485H3.28573V8.78485ZM1.23495 11.5502L3.52068 8.6714L3.05078 8.2983L0.765052 11.1771L1.23495 11.5502ZM3.52068 14.0559L1.23495 11.1771L0.765052 11.5502L3.05078 14.429L3.52068 14.0559ZM8.14288 13.9424H3.28573V14.5424H8.14288V13.9424ZM8.44288 18.2727V14.2424H7.84288V18.2727H8.44288ZM5.57146 18.5727H8.14288V17.9727H5.57146V18.5727ZM5.87146 20V18.2727H5.27146V20H5.87146ZM12.4286 19.7H5.57146V20.3H12.4286V19.7ZM12.1286 18.2727V20H12.7286V18.2727H12.1286ZM9.85719 18.5727H12.4286V17.9727H9.85719V18.5727ZM9.55719 14.2424V18.2727H10.1572V14.2424H9.55719ZM14.7143 13.9424H9.85719V14.5424H14.7143V13.9424ZM14.4143 8.48485V14.2424H15.0143V8.48485H14.4143ZM9.85715 8.78485H14.7143V8.18485H9.85715V8.78485ZM9.55715 6.75759V8.48485H10.1572V6.75759H9.55715ZM14.7143 6.45759H9.85715V7.05759H14.7143V6.45759ZM13.3 12.5152V10.2121H12.7V12.5152H13.3ZM4.10966 12.8152H13V12.2152H4.10966V12.8152ZM2.96044 11.5502L3.87471 12.7017L4.34461 12.3286L3.43033 11.1771L2.96044 11.5502ZM3.87471 10.0256L2.96044 11.1771L3.43033 11.5502L4.34461 10.3987L3.87471 10.0256ZM13 9.91214H4.10966V10.5121H13V9.91214ZM5.3 5.03026V2.72726H4.7V5.03026H5.3ZM13.8903 4.73026H5V5.33026H13.8903V4.73026ZM14.5697 3.69221L13.6554 4.84372L14.1253 5.21681L15.0396 4.06531L14.5697 3.69221ZM13.6554 2.9138L14.5697 4.06531L15.0396 3.69221L14.1253 2.54071L13.6554 2.9138ZM5 3.02726H13.8903V2.42726H5V3.02726Z" fill="white"/>
</svg>
