<svg width="18" height="12" viewBox="0 0 18 12" fill="none" xmlns="http://www.w3.org/2000/svg">
<path opacity="0.49628" fill-rule="evenodd" clip-rule="evenodd" d="M0.853559 0.0183411H16.2178C16.7015 0.0183411 17.0714 0.388205 17.0714 0.8719V6.56238C17.0714 7.04607 16.7015 7.41593 16.2178 7.41593H0.853559C0.369864 7.41593 0 7.04607 0 6.56238V0.8719C0 0.388205 0.369864 0.0183411 0.853559 0.0183411ZM16.2179 6.84688C16.3886 6.84688 16.5024 6.73309 16.5024 6.56238H16.5023V0.8719C16.5023 0.701189 16.3885 0.587392 16.2178 0.587392H0.853559C0.711322 0.587392 0.569051 0.701189 0.569051 0.8719V6.56238C0.569051 6.73309 0.682847 6.84688 0.853559 6.84688H16.2179Z" fill="#222222"/>
<path opacity="0.49628" d="M7.39759 2.57906H9.67379C9.84451 2.57906 9.9583 2.46526 9.9583 2.29455C9.9583 2.12384 9.84451 2.01004 9.67379 2.01004H7.39759C7.22688 2.01004 7.11308 2.12384 7.11308 2.29455C7.11308 2.46526 7.22688 2.57906 7.39759 2.57906Z" fill="#222222"/>
<path opacity="0.49628" d="M15.6488 5.70882H1.42262C1.2519 5.70882 1.13811 5.82261 1.13811 5.99332C1.13811 6.16404 1.2519 6.27783 1.42262 6.27783H15.6488C15.8195 6.27783 15.9333 6.16404 15.9333 5.99332C15.9333 5.82261 15.8195 5.70882 15.6488 5.70882Z" fill="#222222"/>
<path opacity="0.49628" d="M15.6488 4.57071H1.42262C1.2519 4.57071 1.13811 4.68451 1.13811 4.85522C1.13811 5.02593 1.2519 5.13973 1.42262 5.13973H15.6488C15.8195 5.13973 15.9333 5.02593 15.9333 4.85522C15.9333 4.68451 15.8195 4.57071 15.6488 4.57071Z" fill="#222222"/>
<path opacity="0.49628" d="M8.67796 9.43606C8.39345 9.29379 8.25118 9.12308 8.25118 8.98081C8.25118 8.83854 8.42189 8.66783 8.64952 8.49711C8.79179 8.4402 8.82023 8.26949 8.76332 8.12725C8.7064 7.98498 8.53569 7.9281 8.39345 8.01345C7.9382 8.26952 7.68213 8.61094 7.68213 8.98084C7.68213 9.35071 7.9382 9.69216 8.39345 9.97667C8.67796 10.1189 8.82023 10.2897 8.82023 10.4319C8.82023 10.5742 8.64952 10.7449 8.39345 10.8871C8.25118 10.9441 8.1943 11.1148 8.27965 11.257C8.33657 11.3424 8.42193 11.3993 8.53572 11.3993C8.59264 11.3993 8.62108 11.3993 8.67799 11.3708C9.13325 11.1148 9.38932 10.7734 9.38932 10.4035C9.38932 10.0336 9.13321 9.66369 8.67796 9.43606Z" fill="#222222"/>
<path opacity="0.49628" d="M5.5482 10.0051C5.26369 9.86285 5.12142 9.69214 5.12142 9.54987C5.12142 9.4076 5.29213 9.23689 5.51976 9.06617C5.66203 9.00926 5.71891 8.83855 5.63355 8.69631C5.57664 8.55404 5.40593 8.49716 5.26369 8.58251C4.80844 8.83858 4.55237 9.18 4.55237 9.5499C4.55237 9.91977 4.80844 10.2612 5.26369 10.5457C5.5482 10.688 5.69047 10.8587 5.69047 11.001C5.69047 11.1433 5.51976 11.314 5.26369 11.4562C5.12142 11.5132 5.06454 11.6839 5.14989 11.8261C5.20681 11.9115 5.29216 11.9684 5.40596 11.9684C5.46288 11.9684 5.49132 11.9684 5.54823 11.9399C6.00349 11.6839 6.25955 11.3424 6.25955 10.9725C6.25955 10.6026 6.00345 10.2328 5.5482 10.0051Z" fill="#222222"/>
<path opacity="0.49628" d="M11.8077 10.0051C11.5232 9.86285 11.381 9.69214 11.381 9.54987C11.381 9.4076 11.5517 9.23689 11.7793 9.06617C11.9216 9.00926 11.95 8.83855 11.8931 8.69631C11.8362 8.55404 11.6655 8.49716 11.5232 8.58251C11.068 8.83858 10.8119 9.18 10.8119 9.5499C10.8119 9.91977 11.068 10.2612 11.5232 10.5457C11.8077 10.688 11.95 10.8587 11.95 11.001C11.95 11.1433 11.7793 11.314 11.5232 11.4562C11.381 11.5132 11.3241 11.6839 11.4094 11.8261C11.4663 11.9115 11.5517 11.9684 11.6655 11.9684C11.7224 11.9684 11.7509 11.9684 11.8078 11.9399C12.263 11.6839 12.5191 11.3424 12.5191 10.9725C12.5191 10.6026 12.263 10.2328 11.8077 10.0051Z" fill="#222222"/>
</svg>
