<svg width="15" height="18" viewBox="0 0 15 18" fill="none" xmlns="http://www.w3.org/2000/svg">
<path fill-rule="evenodd" clip-rule="evenodd" d="M11.1171 0.240967C10.2426 0.276344 9.18453 0.82212 8.55667 1.55691C7.99484 2.20901 7.50276 3.2472 7.63381 4.24588C8.60944 4.32177 9.60472 3.75001 10.2123 3.01582C10.8187 2.28037 11.2286 1.2587 11.1171 0.240967ZM10.8705 17.5976C12.0541 17.5762 12.8048 16.5227 13.5296 15.4635C14.3152 14.3161 14.6672 13.2019 14.726 13.0161C14.7299 13.0035 14.7326 12.9952 14.7339 12.9914C14.7334 12.9911 14.7319 12.9905 14.7296 12.9896C14.6158 12.9433 12.4241 12.0517 12.4011 9.47633C12.3801 7.345 14.0829 6.28727 14.2653 6.17401C14.2713 6.17028 14.2756 6.16758 14.2782 6.16589C13.2567 4.67267 11.666 4.46774 11.0999 4.44449C10.2722 4.36039 9.46893 4.67719 8.8127 4.93599C8.39589 5.10038 8.03839 5.24136 7.77165 5.24136C7.4749 5.24136 7.10773 5.09553 6.6956 4.93185C6.15637 4.71769 5.54019 4.47296 4.90413 4.48433C3.42809 4.50658 2.06785 5.34276 1.30821 6.6639C-0.224519 9.32283 0.915802 13.2636 2.40976 15.4214C3.14021 16.4768 4.01111 17.6635 5.15323 17.62C5.66456 17.5998 6.02805 17.4449 6.40395 17.2846C6.8377 17.0996 7.28796 16.9077 8.0009 16.9077C8.68181 16.9077 9.11215 17.0939 9.52583 17.2729C9.9212 17.444 10.3014 17.6086 10.8705 17.5976Z" fill="#ffff"/>
</svg>
