<svg width="14" height="11" viewBox="0 0 18 11" fill="none" xmlns="http://www.w3.org/2000/svg">
<path  d="M9.67406 10.2285L17.2288 2.65369C17.4037 2.47849 17.5 2.24462 17.5 1.99525C17.5 1.74588 17.4037 1.51201 17.2288 1.33682L16.6726 0.778985C16.3101 0.416 15.721 0.416 15.3592 0.778985L9.01515 7.13973L2.6641 0.771927C2.48923 0.596731 2.25611 0.5 2.00754 0.5C1.75868 0.5 1.52557 0.596731 1.35056 0.771927L0.794468 1.32976C0.619595 1.50509 0.523256 1.73883 0.523256 1.9882C0.523256 2.23757 0.619595 2.47144 0.794468 2.64663L8.3561 10.2285C8.53152 10.4041 8.76574 10.5006 9.01473 10.5C9.26469 10.5006 9.49877 10.4041 9.67406 10.2285Z" fill="#ffff"/>
</svg>
