<svg width="32" height="26" viewBox="0 0 32 26" xmlns="http://www.w3.org/2000/svg">
<path fill-rule="evenodd" clip-rule="evenodd" d="M30.159 15.7141H30.8319C31.4185 15.7141 31.8938 16.1896 31.8939 16.7761C31.8939 20.589 28.7919 23.6911 24.9788 23.6911C21.1659 23.6911 18.064 20.589 18.064 16.7761C18.064 16.1896 18.5393 15.7141 19.1259 15.7141H19.7988L23.2606 8.79025H16.9769V23.1482H20.4793C21.0659 23.1482 21.5412 23.6237 21.5412 24.2101C21.5412 24.7966 21.0659 25.2721 20.4793 25.2721H11.4804C10.8937 25.2721 10.4184 24.7966 10.4184 24.2101C10.4184 23.6237 10.8937 23.1482 11.4804 23.1482H14.853V8.79025H8.63335L12.0951 15.7141H12.768C13.3546 15.7141 13.8299 16.1896 13.8299 16.7761C13.8299 20.589 10.7281 23.6911 6.91511 23.6911C3.10202 23.6911 0 20.589 0 16.7761C0 16.1896 0.475327 15.7141 1.06195 15.7141H1.73494L5.19703 8.79025H4.71689C4.13027 8.79025 3.65494 8.31478 3.65494 7.7283C3.65494 7.14183 4.13027 6.66636 4.71689 6.66636H14.8528V5.72689C13.7482 5.29914 12.9616 4.22813 12.9616 2.97432C12.9616 1.34586 14.2863 0.0211182 15.9148 0.0211182C17.5434 0.0211182 18.8682 1.34586 18.8682 2.97432C18.8682 4.22827 18.0816 5.29914 16.9767 5.72689V6.66636H27.1131C27.6997 6.66636 28.175 7.14183 28.175 7.7283C28.175 8.31478 27.6997 8.79025 27.1131 8.79025H26.6969L30.159 15.7141ZM16.7444 2.97432C16.7444 2.51698 16.3721 2.14487 15.9148 2.14487C15.4576 2.14487 15.0855 2.51698 15.0855 2.97432C15.0855 3.43167 15.4576 3.80363 15.9148 3.80363C16.3721 3.80363 16.7444 3.43167 16.7444 2.97432ZM6.91512 21.5672C4.63816 21.5672 2.72708 19.9704 2.24255 17.838H2.38669L2.39023 17.8382L2.3932 17.838H11.4366L11.4396 17.8382L11.4431 17.838H11.5873C11.103 19.9706 9.19193 21.5672 6.91512 21.5672ZM6.91497 10.1028L4.10917 15.7141H9.7205L6.91497 10.1028ZM24.9787 10.1028L27.7845 15.7141H22.173L24.9787 10.1028ZM20.3064 17.838C20.7908 19.9704 22.7019 21.5672 24.9787 21.5672C27.2556 21.5672 29.1667 19.9706 29.6511 17.838H29.507L29.5034 17.8382L29.5005 17.838H20.4571L20.4541 17.8382L20.4506 17.838H20.3064Z"/>
</svg>
