<svg width="12" height="12" viewBox="0 0 12 12" fill="none" xmlns="http://www.w3.org/2000/svg">
<path opacity="0.499209" fill-rule="evenodd" clip-rule="evenodd" d="M4.71324 6.52908H11.6498C11.8432 6.52908 12 6.68648 12 6.88064V8.04157C12 8.20294 11.8917 8.3389 11.7441 8.38024V9.39291C11.7441 10.2109 11.2275 10.9099 10.5046 11.1789L10.686 11.4549C10.7925 11.6169 10.7479 11.835 10.5865 11.9419C10.5271 11.9812 10.4601 12 10.3939 12C10.2802 12 10.1686 11.9445 10.1013 11.842L9.74298 11.2969H2.25709L1.8988 11.842C1.83148 11.9445 1.7199 12 1.60613 12C1.53992 12 1.47301 11.9813 1.41359 11.9419C1.25213 11.835 1.20755 11.6169 1.3141 11.4549L1.49548 11.1789C0.772577 10.9099 0.255945 10.2109 0.255945 9.39291V8.38024C0.108312 8.3389 3.05176e-05 8.20294 3.05176e-05 8.04157V6.88064C3.05176e-05 6.68648 0.156851 6.52908 0.350281 6.52908H0.722937V1.32853C0.722937 0.595969 1.31668 0 2.0465 0C2.61268 0 3.11602 0.361336 3.29902 0.899156L3.43358 1.29633C4.15494 1.24704 4.84055 1.70536 5.05093 2.43007L5.15499 2.78857C5.18098 2.87808 5.17048 2.97431 5.12579 3.05604C5.08109 3.13779 5.00588 3.19837 4.9167 3.22446L2.56784 3.91141C2.38824 3.9679 2.18239 3.8543 2.13359 3.67221L2.02955 3.31371C1.82192 2.59842 2.14367 1.85252 2.76244 1.49925L2.63598 1.12596C2.54998 0.873211 2.31301 0.703125 2.0465 0.703125C1.70293 0.703125 1.42344 0.983672 1.42344 1.32853V6.52908H2.12464C2.14759 6.35719 2.29388 6.22453 2.4714 6.22453H4.36648C4.544 6.22453 4.6903 6.35721 4.71324 6.52908ZM4.38448 2.64773L4.37839 2.62676C4.26741 2.2444 3.91803 1.99552 3.53987 1.99552C3.45922 1.99552 3.37726 2.00684 3.29605 2.0306C2.83388 2.16577 2.56742 2.65312 2.70209 3.11702L2.70819 3.138L4.38448 2.64773ZM2.82165 6.92766H4.01623V9.2003H2.82165V6.92766ZM11.0436 8.29844C11.0436 8.09381 11.1448 7.91245 11.2995 7.80211H11.2996V7.2322H4.71676V9.55186C4.71676 9.74602 4.55994 9.90342 4.36651 9.90342H2.47142C2.27799 9.90342 2.12117 9.74602 2.12117 9.55186V7.2322H0.700531V7.80211C0.855288 7.91245 0.956445 8.09384 0.956445 8.29844V9.39291C0.956445 10.0551 1.49314 10.5938 2.15281 10.5938H9.84725C10.5069 10.5938 11.0436 10.0551 11.0436 9.39291V8.29844Z" fill="#222222"/>
</svg>
