<svg width="16" height="13" viewBox="0 0 16 13" fill="none" xmlns="http://www.w3.org/2000/svg">
<path fill-rule="evenodd" clip-rule="evenodd" d="M14.667 0.0119629H1.33303C0.598 0.0119629 0 0.609775 0 1.34453V6.46524V8.59828V10.4919V12.2238C0 12.4732 0.20225 12.6755 0.451719 12.6755H2.63172C2.88122 12.6755 3.08344 12.4732 3.08344 12.2238V10.9436H12.9165V12.2238C12.9165 12.4732 13.1188 12.6755 13.3682 12.6755H15.5483C15.7978 12.6755 16 12.4732 16 12.2238V10.4919V8.59828V6.46524V1.34453C16 0.609775 15.402 0.0119629 14.667 0.0119629ZM2.18 11.7721H0.903437V10.9436H2.18V11.7721ZM0.903437 10.0402H2.63172H13.3682H15.0965V9.04999H13.0741C12.8247 9.04999 12.6224 8.84771 12.6224 8.59828C12.6224 8.34884 12.8246 8.14656 13.0741 8.14656H15.0965V6.46524C15.0965 6.05646 14.764 5.72396 14.3552 5.72396H13.4495H8.8885H7.11144H2.55041H1.64472C1.23594 5.72396 0.903437 6.05649 0.903437 6.46524V8.14656H9.91981C10.1693 8.14656 10.3715 8.34884 10.3715 8.59828C10.3715 8.84771 10.1693 9.04999 9.91981 9.04999H0.903437V10.0402ZM3.00216 4.82059V4.0599C3.00216 3.54353 3.42222 3.12349 3.93856 3.12349H5.72331C6.23969 3.12346 6.65972 3.54356 6.65972 4.0599V4.82059H3.00216ZM9.34025 4.0599V4.82059H12.9978V4.0599C12.9978 3.54356 12.5778 3.12346 12.0614 3.12349H10.2767C9.76031 3.12349 9.34025 3.54353 9.34025 4.0599ZM15.0966 11.7721H13.82V10.9436H15.0966V11.7721ZM14.3553 4.82053C14.6218 4.82053 14.8737 4.88421 15.0966 4.99724V1.34453C15.0966 1.10793 14.9038 0.9154 14.667 0.9154H1.33303C1.09616 0.9154 0.903437 1.1079 0.903437 1.34453V4.99724C1.12631 4.88421 1.37819 4.82053 1.64472 4.82053H2.09869V4.05984C2.09869 3.04531 2.92409 2.21996 3.93856 2.21996H5.72331C6.73784 2.21996 7.56319 3.04531 7.56319 4.05984V4.82053H8.43681V4.05984C8.43681 3.04531 9.26222 2.21996 10.2767 2.21996H12.0614C13.076 2.21996 13.9013 3.04531 13.9013 4.05984V4.82053H14.3553Z" fill="black"/>
<path d="M11.5951 8.14661H11.358C11.1085 8.14661 10.9062 8.34889 10.9062 8.59833C10.9062 8.84776 11.1085 9.05004 11.358 9.05004H11.5951C11.8446 9.05004 12.0468 8.84776 12.0468 8.59833C12.0468 8.34889 11.8446 8.14661 11.5951 8.14661Z" fill="black"/>
</svg>
