<svg width="32" height="34" viewBox="0 0 32 34" fill="none" xmlns="http://www.w3.org/2000/svg">
<path fill-rule="evenodd" clip-rule="evenodd" d="M24.8881 8.19626V0.790172H20.8058V4.44186L16.0612 0.108032L0.123047 14.3737L2.54609 17.1049L5.00338 14.886V33.3169H26.9951V15.0229L29.4129 17.2419L31.9005 14.5791L24.8881 8.19626ZM12.7492 26.4692H9.88766V19.9783H12.7492V26.4692ZM20.7742 26.6588C21.4577 26.6588 22.1109 26.0056 22.1109 25.3235V20.7368C22.1109 20.0534 21.4577 19.4015 20.7742 19.4015H18.4289L18.4592 19.1355C18.5579 18.3309 18.604 17.5105 18.604 16.698V16.3411C18.604 15.7117 18.1629 15.202 17.5255 15.202H16.9553L16.6669 16.8494L13.517 20.5551V25.9003C13.517 25.9003 14.2307 26.1966 14.473 26.2796C15.2552 26.5535 15.9308 26.6588 16.7657 26.6588H20.7742Z"/>
</svg>
