<svg width="20" height="20" viewBox="0 0 20 20" fill="none" xmlns="http://www.w3.org/2000/svg">
<path d="M6.07339 3.51106C2.73071 5.44095 1.58132 9.73053 3.51122 13.0732C5.44111 16.4159 9.73069 17.5653 13.0734 15.6354C13.2096 15.5567 13.2563 15.3824 13.1776 15.2462C13.099 15.11 12.9247 15.0633 12.7885 15.1419C9.71791 16.9148 5.7775 15.8589 4.00468 12.7883C2.23185 9.71769 3.28771 5.77731 6.35828 4.00452C9.42886 2.23172 13.3693 3.28755 15.1421 6.35813C16.2456 8.26945 16.2963 10.5814 15.2778 12.5427C15.2052 12.6824 15.2596 12.8544 15.3993 12.9269C15.5389 12.9994 15.7109 12.945 15.7834 12.8054C16.8921 10.6706 16.8368 8.15389 15.6356 6.07327C13.7057 2.73053 9.4161 1.58114 6.07339 3.51106Z" fill="#B2D235"/>
<path d="M13.75 8.21154V7.33654C13.75 7.13462 13.6154 7 13.4135 7H11.2933C11.1923 7.20192 10.9567 7.33654 10.7212 7.33654C10.4856 7.33654 10.25 7.20192 10.149 7H5.33654C5.13462 7 5 7.13462 5 7.33654V8.21154C5.40385 8.44712 5.67308 8.88462 5.67308 9.35577C5.67308 9.82692 5.40385 10.2981 5 10.5V11.375C5 11.5769 5.13462 11.7115 5.33654 11.7115H10.149C10.25 11.5096 10.4856 11.375 10.7212 11.375C10.9567 11.375 11.1923 11.5096 11.2933 11.7115H13.4135C13.6154 11.7115 13.75 11.5769 13.75 11.375V10.5C13.3462 10.2644 13.0769 9.82692 13.0769 9.35577C13.0769 8.88462 13.3462 8.41346 13.75 8.21154Z" stroke="#B2D235" stroke-width="0.5" stroke-miterlimit="10" stroke-linecap="round" stroke-linejoin="round"/>
<path d="M11.375 8.5V8.875" stroke="#B2D235" stroke-width="0.5" stroke-miterlimit="10" stroke-linecap="round" stroke-linejoin="round"/>
<path d="M11.375 10.75V10.375" stroke="#B2D235" stroke-width="0.5" stroke-miterlimit="10" stroke-linecap="round" stroke-linejoin="round"/>
<path d="M8 8.125V8.5" stroke="#B2D235" stroke-width="0.5" stroke-miterlimit="10" stroke-linecap="round" stroke-linejoin="round"/>
<path d="M8 10.75V11.125" stroke="#B2D235" stroke-width="0.5" stroke-miterlimit="10" stroke-linecap="round" stroke-linejoin="round"/>
<path d="M8.375 8.5H7.8125C7.5125 8.5 7.25 8.7625 7.25 9.0625C7.25 9.3625 7.5125 9.625 7.8125 9.625H8.1875C8.4875 9.625 8.75 9.8875 8.75 10.1875C8.75 10.4875 8.4875 10.75 8.1875 10.75H7.625" stroke="#B2D235" stroke-width="0.5" stroke-miterlimit="10" stroke-linecap="round" stroke-linejoin="round"/>
</svg>
