<svg width="33" height="33" viewBox="0 0 33 33" fill="none" xmlns="http://www.w3.org/2000/svg">
<path d="M32.6873 0.403869C32.4602 0.15429 32.1408 0.00849595 31.8035 0.000359604C31.4661 -0.00777675 31.1401 0.122453 30.9012 0.360792L29.9496 1.30772C29.7095 1.54801 29.7095 1.93743 29.9496 2.17772L30.8219 3.04848C30.9374 3.16451 31.0944 3.22974 31.2581 3.22974C31.4218 3.22974 31.5788 3.16451 31.6942 3.04848L32.6219 2.12541C33.0912 1.65695 33.135 0.893869 32.6873 0.403869Z" fill="#222222"/>
<path d="M28.0252 3.23077L14.1391 17.0923C14.0549 17.1762 13.9937 17.2803 13.9614 17.3946L13.3191 19.3077C13.2877 19.4134 13.3168 19.5279 13.3947 19.6058C13.4727 19.6838 13.5872 19.7129 13.6929 19.6815L15.6044 19.0392C15.7188 19.0069 15.8229 18.9457 15.9067 18.8615L29.7683 4.97385C30.0352 4.70409 30.0352 4.26976 29.7683 4L29.0029 3.23077C28.7327 2.96133 28.2954 2.96133 28.0252 3.23077Z" fill="#222222"/>
<path d="M27.0262 11.2046L17.65 20.5992C17.2876 20.9625 16.8422 21.2321 16.3523 21.3846L14.36 22.0516C13.3972 22.3234 12.3627 22.0537 11.6553 21.3463C10.9479 20.6389 10.6781 19.6043 10.95 18.6416L11.6169 16.6492C11.769 16.1595 12.0381 15.7141 12.4008 15.3516L21.7954 5.97386C21.9715 5.79796 22.0243 5.53328 21.9291 5.30327C21.834 5.07326 21.6097 4.92321 21.3608 4.9231H5.30769C2.92862 4.9231 1 6.85172 1 9.23079V27.6923C1 30.0714 2.92862 32 5.30769 32H23.7692C26.1483 32 28.0769 30.0714 28.0769 27.6923V11.6392C28.0768 11.3903 27.9268 11.166 27.6967 11.0709C27.4667 10.9757 27.2021 11.0285 27.0262 11.2046Z" stroke="#222222" stroke-width="1.5"/>
</svg>
