<svg width="32" height="32" viewBox="0 0 32 32" fill="none" xmlns="http://www.w3.org/2000/svg">
<path d="M16 31.5C7.453 31.5 0.5 24.547 0.5 16C0.5 7.453 7.453 0.5 16 0.5C24.547 0.5 31.5 7.453 31.5 16C31.5 24.547 24.547 31.5 16 31.5Z" fill="white"/>
<path fill-rule="evenodd" clip-rule="evenodd" d="M0 16C0 7.1635 7.1635 0 16 0C24.8365 0 32 7.1635 32 16C32 24.8365 24.8365 32 16 32C7.1635 32 0 24.8365 0 16ZM31 16C31 7.729 24.271 1 16 1C7.729 1 1 7.729 1 16C1 24.271 7.729 31 16 31C24.271 31 31 24.271 31 16Z" fill="#222222"/>
<circle cx="9.5" cy="11.5" r="1.5" fill="#B2D235"/>
<path d="M10.3173 13H7.68412C6.75548 13 6 13.647 6 14.4422V17.2704C6 17.5601 6.27399 17.7948 6.61227 17.7948C6.95056 17.7948 7.22455 17.5601 7.22455 17.2704V14.7338H7.59206V17.1253C7.59206 17.1265 7.59133 17.1278 7.59133 17.1284V22.4757C7.59133 22.7654 7.86532 23 8.2036 23C8.54189 23 8.81588 22.7654 8.81588 22.4757V18.1739H9.18339V22.4757C9.18339 22.7654 9.45738 23 9.79566 23C10.1339 23 10.4079 22.7654 10.4079 22.4757V18.1739V17.1284V14.7338H10.7754V17.2704C10.7754 17.5601 11.0494 17.7948 11.3877 17.7948C11.726 17.7948 12 17.5601 12 17.2704V14.4422C12.0015 13.647 11.246 13 10.3173 13Z" fill="#B2D235"/>
<circle cx="16.5" cy="11.5" r="1.5" fill="#222222"/>
<path d="M17.3173 13H14.6841C13.7555 13 13 13.647 13 14.4422V17.2704C13 17.5601 13.274 17.7948 13.6123 17.7948C13.9506 17.7948 14.2245 17.5601 14.2245 17.2704V14.7338H14.5921V17.1253C14.5921 17.1265 14.5913 17.1278 14.5913 17.1284V22.4757C14.5913 22.7654 14.8653 23 15.2036 23C15.5419 23 15.8159 22.7654 15.8159 22.4757V18.1739H16.1834V22.4757C16.1834 22.7654 16.4574 23 16.7957 23C17.1339 23 17.4079 22.7654 17.4079 22.4757V18.1739V17.1284V14.7338H17.7754V17.2704C17.7754 17.5601 18.0494 17.7948 18.3877 17.7948C18.726 17.7948 19 17.5601 19 17.2704V14.4422C19.0015 13.647 18.246 13 17.3173 13Z" fill="#222222"/>
<circle cx="23.5" cy="11.5" r="1.5" fill="#222222"/>
<path d="M24.3173 13H21.6841C20.7555 13 20 13.647 20 14.4422V17.2704C20 17.5601 20.274 17.7948 20.6123 17.7948C20.9506 17.7948 21.2245 17.5601 21.2245 17.2704V14.7338H21.5921V17.1253C21.5921 17.1265 21.5913 17.1278 21.5913 17.1284V22.4757C21.5913 22.7654 21.8653 23 22.2036 23C22.5419 23 22.8159 22.7654 22.8159 22.4757V18.1739H23.1834V22.4757C23.1834 22.7654 23.4574 23 23.7957 23C24.1339 23 24.4079 22.7654 24.4079 22.4757V18.1739V17.1284V14.7338H24.7754V17.2704C24.7754 17.5601 25.0494 17.7948 25.3877 17.7948C25.726 17.7948 26 17.5601 26 17.2704V14.4422C26.0015 13.647 25.246 13 24.3173 13Z" fill="#222222"/>
</svg>
