<svg width="12" height="11" viewBox="0 0 12 11" fill="none" xmlns="http://www.w3.org/2000/svg">
<path d="M10.9802 0.226873C10.7898 0.0365425 10.5196 -0.0405865 10.2575 0.0205581C10.2563 0.0208374 10.2551 0.0211167 10.2539 0.0214175L1.61548 2.13554C0.786207 2.33849 0.207031 3.0765 0.207031 3.93024V5.07031C0.207031 5.48567 0.53615 5.82562 0.947318 5.84304L4.19668 6.39613C4.26534 6.40782 4.3354 6.3855 4.38465 6.33626L8.21396 2.50692C8.34821 2.37269 8.56585 2.37269 8.70011 2.50692C8.83434 2.64118 8.83434 2.85882 8.70011 2.99307L4.8708 6.82241C4.82155 6.87165 4.79923 6.94171 4.81092 7.01037L5.36399 10.2597C5.38141 10.6709 5.72136 11 6.13672 11H7.27679C8.13053 11 8.86854 10.4208 9.07149 9.59157L11.1856 0.953131C11.1859 0.951927 11.1862 0.950724 11.1865 0.949521C11.2476 0.687369 11.1705 0.417224 10.9802 0.226873Z" fill="#919191"/>
</svg>
