<svg width="32" height="36" viewBox="0 0 32 36" fill="none" xmlns="http://www.w3.org/2000/svg">
<path d="M31.9705 18.0257C31.9705 10.7376 27.0458 4.38166 19.9852 2.56881C19.31 2.39266 18.6201 2.80367 18.4513 3.4789C18.2751 4.15413 18.6861 4.84404 19.3614 5.01285C25.299 6.53211 29.4458 11.8899 29.4458 18.0257C29.4458 23.4349 26.2237 28.2275 21.4017 30.334L22.5687 27.6184C22.8403 26.9798 22.5467 26.2385 21.9081 25.9596C21.2696 25.6881 20.5283 25.9817 20.2494 26.6202L17.9742 31.9193C17.7026 32.5578 17.9962 33.2991 18.6348 33.578L23.9338 35.8532C24.7265 36.1321 25.387 35.6697 25.5926 35.1927C25.8641 34.5541 25.5705 33.8128 24.932 33.5339L22.6274 32.5431C28.2421 30.0037 31.9705 24.367 31.9705 18.0257Z" fill="#222222"/>
<path d="M12.6541 31.0385C6.71648 29.5119 2.56969 24.1615 2.56969 18.0257C2.56969 12.6899 5.70364 7.95596 10.4156 5.8055L9.32199 8.34495C9.05043 8.98348 9.32933 9.75412 9.98254 10.0037C10.7458 10.2899 11.3917 9.94495 11.6413 9.34311L13.9165 4.03669C14.1367 3.52293 14.1293 2.75229 13.2559 2.37797L7.95685 0.102745C7.31832 -0.168815 6.57703 0.124763 6.29813 0.763295C6.02657 1.40183 6.32015 2.14311 6.95868 2.42201L9.42474 3.47889C3.78804 6.02568 0.0449219 11.6697 0.0449219 18.0257C0.0449219 25.3138 4.97703 31.6624 12.0302 33.4826C12.8816 33.7027 13.4174 33.1449 13.5642 32.5725C13.733 31.8972 13.3293 31.2147 12.6541 31.0385Z" fill="#222222"/>
<path fill-rule="evenodd" clip-rule="evenodd" d="M18.9797 22.7816C19.6256 22.1064 19.9485 21.255 19.9485 20.2422C19.9485 19.7798 19.8678 19.3541 19.7136 18.9578C19.5595 18.5615 19.3393 18.2238 19.0531 17.9303C18.7669 17.644 18.3925 17.4018 17.9375 17.1963C17.6953 17.0936 17.2109 16.9468 16.4696 16.7633V12.5505C16.9467 12.6459 17.321 12.8514 17.5999 13.1596C17.8714 13.4679 18.0549 13.9083 18.143 14.4807L19.6549 14.2532C19.5228 13.3284 19.1412 12.5945 18.5026 12.066C18.0035 11.6477 17.3283 11.3982 16.4769 11.3174V10.6202H15.6109V11.3174C14.6421 11.4128 13.9081 11.6844 13.4164 12.1174C12.6751 12.7633 12.3081 13.6073 12.3081 14.6495C12.3081 15.2367 12.4329 15.7578 12.6898 16.2202C12.9393 16.6826 13.299 17.0422 13.7687 17.2991C14.3999 17.6514 15.0164 17.8862 15.6182 17.9963V22.6569C15.0457 22.5982 14.5467 22.3046 14.1357 21.7835C13.8494 21.4165 13.6439 20.8367 13.5338 20.0514L12.0586 20.3303C12.11 21.0862 12.3081 21.7321 12.6384 22.2605C12.9687 22.789 13.365 23.1706 13.8274 23.4055C14.2824 23.6404 14.8843 23.8018 15.6109 23.8972V25.3578H16.4769V23.8752C17.5045 23.8238 18.3412 23.4569 18.9797 22.7816ZM15.6182 16.5798C14.9503 16.3816 14.4806 16.1101 14.2017 15.7725C13.9228 15.4349 13.7834 15.0165 13.7834 14.5174C13.7834 14.011 13.9448 13.578 14.2751 13.211C14.6054 12.844 15.0531 12.6165 15.6182 12.5284V16.5798ZM16.4769 22.6495C17.0421 22.5761 17.5118 22.3339 17.8861 21.9083C18.2604 21.4899 18.4439 20.9615 18.4513 20.3449C18.4513 19.8092 18.3191 19.3835 18.0549 19.0605C17.7907 18.7376 17.2623 18.4514 16.4769 18.1945V22.6495Z" fill="#222222"/>
</svg>
