<svg width="25" height="24" viewBox="0 0 25 24" fill="none" xmlns="http://www.w3.org/2000/svg">
<circle cx="12.6289" cy="12" r="11.25" stroke="#B2D235" stroke-width="1.5"/>
<path fill-rule="evenodd" clip-rule="evenodd" d="M16.0078 8C15.6628 8 15.3503 8.14 15.1241 8.36625L13.8741 9.61625L11.0078 12.4825L9.39156 10.8663C9.16531 10.64 8.85281 10.5 8.50781 10.5C7.81781 10.5 7.25781 11.06 7.25781 11.75C7.25781 12.095 7.39781 12.4075 7.62406 12.6337L10.1241 15.1337C10.3503 15.36 10.6628 15.5 11.0078 15.5C11.3528 15.5 11.6653 15.36 11.8916 15.1337L15.6416 11.3837L16.8916 10.1337C17.1178 9.9075 17.2578 9.595 17.2578 9.25C17.2578 8.55937 16.6978 8 16.0078 8Z" fill="#B2D235"/>
</svg>
