<svg width="25" height="24" viewBox="0 0 25 24" fill="none" xmlns="http://www.w3.org/2000/svg">
<path fill-rule="evenodd" clip-rule="evenodd" d="M0.628906 12C0.628906 5.38314 6.01205 0 12.6289 0C19.2458 0 24.6289 5.38314 24.6289 12C24.6289 18.6169 19.2458 24 12.6289 24C6.01205 24 0.628906 18.6169 0.628906 12ZM2.34319 12C2.34319 17.6715 6.95738 22.2857 12.6289 22.2857C18.3004 22.2857 22.9146 17.6715 22.9146 12C22.9146 6.32848 18.3004 1.71429 12.6289 1.71429C6.95738 1.71429 2.34319 6.32848 2.34319 12Z" fill="#FE5D26"/>
<path d="M16.307 8.3227C15.9722 7.98794 15.4296 7.98794 15.0948 8.3227L12.6297 10.7878L10.1644 8.3226C9.82967 7.98784 9.28701 7.98784 8.95224 8.3226C8.61748 8.65737 8.61748 9.20003 8.95224 9.5348L11.4175 12L8.95224 14.4653C8.61748 14.8 8.61748 15.3427 8.95224 15.6775C9.11958 15.8448 9.33901 15.9285 9.55834 15.9285C9.77767 15.9285 9.99701 15.8448 10.1644 15.6775L12.6297 13.2122L15.0949 15.6775C15.2622 15.8448 15.4817 15.9285 15.701 15.9285C15.9203 15.9285 16.1397 15.8448 16.3071 15.6775C16.6419 15.3427 16.6419 14.8 16.3071 14.4653L13.8419 12L16.3071 9.5348C16.6418 9.20013 16.6418 8.65737 16.307 8.3227Z" fill="#FE5D26"/>
</svg>
