<svg width="24" height="24" viewBox="0 0 24 24" fill="none" xmlns="http://www.w3.org/2000/svg">
<circle opacity="0.504162" cx="12" cy="12" r="11.25" stroke="#222222" stroke-width="1.5"/>
<g opacity="0.496791">
<path fill-rule="evenodd" clip-rule="evenodd" d="M17.7812 7.625H17.1719L16.075 6.1625C15.9983 6.0602 15.8779 6 15.75 6C15.6221 6 15.5017 6.0602 15.425 6.1625L14.3281 7.625H9.65625C8.98315 7.625 8.4375 8.17065 8.4375 8.84375V9.25H7.21875C6.54565 9.25 6 9.79565 6 10.4688V16.1562C6 16.8293 6.54565 17.375 7.21875 17.375H7.82812L8.925 18.8375C9.00172 18.9398 9.12213 19 9.25 19C9.37787 19 9.49828 18.9398 9.575 18.8375L10.6719 17.375H15.3438C16.0168 17.375 16.5625 16.8293 16.5625 16.1562V15.75H17.7812C18.4543 15.75 19 15.2043 19 14.5312V8.84375C19 8.17065 18.4543 7.625 17.7812 7.625ZM15.75 16.1562C15.75 16.3806 15.5681 16.5625 15.3438 16.5625H10.6719C10.4161 16.5625 10.1753 16.6829 10.0219 16.8875L9.25 17.9153L8.47813 16.8875C8.32468 16.6829 8.08387 16.5625 7.82812 16.5625H7.21875C6.99438 16.5625 6.8125 16.3806 6.8125 16.1562V10.4688C6.8125 10.2444 6.99438 10.0625 7.21875 10.0625H15.3438C15.5681 10.0625 15.75 10.2444 15.75 10.4688V16.1562ZM17.7812 14.9375C18.0056 14.9375 18.1875 14.7556 18.1875 14.5312V8.84375C18.1875 8.61938 18.0056 8.4375 17.7812 8.4375H17.1719C16.9161 8.4375 16.6753 8.31709 16.5219 8.1125L15.75 7.08469L14.9781 8.1125C14.8247 8.31709 14.5839 8.4375 14.3281 8.4375H9.65625C9.43188 8.4375 9.25 8.61938 9.25 8.84375V9.25H15.3438C16.0168 9.25 16.5625 9.79565 16.5625 10.4688V14.9375H17.7812Z" fill="#222222"/>
<path d="M11.2812 12.0938H12.0938C12.3181 12.0938 12.5 11.9119 12.5 11.6875C12.5 11.4631 12.3181 11.2812 12.0938 11.2812H11.6875C11.6875 11.0569 11.5056 10.875 11.2812 10.875C11.0569 10.875 10.875 11.0569 10.875 11.2812V11.3544C10.3205 11.5556 9.98966 12.125 10.0896 12.7064C10.1894 13.2878 10.6914 13.7142 11.2812 13.7188C11.5056 13.7188 11.6875 13.9006 11.6875 14.125C11.6875 14.3494 11.5056 14.5312 11.2812 14.5312H10.4688C10.2444 14.5312 10.0625 14.7131 10.0625 14.9375C10.0625 15.1619 10.2444 15.3438 10.4688 15.3438H10.875C10.875 15.5681 11.0569 15.75 11.2812 15.75C11.5056 15.75 11.6875 15.5681 11.6875 15.3438V15.2706C12.242 15.0694 12.5728 14.5 12.4729 13.9186C12.3731 13.3372 11.8711 12.9108 11.2812 12.9062C11.0569 12.9062 10.875 12.7244 10.875 12.5C10.875 12.2756 11.0569 12.0938 11.2812 12.0938Z" fill="#222222"/>
</g>
</svg>
