<svg width="16" height="16" viewBox="0 0 16 16" fill="none" xmlns="http://www.w3.org/2000/svg">
<path d="M14.5371 1.46251C13.942 0.867377 12.9772 0.867377 12.3821 1.46251L7.99963 5.84499L3.61698 1.46234C3.02185 0.867208 2.05711 0.867208 1.46197 1.46234C0.866842 2.05747 0.866842 3.02221 1.46197 3.61735L5.84462 7.99999L1.46197 12.3826C0.866842 12.9778 0.866842 13.9425 1.46197 14.5376C1.75946 14.8351 2.14955 14.9839 2.53948 14.9839C2.9294 14.9839 3.31933 14.8351 3.61698 14.5376L7.99963 10.155L12.3823 14.5376C12.6798 14.8351 13.0698 14.9839 13.4598 14.9839C13.8497 14.9839 14.2396 14.8351 14.5373 14.5376C15.1324 13.9425 15.1324 12.9778 14.5373 12.3826L10.1546 7.99999L14.5373 3.61735C15.1322 3.02238 15.1322 2.05747 14.5371 1.46251Z" fill="#222222"/>
</svg>
