<svg width="18" height="18" viewBox="0 0 18 18" fill="none" xmlns="http://www.w3.org/2000/svg">
<mask id="mask0_0_14527" style="mask-type:alpha" maskUnits="userSpaceOnUse" x="0" y="0" width="18" height="18">
<path fill-rule="evenodd" clip-rule="evenodd" d="M0 0.267334H17.5451V17.8125H0V0.267334Z" fill="white"/>
</mask>
<g mask="url(#mask0_0_14527)">
<path fill-rule="evenodd" clip-rule="evenodd" d="M10.1296 17.8125L8.77281 17.3644L7.4267 17.8125H4.44113C1.98827 17.8125 0 15.8242 0 13.3713V4.70798C0 2.2556 1.98827 0.267334 4.44113 0.267334C4.44113 0.267334 10.6521 0.267334 13.1045 0.267334C15.5569 0.267334 17.5451 2.2556 17.5451 4.70798V13.3713C17.5451 15.8242 15.5569 17.8125 13.1045 17.8125H10.1296Z" fill="#ffffff"/>
</g>
<path fill-rule="evenodd" clip-rule="evenodd" d="M7.41864 7.13063V9.0396H5.21826V11.545H7.41864V17.8124H10.1264V11.545H12.1458L12.5302 9.0396H10.1264V7.41425C10.1264 6.72879 10.4626 6.06084 11.5387 6.06084H12.6318V3.92857C12.6318 3.92857 11.6399 3.75928 10.6917 3.75928C8.71221 3.75928 7.41864 4.95847 7.41864 7.13063Z" fill="#006AFF"/>
</svg>
