<?xml version="1.0" encoding="iso-8859-1"?>
<!-- Generator: Adobe Illustrator 19.0.0, SVG Export Plug-In . SVG Version: 6.00 Build 0)  -->
<svg version="1.1" id="Layer_1" xmlns="http://www.w3.org/2000/svg" xmlns:xlink="http://www.w3.org/1999/xlink" width="16" height="16" x="0px" y="0px"
	 viewBox="0 0 512 512" style="enable-background:new 0 0 512 512;" xml:space="preserve">
<g>
	<g>
		<circle cx="64" cy="140.8" r="64"/>
	</g>
</g>
<g>
	<g>
		<circle cx="448" cy="371.2" r="64"/>
	</g>
</g>
<g>
	<g>
		<path d="M448,76.8H143.852c14.092,17.545,22.549,39.798,22.549,64s-8.457,46.455-22.549,64H448c35.346,0,64-28.654,64-64
			C512,105.454,483.346,76.8,448,76.8z"/>
	</g>
</g>
<g>
	<g>
		<path d="M368.148,307.2H64c-35.346,0-64,28.654-64,64c0,35.346,28.654,64,64,64h304.148c-14.092-17.545-22.549-39.798-22.549-64
			C345.6,346.998,354.057,324.745,368.148,307.2z"/>
	</g>
</g>
<g>
</g>
<g>
</g>
<g>
</g>
<g>
</g>
<g>
</g>
<g>
</g>
<g>
</g>
<g>
</g>
<g>
</g>
<g>
</g>
<g>
</g>
<g>
</g>
<g>
</g>
<g>
</g>
<g>
</g>
</svg>
