<svg width="14" height="13" viewBox="0 0 14 13" fill="none" xmlns="http://www.w3.org/2000/svg">
<path d="M9 3.75C9.41421 3.75 9.75 3.41421 9.75 3C9.75 2.58579 9.41421 2.25 9 2.25V3.75ZM1 2.25C0.585786 2.25 0.25 2.58579 0.25 3C0.25 3.41421 0.585786 3.75 1 3.75V2.25ZM4 9.25C3.58579 9.25 3.25 9.58579 3.25 10C3.25 10.4142 3.58579 10.75 4 10.75V9.25ZM12 10.75C12.4142 10.75 12.75 10.4142 12.75 10C12.75 9.58579 12.4142 9.25 12 9.25V10.75ZM8.25 3C8.25 4.51881 9.48119 5.75 11 5.75V4.25C10.3096 4.25 9.75 3.69039 9.75 3H8.25ZM11 5.75C12.5188 5.75 13.75 4.51881 13.75 3H12.25C12.25 3.69039 11.6904 4.25 11 4.25V5.75ZM13.75 3C13.75 1.48119 12.5188 0.25 11 0.25V1.75C11.6904 1.75 12.25 2.30961 12.25 3H13.75ZM11 0.25C9.48119 0.25 8.25 1.48119 8.25 3H9.75C9.75 2.30961 10.3096 1.75 11 1.75V0.25ZM9 2.25H1V3.75H9V2.25ZM4.75 10C4.75 8.48118 3.51878 7.25 2 7.25V8.75C2.69036 8.75 3.25 9.30962 3.25 10H4.75ZM2 7.25C0.481224 7.25 -0.75 8.48118 -0.75 10H0.75C0.75 9.30962 1.30964 8.75 2 8.75V7.25ZM-0.75 10C-0.75 11.5188 0.481224 12.75 2 12.75V11.25C1.30964 11.25 0.75 10.6904 0.75 10H-0.75ZM2 12.75C3.51878 12.75 4.75 11.5188 4.75 10H3.25C3.25 10.6904 2.69036 11.25 2 11.25V12.75ZM4 10.75H12V9.25H4V10.75Z" fill="#001A72"/>
</svg>
