<svg width="16" height="13" viewBox="0 0 16 13" fill="none" xmlns="http://www.w3.org/2000/svg">
<path fill-rule="evenodd" clip-rule="evenodd" d="M15.5696 11.5958H15.1704V3.87679L15.4147 3.97978C15.465 4.0008 15.5177 4.01091 15.5696 4.01091C15.725 4.01091 15.8733 3.91937 15.9377 3.76657C16.0231 3.5635 15.9278 3.32955 15.7245 3.24387L8.13932 0.0501124C8.04033 0.00884925 7.9288 0.00884925 7.8298 0.0501124L0.244616 3.24387C0.0410136 3.32958 -0.0539883 3.56353 0.0314386 3.76657C0.117146 3.97046 0.352686 4.06412 0.554136 3.97975L0.798472 3.87676V11.5958H0.39922C0.178589 11.5958 0 11.7744 0 11.995C0 12.2157 0.178589 12.3943 0.39922 12.3943H15.5696C15.7902 12.3943 15.9688 12.2157 15.9688 11.995C15.9688 11.7744 15.7902 11.5958 15.5696 11.5958ZM12.775 9.99896V11.5958H3.19376V9.99896H12.775ZM3.19376 7.60392V9.2008H12.775V7.60392H3.19376ZM12.775 5.2086V6.80548H3.19376V5.2086H12.775ZM13.5735 11.5958H14.3719V3.54039L7.98441 0.850986L1.59688 3.54064V11.5961H2.39532V5.2086C2.39532 4.76759 2.75275 4.41016 3.19376 4.41016H12.775C13.2161 4.41016 13.5735 4.76759 13.5735 5.20832V11.5958Z" fill="black"/>
</svg>
