<svg width="18" height="18" viewBox="0 0 18 18" fill="none" xmlns="http://www.w3.org/2000/svg">
<path d="M3.94959 7.3234C4.64903 5.20397 6.64078 3.68182 8.99994 3.68182C10.2681 3.68182 11.4136 4.13182 12.3136 4.86818L14.9318 2.25C13.3363 0.859091 11.2908 0 8.99994 0C5.45249 0 2.39825 2.02372 0.929932 4.98752L3.94959 7.3234Z" fill="#EA4335"/>
<path d="M12.0304 13.5095C11.2131 14.0372 10.1744 14.3182 8.99988 14.3182C6.64975 14.3182 4.66422 12.8077 3.95762 10.7009L0.927979 13.0013C2.39447 15.9702 5.44863 18 8.99988 18C11.1995 18 13.3014 17.2181 14.8755 15.7497L12.0304 13.5095Z" fill="#34A853"/>
<path d="M14.8756 15.7496C16.5219 14.214 17.5909 11.9276 17.5909 8.99989C17.5909 8.46807 17.5091 7.89534 17.3864 7.36353H9V10.8408H13.8273C13.5891 12.0101 12.9497 12.9158 12.0305 13.5093L14.8756 15.7496Z" fill="#4A90E2"/>
<path d="M3.95774 10.7009C3.77874 10.1673 3.68182 9.59535 3.68182 9.00003C3.68182 8.41374 3.77583 7.85014 3.94965 7.32343L0.929993 4.98755C0.32744 6.19535 0 7.55657 0 9.00003C0 10.4397 0.333586 11.7977 0.928097 13.0013L3.95774 10.7009Z" fill="#FBBC05"/>
</svg>
