<svg width="16" height="17" viewBox="0 0 16 17" fill="none" xmlns="http://www.w3.org/2000/svg">
<circle cx="10.5867" cy="15.8865" r="0.586667" fill="#D8D8D8"/>
<circle cx="13.4665" cy="15.8865" r="0.586667" fill="#D8D8D8"/>
<path d="M4.87989 6.92667C4.47989 6.28667 4.23989 5.54 4.23989 4.71333C4.23989 3.32667 4.82656 2.15333 5.75989 1.46C5.41322 0.873333 4.82656 0.5 3.99989 0.5C2.63989 0.5 1.89322 1.59333 1.89322 2.84667C1.89322 3.54 2.13322 4.1 2.58656 4.52667C2.85322 4.76667 3.06656 5.06 3.06656 5.40667C3.06656 5.72667 2.95989 6.02 2.18656 6.34C1.09322 6.84667 0.0798893 7.46 0.0532227 8.5C0.0532227 9.19333 0.506556 9.67333 1.14656 9.67333H2.15989C2.31989 9.67333 2.47989 9.56667 2.55989 9.43333C3.06656 8.55333 3.97322 7.96667 4.74656 7.59333C4.93322 7.46 5.03989 7.14 4.87989 6.92667Z" fill="#D8D8D8"/>
<path d="M10.5066 13.1401H14.0533C14.16 13.1401 14.2666 13.0601 14.2666 12.9534L14.9066 10.6601C14.96 10.5001 14.8266 10.3668 14.6933 10.3668H10.9333H9.22662L9.14662 10.0201C9.09329 9.86008 8.95996 9.75342 8.79996 9.75342H8.21329C8.02662 9.75342 7.83996 9.91342 7.83996 10.1001C7.81329 10.3134 7.99996 10.4734 8.18662 10.4734H8.53329L8.85329 11.5401L9.65329 14.2868C9.70662 14.4468 9.83996 14.5534 9.99996 14.5534H14.16C14.3466 14.5534 14.5333 14.3934 14.5333 14.2068C14.56 13.9934 14.3733 13.8334 14.1866 13.8334H10.5066C10.3466 13.8334 10.2133 13.7268 10.16 13.5934V13.5668C10.1066 13.3534 10.2666 13.1401 10.5066 13.1401Z" fill="#D8D8D8"/>
<path d="M7.84002 11.8598L7.73335 11.4598C7.49335 11.3798 7.30669 11.2465 7.14669 11.0598C6.90669 10.7665 6.77335 10.4198 6.80002 10.0465C6.82669 9.2998 7.49335 8.71313 8.24002 8.71313H8.80002C9.28002 8.71313 9.70669 8.95313 9.97335 9.32646H10.9334H11.4934C11.0667 9.03313 10.56 8.79313 10.0534 8.5798C9.20002 8.23313 9.09335 7.88647 9.09335 7.5398C9.09335 7.19313 9.33335 6.84647 9.60002 6.5798C10.1067 6.12646 10.3734 5.48646 10.3734 4.71313C10.3734 3.32646 9.52002 2.12646 8.02669 2.12646C6.53335 2.12646 5.68002 3.32646 5.68002 4.71313C5.68002 5.4598 5.97335 6.0998 6.45335 6.5798C6.74669 6.84647 6.96002 7.19313 6.96002 7.5398C6.96002 7.88647 6.82669 8.23313 6.00002 8.5798C4.72002 9.08646 3.54669 9.6998 3.52002 10.8465C3.52002 11.5931 4.05335 12.2598 4.77335 12.2598H7.92002L7.84002 11.8598Z" fill="#D8D8D8"/>
<path d="M11.7599 4.71333C11.7599 5.54 11.5466 6.28667 11.1199 6.92667C10.9599 7.16667 11.0399 7.46 11.3066 7.62C12.0533 7.96667 12.9066 8.5 13.4133 9.32667H14.6933C14.9599 9.32667 15.1999 9.40667 15.4133 9.56667C15.7599 9.38 15.9733 9.00667 15.9733 8.52667C15.9466 7.48667 14.9333 6.84667 13.8399 6.34C13.0666 6.02 12.9599 5.7 12.9599 5.40667C12.9599 5.08667 13.1733 4.76667 13.4399 4.52667C13.8933 4.1 14.1333 3.54 14.1333 2.84667C14.1333 1.56667 13.3866 0.5 12.0266 0.5C11.1999 0.5 10.6133 0.873333 10.2666 1.46C11.1733 2.15333 11.7599 3.3 11.7599 4.71333Z" fill="#D8D8D8"/>
</svg>
