<svg width="16" height="16" viewBox="0 0 16 16" fill="none" xmlns="http://www.w3.org/2000/svg">
<path d="M15.6652 6.54896L10.0652 2.54896C9.926 2.4495 9.76306 2.3999 9.60013 2.3999C9.43719 2.3999 9.27425 2.4495 9.13506 2.54896L5.64253 5.04362C5.87372 5.18734 6.06547 5.3879 6.19881 5.6295L9.60013 3.1999L15.2001 7.1999H13.6001V14.3999H5.66894L5.60547 15.1999H13.6001C14.042 15.1999 14.4001 14.8418 14.4001 14.3999V7.9999H15.2001C15.5479 7.9999 15.8558 7.77537 15.9617 7.44418C16.0681 7.11297 15.9481 6.75109 15.6652 6.54896Z" fill="#222222"/>
<path fill-rule="evenodd" clip-rule="evenodd" d="M5.58678 6.25691L6.38678 10.6569C6.42919 10.8905 6.36597 11.1305 6.21397 11.3126C6.06197 11.4948 5.83719 11.6001 5.59985 11.6001H5.08866L4.79744 15.2636C4.76438 15.6793 4.41719 16.0001 3.99985 16.0001H2.39985C1.9825 16.0001 1.63556 15.6793 1.6025 15.2635L1.31103 11.6001H0.799846C0.562784 11.6001 0.337721 11.495 0.185721 11.3129C0.0337211 11.1308 -0.0294977 10.8905 0.0129086 10.6572L0.812909 6.25716C0.881971 5.87663 1.21319 5.6001 1.59985 5.6001H4.79985C5.1865 5.6001 5.51772 5.87663 5.58678 6.25691ZM3.99985 15.2001L4.34972 10.8001H5.59985L4.79985 6.4001H3.59985V8.83369C3.59985 9.05475 3.42091 9.23369 3.19985 9.23369C2.97878 9.23369 2.79985 9.05475 2.79985 8.83369V6.4001H1.59985L0.799846 10.8001H2.04997L2.39985 15.2001H3.99985Z" fill="#222222"/>
<path fill-rule="evenodd" clip-rule="evenodd" d="M0.799805 2.4C0.799805 1.07681 1.87662 0 3.1998 0C4.52327 0 5.5998 1.07653 5.5998 2.4C5.5998 3.72347 4.52327 4.8 3.1998 4.8C1.87662 4.8 0.799805 3.72319 0.799805 2.4ZM1.5998 2.4C1.5998 3.28372 2.31609 4 3.1998 4C4.08352 4 4.7998 3.28372 4.7998 2.4C4.7998 1.51628 4.08352 0.8 3.1998 0.8C2.31609 0.8 1.5998 1.51628 1.5998 2.4Z" fill="#222222"/>
</svg>
