<svg width="16" height="16" viewBox="0 0 16 16" fill="none" xmlns="http://www.w3.org/2000/svg">
<path fill-rule="evenodd" clip-rule="evenodd" d="M7.63721 3.97258C7.63721 2.86911 8.53374 1.9707 9.63561 1.9707C10.7375 1.9707 11.6343 2.86911 11.6343 3.97258C11.6343 5.07633 10.7375 5.97445 9.63561 5.97445C8.53374 5.97445 7.63721 5.0763 7.63721 3.97258ZM8.41533 3.97286C8.41533 4.64723 8.9628 5.19552 9.63561 5.19552C10.3084 5.19552 10.8559 4.64723 10.8559 3.97286C10.8559 3.29848 10.3084 2.7502 9.63561 2.7502C8.9628 2.7502 8.41533 3.29845 8.41533 3.97286Z" fill="#222222"/>
<path fill-rule="evenodd" clip-rule="evenodd" d="M9.63547 0C10.6947 0 11.6909 0.413062 12.4405 1.16347C13.9864 2.71253 13.9864 5.23228 12.4406 6.78162C12.4064 6.81522 9.74775 9.47334 9.74775 9.47334L9.63547 9.58534L9.52319 9.47334C9.52319 9.47334 6.86507 6.81522 6.83172 6.78241C5.28479 5.23253 5.28479 2.71253 6.83066 1.16347C7.58054 0.413062 8.57629 0 9.63547 0ZM11.8712 6.24935C11.8816 6.23894 11.8878 6.23276 11.8893 6.23119C13.1333 4.98534 13.1333 2.96 11.8901 1.71494C11.2885 1.11147 10.4877 0.779469 9.63547 0.779469C8.78322 0.779469 7.98269 1.11147 7.38135 1.71494C6.13813 2.96 6.13813 4.98506 7.38163 6.23038C7.39469 6.24453 7.70029 6.55013 8.10135 6.95066L9.63575 8.48584L10.9576 7.16291C11.4048 6.71646 11.7846 6.33613 11.8712 6.24935Z" fill="#222222"/>
<path fill-rule="evenodd" clip-rule="evenodd" d="M14.4 4.0002V3.2002H16V16.0002H0V3.2002H4.8V4.0002H0.8V5.70048L14.1187 15.2002H15.2V15.0277L10.4133 11.6135L13.2 7.70607L15.2 9.13248V4.0002H14.4ZM1.90319 12.3831L0.8 11.5959V13.9293L1.90319 12.3831ZM3.82428 15.2002L4.50856 14.2413L5.85281 15.2002H3.82428ZM4.32106 13.1255L7.23013 15.2002H8.60853L0.8 9.6306V10.6135L3.01894 12.1962L0.876531 15.2002H2.84159L4.32106 13.1255ZM9.98588 15.2002L0.8 8.6482V6.68285L12.7411 15.2002H9.98588ZM11.5288 11.4269L15.2 14.0455V10.1144L13.3875 8.82182L11.5288 11.4269Z" fill="#222222"/>
</svg>
