<svg width="16" height="16" viewBox="0 0 16 16" fill="none" xmlns="http://www.w3.org/2000/svg">
<path fill-rule="evenodd" clip-rule="evenodd" d="M14.7159 1.28419C13.0036 -0.428121 10.2177 -0.427996 8.5055 1.28416C7.81259 1.977 7.38 2.86063 7.25625 3.81654H5.97312L0 9.78966L6.21037 16L12.1835 10.0269V8.74113C13.1102 8.62022 14.0055 8.20488 14.7159 7.49447C16.428 5.78232 16.428 2.99638 14.7159 1.28419ZM11.0379 7.58232C10.5509 7.49563 10.0801 7.29779 9.66678 6.98819C9.61712 6.61438 9.29794 6.32579 8.91053 6.32579C8.48872 6.32579 8.14681 6.66769 8.14681 7.0895C8.14681 7.51132 8.48872 7.85322 8.91053 7.85322L8.91125 7.85319C9.54319 8.34641 10.28 8.64232 11.0379 8.74116V9.55238L6.21034 14.3799L1.62009 9.78966L6.44766 4.9621H11.038V7.58232H11.0379ZM12.1835 7.58232C12.8148 7.46997 13.4191 7.17122 13.9058 6.68444C15.1713 5.41888 15.1713 3.35972 13.9058 2.09419C12.6402 0.82866 10.5811 0.82866 9.31553 2.09419C8.83978 2.56994 8.53081 3.1676 8.41584 3.81653H12.1835V7.58232Z" fill="#222222"/>
</svg>
