<?xml version="1.0" encoding="UTF-8"?>
<svg width="40px" height="56px" viewBox="0 0 40 56" version="1.1" xmlns="http://www.w3.org/2000/svg" xmlns:xlink="http://www.w3.org/1999/xlink">
    <title>Group 143</title>
    <g id="Page-1" stroke="none" stroke-width="1" fill="none" fill-rule="evenodd">
        <g id="Search-for-a-real-estate-" transform="translate(-708.000000, -565.000000)" fill="#FF4100">
            <g id="Group" transform="translate(544.000000, 80.000000)">
                <g id="Group-151" transform="translate(-3.000000, -172.000000)">
                    <g id="Group-143" transform="translate(167.000000, 657.000000)">
                        <path d="M20.1164429,30.8452008 C14.6727611,30.8452008 10.2578066,26.2613917 10.2578066,20.6095105 C10.2578066,14.9576293 14.6727611,10.3738202 20.1164429,10.3738202 C25.5601247,10.3738202 29.9750793,14.9576293 29.9750793,20.6095105 C29.9750793,26.2613917 25.5601247,30.8452008 20.1164429,30.8452008 M20.1164429,0.014510403 C9.16240253,0.014510403 0.280104545,9.23652125 0.280104545,20.6095105 C0.280104545,37.4909824 20.1164429,55.8113846 20.1164429,55.8113846 C20.1164429,55.8113846 39.9527813,37.4909824 39.9527813,20.6095105 C39.9527813,9.23652125 31.0704833,0.014510403 20.1164429,0.014510403" id="Fill-139"></path>
                    </g>
                </g>
            </g>
        </g>
    </g>
</svg>
