<svg width="32" height="32" viewBox="0 0 32 32" fill="none" xmlns="http://www.w3.org/2000/svg">
<g>
<path fill-rule="evenodd" clip-rule="evenodd" d="M15.0761 13.4204C14.9802 13.4936 14.8856 13.5683 14.7929 13.6453L14.7742 13.6611C14.579 13.824 14.3909 13.9952 14.2107 14.1743L14.2033 14.1816C14.1158 14.2687 14.0304 14.3581 13.9466 14.4489C13.9432 14.4526 13.9399 14.4561 13.9365 14.4597C13.9331 14.4633 13.9297 14.467 13.9264 14.4706C13.8455 14.559 13.7666 14.649 13.6894 14.7407L13.6635 14.7712C13.5878 14.8618 13.5141 14.954 13.4421 15.0476L13.4155 15.0823C13.3442 15.176 13.2747 15.2711 13.2072 15.3677L13.1827 15.4029C13.115 15.5007 13.049 15.6 12.9852 15.7008L12.9666 15.7306C12.9017 15.8341 12.8386 15.9388 12.7779 16.0451L12.7673 16.0641C12.6399 16.2888 12.5219 16.5195 12.4144 16.756L12.4131 16.7587C12.3606 16.8742 12.311 16.9912 12.2635 17.1094L12.2538 17.1328C12.2083 17.2469 12.1654 17.3623 12.1246 17.4787L12.112 17.5146C12.0725 17.6289 12.0356 17.7443 12.0008 17.8608L11.9882 17.9031C11.9542 18.0189 11.9226 18.1359 11.8932 18.2537L11.8829 18.2969C11.8541 18.4156 11.8274 18.5353 11.8035 18.6559C11.802 18.6637 11.8005 18.6714 11.799 18.6791C11.7981 18.6843 11.7971 18.6895 11.7961 18.6946C11.7723 18.8177 11.7507 18.9416 11.7321 19.0665C11.7307 19.0754 11.7296 19.0844 11.7283 19.0935C11.7095 19.2229 11.693 19.3531 11.6799 19.4844C11.6794 19.4896 11.6789 19.4948 11.6785 19.5C11.6781 19.5053 11.6776 19.5105 11.6771 19.5158C11.6642 19.6503 11.6538 19.7855 11.647 19.9218L11.6466 19.9323C11.6432 20.0018 11.6405 20.0715 11.6388 20.1414C11.6369 20.2153 11.636 20.2894 11.636 20.3638C11.636 20.444 11.6371 20.5239 11.6394 20.6036L11.6397 20.6114C11.6419 20.6922 11.6454 20.7728 11.6498 20.8531L11.6503 20.8614C11.6548 20.9398 11.6603 21.0177 11.6667 21.0955L11.6671 21.0996C11.6736 21.1773 11.6812 21.2549 11.6897 21.3322L11.6899 21.3345C11.8045 22.3692 12.0999 23.3492 12.5438 24.2424H9.38996H1.45455C0.651249 24.2424 0 23.5912 0 22.7879V7.27285C0 6.46955 0.651249 5.8183 1.45455 5.8183H5.81818V1.45467C5.81818 0.651371 6.46943 0.00012207 7.27273 0.00012207H18.9091C19.7124 0.00012207 20.3636 0.651371 20.3636 1.45467V5.8183H24.7273C25.5306 5.8183 26.1818 6.46955 26.1818 7.27285V10.2846V13.8596C25.972 13.6718 25.753 13.494 25.5257 13.327L25.5253 13.3267C25.4119 13.2433 25.2962 13.1625 25.1786 13.0845L25.178 13.0841C25.0604 13.0063 24.9408 12.9311 24.8193 12.8588L24.8186 12.8584C24.6971 12.7861 24.5737 12.7166 24.4483 12.6501L24.4481 12.65C23.4464 12.1183 22.3287 11.7763 21.1428 11.6713L21.1026 11.6677C20.8589 11.6472 20.6123 11.6362 20.3632 11.6362C20.229 11.6362 20.0957 11.6397 19.9631 11.6457L19.9324 11.6469C19.8059 11.6531 19.6801 11.6623 19.555 11.6738C19.5482 11.6745 19.5414 11.675 19.5346 11.6756C19.5257 11.6764 19.5169 11.6771 19.508 11.678C19.3864 11.6898 19.2655 11.7045 19.1453 11.7212L19.0909 11.7289C18.9724 11.7463 18.8547 11.7659 18.7377 11.788C18.7191 11.7915 18.7003 11.7951 18.6817 11.7988C18.5651 11.8216 18.4494 11.8465 18.3344 11.8739L18.2816 11.8868C18.1656 11.9152 18.0504 11.9456 17.9363 11.9786L17.8927 11.9916C17.7756 12.0261 17.6595 12.0626 17.5445 12.1017L17.5171 12.1114C17.3969 12.1528 17.2779 12.1964 17.1602 12.2428L17.1595 12.2431C17.0405 12.2901 16.923 12.3399 16.8066 12.3919C16.8 12.3948 16.7932 12.3976 16.7866 12.4006C16.6751 12.4508 16.5649 12.5036 16.456 12.5583C16.4445 12.5641 16.4329 12.5697 16.4214 12.5755C16.3157 12.6292 16.2114 12.6851 16.1082 12.7428L16.0666 12.7661C15.9651 12.8236 15.8649 12.8832 15.7659 12.9446L15.7236 12.9711C15.6249 13.033 15.5277 13.0969 15.4318 13.1628L15.3931 13.1896C15.2964 13.2568 15.2011 13.3256 15.1072 13.3965L15.0761 13.4204ZM8.72727 2.90921V5.8183H17.4545V2.90921H8.72727Z"/>
<path d="M31.5736 29.5168L29.5552 27.4984L27.4767 25.4202C26.9107 26.2151 26.2148 26.9111 25.4199 27.4772L27.4982 29.5554L29.5166 31.5739C29.8006 31.8579 30.1729 31.9999 30.5452 31.9999C30.9174 31.9999 31.2897 31.858 31.5736 31.574C32.1418 31.0058 32.1418 30.0849 31.5736 29.5168Z"/>
<path d="M20.3633 14.5454C20.2705 14.5454 20.1784 14.5481 20.0865 14.5524C20.0176 14.5558 19.949 14.561 19.8808 14.5668C19.8623 14.5684 19.8435 14.5694 19.825 14.571C17.5848 14.7767 15.714 16.2523 14.9353 18.2716C14.9341 18.2748 14.9328 18.278 14.9314 18.2813C14.9038 18.3534 14.8774 18.4261 14.8526 18.4995C14.8506 18.5056 14.8482 18.5116 14.8462 18.5176C14.8202 18.5956 14.7952 18.6743 14.7723 18.7538C14.7692 18.7645 14.7661 18.7751 14.7632 18.7859C14.7452 18.8494 14.7282 18.9133 14.7124 18.9776C14.7082 18.995 14.7044 19.0124 14.7004 19.0298C14.6776 19.1265 14.6575 19.2243 14.6397 19.3229C14.6323 19.3635 14.6243 19.404 14.6177 19.445C14.6115 19.4843 14.6065 19.5239 14.601 19.5635C14.5941 19.6141 14.5873 19.6649 14.5817 19.716C14.5776 19.7523 14.5741 19.7889 14.5707 19.8253C14.5653 19.8837 14.5608 19.9424 14.5572 20.0012C14.5553 20.0316 14.5532 20.0619 14.5517 20.0925C14.5476 20.1824 14.5449 20.2726 14.5449 20.3635C14.5449 21.8539 15.1059 23.2129 16.0276 24.2423C17.0928 25.4322 18.6401 26.1817 20.3631 26.1817C22.0861 26.1817 23.6333 25.4322 24.6986 24.2423C25.6202 23.2129 26.1813 21.8539 26.1813 20.3635C26.1815 17.1502 23.5766 14.5454 20.3633 14.5454Z"/>
</g>
</svg>
