<svg width="20" height="18" viewBox="0 0 20 18" fill="none" xmlns="http://www.w3.org/2000/svg">
<path fill-rule="evenodd" clip-rule="evenodd" d="M10.2609 0.125127L19.8624 8.44317C19.9882 8.55208 20.033 8.72767 19.9749 8.88353C19.9168 9.03938 19.768 9.14274 19.6016 9.14274H17.1878V17.5425C17.1878 17.7626 17.0094 17.9409 16.7894 17.9409H3.21068C2.99064 17.9409 2.81228 17.7625 2.81228 17.5425V9.14274H0.398457C0.23209 9.14274 0.0832615 9.03938 0.0251365 8.88353C-0.0329885 8.72767 0.0118162 8.55212 0.137558 8.44317L9.73912 0.125127C9.88885 -0.00459961 10.1112 -0.00459961 10.2609 0.125127ZM16.3909 8.74431C16.3909 8.52431 16.5693 8.34591 16.7893 8.34591H18.5332L9.99998 0.953408L1.46674 8.34591H3.21064C3.43068 8.34591 3.60904 8.52431 3.60904 8.74431V17.1441H16.3909V8.74431Z" fill="black"/>
<path d="M16.1947 7.14194L13.5892 4.8514C13.4239 4.70608 13.1722 4.72233 13.0269 4.88757C12.8817 5.0528 12.8978 5.30456 13.0631 5.44983L15.6686 7.74038C15.7443 7.8069 15.8381 7.83956 15.9315 7.83956C16.0421 7.83956 16.1521 7.79378 16.2309 7.70421C16.3761 7.53901 16.36 7.28722 16.1947 7.14194Z" fill="black"/>
<path d="M12.6685 4.04097L12.5482 3.93518C12.3829 3.78979 12.1312 3.80608 11.9859 3.97132C11.8406 4.13655 11.8568 4.38827 12.0221 4.53354L12.1424 4.63932C12.2181 4.70589 12.3119 4.73854 12.4053 4.73854C12.5159 4.73854 12.6259 4.69276 12.7046 4.60319C12.85 4.43796 12.8337 4.18624 12.6685 4.04097Z" fill="black"/>
<path fill-rule="evenodd" clip-rule="evenodd" d="M10.55 9.56077L14.7048 13.7155C14.7794 13.7903 14.8214 13.8916 14.8215 13.9973V14.9658C14.8215 15.0715 14.7795 15.1728 14.7048 15.2476L13.8336 16.1188C13.7589 16.1935 13.6575 16.2355 13.5519 16.2355C13.4462 16.2355 13.3448 16.1935 13.2701 16.1188L12.7066 15.5553C12.6319 15.4805 12.59 15.3792 12.59 15.2735V15.0436H12.36C12.2543 15.0436 12.1529 15.0016 12.0782 14.9269L11.455 14.3037C11.3803 14.2289 11.3383 14.1276 11.3383 14.0219V13.5167H10.8331C10.7274 13.5167 10.626 13.4747 10.5514 13.4L10.2476 13.0962C10.1729 13.0214 10.1309 12.9201 10.1309 12.8144V12.6987H10.0151C9.90948 12.6987 9.80812 12.6567 9.73343 12.5821L9.34394 12.1926C9.29116 12.1398 9.25425 12.0732 9.23749 12.0005L9.20796 11.8726C9.09647 11.8775 8.98683 11.8353 8.90772 11.7563L8.63108 11.4797C7.78565 11.6709 6.90476 11.4204 6.28249 10.7982C5.29386 9.80956 5.29386 8.20085 6.28249 7.21218C6.7614 6.73327 7.39815 6.46948 8.07546 6.46948C8.75272 6.46948 9.38952 6.73327 9.86843 7.21218C10.4906 7.83433 10.741 8.7153 10.55 9.56077ZM13.5518 15.2735L14.0246 14.8008V14.1623L9.82245 9.96011C9.71597 9.85362 9.67862 9.6962 9.72597 9.55319C9.93413 8.92448 9.77276 8.24331 9.30499 7.77554C8.97655 7.44706 8.53987 7.2662 8.07546 7.2662C7.61101 7.2662 7.17429 7.4471 6.84589 7.77554C6.16792 8.45354 6.16792 9.55663 6.84589 10.2346C7.3137 10.7024 7.99483 10.8637 8.62354 10.6556C8.76655 10.6083 8.92394 10.6456 9.03042 10.7521L9.18956 10.9112C9.29159 10.8155 9.43671 10.7801 9.5719 10.8189C9.71108 10.8588 9.81769 10.9711 9.85026 11.1123L9.98819 11.7099L10.1802 11.9019H10.5293C10.7494 11.9019 10.9277 12.0803 10.9277 12.3003V12.6494L10.9982 12.7198H11.7367C11.9568 12.7198 12.1351 12.8982 12.1351 13.1182V13.8569L12.525 14.2467H12.9883C13.2084 14.2467 13.3867 14.4251 13.3867 14.6451V15.1084H13.3867L13.5518 15.2735Z" fill="black"/>
<path d="M8.15126 8.50353L7.93212 8.28438C7.77649 8.12884 7.52423 8.12884 7.36864 8.28438C7.21306 8.44001 7.21306 8.69228 7.36864 8.84786L7.58778 9.067C7.66556 9.14478 7.76755 9.18368 7.8695 9.18368C7.97146 9.18368 8.07341 9.14478 8.15126 9.067C8.30681 8.91138 8.30681 8.65911 8.15126 8.50353Z" fill="black"/>
</svg>
