<svg width="32" height="30" viewBox="0 0 32 30" fill="none" xmlns="http://www.w3.org/2000/svg">
<g>
<path d="M11.9021 20.1959C11.7635 20.0882 10.6635 19.2562 7.61186 19.0538C7.44399 19.0398 7.27485 18.9207 7.12577 18.8209C6.93605 18.6946 6.73897 18.5618 6.59523 18.3914C6.36158 18.1123 6.0977 17.8779 5.87599 17.568C4.39231 15.4997 2.93834 15.0847 2.72094 15.0025C2.43142 14.8628 1.32234 15.0347 1.85516 15.7743C1.88894 15.7799 3.55167 18.1156 3.65961 18.3023C3.85059 18.6319 4.06672 18.7668 4.26964 18.9981C4.45504 19.2094 4.66024 19.4037 4.8497 19.6115C4.8497 19.6115 3.78634 18.9819 3.53161 18.7061C3.41808 18.5824 3.36348 18.4054 3.27307 18.2586C3.16843 18.0894 3.0572 17.9246 2.94367 17.7616C2.80145 17.5581 2.65847 17.355 2.50761 17.1584C2.3151 16.9077 2.11523 16.6624 1.91688 16.416C1.79345 16.2626 1.65402 16.1143 1.55218 15.9543C1.04932 15.1599 1.62355 14.6847 2.17008 14.6248C2.14367 14.5334 1.89224 12.1311 1.84831 11.7278C1.72285 10.5697 1.59891 9.71179 0.935037 9.47839C0.763863 9.41795 0.642974 9.43827 0.515482 9.57287C0.364624 9.73135 0.27472 10.5725 0.231291 11.1043C0.231291 11.1043 -0.0589946 13.9579 0.0108467 15.2894C0.04818 16.0036 2.26659 20.9161 2.90405 21.6755C3.54101 22.4343 8.52666 25.3082 8.52666 25.3082C8.69326 25.4469 9.61643 26.1578 9.61643 27.0898V29.1134L14.9914 29.1195L14.996 27.2628C15.0084 26.9194 15.0668 26.5783 15.108 26.2365C15.2251 25.8461 15.1314 25.1084 15.0768 24.8219C14.4525 22.0359 12.1536 20.3901 11.9021 20.1959Z"/>
<path d="M31.5255 11.1041C31.4818 10.572 31.3922 9.7311 31.2413 9.57263C31.1138 9.43802 30.9927 9.41771 30.8215 9.47815C30.1584 9.7118 30.0337 10.5697 29.9085 11.7275C29.8643 12.1308 29.6131 14.5331 29.5865 14.6246C30.1327 14.6845 30.7075 15.1597 30.2044 15.9541C30.1028 16.1146 29.9636 16.2624 29.8399 16.4158C29.6416 16.6622 29.4414 16.9075 29.2489 17.1582C29.0978 17.355 28.9551 17.5579 28.8131 17.7613C28.6996 17.9246 28.5878 18.0892 28.4835 18.2583C28.3936 18.4051 28.339 18.5816 28.2247 18.7058C27.9697 18.9822 26.9066 19.6112 26.9066 19.6112C27.096 19.4035 27.3018 19.2092 27.4869 18.9979C27.6898 18.7665 27.9057 18.6317 28.0967 18.302C28.2051 18.1156 29.8678 15.7796 29.9011 15.774C30.4342 15.0345 29.3246 14.8625 29.0353 15.0022C28.8182 15.084 27.3642 15.4995 25.8803 17.5681C25.6588 17.8776 25.3947 18.1126 25.1611 18.3909C25.0176 18.5621 24.82 18.6944 24.6303 18.8206C24.4812 18.9207 24.312 19.0395 24.1442 19.0535C21.0925 19.2559 19.9928 20.0879 19.8539 20.1956C19.6027 20.3904 17.3038 22.0356 16.6793 24.8214C16.6244 25.1079 16.531 25.8456 16.648 26.236C16.6892 26.5778 16.7478 26.9189 16.76 27.2623L16.7646 29.119L22.1396 29.1127V27.0893C22.1396 26.1573 23.0628 25.4464 23.2294 25.3077C23.2294 25.3077 28.2148 22.4341 28.852 21.675C29.4894 20.9159 31.7073 16.0031 31.7452 15.2889C31.8155 13.9576 31.5255 11.1041 31.5255 11.1041Z"/>
<path fill-rule="evenodd" clip-rule="evenodd" d="M23.7971 11.0359L22.9082 10.159L22.911 17.6805L15.8788 17.6686L8.85331 17.6805L8.84848 10.1595L7.95934 11.0365C7.70487 11.2866 7.36937 11.4131 7.03515 11.4141C6.70017 11.4144 6.36417 11.2892 6.10918 11.0387C5.59795 10.5366 5.59591 9.72318 6.10614 9.22033L14.9681 0.476455C15.1601 0.287756 15.4067 0.165852 15.6698 0.120137V0.116074L15.676 0.115184C15.7377 0.106332 15.7989 0.0975342 15.8626 0.0975342C15.8655 0.0975342 15.868 0.0979151 15.8706 0.0982961C15.8731 0.098677 15.8757 0.099058 15.8786 0.099058C15.8808 0.099058 15.8832 0.0986969 15.8857 0.0983262C15.8883 0.0979355 15.891 0.0975342 15.8936 0.0975342C15.9588 0.0975342 16.0226 0.106677 16.0861 0.116074V0.119883C16.3494 0.165598 16.596 0.287248 16.7878 0.476201L25.6513 9.21982C26.161 9.72268 26.16 10.5361 25.647 11.0382C25.392 11.2886 25.056 11.4139 24.722 11.4136C24.3863 11.4126 24.0518 11.2861 23.7971 11.0359ZM18.036 11.729L18.0444 16.1278L21.1705 16.1237L21.1672 8.44039L15.8788 3.22261L10.5894 8.44039L10.594 16.1237L13.7122 16.1278L13.7059 11.729L15.6543 11.7257V11.7255H15.8626H16.0698V11.7257L18.036 11.729Z"/>
</g>
</svg>
