<svg width="32" height="33" viewBox="0 0 32 33" fill="none" xmlns="http://www.w3.org/2000/svg">
<path fill-rule="evenodd" clip-rule="evenodd" d="M31.9581 15.3385C31.9581 15.9303 31.4784 16.4099 30.8867 16.4099H30.8838H28.9797V30.9438C28.9797 31.5356 28.5 32.0152 27.9083 32.0152H4.10369C3.51197 32.0152 3.03226 31.5356 3.03226 30.9438V16.4099H1.12812C0.690689 16.4099 0.297118 16.144 0.133975 15.738C-0.0291679 15.3322 0.0708321 14.8679 0.386546 14.5652L15.2644 0.298179C15.6788 -0.0993928 16.333 -0.0993928 16.7475 0.298179L31.5797 14.5212C31.8113 14.7177 31.9581 15.011 31.9581 15.3385ZM9.07255 17.0013C9.07255 16.2577 9.67726 15.653 10.4207 15.653C11.164 15.653 11.7688 16.2577 11.7688 17.0013C11.7688 17.7449 11.1641 18.3496 10.4207 18.3496C9.67726 18.3496 9.07255 17.7449 9.07255 17.0013ZM21.5591 24.3449C22.3025 24.3449 22.9073 23.74 22.9073 22.9966C22.9073 22.2532 22.3025 21.6485 21.5591 21.6483C20.8155 21.6483 20.2108 22.253 20.2108 22.9966C20.2108 23.7402 20.8157 24.3449 21.5591 24.3449ZM13.9117 17.0012C13.9117 18.9262 12.3457 20.4923 10.4207 20.4923C8.49569 20.4923 6.92969 18.9263 6.92969 17.0013C6.92969 15.0763 8.49569 13.5102 10.4207 13.5102C12.3455 13.5102 13.9117 15.0762 13.9117 17.0012ZM12.636 26.0687L20.9965 15.1803C21.3568 14.711 21.2685 14.0385 20.7993 13.678C20.3298 13.3177 19.6574 13.4059 19.2968 13.8753L10.9363 24.7637C10.576 25.233 10.6643 25.9056 11.1335 26.266C11.3281 26.4155 11.5575 26.4877 11.7854 26.4877C12.1068 26.4877 12.425 26.3436 12.636 26.0687ZM21.5591 19.5055C23.4841 19.5055 25.0501 21.0716 25.0501 22.9966C25.0501 24.9216 23.4841 26.4878 21.5591 26.4878C19.634 26.4878 18.068 24.9216 18.068 22.9966C18.068 21.0716 19.6341 19.5055 21.5591 19.5055Z"/>
</svg>
