<svg width="16" height="16" viewBox="0 0 16 16" fill="none" xmlns="http://www.w3.org/2000/svg">
<path fill-rule="evenodd" clip-rule="evenodd" d="M15.1579 10.0225V3.41782C15.1579 1.53319 13.6247 0 11.7401 0H3.41782C1.53319 0 0 1.53319 0 3.41782V11.7401C0 13.6247 1.53319 15.1579 3.41782 15.1579H10.0225C10.6549 15.6834 11.4664 16 12.3509 16C14.3629 16 16 14.3629 16 12.3509C16 11.4664 15.6834 10.6549 15.1579 10.0225ZM3.41782 14.5965C1.84281 14.5965 0.561404 13.3154 0.561404 11.7401V3.41782C0.561404 1.84253 1.84281 0.561404 3.41782 0.561404H11.7401C13.3151 0.561404 14.5965 1.84253 14.5965 3.41782V9.47874C14.5847 9.46945 14.5724 9.46096 14.5602 9.45247C14.5506 9.44582 14.541 9.43917 14.5316 9.43214C14.4727 9.38779 14.4138 9.34372 14.352 9.30302C14.3488 9.30091 14.3454 9.29895 14.342 9.29698C14.3403 9.29598 14.3386 9.29498 14.3369 9.29395C14.3353 9.29297 14.3336 9.29198 14.3321 9.29095C14.1878 9.19719 14.0359 9.11467 13.8785 9.04168C13.8686 9.03715 13.8589 9.03232 13.8492 9.02749C13.8378 9.02186 13.8265 9.01623 13.815 9.01109C13.759 8.98639 13.7018 8.96493 13.6444 8.94335L13.6267 8.9367L13.6111 8.93082C13.5761 8.91758 13.5411 8.90433 13.5057 8.89235C13.4476 8.87298 13.3889 8.85586 13.3297 8.8393C13.2794 8.82526 13.2289 8.81207 13.1781 8.80028C13.1245 8.78793 13.0712 8.77586 13.0167 8.76575C12.9521 8.75368 12.887 8.74442 12.8216 8.736C12.8071 8.73414 12.7927 8.73213 12.7782 8.73012H12.7782C12.749 8.72605 12.7197 8.72198 12.69 8.71916C12.5777 8.70821 12.4646 8.70175 12.3509 8.70175C10.6291 8.70175 9.1854 9.90203 8.80365 11.5088H7.57895C7.424 11.5088 7.29825 11.6342 7.29825 11.7895C7.29825 11.9447 7.424 12.0702 7.57895 12.0702H8.71607C8.70877 12.1631 8.70175 12.2563 8.70175 12.3509C8.70175 12.4646 8.70849 12.5777 8.71888 12.69C8.72201 12.7232 8.72655 12.7558 8.73109 12.7885L8.73572 12.8222C8.74414 12.887 8.7534 12.9519 8.76547 13.0159C8.77558 13.0706 8.78765 13.1248 8.80028 13.1787C8.81207 13.2289 8.82498 13.2786 8.83874 13.3283C8.85558 13.3884 8.8727 13.4479 8.89263 13.5065C8.90284 13.5371 8.91422 13.5673 8.92561 13.5974L8.93558 13.6239L8.93849 13.6317L8.9385 13.6317C8.96165 13.6936 8.98469 13.7552 9.01109 13.8156C9.01547 13.8256 9.02034 13.8354 9.02522 13.8452C9.0294 13.8536 9.03359 13.862 9.03747 13.8706C9.11242 14.0334 9.19775 14.1906 9.29516 14.3394L9.29824 14.3444C9.29963 14.3467 9.30099 14.349 9.30246 14.3512C9.34191 14.4109 9.38448 14.468 9.42717 14.5253L9.42723 14.5253L9.43214 14.5319C9.43945 14.5417 9.44635 14.5516 9.45325 14.5615L9.45326 14.5615L9.45329 14.5616C9.46147 14.5733 9.46963 14.5851 9.47846 14.5965H3.41782ZM10.2908 14.6442C10.8379 15.1363 11.559 15.4386 12.3509 15.4386C14.0533 15.4386 15.4386 14.0533 15.4386 12.3509C15.4386 11.5599 15.1371 10.8396 14.6462 10.2931C14.5841 10.224 14.5196 10.158 14.4525 10.0954C14.4418 10.0852 14.4308 10.0754 14.4197 10.0654C14.4168 10.0628 14.4139 10.0602 14.4109 10.0575C14.3447 9.99804 14.2762 9.94161 14.2055 9.88828C14.1903 9.87677 14.1752 9.86526 14.1597 9.85404C14.087 9.80126 14.0124 9.75242 13.9357 9.70611C13.9214 9.6974 13.9071 9.68814 13.8925 9.67972C13.8122 9.6334 13.73 9.59102 13.646 9.552C13.6337 9.54639 13.6216 9.53993 13.6093 9.53432C13.5217 9.49502 13.4321 9.46021 13.3412 9.42933C13.3369 9.42783 13.3327 9.42622 13.3284 9.42463C13.3224 9.42235 13.3164 9.42008 13.3103 9.41811C13.2182 9.38779 13.1245 9.36281 13.0296 9.34119C13.0243 9.34007 13.0191 9.3386 13.0139 9.33712C13.0087 9.33565 13.0035 9.33418 12.9982 9.33305C12.9047 9.31284 12.8095 9.29825 12.7141 9.28674C12.7084 9.28598 12.7029 9.285 12.6973 9.28402C12.6905 9.28282 12.6837 9.28162 12.6768 9.28084C12.569 9.26905 12.4604 9.26316 12.3509 9.26316C10.6484 9.26316 9.26316 10.6484 9.26316 12.3509C9.26316 12.4604 9.26905 12.5687 9.28056 12.6759C9.28135 12.6835 9.28258 12.6909 9.2838 12.6982C9.28476 12.704 9.28572 12.7097 9.28646 12.7155C9.29768 12.8104 9.312 12.9047 9.33221 12.9976C9.33348 13.004 9.3352 13.0101 9.3369 13.0163C9.33822 13.021 9.33953 13.0257 9.34063 13.0305C9.36225 13.1248 9.38723 13.2182 9.41726 13.3098C9.41901 13.315 9.42102 13.3202 9.42303 13.3254C9.42523 13.3311 9.42743 13.3367 9.42933 13.3426C9.45993 13.4327 9.49417 13.5214 9.53319 13.6081C9.53673 13.6162 9.54057 13.624 9.54441 13.6318C9.54697 13.637 9.54953 13.6422 9.552 13.6474C9.59074 13.7305 9.63256 13.8119 9.6786 13.8914C9.68492 13.9024 9.69153 13.9131 9.69812 13.9237C9.70088 13.9282 9.70365 13.9326 9.70639 13.9371C9.75186 14.0129 9.8007 14.0867 9.85263 14.1586C9.86128 14.1705 9.87023 14.1823 9.87916 14.1941C9.88239 14.1984 9.88563 14.2026 9.88884 14.2069C9.94161 14.2765 9.99719 14.3439 10.0559 14.4093C10.0693 14.4241 10.0825 14.439 10.0963 14.4536C10.158 14.5199 10.2229 14.5833 10.2908 14.6442Z" fill="black"/>
<path d="M14.0358 12.0702H12.6323V10.6667C12.6323 10.5115 12.5066 10.386 12.3516 10.386C12.1967 10.386 12.0709 10.5115 12.0709 10.6667V12.0702H10.6674C10.5125 12.0702 10.3867 12.1957 10.3867 12.3509C10.3867 12.5061 10.5125 12.6316 10.6674 12.6316H12.0709V14.0351C12.0709 14.1903 12.1967 14.3158 12.3516 14.3158C12.5066 14.3158 12.6323 14.1903 12.6323 14.0351V12.6316H14.0358C14.1908 12.6316 14.3165 12.5061 14.3165 12.3509C14.3165 12.1957 14.1908 12.0702 14.0358 12.0702Z" fill="black"/>
<path d="M7.57953 3.92981H12.6322C12.7871 3.92981 12.9129 3.80434 12.9129 3.64911C12.9129 3.49388 12.7871 3.36841 12.6322 3.36841H7.57953C7.42458 3.36841 7.29883 3.49388 7.29883 3.64911C7.29883 3.80434 7.42458 3.92981 7.57953 3.92981Z" fill="black"/>
<path d="M7.57953 7.85962H12.6322C12.7871 7.85962 12.9129 7.73415 12.9129 7.57892C12.9129 7.42369 12.7871 7.29822 12.6322 7.29822H7.57953C7.42458 7.29822 7.29883 7.42369 7.29883 7.57892C7.29883 7.73415 7.42458 7.85962 7.57953 7.85962Z" fill="black"/>
<path d="M5.38108 2.06314L3.62726 4.1089L2.5547 3.30412C2.43063 3.21121 2.25491 3.23619 2.16172 3.36027C2.06852 3.48405 2.09379 3.66005 2.21786 3.75297L3.50094 4.71549C3.55147 4.75339 3.61042 4.77163 3.66936 4.77163C3.7488 4.77163 3.8274 4.73823 3.8827 4.67339L5.80747 2.42777C5.90824 2.31016 5.89477 2.13304 5.77715 2.03227C5.65954 1.93177 5.48214 1.94525 5.38108 2.06314Z" fill="black"/>
<path d="M5.38108 5.99295L3.62726 8.03871L2.5547 7.23393C2.43063 7.14102 2.25491 7.166 2.16172 7.29007C2.06852 7.41386 2.09379 7.58986 2.21786 7.68278L3.50094 8.6453C3.55147 8.6832 3.61042 8.70144 3.66936 8.70144C3.7488 8.70144 3.8274 8.66804 3.8827 8.6032L5.80747 6.35758C5.90824 6.23997 5.89477 6.06285 5.77715 5.96207C5.65954 5.86158 5.48214 5.87506 5.38108 5.99295Z" fill="black"/>
<path d="M5.38108 10.2035L3.62726 12.249L2.5547 11.4445C2.43063 11.3518 2.25491 11.3765 2.16172 11.5006C2.06852 11.6244 2.09379 11.8004 2.21786 11.8933L3.50094 12.8558C3.55147 12.8937 3.61042 12.912 3.66936 12.912C3.7488 12.912 3.8274 12.8786 3.8827 12.8137L5.80747 10.5684C5.90824 10.4508 5.89477 10.2737 5.77715 10.1729C5.65954 10.0721 5.48214 10.0856 5.38108 10.2035Z" fill="black"/>
</svg>
