<svg width="12" height="15" viewBox="0 0 12 15" fill="none" xmlns="http://www.w3.org/2000/svg">
<path fill-rule="evenodd" clip-rule="evenodd" d="M0 5.66563C0 2.54125 2.52375 0 5.625 0C8.72625 0 11.25 2.54125 11.25 5.66563C11.25 10.105 6.15375 14.6888 5.93687 14.8819C5.8475 14.9606 5.73625 15 5.625 15C5.51375 15 5.4025 14.9606 5.31313 14.8813C5.09625 14.6888 0 10.105 0 5.66563ZM2.5 5.625C2.5 7.34812 3.90188 8.75 5.625 8.75C7.34812 8.75 8.75 7.34812 8.75 5.625C8.75 3.90188 7.34812 2.5 5.625 2.5C3.90188 2.5 2.5 3.90188 2.5 5.625Z" fill="#B2D235"/>
</svg>
