<svg width="750" height="638" viewBox="0 0 750 638" fill="none" xmlns="http://www.w3.org/2000/svg">
<rect width="720" height="638" fill="#FAFAFA"/>
<mask id="mask0_11_504" style="mask-type:alpha" maskUnits="userSpaceOnUse" x="0" y="0" width="720" height="638">
<rect width="720" height="638" fill="white"/>
</mask>
<g mask="url(#mask0_11_504)">
</g>
<g clip-path="url(#clip0_11_504)">
<path d="M750 69H0V638H750V69Z" fill="#FAFAFA"/>
<path d="M46.4155 266.058H166.56C166.56 266.058 159.178 256.025 153.578 256.481C147.978 256.937 144.669 263.028 137.796 258.924C130.924 254.82 130.924 248.273 121.251 248.273C111.578 248.273 105.23 258.523 95.9059 258.924C80.7624 259.575 66.5245 236.644 46.4155 266.058Z" fill="white"/>
<path d="M589.208 236.57H697.218C697.218 236.57 690.581 227.551 685.548 227.961C680.514 228.371 677.538 233.847 671.36 230.157C665.181 226.467 665.181 220.582 656.486 220.582C647.79 220.582 642.083 229.796 633.7 230.157C620.086 230.743 607.286 210.128 589.208 236.57Z" fill="white"/>
<path d="M201.854 200.857C211.518 200.857 219.352 193.023 219.352 183.36C219.352 173.696 211.518 165.862 201.854 165.862C192.19 165.862 184.356 173.696 184.356 183.36C184.356 193.023 192.19 200.857 201.854 200.857Z" fill="#F0C811"/>
<path d="M317.64 198.742H262.254V403.883H317.64V198.742Z" fill="#CDDAE3"/>
<path d="M279.392 213.48H274.354V389.61H279.392V213.48Z" fill="#DAE6F1"/>
<path d="M291.887 213.48H286.849V389.61H291.887V213.48Z" fill="#DAE6F1"/>
<path d="M304.381 213.48H299.343V389.61H304.381V213.48Z" fill="#DAE6F1"/>
<path d="M606.712 267.807C611.771 261.991 611.156 253.175 605.34 248.117C599.524 243.059 590.709 243.673 585.651 249.489C580.592 255.305 581.207 264.12 587.023 269.178C592.839 274.237 601.654 273.623 606.712 267.807Z" fill="#BECED6"/>
<path d="M620.31 255.692H572.053V281.713H620.31V255.692Z" fill="#CDDAE3"/>
<path d="M634.629 271.597H556.464V437.987H634.629V271.597Z" fill="#CDDAE3"/>
<path d="M574.856 281.713H567.951V300.179H574.856V281.713Z" fill="#DAE6F1"/>
<path d="M599.634 281.713H592.729V300.179H599.634V281.713Z" fill="#DAE6F1"/>
<path d="M624.412 281.713H617.507V300.179H624.412V281.713Z" fill="#DAE6F1"/>
<path d="M574.856 308.467H567.951V326.933H574.856V308.467Z" fill="#DAE6F1"/>
<path d="M599.634 308.467H592.729V326.933H599.634V308.467Z" fill="#DAE6F1"/>
<path d="M624.412 308.467H617.507V326.933H624.412V308.467Z" fill="#DAE6F1"/>
<path d="M574.856 335.22H567.951V353.687H574.856V335.22Z" fill="#DAE6F1"/>
<path d="M599.634 335.22H592.729V353.687H599.634V335.22Z" fill="#DAE6F1"/>
<path d="M624.412 335.22H617.507V353.687H624.412V335.22Z" fill="#DAE6F1"/>
<path d="M574.856 361.974H567.951V380.441H574.856V361.974Z" fill="#DAE6F1"/>
<path d="M599.634 361.974H592.729V380.441H599.634V361.974Z" fill="#DAE6F1"/>
<path d="M624.412 361.974H617.507V380.441H624.412V361.974Z" fill="#DAE6F1"/>
<path d="M637.87 385.824H552.301V395.098H637.87V385.824Z" fill="#BECED6"/>
<path d="M617.813 405.824H572.358V437.737H617.813V405.824Z" fill="#DAE6F1"/>
<path d="M160.668 296.228C166.118 290.778 166.118 281.941 160.668 276.49C155.218 271.04 146.381 271.04 140.93 276.49C135.48 281.941 135.48 290.778 140.93 296.228C146.381 301.678 155.218 301.678 160.668 296.228Z" fill="#BECED6"/>
<path d="M174.927 283.404H126.671V309.424H174.927V283.404Z" fill="#CDDAE3"/>
<path d="M189.246 299.309H111.082V465.698H189.246V299.309Z" fill="#CDDAE3"/>
<path d="M129.473 309.424H122.568V327.891H129.473V309.424Z" fill="#DAE6F1"/>
<path d="M154.252 309.424H147.347V327.891H154.252V309.424Z" fill="#DAE6F1"/>
<path d="M179.03 309.424H172.125V327.891H179.03V309.424Z" fill="#DAE6F1"/>
<path d="M129.473 336.178H122.568V354.645H129.473V336.178Z" fill="#DAE6F1"/>
<path d="M154.252 336.178H147.347V354.645H154.252V336.178Z" fill="#DAE6F1"/>
<path d="M179.03 336.178H172.125V354.645H179.03V336.178Z" fill="#DAE6F1"/>
<path d="M129.473 362.932H122.568V381.399H129.473V362.932Z" fill="#DAE6F1"/>
<path d="M154.252 362.932H147.347V381.399H154.252V362.932Z" fill="#DAE6F1"/>
<path d="M179.03 362.932H172.125V381.399H179.03V362.932Z" fill="#DAE6F1"/>
<path d="M129.473 389.686H122.568V408.153H129.473V389.686Z" fill="#DAE6F1"/>
<path d="M154.252 389.686H147.347V408.153H154.252V389.686Z" fill="#DAE6F1"/>
<path d="M179.03 389.686H172.125V408.153H179.03V389.686Z" fill="#DAE6F1"/>
<path d="M192.488 413.536H106.918V422.81H192.488V413.536Z" fill="#BECED6"/>
<path d="M172.43 433.535H126.976V465.449H172.43V433.535Z" fill="#DAE6F1"/>
<path d="M112.461 407.098H51.4722V499.765H112.461V407.098Z" fill="#CDDAE3"/>
<path d="M696.88 354.792H633.34V503.945H696.88V354.792Z" fill="#CDDAE3"/>
<path d="M729.226 477.905H20.7739V536.544H729.226V477.905Z" fill="#CDDAE3"/>
<path d="M184.207 334.933H89.1577V536.544H184.207V334.933Z" fill="#A7B7D4"/>
<path d="M224.521 334.933H184.207V536.544H224.521V334.933Z" fill="#4870B2"/>
<path d="M184.207 325.075H81.627V334.933H184.207V325.075Z" fill="#2B333F"/>
<path d="M231.866 325.075H184.207V334.933H231.866V325.075Z" fill="#111416"/>
<path d="M123.477 395.844H101.711V371.608C101.711 368.722 102.858 365.954 104.899 363.913C106.94 361.872 109.708 360.726 112.594 360.726V360.726C115.48 360.726 118.248 361.872 120.289 363.913C122.33 365.954 123.477 368.722 123.477 371.608V395.844Z" stroke="#DAE6F1" stroke-width="1.106" stroke-miterlimit="10"/>
<path d="M126.124 393.355H99.0645V397.544H126.124V393.355Z" fill="#2B333F"/>
<path d="M126.124 397.544H99.0645V400.063H126.124V397.544Z" fill="#92A6C2"/>
<path d="M164.347 395.844H142.582V371.608C142.582 368.722 143.729 365.954 145.77 363.913C147.81 361.872 150.578 360.726 153.465 360.726V360.726C156.351 360.726 159.119 361.872 161.16 363.913C163.201 365.954 164.347 368.722 164.347 371.608V395.844Z" stroke="#DAE6F1" stroke-width="1.106" stroke-miterlimit="10"/>
<path d="M166.995 393.355H139.936V397.544H166.995V393.355Z" fill="#2B333F"/>
<path d="M166.995 397.544H139.936V400.063H166.995V397.544Z" fill="#92A6C2"/>
<path d="M123.477 446.812H101.711V422.577C101.711 419.69 102.858 416.922 104.899 414.881C106.94 412.841 109.708 411.694 112.594 411.694C115.48 411.694 118.248 412.841 120.289 414.881C122.33 416.922 123.477 419.69 123.477 422.577V446.812Z" stroke="#DAE6F1" stroke-width="1.106" stroke-miterlimit="10"/>
<path d="M126.124 444.324H99.0645V448.513H126.124V444.324Z" fill="#2B333F"/>
<path d="M126.124 448.513H99.0645V451.031H126.124V448.513Z" fill="#92A6C2"/>
<path d="M164.347 446.812H142.582V422.577C142.582 419.69 143.729 416.922 145.77 414.881C147.81 412.841 150.578 411.694 153.465 411.694V411.694C156.351 411.694 159.119 412.841 161.16 414.881C163.201 416.922 164.347 419.69 164.347 422.577V446.812Z" stroke="#DAE6F1" stroke-width="1.106" stroke-miterlimit="10"/>
<path d="M166.995 444.324H139.936V448.513H166.995V444.324Z" fill="#2B333F"/>
<path d="M166.995 448.513H139.936V451.031H166.995V448.513Z" fill="#92A6C2"/>
<path d="M118.256 536.544V477.905H148.378V536.544" stroke="#DAE6F1" stroke-width="1.106" stroke-miterlimit="10"/>
<path d="M305.228 310.433H210.178V536.544H305.228V310.433Z" fill="#A7B7D4"/>
<path d="M345.542 310.433H305.228V536.544H345.542V310.433Z" fill="#4870B2"/>
<path d="M305.228 300.576H202.648V310.433H305.228V300.576Z" fill="#2B333F"/>
<path d="M352.886 300.576H305.228V310.433H352.886V300.576Z" fill="#111416"/>
<path d="M244.497 367.491H222.732V343.255C222.732 341.826 223.013 340.411 223.56 339.09C224.107 337.77 224.909 336.57 225.919 335.56C226.93 334.549 228.13 333.748 229.45 333.201C230.77 332.654 232.185 332.372 233.615 332.372C236.501 332.372 239.269 333.519 241.31 335.56C243.351 337.601 244.497 340.369 244.497 343.255V367.491Z" stroke="#DAE6F1" stroke-width="1.106" stroke-miterlimit="10"/>
<path d="M247.144 365.002H220.085V369.191H247.144V365.002Z" fill="#2B333F"/>
<path d="M247.144 369.191H220.085V371.71H247.144V369.191Z" fill="#92A6C2"/>
<path d="M285.368 367.491H263.603V343.255C263.603 341.826 263.885 340.411 264.431 339.09C264.978 337.77 265.78 336.57 266.79 335.56C267.801 334.549 269.001 333.748 270.321 333.201C271.641 332.654 273.057 332.372 274.486 332.372C277.372 332.372 280.14 333.519 282.181 335.56C284.222 337.601 285.368 340.369 285.368 343.255V367.491Z" stroke="#DAE6F1" stroke-width="1.106" stroke-miterlimit="10"/>
<path d="M288.015 365.002H260.956V369.191H288.015V365.002Z" fill="#2B333F"/>
<path d="M288.015 369.191H260.956V371.71H288.015V369.191Z" fill="#92A6C2"/>
<path d="M244.497 418.459H222.732V394.223C222.732 392.794 223.013 391.379 223.56 390.059C224.107 388.738 224.909 387.539 225.919 386.528C226.93 385.518 228.13 384.716 229.45 384.169C230.77 383.622 232.185 383.341 233.615 383.341C236.501 383.341 239.269 384.487 241.31 386.528C243.351 388.569 244.497 391.337 244.497 394.223V418.459Z" stroke="#DAE6F1" stroke-width="1.106" stroke-miterlimit="10"/>
<path d="M247.144 415.97H220.085V420.159H247.144V415.97Z" fill="#2B333F"/>
<path d="M247.144 420.159H220.085V422.678H247.144V420.159Z" fill="#92A6C2"/>
<path d="M285.368 418.459H263.603V394.223C263.603 392.794 263.885 391.379 264.431 390.059C264.978 388.738 265.78 387.539 266.79 386.528C267.801 385.518 269.001 384.716 270.321 384.169C271.641 383.622 273.057 383.341 274.486 383.341V383.341C277.372 383.341 280.14 384.487 282.181 386.528C284.222 388.569 285.368 391.337 285.368 394.223V418.459Z" stroke="#DAE6F1" stroke-width="1.106" stroke-miterlimit="10"/>
<path d="M288.015 415.97H260.956V420.159H288.015V415.97Z" fill="#2B333F"/>
<path d="M288.015 420.159H260.956V422.678H288.015V420.159Z" fill="#92A6C2"/>
<path d="M244.497 469.427H222.732V445.192C222.732 443.763 223.013 442.347 223.56 441.027C224.107 439.707 224.909 438.507 225.919 437.496C226.93 436.486 228.13 435.684 229.45 435.137C230.77 434.59 232.185 434.309 233.615 434.309C235.044 434.309 236.459 434.59 237.779 435.137C239.1 435.684 240.299 436.486 241.31 437.496C242.32 438.507 243.122 439.707 243.669 441.027C244.216 442.347 244.497 443.763 244.497 445.192V469.427Z" stroke="#DAE6F1" stroke-width="1.106" stroke-miterlimit="10"/>
<path d="M247.144 466.939H220.085V471.128H247.144V466.939Z" fill="#2B333F"/>
<path d="M247.144 471.128H220.085V473.646H247.144V471.128Z" fill="#92A6C2"/>
<path d="M285.368 469.427H263.603V445.192C263.603 443.763 263.884 442.347 264.431 441.027C264.978 439.707 265.78 438.507 266.79 437.496C267.801 436.486 269.001 435.684 270.321 435.137C271.641 434.59 273.057 434.309 274.486 434.309V434.309C277.372 434.309 280.14 435.456 282.181 437.496C284.222 439.537 285.368 442.305 285.368 445.192V469.427Z" stroke="#DAE6F1" stroke-width="1.106" stroke-miterlimit="10"/>
<path d="M288.015 466.939H260.956V471.128H288.015V466.939Z" fill="#2B333F"/>
<path d="M288.015 471.128H260.956V473.646H288.015V471.128Z" fill="#92A6C2"/>
<path d="M305.228 282.941H210.178V300.576H305.228V282.941Z" fill="#A7B7D4"/>
<path d="M341.339 282.941H305.362V300.576H341.339V282.941Z" fill="#4870B2"/>
<path d="M274.485 256.072H247.144V283.413H274.485V256.072Z" fill="#A7B7D4"/>
<path d="M341.339 256.072H274.344V283.413H341.339V256.072Z" fill="#4870B2"/>
<path d="M473.566 225.014H341.339V536.544H473.566V225.014Z" fill="#A7B7D4"/>
<path d="M540.957 225.014H473.566V536.544H540.957V225.014Z" fill="#4870B2"/>
<path d="M473.566 211.301H330.863V225.014H473.566V211.301Z" fill="#2B333F"/>
<path d="M551.174 211.301H473.566V225.014H551.174V211.301Z" fill="#111416"/>
<path d="M377.299 250.783H355.533V285.902H377.299V250.783Z" fill="#DAE6F1"/>
<path opacity="0.54" d="M374.24 250.494L355.533 269.029V275.398L377.299 252.702L374.24 250.494Z" fill="white"/>
<path opacity="0.54" d="M377.299 256.494L356.096 278.599V282.941L377.862 260.244L377.299 256.494Z" fill="white"/>
<path d="M378.235 287.329H354.598V249.356H378.235V287.329ZM356.469 284.473H376.363V252.212H356.469V284.473Z" fill="#5E7391"/>
<path d="M379.946 283.413H352.887V289.042H379.946V283.413Z" fill="#2B333F"/>
<path d="M377.299 266.625H355.533V269.029H377.299V266.625Z" fill="#5E7391"/>
<path d="M379.946 289.042H352.887V291.561H379.946V289.042Z" fill="#92A6C2"/>
<path d="M417.229 250.783H395.464V285.902H417.229V250.783Z" fill="#DAE6F1"/>
<path opacity="0.54" d="M414.17 250.494L395.464 269.029V275.398L417.229 252.702L414.17 250.494Z" fill="white"/>
<path opacity="0.54" d="M417.229 256.494L396.027 278.599V282.941L417.792 260.244L417.229 256.494Z" fill="white"/>
<path d="M418.165 287.329H394.528V249.356H418.165V287.329ZM396.4 284.473H416.294V252.212H396.4V284.473Z" fill="#5E7391"/>
<path d="M419.876 283.413H392.817V289.042H419.876V283.413Z" fill="#2B333F"/>
<path d="M417.229 266.625H395.464V269.029H417.229V266.625Z" fill="#5E7391"/>
<path d="M419.876 289.042H392.817V291.561H419.876V289.042Z" fill="#92A6C2"/>
<path d="M457.16 250.783H435.395V285.902H457.16V250.783Z" fill="#DAE6F1"/>
<path opacity="0.54" d="M454.101 250.494L435.395 269.029V275.398L457.16 252.702L454.101 250.494Z" fill="white"/>
<path opacity="0.54" d="M457.16 256.494L435.957 278.599V282.941L457.723 260.244L457.16 256.494Z" fill="white"/>
<path d="M458.096 287.329H434.459V249.356H458.096V287.329ZM436.33 284.473H456.224V252.212H436.33V284.473Z" fill="#5E7391"/>
<path d="M459.807 283.413H432.748V289.042H459.807V283.413Z" fill="#2B333F"/>
<path d="M457.16 266.625H435.395V269.029H457.16V266.625Z" fill="#5E7391"/>
<path d="M459.807 289.042H432.748V291.561H459.807V289.042Z" fill="#92A6C2"/>
<path d="M377.299 309.182H355.533V344.3H377.299V309.182Z" fill="#DAE6F1"/>
<path opacity="0.54" d="M374.24 308.892L355.533 327.428V333.797L377.299 311.101L374.24 308.892Z" fill="white"/>
<path opacity="0.54" d="M377.299 314.892L356.096 336.997V341.339L377.862 318.643L377.299 314.892Z" fill="white"/>
<path d="M378.235 345.728H354.598V307.754H378.235V345.728ZM356.469 342.871H376.363V310.61H356.469V342.871Z" fill="#5E7391"/>
<path d="M379.946 341.812H352.887V347.441H379.946V341.812Z" fill="#2B333F"/>
<path d="M377.299 325.024H355.533V327.428H377.299V325.024Z" fill="#5E7391"/>
<path d="M379.946 347.441H352.887V349.959H379.946V347.441Z" fill="#92A6C2"/>
<path d="M417.229 309.182H395.464V344.3H417.229V309.182Z" fill="#DAE6F1"/>
<path opacity="0.54" d="M414.17 308.892L395.464 327.428V333.797L417.229 311.101L414.17 308.892Z" fill="white"/>
<path opacity="0.54" d="M417.229 314.892L396.027 336.997V341.339L417.792 318.643L417.229 314.892Z" fill="white"/>
<path d="M418.165 345.728H394.528V307.754H418.165V345.728ZM396.4 342.871H416.294V310.61H396.4V342.871Z" fill="#5E7391"/>
<path d="M419.876 341.812H392.817V347.441H419.876V341.812Z" fill="#2B333F"/>
<path d="M417.229 325.024H395.464V327.428H417.229V325.024Z" fill="#5E7391"/>
<path d="M419.876 347.441H392.817V349.959H419.876V347.441Z" fill="#92A6C2"/>
<path d="M457.16 309.182H435.395V344.3H457.16V309.182Z" fill="#DAE6F1"/>
<path opacity="0.54" d="M454.101 308.892L435.395 327.428V333.797L457.16 311.101L454.101 308.892Z" fill="white"/>
<path opacity="0.54" d="M457.16 314.892L435.957 336.997V341.339L457.723 318.643L457.16 314.892Z" fill="white"/>
<path d="M458.096 345.728H434.459V307.754H458.096V345.728ZM436.33 342.871H456.224V310.61H436.33V342.871Z" fill="#5E7391"/>
<path d="M459.807 341.812H432.748V347.441H459.807V341.812Z" fill="#2B333F"/>
<path d="M457.16 325.024H435.395V327.428H457.16V325.024Z" fill="#5E7391"/>
<path d="M459.807 347.441H432.748V349.959H459.807V347.441Z" fill="#92A6C2"/>
<path d="M377.299 367.58H355.533V402.698H377.299V367.58Z" fill="#DAE6F1"/>
<path opacity="0.54" d="M374.24 367.291L355.533 385.826V392.195L377.299 369.499L374.24 367.291Z" fill="white"/>
<path opacity="0.54" d="M377.299 373.291L356.096 395.395V399.737L377.862 377.041L377.299 373.291Z" fill="white"/>
<path d="M378.235 404.126H354.598V366.153H378.235V404.126ZM356.469 401.27H376.363V369.009H356.469V401.27Z" fill="#5E7391"/>
<path d="M379.946 400.21H352.887V405.839H379.946V400.21Z" fill="#2B333F"/>
<path d="M377.299 383.422H355.533V385.826H377.299V383.422Z" fill="#5E7391"/>
<path d="M379.946 405.839H352.887V408.358H379.946V405.839Z" fill="#92A6C2"/>
<path d="M417.229 367.58H395.464V402.698H417.229V367.58Z" fill="#DAE6F1"/>
<path opacity="0.54" d="M414.17 367.291L395.464 385.826V392.195L417.229 369.499L414.17 367.291Z" fill="white"/>
<path opacity="0.54" d="M417.229 373.291L396.027 395.395V399.737L417.792 377.041L417.229 373.291Z" fill="white"/>
<path d="M418.165 404.126H394.528V366.153H418.165V404.126ZM396.4 401.27H416.294V369.009H396.4V401.27Z" fill="#5E7391"/>
<path d="M419.876 400.21H392.817V405.839H419.876V400.21Z" fill="#2B333F"/>
<path d="M417.229 383.422H395.464V385.826H417.229V383.422Z" fill="#5E7391"/>
<path d="M419.876 405.839H392.817V408.358H419.876V405.839Z" fill="#92A6C2"/>
<path d="M457.16 367.58H435.395V402.698H457.16V367.58Z" fill="#DAE6F1"/>
<path opacity="0.54" d="M454.101 367.291L435.395 385.826V392.195L457.16 369.499L454.101 367.291Z" fill="white"/>
<path opacity="0.54" d="M457.16 373.291L435.957 395.395V399.737L457.723 377.041L457.16 373.291Z" fill="white"/>
<path d="M458.096 404.126H434.459V366.153H458.096V404.126ZM436.33 401.27H456.224V369.009H436.33V401.27Z" fill="#5E7391"/>
<path d="M459.807 400.21H432.748V405.839H459.807V400.21Z" fill="#2B333F"/>
<path d="M457.16 383.422H435.395V385.826H457.16V383.422Z" fill="#5E7391"/>
<path d="M459.807 405.839H432.748V408.358H459.807V405.839Z" fill="#92A6C2"/>
<path d="M377.299 425.979H355.533V461.097H377.299V425.979Z" fill="#DAE6F1"/>
<path opacity="0.54" d="M374.24 425.689L355.533 444.225V450.593L377.299 427.897L374.24 425.689Z" fill="white"/>
<path opacity="0.54" d="M377.299 431.689L356.096 453.794V458.136L377.862 435.44L377.299 431.689Z" fill="white"/>
<path d="M378.235 462.525H354.598V424.551H378.235V462.525ZM356.469 459.668H376.363V427.407H356.469V459.668Z" fill="#5E7391"/>
<path d="M379.946 458.608H352.887V464.237H379.946V458.608Z" fill="#2B333F"/>
<path d="M377.299 441.82H355.533V444.225H377.299V441.82Z" fill="#5E7391"/>
<path d="M379.946 464.237H352.887V466.756H379.946V464.237Z" fill="#92A6C2"/>
<path d="M417.229 425.979H395.464V461.097H417.229V425.979Z" fill="#DAE6F1"/>
<path opacity="0.54" d="M414.17 425.689L395.464 444.225V450.593L417.229 427.897L414.17 425.689Z" fill="white"/>
<path opacity="0.54" d="M417.229 431.689L396.027 453.794V458.136L417.792 435.44L417.229 431.689Z" fill="white"/>
<path d="M418.165 462.525H394.528V424.551H418.165V462.525ZM396.4 459.668H416.294V427.407H396.4V459.668Z" fill="#5E7391"/>
<path d="M419.876 458.608H392.817V464.237H419.876V458.608Z" fill="#2B333F"/>
<path d="M417.229 441.82H395.464V444.225H417.229V441.82Z" fill="#5E7391"/>
<path d="M419.876 464.237H392.817V466.756H419.876V464.237Z" fill="#92A6C2"/>
<path d="M457.16 425.979H435.395V461.097H457.16V425.979Z" fill="#DAE6F1"/>
<path opacity="0.54" d="M454.101 425.689L435.395 444.225V450.593L457.16 427.897L454.101 425.689Z" fill="white"/>
<path opacity="0.54" d="M457.16 431.689L435.957 453.794V458.136L457.723 435.44L457.16 431.689Z" fill="white"/>
<path d="M458.096 462.525H434.459V424.551H458.096V462.525ZM436.33 459.668H456.224V427.407H436.33V459.668Z" fill="#5E7391"/>
<path d="M459.807 458.608H432.748V464.237H459.807V458.608Z" fill="#2B333F"/>
<path d="M457.16 441.82H435.395V444.225H457.16V441.82Z" fill="#5E7391"/>
<path d="M459.807 464.237H432.748V466.756H459.807V464.237Z" fill="#92A6C2"/>
<path d="M383.339 536.544V491.695H422.675V536.544" stroke="#DAE6F1" stroke-width="1.106" stroke-miterlimit="10"/>
<path d="M619.383 310.433H524.334V536.544H619.383V310.433Z" fill="#A7B7D4"/>
<path d="M659.698 310.433H619.383V536.544H659.698V310.433Z" fill="#4870B2"/>
<path d="M619.384 300.576H516.804V310.433H619.384V300.576Z" fill="#2B333F"/>
<path d="M667.042 300.576H619.383V310.433H667.042V300.576Z" fill="#111416"/>
<path d="M558.653 367.491H536.888V343.255C536.888 340.369 538.034 337.601 540.075 335.56C542.116 333.519 544.884 332.373 547.77 332.372V332.372C549.199 332.372 550.614 332.654 551.935 333.201C553.255 333.748 554.455 334.549 555.465 335.56C556.476 336.57 557.278 337.77 557.825 339.09C558.372 340.411 558.653 341.826 558.653 343.255V367.491Z" stroke="#DAE6F1" stroke-width="1.106" stroke-miterlimit="10"/>
<path d="M561.3 365.002H534.241V369.191H561.3V365.002Z" fill="#2B333F"/>
<path d="M561.3 369.191H534.241V371.71H561.3V369.191Z" fill="#92A6C2"/>
<path d="M599.524 367.491H577.759V343.255C577.759 341.826 578.04 340.411 578.587 339.09C579.134 337.77 579.936 336.57 580.946 335.56C581.957 334.549 583.157 333.748 584.477 333.201C585.797 332.654 587.212 332.372 588.641 332.372C591.528 332.372 594.296 333.519 596.337 335.56C598.378 337.601 599.524 340.369 599.524 343.255V367.491Z" stroke="#DAE6F1" stroke-width="1.106" stroke-miterlimit="10"/>
<path d="M602.171 365.002H575.112V369.191H602.171V365.002Z" fill="#2B333F"/>
<path d="M602.171 369.191H575.112V371.71H602.171V369.191Z" fill="#92A6C2"/>
<path d="M558.653 418.459H536.888V394.223C536.888 391.337 538.034 388.569 540.075 386.528C542.116 384.487 544.884 383.341 547.77 383.341V383.341C550.656 383.341 553.424 384.487 555.465 386.528C557.506 388.569 558.653 391.337 558.653 394.223L558.653 418.459Z" stroke="#DAE6F1" stroke-width="1.106" stroke-miterlimit="10"/>
<path d="M561.3 415.97H534.241V420.159H561.3V415.97Z" fill="#2B333F"/>
<path d="M561.3 420.159H534.241V422.678H561.3V420.159Z" fill="#92A6C2"/>
<path d="M599.524 418.459H577.759V394.223C577.759 392.794 578.04 391.379 578.587 390.059C579.134 388.738 579.936 387.539 580.946 386.528C581.957 385.518 583.157 384.716 584.477 384.169C585.797 383.622 587.212 383.341 588.641 383.341C591.528 383.341 594.296 384.487 596.337 386.528C598.378 388.569 599.524 391.337 599.524 394.223V418.459Z" stroke="#DAE6F1" stroke-width="1.106" stroke-miterlimit="10"/>
<path d="M602.171 415.97H575.112V420.159H602.171V415.97Z" fill="#2B333F"/>
<path d="M602.171 420.159H575.112V422.678H602.171V420.159Z" fill="#92A6C2"/>
<path d="M558.653 469.427H536.888V445.192C536.888 442.305 538.034 439.537 540.075 437.497C542.116 435.456 544.884 434.309 547.77 434.309C549.199 434.309 550.614 434.59 551.935 435.137C553.255 435.684 554.455 436.486 555.465 437.496C556.476 438.507 557.277 439.707 557.824 441.027C558.371 442.347 558.653 443.763 558.653 445.192L558.653 469.427Z" stroke="#DAE6F1" stroke-width="1.106" stroke-miterlimit="10"/>
<path d="M561.3 466.939H534.241V471.128H561.3V466.939Z" fill="#2B333F"/>
<path d="M561.3 471.128H534.241V473.646H561.3V471.128Z" fill="#92A6C2"/>
<path d="M599.524 469.427H577.759V445.192C577.759 443.763 578.04 442.347 578.587 441.027C579.134 439.707 579.936 438.507 580.946 437.496C581.957 436.486 583.157 435.684 584.477 435.137C585.797 434.59 587.212 434.309 588.641 434.309C591.528 434.309 594.296 435.456 596.337 437.496C598.378 439.537 599.524 442.305 599.524 445.192V469.427Z" stroke="#DAE6F1" stroke-width="1.106" stroke-miterlimit="10"/>
<path d="M602.171 466.939H575.112V471.128H602.171V466.939Z" fill="#2B333F"/>
<path d="M602.171 471.128H575.112V473.646H602.171V471.128Z" fill="#92A6C2"/>
<path d="M590.545 515.203C588.228 515.203 585.933 514.746 583.792 513.859C581.651 512.972 579.706 511.673 578.067 510.034C576.428 508.395 575.129 506.45 574.242 504.309C573.355 502.168 572.898 499.873 572.898 497.556V470.07C572.898 467.753 573.355 465.458 574.242 463.317C575.129 461.176 576.428 459.231 578.067 457.592C579.706 455.954 581.651 454.654 583.792 453.767C585.933 452.88 588.228 452.424 590.545 452.424C595.225 452.424 599.714 454.283 603.023 457.592C606.333 460.902 608.192 465.39 608.192 470.07V497.556C608.192 502.236 606.333 506.725 603.023 510.034C599.714 513.343 595.225 515.203 590.545 515.203Z" fill="white"/>
<path d="M590.545 470.788V532.61" stroke="#2B333F" stroke-width="1.4313" stroke-miterlimit="10"/>
<path d="M590.545 492L599.656 482.346" stroke="#2B333F" stroke-width="1.4313" stroke-miterlimit="10"/>
<path d="M708.315 469.971C712.371 453.035 701.929 436.017 684.993 431.961C668.057 427.905 651.039 438.347 646.983 455.283C642.927 472.22 653.369 489.237 670.305 493.293C687.242 497.349 704.259 486.908 708.315 469.971Z" fill="#7CACDB"/>
<path d="M677.648 451.669V528.782" stroke="#2B333F" stroke-width="1.4313" stroke-miterlimit="10"/>
<path d="M677.648 472.881L686.759 463.227" stroke="#2B333F" stroke-width="1.4313" stroke-miterlimit="10"/>
<path d="M89.1577 500.956C106.573 500.956 120.691 486.838 120.691 469.423C120.691 452.008 106.573 437.89 89.1577 437.89C71.7424 437.89 57.6245 452.008 57.6245 469.423C57.6245 486.838 71.7424 500.956 89.1577 500.956Z" fill="#7CACDB"/>
<path d="M89.1577 458.465V535.578" stroke="#2B333F" stroke-width="1.4313" stroke-miterlimit="10"/>
<path d="M89.1577 479.677L98.2687 470.023" stroke="#2B333F" stroke-width="1.4313" stroke-miterlimit="10"/>
<path d="M184.207 519.137C181.89 519.137 179.595 518.68 177.454 517.794C175.313 516.907 173.367 515.607 171.729 513.968C170.09 512.33 168.79 510.384 167.903 508.243C167.017 506.102 166.56 503.807 166.56 501.49V474.005C166.56 471.687 167.016 469.392 167.903 467.251C168.79 465.11 170.09 463.165 171.729 461.526C173.367 459.888 175.313 458.588 177.454 457.701C179.595 456.814 181.889 456.358 184.207 456.358C188.887 456.358 193.375 458.217 196.685 461.526C199.994 464.836 201.854 469.324 201.854 474.005V501.49C201.854 506.17 199.994 510.659 196.685 513.968C193.376 517.277 188.887 519.137 184.207 519.137Z" fill="white"/>
<path d="M184.207 474.722V536.544" stroke="#2B333F" stroke-width="1.4313" stroke-miterlimit="10"/>
<path d="M184.207 495.934L193.318 486.28" stroke="#2B333F" stroke-width="1.4313" stroke-miterlimit="10"/>
<path d="M524.334 515.207C518.316 515.207 512.496 517.357 507.923 521.27C503.35 525.182 500.324 530.599 499.392 536.544H549.276C548.344 530.599 545.319 525.182 540.746 521.27C536.173 517.357 530.352 515.207 524.334 515.207Z" fill="#7CACDB"/>
<path d="M57.6248 515.207C51.6066 515.207 45.7865 517.357 41.2134 521.27C36.6403 525.182 33.615 530.599 32.6826 536.544H82.5669C81.6346 530.599 78.6093 525.182 74.0362 521.27C69.4631 517.357 63.643 515.207 57.6248 515.207Z" fill="#7CACDB"/>
<path d="M677.649 515.207C671.631 515.207 665.81 517.357 661.237 521.27C656.664 525.182 653.639 530.599 652.707 536.544H702.591C701.658 530.599 698.633 525.182 694.06 521.27C689.487 517.357 683.667 515.207 677.649 515.207Z" fill="#7CACDB"/>
<path d="M91.6075 523.85C88.0272 523.85 84.5648 525.129 81.8442 527.457C79.1236 529.784 77.3237 533.007 76.769 536.544H106.446C105.891 533.007 104.092 529.784 101.371 527.457C98.6503 525.129 95.1879 523.85 91.6075 523.85Z" fill="#7CACDB"/>
<path d="M210.178 523.85C206.598 523.85 203.135 525.129 200.415 527.457C197.694 529.784 195.894 533.007 195.34 536.544H225.017C224.462 533.007 222.662 529.784 219.942 527.457C217.221 525.129 213.759 523.85 210.178 523.85Z" fill="#7CACDB"/>
<path d="M600.455 521.826C596.304 521.826 592.289 523.309 589.135 526.008C585.98 528.706 583.893 532.443 583.25 536.544H617.66C617.017 532.443 614.93 528.706 611.776 526.008C608.621 523.309 604.606 521.826 600.455 521.826Z" fill="#7CACDB"/>
<path d="M750 536.075H0V638H750V536.075Z" fill="#FAFAFA"/>
<path d="M750 536.075H0V559.843H750V536.075Z" fill="#B9C9E0"/>
<path d="M277.82 603.284L459.303 602.118C463.559 602.073 467.623 600.339 470.601 597.297C473.579 594.255 475.226 590.155 475.181 585.899L475.235 337.396C475.19 333.14 473.456 329.076 470.414 326.098C467.372 323.12 463.272 321.473 459.016 321.518L277.533 322.684C275.426 322.706 273.343 323.144 271.405 323.971C269.466 324.798 267.71 325.999 266.235 327.505C264.761 329.011 263.597 330.793 262.812 332.749C262.026 334.704 261.633 336.796 261.655 338.903L261.601 587.406C261.646 591.662 263.381 595.726 266.422 598.704C269.464 601.682 273.564 603.329 277.82 603.284Z" fill="#1C1C1C"/>
<path d="M281.559 594.283L455.429 593.183C457.074 593.165 458.699 592.824 460.211 592.179C461.724 591.533 463.095 590.596 464.245 589.421C465.396 588.246 466.304 586.855 466.917 585.329C467.53 583.803 467.837 582.171 467.819 580.527L467.919 341.467C467.902 339.822 467.561 338.197 466.915 336.685C466.27 335.172 465.333 333.801 464.157 332.651C462.982 331.5 461.592 330.592 460.066 329.979C458.54 329.366 456.908 329.059 455.263 329.077L281.393 330.178C279.748 330.195 278.123 330.536 276.611 331.182C275.098 331.827 273.727 332.764 272.577 333.939C271.426 335.115 270.518 336.505 269.905 338.031C269.292 339.557 268.985 341.189 269.003 342.833L268.903 581.893C268.92 583.538 269.261 585.163 269.907 586.676C270.552 588.188 271.489 589.559 272.665 590.709C273.84 591.86 275.23 592.768 276.756 593.381C278.282 593.994 279.914 594.301 281.559 594.283Z" fill="white"/>
<path d="M269 439H324.541C328.906 439 333.093 437.382 336.179 434.503C339.266 431.624 341 427.719 341 423.648V330" stroke="#DAE6F1" stroke-width="5.7956" stroke-miterlimit="10"/>
<path d="M377 330V385.839C377 389.329 378.508 392.677 381.191 395.145C383.875 397.613 387.515 399 391.31 399H468" stroke="#DAE6F1" stroke-width="5.7956" stroke-miterlimit="10"/>
<path d="M269 471L468 469" stroke="#DAE6F1" stroke-width="5.7956" stroke-miterlimit="10"/>
<path d="M444.894 421.417H361.472C359.228 421.417 357.408 423.236 357.408 425.48V446.464C357.408 448.709 359.228 450.528 361.472 450.528H444.894C447.138 450.528 448.958 448.709 448.958 446.464V425.48C448.958 423.236 447.138 421.417 444.894 421.417Z" fill="#B2D235"/>
<path d="M370.066 439.456C369.425 439.456 368.803 439.371 368.2 439.201C367.605 439.023 367.126 438.795 366.763 438.517L367.4 437.103C367.748 437.358 368.161 437.563 368.64 437.717C369.119 437.872 369.599 437.949 370.078 437.949C370.611 437.949 371.005 437.872 371.26 437.717C371.515 437.555 371.642 437.343 371.642 437.08C371.642 436.887 371.565 436.728 371.411 436.605C371.264 436.473 371.071 436.369 370.831 436.292C370.599 436.214 370.282 436.129 369.881 436.037C369.262 435.89 368.756 435.743 368.362 435.596C367.968 435.449 367.628 435.214 367.342 434.889C367.064 434.565 366.925 434.132 366.925 433.591C366.925 433.12 367.052 432.695 367.307 432.316C367.562 431.93 367.945 431.624 368.455 431.4C368.973 431.176 369.602 431.064 370.344 431.064C370.862 431.064 371.368 431.126 371.863 431.25C372.357 431.373 372.79 431.551 373.161 431.783L372.581 433.208C371.832 432.783 371.082 432.571 370.333 432.571C369.807 432.571 369.417 432.656 369.162 432.826C368.915 432.996 368.791 433.22 368.791 433.498C368.791 433.776 368.934 433.985 369.22 434.124C369.514 434.256 369.958 434.387 370.553 434.518C371.171 434.665 371.677 434.812 372.071 434.959C372.465 435.106 372.802 435.337 373.08 435.654C373.366 435.971 373.509 436.4 373.509 436.941C373.509 437.404 373.377 437.829 373.115 438.216C372.86 438.594 372.473 438.896 371.955 439.12C371.438 439.344 370.808 439.456 370.066 439.456ZM381.074 437.81V439.317H374.792V431.203H380.923V432.71H376.658V434.472H380.425V435.932H376.658V437.81H381.074ZM387.912 437.578H384.145L383.426 439.317H381.502L385.118 431.203H386.973L390.601 439.317H388.63L387.912 437.578ZM387.321 436.153L386.034 433.046L384.747 436.153H387.321ZM396.612 439.317L395.048 437.057H394.955H393.321V439.317H391.443V431.203H394.955C395.674 431.203 396.296 431.323 396.821 431.563C397.354 431.802 397.764 432.142 398.05 432.583C398.336 433.023 398.479 433.545 398.479 434.147C398.479 434.75 398.332 435.272 398.038 435.712C397.752 436.145 397.343 436.477 396.809 436.709L398.629 439.317H396.612ZM396.578 434.147C396.578 433.691 396.431 433.344 396.137 433.104C395.844 432.857 395.415 432.733 394.851 432.733H393.321V435.561H394.851C395.415 435.561 395.844 435.438 396.137 435.191C396.431 434.943 396.578 434.596 396.578 434.147ZM403.849 439.456C403.023 439.456 402.273 439.278 401.601 438.923C400.936 438.56 400.411 438.061 400.024 437.428C399.646 436.786 399.456 436.064 399.456 435.26C399.456 434.456 399.646 433.738 400.024 433.104C400.411 432.463 400.936 431.964 401.601 431.609C402.273 431.246 403.026 431.064 403.861 431.064C404.564 431.064 405.198 431.188 405.762 431.435C406.334 431.682 406.813 432.038 407.199 432.501L405.994 433.614C405.445 432.98 404.765 432.664 403.954 432.664C403.451 432.664 403.003 432.776 402.609 433C402.215 433.216 401.906 433.521 401.682 433.916C401.465 434.31 401.357 434.758 401.357 435.26C401.357 435.762 401.465 436.211 401.682 436.605C401.906 436.999 402.215 437.308 402.609 437.532C403.003 437.748 403.451 437.857 403.954 437.857C404.765 437.857 405.445 437.536 405.994 436.894L407.199 438.007C406.813 438.479 406.334 438.838 405.762 439.085C405.19 439.332 404.553 439.456 403.849 439.456ZM415.909 431.203V439.317H414.031V435.99H410.345V439.317H408.467V431.203H410.345V434.402H414.031V431.203H415.909Z" fill="white"/>
<path d="M269 505H306.707C308.584 505 310.443 505.292 312.177 505.859C313.911 506.427 315.486 507.258 316.814 508.307C318.141 509.355 319.194 510.6 319.912 511.97C320.63 513.34 321 514.808 321 516.29V594" stroke="#DAE6F1" stroke-width="5.7956" stroke-miterlimit="10"/>
<path d="M380 594V519.055C380 517.21 380.419 515.382 381.233 513.677C382.047 511.971 383.24 510.422 384.744 509.117C386.248 507.812 388.034 506.776 389.999 506.07C391.965 505.364 394.071 505 396.198 505H505" stroke="#DAE6F1" stroke-width="5.7956" stroke-miterlimit="10"/>
<path d="M361.571 547.363H361.568C362.554 545.51 363.043 543.433 362.989 541.335C362.934 539.237 362.337 537.188 361.256 535.389C360.175 533.589 358.647 532.1 356.82 531.067C354.993 530.033 352.93 529.49 350.831 529.49C348.732 529.49 346.668 530.033 344.841 531.067C343.015 532.1 341.486 533.589 340.405 535.389C339.324 537.188 338.728 539.237 338.673 541.335C338.618 543.433 339.108 545.51 340.094 547.363H340.09L340.117 547.411C340.133 547.442 340.151 547.473 340.167 547.503L348.369 562.395C348.612 562.836 348.968 563.203 349.401 563.459C349.834 563.715 350.328 563.85 350.831 563.85C351.334 563.85 351.828 563.715 352.261 563.459C352.694 563.203 353.05 562.836 353.293 562.395L361.494 547.503C361.511 547.473 361.528 547.442 361.545 547.411L361.571 547.363Z" fill="#B2D235"/>
<path d="M317.474 387.351H317.471C318.457 385.497 318.946 383.421 318.891 381.322C318.837 379.224 318.24 377.175 317.159 375.376C316.078 373.576 314.55 372.087 312.723 371.054C310.896 370.02 308.833 369.477 306.734 369.477C304.635 369.477 302.571 370.02 300.744 371.054C298.917 372.087 297.389 373.576 296.308 375.376C295.227 377.175 294.63 379.224 294.576 381.322C294.521 383.421 295.011 385.497 295.997 387.351H295.993L296.02 387.398C296.036 387.429 296.053 387.46 296.07 387.49L304.272 402.382C304.515 402.823 304.871 403.19 305.304 403.446C305.737 403.702 306.231 403.837 306.734 403.837C307.237 403.837 307.73 403.702 308.163 403.446C308.596 403.19 308.953 402.823 309.196 402.382L317.397 387.49C317.414 387.46 317.431 387.429 317.448 387.398L317.474 387.351Z" fill="#B2D235"/>
<path d="M282.416 606.753L268.009 638H212.254L244.449 587.454L282.416 606.753Z" fill="#D3825E"/>
<path d="M294.804 475.296C293.359 474.381 291.716 473.827 290.013 473.68C283.225 473.06 279.122 477.634 277.012 493.85C274.452 513.53 276.788 529.187 265.335 532.862C264.111 533.247 262.864 533.553 261.601 533.778V459.124C251.401 476.355 240.998 499.717 233.717 511.418C229.043 518.929 226.845 527.918 228.794 536.547C239.88 585.631 239.336 626.316 253.474 630.166C253.474 630.166 299.268 628.767 299.263 537.008C299.263 537.008 299.776 490.828 297.719 480.533C297.055 477.21 295.669 475.934 294.804 475.296Z" fill="#D3825E"/>
<path d="M284.257 490.829C284.257 490.829 283.036 476.866 291.12 476.866C298.092 476.866 296.876 490.829 296.876 490.829H284.257Z" fill="#E3997D"/>
<path d="M261.601 533.778L252.865 535.53L261.601 490.771V533.778Z" fill="#BE6A47"/>
<path d="M500.052 525.442L479.929 483.848C478.887 481.608 477.004 479.869 474.689 479.008C472.373 478.147 469.812 478.232 467.559 479.246C465.314 480.257 463.556 482.109 462.663 484.403C461.77 486.697 461.814 489.249 462.784 491.512L481.209 532.23L500.052 525.442Z" fill="#D3825E"/>
<path d="M467.559 479.246C467.559 479.246 443.988 496.866 419.506 502.246C418.474 502.467 417.548 503.034 416.882 503.855C416.217 504.675 415.853 505.698 415.85 506.754C415.846 507.883 416.257 508.973 417.005 509.818C417.753 510.663 418.786 511.204 419.907 511.337C429.053 512.378 449.213 514.718 476.002 493.257L467.559 479.246Z" fill="#D3825E"/>
<path d="M429.456 499.345C429.456 499.345 432.419 504.452 424.789 505.637C420.13 506.361 418.381 505.144 417.725 504.086C417.643 503.945 417.594 503.787 417.584 503.624C417.573 503.461 417.601 503.297 417.666 503.147C417.73 502.997 417.829 502.864 417.954 502.759C418.079 502.653 418.227 502.579 418.386 502.542L429.456 499.345Z" fill="#E3997D"/>
<path d="M514.616 527.075L494.493 485.481C493.451 483.241 491.568 481.502 489.253 480.641C486.938 479.78 484.376 479.866 482.123 480.88C479.879 481.89 478.121 483.742 477.228 486.036C476.335 488.33 476.378 490.883 477.348 493.145L495.773 533.863L514.616 527.075Z" fill="#D3825E"/>
<path d="M528.585 533.861C528.585 533.861 515.294 500.326 508.341 489.744C505.517 485.447 500.658 483.032 495.971 485.143C493.726 486.153 491.968 488.005 491.075 490.299C490.182 492.593 490.225 495.146 491.196 497.408L509.62 538.126L528.585 533.861Z" fill="#D3825E"/>
<path d="M455.292 535.167C455.041 535.073 454.798 534.958 454.566 534.824C452.342 533.534 438.158 525.872 426.123 523.241C423.235 522.545 420.218 522.592 417.353 523.377C414.487 524.161 411.867 525.658 409.737 527.728C406.893 530.684 408.903 535.083 412.89 536.045C426.105 539.232 429.944 543.828 436.471 548.528C451.156 559.103 458.569 594.196 497.763 596.276C500.138 596.402 519.059 595.587 519.657 593.285L511.096 560.963C511.405 559.777 511.263 558.519 510.7 557.43C510.136 556.342 509.19 555.501 508.044 555.069L455.292 535.167Z" fill="#D3825E"/>
<path d="M454.895 535.018C454.895 535.018 459.72 534.833 458.736 525.978C458.736 525.978 491.862 512.694 520.398 515.397C520.398 515.397 537.128 551.804 550.579 588.414L483.97 591.243L454.895 535.018Z" fill="#D3825E"/>
<path d="M460.139 531.091C460.139 531.091 457.615 509.442 428.441 455.026C426.773 451.913 420.577 439.127 426.529 435.116C430.341 432.546 434.476 435.58 437.563 439.265C439.333 441.379 443.941 449.244 445.391 451.608C461.621 478.06 486.033 522.413 486.033 522.413L460.139 531.091Z" fill="#D3825E"/>
<path d="M463.723 481.943L483.124 516.928" stroke="#BE6A47" stroke-width="1.0163" stroke-miterlimit="10"/>
<path d="M479.395 482.744L494.704 511.247" stroke="#BE6A47" stroke-width="1.0163" stroke-miterlimit="10"/>
<path d="M494.702 485.835L506.187 506.955" stroke="#BE6A47" stroke-width="1.0163" stroke-miterlimit="10"/>
<path d="M445.558 492.974L451.811 507.879" stroke="#BE6A47" stroke-width="1.0163" stroke-miterlimit="10"/>
<path d="M443.291 448.159C443.291 448.159 435.564 451.097 431.879 444.744C429.549 440.728 429.878 437.738 430.817 436.13C431.003 435.851 431.243 435.611 431.523 435.424C431.802 435.238 432.116 435.11 432.446 435.046C432.776 434.982 433.115 434.985 433.444 435.053C433.773 435.122 434.085 435.256 434.362 435.446C437.305 438.541 441.217 445.053 443.291 448.159Z" fill="#E3997D"/>
<path d="M412.89 536.045C412.89 536.045 413.079 530.027 419.823 532.07C419.823 532.07 425.382 533.807 426.492 535.305L424.514 540.242C424.514 540.242 422.068 538.715 412.89 536.045Z" fill="#E3997D"/>
<path d="M454.895 535.018C454.895 535.018 459.712 534.657 458.736 525.978C458.736 525.978 462.821 534.737 462.361 543.004C462.361 543.004 457.754 536.592 454.895 535.018Z" fill="#BE6A47"/>
<path d="M550.579 588.414L578.185 638H518.659L495.311 580.014L550.579 588.414Z" fill="#D3825E"/>
<path d="M463.715 316.291H463.704C467.099 309.909 468.785 302.757 468.597 295.53C468.408 288.304 466.353 281.249 462.631 275.053C458.908 268.856 453.645 263.728 447.354 260.168C441.063 256.609 433.957 254.738 426.728 254.738C419.499 254.738 412.394 256.609 406.102 260.168C399.811 263.728 394.548 268.856 390.826 275.053C387.103 281.249 385.048 288.304 384.86 295.53C384.672 302.757 386.357 309.909 389.752 316.291H389.741L389.832 316.456C389.889 316.562 389.948 316.667 390.006 316.772L418.25 368.056C419.086 369.573 420.313 370.838 421.805 371.72C423.296 372.601 424.996 373.065 426.728 373.065C428.46 373.065 430.161 372.601 431.652 371.72C433.143 370.838 434.371 369.573 435.206 368.056L463.45 316.772C463.508 316.667 463.567 316.562 463.625 316.456L463.715 316.291Z" fill="#B2D235"/>
<path d="M444.402 286.249L427.653 273.349C427.34 273.102 426.952 272.968 426.553 272.968C426.155 272.968 425.767 273.102 425.454 273.349L418.982 278.297V274.62C418.981 274.385 418.887 274.16 418.721 273.993C418.554 273.827 418.329 273.733 418.094 273.732H414.626C414.391 273.733 414.166 273.827 413.999 273.993C413.833 274.16 413.739 274.385 413.738 274.62V282.358L408.662 286.207C408.368 286.44 408.152 286.759 408.046 287.12C407.939 287.481 407.946 287.866 408.067 288.222C408.187 288.578 408.415 288.889 408.718 289.111C409.022 289.333 409.386 289.456 409.762 289.464H410.524V311.4H442.542V289.463H443.303C443.678 289.464 444.044 289.348 444.349 289.131C444.655 288.913 444.884 288.605 445.006 288.25C445.127 287.895 445.134 287.511 445.026 287.152C444.918 286.793 444.7 286.477 444.402 286.249ZM430.445 306.382H422.662V298.218C422.667 297.19 423.08 296.205 423.809 295.48C424.538 294.754 425.525 294.347 426.553 294.347C427.582 294.347 428.569 294.754 429.298 295.48C430.027 296.205 430.44 297.19 430.445 298.218V306.382Z" fill="white"/>
<path d="M409.355 318.337L410.443 321.265C410.456 321.299 410.479 321.329 410.508 321.35C410.538 321.371 410.573 321.384 410.609 321.385L413.73 321.516C413.768 321.517 413.804 321.531 413.834 321.553C413.864 321.576 413.887 321.608 413.898 321.644C413.91 321.68 413.911 321.718 413.9 321.754C413.889 321.79 413.867 321.822 413.837 321.846L411.389 323.786C411.361 323.809 411.34 323.839 411.328 323.874C411.317 323.908 411.316 323.946 411.326 323.981L412.166 326.989C412.176 327.026 412.175 327.064 412.163 327.1C412.15 327.136 412.127 327.167 412.097 327.189C412.066 327.211 412.029 327.224 411.992 327.224C411.954 327.225 411.917 327.214 411.885 327.193L409.284 325.465C409.253 325.445 409.217 325.434 409.181 325.434C409.145 325.434 409.109 325.445 409.079 325.465L406.477 327.193C406.445 327.214 406.408 327.225 406.37 327.224C406.333 327.224 406.296 327.211 406.266 327.189C406.235 327.167 406.212 327.136 406.199 327.1C406.187 327.064 406.186 327.026 406.196 326.989L407.036 323.981C407.046 323.946 407.045 323.908 407.034 323.874C407.023 323.839 407.001 323.809 406.973 323.786L404.525 321.846C404.495 321.822 404.473 321.79 404.462 321.754C404.452 321.718 404.452 321.68 404.464 321.644C404.475 321.608 404.498 321.576 404.528 321.553C404.558 321.531 404.594 321.517 404.632 321.516L407.753 321.385C407.789 321.384 407.824 321.371 407.854 321.35C407.883 321.329 407.906 321.299 407.919 321.265L409.007 318.337C409.021 318.302 409.044 318.271 409.075 318.25C409.106 318.228 409.143 318.216 409.181 318.216C409.219 318.216 409.256 318.228 409.287 318.25C409.318 318.271 409.342 318.302 409.355 318.337Z" fill="white"/>
<path d="M420.925 318.337L422.014 321.265C422.027 321.299 422.049 321.329 422.079 321.35C422.108 321.371 422.144 321.384 422.18 321.385L425.301 321.516C425.339 321.517 425.375 321.531 425.405 321.553C425.435 321.576 425.458 321.608 425.469 321.644C425.481 321.68 425.481 321.718 425.47 321.754C425.459 321.79 425.438 321.822 425.408 321.846L422.96 323.786C422.932 323.808 422.91 323.839 422.899 323.874C422.888 323.908 422.887 323.946 422.897 323.981L423.737 326.989C423.747 327.026 423.746 327.064 423.733 327.1C423.721 327.136 423.698 327.167 423.667 327.189C423.637 327.211 423.6 327.223 423.562 327.224C423.525 327.225 423.487 327.214 423.456 327.193L420.854 325.465C420.824 325.445 420.788 325.434 420.752 325.434C420.715 325.434 420.68 325.445 420.649 325.465L418.048 327.193C418.016 327.214 417.979 327.225 417.941 327.224C417.903 327.223 417.867 327.211 417.836 327.189C417.806 327.167 417.783 327.136 417.77 327.1C417.758 327.064 417.757 327.026 417.767 326.989L418.607 323.981C418.617 323.946 418.616 323.908 418.605 323.874C418.593 323.839 418.572 323.808 418.544 323.786L416.096 321.846C416.066 321.822 416.044 321.79 416.033 321.754C416.022 321.718 416.023 321.68 416.034 321.644C416.046 321.608 416.068 321.576 416.099 321.553C416.129 321.531 416.165 321.517 416.203 321.516L419.324 321.385C419.36 321.384 419.395 321.371 419.425 321.35C419.454 321.329 419.477 321.299 419.489 321.265L420.578 318.337C420.591 318.302 420.615 318.271 420.646 318.25C420.677 318.228 420.714 318.217 420.752 318.217C420.79 318.217 420.827 318.228 420.858 318.25C420.889 318.271 420.912 318.302 420.925 318.337Z" fill="white"/>
<path d="M432.497 318.337L433.585 321.265C433.598 321.299 433.621 321.329 433.65 321.35C433.68 321.371 433.715 321.384 433.751 321.385L436.872 321.516C436.91 321.517 436.946 321.531 436.976 321.553C437.006 321.576 437.029 321.608 437.04 321.644C437.052 321.68 437.053 321.718 437.042 321.754C437.031 321.79 437.009 321.822 436.979 321.846L434.531 323.786C434.503 323.808 434.482 323.839 434.47 323.874C434.459 323.908 434.458 323.946 434.468 323.981L435.308 326.989C435.318 327.026 435.317 327.064 435.305 327.1C435.292 327.136 435.269 327.167 435.239 327.189C435.208 327.211 435.171 327.223 435.134 327.224C435.096 327.225 435.059 327.214 435.027 327.193L432.426 325.465C432.395 325.445 432.36 325.434 432.323 325.434C432.287 325.434 432.251 325.445 432.221 325.465L429.619 327.193C429.587 327.214 429.55 327.225 429.513 327.224C429.475 327.223 429.438 327.211 429.408 327.189C429.377 327.167 429.354 327.136 429.342 327.1C429.329 327.064 429.328 327.026 429.338 326.989L430.178 323.981C430.188 323.946 430.187 323.908 430.176 323.874C430.165 323.839 430.143 323.808 430.115 323.786L427.667 321.846C427.637 321.822 427.615 321.79 427.605 321.754C427.594 321.718 427.594 321.68 427.606 321.644C427.617 321.608 427.64 321.576 427.67 321.553C427.7 321.531 427.736 321.517 427.774 321.516L430.895 321.385C430.931 321.384 430.967 321.371 430.996 321.35C431.025 321.329 431.048 321.299 431.061 321.265L432.15 318.337C432.163 318.302 432.186 318.271 432.217 318.25C432.248 318.228 432.285 318.217 432.323 318.217C432.361 318.217 432.398 318.228 432.429 318.25C432.46 318.271 432.484 318.302 432.497 318.337Z" fill="white"/>
<path d="M444.068 318.337L445.156 321.265C445.169 321.299 445.192 321.329 445.221 321.35C445.251 321.371 445.286 321.384 445.322 321.385L448.443 321.516C448.481 321.517 448.517 321.531 448.547 321.553C448.577 321.576 448.6 321.608 448.611 321.644C448.623 321.68 448.623 321.718 448.612 321.754C448.602 321.79 448.58 321.822 448.55 321.846L446.102 323.786C446.074 323.808 446.052 323.839 446.041 323.874C446.03 323.908 446.029 323.946 446.039 323.981L446.879 326.989C446.889 327.026 446.888 327.064 446.875 327.1C446.863 327.136 446.84 327.167 446.809 327.189C446.779 327.211 446.742 327.223 446.704 327.224C446.667 327.225 446.63 327.214 446.598 327.193L443.996 325.465C443.966 325.445 443.93 325.434 443.894 325.434C443.857 325.434 443.822 325.445 443.791 325.465L441.19 327.193C441.158 327.214 441.121 327.225 441.083 327.224C441.046 327.223 441.009 327.211 440.978 327.189C440.948 327.167 440.925 327.136 440.912 327.1C440.9 327.064 440.899 327.026 440.909 326.989L441.749 323.981C441.759 323.946 441.758 323.908 441.747 323.874C441.735 323.839 441.714 323.808 441.686 323.786L439.238 321.846C439.208 321.822 439.186 321.79 439.175 321.754C439.164 321.718 439.165 321.68 439.177 321.644C439.188 321.608 439.211 321.576 439.241 321.553C439.271 321.531 439.307 321.517 439.345 321.516L442.466 321.385C442.502 321.384 442.537 321.371 442.567 321.35C442.596 321.329 442.619 321.299 442.632 321.265L443.72 318.337C443.733 318.302 443.757 318.271 443.788 318.25C443.819 318.228 443.856 318.217 443.894 318.217C443.932 318.217 443.969 318.228 444 318.25C444.031 318.271 444.054 318.302 444.068 318.337Z" fill="white"/>
</g>
<defs>
<clipPath id="clip0_11_504">
<rect width="750" height="500" fill="white" transform="translate(0 138)"/>
</clipPath>
</defs>
</svg>
