<svg width="687" height="548" viewBox="0 0 687 548" fill="none" xmlns="http://www.w3.org/2000/svg">
<path d="M637.078 235.641H586.499V297.016H573.481V262.266H509.152V317.284H500.639V188.163H444.735V223.614H416.081V267.702H407.407V239.966H356.579V322.734H341.718V255.442H295.234V204.354H263.625V175.26H227.073V304.322H214.786V250.459H154.553V327.557H146.23V264.633H85.1483V207.935H50.9214V471.992H637.078V235.641Z" fill="#EBEBEB"/>
<rect x="630.877" y="255.091" width="8.55672" height="11.7342" transform="rotate(180 630.877 255.091)" fill="white"/>
<rect x="616.045" y="255.091" width="8.55672" height="11.7342" transform="rotate(180 616.045 255.091)" fill="white"/>
<rect x="601.199" y="255.091" width="8.55672" height="11.7342" transform="rotate(180 601.199 255.091)" fill="white"/>
<rect x="630.877" y="272.743" width="8.55672" height="11.7342" transform="rotate(180 630.877 272.743)" fill="white"/>
<rect x="616.045" y="272.743" width="8.55672" height="11.7342" transform="rotate(180 616.045 272.743)" fill="white"/>
<rect x="601.199" y="272.743" width="8.55672" height="11.7342" transform="rotate(180 601.199 272.743)" fill="white"/>
<rect x="630.877" y="290.396" width="8.55672" height="11.7342" transform="rotate(180 630.877 290.396)" fill="white"/>
<rect x="616.045" y="290.396" width="8.55672" height="11.7342" transform="rotate(180 616.045 290.396)" fill="white"/>
<rect x="601.199" y="290.396" width="8.55672" height="11.7342" transform="rotate(180 601.199 290.396)" fill="white"/>
<rect x="630.877" y="308.063" width="8.55672" height="11.7342" transform="rotate(180 630.877 308.063)" fill="white"/>
<rect x="616.045" y="308.063" width="8.55672" height="11.7342" transform="rotate(180 616.045 308.063)" fill="white"/>
<rect x="601.199" y="308.063" width="8.55672" height="11.7342" transform="rotate(180 601.199 308.063)" fill="white"/>
<rect x="334.58" y="273.635" width="8.55672" height="9.79071" transform="rotate(180 334.58 273.635)" fill="white"/>
<rect x="319.749" y="273.635" width="8.55672" height="9.79071" transform="rotate(180 319.749 273.635)" fill="white"/>
<rect x="304.902" y="273.635" width="8.55672" height="9.79071" transform="rotate(180 304.902 273.635)" fill="white"/>
<rect x="334.58" y="288.35" width="8.55672" height="9.79071" transform="rotate(180 334.58 288.35)" fill="white"/>
<rect x="319.749" y="288.35" width="8.55672" height="9.79071" transform="rotate(180 319.749 288.35)" fill="white"/>
<rect x="304.902" y="288.35" width="8.55672" height="9.79071" transform="rotate(180 304.902 288.35)" fill="white"/>
<rect x="334.58" y="303.08" width="8.55672" height="9.79071" transform="rotate(180 334.58 303.08)" fill="white"/>
<rect x="319.749" y="303.08" width="8.55672" height="9.79071" transform="rotate(180 319.749 303.08)" fill="white"/>
<rect x="304.902" y="303.08" width="8.55672" height="9.79071" transform="rotate(180 304.902 303.08)" fill="white"/>
<rect x="334.58" y="317.81" width="8.55672" height="9.79071" transform="rotate(180 334.58 317.81)" fill="white"/>
<rect x="319.749" y="317.81" width="8.55672" height="9.79071" transform="rotate(180 319.749 317.81)" fill="white"/>
<rect x="304.902" y="317.81" width="8.55672" height="9.79071" transform="rotate(180 304.902 317.81)" fill="white"/>
<rect x="334.58" y="332.905" width="8.55672" height="9.79071" transform="rotate(180 334.58 332.905)" fill="white"/>
<rect x="319.749" y="332.905" width="8.55672" height="9.79071" transform="rotate(180 319.749 332.905)" fill="white"/>
<rect x="304.902" y="332.905" width="8.55672" height="9.79071" transform="rotate(180 304.902 332.905)" fill="white"/>
<rect x="334.58" y="348" width="8.55672" height="9.79071" transform="rotate(180 334.58 348)" fill="white"/>
<rect x="319.749" y="348" width="8.55672" height="9.79071" transform="rotate(180 319.749 348)" fill="white"/>
<rect x="304.902" y="348" width="8.55672" height="9.79071" transform="rotate(180 304.902 348)" fill="white"/>
<rect x="334.58" y="363.081" width="8.55672" height="9.79071" transform="rotate(180 334.58 363.081)" fill="white"/>
<rect x="319.749" y="363.081" width="8.55672" height="9.79071" transform="rotate(180 319.749 363.081)" fill="white"/>
<rect x="304.902" y="363.081" width="8.55672" height="9.79071" transform="rotate(180 304.902 363.081)" fill="white"/>
<rect x="334.58" y="378.176" width="8.55672" height="9.79071" transform="rotate(180 334.58 378.176)" fill="white"/>
<rect x="319.749" y="378.176" width="8.55672" height="9.79071" transform="rotate(180 319.749 378.176)" fill="white"/>
<rect x="304.902" y="378.176" width="8.55672" height="9.79071" transform="rotate(180 304.902 378.176)" fill="white"/>
<rect x="566.167" y="277.127" width="49.2633" height="7.33573" transform="rotate(180 566.167 277.127)" fill="white"/>
<rect x="566.167" y="291.375" width="49.2633" height="7.33573" transform="rotate(180 566.167 291.375)" fill="white"/>
<rect x="566.167" y="305.608" width="49.2633" height="7.33573" transform="rotate(180 566.167 305.608)" fill="white"/>
<rect x="566.167" y="319.841" width="49.2633" height="7.33573" transform="rotate(180 566.167 319.841)" fill="white"/>
<rect x="566.167" y="334.089" width="49.2633" height="7.33573" transform="rotate(180 566.167 334.089)" fill="white"/>
<rect x="566.167" y="348.322" width="49.2633" height="7.33573" transform="rotate(180 566.167 348.322)" fill="white"/>
<rect x="566.167" y="362.57" width="49.2633" height="7.33573" transform="rotate(180 566.167 362.57)" fill="white"/>
<rect x="566.167" y="376.788" width="49.2633" height="7.33573" transform="rotate(180 566.167 376.788)" fill="white"/>
<rect x="207.487" y="264.633" width="45.2994" height="7.33573" transform="rotate(180 207.487 264.633)" fill="white"/>
<rect x="207.487" y="278.881" width="45.2994" height="7.33573" transform="rotate(180 207.487 278.881)" fill="white"/>
<rect x="207.487" y="293.128" width="45.2994" height="7.33573" transform="rotate(180 207.487 293.128)" fill="white"/>
<rect x="207.487" y="307.362" width="45.2994" height="7.33573" transform="rotate(180 207.487 307.362)" fill="white"/>
<rect x="207.487" y="321.595" width="45.2994" height="7.33573" transform="rotate(180 207.487 321.595)" fill="white"/>
<rect x="207.487" y="335.842" width="45.2994" height="7.33573" transform="rotate(180 207.487 335.842)" fill="white"/>
<rect x="207.487" y="350.075" width="45.2994" height="7.33573" transform="rotate(180 207.487 350.075)" fill="white"/>
<rect x="207.487" y="364.323" width="45.2994" height="7.33573" transform="rotate(180 207.487 364.323)" fill="white"/>
<rect x="207.487" y="377.84" width="45.2994" height="7.33573" transform="rotate(180 207.487 377.84)" fill="white"/>
<rect x="207.487" y="391.372" width="45.2994" height="7.33573" transform="rotate(180 207.487 391.372)" fill="white"/>
<rect x="207.487" y="404.903" width="45.2994" height="7.33573" transform="rotate(180 207.487 404.903)" fill="white"/>
<rect x="207.487" y="418.42" width="45.2994" height="7.33573" transform="rotate(180 207.487 418.42)" fill="white"/>
<rect x="207.487" y="431.952" width="45.2994" height="7.33573" transform="rotate(180 207.487 431.952)" fill="white"/>
<rect x="136.811" y="281.833" width="47.8445" height="7.33573" transform="rotate(180 136.811 281.833)" fill="white"/>
<rect x="136.811" y="296.08" width="47.8445" height="7.33573" transform="rotate(180 136.811 296.08)" fill="white"/>
<rect x="136.811" y="310.328" width="47.8445" height="7.33573" transform="rotate(180 136.811 310.328)" fill="white"/>
<rect x="136.811" y="324.561" width="47.8445" height="7.33573" transform="rotate(180 136.811 324.561)" fill="white"/>
<rect x="136.811" y="338.794" width="47.8445" height="7.33573" transform="rotate(180 136.811 338.794)" fill="white"/>
<rect x="136.811" y="353.042" width="47.8445" height="7.33573" transform="rotate(180 136.811 353.042)" fill="white"/>
<rect x="136.811" y="367.275" width="47.8445" height="7.33573" transform="rotate(180 136.811 367.275)" fill="white"/>
<rect x="136.811" y="381.523" width="47.8445" height="7.33573" transform="rotate(180 136.811 381.523)" fill="white"/>
<rect x="136.811" y="394.265" width="47.8445" height="7.33573" transform="rotate(180 136.811 394.265)" fill="white"/>
<rect x="136.811" y="407.008" width="47.8445" height="7.33573" transform="rotate(180 136.811 407.008)" fill="white"/>
<rect x="136.811" y="419.75" width="47.8445" height="7.33573" transform="rotate(180 136.811 419.75)" fill="white"/>
<rect x="392.532" y="253.703" width="15.2119" height="7.08731" transform="rotate(180 392.532 253.703)" fill="white"/>
<rect x="392.532" y="267.454" width="15.2119" height="7.08731" transform="rotate(180 392.532 267.454)" fill="white"/>
<rect x="392.532" y="281.204" width="15.2119" height="7.08731" transform="rotate(180 392.532 281.204)" fill="white"/>
<rect x="392.532" y="294.955" width="15.2119" height="7.08731" transform="rotate(180 392.532 294.955)" fill="white"/>
<rect x="392.532" y="308.706" width="15.2119" height="7.08731" transform="rotate(180 392.532 308.706)" fill="white"/>
<rect x="392.532" y="322.457" width="15.2119" height="7.08731" transform="rotate(180 392.532 322.457)" fill="white"/>
<rect x="392.532" y="336.208" width="15.2119" height="7.08731" transform="rotate(180 392.532 336.208)" fill="white"/>
<rect x="392.532" y="349.958" width="15.2119" height="7.08731" transform="rotate(180 392.532 349.958)" fill="white"/>
<rect x="371.835" y="253.703" width="15.2119" height="7.08731" transform="rotate(180 371.835 253.703)" fill="white"/>
<rect x="371.835" y="267.454" width="15.2119" height="7.08731" transform="rotate(180 371.835 267.454)" fill="white"/>
<rect x="371.835" y="281.204" width="15.2119" height="7.08731" transform="rotate(180 371.835 281.204)" fill="white"/>
<rect x="371.835" y="294.955" width="15.2119" height="7.08731" transform="rotate(180 371.835 294.955)" fill="white"/>
<rect x="371.835" y="308.706" width="15.2119" height="7.08731" transform="rotate(180 371.835 308.706)" fill="white"/>
<rect x="371.835" y="322.457" width="15.2119" height="7.08731" transform="rotate(180 371.835 322.457)" fill="white"/>
<rect x="371.835" y="336.208" width="15.2119" height="7.08731" transform="rotate(180 371.835 336.208)" fill="white"/>
<rect x="371.835" y="349.958" width="15.2119" height="7.08731" transform="rotate(180 371.835 349.958)" fill="white"/>
<rect x="492.155" y="206.78" width="15.8555" height="11.1789" transform="rotate(180 492.155 206.78)" fill="white"/>
<rect x="468.533" y="206.78" width="15.8555" height="11.1789" transform="rotate(180 468.533 206.78)" fill="white"/>
<rect x="492.155" y="223.191" width="15.8555" height="11.1789" transform="rotate(180 492.155 223.191)" fill="white"/>
<rect x="468.533" y="223.191" width="15.8555" height="11.1789" transform="rotate(180 468.533 223.191)" fill="white"/>
<rect x="492.155" y="239.616" width="15.8555" height="11.1789" transform="rotate(180 492.155 239.616)" fill="white"/>
<rect x="468.533" y="239.616" width="15.8555" height="11.1789" transform="rotate(180 468.533 239.616)" fill="white"/>
<rect x="492.155" y="256.026" width="15.8555" height="11.1789" transform="rotate(180 492.155 256.026)" fill="white"/>
<rect x="468.533" y="256.026" width="15.8555" height="11.1789" transform="rotate(180 468.533 256.026)" fill="white"/>
<rect x="492.155" y="272.451" width="15.8555" height="11.1789" transform="rotate(180 492.155 272.451)" fill="white"/>
<rect x="468.533" y="272.451" width="15.8555" height="11.1789" transform="rotate(180 468.533 272.451)" fill="white"/>
<rect x="492.155" y="288.876" width="15.8555" height="11.1789" transform="rotate(180 492.155 288.876)" fill="white"/>
<rect x="468.533" y="288.876" width="15.8555" height="11.1789" transform="rotate(180 468.533 288.876)" fill="white"/>
<rect x="492.155" y="305.287" width="15.8555" height="11.1789" transform="rotate(180 492.155 305.287)" fill="white"/>
<rect x="468.533" y="305.287" width="15.8555" height="11.1789" transform="rotate(180 468.533 305.287)" fill="white"/>
<rect x="492.155" y="321.712" width="15.8555" height="11.1789" transform="rotate(180 492.155 321.712)" fill="white"/>
<rect x="468.533" y="321.712" width="15.8555" height="11.1789" transform="rotate(180 468.533 321.712)" fill="white"/>
<rect x="439.235" y="239.616" width="15.8555" height="11.1789" transform="rotate(180 439.235 239.616)" fill="white"/>
<rect x="439.235" y="256.026" width="15.8555" height="11.1789" transform="rotate(180 439.235 256.026)" fill="white"/>
<rect x="439.235" y="272.451" width="15.8555" height="11.1789" transform="rotate(180 439.235 272.451)" fill="white"/>
<rect x="439.235" y="288.876" width="15.8555" height="11.1789" transform="rotate(180 439.235 288.876)" fill="white"/>
<rect x="439.235" y="305.287" width="15.8555" height="11.1789" transform="rotate(180 439.235 305.287)" fill="white"/>
<rect x="439.235" y="321.712" width="15.8555" height="11.1789" transform="rotate(180 439.235 321.712)" fill="white"/>
<rect x="492.155" y="337.932" width="15.8555" height="11.1789" transform="rotate(180 492.155 337.932)" fill="white"/>
<rect x="468.533" y="337.932" width="15.8555" height="11.1789" transform="rotate(180 468.533 337.932)" fill="white"/>
<rect x="439.235" y="337.932" width="15.8555" height="11.1789" transform="rotate(180 439.235 337.932)" fill="white"/>
<rect x="492.155" y="354.138" width="15.8555" height="11.1789" transform="rotate(180 492.155 354.138)" fill="white"/>
<rect x="468.533" y="354.138" width="15.8555" height="11.1789" transform="rotate(180 468.533 354.138)" fill="white"/>
<rect x="439.235" y="354.138" width="15.8555" height="11.1789" transform="rotate(180 439.235 354.138)" fill="white"/>
<rect x="492.155" y="370.358" width="15.8555" height="11.1789" transform="rotate(180 492.155 370.358)" fill="white"/>
<rect x="468.533" y="370.358" width="15.8555" height="11.1789" transform="rotate(180 468.533 370.358)" fill="white"/>
<rect x="439.235" y="370.358" width="15.8555" height="11.1789" transform="rotate(180 439.235 370.358)" fill="white"/>
<rect x="492.155" y="386.579" width="15.8555" height="11.1789" transform="rotate(180 492.155 386.579)" fill="white"/>
<rect x="468.533" y="386.579" width="15.8555" height="11.1789" transform="rotate(180 468.533 386.579)" fill="white"/>
<rect x="439.235" y="386.579" width="15.8555" height="11.1789" transform="rotate(180 439.235 386.579)" fill="white"/>
<rect x="492.155" y="402.799" width="15.8555" height="11.1789" transform="rotate(180 492.155 402.799)" fill="white"/>
<rect x="468.533" y="402.799" width="15.8555" height="11.1789" transform="rotate(180 468.533 402.799)" fill="white"/>
<rect x="439.235" y="402.799" width="15.8555" height="11.1789" transform="rotate(180 439.235 402.799)" fill="white"/>
<rect x="288.784" y="221.335" width="8.55672" height="9.79071" transform="rotate(180 288.784 221.335)" fill="white"/>
<rect x="273.952" y="221.335" width="8.55672" height="9.79071" transform="rotate(180 273.952 221.335)" fill="white"/>
<rect x="288.784" y="236.065" width="8.55672" height="9.79071" transform="rotate(180 288.784 236.065)" fill="white"/>
<rect x="273.952" y="236.065" width="8.55672" height="9.79071" transform="rotate(180 273.952 236.065)" fill="white"/>
<rect x="288.784" y="250.795" width="8.55672" height="9.79071" transform="rotate(180 288.784 250.795)" fill="white"/>
<rect x="273.952" y="250.795" width="8.55672" height="9.79071" transform="rotate(180 273.952 250.795)" fill="white"/>
<rect x="288.784" y="265.539" width="8.55672" height="9.79071" transform="rotate(180 288.784 265.539)" fill="white"/>
<rect x="273.952" y="265.539" width="8.55672" height="9.79071" transform="rotate(180 273.952 265.539)" fill="white"/>
<rect x="288.784" y="280.635" width="8.55672" height="9.79071" transform="rotate(180 288.784 280.635)" fill="white"/>
<rect x="273.952" y="280.635" width="8.55672" height="9.79071" transform="rotate(180 273.952 280.635)" fill="white"/>
<rect x="288.784" y="295.715" width="8.55672" height="9.79071" transform="rotate(180 288.784 295.715)" fill="white"/>
<rect x="273.952" y="295.715" width="8.55672" height="9.79071" transform="rotate(180 273.952 295.715)" fill="white"/>
<rect x="288.784" y="310.81" width="8.55672" height="9.79071" transform="rotate(180 288.784 310.81)" fill="white"/>
<rect x="273.952" y="310.81" width="8.55672" height="9.79071" transform="rotate(180 273.952 310.81)" fill="white"/>
<rect x="288.784" y="325.906" width="8.55672" height="9.79071" transform="rotate(180 288.784 325.906)" fill="white"/>
<rect x="273.952" y="325.906" width="8.55672" height="9.79071" transform="rotate(180 273.952 325.906)" fill="white"/>
<rect x="288.784" y="341.162" width="8.55672" height="9.79071" transform="rotate(180 288.784 341.162)" fill="white"/>
<rect x="273.952" y="341.162" width="8.55672" height="9.79071" transform="rotate(180 273.952 341.162)" fill="white"/>
<rect x="288.784" y="356.403" width="8.55672" height="9.79071" transform="rotate(180 288.784 356.403)" fill="white"/>
<rect x="273.952" y="356.403" width="8.55672" height="9.79071" transform="rotate(180 273.952 356.403)" fill="white"/>
<rect x="288.784" y="371.659" width="8.55672" height="9.79071" transform="rotate(180 288.784 371.659)" fill="white"/>
<rect x="273.952" y="371.659" width="8.55672" height="9.79071" transform="rotate(180 273.952 371.659)" fill="white"/>
<rect x="288.784" y="386.929" width="8.55672" height="9.79071" transform="rotate(180 288.784 386.929)" fill="white"/>
<rect x="273.952" y="386.929" width="8.55672" height="9.79071" transform="rotate(180 273.952 386.929)" fill="white"/>
<rect x="79.7803" y="224.667" width="8.55672" height="11.5297" transform="rotate(180 79.7803 224.667)" fill="white"/>
<rect x="64.9634" y="224.667" width="8.55672" height="11.5297" transform="rotate(180 64.9634 224.667)" fill="white"/>
<rect x="79.7803" y="242.027" width="8.55672" height="11.5297" transform="rotate(180 79.7803 242.027)" fill="white"/>
<rect x="64.9634" y="242.027" width="8.55672" height="11.5297" transform="rotate(180 64.9634 242.027)" fill="white"/>
<rect x="79.7803" y="259.373" width="8.55672" height="11.5297" transform="rotate(180 79.7803 259.373)" fill="white"/>
<rect x="64.9634" y="259.373" width="8.55672" height="11.5297" transform="rotate(180 64.9634 259.373)" fill="white"/>
<rect x="79.7803" y="276.733" width="8.55672" height="11.5297" transform="rotate(180 79.7803 276.733)" fill="white"/>
<rect x="64.9634" y="276.733" width="8.55672" height="11.5297" transform="rotate(180 64.9634 276.733)" fill="white"/>
<rect x="79.7803" y="294.517" width="8.55672" height="11.5297" transform="rotate(180 79.7803 294.517)" fill="white"/>
<rect x="64.9634" y="294.517" width="8.55672" height="11.5297" transform="rotate(180 64.9634 294.517)" fill="white"/>
<rect x="79.7803" y="312.301" width="8.55672" height="11.5297" transform="rotate(180 79.7803 312.301)" fill="white"/>
<rect x="64.9634" y="312.301" width="8.55672" height="11.5297" transform="rotate(180 64.9634 312.301)" fill="white"/>
<rect x="79.7803" y="330.07" width="8.55672" height="11.5297" transform="rotate(180 79.7803 330.07)" fill="white"/>
<rect x="64.9634" y="330.07" width="8.55672" height="11.5297" transform="rotate(180 64.9634 330.07)" fill="white"/>
<rect x="79.7803" y="347.869" width="8.55672" height="11.5297" transform="rotate(180 79.7803 347.869)" fill="white"/>
<rect x="64.9634" y="347.869" width="8.55672" height="11.5297" transform="rotate(180 64.9634 347.869)" fill="white"/>
<rect x="79.7803" y="365.843" width="8.55672" height="11.5297" transform="rotate(180 79.7803 365.843)" fill="white"/>
<rect x="64.9634" y="365.843" width="8.55672" height="11.5297" transform="rotate(180 64.9634 365.843)" fill="white"/>
<rect x="79.7803" y="383.802" width="8.55672" height="11.5297" transform="rotate(180 79.7803 383.802)" fill="white"/>
<rect x="64.9634" y="383.802" width="8.55672" height="11.5297" transform="rotate(180 64.9634 383.802)" fill="white"/>
<rect x="79.7803" y="401.776" width="8.55672" height="11.5297" transform="rotate(180 79.7803 401.776)" fill="white"/>
<rect x="64.9634" y="401.776" width="8.55672" height="11.5297" transform="rotate(180 64.9634 401.776)" fill="white"/>
<rect x="79.7803" y="419.75" width="8.55672" height="11.5297" transform="rotate(180 79.7803 419.75)" fill="white"/>
<rect x="64.9634" y="419.75" width="8.55672" height="11.5297" transform="rotate(180 64.9634 419.75)" fill="white"/>
<rect x="257.043" y="221.335" width="8.55672" height="9.79071" transform="rotate(180 257.043 221.335)" fill="white"/>
<rect x="242.211" y="221.335" width="8.55672" height="9.79071" transform="rotate(180 242.211 221.335)" fill="white"/>
<rect x="257.043" y="206.24" width="8.55672" height="9.79071" transform="rotate(180 257.043 206.24)" fill="white"/>
<rect x="242.211" y="206.24" width="8.55672" height="9.79071" transform="rotate(180 242.211 206.24)" fill="white"/>
<rect x="257.043" y="191.144" width="8.55672" height="9.79071" transform="rotate(180 257.043 191.144)" fill="white"/>
<rect x="242.211" y="191.144" width="8.55672" height="9.79071" transform="rotate(180 242.211 191.144)" fill="white"/>
<rect x="257.043" y="236.065" width="8.55672" height="9.79071" transform="rotate(180 257.043 236.065)" fill="white"/>
<rect x="242.211" y="236.065" width="8.55672" height="9.79071" transform="rotate(180 242.211 236.065)" fill="white"/>
<rect x="257.043" y="250.795" width="8.55672" height="9.79071" transform="rotate(180 257.043 250.795)" fill="white"/>
<rect x="242.211" y="250.795" width="8.55672" height="9.79071" transform="rotate(180 242.211 250.795)" fill="white"/>
<rect x="257.043" y="265.539" width="8.55672" height="9.79071" transform="rotate(180 257.043 265.539)" fill="white"/>
<rect x="242.211" y="265.539" width="8.55672" height="9.79071" transform="rotate(180 242.211 265.539)" fill="white"/>
<rect x="257.043" y="280.635" width="8.55672" height="9.79071" transform="rotate(180 257.043 280.635)" fill="white"/>
<rect x="242.211" y="280.635" width="8.55672" height="9.79071" transform="rotate(180 242.211 280.635)" fill="white"/>
<rect x="257.043" y="295.715" width="8.55672" height="9.79071" transform="rotate(180 257.043 295.715)" fill="white"/>
<rect x="242.211" y="295.715" width="8.55672" height="9.79071" transform="rotate(180 242.211 295.715)" fill="white"/>
<rect x="257.043" y="310.81" width="8.55672" height="9.79071" transform="rotate(180 257.043 310.81)" fill="white"/>
<rect x="242.211" y="310.81" width="8.55672" height="9.79071" transform="rotate(180 242.211 310.81)" fill="white"/>
<rect x="257.043" y="325.906" width="8.55672" height="9.79071" transform="rotate(180 257.043 325.906)" fill="white"/>
<rect x="242.211" y="325.906" width="8.55672" height="9.79071" transform="rotate(180 242.211 325.906)" fill="white"/>
<rect x="257.043" y="341.162" width="8.55672" height="9.79071" transform="rotate(180 257.043 341.162)" fill="white"/>
<rect x="242.211" y="341.162" width="8.55672" height="9.79071" transform="rotate(180 242.211 341.162)" fill="white"/>
<rect x="257.043" y="356.403" width="8.55672" height="9.79071" transform="rotate(180 257.043 356.403)" fill="white"/>
<rect x="242.211" y="356.403" width="8.55672" height="9.79071" transform="rotate(180 242.211 356.403)" fill="white"/>
<rect x="257.043" y="371.659" width="8.55672" height="9.79071" transform="rotate(180 257.043 371.659)" fill="white"/>
<rect x="242.211" y="371.659" width="8.55672" height="9.79071" transform="rotate(180 242.211 371.659)" fill="white"/>
<rect x="257.043" y="386.929" width="8.55672" height="9.79071" transform="rotate(180 257.043 386.929)" fill="white"/>
<rect x="242.211" y="386.929" width="8.55672" height="9.79071" transform="rotate(180 242.211 386.929)" fill="white"/>
<path d="M630.847 154.217H473.36C473.36 154.217 488.981 111.606 513.013 111.606C537.045 111.606 544.563 141.022 544.563 141.022C544.563 141.022 560.785 125.035 574.11 125.035C587.435 125.035 598.975 146.151 598.975 146.151C598.975 146.151 617.829 134.797 630.847 154.217Z" fill="#EBEBEB"/>
<path d="M542.706 69.9442H469.104C469.104 69.9442 485.544 46.1396 498.504 46.1396C511.463 46.1396 515.295 62.0094 515.295 62.0094C515.295 62.0094 524.437 54.6006 532.847 55.9304C541.258 57.2601 542.706 69.9442 542.706 69.9442Z" fill="#EBEBEB"/>
<path d="M200.51 141.533H57.167C57.167 141.533 76.7962 97.6942 97.8004 95.0054C118.805 92.3166 128.839 127.534 128.839 127.534C128.839 127.534 142.383 115.069 153.031 115.069C163.68 115.069 171.915 131.494 171.915 131.494C171.915 131.494 193.197 120.242 200.51 141.533Z" fill="#EBEBEB"/>
<path d="M336.76 33.1487H239.915C239.915 33.1487 256.546 1.42386 274.595 1.00008C292.645 0.576301 302.123 25.0092 302.123 25.0092C302.123 25.0092 330.192 2.46138 336.76 33.1487Z" fill="#EBEBEB"/>
<ellipse cx="402.649" cy="531.985" rx="238.328" ry="15.9504" fill="#EBEBEB"/>
<path d="M686.035 471.965L600.394 472.325L514.768 472.46L343.5 472.7L172.232 472.46L86.606 472.325L0.964844 471.965L86.606 471.59L172.232 471.455L343.5 471.215L514.768 471.455L600.394 471.59L686.035 471.965Z" fill="#263238"/>
<path d="M333.216 246.203C357.937 271.944 432.201 386.505 437.987 389.927C437.987 389.927 437.987 464.853 396.625 449.891C355.263 434.929 317.349 300.507 309.255 257.655C304.989 235.029 313.024 225.201 333.216 246.203Z" fill="#D3766A"/>
<path d="M326.919 334.775L402.717 326.146C402.717 326.146 355.701 263.71 331.404 241.421C306.07 218.195 293.651 221.457 305.398 265.45C317.203 309.707 326.919 334.775 326.919 334.775Z" fill="#B2D235"/>
<path fill-rule="evenodd" clip-rule="evenodd" d="M310.161 229.603C309.781 228.799 309.401 228.009 308.963 227.219C308.443 227.168 307.919 227.168 307.399 227.219C307.75 228.287 308.145 229.311 308.583 230.335C309.46 232.406 310.637 234.338 312.075 236.068C311.746 233.833 311.101 231.657 310.161 229.603ZM323.354 293.443C322.521 295.536 321.99 297.738 321.776 299.981C324.42 296.323 326.067 292.038 326.554 287.549C325.201 289.344 324.123 291.331 323.354 293.443ZM365.929 295.154C363.843 294.319 361.649 293.787 359.412 293.575C363.06 296.225 367.336 297.874 371.817 298.357C370.025 297.001 368.04 295.921 365.929 295.154ZM351.128 318.95C352.562 320.68 353.743 322.606 354.635 324.668C355.567 326.713 356.207 328.88 356.534 331.104C355.093 329.379 353.92 327.446 353.057 325.37C352.113 323.333 351.464 321.171 351.128 318.95ZM396.055 319.901L397.516 319.316L398.481 320.632C397.911 320.939 397.341 321.217 396.757 321.48C394.71 322.42 392.541 323.065 390.313 323.396C392.055 321.968 393.987 320.791 396.055 319.901ZM339.075 259.044C337.012 259.93 335.084 261.102 333.347 262.525C335.575 262.205 337.746 261.565 339.791 260.624C341.856 259.736 343.784 258.559 345.518 257.128C343.279 257.45 341.099 258.096 339.046 259.044H339.075ZM333.963 259.195C333.972 259.189 333.981 259.182 333.99 259.176H333.961C333.961 259.181 333.962 259.187 333.963 259.195ZM333.963 259.195C333.886 259.248 333.813 259.305 333.742 259.366H334.005C334.005 259.366 333.971 259.252 333.963 259.195Z" fill="white"/>
<path d="M330.557 321.129C332.325 320.72 334.18 320.559 335.977 320.31L341.558 319.535C345.313 319.008 349.083 318.54 352.852 318.072C360.391 317.195 367.93 316.274 375.484 315.528C377.558 315.323 379.648 315.118 381.722 314.957C383.797 314.796 386.105 314.796 388.297 314.635C388.429 314.635 388.429 314.826 388.297 314.84C386.442 315.118 384.601 315.542 382.745 315.835C380.89 316.127 378.917 316.391 377.003 316.625C373.248 317.107 369.464 317.546 365.695 317.97C358.273 318.774 350.836 319.623 343.385 320.281L337.161 320.807C334.984 320.998 332.778 321.319 330.586 321.305C330.552 321.292 330.526 321.262 330.52 321.225C330.514 321.189 330.528 321.152 330.557 321.129Z" fill="#263238"/>
<path opacity="0.1" d="M363.693 330.592L326.933 334.775C326.933 334.775 317.217 309.707 305.398 265.45C300.415 246.788 299.787 235.453 302.651 230.349L363.693 330.592Z" fill="black"/>
<path d="M347.943 490.828H232.653C231.703 487.113 230.783 483.515 229.862 479.859C228.81 475.72 227.773 471.683 226.779 467.749C226.56 466.871 226.326 465.994 226.107 465.131C225.347 462.118 224.602 459.193 223.872 456.356C223.433 454.615 222.995 452.904 222.571 451.208C222.148 449.511 221.695 447.785 221.271 446.133C221.154 445.694 221.052 445.255 220.935 444.831L220.584 443.368L220.146 441.657C219.985 441.058 219.839 440.473 219.693 439.888C219.401 438.776 219.123 437.679 218.86 436.611C218.451 435.032 218.057 433.482 217.677 431.975C217.516 431.317 217.341 430.659 217.18 430.015C216.903 428.962 216.64 427.939 216.391 426.929C216.216 426.257 216.055 425.598 215.895 424.955C215.213 422.303 214.58 419.817 213.995 417.496C213.834 416.882 213.688 416.282 213.528 415.697C213.279 414.688 213.031 413.723 212.797 412.772C212.632 412.187 212.485 411.617 212.359 411.061C211.847 409.072 211.38 407.258 210.985 405.664C210.869 405.24 210.766 404.83 210.664 404.436C210.401 403.382 210.153 402.446 209.948 401.613C209.86 401.276 209.787 400.955 209.7 400.662L209.466 399.741C209.466 399.536 209.364 399.331 209.32 399.156L209.115 398.366C209.115 398.239 209.086 398.122 209.028 398.015L208.765 396.977H320.987C320.987 396.977 324.683 409.73 330.601 430.293C331.799 434.476 333.099 439.068 334.487 443.792C338.417 457.511 343.005 473.511 347.943 490.828Z" fill="#37474F"/>
<path d="M251.529 490.828H248.607C244.341 473.151 240.206 455.439 236.203 437.694C235.229 433.374 234.255 429.055 233.281 424.736L233.018 423.522C233.008 423.435 233.063 423.353 233.148 423.331C233.232 423.309 233.32 423.353 233.354 423.434C233.354 423.565 233.427 423.697 233.471 423.829C234.766 428.47 236.057 433.116 237.342 437.767C242.281 455.405 247.01 473.092 251.529 490.828Z" fill="#263238"/>
<path d="M317.349 396.991L312.396 421.854L308.334 442.213L301.424 476.904L300.708 480.458L299.524 486.382L298.604 490.828H232.638C231.703 487.098 230.768 483.515 229.862 479.859C228.81 475.72 227.773 471.683 226.779 467.749C226.56 466.871 226.326 465.994 226.107 465.131C225.347 462.118 224.602 459.193 223.872 456.356C223.433 454.615 222.995 452.904 222.571 451.208C222.148 449.511 221.695 447.785 221.271 446.133C221.154 445.694 221.052 445.255 220.935 444.831L220.584 443.368L220.146 441.657C219.985 441.058 219.839 440.473 219.693 439.888C219.401 438.776 219.123 437.679 218.86 436.611C218.451 435.032 218.057 433.482 217.677 431.975C217.502 431.302 217.341 430.659 217.18 430.015C216.903 428.962 216.64 427.939 216.391 426.929C216.216 426.257 216.055 425.598 215.895 424.955C215.213 422.303 214.58 419.817 213.995 417.496C213.834 416.882 213.688 416.282 213.528 415.697C213.279 414.688 213.031 413.723 212.797 412.772C212.632 412.187 212.485 411.617 212.359 411.061C211.847 409.072 211.38 407.258 210.985 405.664C210.869 405.24 210.766 404.83 210.664 404.436C210.401 403.382 210.153 402.446 209.948 401.613C209.86 401.276 209.787 400.955 209.7 400.662L209.466 399.741C209.466 399.536 209.364 399.331 209.32 399.156L209.115 398.366C209.115 398.239 209.086 398.122 209.028 398.015L208.765 396.977L317.349 396.991Z" fill="#263238"/>
<path d="M317.364 396.947C317.364 397.561 316.896 404.26 315.815 414.498C315.508 417.423 315.143 420.757 314.719 424.267C314.062 429.81 313.258 435.968 312.236 442.388C310.512 453.665 308.262 465.964 305.34 477.987C304.302 482.374 303.163 486.601 301.95 490.798H157.088C158.797 468.699 160.361 448.707 161.603 432.955C163.341 410.783 164.525 396.903 164.525 396.903H295.93L317.364 396.947Z" fill="#37474F"/>
<path d="M317.057 410.271C316.896 415.463 316.677 420.64 316.341 425.803C315.99 431.405 315.479 436.991 314.748 442.578C314.748 442.783 314.748 442.988 314.675 443.193C313.994 448.429 313.209 453.65 312.323 458.856C311.49 463.712 310.862 468.948 308.729 473.482C307.918 475.22 306.765 476.777 305.339 478.06C304.034 479.255 302.436 480.082 300.708 480.458C300.425 480.529 300.137 480.578 299.846 480.604H299.597C299.706 480.667 299.769 480.787 299.758 480.912C299.758 482.652 299.758 484.422 299.554 486.147C299.554 486.221 299.554 486.294 299.554 486.367C299.378 487.829 299.101 489.365 298.823 490.857H296.339V490.769C296.778 489.131 297.143 487.478 297.552 485.826C297.961 484.173 298.546 482.491 298.94 480.78C298.962 480.716 299.003 480.66 299.057 480.619C295.828 480.774 292.844 478.901 291.576 475.924C290.953 473.7 290.913 471.353 291.459 469.109C291.912 466.184 292.351 463.171 292.804 460.202C293.651 454.747 294.747 449.35 295.726 443.924L296.164 441.452C298.107 430.41 300.138 419.368 302.578 408.428C302.666 407.975 302.768 407.521 302.87 407.068C302.972 406.614 303.425 406.848 303.396 407.141C303.323 407.872 303.25 408.604 303.162 409.349C302.734 413.552 302.247 417.735 301.701 421.898C301 426.798 300.518 431.726 299.831 436.626C299.597 438.293 299.364 439.96 299.115 441.628C297.99 449.686 296.821 457.716 295.448 465.774C294.805 469.504 292.526 476.188 297.844 477.343C299.073 477.616 300.358 477.456 301.482 476.89C303.85 475.461 305.62 473.221 306.464 470.586C307.78 466.196 308.733 461.706 309.313 457.16C310.19 452.285 310.969 447.366 311.651 442.403C312.528 436.25 313.443 430.103 314.398 423.96C314.875 420.83 315.362 417.701 315.859 414.571L316.56 410.183C316.575 409.876 317.057 409.964 317.057 410.271Z" fill="#263238"/>
<path d="M188.865 448.823C194.898 448.761 200.9 447.95 206.734 446.41C209.422 445.723 212.081 444.86 214.725 443.997C217.346 443.273 219.798 442.041 221.943 440.37C226.005 436.86 227.889 431.346 229.657 426.432C231.576 420.899 233.133 415.246 234.318 409.51C234.318 409.233 234.786 409.335 234.8 409.598C234.94 416.085 234.118 422.556 232.36 428.801C230.899 434.11 228.941 440.019 224.661 443.734C220.38 447.449 214.053 449.028 208.282 449.73C201.811 450.484 195.27 450.395 188.821 449.467C188.706 449.459 188.604 449.391 188.554 449.287C188.503 449.184 188.512 449.061 188.576 448.965C188.64 448.87 188.75 448.816 188.865 448.823Z" fill="#263238"/>
<path d="M178.799 409.686C178.477 417.798 178.136 425.92 177.776 434.052C176.948 452.977 176.037 471.903 175.044 490.828H172.326C173.573 471.864 174.883 452.909 176.256 433.964C176.851 425.862 177.464 417.764 178.097 409.671C178.101 409.478 178.262 409.324 178.455 409.328C178.649 409.332 178.803 409.492 178.799 409.686Z" fill="#263238"/>
<path d="M342.304 457.014L145.779 442.096C145.779 442.096 185.315 285.238 263.378 227.57C283.336 212.843 305.179 222.291 315.011 233.304C339.995 261.355 342.888 456.385 342.304 457.014Z" fill="#B2D235"/>
<path fill-rule="evenodd" clip-rule="evenodd" d="M310.161 229.559C309.956 229.121 309.752 228.697 309.533 228.272C308.817 227.731 308.071 227.205 307.268 226.693C307.63 227.919 308.069 229.121 308.583 230.291C309.46 232.362 310.637 234.294 312.075 236.024C311.742 233.804 311.097 231.643 310.161 229.603V229.559ZM270.888 241.231C271.11 238.994 271.641 236.798 272.466 234.708C273.258 232.617 274.34 230.647 275.68 228.857C275.458 231.094 274.927 233.289 274.102 235.38C273.316 237.474 272.233 239.444 270.888 241.231ZM249.571 325.868C249.768 323.623 250.295 321.42 251.135 319.33C251.916 317.223 252.993 315.238 254.334 313.436C253.844 317.922 252.203 322.204 249.571 325.868ZM180.917 355.616C180.086 357.71 179.555 359.911 179.339 362.153C181.984 358.495 183.63 354.211 184.117 349.722C182.787 351.531 181.71 353.514 180.917 355.616ZM236.013 415.595C236.211 413.354 236.743 411.155 237.591 409.072C238.363 406.959 239.436 404.969 240.776 403.163C240.286 407.649 238.645 411.931 236.013 415.595ZM323.354 293.414C322.521 295.507 321.99 297.708 321.776 299.952C324.42 296.293 326.067 292.009 326.554 287.52C325.199 289.324 324.12 291.321 323.354 293.443V293.414ZM286.784 406.337C286.99 404.096 287.527 401.897 288.377 399.814C289.15 397.72 290.223 395.749 291.562 393.964C291.346 396.202 290.815 398.398 289.984 400.487C289.205 402.581 288.127 404.552 286.784 406.337ZM217.56 289.436C216.727 291.524 216.196 293.72 215.982 295.959C218.63 292.304 220.273 288.017 220.745 283.527C219.4 285.33 218.326 287.321 217.56 289.436ZM289.56 259.776C291.798 259.981 293.993 260.513 296.076 261.355C298.173 262.129 300.146 263.203 301.935 264.543C299.692 264.342 297.492 263.81 295.404 262.964C293.314 262.186 291.346 261.112 289.56 259.776ZM318.343 331.864C316.258 331.025 314.063 330.493 311.826 330.285C313.609 331.627 315.578 332.701 317.671 333.473C319.754 334.317 321.949 334.854 324.187 335.067C322.402 333.74 320.433 332.681 318.343 331.923V331.864ZM317.802 414.556C320.038 414.77 322.232 415.302 324.318 416.136V416.194C326.403 416.964 328.371 418.023 330.162 419.339C327.927 419.121 325.733 418.59 323.646 417.759C321.553 416.982 319.584 415.903 317.802 414.556ZM184.424 409.203C182.338 408.368 180.144 407.836 177.908 407.624C181.555 410.274 185.831 411.923 190.312 412.406C188.509 411.082 186.527 410.023 184.424 409.262V409.203ZM228.474 353.495C230.711 353.714 232.905 354.251 234.99 355.089V355.133C237.079 355.902 239.047 356.966 240.834 358.292C238.6 358.07 236.407 357.538 234.318 356.713C232.227 355.924 230.259 354.841 228.474 353.495ZM249.235 269.311C250.67 271.043 251.846 272.974 252.727 275.044C253.675 277.085 254.32 279.253 254.641 281.48C251.802 277.97 249.938 273.772 249.235 269.311ZM303.44 448.107C302.559 446.04 301.388 444.11 299.963 442.374C300.286 444.598 300.926 446.765 301.862 448.809C302.695 450.732 303.77 452.541 305.062 454.191H305.296C304.959 452.087 304.334 450.04 303.44 448.107ZM281.291 340.449C282.718 342.186 283.894 344.117 284.783 346.182C285.719 348.226 286.358 350.393 286.682 352.618C283.873 349.091 282.017 344.901 281.291 340.449ZM150.922 423.902L150.922 423.902C150.834 424.209 150.747 424.516 150.645 424.809C150.775 424.949 150.898 425.096 151.019 425.241L151.019 425.241L151.019 425.241L151.019 425.241L151.019 425.241L151.019 425.241L151.019 425.241L151.019 425.241L151.019 425.241L151.02 425.242L151.02 425.242C151.075 425.308 151.13 425.373 151.185 425.438C151.127 424.936 151.039 424.437 150.922 423.946V423.902ZM205.872 379.163C207.301 380.893 208.477 382.819 209.364 384.881L209.32 384.925C210.27 386.953 210.929 389.104 211.278 391.316C208.442 387.81 206.578 383.618 205.872 379.163ZM221.899 441.189C221.013 439.122 219.837 437.192 218.408 435.456C219.131 439.915 220.993 444.112 223.813 447.639C223.47 445.426 222.81 443.273 221.856 441.248L221.899 441.189ZM314.456 376.94C316.192 375.512 318.12 374.335 320.184 373.444L320.14 373.488C322.195 372.523 324.381 371.863 326.627 371.528C324.891 372.964 322.957 374.142 320.885 375.024C318.844 375.966 316.679 376.611 314.456 376.94ZM165.167 381.985L165.155 382.018L165.123 382.029L165.167 381.985ZM165.155 382.018L164.422 384.004C165.998 383.243 167.471 382.284 168.805 381.152C167.562 381.315 166.339 381.605 165.155 382.018ZM259.638 434.198C261.371 432.77 263.3 431.597 265.365 430.717L265.321 430.761C267.374 429.784 269.56 429.118 271.808 428.787C270.073 430.219 268.145 431.401 266.081 432.297C264.034 433.232 261.865 433.872 259.638 434.198ZM175.76 443.763L174.752 444.246L178.185 444.509C179.62 443.784 180.964 442.89 182.188 441.847C179.949 442.19 177.77 442.85 175.716 443.807L175.76 443.763ZM204.455 326.994C206.197 325.575 208.124 324.399 210.182 323.498L210.138 323.542C212.195 322.582 214.38 321.927 216.625 321.597C213.1 324.415 208.908 326.274 204.455 326.994ZM260.558 379.514C258.493 380.406 256.565 381.588 254.831 383.024C259.288 382.307 263.482 380.442 267.002 377.612C264.758 377.948 262.573 378.603 260.515 379.558L260.558 379.514ZM281.13 306.006C282.87 304.584 284.797 303.407 286.857 302.511L286.77 302.555C288.837 301.596 291.032 300.941 293.286 300.61C289.773 303.439 285.583 305.3 281.13 306.006Z" fill="white"/>
<path d="M303.878 266.079C292.541 264.397 281.028 241.494 279.041 225.874C278.909 224.791 296.573 191.051 299.335 184.016C299.904 182.553 339.294 212.331 339.294 212.331C339.294 212.331 329.067 225.376 324.289 237.706C323.953 238.729 314.836 267.688 303.878 266.079Z" fill="#D3766A"/>
<path d="M339.352 212.331C339.352 212.331 329.125 225.377 324.333 237.691C324.245 237.94 323.661 239.753 322.696 242.342C302.446 232.104 294.192 213.823 290.86 201.757C294.688 194.078 298.253 186.868 299.393 184.016C299.963 182.568 339.352 212.331 339.352 212.331Z" fill="#263238"/>
<path d="M308.437 129.214C296.909 142.567 285.381 190.729 291.971 205.53C301.54 226.971 327.036 239.856 347.665 226.152C367.725 212.857 381.635 149.822 373.35 135.372C361.165 114.077 325.443 109.499 308.437 129.214Z" fill="#D3766A"/>
<path d="M339.235 168.337C337.774 168.454 336.313 168.337 334.852 168.337C333.301 168.549 331.724 168.24 330.367 167.46C329.588 166.783 329.361 165.668 329.812 164.74C330.973 163.06 332.953 162.142 334.984 162.341C337.033 162.22 339.053 162.867 340.653 164.155C341.344 164.806 341.592 165.802 341.287 166.702C340.982 167.602 340.18 168.241 339.235 168.337Z" fill="#263238"/>
<path d="M337.949 175.402C337.949 175.27 337.657 175.504 337.628 175.65C337.087 178.941 335.904 182.627 332.734 183.124C332.631 183.124 332.602 183.299 332.734 183.314C336.43 183.519 337.949 178.619 337.949 175.402Z" fill="#263238"/>
<path d="M335.7 171.394C330.513 169.932 328 180.447 332.778 181.778C337.555 183.109 340.039 172.608 335.7 171.394Z" fill="#263238"/>
<path d="M356.797 179.453C356.797 179.336 357.016 179.672 356.987 179.804C356.111 183.021 355.643 186.868 358.317 188.579C358.404 188.579 358.317 188.798 358.244 188.755C354.781 187.467 355.453 182.378 356.797 179.453Z" fill="#263238"/>
<path d="M360.508 176.762C365.826 177.61 363.737 188.184 358.813 187.394C353.89 186.605 356.052 176.045 360.508 176.762Z" fill="#263238"/>
<path d="M365.899 171.555C364.557 170.931 363.25 170.232 361.984 169.464C360.499 168.914 359.239 167.885 358.404 166.539C358.028 165.571 358.352 164.47 359.193 163.862C360.99 162.692 363.065 163.233 364.906 164.14C366.783 164.996 368.277 166.517 369.099 168.411C369.452 169.321 369.23 170.354 368.534 171.038C367.838 171.722 366.802 171.925 365.899 171.555Z" fill="#263238"/>
<path d="M327.079 203.555C327.664 204.506 328.19 205.735 329.344 206.115C330.562 206.378 331.822 206.378 333.04 206.115C333.091 206.11 333.139 206.139 333.159 206.185C333.179 206.232 333.166 206.286 333.128 206.32C331.875 207.391 330.136 207.689 328.599 207.095C327.326 206.423 326.587 205.047 326.729 203.614C326.729 203.424 326.992 203.409 327.079 203.555Z" fill="#263238"/>
<path d="M332.807 194.649C333.861 197.642 336.11 200.063 339.016 201.332C340.266 201.897 341.589 202.281 342.947 202.473C343.201 202.53 343.46 202.56 343.721 202.561C343.969 202.576 344.218 202.576 344.466 202.561C344.838 202.584 345.177 202.347 345.284 201.99C345.291 201.874 345.291 201.756 345.284 201.639V201.347C345.942 198.861 346.614 195 346.614 195C347.417 195.672 351.567 198.89 351.815 197.559C353.758 186.59 355.906 174.392 355.526 163.058C355.526 162.888 355.389 162.75 355.219 162.75C355.05 162.75 354.912 162.888 354.912 163.058C352.633 173.529 352.21 184.338 350.076 194.897C348.647 193.722 347.058 192.757 345.357 192.031C344.977 192.031 344.203 199.519 343.809 200.601C343.812 200.64 343.812 200.679 343.809 200.718C339.425 200.25 336.62 198.217 333.216 194.429C332.997 194.18 332.675 194.341 332.807 194.649Z" fill="#263238"/>
<path d="M341.778 200.85C339.977 202.304 337.834 203.27 335.554 203.658C334.305 203.832 333.034 203.612 331.916 203.029C329.49 201.727 329.987 199.329 330.951 197.398C331.476 196.381 332.119 195.428 332.865 194.561C335.088 197.557 338.212 199.761 341.778 200.85Z" fill="#263238"/>
<path d="M335.554 203.658C334.305 203.832 333.034 203.612 331.916 203.029C329.49 201.727 329.987 199.329 330.951 197.398C333.669 198.349 335.963 200.908 335.554 203.658Z" fill="#FF97B8"/>
<path d="M377.763 154.122C357.308 162.692 336.62 138.984 336.62 138.984C331.806 146.373 322.713 149.717 314.266 147.204C314.266 147.204 304.448 176.849 296.441 175.065C284.271 172.462 289.136 130.253 294.644 122.911C300.152 115.569 310.964 115.598 310.964 115.598C310.964 115.598 313.024 109.441 321.761 105.243C331.404 100.593 358.287 115.174 358.287 115.174C360.727 111.671 363.955 108.791 367.711 106.764C369.543 105.734 371.717 105.499 373.727 106.115C375.736 106.732 377.406 108.145 378.347 110.026C376.352 111.948 374.818 114.298 373.862 116.9C370.575 125.5 377.836 127.006 379.458 118.918C380.162 115.917 379.768 112.762 378.347 110.026C383.023 105.492 389.232 104.995 392.198 108.563C397.648 115.101 394.784 147.014 377.763 154.122Z" fill="#263238"/>
<path fill-rule="evenodd" clip-rule="evenodd" d="M318.151 175.035C316.492 182.197 320.597 189.435 327.591 191.68C331.734 193.003 336.256 192.343 339.849 189.889C343.442 187.435 345.705 183.461 345.985 179.116C346.448 171.779 341.212 165.313 333.945 164.247C326.679 163.181 319.81 167.873 318.151 175.035ZM332.734 166.027C333.727 166.098 334.708 166.29 335.656 166.597C341.819 168.603 345.357 175.064 343.732 181.343C342.108 187.623 335.88 191.552 329.52 190.31C323.159 189.069 318.863 183.086 319.714 176.655C320.565 170.224 326.27 165.567 332.734 166.027Z" fill="#B2D235"/>
<path fill-rule="evenodd" clip-rule="evenodd" d="M352.882 181.632C351.041 188.813 353.671 195.687 358.726 197.588C359.038 197.71 359.361 197.803 359.69 197.866C365.315 199.27 371.408 194.254 373.278 186.707C374.183 183.301 374.005 179.696 372.766 176.396C371.869 173.441 369.485 171.176 366.49 170.432C363.494 169.688 360.329 170.576 358.156 172.769C355.512 175.095 353.666 178.196 352.882 181.632ZM365.943 172.301L366.63 172.506C368.65 173.362 370.212 175.037 370.926 177.113C372.024 180.039 372.177 183.236 371.364 186.254C369.742 192.791 364.687 197.179 360.055 196.038C355.424 194.897 353.013 188.638 354.635 182.085C355.333 179.041 356.962 176.29 359.296 174.217C361.067 172.532 363.548 171.817 365.943 172.301Z" fill="#B2D235"/>
<path d="M345.211 180.637L344.305 178.985C346.745 177.625 352.063 176.221 354.737 180.447L353.13 181.442C350.748 177.654 345.43 180.506 345.211 180.637Z" fill="#B2D235"/>
<path d="M282.854 172.008L281.393 170.838C281.948 170.151 286.872 164.111 291.124 164.257C295.112 164.403 319.453 171.57 320.49 171.935L319.95 173.749C312.966 171.672 294.148 166.246 291.065 166.144C288.231 166.041 284.184 170.341 282.854 172.008Z" fill="#B2D235"/>
<path d="M301.657 172.315C301.657 172.315 297.727 153.478 289.604 154.282C281.48 155.087 280.107 179.321 286.609 185.508C288.178 187.226 290.38 188.229 292.705 188.284C295.03 188.34 297.277 187.442 298.925 185.8L301.657 172.315Z" fill="#D3766A"/>
<path d="M289.385 161.244C289.268 161.171 289.165 161.332 289.253 161.434C293.738 165.939 294.425 172.184 294.206 178.239C293.446 175.548 291.722 173.5 288.216 174.275C288.04 174.275 288.084 174.582 288.216 174.626C290.433 174.831 292.276 176.424 292.803 178.59C293.232 180.353 293.472 182.158 293.519 183.972C293.519 184.572 294.542 184.689 294.6 183.972C294.593 183.923 294.593 183.874 294.6 183.826C297.727 177.069 296.5 165.105 289.385 161.244Z" fill="#263238"/>
<path d="M401.826 304.529C405.523 294.789 491.227 312.427 487.809 327.36C475.258 382.059 440.281 430.937 431.442 442.11C419.841 456.736 396.757 453.489 388.341 444.626C376.141 431.77 398.174 314.182 401.826 304.529Z" fill="#D3766A"/>
<path d="M395.792 331.382C393.887 336.624 392.378 342.001 391.278 347.47C390.036 352.881 388.955 358.322 388.078 363.791C386.345 374.856 385.369 386.027 385.156 397.225C384.995 403.485 385.156 409.73 385.156 415.99C385.156 416.136 385.39 416.121 385.39 415.99C385.39 410.447 385.726 404.86 386.179 399.331C386.632 393.803 387.187 388.172 387.903 382.629C389.291 371.733 390.825 360.852 392.797 350.044C393.343 347.011 393.912 343.989 394.507 340.976C395.135 337.846 395.851 334.731 396.26 331.557C396.26 331.323 395.895 331.118 395.792 331.382Z" fill="#263238"/>
<path d="M381.152 150.363C380.588 157.811 379.475 165.207 377.821 172.491C377.544 173.734 377.237 175.007 376.93 176.264C375.703 181.266 374.242 186.297 372.547 191.138C372.157 192.308 371.748 193.464 371.32 194.605C366.133 208.63 359.281 220.696 351.566 225.815C349.607 227.13 347.528 228.257 345.357 229.179C322.876 216.054 308.739 192.257 307.954 166.217L305.617 165.573C305.982 165.003 306.362 164.418 306.727 163.804C307.092 163.189 307.545 162.414 307.94 161.683C308.525 142.853 316.123 124.923 329.242 111.415C347.607 106.472 369.596 113.536 378.844 129.668C381.094 133.661 381.781 141.178 381.152 150.363Z" fill="#D3766A"/>
<path d="M342.654 164.579C341.102 164.659 339.546 164.659 337.994 164.579C336.197 164.579 334.765 164.71 333.231 163.643C332.38 162.922 332.138 161.71 332.646 160.718C333.771 158.729 335.963 158.217 338.125 158.173C340.295 158.044 342.435 158.727 344.13 160.089C344.898 160.77 345.188 161.844 344.867 162.819C344.546 163.795 343.677 164.487 342.654 164.579Z" fill="#263238"/>
<path d="M341.295 172.14C341.295 172.008 340.988 172.257 340.959 172.389C340.389 175.884 339.133 179.789 335.773 180.316C335.67 180.316 335.641 180.506 335.773 180.52C339.688 180.667 341.295 175.475 341.295 172.14Z" fill="#263238"/>
<path d="M338.914 167.826C333.421 166.29 330.762 177.405 335.846 178.824C340.93 180.243 343.516 169.113 338.914 167.826Z" fill="#263238"/>
<path d="M361.268 176.352C361.268 176.235 361.501 176.586 361.458 176.732C360.523 180.14 359.997 184.206 362.919 186.093C363.006 186.093 362.919 186.327 362.846 186.283C359.135 184.835 359.836 179.453 361.268 176.352Z" fill="#263238"/>
<path d="M365.198 173.5C370.823 174.407 368.602 185.61 363.386 184.776C358.17 183.943 360.479 172.74 365.198 173.5Z" fill="#263238"/>
<path d="M370.896 167.986C369.435 167.358 368.164 166.524 366.761 165.778C365.195 165.202 363.861 164.129 362.962 162.721C362.568 161.7 362.91 160.542 363.795 159.899C365.709 158.655 367.901 159.226 369.844 160.191C371.813 161.103 373.375 162.713 374.227 164.71C374.566 165.656 374.324 166.712 373.609 167.415C372.893 168.119 371.834 168.342 370.896 167.986Z" fill="#263238"/>
<path d="M329.782 201.888C330.411 202.883 330.966 204.184 332.193 204.594C333.478 204.879 334.809 204.879 336.094 204.594C336.147 204.592 336.195 204.622 336.217 204.67C336.24 204.718 336.231 204.774 336.196 204.813C334.867 205.952 333.02 206.267 331.389 205.632C330.047 204.917 329.268 203.462 329.417 201.947C329.402 201.742 329.68 201.742 329.782 201.888Z" fill="#263238"/>
<path d="M335.861 192.44C336.963 195.617 339.341 198.189 342.421 199.533C343.744 200.131 345.146 200.535 346.585 200.733C346.858 200.795 347.137 200.829 347.417 200.835C347.675 200.851 347.934 200.851 348.192 200.835C348.587 200.86 348.948 200.613 349.068 200.235C349.084 200.119 349.084 200.001 349.068 199.884V199.577C349.77 196.945 350.529 192.85 350.529 192.85C351.377 193.566 355.775 196.974 356.023 195.57C358.083 183.87 360.406 171.014 359.968 159.006C359.968 158.829 359.824 158.685 359.646 158.685C359.469 158.685 359.325 158.829 359.325 159.006C356.9 170.092 356.403 181.544 354.197 192.645C352.632 191.434 350.906 190.45 349.068 189.72C348.674 189.72 347.841 197.647 347.432 198.802C347.438 198.841 347.438 198.88 347.432 198.919C342.859 198.422 339.82 196.286 336.226 192.25C336.051 191.957 335.714 192.118 335.861 192.44Z" fill="#263238"/>
<path d="M345.357 199.022C343.449 200.548 341.179 201.556 338.768 201.947C337.448 202.136 336.103 201.901 334.925 201.274C332.339 199.899 332.88 197.354 333.903 195.321C334.454 194.241 335.131 193.23 335.919 192.309C338.268 195.498 341.576 197.851 345.357 199.022Z" fill="#263238"/>
<path d="M338.753 201.991C337.434 202.18 336.088 201.944 334.911 201.318C332.325 199.943 332.865 197.398 333.888 195.365C336.752 196.374 339.192 199.065 338.753 201.991Z" fill="#FF97B8"/>
<path d="M383.461 149.529C382.687 149.851 381.912 150.129 381.152 150.363C360.23 156.856 339.878 133.485 339.878 133.485C334.802 141.337 325.17 144.908 316.209 142.26C313.94 148.953 311.161 155.461 307.896 161.727C308.694 136.469 322.05 113.281 343.487 99.9344C350.152 102.275 356.636 105.101 362.89 108.388C365.48 104.678 368.902 101.627 372.883 99.481C374.821 98.3879 377.122 98.1368 379.25 98.7861C381.378 99.4354 383.148 100.928 384.148 102.918C382.039 104.97 380.416 107.469 379.399 110.231C375.922 119.328 383.607 120.922 385.316 112.366C386.072 109.183 385.657 105.834 384.148 102.933C389.101 98.1501 395.675 97.6236 398.758 101.47C404.515 108.227 401.505 141.997 383.461 149.529Z" fill="#263238"/>
<path fill-rule="evenodd" clip-rule="evenodd" d="M335.831 160.147C338.99 160.342 342.005 161.541 344.437 163.57C347.869 166.393 349.862 170.603 349.872 175.05C349.872 175.152 349.875 175.242 349.878 175.333C349.885 175.518 349.891 175.707 349.872 176.001C349.859 176.187 349.834 176.37 349.809 176.552C349.774 176.799 349.74 177.044 349.74 177.288C348.614 184.611 342.312 190.012 334.911 189.998H333.975C332.735 189.914 331.509 189.683 330.323 189.31C323.823 187.201 319.574 180.956 319.993 174.129C320.077 172.688 320.377 171.268 320.885 169.917C321.106 169.281 321.38 168.665 321.703 168.074C323.972 163.789 328.177 160.871 332.982 160.25C333.926 160.12 334.88 160.085 335.831 160.147ZM322.001 175.888C322.416 182.393 327.594 187.578 334.092 187.994C339.84 188.365 345.14 184.886 347.091 179.462C349.042 174.037 347.173 167.975 342.508 164.593C341.403 163.783 340.174 163.156 338.87 162.736C337.846 162.408 336.787 162.206 335.714 162.136C334.624 162.064 333.529 162.133 332.456 162.341C326.063 163.581 321.586 169.383 322.001 175.888Z" fill="#B2D235"/>
<path fill-rule="evenodd" clip-rule="evenodd" d="M377.821 172.491L378.084 173.12C379.408 176.608 379.607 180.423 378.654 184.03C377.692 188.375 375.07 192.17 371.349 194.605C369.242 195.964 366.678 196.418 364.234 195.862C363.912 195.775 363.605 195.687 363.299 195.57C360.374 194.311 358.17 191.803 357.294 188.74C356.256 185.473 356.164 181.979 357.031 178.663C357.066 178.509 357.11 178.358 357.162 178.21C357.351 177.461 357.595 176.728 357.893 176.016C358.327 174.911 358.87 173.853 359.514 172.857C360.359 171.512 361.404 170.304 362.612 169.273C364.22 167.862 366.206 166.952 368.324 166.655C369.364 166.524 370.419 166.583 371.436 166.831C372.136 167.005 372.809 167.27 373.438 167.621C375.388 168.725 376.927 170.435 377.821 172.491ZM372.518 191.138C374.541 189.022 375.959 186.4 376.623 183.548H376.682C377.273 181.163 377.338 178.677 376.872 176.264C376.717 175.448 376.483 174.65 376.17 173.88C375.406 171.682 373.751 169.908 371.612 168.996C371.378 168.907 371.139 168.834 370.896 168.776C368.353 168.268 365.723 169.026 363.839 170.809C361.373 173.009 359.652 175.923 358.915 179.146C357.191 186.078 359.748 192.703 364.657 193.917C367.585 194.459 370.579 193.4 372.518 191.138Z" fill="#B2D235"/>
<path d="M348.98 177.61L348.031 175.855C350.617 174.392 356.256 172.93 359.076 177.464L357.381 178.517C354.854 174.451 349.229 177.478 348.98 177.61Z" fill="#B2D235"/>
<path d="M322.784 168.396L322.214 170.312L320.885 169.917C317.598 168.952 312.747 167.548 307.911 166.202L305.573 165.559C305.939 164.988 306.318 164.403 306.684 163.789L307.867 164.125C313.711 165.734 319.365 167.387 321.703 168.074L322.784 168.396Z" fill="#B2D235"/>
<g opacity="0.3">
<path d="M399.416 237.647C369.648 244.21 338.862 232.176 321.414 207.157C303.966 182.137 303.292 149.06 319.707 123.35C336.122 97.6397 366.393 84.3597 396.403 89.7029C426.414 95.0461 450.253 117.96 456.805 147.76C461.105 167.298 457.474 187.746 446.711 204.604C435.948 221.461 418.935 233.348 399.416 237.647Z" fill="white"/>
<path d="M317.115 200.192C336.984 236.497 382.355 250.009 418.818 230.481L317.115 200.192Z" fill="#EBEBEB"/>
<path d="M319.277 124.096L458.573 165.588C458.694 159.597 458.105 153.612 456.82 147.76C455.363 141.045 452.978 134.567 449.734 128.513L346.906 97.8723C335.607 104.104 326.095 113.133 319.277 124.096Z" fill="#EBEBEB"/>
<path d="M308.407 172.784L441.084 212.272C444.246 208.472 447.03 204.372 449.397 200.031L308.115 157.939C307.708 162.884 307.806 167.858 308.407 172.784Z" fill="#EBEBEB"/>
<path d="M314.456 133.222L457.638 175.884C457.784 174.977 457.915 174.071 458.018 173.164L315.596 130.75C315.201 131.555 314.807 132.374 314.456 133.222Z" fill="#EBEBEB"/>
<path d="M370.75 89.5944L434.305 108.52C432.654 106.984 430.916 105.595 429.119 104.132L377.5 88.7754C375.237 88.9323 372.984 89.2057 370.75 89.5944Z" fill="#EBEBEB"/>
</g>
<path d="M429.136 326.637L409.788 330.902L391.051 245.732L410.399 241.466L429.136 326.637Z" fill="#EBEBEB"/>
<path fill-rule="evenodd" clip-rule="evenodd" d="M365.215 82.0802C410.4 72.1208 455.096 100.714 465.046 145.946C474.979 191.176 446.42 235.908 401.242 245.881C356.056 255.839 311.362 227.244 301.413 182.013C291.465 136.781 320.03 92.0397 365.215 82.0802ZM321.406 207.169C338.859 232.187 369.648 244.216 399.416 237.647C418.932 233.344 435.942 221.457 446.702 204.599C457.462 187.742 461.091 167.296 456.791 147.759C450.237 117.959 426.395 95.0458 396.383 89.7048C366.372 84.3638 336.101 97.6472 319.689 123.36C303.276 149.073 303.954 182.152 321.406 207.169Z" fill="#455A64"/>
<path d="M417.781 390.834L447.046 384.384L430.448 308.873L401.169 315.323L417.781 390.834Z" fill="#263238"/>
<path d="M430.55 154.092C430.519 154.007 430.495 153.919 430.477 153.829C430.127 152.571 430.857 155.043 430.594 154.224C430.331 153.405 429.951 152.249 429.586 151.299C428.308 147.906 426.744 144.628 424.911 141.5C424.662 141.061 424.385 140.622 424.136 140.184C424.049 140.037 424.779 141.207 424.136 140.286L423.625 139.496C422.953 138.487 422.266 137.492 421.55 136.571C419.968 134.431 418.245 132.398 416.393 130.487L415.049 129.141C414.435 128.542 415.765 129.799 414.917 129.024L414.07 128.249C412.974 127.299 411.849 126.377 410.68 125.5C409.511 124.622 408.123 123.657 406.794 122.823C406.18 122.443 405.567 122.077 404.938 121.726C403.857 121.097 405.406 121.946 404.602 121.536L403.448 120.951C399.958 119.232 396.307 117.86 392.549 116.856H392.359L391.95 116.768L390.27 116.403C389.174 116.183 388.093 115.993 386.982 115.832C384.662 115.5 382.326 115.285 379.984 115.189C378.214 114.988 376.686 113.857 375.976 112.222C375.265 110.587 375.479 108.697 376.538 107.264C377.597 105.831 379.339 105.071 381.109 105.273C396.037 105.735 410.313 111.506 421.375 121.551C428.725 128.44 434.471 136.864 438.206 146.224C439.061 148.313 439.774 150.458 440.339 152.644C440.76 155.365 438.905 157.914 436.19 158.348C433.487 158.712 430.976 156.882 430.492 154.195L430.55 154.092Z" fill="white"/>
<path d="M432.596 168.791C432.899 170.758 434.357 172.347 436.289 172.817C438.221 173.287 440.245 172.544 441.415 170.935C442.586 169.327 442.672 167.17 441.633 165.474C440.594 163.777 438.635 162.875 436.672 163.189C434.005 163.616 432.184 166.119 432.596 168.791Z" fill="white"/>
<path d="M482.052 344.457C482.052 344.457 502.974 310.029 476.924 277.18C466.2 263.666 440.894 239.432 389.553 242.81C377.368 243.615 360.581 253.399 380.948 259.322C395.412 263.534 405.859 261.823 413.836 265.801C413.836 265.801 393.951 280.792 395.237 292.975C395.807 298.416 396.23 310.306 399.372 321.626C399.372 321.626 403.492 324.552 406.838 324.054C406.838 324.054 415.852 350.087 448.273 358.088L482.052 344.457Z" fill="#D3766A"/>
<path d="M465.922 272.763C457.536 269.414 439.623 262.627 423.04 262.159C404.617 261.648 368.982 265.64 368.763 279.257C368.588 289.246 382.321 288.909 382.321 288.909C382.321 288.909 367.945 293.663 369.771 302.716C371.422 310.964 382.029 310.028 382.029 310.028C382.029 310.028 373.803 314.416 376.93 322.05C380.685 331.235 397.297 320.588 409.073 326.555C411.79 327.959 465.922 272.763 465.922 272.763Z" fill="#D3766A"/>
<path d="M425.714 281.728C417.313 279.885 397.136 280.587 382.497 288.588C382.161 288.763 382.117 289.114 382.497 289.012C396.563 284.905 411.075 282.518 425.714 281.904C425.846 281.904 425.846 281.831 425.714 281.728Z" fill="#263238"/>
<path d="M424.692 300.332C417.27 299.483 396.508 301.136 381.956 309.75C381.62 309.941 381.606 310.292 381.956 310.175C395.8 305.345 410.147 302.101 424.721 300.507C424.769 300.499 424.802 300.453 424.794 300.405C424.786 300.356 424.74 300.324 424.692 300.332Z" fill="#263238"/>
<path d="M454.599 360.325C447.162 358.558 439.983 355.84 433.239 352.237C426.448 348.559 420.438 343.591 415.546 337.612C414.084 335.784 412.623 333.883 411.352 331.937C410.081 329.992 408.679 327.784 407.174 325.853C407.057 325.707 406.779 325.853 406.867 325.985C408.56 330.044 410.644 333.929 413.091 337.583C415.284 341 417.906 344.121 420.893 346.87C426.788 352.121 433.775 355.997 441.347 358.219C445.648 359.418 450.05 360.216 454.497 360.603C454.716 360.662 454.804 360.369 454.599 360.325Z" fill="#263238"/>
<path d="M241.331 250.152C203.695 300.741 140.885 432.589 131.651 451.982C125.383 465.145 194.096 499.808 197.003 490.243C200.743 477.986 262.18 316.2 270.786 257.216C275.49 224.879 254.349 232.645 241.331 250.152Z" fill="#D3766A"/>
<path d="M198.859 483.661C197.266 495.581 189.172 519.596 183.153 523.267C177.133 526.938 145.502 526.192 129.562 526.192C113.622 526.192 110.568 521.731 110.758 516.247C110.948 510.762 144.464 509.709 144.464 509.709C144.464 509.709 99.7857 522.462 88.5503 524.612C77.3149 526.762 51.44 533.241 47.6412 523.925C45.9611 519.713 53.0471 515.457 53.0471 515.457C53.0471 515.457 42.1916 518.631 40.4529 513.234C38.4951 507.077 47.1299 503.698 47.1299 503.698C47.1299 503.698 40.3361 505.058 40.1753 500.042C39.8831 488.78 82.3701 483.281 82.3701 483.281C82.3701 483.281 49.8474 499.135 48.7662 489.979C47.3052 477.328 113.987 463.449 120.927 457.935C125.976 453.721 130.699 449.131 135.055 444.202L198.859 483.661Z" fill="#D3766A"/>
<path d="M110.992 518.967C110.763 517.391 111.307 515.801 112.453 514.696C113.599 513.646 114.912 512.796 116.339 512.181C119.287 510.927 122.344 509.948 125.471 509.256C131.753 507.662 138.196 506.535 144.61 504.868C137.999 504.769 131.401 505.506 124.974 507.062C121.69 507.816 118.528 509.027 115.58 510.66C114.053 511.5 112.715 512.645 111.649 514.024C110.584 515.444 110.334 517.317 110.992 518.967Z" fill="#263238"/>
<path d="M53.1494 515.398C57.7517 514.272 62.2809 512.985 66.7955 511.669C71.3101 510.353 75.8101 508.978 80.3101 507.618L93.7663 503.406C98.2517 501.943 102.737 500.597 107.266 499.237C102.564 499.755 97.9027 500.591 93.3134 501.738C88.6965 502.791 84.1673 504.108 79.6527 505.482C75.1381 506.857 70.6673 508.407 66.2549 510.045C61.8426 511.684 57.3864 513.409 53.1494 515.398Z" fill="#263238"/>
<path d="M96.4255 488.049C92.0916 488.321 87.7841 488.917 83.5391 489.833C79.2794 490.681 75.07 491.765 70.9303 493.08C66.7806 494.368 62.7074 495.892 58.7306 497.643C54.7396 499.35 50.8773 501.345 47.1738 503.61C51.2793 502.148 55.2826 500.612 59.3589 499.223C63.4352 497.833 67.4969 496.458 71.6024 495.201C75.7079 493.943 79.8134 492.7 83.9482 491.486C88.0829 490.272 92.2323 489.219 96.4255 488.049Z" fill="#263238"/>
<path d="M89.8507 477.402C82.8705 477.964 75.9939 479.439 69.3962 481.789C62.7342 483.998 56.3923 487.076 50.5342 490.945C57.1381 488.59 63.5666 486.104 70.1267 483.91C76.6868 481.716 83.1884 479.552 89.8507 477.402Z" fill="#263238"/>
<path d="M257.33 336.866L181.063 334.76C181.063 334.76 222.63 268.536 244.896 244.243C268.141 218.941 280.794 221.121 272.861 265.947C264.869 311.081 257.33 336.866 257.33 336.866Z" fill="#B2D235"/>
<path fill-rule="evenodd" clip-rule="evenodd" d="M273.502 232.414C273.508 232.403 273.513 232.393 273.518 232.382H273.489C273.493 232.393 273.498 232.403 273.502 232.414ZM273.502 232.414C273.143 233.164 272.812 233.929 272.495 234.708C271.67 236.798 271.139 238.994 270.917 241.23C272.262 239.444 273.345 237.474 274.131 235.38C274.204 235.19 274.263 235.015 274.321 234.825C274.116 234 273.842 233.193 273.502 232.414ZM252.727 275.044C251.846 272.974 250.67 271.043 249.235 269.311C249.938 273.772 251.802 277.969 254.641 281.48C254.32 279.253 253.675 277.085 252.727 275.044ZM210.138 323.542C208.08 324.443 206.153 325.619 204.411 327.038C208.864 326.318 213.056 324.459 216.581 321.641C214.353 321.961 212.183 322.601 210.138 323.542ZM215.982 295.959C216.196 293.72 216.727 291.524 217.56 289.436C218.326 287.32 219.4 285.33 220.745 283.527C220.273 288.017 218.63 292.304 215.982 295.959ZM251.164 319.33C250.324 321.42 249.797 323.623 249.601 325.868C252.233 322.204 253.873 317.922 254.364 313.436C253.012 315.237 251.925 317.221 251.135 319.33H251.164Z" fill="white"/>
<path d="M252.552 323.586C250.74 323.323 248.885 323.323 247.073 323.235L241.448 322.928C237.669 322.743 233.875 322.592 230.066 322.475C222.469 322.241 214.886 321.977 207.303 321.875C205.214 321.875 203.125 321.875 201.036 321.875C198.946 321.875 196.652 322.094 194.461 322.109C194.329 322.109 194.344 322.314 194.461 322.314C196.331 322.431 198.201 322.709 200.086 322.826C201.971 322.943 203.928 323.06 205.857 323.133C209.656 323.279 213.454 323.411 217.253 323.498C224.719 323.674 232.2 323.879 239.665 323.893H246.006C248.183 323.893 250.389 324.01 252.581 323.82C252.639 323.776 252.669 323.601 252.552 323.586Z" fill="#263238"/>
<path d="M272.115 287.213C272.115 287.067 271.94 286.979 271.867 287.125C270.452 289.733 269.241 292.447 268.244 295.242C268.507 293.911 268.814 292.58 269.062 291.235C269.895 286.935 270.654 282.606 271.502 278.306C271.483 278.253 271.434 278.218 271.378 278.218C271.322 278.218 271.272 278.253 271.253 278.306C269.281 285.706 266.987 293.034 265.234 300.493C263.481 307.952 261.713 315.411 260.077 322.899C259.185 327.038 258.382 332.201 257.476 336.325C255.27 336.588 252.435 336.325 250.054 336.632C249.849 336.632 249.908 336.998 250.054 336.998C252.567 337.071 255.562 337.641 258.206 337.48C258.542 337.48 264.942 310.877 267.601 298.138C269.237 294.511 270.757 290.884 272.115 287.213Z" fill="#263238"/>
<path d="M326.363 245.852C325.297 249.348 324.084 252.799 322.696 256.178C321.538 259.221 320.115 262.158 318.445 264.953C315.289 269.94 310.438 274.065 304.287 274.05C298.443 274.05 293.096 270.657 289.355 266.328C285.264 261.604 282.547 255.68 280.107 249.977C278.646 246.452 277.185 242.854 276.016 239.212C275.417 237.369 274.789 235.527 274.263 233.655C273.737 231.783 273.284 229.896 272.641 228.068C272.641 227.921 272.32 227.936 272.363 228.068C273.445 232.28 276.586 245.618 277.842 249.011C280.151 255.227 282.751 261.648 286.915 266.883C290.86 271.827 296.222 275.571 302.636 276.185C309.05 276.8 314.544 273.421 318.079 268.331C320.158 265.125 321.781 261.645 322.901 257.991C324.26 253.984 325.399 249.874 326.437 245.764C326.495 245.823 326.363 245.808 326.363 245.852Z" fill="#263238"/>
<path d="M565.411 529.268H460.604L455.927 436.959H565.411V529.268Z" fill="#DBDBDB"/>
<path d="M565.411 436.959L603.06 389.736L633.021 436.959L628.344 529.268H565.411V436.959Z" fill="#C7C7C7"/>
<path d="M492.509 374.742H604.39L644.743 440.693H631.75L604.39 395.037L572.835 446.14H446.69L492.509 374.742Z" fill="#A6A6A6"/>
<path d="M505.473 395.608H481.416L468.584 411.012H496.353L505.473 395.608Z" fill="#C7C7C7"/>
<path d="M487.248 408.376V427.134H473.86V408.376L480.554 399.986L487.248 408.376Z" fill="#DBDBDB"/>
<path d="M487.248 408.362H497.771L487.248 427.134V408.362Z" fill="#C7C7C7"/>
<rect x="476.403" y="408.669" width="7.61462" height="12.8711" fill="#FBFAFF"/>
<rect x="477.338" y="409.562" width="2.45538" height="4.14393" fill="#EBEBEB"/>
<rect x="480.612" y="409.562" width="2.45538" height="4.14393" fill="#EBEBEB"/>
<rect x="477.338" y="414.453" width="2.45538" height="6.13536" fill="#EBEBEB"/>
<rect x="480.612" y="414.453" width="2.45538" height="6.13536" fill="#EBEBEB"/>
<path d="M564.373 395.608H540.316L528.273 411.012H555.194L564.373 395.608Z" fill="#C7C7C7"/>
<path d="M546.147 408.376V427.134H532.76V408.376L539.454 399.986L546.147 408.376Z" fill="#DBDBDB"/>
<path d="M546.147 408.362H556.685L546.147 427.134V408.362Z" fill="#C7C7C7"/>
<rect x="535.303" y="408.669" width="7.61462" height="12.8711" fill="#FBFAFF"/>
<rect x="536.238" y="409.562" width="2.45538" height="4.14393" fill="#EBEBEB"/>
<rect x="539.527" y="409.562" width="2.45538" height="4.14393" fill="#EBEBEB"/>
<rect x="536.238" y="414.453" width="2.45538" height="6.13536" fill="#EBEBEB"/>
<rect x="539.527" y="414.453" width="2.45538" height="6.13536" fill="#EBEBEB"/>
<rect x="570.936" y="372.077" width="13.3877" height="17.6593" fill="#DBDBDB"/>
<path d="M584.323 372.077H594.846V374.918L584.323 389.736V372.077Z" fill="#C7C7C7"/>
<rect x="569.43" y="366.073" width="14.8931" height="6.00357" fill="#C7C7C7"/>
<rect x="584.323" y="366.073" width="11.6777" height="6.00357" fill="#A6A6A6"/>
<rect x="471.682" y="453.696" width="16.5738" height="28.0411" fill="#FBFAFF"/>
<rect x="473.729" y="455.644" width="5.33462" height="9.03464" fill="#EBEBEB"/>
<rect x="480.875" y="455.644" width="5.33462" height="9.03464" fill="#EBEBEB"/>
<rect x="473.729" y="466.303" width="5.33462" height="13.3836" fill="#EBEBEB"/>
<rect x="480.875" y="466.303" width="5.33462" height="13.3836" fill="#EBEBEB"/>
<rect x="533.242" y="453.696" width="16.5738" height="28.0411" fill="#FBFAFF"/>
<rect x="535.289" y="455.644" width="5.33462" height="9.03464" fill="#EBEBEB"/>
<rect x="542.436" y="455.644" width="5.33462" height="9.03464" fill="#EBEBEB"/>
<rect x="535.289" y="466.303" width="5.33462" height="13.3836" fill="#EBEBEB"/>
<rect x="542.436" y="466.303" width="5.33462" height="13.3836" fill="#EBEBEB"/>
<rect x="471.682" y="492.661" width="16.5738" height="28.0411" fill="#FBFAFF"/>
<rect x="473.729" y="494.608" width="5.33462" height="9.03464" fill="#EBEBEB"/>
<rect x="480.875" y="494.608" width="5.33462" height="9.03464" fill="#EBEBEB"/>
<rect x="473.729" y="505.268" width="5.33462" height="13.3836" fill="#EBEBEB"/>
<rect x="480.875" y="505.268" width="5.33462" height="13.3836" fill="#EBEBEB"/>
<rect x="533.242" y="492.661" width="16.5738" height="28.0411" fill="#FBFAFF"/>
<rect x="535.289" y="494.608" width="5.33462" height="9.03464" fill="#EBEBEB"/>
<rect x="542.436" y="494.608" width="5.33462" height="9.03464" fill="#EBEBEB"/>
<rect x="535.289" y="505.268" width="5.33462" height="13.3836" fill="#EBEBEB"/>
<rect x="542.436" y="505.268" width="5.33462" height="13.3836" fill="#EBEBEB"/>
<rect x="502.375" y="453.696" width="16.5738" height="28.0411" fill="#FBFAFF"/>
<rect x="504.421" y="455.644" width="5.33462" height="9.03464" fill="#EBEBEB"/>
<rect x="511.583" y="455.644" width="5.33462" height="9.03464" fill="#EBEBEB"/>
<rect x="504.421" y="466.303" width="5.33462" height="13.3836" fill="#EBEBEB"/>
<rect x="511.583" y="466.303" width="5.33462" height="13.3836" fill="#EBEBEB"/>
<rect x="502.375" y="492.851" width="16.5738" height="28.0411" fill="#FBFAFF"/>
<rect x="504.421" y="494.784" width="5.33462" height="9.03464" fill="#EBEBEB"/>
<rect x="511.583" y="494.784" width="5.33462" height="9.03464" fill="#EBEBEB"/>
<rect x="504.421" y="505.458" width="5.33462" height="13.3836" fill="#EBEBEB"/>
<rect x="511.583" y="505.458" width="5.33462" height="13.3836" fill="#EBEBEB"/>
<rect x="611.771" y="481.737" width="16.5738" height="28.0411" transform="rotate(180 611.771 481.737)" fill="#FBFAFF"/>
<rect x="604.39" y="455.644" width="5.33462" height="9.03464" fill="#EBEBEB"/>
<rect x="597.229" y="455.644" width="5.33462" height="9.03464" fill="#EBEBEB"/>
<rect x="604.39" y="466.303" width="5.33462" height="13.3836" fill="#EBEBEB"/>
<rect x="597.229" y="466.303" width="5.33462" height="13.3836" fill="#EBEBEB"/>
<rect x="611.771" y="438.394" width="16.5738" height="23.7361" transform="rotate(180 611.771 438.394)" fill="#FBFAFF"/>
<rect x="604.39" y="416.591" width="5.33462" height="9.03464" fill="#EBEBEB"/>
<rect x="597.229" y="416.591" width="5.33462" height="9.03464" fill="#EBEBEB"/>
<rect x="604.39" y="427.354" width="5.33462" height="9.03464" fill="#EBEBEB"/>
<rect x="597.229" y="427.354" width="5.33462" height="9.03464" fill="#EBEBEB"/>
<path d="M612.935 529.534L592.839 529.44L593.011 492.877L613.107 492.972L612.935 529.534Z" fill="#FBFAFF"/>
<path d="M600.841 500.885L600.867 495.408L605.193 495.429L605.167 500.905L600.841 500.885Z" fill="#EBEBEB"/>
<path d="M595.188 500.855L595.213 495.379L599.539 495.399L599.514 500.876L595.188 500.855Z" fill="#EBEBEB"/>
<path d="M607.494 520.162L598.359 520.119L598.36 520.1L607.494 520.143L607.494 520.162Z" fill="#EBEBEB"/>
<path d="M603.571 498.093V492.617H607.897V498.093H603.571Z" fill="#EBEBEB"/>
<path d="M600.826 507.8L600.852 502.323L605.178 502.344L605.152 507.82L600.826 507.8Z" fill="#EBEBEB"/>
<path d="M595.128 507.755L595.154 502.279L599.48 502.299L599.455 507.776L595.128 507.755Z" fill="#EBEBEB"/>
<path d="M606.494 507.829L606.52 502.352L610.846 502.373L610.82 507.849L606.494 507.829Z" fill="#EBEBEB"/>
<path d="M600.796 514.729L600.822 509.253L605.148 509.273L605.123 514.749L600.796 514.729Z" fill="#EBEBEB"/>
<path d="M595.114 514.699L595.14 509.223L599.466 509.243L599.44 514.72L595.114 514.699Z" fill="#EBEBEB"/>
<path d="M606.465 514.758L606.491 509.282L610.817 509.302L610.791 514.779L606.465 514.758Z" fill="#EBEBEB"/>
<path d="M276.962 529.517H183.862L179.696 484.314H276.962V529.517Z" fill="#DBDBDB"/>
<path d="M276.932 484.256L310.372 442.319L337.001 484.256L332.836 529.458H276.932V484.256Z" fill="#C7C7C7"/>
<path d="M211.645 429.052H312.769L350.228 492.47H340.012L311.395 444.735L283.904 492.47H171.862L211.645 429.052Z" fill="#A6A6A6"/>
<rect x="193.917" y="501.095" width="14.7323" height="21.0857" fill="#FBFAFF"/>
<rect x="195.729" y="502.823" width="4.73538" height="8.02429" fill="#DBDBDB"/>
<rect x="202.087" y="502.823" width="4.73538" height="8.02429" fill="#DBDBDB"/>
<rect x="195.729" y="512.37" width="4.73538" height="8.02429" fill="#DBDBDB"/>
<rect x="202.087" y="512.37" width="4.73538" height="8.02429" fill="#DBDBDB"/>
<rect x="248.023" y="501.095" width="14.7323" height="21.0857" fill="#FBFAFF"/>
<rect x="249.835" y="502.823" width="4.73538" height="8.02429" fill="#DBDBDB"/>
<rect x="256.193" y="502.823" width="4.73538" height="8.02429" fill="#DBDBDB"/>
<rect x="249.835" y="512.37" width="4.73538" height="8.02429" fill="#DBDBDB"/>
<rect x="256.193" y="512.37" width="4.73538" height="8.02429" fill="#DBDBDB"/>
<rect x="219.552" y="499.968" width="16.2377" height="29.5493" fill="#FBFAFF"/>
<rect x="225.925" y="502.003" width="3.49308" height="4.42214" fill="#DBDBDB"/>
<rect x="230.514" y="502.003" width="3.49308" height="4.42214" fill="#DBDBDB"/>
<rect x="223.981" y="521.405" width="7.38077" height="1.06893" fill="#DBDBDB"/>
<rect x="221.335" y="502.003" width="3.49308" height="4.42214" fill="#DBDBDB"/>
<rect x="225.925" y="507.596" width="3.49308" height="4.42214" fill="#DBDBDB"/>
<rect x="230.514" y="507.596" width="3.49308" height="4.42214" fill="#DBDBDB"/>
<rect x="221.335" y="507.596" width="3.49308" height="4.42214" fill="#DBDBDB"/>
<rect x="225.925" y="513.19" width="3.49308" height="4.42214" fill="#DBDBDB"/>
<rect x="230.514" y="513.19" width="3.49308" height="4.42214" fill="#DBDBDB"/>
<rect x="221.335" y="513.19" width="3.49308" height="4.42214" fill="#DBDBDB"/>
<rect x="221.146" y="426.519" width="11.8969" height="15.6825" fill="#DBDBDB"/>
<path d="M233.042 426.519H242.396V429.038L233.042 442.202V426.519Z" fill="#C7C7C7"/>
<rect x="219.815" y="421.174" width="13.2269" height="5.33" fill="#C7C7C7"/>
<rect x="233.042" y="421.174" width="10.3769" height="5.33" fill="#A6A6A6"/>
<path d="M313.763 529.531H343.959L346.838 498.357H313.763V529.531Z" fill="#C7C7C7"/>
<path d="M313.763 498.357L298.841 491.606L299.177 529.531H313.763V498.357Z" fill="#DBDBDB"/>
<rect x="324.184" y="506.425" width="12.7008" height="23.0918" fill="#FBFAFF"/>
<rect x="329.167" y="508.006" width="2.73308" height="3.45571" fill="#DBDBDB"/>
<rect x="332.749" y="508.006" width="2.73308" height="3.45571" fill="#DBDBDB"/>
<rect x="327.647" y="521.624" width="5.77308" height="0.834643" fill="#DBDBDB"/>
<rect x="325.587" y="508.006" width="2.73308" height="3.45571" fill="#DBDBDB"/>
<path d="M296.561 490.054H340.436L354.613 500.861H312.491L296.561 490.054Z" fill="#A6A6A6"/>
<path d="M312.491 500.861H296.561V490.054L312.491 500.861Z" fill="#C7C7C7"/>
<path d="M303.064 474.255C303.064 477.306 304.9 480.057 307.714 481.223C310.529 482.389 313.767 481.742 315.919 479.582C318.07 477.422 318.711 474.176 317.541 471.359C316.372 468.541 313.622 466.708 310.577 466.714C306.425 466.722 303.064 470.096 303.064 474.255H303.064Z" fill="#FBFAFF"/>
<path d="M304.746 474.255C304.746 477.489 307.363 480.112 310.592 480.112C311.085 480.115 311.577 480.051 312.053 479.921C314.868 479.156 316.689 476.429 316.321 473.53C315.953 470.631 313.508 468.447 310.592 468.412C310.098 468.41 309.607 468.474 309.13 468.603C308.45 468.768 307.809 469.067 307.245 469.481C305.687 470.571 304.755 472.351 304.746 474.255Z" fill="#C7C7C7"/>
<rect x="311.396" y="481.137" width="1.62231" height="13.8814" transform="rotate(180 311.396 481.137)" fill="#FBFAFF"/>
<path d="M317.519 473.376V475.001H303.664V473.376H317.519Z" fill="#FBFAFF"/>
<path d="M356.791 529.531H309.744L306.528 494.667H356.791V529.531Z" fill="#B2D235"/>
<path opacity="0.2" d="M356.791 529.531H309.744L306.528 494.667H356.791V529.531Z" fill="black"/>
<path d="M356.791 494.667L382.587 462.306L403.122 494.667L399.921 529.532H356.791V494.667Z" fill="#B2D235"/>
<path d="M359.904 498.928H296.064L334.897 450.006H382.85L411.672 498.928H404.349L382.85 465.41L359.904 498.928Z" fill="#B2D235"/>
<path opacity="0.4" d="M359.904 498.928H296.064L334.897 450.006H382.85L411.672 498.928H404.349L382.85 465.41L359.904 498.928Z" fill="black"/>
<rect x="411.028" y="406.736" width="13.3" height="17.5421" fill="#B2D235"/>
<rect opacity="0.2" x="411.028" y="406.736" width="13.3" height="17.5421" fill="black"/>
<rect x="424.329" y="406.736" width="10.4646" height="17.5421" fill="#B2D235"/>
<rect x="409.538" y="400.762" width="14.7908" height="5.95964" fill="#B2D235"/>
<rect opacity="0.5" x="409.538" y="400.762" width="14.7908" height="5.95964" fill="black"/>
<rect x="424.329" y="400.762" width="11.6046" height="5.95964" fill="#B2D235"/>
<rect opacity="0.4" x="424.329" y="400.762" width="11.6046" height="5.95964" fill="black"/>
<path d="M471.068 529.488H366.934L362.271 478.926H471.068V529.488Z" fill="#B2D235"/>
<path opacity="0.2" d="M471.068 529.488H366.934L362.271 478.926H471.068V529.488Z" fill="black"/>
<path d="M471.068 478.926L508.469 431.995L538.255 478.926L533.593 529.488H471.068V478.926Z" fill="#B2D235"/>
<path d="M508.016 434.968L538.767 482.616H549.509L508.937 417.104H398.167L342.044 488.048H477.339L508.016 434.968Z" fill="#B2D235"/>
<path opacity="0.5" d="M508.016 434.968L538.767 482.616H549.509L508.937 417.104H398.167L342.044 488.048H477.339L508.016 434.968Z" fill="black"/>
<rect x="515.222" y="486.028" width="16.4715" height="23.5896" transform="rotate(180 515.222 486.028)" fill="#FBFAFF"/>
<rect x="507.885" y="464.356" width="5.30538" height="8.97607" fill="#B2D235"/>
<rect x="500.782" y="464.356" width="5.30538" height="8.97607" fill="#B2D235"/>
<rect x="507.885" y="475.045" width="5.30538" height="8.97607" fill="#B2D235"/>
<rect x="500.782" y="475.045" width="5.30538" height="8.97607" fill="#B2D235"/>
<rect x="378.173" y="497.683" width="16.4715" height="23.5896" fill="#FBFAFF"/>
<rect x="380.205" y="499.616" width="5.30538" height="8.97607" fill="#B2D235"/>
<rect x="387.322" y="499.616" width="5.30538" height="8.97607" fill="#B2D235"/>
<rect x="380.205" y="510.305" width="5.30538" height="8.97607" fill="#B2D235"/>
<rect x="387.322" y="510.305" width="5.30538" height="8.97607" fill="#B2D235"/>
<rect x="408.441" y="497.683" width="16.4715" height="23.5896" fill="#FBFAFF"/>
<rect x="410.458" y="499.616" width="5.30538" height="8.97607" fill="#B2D235"/>
<rect x="417.576" y="499.616" width="5.30538" height="8.97607" fill="#B2D235"/>
<rect x="410.458" y="510.305" width="5.30538" height="8.97607" fill="#B2D235"/>
<rect x="417.576" y="510.305" width="5.30538" height="8.97607" fill="#B2D235"/>
<rect x="438.695" y="497.683" width="16.4715" height="23.5896" fill="#FBFAFF"/>
<rect x="440.727" y="499.616" width="5.30538" height="8.97607" fill="#B2D235"/>
<rect x="447.83" y="499.616" width="5.30538" height="8.97607" fill="#B2D235"/>
<rect x="440.727" y="510.305" width="5.30538" height="8.97607" fill="#B2D235"/>
<rect x="447.83" y="510.305" width="5.30538" height="8.97607" fill="#B2D235"/>
<rect x="516.069" y="529.473" width="18.1669" height="33.0489" transform="rotate(180 516.069 529.473)" fill="#FBFAFF"/>
<rect x="505.035" y="498.708" width="3.91692" height="4.94929" fill="#B2D235"/>
<rect x="499.905" y="498.708" width="3.91692" height="4.94929" fill="#B2D235"/>
<rect x="511.115" y="521.61" width="8.25769" height="1.20071" transform="rotate(180 511.115 521.61)" fill="#B2D235"/>
<rect x="510.15" y="498.708" width="3.91692" height="4.94929" fill="#B2D235"/>
<rect x="505.035" y="504.961" width="3.91692" height="4.94929" fill="#B2D235"/>
<rect x="499.905" y="504.961" width="3.91692" height="4.94929" fill="#B2D235"/>
<rect x="510.15" y="504.961" width="3.91692" height="4.94929" fill="#B2D235"/>
<rect x="505.035" y="511.213" width="3.91692" height="4.94929" fill="#B2D235"/>
<rect x="499.905" y="511.213" width="3.91692" height="4.94929" fill="#B2D235"/>
<rect x="510.15" y="511.213" width="3.91692" height="4.94929" fill="#B2D235"/>
<path d="M441.049 434.089H417.138L404.846 449.464H431.914L441.049 434.089Z" fill="#B2D235"/>
<path opacity="0.4" d="M441.049 434.089H417.138L404.846 449.464H431.914L441.049 434.089Z" fill="black"/>
<path d="M422.94 446.77V465.41H409.625V446.77L416.29 438.438L422.94 446.77Z" fill="#B2D235"/>
<path opacity="0.2" d="M422.94 446.77V465.41H409.625V446.77L416.29 438.438L422.94 446.77Z" fill="black"/>
<path d="M422.94 446.77H433.405L422.94 465.41V446.77Z" fill="#B2D235"/>
<rect x="412.154" y="447.063" width="7.55615" height="12.7832" fill="#FBFAFF"/>
<rect x="413.089" y="447.941" width="2.44077" height="4.11464" fill="#B2D235"/>
<rect x="416.349" y="447.941" width="2.44077" height="4.11464" fill="#B2D235"/>
<rect x="413.089" y="452.817" width="2.44077" height="6.10607" fill="#B2D235"/>
<rect x="416.349" y="452.817" width="2.44077" height="6.10607" fill="#B2D235"/>
<path d="M580.286 256.529C593.626 267.772 599.43 285.51 595.285 302.373C591.14 319.236 577.756 332.341 560.692 336.243L550.411 357.103L540.438 336.389C532.981 334.805 526.039 331.403 520.243 326.49C507.634 315.857 501.706 299.365 504.692 283.225C507.678 267.086 519.125 253.752 534.72 248.245C550.316 242.738 567.691 245.896 580.3 256.529H580.286Z" fill="white"/>
<path fill-rule="evenodd" clip-rule="evenodd" d="M594.371 277.331C591.7 269.243 586.826 262.044 580.286 256.529C578.552 255.062 576.724 253.736 574.818 252.556C564.775 246.317 552.619 244.062 540.835 246.427C533.914 247.808 527.391 250.702 521.741 254.899C507.199 265.887 500.43 284.252 504.402 301.943C508.342 319.493 522.138 333.201 539.804 337.168L549.662 357.453L550.397 358.981L551.131 357.453L561.163 336.806C569.494 334.781 577.103 330.518 583.15 324.481C584.665 322.97 586.06 321.344 587.321 319.619C588.627 317.929 589.81 316.148 590.861 314.291C592.939 310.566 594.486 306.573 595.458 302.427C596.447 298.291 596.847 294.038 596.648 289.792C596.559 287.674 596.338 285.564 595.987 283.474C595.58 281.395 595.04 279.343 594.371 277.331ZM574.818 252.556C564.837 246.373 552.746 244.186 541.06 246.629C527.143 249.54 515.378 258.688 509.213 271.392C506.18 277.589 504.613 284.389 504.63 291.277C504.716 298.131 506.299 304.885 509.272 311.074C512.285 317.233 516.669 322.633 522.094 326.868C527.529 331.083 533.847 334.038 540.585 335.515L541.026 335.617L541.202 336.01L550.4 355.256L549.648 356.754H551.116L550.4 355.256L560.09 335.966L560.223 335.675H560.531C568.834 333.874 576.464 329.811 582.562 323.942C584.077 322.478 585.476 320.902 586.748 319.226C588.063 317.581 589.255 315.844 590.317 314.029C592.447 310.388 594.049 306.467 595.076 302.384C596.141 298.298 596.596 294.081 596.427 289.865C596.351 287.758 596.15 285.659 595.825 283.576C595.428 281.503 594.903 279.457 594.254 277.447C591.636 269.33 586.802 262.089 580.286 256.529C578.55 255.064 576.722 253.739 574.818 252.556Z" fill="#263238"/>
<path fill-rule="evenodd" clip-rule="evenodd" d="M562.852 279.849C562.338 279.331 561.766 278.872 561.148 278.481C560.328 277.955 559.469 277.493 558.578 277.098C556.42 276.129 554.109 275.538 551.748 275.351V288.453L552.967 288.7C555.07 289.198 557.144 289.81 559.18 290.534C560.857 291.118 562.436 291.947 563.865 292.994C565.109 293.943 566.114 295.164 566.803 296.561C567.539 298.178 567.895 299.94 567.845 301.714C567.904 303.684 567.492 305.639 566.641 307.42C565.855 308.983 564.708 310.34 563.292 311.38C561.793 312.463 560.105 313.263 558.313 313.738C556.331 314.279 554.288 314.568 552.233 314.597V321.235H548.928V314.466C545.92 314.286 542.952 313.683 540.115 312.675C537.382 311.701 534.824 310.301 532.537 308.527L535.783 302.471C536.397 303.095 537.082 303.647 537.824 304.116C538.819 304.758 539.859 305.328 540.938 305.819C542.207 306.399 543.518 306.886 544.859 307.275C546.299 307.697 547.774 307.994 549.266 308.163V295.062C549.218 295.048 549.169 295.033 549.119 295.018L549.119 295.018C548.91 294.956 548.686 294.89 548.473 294.843C548.204 294.788 547.939 294.715 547.679 294.625C545.687 294.114 543.726 293.492 541.804 292.762C540.292 292.203 538.883 291.401 537.633 290.389C536.558 289.51 535.699 288.4 535.122 287.143C534.503 285.714 534.207 284.169 534.255 282.615C534.215 280.73 534.585 278.858 535.342 277.127C536.048 275.547 537.09 274.137 538.397 272.993C539.748 271.807 541.313 270.883 543.009 270.271C544.899 269.589 546.877 269.177 548.884 269.048V262.658H552.188V269.048C554.812 269.181 557.397 269.736 559.841 270.693C562.036 271.541 564.113 272.661 566.024 274.027L562.852 279.849ZM541.819 281.48C541.713 283.041 542.423 284.547 543.699 285.468C545.451 286.561 547.378 287.348 549.398 287.798V275.351C547.334 275.301 545.313 275.937 543.655 277.156C542.418 278.25 541.743 279.838 541.819 281.48ZM558.049 298.264C559.506 299.156 560.361 300.761 560.281 302.456C560.373 304.175 559.534 305.812 558.078 306.751C556.161 307.808 553.983 308.312 551.792 308.206V295.702C553.991 296.252 556.099 297.115 558.049 298.264Z" fill="#B2D235"/>
</svg>
