<svg width="16" height="16" viewBox="0 0 16 16" fill="none" xmlns="http://www.w3.org/2000/svg">
<path fill-rule="evenodd" clip-rule="evenodd" d="M3.20106 2.9215C3.20106 3.1434 2.94584 3.26823 2.77068 3.13198L1.0717 1.81055C0.934435 1.70379 0.934435 1.49634 1.0717 1.38957L2.77068 0.068141C2.94584 -0.0680962 3.20106 0.0567291 3.20106 0.278635V1.06675H9.60101V0.278667C9.60101 0.0567609 9.85623 -0.0680644 10.0314 0.0681728L11.7304 1.3896C11.8677 1.49637 11.8677 1.70382 11.7304 1.81059L10.0314 3.13202C9.85623 3.26826 9.60101 3.14343 9.60101 2.92153V2.13341H3.20106V2.9215ZM10.1343 5.33326H2.6676C2.37305 5.33326 2.13427 5.57205 2.13427 5.8666V13.3333C2.13427 13.6278 2.37305 13.8666 2.6676 13.8666H10.1343C10.4288 13.8666 10.6676 13.6278 10.6676 13.3333V5.8666C10.6676 5.57205 10.4288 5.33326 10.1343 5.33326ZM2.6676 4.2666C1.78394 4.2666 1.0676 4.98295 1.0676 5.8666V13.3333C1.0676 14.2169 1.78394 14.9333 2.6676 14.9333H10.1343C11.0179 14.9333 11.7342 14.2169 11.7342 13.3333V5.8666C11.7342 4.98295 11.0179 4.2666 10.1343 4.2666H2.6676ZM15.7224 6.39996H14.9342V12.8H15.7224C15.9443 12.8 16.0692 13.0552 15.9329 13.2304L14.6115 14.9293C14.5047 15.0666 14.2972 15.0666 14.1905 14.9293L12.8691 13.2304C12.7329 13.0552 12.8577 12.8 13.0795 12.8H13.8676V6.39996H13.0795C12.8577 6.39996 12.7328 6.14474 12.8691 5.96958L14.1905 4.2706C14.2972 4.13334 14.5047 4.13334 14.6115 4.27061L15.9329 5.96958C16.0691 6.14474 15.9443 6.39996 15.7224 6.39996Z" fill="black"/>
</svg>
