<svg width="16" height="16" viewBox="0 0 16 16" fill="none" xmlns="http://www.w3.org/2000/svg">
<path fill-rule="evenodd" clip-rule="evenodd" d="M14.666 9.33333C14.666 9.48053 14.89 9.59999 15.166 9.59999C15.442 9.59999 15.666 9.48053 15.666 9.33333V8.79999C15.666 8.65279 15.442 8.53333 15.166 8.53333C14.89 8.53333 14.666 8.65279 14.666 8.79999V9.33333ZM15.166 11.2C14.89 11.2 14.666 11.0805 14.666 10.9333V10.4C14.666 10.2528 14.89 10.1333 15.166 10.1333C15.442 10.1333 15.666 10.2528 15.666 10.4V10.9333C15.666 11.0805 15.442 11.2 15.166 11.2ZM14.666 12.5333C14.666 12.6805 14.89 12.8 15.166 12.8C15.442 12.8 15.666 12.6805 15.666 12.5333V12C15.666 11.8528 15.442 11.7333 15.166 11.7333C14.89 11.7333 14.666 11.8528 14.666 12V12.5333ZM14.666 14.1333C14.666 14.2805 14.89 14.4 15.166 14.4C15.442 14.4 15.666 14.2805 15.666 14.1333V13.6C15.666 13.4528 15.442 13.3333 15.166 13.3333C14.89 13.3333 14.666 13.4528 14.666 13.6V14.1333Z" fill="#7383BF"/>
<path fill-rule="evenodd" clip-rule="evenodd" d="M8.79987 15.6666H9.3332C9.4804 15.6666 9.59987 15.4426 9.59987 15.1666C9.59987 14.8906 9.4804 14.6666 9.3332 14.6666H8.79987C8.65267 14.6666 8.5332 14.8906 8.5332 15.1666C8.5332 15.4426 8.65267 15.6666 8.79987 15.6666ZM10.9332 15.6666H10.3999C10.2527 15.6666 10.1332 15.4426 10.1332 15.1666C10.1332 14.8906 10.2527 14.6666 10.3999 14.6666H10.9332C11.0804 14.6666 11.1999 14.8906 11.1999 15.1666C11.1999 15.4426 11.0804 15.6666 10.9332 15.6666ZM11.9999 15.6666H12.5332C12.6804 15.6666 12.7999 15.4426 12.7999 15.1666C12.7999 14.8906 12.6804 14.6666 12.5332 14.6666H11.9999C11.8527 14.6666 11.7332 14.8906 11.7332 15.1666C11.7332 15.4426 11.8527 15.6666 11.9999 15.6666ZM13.5999 15.6666H14.1332C14.2804 15.6666 14.3999 15.4426 14.3999 15.1666C14.3999 14.8906 14.2804 14.6666 14.1332 14.6666H13.5999C13.4527 14.6666 13.3332 14.8906 13.3332 15.1666C13.3332 15.4426 13.4527 15.6666 13.5999 15.6666Z" fill="#7383BF"/>
<path fill-rule="evenodd" clip-rule="evenodd" d="M1.86628 15.6666H2.39961C2.54681 15.6666 2.66628 15.4426 2.66628 15.1666C2.66628 14.8906 2.54681 14.6666 2.39961 14.6666H1.86628C1.71908 14.6666 1.59961 14.8906 1.59961 15.1666C1.59961 15.4426 1.71908 15.6666 1.86628 15.6666ZM3.99961 15.6666H3.46628C3.31908 15.6666 3.19961 15.4426 3.19961 15.1666C3.19961 14.8906 3.31908 14.6666 3.46628 14.6666H3.99961C4.14681 14.6666 4.26628 14.8906 4.26628 15.1666C4.26628 15.4426 4.14681 15.6666 3.99961 15.6666ZM5.06628 15.6666H5.59961C5.74681 15.6666 5.86628 15.4426 5.86628 15.1666C5.86628 14.8906 5.74681 14.6666 5.59961 14.6666H5.06628C4.91908 14.6666 4.79961 14.8906 4.79961 15.1666C4.79961 15.4426 4.91908 15.6666 5.06628 15.6666ZM6.66628 15.6666H7.19961C7.34681 15.6666 7.46628 15.4426 7.46628 15.1666C7.46628 14.8906 7.34681 14.6666 7.19961 14.6666H6.66628C6.51908 14.6666 6.39961 14.8906 6.39961 15.1666C6.39961 15.4426 6.51908 15.6666 6.66628 15.6666Z" fill="#7383BF"/>
<path fill-rule="evenodd" clip-rule="evenodd" d="M0.800781 9.33333C0.800781 9.48053 1.02478 9.59999 1.30078 9.59999C1.57678 9.59999 1.80078 9.48053 1.80078 9.33333V8.79999C1.80078 8.65279 1.57678 8.53333 1.30078 8.53333C1.02478 8.53333 0.800781 8.65279 0.800781 8.79999V9.33333ZM1.30078 11.2C1.02478 11.2 0.800781 11.0805 0.800781 10.9333V10.4C0.800781 10.2528 1.02478 10.1333 1.30078 10.1333C1.57678 10.1333 1.80078 10.2528 1.80078 10.4V10.9333C1.80078 11.0805 1.57678 11.2 1.30078 11.2ZM0.800781 12.5333C0.800781 12.6805 1.02478 12.8 1.30078 12.8C1.57678 12.8 1.80078 12.6805 1.80078 12.5333V12C1.80078 11.8528 1.57678 11.7333 1.30078 11.7333C1.02478 11.7333 0.800781 11.8528 0.800781 12V12.5333ZM0.800781 14.1333C0.800781 14.2805 1.02478 14.4 1.30078 14.4C1.57678 14.4 1.80078 14.2805 1.80078 14.1333V13.6C1.80078 13.4528 1.57678 13.3333 1.30078 13.3333C1.02478 13.3333 0.800781 13.4528 0.800781 13.6V14.1333Z" fill="#7383BF"/>
<path fill-rule="evenodd" clip-rule="evenodd" d="M0.800781 2.39998C0.800781 2.54718 1.02478 2.66664 1.30078 2.66664C1.57678 2.66664 1.80078 2.54718 1.80078 2.39998V1.86664C1.80078 1.71944 1.57678 1.59998 1.30078 1.59998C1.02478 1.59998 0.800781 1.71944 0.800781 1.86664V2.39998ZM1.30078 4.26664C1.02478 4.26664 0.800781 4.14718 0.800781 3.99998V3.46664C0.800781 3.31944 1.02478 3.19998 1.30078 3.19998C1.57678 3.19998 1.80078 3.31944 1.80078 3.46664V3.99998C1.80078 4.14718 1.57678 4.26664 1.30078 4.26664ZM0.800781 5.59998C0.800781 5.74718 1.02478 5.86664 1.30078 5.86664C1.57678 5.86664 1.80078 5.74718 1.80078 5.59998V5.06664C1.80078 4.91944 1.57678 4.79998 1.30078 4.79998C1.02478 4.79998 0.800781 4.91944 0.800781 5.06664V5.59998ZM0.800781 7.19998C0.800781 7.34718 1.02478 7.46664 1.30078 7.46664C1.57678 7.46664 1.80078 7.34718 1.80078 7.19998V6.66664C1.80078 6.51944 1.57678 6.39998 1.30078 6.39998C1.02478 6.39998 0.800781 6.51944 0.800781 6.66664V7.19998Z" fill="#7383BF"/>
<path fill-rule="evenodd" clip-rule="evenodd" d="M1.86628 1.80005H2.39961C2.54681 1.80005 2.66628 1.57605 2.66628 1.30005C2.66628 1.02405 2.54681 0.800049 2.39961 0.800049H1.86628C1.71908 0.800049 1.59961 1.02405 1.59961 1.30005C1.59961 1.57605 1.71908 1.80005 1.86628 1.80005ZM3.99961 1.80005H3.46628C3.31908 1.80005 3.19961 1.57605 3.19961 1.30005C3.19961 1.02405 3.31908 0.800049 3.46628 0.800049H3.99961C4.14681 0.800049 4.26628 1.02405 4.26628 1.30005C4.26628 1.57605 4.14681 1.80005 3.99961 1.80005ZM5.06628 1.80005H5.59961C5.74681 1.80005 5.86628 1.57605 5.86628 1.30005C5.86628 1.02405 5.74681 0.800049 5.59961 0.800049H5.06628C4.91908 0.800049 4.79961 1.02405 4.79961 1.30005C4.79961 1.57605 4.91908 1.80005 5.06628 1.80005ZM6.66628 1.80005H7.19961C7.34681 1.80005 7.46628 1.57605 7.46628 1.30005C7.46628 1.02405 7.34681 0.800049 7.19961 0.800049H6.66628C6.51908 0.800049 6.39961 1.02405 6.39961 1.30005C6.39961 1.57605 6.51908 1.80005 6.66628 1.80005Z" fill="#7383BF"/>
<path fill-rule="evenodd" clip-rule="evenodd" d="M8.79987 1.80005H9.3332C9.4804 1.80005 9.59987 1.57605 9.59987 1.30005C9.59987 1.02405 9.4804 0.800049 9.3332 0.800049H8.79987C8.65267 0.800049 8.5332 1.02405 8.5332 1.30005C8.5332 1.57605 8.65267 1.80005 8.79987 1.80005ZM10.9332 1.80005H10.3999C10.2527 1.80005 10.1332 1.57605 10.1332 1.30005C10.1332 1.02405 10.2527 0.800049 10.3999 0.800049H10.9332C11.0804 0.800049 11.1999 1.02405 11.1999 1.30005C11.1999 1.57605 11.0804 1.80005 10.9332 1.80005ZM11.9999 1.80005H12.5332C12.6804 1.80005 12.7999 1.57605 12.7999 1.30005C12.7999 1.02405 12.6804 0.800049 12.5332 0.800049H11.9999C11.8527 0.800049 11.7332 1.02405 11.7332 1.30005C11.7332 1.57605 11.8527 1.80005 11.9999 1.80005ZM13.5999 1.80005H14.1332C14.2804 1.80005 14.3999 1.57605 14.3999 1.30005C14.3999 1.02405 14.2804 0.800049 14.1332 0.800049H13.5999C13.4527 0.800049 13.3332 1.02405 13.3332 1.30005C13.3332 1.57605 13.4527 1.80005 13.5999 1.80005Z" fill="#7383BF"/>
<path fill-rule="evenodd" clip-rule="evenodd" d="M14.666 2.39998C14.666 2.54718 14.89 2.66664 15.166 2.66664C15.442 2.66664 15.666 2.54718 15.666 2.39998V1.86664C15.666 1.71944 15.442 1.59998 15.166 1.59998C14.89 1.59998 14.666 1.71944 14.666 1.86664V2.39998ZM15.166 4.26664C14.89 4.26664 14.666 4.14718 14.666 3.99998V3.46664C14.666 3.31944 14.89 3.19998 15.166 3.19998C15.442 3.19998 15.666 3.31944 15.666 3.46664V3.99998C15.666 4.14718 15.442 4.26664 15.166 4.26664ZM14.666 5.59998C14.666 5.74718 14.89 5.86664 15.166 5.86664C15.442 5.86664 15.666 5.74718 15.666 5.59998V5.06664C15.666 4.91944 15.442 4.79998 15.166 4.79998C14.89 4.79998 14.666 4.91944 14.666 5.06664V5.59998ZM14.666 7.19998C14.666 7.34718 14.89 7.46664 15.166 7.46664C15.442 7.46664 15.666 7.34718 15.666 7.19998V6.66664C15.666 6.51944 15.442 6.39998 15.166 6.39998C14.89 6.39998 14.666 6.51944 14.666 6.66664V7.19998Z" fill="#7383BF"/>
<rect x="0.267578" y="0.266724" width="1.6" height="1.6" fill="#434C6D"/>
<path fill-rule="evenodd" clip-rule="evenodd" d="M0 2.13333H2.13333V0H0V2.13333ZM1.6 1.6H0.533333V0.533333H1.6V1.6Z" fill="#434C6D"/>
<rect x="0.267578" y="7.20007" width="1.6" height="1.6" fill="#434C6D"/>
<path fill-rule="evenodd" clip-rule="evenodd" d="M0 9.06668H2.13333V6.93335H0V9.06668ZM1.6 8.53335H0.533333V7.46668H1.6V8.53335Z" fill="#434C6D"/>
<rect x="14.1348" y="7.20007" width="1.6" height="1.6" fill="#434C6D"/>
<path fill-rule="evenodd" clip-rule="evenodd" d="M13.8672 9.06668H16.0005V6.93335H13.8672V9.06668ZM15.4672 8.53335H14.4005V7.46668H15.4672V8.53335Z" fill="#434C6D"/>
<rect x="7.20117" y="14.1334" width="1.6" height="1.6" fill="#434C6D"/>
<path fill-rule="evenodd" clip-rule="evenodd" d="M6.93359 16H9.06693V13.8667H6.93359V16ZM8.53359 15.4667H7.46693V14.4H8.53359V15.4667Z" fill="#434C6D"/>
<rect x="7.20117" y="0.266724" width="1.6" height="1.6" fill="#434C6D"/>
<path fill-rule="evenodd" clip-rule="evenodd" d="M6.93359 2.13333H9.06693V0H6.93359V2.13333ZM8.53359 1.6H7.46693V0.533333H8.53359V1.6Z" fill="#434C6D"/>
<rect x="0.267578" y="14.1334" width="1.6" height="1.6" fill="#434C6D"/>
<path fill-rule="evenodd" clip-rule="evenodd" d="M0 16H2.13333V13.8667H0V16ZM1.6 15.4667H0.533333V14.4H1.6V15.4667Z" fill="#434C6D"/>
<rect x="14.1348" y="0.266724" width="1.6" height="1.6" fill="#434C6D"/>
<path fill-rule="evenodd" clip-rule="evenodd" d="M13.8672 2.13333H16.0005V0H13.8672V2.13333ZM15.4672 1.6H14.4005V0.533333H15.4672V1.6Z" fill="#434C6D"/>
<rect x="14.1348" y="14.1334" width="1.6" height="1.6" fill="#434C6D"/>
<path fill-rule="evenodd" clip-rule="evenodd" d="M13.8672 16H16.0005V13.8667H13.8672V16ZM15.4672 15.4667H14.4005V14.4H15.4672V15.4667Z" fill="#434C6D"/>
</svg>
