<svg viewBox="0 0 17 12" fill="none" xmlns="http://www.w3.org/2000/svg">
<path fill-rule="evenodd" clip-rule="evenodd" d="M15.1795 1.01038H0.820531C0.369219 1.01038 0 1.37959 0 1.83088V10.8565C0 11.3078 0.369219 11.6771 0.820531 11.6771H15.1795C15.6307 11.6771 16 11.3078 16 10.8565V1.83088C16 1.37959 15.6308 1.01038 15.1795 1.01038ZM14.8716 1.62572L8.472 6.42578C8.35694 6.51334 8.18031 6.56813 7.99997 6.56731C7.81966 6.56813 7.64306 6.51334 7.52797 6.42578L1.12841 1.62572H14.8716ZM14.9403 11.0502L11.4531 6.7425C11.3462 6.61041 11.3665 6.4165 11.4988 6.30966C11.6307 6.20278 11.8246 6.22309 11.9315 6.35519L15.3845 10.6208V2.01034L8.84094 6.91803C8.59481 7.10141 8.29531 7.18203 7.99994 7.18266C7.70416 7.18185 7.40491 7.10122 7.15894 6.91803L0.615375 2.01034V10.6208L4.0685 6.35519C4.17537 6.22306 4.36903 6.20281 4.50112 6.30966C4.63347 6.41675 4.65372 6.61041 4.54688 6.7425L1.05969 11.0502C1.05774 11.0526 1.05555 11.0546 1.05335 11.0567C1.05159 11.0583 1.04983 11.0599 1.04819 11.0617H14.9518C14.9503 11.0602 14.9488 11.0587 14.9472 11.0573C14.9448 11.0551 14.9424 11.0528 14.9403 11.0502Z" fill="#B2D235"/>
<path d="M16 1.83088H16.2V1.83086L16 1.83088ZM8.472 6.42578L8.35199 6.26578L8.35088 6.26663L8.472 6.42578ZM14.8716 1.62572L14.9916 1.78572L15.4715 1.42572H14.8716V1.62572ZM7.99997 6.56731L8.00087 6.36731L7.99907 6.36732L7.99997 6.56731ZM7.52797 6.42578L7.64907 6.26661L7.64797 6.26579L7.52797 6.42578ZM1.12841 1.62572V1.42572H0.528445L1.0084 1.78572L1.12841 1.62572ZM11.4531 6.7425L11.2977 6.86832L11.2977 6.86834L11.4531 6.7425ZM14.9403 11.0502L14.7849 11.1761L14.785 11.1763L14.9403 11.0502ZM11.4988 6.30966L11.6245 6.46526L11.6247 6.46505L11.4988 6.30966ZM11.9315 6.35519L11.776 6.48099L11.776 6.48103L11.9315 6.35519ZM15.3845 10.6208L15.229 10.7466L15.5845 11.1857V10.6208H15.3845ZM15.3845 2.01034H15.5845V1.61034L15.2645 1.85034L15.3845 2.01034ZM8.84094 6.91803L8.96043 7.07841L8.96094 7.07803L8.84094 6.91803ZM7.99994 7.18266L7.99939 7.38266L8.00036 7.38266L7.99994 7.18266ZM7.15894 6.91803L7.03894 7.07803L7.03948 7.07844L7.15894 6.91803ZM0.615375 2.01034L0.735375 1.85034L0.415375 1.61034V2.01034H0.615375ZM0.615375 10.6208H0.415375V11.1858L0.770824 10.7467L0.615375 10.6208ZM4.0685 6.35519L4.22395 6.48103L4.224 6.48097L4.0685 6.35519ZM4.50112 6.30966L4.62694 6.15418L4.6269 6.15416L4.50112 6.30966ZM4.54688 6.7425L4.70232 6.86834L4.70238 6.86828L4.54688 6.7425ZM1.05969 11.0502L1.21497 11.1763L1.21514 11.1761L1.05969 11.0502ZM1.05335 11.0567L0.917941 10.9095L0.917905 10.9095L1.05335 11.0567ZM1.04819 11.0617L0.899608 10.9278L0.598756 11.2617H1.04819V11.0617ZM14.9518 11.0617V11.2617H15.4185L15.0966 10.9238L14.9518 11.0617ZM14.9472 11.0573L14.8111 11.2038L14.8111 11.2038L14.9472 11.0573ZM0.820531 1.21038H15.1795V0.810376H0.820531V1.21038ZM0.2 1.83088C0.2 1.49006 0.479671 1.21038 0.820531 1.21038V0.810376C0.258767 0.810376 -0.2 1.26913 -0.2 1.83088H0.2ZM0.2 10.8565V1.83088H-0.2V10.8565H0.2ZM0.820531 11.4771C0.479686 11.4771 0.2 11.1973 0.2 10.8565H-0.2C-0.2 11.4182 0.258752 11.8771 0.820531 11.8771V11.4771ZM15.1795 11.4771H0.820531V11.8771H15.1795V11.4771ZM15.8 10.8565C15.8 11.1974 15.5203 11.4771 15.1795 11.4771V11.8771C15.7412 11.8771 16.2 11.4183 16.2 10.8565H15.8ZM15.8 1.83088V10.8565H16.2V1.83088H15.8ZM15.1795 1.21038C15.5203 1.21038 15.8 1.49006 15.8 1.83089L16.2 1.83086C16.2 1.26913 15.7412 0.810376 15.1795 0.810376V1.21038ZM8.59201 6.58578L14.9916 1.78572L14.7516 1.46572L8.35199 6.26579L8.59201 6.58578ZM7.99907 6.76731C8.21492 6.76828 8.43675 6.70394 8.59312 6.58494L8.35088 6.26663C8.27713 6.32275 8.1457 6.36797 8.00087 6.36732L7.99907 6.76731ZM7.40687 6.58495C7.56325 6.70393 7.78503 6.76828 8.00087 6.76731L7.99907 6.36732C7.85429 6.36797 7.72287 6.32276 7.64907 6.26661L7.40687 6.58495ZM1.0084 1.78572L7.40796 6.58578L7.64797 6.26579L1.24841 1.46572L1.0084 1.78572ZM14.8716 1.42572H1.12841V1.82572H14.8716V1.42572ZM11.2977 6.86834L14.7849 11.1761L15.0958 10.9244L11.6086 6.61666L11.2977 6.86834ZM11.3732 6.15406C11.1547 6.33049 11.1214 6.65047 11.2977 6.86832L11.6086 6.61668C11.5711 6.57034 11.5784 6.50252 11.6245 6.46526L11.3732 6.15406ZM12.087 6.22939C11.9105 6.01136 11.5907 5.97784 11.3729 6.15426L11.6247 6.46505C11.6708 6.42773 11.7386 6.43483 11.776 6.48099L12.087 6.22939ZM15.5399 10.4949L12.0869 6.22935L11.776 6.48103L15.229 10.7466L15.5399 10.4949ZM15.1845 2.01034V10.6208H15.5845V2.01034H15.1845ZM8.96094 7.07803L15.5045 2.17034L15.2645 1.85034L8.72094 6.75803L8.96094 7.07803ZM8.00036 7.38266C8.33067 7.38196 8.674 7.29181 8.96043 7.07841L8.72145 6.75765C8.51562 6.911 8.25995 6.98211 7.99951 6.98266L8.00036 7.38266ZM7.03948 7.07844C7.32574 7.29163 7.66877 7.38175 7.99939 7.38266L8.00049 6.98266C7.73954 6.98194 7.48408 6.91081 7.2784 6.75763L7.03948 7.07844ZM0.495375 2.17034L7.03894 7.07803L7.27894 6.75803L0.735375 1.85034L0.495375 2.17034ZM0.815375 10.6208V2.01034H0.415375V10.6208H0.815375ZM3.91305 6.22935L0.459926 10.495L0.770824 10.7467L4.22395 6.48103L3.91305 6.22935ZM4.6269 6.15416C4.40911 5.978 4.08949 6.01122 3.913 6.22941L4.224 6.48097C4.26126 6.4349 4.32895 6.42763 4.37535 6.46516L4.6269 6.15416ZM4.70238 6.86828C4.87862 6.65038 4.84519 6.3308 4.62694 6.15418L4.37531 6.46513C4.42174 6.5027 4.42882 6.57044 4.39137 6.61673L4.70238 6.86828ZM1.21514 11.1761L4.70232 6.86834L4.39143 6.61666L0.904238 10.9244L1.21514 11.1761ZM1.18876 11.2038C1.18945 11.2032 1.20242 11.1917 1.21497 11.1763L0.904406 10.9242C0.909254 10.9182 0.913456 10.9139 0.915812 10.9115C0.917825 10.9095 0.919467 10.9081 0.917941 10.9095L1.18876 11.2038ZM1.19677 11.1956C1.19357 11.1991 1.19096 11.2017 1.18963 11.203C1.1885 11.2041 1.18764 11.2049 1.1888 11.2038L0.917905 10.9095C0.917167 10.9102 0.908507 10.918 0.899608 10.9278L1.19677 11.1956ZM14.9518 10.8617H1.04819V11.2617H14.9518V10.8617ZM14.8111 11.2038C14.8121 11.2047 14.8118 11.2044 14.8112 11.2039C14.8106 11.2033 14.809 11.2018 14.807 11.1997L15.0966 10.9238C15.0902 10.9171 15.0841 10.9115 15.0833 10.9107L14.8111 11.2038ZM14.785 11.1763C14.7974 11.1915 14.8103 11.203 14.8111 11.2038L15.0833 10.9108C15.0817 10.9092 15.0832 10.9105 15.0849 10.9123C15.087 10.9144 15.091 10.9185 15.0956 10.9242L14.785 11.1763Z" fill="#AAD300"/>
</svg>
