<svg width="25" height="18" viewBox="0 0 25 18" fill="none" xmlns="http://www.w3.org/2000/svg">
<path fill-rule="evenodd" clip-rule="evenodd" d="M24.5192 10.6143C24.5199 10.641 24.52 10.6677 24.5195 10.6943C24.5199 10.7148 24.52 10.7353 24.5196 10.7559C24.5237 11.1538 24.3919 11.5524 24.1235 11.9696C24.1011 12.0042 24.0792 12.039 24.0577 12.074C23.7676 12.6028 23.5799 13.1539 23.5568 13.8036C23.5182 14.824 23.0743 15.6278 22.0415 15.9579C22.0198 15.9647 21.9987 15.9723 21.9775 15.98C21.9718 15.9821 21.966 15.9841 21.9602 15.9862C21.5898 16.1926 21.2384 16.4223 20.9112 16.6896C20.7371 16.8623 20.5737 17.0492 20.4136 17.2383C20.2465 17.4379 20.07 17.5961 19.881 17.7132C19.5375 17.9862 19.1051 18.0685 18.6221 17.942C18.1786 17.8249 17.7264 17.7634 17.2755 17.7595C16.8246 17.7634 16.3723 17.8249 15.9289 17.942C15.4459 18.0685 15.0134 17.9862 14.6699 17.7132C14.4809 17.5961 14.3045 17.438 14.1373 17.2383C13.9773 17.0491 13.8139 16.8622 13.6398 16.6896C13.3125 16.4223 12.961 16.1926 12.5907 15.9862C12.5849 15.9841 12.579 15.982 12.5731 15.9798C12.5521 15.9722 12.531 15.9646 12.5094 15.9579C11.4767 15.6276 11.0327 14.824 10.9941 13.8036C10.9711 13.1538 10.7833 12.6027 10.4934 12.074C10.4718 12.039 10.4499 12.0042 10.4275 11.9696C10.1591 11.5524 10.0273 11.1538 10.0314 10.7559C10.0311 10.7353 10.0312 10.7149 10.0315 10.6943C10.0311 10.6677 10.0312 10.641 10.0318 10.6143C10.0288 10.2177 10.1606 9.81776 10.4279 9.40519C10.4584 9.35814 10.4882 9.31075 10.5171 9.26306C10.7952 8.74579 10.9745 8.20551 10.997 7.57122C11.0356 6.55086 11.4795 5.74718 12.5123 5.41705C12.5277 5.41219 12.5428 5.40676 12.5579 5.40133C12.5649 5.39881 12.5719 5.39629 12.579 5.39382C12.9661 5.1787 13.3324 4.93764 13.6724 4.65568C13.8354 4.49136 13.9893 4.31503 14.1402 4.13659C14.3008 3.94493 14.4697 3.79124 14.6503 3.67564C14.9964 3.39167 15.4352 3.30438 15.9261 3.43295C16.3705 3.55029 16.8236 3.61183 17.2755 3.61543C17.7274 3.61183 18.1805 3.55029 18.6249 3.43295C19.1158 3.30438 19.5546 3.39167 19.9008 3.67564C20.0813 3.79124 20.2503 3.94493 20.4108 4.13659C20.5618 4.31503 20.7156 4.49132 20.8786 4.65568C21.2187 4.93761 21.5849 5.17866 21.972 5.39382C21.9791 5.39629 21.9861 5.39881 21.9931 5.40133C22.0082 5.40676 22.0233 5.41219 22.0388 5.41705C23.0715 5.74718 23.5155 6.55086 23.5541 7.57122C23.5765 8.20554 23.7558 8.74583 24.034 9.26306C24.0628 9.31075 24.0926 9.35814 24.1231 9.40519C24.3904 9.81776 24.5222 10.2177 24.5192 10.6143ZM17.286 16.5215C17.2906 16.5214 17.2953 16.5214 17.2999 16.5213C17.9255 16.5186 18.5352 16.4117 19.1094 16.2155C21.3146 15.4183 22.9568 13.1721 22.9746 10.7091C22.9748 10.6891 22.9746 10.6693 22.9744 10.6495C22.9744 10.6425 22.9743 10.6355 22.9742 10.6284C22.9404 8.18431 21.3096 5.96019 19.1213 5.16336C18.5436 4.96454 17.9295 4.85617 17.2994 4.85343C17.2949 4.8533 17.2904 4.85328 17.286 4.85326C17.2825 4.85325 17.279 4.85323 17.2755 4.85317L17.2516 4.85343C16.6215 4.85613 16.0075 4.96454 15.4297 5.16336C13.2414 5.96019 11.6107 8.18431 11.5767 10.6284C11.5767 10.637 11.5766 10.6456 11.5766 10.6542C11.5764 10.6725 11.5763 10.6907 11.5765 10.7091C11.5943 13.172 13.2365 15.4182 15.4417 16.2155C16.0158 16.4117 16.6255 16.5186 17.2511 16.5213C17.2558 16.5214 17.2604 16.5214 17.265 16.5215C17.2685 16.5215 17.272 16.5215 17.2755 16.5216C17.279 16.5215 17.2825 16.5215 17.286 16.5215Z" fill="black"/>
<path d="M20.0549 13.3036C20.0549 13.0791 20.0584 12.8828 20.0549 12.6894C20.0345 11.8571 19.7514 11.5796 18.8716 11.4954C18.8443 11.4922 18.8136 11.4891 18.7863 11.4891C18.5271 11.4704 18.2202 11.4142 18.0394 11.2646C17.7052 10.9903 17.579 10.6224 17.8007 10.2016C17.9712 9.87742 18.0974 9.53442 18.2577 9.20392C18.6362 8.42145 18.2986 7.76052 17.753 7.20563C17.4393 6.88448 17.0744 6.74111 16.7163 6.75043C16.3582 6.74108 15.9933 6.88448 15.6795 7.20563C15.1339 7.76056 14.7962 8.42148 15.1748 9.20392C15.335 9.53442 15.4613 9.87732 15.6319 10.2016C15.8536 10.6194 15.7274 10.9904 15.3931 11.2646C15.2123 11.4111 14.9054 11.4673 14.6462 11.4891C14.6155 11.4922 14.5883 11.4954 14.561 11.4954C13.6845 11.5796 13.398 11.8601 13.3776 12.6894C13.3741 12.8858 13.3741 13.0854 13.3776 13.3129C13.3776 13.3722 13.3776 13.4345 13.3776 13.5C14.5099 13.5 15.6183 13.5 16.7198 13.5C17.8214 13.5 18.9298 13.5 20.062 13.5C20.0549 13.4314 20.0549 13.3659 20.0549 13.3036Z" fill="black"/>
<rect x="8.91602" y="15.75" width="1.11451" height="1.125" fill="black"/>
<path d="M9.36307 7.97354C9.39009 7.23292 9.57385 6.59257 9.90933 6.06749C10.2856 5.47857 10.8307 5.06252 11.5294 4.83098L11.5334 4.82964C11.9515 4.69317 12.291 4.30817 12.6596 3.85629C12.8563 3.61321 13.0677 3.41071 13.2925 3.24856C13.3195 3.20851 13.3467 3.16823 13.3741 3.12766C12.458 2.07279 11.5671 1.05487 10.648 0C9.9508 0.806271 6.0055 5.7178 5.28021 6.30235V4.93169H2.70107V9.44345C2.67606 9.48033 0.637752 12.0638 0 12.9374H2.61041V18C2.7292 17.8857 2.83549 17.785 2.92928 17.6708C4.66434 15.6115 6.44629 13.5992 8.09695 11.4626C8.21779 11.3067 8.327 11.1402 8.42805 10.9666C8.45559 10.4387 8.61979 9.90933 8.91793 9.38914C9.21395 8.87525 9.34671 8.45263 9.36307 7.97354Z" fill="black"/>
<path d="M9.62991 12.9541C9.50592 12.7622 9.40163 12.5691 9.31703 12.375L4.45898 18H6.41879L10.0315 13.8372C9.94882 13.5332 9.8148 13.2377 9.63219 12.9576L9.62991 12.9541Z" fill="black"/>
<path d="M9.76367 14.625V15.75H10.2967C10.2055 15.4034 10.1512 15.0256 10.1371 14.625H9.76367V14.625Z" fill="black"/>
<path d="M10.8789 16.9703H11.4119C11.2223 16.9133 11.0446 16.8495 10.8789 16.7798V16.9703Z" fill="black"/>
</svg>
