<svg width="18" height="11" viewBox="0 0 18 11" fill="none" xmlns="http://www.w3.org/2000/svg">
<path fill-rule="evenodd" clip-rule="evenodd" d="M6.43677 4.30713C6.43677 2.89371 7.58662 1.74385 9.00004 1.74385C10.4135 1.74385 11.5633 2.89374 11.5633 4.30713C11.5633 5.72051 10.4134 6.87041 9.00004 6.87041C7.58666 6.87041 6.43677 5.72055 6.43677 4.30713ZM7.57601 4.30716C7.57601 5.09227 8.21472 5.7312 9.00004 5.7312C9.78537 5.7312 10.4241 5.09248 10.4241 4.30716C10.4241 3.52184 9.78537 2.88312 9.00004 2.88312C8.21472 2.88312 7.57601 3.52184 7.57601 4.30716Z" fill="#222222"/>
<path d="M9.00005 5.71222C6.89567 5.71222 5.18359 7.42429 5.18359 9.52868V10.3831C5.18359 10.6977 5.43858 10.9528 5.75323 10.9528C6.06784 10.9528 6.32287 10.6978 6.32287 10.3831V9.52868C6.32287 8.05239 7.5238 6.85146 9.00009 6.85146C10.4764 6.85146 11.6773 8.05261 11.6773 9.52868V10.3831C11.6773 10.6977 11.9323 10.9528 12.2469 10.9528C12.5616 10.9528 12.8166 10.6978 12.8166 10.3831V9.52868C12.8165 7.42429 11.1044 5.71222 9.00005 5.71222Z" fill="#222222"/>
<path fill-rule="evenodd" clip-rule="evenodd" d="M11.6204 2.57931C11.6204 1.16593 12.7702 0.016037 14.1836 0.016037C15.5971 0.016037 16.7469 1.16593 16.7469 2.57931C16.7469 3.9927 15.5972 5.14259 14.1836 5.14259C12.7703 5.14259 11.6204 3.9927 11.6204 2.57931ZM12.7596 2.57931C12.7596 3.36463 13.3983 4.00335 14.1836 4.00335C14.969 4.00335 15.6077 3.36463 15.6077 2.57931C15.6077 1.79399 14.969 1.15528 14.1836 1.15528C13.3983 1.15528 12.7596 1.79399 12.7596 2.57931Z" fill="#222222"/>
<path d="M14.1837 3.98436C12.4381 3.98436 10.915 5.16747 10.4802 6.86169C10.402 7.16625 10.5856 7.47668 10.8901 7.55493C11.1948 7.63393 11.5051 7.44975 11.5834 7.14501C11.889 5.95469 12.9584 5.12363 14.1837 5.12363C15.66 5.12363 16.8609 6.32478 16.8609 7.80085V8.65529C16.8609 8.9699 17.1159 9.22493 17.4305 9.22493C17.7452 9.22493 18.0002 8.96994 18.0001 8.65529V7.80082C18.0001 5.69647 16.288 3.98436 14.1837 3.98436Z" fill="#222222"/>
<path fill-rule="evenodd" clip-rule="evenodd" d="M1.25317 2.57931C1.25317 1.16593 2.40303 0.016037 3.81645 0.016037C5.22987 0.016037 6.37973 1.16593 6.37973 2.57931C6.37973 3.9927 5.22987 5.14259 3.81645 5.14259C2.40306 5.14259 1.25317 3.9927 1.25317 2.57931ZM2.39241 2.57931C2.39241 3.36463 3.03113 4.00335 3.81645 4.00335C4.60177 4.00335 5.24049 3.36463 5.24049 2.57931C5.24049 1.79399 4.60177 1.15528 3.81645 1.15528C3.03113 1.15528 2.39241 1.79399 2.39241 2.57931Z" fill="#222222"/>
<path d="M7.50115 6.84275C7.06901 5.15971 5.55381 3.98441 3.81646 3.98441C1.71207 3.98437 0 5.69648 0 7.80083V8.65526C0 8.96988 0.254988 9.2249 0.569637 9.2249C0.88425 9.2249 1.13927 8.96991 1.13927 8.65526V7.80083C1.13927 6.32476 2.34021 5.12361 3.81649 5.12361C5.03357 5.12361 6.09497 5.9469 6.39763 7.126C6.47585 7.43056 6.78516 7.61359 7.09105 7.53614C7.39575 7.45791 7.57937 7.14731 7.50115 6.84275Z" fill="#222222"/>
</svg>
