<svg viewBox="0 0 18 17" fill="none" xmlns="http://www.w3.org/2000/svg">
<path fill-rule="evenodd" clip-rule="evenodd" d="M14.0084 10.2165L16.5241 12.7233C17.0945 13.2948 17.0945 14.22 16.5242 14.7914L15.8393 15.4763C14.9952 16.329 13.8473 16.8119 12.6475 16.8193C12.2976 16.8198 11.9488 16.7777 11.609 16.6939C10.2871 16.3441 9.02973 15.7849 7.88455 15.0377C6.84282 14.3711 5.87757 13.592 5.00617 12.7143C4.20465 11.9166 3.48486 11.0409 2.85745 10.1001C2.16053 9.07385 1.60914 7.95605 1.21905 6.7785C0.696299 5.16901 1.12589 3.4023 2.32924 2.21247L3.12604 1.41567C3.70577 0.861443 4.61892 0.861443 5.19865 1.41567L7.71442 3.93145C8.28476 4.50289 8.28476 5.42816 7.71442 5.99959L6.23718 7.47684C6.12749 7.58622 6.11416 7.75933 6.20586 7.88418C6.71177 8.57921 7.27156 9.23327 7.88009 9.84043C8.55954 10.5221 9.29806 11.1424 10.087 11.6937C10.2134 11.7823 10.3853 11.7672 10.4943 11.6579L11.9357 10.2165L11.9382 10.214C12.5105 9.64303 13.4374 9.64413 14.0084 10.2165ZM15.8884 14.1827L15.8902 14.1809C16.1117 13.9584 16.111 13.5984 15.8884 13.377L13.3681 10.8522L13.3663 10.8504C13.1438 10.6289 12.7839 10.6297 12.5623 10.8522L11.1343 12.3026C10.7183 12.7158 10.0664 12.7723 9.58548 12.4369C8.75322 11.8549 7.97425 11.2003 7.25771 10.4806C6.61504 9.84022 6.02377 9.15023 5.48948 8.41696C5.13764 7.93565 5.19093 7.26942 5.6148 6.85016L7.09205 5.37292L7.09383 5.37113C7.31537 5.14866 7.31458 4.78868 7.09205 4.56715L4.57627 2.05137L4.57449 2.04959C4.35201 1.82805 3.99204 1.82884 3.7705 2.05137L2.9737 2.84817C2.00672 3.79936 1.66013 5.21517 2.07838 6.50546C2.44324 7.60379 2.95844 8.64626 3.60935 9.60321C4.20444 10.4926 4.88672 11.3204 5.64617 12.0742C6.47156 12.9047 7.38582 13.6417 8.37236 14.2722C9.43424 14.9697 10.6009 15.4926 11.8282 15.8211C13.0464 16.1119 14.328 15.7453 15.208 14.8542L15.8929 14.1692L15.8884 14.1827Z" fill="#B2D235"/>
<path d="M16.5241 12.7233L16.6303 12.6174L16.63 12.6171L16.5241 12.7233ZM14.0084 10.2165L13.9022 10.3224L13.9025 10.3227L14.0084 10.2165ZM16.5242 14.7914L16.6302 14.8975L16.6303 14.8974L16.5242 14.7914ZM15.8393 15.4763L15.7332 15.3702L15.7327 15.3708L15.8393 15.4763ZM12.6475 16.8193L12.6477 16.9693L12.6484 16.9693L12.6475 16.8193ZM11.609 16.6939L11.5706 16.839L11.5731 16.8396L11.609 16.6939ZM7.88455 15.0377L7.96652 14.912L7.9654 14.9113L7.88455 15.0377ZM5.00617 12.7143L5.11262 12.6087L5.11199 12.608L5.00617 12.7143ZM2.85745 10.1001L2.98225 10.0168L2.98154 10.0158L2.85745 10.1001ZM1.21905 6.7785L1.07639 6.82484L1.07666 6.82567L1.21905 6.7785ZM2.32924 2.21247L2.43471 2.31914L2.43531 2.31854L2.32924 2.21247ZM3.12604 1.41567L3.02236 1.30722L3.01998 1.30961L3.12604 1.41567ZM5.19865 1.41567L5.30474 1.30958L5.3023 1.30725L5.19865 1.41567ZM7.71442 3.93145L7.82059 3.82549L7.82049 3.82538L7.71442 3.93145ZM7.71442 5.99959L7.82049 6.10566L7.82059 6.10556L7.71442 5.99959ZM6.23718 7.47684L6.34309 7.58306L6.34324 7.58291L6.23718 7.47684ZM6.20586 7.88418L6.32713 7.79591L6.32676 7.79539L6.20586 7.88418ZM7.88009 9.84043L7.98633 9.73454L7.98604 9.73425L7.88009 9.84043ZM10.087 11.6937L10.1731 11.5709L10.1729 11.5708L10.087 11.6937ZM10.4943 11.6579L10.3883 11.5518L10.3881 11.5519L10.4943 11.6579ZM11.9357 10.2165L12.0418 10.3225L12.0418 10.3225L11.9357 10.2165ZM11.9382 10.214L11.8323 10.1078L11.8321 10.1079L11.9382 10.214ZM15.8902 14.1809L15.9963 14.287L15.9965 14.2867L15.8902 14.1809ZM15.8884 14.1827L15.7461 14.1354L15.9945 14.2888L15.8884 14.1827ZM15.8884 13.377L15.7822 13.4829L15.7826 13.4833L15.8884 13.377ZM13.3681 10.8522L13.4742 10.7462L13.4742 10.7461L13.3681 10.8522ZM13.3663 10.8504L13.4724 10.7444L13.4721 10.7441L13.3663 10.8504ZM12.5623 10.8522L12.456 10.7464L12.4554 10.747L12.5623 10.8522ZM11.1343 12.3026L11.24 12.409L11.2412 12.4078L11.1343 12.3026ZM9.58548 12.4369L9.49952 12.5598L9.49967 12.5599L9.58548 12.4369ZM7.25771 10.4806L7.36401 10.3748L7.36359 10.3744L7.25771 10.4806ZM5.48948 8.41696L5.61071 8.32862L5.61057 8.32844L5.48948 8.41696ZM5.6148 6.85016L5.72029 6.95681L5.72087 6.95623L5.6148 6.85016ZM7.09383 5.37113L7.1999 5.4772L7.20012 5.47697L7.09383 5.37113ZM7.09205 4.56715L6.98598 4.67321L6.98622 4.67345L7.09205 4.56715ZM4.57627 2.05137L4.68234 1.9453V1.9453L4.57627 2.05137ZM4.57449 2.04959L4.68056 1.94352L4.68033 1.9433L4.57449 2.04959ZM3.7705 2.05137L3.87657 2.15744L3.87681 2.1572L3.7705 2.05137ZM2.9737 2.84817L3.07889 2.95511L3.07977 2.95424L2.9737 2.84817ZM2.07838 6.50546L1.93569 6.55171L1.93603 6.55274L2.07838 6.50546ZM3.60935 9.60321L3.73402 9.51979L3.73338 9.51885L3.60935 9.60321ZM5.64617 12.0742L5.75256 11.9685L5.75185 11.9678L5.64617 12.0742ZM8.37236 14.2722L8.45472 14.1468L8.45314 14.1458L8.37236 14.2722ZM11.8282 15.8211L11.7894 15.966L11.7934 15.967L11.8282 15.8211ZM15.208 14.8542L15.1019 14.7481L15.1013 14.7488L15.208 14.8542ZM15.8929 14.1692L16.0352 14.2165L15.7868 14.0632L15.8929 14.1692ZM16.63 12.6171L14.1142 10.1102L13.9025 10.3227L16.4183 12.8296L16.63 12.6171ZM16.6303 14.8974C17.2591 14.2674 17.2591 13.2473 16.6303 12.6174L16.418 12.8293C16.9299 13.3422 16.9298 14.1726 16.418 14.6854L16.6303 14.8974ZM15.9453 15.5824L16.6302 14.8975L16.4181 14.6853L15.7332 15.3702L15.9453 15.5824ZM12.6484 16.9693C13.8879 16.9617 15.0738 16.4627 15.9459 15.5818L15.7327 15.3708C14.9165 16.1952 13.8067 16.6622 12.6466 16.6693L12.6484 16.9693ZM11.5731 16.8396C11.9247 16.9263 12.2856 16.9698 12.6477 16.9693L12.6473 16.6693C12.3095 16.6698 11.9729 16.6292 11.6449 16.5483L11.5731 16.8396ZM7.80258 15.1633C8.96116 15.9193 10.2333 16.485 11.5706 16.8389L11.6474 16.5489C10.341 16.2032 9.0983 15.6506 7.96652 14.912L7.80258 15.1633ZM4.89973 12.82C5.77888 13.7055 6.75271 14.4915 7.8037 15.164L7.9654 14.9113C6.93293 14.2506 5.97626 13.4785 5.11262 12.6087L4.89973 12.82ZM2.73266 10.1833C3.36561 11.1324 4.09176 12.0159 4.90036 12.8207L5.11199 12.608C4.31755 11.8173 3.60412 10.9493 2.98225 10.0168L2.73266 10.1833ZM1.07666 6.82567C1.47111 8.01638 2.02866 9.14666 2.73336 10.1843L2.98154 10.0158C2.29241 9.00104 1.74717 7.89573 1.36144 6.73134L1.07666 6.82567ZM2.22378 2.10581C0.9801 3.3355 0.536117 5.16141 1.07639 6.82484L1.36172 6.73217C0.85648 5.17661 1.27167 3.46909 2.43471 2.31914L2.22378 2.10581ZM3.01998 1.30961L2.22318 2.10641L2.43531 2.31854L3.23211 1.52174L3.01998 1.30961ZM5.3023 1.30725C4.66459 0.697584 3.6601 0.697584 3.02239 1.30725L3.2297 1.5241C3.75144 1.0253 4.57325 1.0253 5.09499 1.5241L5.3023 1.30725ZM7.82049 3.82538L5.30471 1.30961L5.09258 1.52174L7.60836 4.03752L7.82049 3.82538ZM7.82059 6.10556C8.44937 5.47557 8.44937 4.45548 7.82059 3.82549L7.60825 4.03741C8.12015 4.55029 8.12015 5.38075 7.60825 5.89363L7.82059 6.10556ZM6.34324 7.58291L7.82049 6.10566L7.60836 5.89353L6.13111 7.37077L6.34324 7.58291ZM6.32676 7.79539C6.27897 7.73033 6.2859 7.64009 6.34309 7.58306L6.13126 7.37062C5.96907 7.53235 5.94935 7.78834 6.08496 7.97298L6.32676 7.79539ZM7.98604 9.73425C7.38308 9.13264 6.82841 8.48457 6.32713 7.79591L6.08459 7.97246C6.59513 8.67385 7.16005 9.3339 7.77414 9.94662L7.98604 9.73425ZM10.1729 11.5708C9.39125 11.0245 8.65953 10.41 7.98633 9.73454L7.77385 9.94632C8.45955 10.6343 9.20487 11.2602 10.0011 11.8167L10.1729 11.5708ZM10.3881 11.5519C10.3305 11.6097 10.2398 11.6176 10.1731 11.5709L10.0009 11.8165C10.187 11.947 10.44 11.9247 10.6005 11.7638L10.3881 11.5519ZM11.8297 10.1104L10.3883 11.5518L10.6004 11.7639L12.0418 10.3225L11.8297 10.1104ZM11.8321 10.1079L11.8297 10.1104L12.0418 10.3225L12.0443 10.32L11.8321 10.1079ZM14.1145 10.1105C13.4851 9.47954 12.4632 9.47833 11.8323 10.1078L12.0442 10.3202C12.5578 9.80773 13.3897 9.80872 13.9022 10.3224L14.1145 10.1105ZM15.7842 14.0748L15.7824 14.0766L15.9945 14.2888L15.9963 14.287L15.7842 14.0748ZM15.7826 13.4833C15.9464 13.6463 15.947 13.9112 15.7839 14.0751L15.9965 14.2867C16.2765 14.0055 16.2755 13.5506 15.9942 13.2706L15.7826 13.4833ZM13.2619 10.9582L15.7822 13.4829L15.9945 13.271L13.4742 10.7462L13.2619 10.9582ZM13.2602 10.9565L13.262 10.9583L13.4742 10.7461L13.4724 10.7444L13.2602 10.9565ZM12.6686 10.958C12.8317 10.7942 13.0967 10.7936 13.2605 10.9567L13.4721 10.7441C13.191 10.4641 12.736 10.4651 12.456 10.7464L12.6686 10.958ZM11.2412 12.4078L12.6692 10.9574L12.4554 10.747L11.0274 12.1974L11.2412 12.4078ZM9.49967 12.5599C10.04 12.9368 10.7726 12.8733 11.24 12.409L11.0286 12.1962C10.6641 12.5583 10.0927 12.6078 9.67129 12.3139L9.49967 12.5599ZM7.15142 10.5865C7.87422 11.3124 8.65999 11.9728 9.49952 12.5598L9.67144 12.314C8.84645 11.7371 8.07429 11.0882 7.36401 10.3748L7.15142 10.5865ZM5.36825 8.50529C5.90719 9.24494 6.50358 9.94092 7.15184 10.5869L7.36359 10.3744C6.72649 9.73953 6.14036 9.05552 5.61071 8.32862L5.36825 8.50529ZM5.50932 6.74352C5.03265 7.21499 4.97272 7.96422 5.36838 8.50548L5.61057 8.32844C5.30256 7.90708 5.34922 7.32384 5.72029 6.95681L5.50932 6.74352ZM6.98598 5.26685L5.50874 6.7441L5.72087 6.95623L7.19812 5.47898L6.98598 5.26685ZM6.98777 5.26507L6.98598 5.26685L7.19812 5.47898L7.1999 5.4772L6.98777 5.26507ZM6.98622 4.67345C7.15004 4.83654 7.15061 5.10153 6.98754 5.26529L7.20012 5.47697C7.48012 5.19578 7.47912 4.74083 7.19788 4.46084L6.98622 4.67345ZM4.47021 2.15744L6.98598 4.67321L7.19812 4.46108L4.68234 1.9453L4.47021 2.15744ZM4.46842 2.15565L4.47021 2.15744L4.68234 1.9453L4.68055 1.94352L4.46842 2.15565ZM3.87681 2.1572C4.03989 1.99338 4.30488 1.99281 4.46865 2.15588L4.68033 1.9433C4.39914 1.6633 3.94418 1.6643 3.6642 1.94554L3.87681 2.1572ZM3.07977 2.95424L3.87657 2.15744L3.66444 1.9453L2.86764 2.7421L3.07977 2.95424ZM2.22107 6.4592C1.82034 5.22296 2.15242 3.86645 3.07889 2.95511L2.86851 2.74124C1.86103 3.73226 1.49992 5.20738 1.93569 6.55171L2.22107 6.4592ZM3.73338 9.51885C3.09026 8.57335 2.58122 7.54336 2.22074 6.45817L1.93603 6.55274C2.30525 7.66422 2.82662 8.71916 3.48532 9.68758L3.73338 9.51885ZM5.75185 11.9678C4.99949 11.2209 4.32356 10.4008 3.73401 9.51979L3.48468 9.68663C4.08532 10.5843 4.77396 11.4198 5.5405 12.1807L5.75185 11.9678ZM8.45314 14.1458C7.47586 13.5212 6.57019 12.7911 5.75256 11.9685L5.53979 12.18C6.37293 13.0182 7.29578 13.7622 8.29159 14.3986L8.45314 14.1458ZM11.867 15.6762C10.6552 15.3518 9.5032 14.8355 8.45471 14.1468L8.29002 14.3976C9.36528 15.1038 10.5467 15.6333 11.7894 15.966L11.867 15.6762ZM15.1013 14.7488C14.2581 15.6025 13.0302 15.9538 11.863 15.6752L11.7934 15.967C13.0625 16.27 14.3979 15.888 15.3147 14.9595L15.1013 14.7488ZM15.7868 14.0632L15.1019 14.7481L15.314 14.9602L15.999 14.2753L15.7868 14.0632ZM16.0308 14.2299L16.0352 14.2165L15.7505 14.122L15.7461 14.1354L16.0308 14.2299Z" fill="#B2D235"/>
</svg>
