<svg width="20" height="20" viewBox="0 0 20 20" fill="none" xmlns="http://www.w3.org/2000/svg">
<path fill-rule="evenodd" clip-rule="evenodd" d="M16.2604 11.5206L19.4052 14.6541C20.1181 15.3684 20.1181 16.525 19.4052 17.2393L18.5491 18.0954C17.4939 19.1612 16.0591 19.7649 14.5594 19.7741C14.1219 19.7747 13.686 19.7221 13.2612 19.6174C11.6089 19.1801 10.0372 18.4812 8.60568 17.5471C7.30352 16.7138 6.09696 15.74 5.00772 14.6429C4.00582 13.6458 3.10608 12.5511 2.32182 11.3751C1.45067 10.0923 0.761422 8.69507 0.273816 7.22313C-0.379627 5.21126 0.157357 3.00287 1.66155 1.51559L2.65755 0.51959C3.38221 -0.173197 4.52365 -0.173197 5.24831 0.51959L8.39303 3.66431C9.10595 4.37861 9.10595 5.5352 8.39303 6.24949L6.54647 8.09605C6.40936 8.23277 6.3927 8.44916 6.50732 8.60523C7.13972 9.47402 7.83946 10.2916 8.60011 11.0505C9.44942 11.9027 10.3726 12.678 11.3587 13.3671C11.5168 13.4779 11.7316 13.459 11.8679 13.3223L13.6697 11.5206L13.6728 11.5175C14.3882 10.8038 15.5467 10.8052 16.2604 11.5206ZM18.6105 16.4783L18.6128 16.4761C18.8897 16.198 18.8887 15.748 18.6105 15.4712L15.4601 12.3153L15.4579 12.313C15.1798 12.0361 14.7298 12.0371 14.4529 12.3153L12.6679 14.1282C12.1479 14.6447 11.333 14.7154 10.7318 14.2961C9.69152 13.5686 8.71782 12.7503 7.82214 11.8508C7.0188 11.0503 6.27972 10.1878 5.61185 9.2712C5.17205 8.66956 5.23867 7.83677 5.7685 7.31271L7.61506 5.46615L7.61729 5.46392C7.89421 5.18582 7.89323 4.73585 7.61506 4.45893L4.47034 1.31421L4.46811 1.31198C4.19001 1.03507 3.74005 1.03605 3.46313 1.31421L2.46713 2.31021C1.25841 3.4992 0.82516 5.26897 1.34798 6.88182C1.80405 8.25474 2.44805 9.55782 3.26168 10.754C4.00555 11.8657 4.85841 12.9004 5.80772 13.8428C6.83946 14.8808 7.98228 15.8021 9.21546 16.5903C10.5428 17.4621 12.0012 18.1157 13.5353 18.5263C15.0579 18.8899 16.66 18.4316 17.76 17.3177L18.6161 16.4616L18.6105 16.4783Z" fill="#B2D235"/>
</svg>
