<svg width="16" height="14" viewBox="0 0 16 14" fill="none" xmlns="http://www.w3.org/2000/svg">
<path d="M13.2809 8.47743C13.1049 8.47743 12.9622 8.62012 12.9622 8.79615V12.9828H0.63745V0.65808H13.2809C13.4569 0.65808 13.5996 0.515387 13.5996 0.339355C13.5996 0.163323 13.4569 0.0206299 13.2809 0.0206299H0.318725C0.142725 0.0206299 0 0.163323 0 0.339355V13.3015C0 13.4776 0.142725 13.6202 0.318725 13.6202H13.2809C13.4569 13.6202 13.5996 13.4776 13.5996 13.3015V8.79615C13.5996 8.62012 13.4569 8.47743 13.2809 8.47743Z" fill="black"/>
<path d="M13.2816 6.15088C13.1056 6.15088 12.9629 6.29357 12.9629 6.4696V7.31901C12.9629 7.49504 13.1056 7.63773 13.2816 7.63773C13.4576 7.63773 13.6003 7.49504 13.6003 7.31901V6.4696C13.6003 6.29357 13.4576 6.15088 13.2816 6.15088Z" fill="black"/>
<path fill-rule="evenodd" clip-rule="evenodd" d="M13.8807 0.975229C14.3649 0.491086 15.1528 0.491086 15.6371 0.975229C16.1213 1.4595 16.1213 2.24742 15.6371 2.7316L7.54957 10.8191C7.31495 11.0537 7.00308 11.1829 6.67135 11.1829C6.33962 11.1829 6.02772 11.0537 5.79317 10.8191L2.65417 7.68012C2.16996 7.19591 2.16996 6.40799 2.65417 5.92376C3.13841 5.43955 3.92636 5.43958 4.41054 5.92376L6.67135 8.18457L13.8807 0.975229ZM7.09882 10.3684L15.1863 2.28092C15.422 2.04522 15.422 1.6617 15.1863 1.42603C14.9506 1.19034 14.5671 1.19037 14.3314 1.42603L6.89672 8.86065C6.83693 8.92041 6.75588 8.954 6.67135 8.954C6.58682 8.954 6.50577 8.92041 6.44598 8.86065L3.95983 6.37446C3.842 6.25666 3.68716 6.19773 3.53239 6.19773C3.37758 6.19773 3.22278 6.25663 3.10491 6.3745C2.86925 6.61019 2.86925 6.99372 3.10494 7.22941L6.24391 10.3684C6.35808 10.4826 6.50988 10.5455 6.67135 10.5455C6.83282 10.5455 6.98462 10.4826 7.09882 10.3684Z" fill="black"/>
</svg>
