<svg width="32" height="35" viewBox="0 0 32 35" fill="none" xmlns="http://www.w3.org/2000/svg">
<path fill-rule="evenodd" clip-rule="evenodd" d="M23.8258 11.6199H30.5255C31.3277 11.6199 31.978 12.2702 31.978 13.0723V26.1447C31.978 26.9469 31.3277 27.5971 30.5256 27.5971H29.0731V29.4389C29.9413 29.9411 30.5256 30.879 30.5256 31.9546C30.5256 33.5596 29.2255 34.8596 27.6206 34.8596C26.0155 34.8596 24.7156 33.5596 24.7156 31.9546C24.7156 30.879 25.2999 29.9411 26.1681 29.4389V27.5971H5.83334V29.4389C6.7015 29.9411 7.2858 30.879 7.2858 31.9546C7.2858 33.5596 5.98585 34.8596 4.38082 34.8596C2.77585 34.8596 1.4759 33.5596 1.4759 31.9546C1.4759 30.879 2.06014 29.9411 2.92836 29.4389V27.5971H1.4759C0.673718 27.5971 0.0234375 26.9469 0.0234375 26.1447V13.0723C0.0234375 12.2702 0.673718 11.6199 1.4759 11.6199H5.27055L4.45537 9.17426C4.14191 8.23374 4.84196 7.26243 5.83334 7.26243H5.95454C6.64628 3.14117 10.2307 0 14.5482 0C18.8658 0 22.4501 3.14117 23.1418 7.26243H23.263C24.2544 7.26243 24.9545 8.23374 24.641 9.17426L23.8258 11.6199ZM20.1751 7.26243C19.5299 4.7569 17.2548 2.90499 14.5482 2.90499C11.8416 2.90499 9.56659 4.7569 8.92141 7.26243H20.1751ZM7.84853 10.1674H21.2479L20.7637 11.6198H8.33268L7.84853 10.1674ZM2.92836 24.6922H29.073V14.5248H21.8106H7.2858H2.92836V24.6922Z"/>
</svg>
