<svg width="14" height="14" viewBox="0 0 14 14" fill="none" xmlns="http://www.w3.org/2000/svg">
<path d="M9.47882 8.33268C9.44881 8.2388 9.482 8.13652 9.56149 8.07826L11.3384 6.77462C11.6213 6.56707 11.7341 6.21736 11.6256 5.8837C11.5172 5.54999 11.2204 5.33332 10.8696 5.33171L8.66577 5.3215C8.56719 5.32102 8.4802 5.25787 8.44934 5.16428L7.75861 3.07142C7.64864 2.73824 7.35092 2.523 7.00007 2.52295C6.64922 2.52295 6.35145 2.73824 6.24148 3.07138L5.93013 4.01434C5.8808 4.16372 5.9619 4.32488 6.11133 4.37417C6.26076 4.4236 6.42182 4.3424 6.4712 4.19297L6.78255 3.25001C6.8307 3.10409 6.96118 3.09274 7.00007 3.09274C7.03891 3.09274 7.16939 3.10409 7.21754 3.25001L7.90827 5.34291C8.01606 5.66936 8.31938 5.88973 8.66311 5.89134L10.8669 5.90155C11.0206 5.90226 11.0717 6.02287 11.0837 6.05981C11.0957 6.09675 11.1252 6.22434 11.0014 6.31522L9.2244 7.61886C8.94725 7.82223 8.83139 8.17883 8.93609 8.50627L9.60764 10.6061C9.65446 10.7525 9.55555 10.8383 9.52412 10.8611C9.49268 10.884 9.38048 10.9515 9.25574 10.8618L7.46673 9.57431C7.18762 9.3735 6.8126 9.3735 6.5335 9.57431L4.74415 10.862C4.61942 10.9517 4.50717 10.8842 4.47578 10.8614C4.44435 10.8386 4.34544 10.7527 4.39221 10.6064L5.06357 8.50627C5.16827 8.17888 5.05236 7.82228 4.77525 7.61891L2.9984 6.31527C2.87451 6.22439 2.90405 6.09675 2.91606 6.05986C2.92807 6.02292 2.97921 5.90231 3.13282 5.9016L5.33679 5.89139C5.4941 5.89063 5.62107 5.76252 5.62036 5.60516C5.6196 5.44828 5.4922 5.32159 5.33546 5.32159C5.33503 5.32159 5.33456 5.32159 5.33413 5.32159L3.13016 5.3318C2.77931 5.33342 2.48254 5.55008 2.37414 5.88379C2.26573 6.2175 2.37846 6.56721 2.66131 6.77476L4.43817 8.0784C4.51761 8.13671 4.55085 8.23894 4.52084 8.33282L3.84953 10.4329C3.74269 10.7671 3.85708 11.1163 4.14093 11.3225C4.28338 11.426 4.44682 11.4777 4.61035 11.4777C4.77269 11.4777 4.93513 11.4267 5.07706 11.3246L6.86635 10.0369C6.94636 9.97929 7.05391 9.97929 7.13392 10.0369L8.92294 11.3243C9.20774 11.5293 9.57516 11.5285 9.85906 11.3222C10.143 11.116 10.2573 10.7668 10.1504 10.4326L9.47882 8.33268Z" fill="#B2D235"/>
<path d="M6.99998 0C3.14019 0 0 3.14019 0 6.99998C0 10.8598 3.14019 14 6.99998 14C7.15729 14 7.28487 13.8724 7.28487 13.7151C7.28487 13.5577 7.15729 13.4302 6.99998 13.4302C3.45438 13.4302 0.569795 10.5456 0.569795 6.99998C0.569795 3.45433 3.45438 0.569795 6.99998 0.569795C10.5456 0.569795 13.4302 3.45438 13.4302 6.99998C13.4302 9.20698 12.3181 11.2346 10.4554 12.4239C10.3227 12.5085 10.2838 12.6847 10.3685 12.8173C10.4532 12.9499 10.6293 12.9888 10.762 12.9041C12.7895 11.6097 14 9.40252 14 7.00002C14 3.14019 10.8598 0 6.99998 0Z" fill="#B2D235"/>
</svg>
