<svg width="24" height="26" viewBox="0 0 24 26" fill="none" xmlns="http://www.w3.org/2000/svg">
<path fill-rule="evenodd" clip-rule="evenodd" d="M20.5795 15.0961C22.2171 15.0961 23.5251 16.366 23.6957 18.1184C23.7137 18.2337 23.7578 18.6417 23.5993 19.2794C23.3653 20.2214 22.8274 21.076 22.0435 21.7514L18.4731 24.8071C18.3775 24.8881 18.2605 24.9293 18.1435 24.9293C18.0274 24.9293 17.9117 24.8894 17.8165 24.8093L14.2444 21.7523C13.4597 21.0751 12.9218 20.2206 12.6883 19.2794C12.5297 18.6413 12.5738 18.2328 12.5918 18.1176C12.7628 16.3656 14.0708 15.0957 15.7075 15.0957C16.7344 15.0957 17.5967 15.7167 18.1435 16.4727C18.6908 15.7167 19.5527 15.0961 20.5795 15.0961ZM21.4855 21.1008C22.1331 20.5433 22.5767 19.8417 22.7674 19.0728C22.8925 18.5708 22.8536 18.2806 22.8503 18.256C22.8502 18.2549 22.8501 18.2544 22.8501 18.2543C22.7395 17.0916 21.9287 15.9541 20.5804 15.9541C19.6414 15.9541 18.8773 16.7298 18.5361 17.4987L18.1444 18.382L17.7527 17.4987C17.4115 16.7298 16.6465 15.9537 15.7084 15.9537C14.361 15.9537 13.5497 17.0911 13.4451 18.2144L13.4378 18.2598C13.4378 18.2598 13.4378 18.2604 13.4376 18.2616C13.4344 18.2864 13.3973 18.5758 13.521 19.0728C13.7113 19.8413 14.1548 20.5428 14.8037 21.1017L18.144 23.9607L21.4855 21.1008Z" fill="white"/>
<path d="M23.6957 18.1184L23.4469 18.1426L23.4476 18.1498L23.4487 18.157L23.6957 18.1184ZM23.5993 19.2794L23.3566 19.2191L23.3566 19.2191L23.5993 19.2794ZM22.0435 21.7514L22.2061 21.9414L22.2067 21.9408L22.0435 21.7514ZM18.4731 24.8071L18.6348 24.9979L18.6357 24.9971L18.4731 24.8071ZM17.8165 24.8093L17.654 24.9992L17.6555 25.0005L17.8165 24.8093ZM14.2444 21.7523L14.0811 21.9415L14.0818 21.9422L14.2444 21.7523ZM12.6883 19.2794L12.9309 19.2192L12.9309 19.2191L12.6883 19.2794ZM12.5918 18.1176L12.8388 18.1561L12.8399 18.149L12.8406 18.1418L12.5918 18.1176ZM18.1435 16.4727L17.941 16.6192L18.1435 16.8991L18.346 16.6193L18.1435 16.4727ZM22.7674 19.0728L22.5248 19.0124L22.5248 19.0127L22.7674 19.0728ZM21.4855 21.1008L21.6481 21.2908L21.6487 21.2903L21.4855 21.1008ZM22.8503 18.256L23.0981 18.2228L23.0981 18.2227L22.8503 18.256ZM22.8501 18.2543H23.1001V18.2424L23.099 18.2306L22.8501 18.2543ZM18.5361 17.4987L18.3076 17.3973L18.3076 17.3974L18.5361 17.4987ZM18.1444 18.382L17.9159 18.4833L18.1444 18.9987L18.3729 18.4833L18.1444 18.382ZM17.7527 17.4987L17.9812 17.3974L17.9812 17.3973L17.7527 17.4987ZM13.4451 18.2144L13.692 18.254L13.6933 18.2458L13.694 18.2376L13.4451 18.2144ZM13.4378 18.2598L13.191 18.2203L13.1445 18.5098H13.4378V18.2598ZM13.4376 18.2616L13.1897 18.2298L13.1897 18.2298L13.4376 18.2616ZM13.521 19.0728L13.7636 19.0128L13.7636 19.0125L13.521 19.0728ZM14.8037 21.1017L14.6405 21.2911L14.6411 21.2916L14.8037 21.1017ZM18.144 23.9607L17.9814 24.1506L18.144 24.2898L18.3065 24.1506L18.144 23.9607ZM23.9445 18.0942C23.763 16.2289 22.3605 14.8461 20.5795 14.8461V15.3461C22.0737 15.3461 23.2873 16.5031 23.4469 18.1426L23.9445 18.0942ZM23.8419 19.3397C24.0094 18.6661 23.9652 18.2242 23.9427 18.0799L23.4487 18.157C23.4621 18.2432 23.5063 18.6173 23.3566 19.2191L23.8419 19.3397ZM22.2067 21.9408C23.027 21.234 23.5946 20.3353 23.8419 19.3397L23.3566 19.2191C23.136 20.1075 22.6277 20.918 21.8803 21.562L22.2067 21.9408ZM18.6357 24.9971L22.2061 21.9414L21.881 21.5615L18.3106 24.6172L18.6357 24.9971ZM18.1435 25.1793C18.3194 25.1793 18.4938 25.1174 18.6348 24.9978L18.3115 24.6164C18.2613 24.6589 18.2017 24.6793 18.1435 24.6793V25.1793ZM17.6555 25.0005C17.7966 25.1194 17.9697 25.1793 18.1435 25.1793V24.6793C18.0851 24.6793 18.0267 24.6594 17.9776 24.6181L17.6555 25.0005ZM14.0818 21.9422L17.654 24.9992L17.9791 24.6193L14.4069 21.5623L14.0818 21.9422ZM12.4456 19.3396C12.6925 20.3345 13.2601 21.2331 14.0811 21.9415L14.4077 21.563C13.6593 20.9172 13.1511 20.1066 12.9309 19.2192L12.4456 19.3396ZM12.3448 18.079C12.3223 18.2234 12.2781 18.6657 12.4456 19.3397L12.9309 19.2191C12.7812 18.6169 12.8254 18.2423 12.8388 18.1561L12.3448 18.079ZM15.7075 14.8457C13.9274 14.8457 12.525 16.2285 12.343 18.0933L12.8406 18.1418C13.0006 16.5026 14.2143 15.3457 15.7075 15.3457V14.8457ZM18.3461 16.3262C17.7692 15.5287 16.8398 14.8457 15.7075 14.8457V15.3457C16.629 15.3457 17.4241 15.9047 17.941 16.6192L18.3461 16.3262ZM20.5795 14.8461C19.4473 14.8461 18.5183 15.5287 17.941 16.3261L18.346 16.6193C18.8633 15.9048 19.658 15.3461 20.5795 15.3461V14.8461ZM22.5248 19.0127C22.3475 19.7272 21.934 20.3848 21.3224 20.9114L21.6487 21.2903C22.3322 20.7017 22.8059 19.9562 23.01 19.133L22.5248 19.0127ZM22.6025 18.2891C22.6027 18.2904 22.612 18.3544 22.6072 18.4754C22.6024 18.5973 22.5831 18.7784 22.5248 19.0124L23.01 19.1333C23.1439 18.5957 23.1049 18.2731 23.0981 18.2228L22.6025 18.2891ZM22.6001 18.2543C22.6001 18.2657 22.6009 18.2747 22.601 18.2756C22.6013 18.2785 22.6015 18.2808 22.6016 18.2819C22.6019 18.2841 22.6021 18.2859 22.6022 18.2865C22.6023 18.2877 22.6025 18.289 22.6026 18.2893L23.0981 18.2227C23.098 18.2219 23.0981 18.2224 23.0982 18.2231C23.0982 18.2233 23.0984 18.2249 23.0986 18.227C23.0987 18.228 23.099 18.2302 23.0992 18.233C23.0993 18.2345 23.0995 18.2368 23.0997 18.2397C23.0998 18.2421 23.1001 18.2475 23.1001 18.2543H22.6001ZM20.5804 16.2041C21.7564 16.2041 22.4983 17.1953 22.6012 18.2779L23.099 18.2306C22.9808 16.9879 22.1009 15.7041 20.5804 15.7041V16.2041ZM18.7646 17.6001C19.0856 16.8767 19.7815 16.2041 20.5804 16.2041V15.7041C19.5013 15.7041 18.6689 16.583 18.3076 17.3973L18.7646 17.6001ZM18.3729 18.4833L18.7646 17.6001L18.3076 17.3974L17.9159 18.2806L18.3729 18.4833ZM17.5241 17.6001L17.9159 18.4833L18.3729 18.2806L17.9812 17.3974L17.5241 17.6001ZM15.7084 16.2037C16.5064 16.2037 17.2032 16.8767 17.5242 17.6001L17.9812 17.3973C17.6199 16.583 16.7866 15.7037 15.7084 15.7037V16.2037ZM13.694 18.2376C13.7909 17.1974 14.5312 16.2037 15.7084 16.2037V15.7037C14.1908 15.7037 13.3085 16.9849 13.1962 18.1912L13.694 18.2376ZM13.6847 18.2994L13.692 18.254L13.1983 18.1748L13.191 18.2203L13.6847 18.2994ZM13.6856 18.2934C13.6856 18.2933 13.6858 18.2916 13.686 18.2901C13.686 18.2897 13.6864 18.2866 13.6868 18.2827C13.6869 18.2817 13.6875 18.2751 13.6877 18.2668C13.6878 18.2645 13.6882 18.2512 13.6865 18.2344C13.6859 18.2287 13.6835 18.2039 13.6727 18.1743C13.6676 18.1602 13.6544 18.1272 13.6247 18.0938C13.5913 18.0561 13.5279 18.0098 13.4378 18.0098V18.5098C13.3478 18.5098 13.2844 18.4636 13.2509 18.4259C13.2213 18.3925 13.2081 18.3595 13.2029 18.3454C13.1921 18.3158 13.1897 18.291 13.1891 18.2853C13.1874 18.2685 13.1879 18.2553 13.1879 18.2529C13.1882 18.2447 13.1888 18.2382 13.1889 18.2372C13.1892 18.2335 13.1896 18.2305 13.1896 18.2305C13.1897 18.2295 13.1898 18.2287 13.1897 18.2298L13.6856 18.2934ZM13.7636 19.0125C13.7059 18.7808 13.6866 18.6009 13.6815 18.4796C13.6764 18.3591 13.6854 18.295 13.6856 18.2934L13.1897 18.2298C13.1832 18.2798 13.146 18.6009 13.2784 19.1332L13.7636 19.0125ZM14.9668 20.9123C14.3539 20.3843 13.9404 19.7267 13.7636 19.0128L13.2783 19.1329C13.4821 19.9558 13.9558 20.7014 14.6405 21.2911L14.9668 20.9123ZM18.3065 23.7708L14.9662 20.9118L14.6411 21.2916L17.9814 24.1506L18.3065 23.7708ZM21.323 20.9109L17.9814 23.7708L18.3065 24.1506L21.6481 21.2908L21.323 20.9109Z" fill="white"/>
<path d="M11.786 6.14282C11.549 6.14282 11.3574 6.33439 11.3574 6.57139C11.3574 6.80839 11.549 6.99997 11.786 6.99997H19.5003C19.7373 6.99997 19.9289 6.80839 19.9289 6.57139C19.9289 6.33439 19.7373 6.14282 19.5003 6.14282H11.786Z" fill="white" stroke="white" stroke-width="0.5"/>
<path d="M19.9289 12.5714C19.9289 12.3344 19.7373 12.1428 19.5003 12.1428H11.786C11.549 12.1428 11.3574 12.3344 11.3574 12.5714C11.3574 12.8084 11.549 13 11.786 13H19.5003C19.7373 13 19.9289 12.8084 19.9289 12.5714Z" fill="white" stroke="white" stroke-width="0.5"/>
<path d="M9.03471 4.10329C8.85556 3.94943 8.58471 3.96958 8.43085 4.14958L5.75314 7.27301L4.11514 6.04472C3.92656 5.90329 3.65742 5.94058 3.51556 6.13043C3.37328 6.31943 3.41185 6.58815 3.60128 6.73001L5.56028 8.19958C5.63699 8.25743 5.72742 8.28529 5.81699 8.28529C5.93828 8.28529 6.05828 8.23429 6.14271 8.13529L9.08142 4.70672C9.23571 4.52758 9.21471 4.25758 9.03471 4.10329Z" fill="white" stroke="white" stroke-width="0.5"/>
<path d="M9.03471 10.1033C8.85556 9.94943 8.58471 9.96958 8.43085 10.1496L5.75314 13.273L4.11514 12.0447C3.92656 11.9033 3.65742 11.9406 3.51556 12.1304C3.37328 12.3194 3.41185 12.5881 3.60128 12.73L5.56028 14.1996C5.63699 14.2574 5.72742 14.2853 5.81699 14.2853C5.93828 14.2853 6.05828 14.2343 6.14271 14.1353L9.08142 10.7067C9.23571 10.5276 9.21471 10.2576 9.03471 10.1033Z" fill="white" stroke="white" stroke-width="0.5"/>
<path d="M8.43085 16.5785L5.75314 19.7015L4.11514 18.4732C3.92656 18.3314 3.65742 18.3691 3.51556 18.559C3.37328 18.748 3.41185 19.0167 3.60128 19.1585L5.56028 20.6281C5.63699 20.686 5.72742 20.7138 5.81699 20.7138C5.93828 20.7138 6.05828 20.6628 6.14271 20.5638L9.08142 17.1357C9.23571 16.9561 9.21514 16.6857 9.03514 16.5318C8.85556 16.378 8.58471 16.3985 8.43085 16.5785Z" fill="white" stroke="white" stroke-width="0.5"/>
<path d="M10.9291 23.2857H5.43313C3.02841 23.2857 1.07199 21.3297 1.07199 18.9246V6.21829C1.07199 3.81314 3.02841 1.85714 5.43313 1.85714H18.1394C20.5441 1.85714 22.5006 3.81314 22.5006 6.21829V13.8571C22.5006 14.0941 22.6921 14.2857 22.9291 14.2857C23.1661 14.2857 23.3577 14.0941 23.3577 13.8571V6.21829C23.3577 3.34086 21.0168 1 18.1394 1H5.43313C2.5557 1 0.214844 3.34086 0.214844 6.21829V18.9246C0.214844 21.802 2.5557 24.1429 5.43313 24.1429H10.9291C11.1661 24.1429 11.3577 23.9513 11.3577 23.7143C11.3577 23.4773 11.1661 23.2857 10.9291 23.2857Z" fill="white" stroke="white" stroke-width="0.5"/>
</svg>
