<svg width="14" height="14" viewBox="0 0 14 14" fill="none" xmlns="http://www.w3.org/2000/svg">
<g clip-path="url(#clip0_56_2142)">
<path d="M0.238566 8.81172C1.23755 12.54 5.08348 14.7604 8.81175 13.7615C12.54 12.7625 14.7605 8.91654 13.7615 5.18827C13.7208 5.03632 13.5645 4.9461 13.4126 4.98682C13.2606 5.02753 13.1704 5.18379 13.2111 5.33574C14.1288 8.76051 12.0891 12.2934 8.66428 13.2111C5.23945 14.1288 1.70661 12.089 0.788945 8.66425C-0.128722 5.23947 1.91099 1.70659 5.33577 0.788918C7.46757 0.217703 9.71392 0.767076 11.3448 2.25856C11.4609 2.36474 11.6411 2.35671 11.7473 2.24061C11.8535 2.12451 11.8455 1.94433 11.7293 1.8381C9.95421 0.214699 7.50897 -0.383284 5.18834 0.238526C1.46001 1.23748 -0.760434 5.08341 0.238566 8.81172Z" fill="#B2D235"/>
<path d="M5.03844 5.86251C5.18804 5.66677 5.28057 5.42412 5.28057 5.15722C5.28057 4.51814 4.76998 4 4.14028 4C3.51059 4 3 4.51814 3 5.15722C3 5.7963 3.51059 6.31445 4.14028 6.31445C4.41369 6.31445 4.6613 6.2128 4.85755 6.0499L5.69498 6.89723L5.88055 6.71453L5.03844 5.86251ZM4.14028 6.05381C3.65524 6.05381 3.26064 5.65165 3.26064 5.15722C3.26064 4.6628 3.65524 4.26064 4.14028 4.26064C4.62533 4.26064 5.01993 4.6628 5.01993 5.15722C5.01993 5.65165 4.62533 6.05381 4.14028 6.05381Z" fill="#B2D235"/>
<path d="M5.0387 9.7502C5.1883 9.55446 5.28083 9.31181 5.28083 9.04492C5.28083 8.40584 4.77024 7.8877 4.14054 7.8877C3.51085 7.8877 3 8.40584 3 9.04492C3 9.684 3.51059 10.2021 4.14028 10.2021C4.41369 10.2021 4.6613 10.1005 4.85782 9.9376L5.69524 10.7849L5.88081 10.6022L5.0387 9.7502ZM4.14028 9.94151C3.65524 9.94151 3.26064 9.53935 3.26064 9.04492C3.26064 8.55049 3.65524 8.14833 4.14028 8.14833C4.62533 8.14833 5.01993 8.55049 5.01993 9.04492C5.01993 9.53935 4.62533 9.94151 4.14028 9.94151Z" fill="#B2D235"/>
<path d="M11.2105 8.11176H6.88867V8.37239H11.2105V8.11176Z" fill="#B2D235"/>
<path d="M11.2105 9.15955H6.88867V9.42018H11.2105V9.15955Z" fill="#B2D235"/>
<path d="M11.2105 10.2073H6.88867V10.4679H11.2105V10.2073Z" fill="#B2D235"/>
<mask id="path-7-inside-1_56_2142" fill="white">
<path d="M9.99053 4.33496C9.64565 4.33496 9.34099 4.5081 9.15893 4.77192C9.15893 4.77192 9.09746 4.86392 8.99996 4.86392C8.90254 4.86392 8.84107 4.77192 8.84107 4.77192C8.65892 4.5081 8.35444 4.33496 8.00947 4.33496C7.45192 4.33496 7 4.78688 7 5.3446C7 5.47629 7.02588 5.6016 7.0717 5.71694C7.3545 6.59507 8.61931 7.62744 8.99996 7.66513C9.38069 7.62744 10.6453 6.59507 10.9283 5.71694C10.9741 5.60169 11 5.47629 11 5.3446C11 4.78688 10.5481 4.33496 9.99053 4.33496Z"/>
</mask>
<path d="M9.15893 4.77192L8.91199 4.60151L8.9095 4.60524L9.15893 4.77192ZM8.84107 4.77192L9.09053 4.60522L9.08794 4.60148L8.84107 4.77192ZM7.0717 5.71694L7.35726 5.62498L7.3542 5.61547L7.35051 5.60618L7.0717 5.71694ZM8.99996 7.66513L8.9704 7.96367L8.99995 7.9666L9.02951 7.96367L8.99996 7.66513ZM10.9283 5.71694L10.6495 5.60611L10.6458 5.61541L10.6428 5.62493L10.9283 5.71694ZM9.99053 4.03496C9.54285 4.03496 9.14765 4.26008 8.91202 4.60153L9.40585 4.94232C9.53433 4.75613 9.74846 4.63496 9.99053 4.63496V4.03496ZM9.15893 4.77192C8.9095 4.60524 8.90956 4.60515 8.90962 4.60506C8.90964 4.60503 8.9097 4.60495 8.90974 4.60489C8.90981 4.60477 8.90989 4.60465 8.90997 4.60454C8.91012 4.60431 8.91027 4.60409 8.91042 4.60387C8.91072 4.60342 8.91101 4.603 8.91129 4.60259C8.91185 4.60178 8.91237 4.60102 8.91286 4.60033C8.91383 4.59895 8.91468 4.59778 8.9154 4.59681C8.91683 4.59489 8.91788 4.59358 8.91864 4.59268C8.91985 4.59125 8.92131 4.58966 8.92378 4.5876C8.92544 4.58621 8.95186 4.56392 8.99996 4.56392V5.16392C9.14556 5.16392 9.25146 5.09562 9.30823 5.04824C9.33826 5.02319 9.36118 4.99859 9.37696 4.97991C9.38501 4.97039 9.39163 4.96189 9.3968 4.95494C9.39939 4.95146 9.40165 4.94832 9.40357 4.94558C9.40454 4.94422 9.40542 4.94295 9.40621 4.94178C9.40661 4.9412 9.40699 4.94065 9.40735 4.94012C9.40753 4.93985 9.4077 4.93959 9.40787 4.93934C9.40796 4.93922 9.40804 4.93909 9.40812 4.93897C9.40816 4.93891 9.40822 4.93882 9.40824 4.93879C9.4083 4.9387 9.40836 4.93861 9.15893 4.77192ZM8.99996 4.56392C9.04817 4.56392 9.07463 4.58628 9.07625 4.58763C9.07872 4.58969 9.08017 4.59128 9.08137 4.5927C9.08213 4.5936 9.08318 4.59491 9.0846 4.59682C9.08533 4.59779 9.08617 4.59895 9.08714 4.60033C9.08763 4.60103 9.08815 4.60178 9.08871 4.60259C9.08899 4.603 9.08928 4.60343 9.08958 4.60387C9.08973 4.60409 9.08988 4.60431 9.09003 4.60454C9.09011 4.60466 9.09019 4.60477 9.09026 4.60489C9.0903 4.60495 9.09036 4.60503 9.09038 4.60506C9.09044 4.60515 9.0905 4.60524 8.84107 4.77192C8.59164 4.93861 8.5917 4.9387 8.59176 4.93879C8.59178 4.93882 8.59184 4.93891 8.59188 4.93897C8.59196 4.93909 8.59204 4.93922 8.59213 4.93934C8.5923 4.93959 8.59247 4.93985 8.59265 4.94011C8.59301 4.94064 8.59339 4.9412 8.59378 4.94178C8.59458 4.94294 8.59546 4.94421 8.59642 4.94558C8.59834 4.94831 8.6006 4.95145 8.6032 4.95493C8.60836 4.96188 8.61498 4.97037 8.62302 4.97989C8.63879 4.99856 8.6617 5.02315 8.69171 5.04821C8.74843 5.09556 8.85433 5.16392 8.99996 5.16392V4.56392ZM9.08794 4.60148C8.85226 4.26012 8.4573 4.03496 8.00947 4.03496V4.63496C8.25158 4.63496 8.46558 4.75609 8.59419 4.94237L9.08794 4.60148ZM8.00947 4.03496C7.2862 4.03496 6.7 4.62123 6.7 5.3446H7.3C7.3 4.95253 7.61764 4.63496 8.00947 4.63496V4.03496ZM6.7 5.3446C6.7 5.51606 6.73377 5.67886 6.7929 5.8277L7.35051 5.60618C7.318 5.52434 7.3 5.43653 7.3 5.3446H6.7ZM6.78615 5.80891C6.95123 6.32151 7.38341 6.84184 7.79443 7.2255C8.00443 7.42153 8.22037 7.59259 8.41329 7.71915C8.50963 7.78235 8.60406 7.83699 8.69207 7.87825C8.77521 7.91722 8.87279 7.95401 8.9704 7.96367L9.02952 7.36659C9.03196 7.36683 9.00675 7.36311 8.94676 7.33499C8.89164 7.30914 8.82259 7.27008 8.74241 7.21748C8.58229 7.11243 8.39298 6.96344 8.20385 6.7869C7.81659 6.42542 7.47498 5.9905 7.35726 5.62498L6.78615 5.80891ZM9.02951 7.96367C9.12713 7.95401 9.22471 7.91723 9.30786 7.87825C9.39588 7.83699 9.49031 7.78236 9.58665 7.71915C9.77957 7.59259 9.9955 7.42153 10.2055 7.2255C10.6165 6.84184 11.0487 6.32152 11.2138 5.80896L10.6428 5.62493C10.525 5.99049 10.1833 6.42543 9.79607 6.7869C9.60695 6.96344 9.41765 7.11243 9.25753 7.21748C9.17735 7.27008 9.1083 7.30914 9.05318 7.33498C8.99319 7.36311 8.96797 7.36683 8.9704 7.36659L9.02951 7.96367ZM11.2071 5.82778C11.2662 5.67894 11.3 5.51602 11.3 5.3446H10.7C10.7 5.43657 10.682 5.52444 10.6495 5.60611L11.2071 5.82778ZM11.3 5.3446C11.3 4.62123 10.7138 4.03496 9.99053 4.03496V4.63496C10.3824 4.63496 10.7 4.95253 10.7 5.3446H11.3Z" fill="#B2D235" mask="url(#path-7-inside-1_56_2142)"/>
</g>
<defs>
<clipPath id="clip0_56_2142">
<rect width="14" height="14" fill="white"/>
</clipPath>
</defs>
</svg>
