<svg width="32" height="33" viewBox="0 0 32 33" xmlns="http://www.w3.org/2000/svg">
<path d="M28.1657 12.6857C28.1149 12.6603 27.9752 12.6603 27.9244 12.6349C27.8736 12.6095 27.6831 12.6095 27.5942 12.6095C27.0482 12.6095 26.6545 12.8254 26.4387 13.2063L23.5434 17.9809L19.899 18.0444C19.3022 18.0444 18.7942 18.527 18.7942 19.1492C18.7942 19.3143 18.8323 19.4666 18.8958 19.6063H13.0545C13.118 19.4666 13.1561 19.3143 13.1561 19.1492C13.1561 18.527 12.6482 18.0444 12.0514 18.0444H8.40693L5.51169 13.2063C5.29582 12.8254 4.88947 12.6095 4.35613 12.6095C4.27994 12.6095 4.08947 12.6095 4.02598 12.6349C3.97518 12.6603 3.8355 12.6603 3.78471 12.6857C0.0767696 13.5365 0.0640712 21.4476 0.089468 22.9587C0.089468 24.3428 0.572008 24.9524 1.57518 25.3333C1.81645 25.4476 2.12121 25.4984 2.36248 25.4984H8.73709V31.0095C8.73709 31.8222 9.35931 32.4444 10.172 32.4444C10.9847 32.4444 11.6069 31.8222 11.6069 31.0095V24.1143C11.6069 23.7333 11.4418 23.327 11.1752 23.0857C10.8831 22.7936 10.5022 22.6285 10.1466 22.6285H5.89264V19.4412L3.68312 15.6825C3.56883 15.5174 3.63233 15.327 3.75931 15.2508C3.92439 15.1365 4.11486 15.2 4.19106 15.327L6.75613 19.6825C6.76883 19.7079 6.79423 19.7333 6.80693 19.7714V21.7651H25.1434V19.7714C25.1688 19.746 25.1815 19.7206 25.1942 19.6825L27.7593 15.327C27.8355 15.1873 28.026 15.1365 28.1911 15.2508C28.3307 15.327 28.3815 15.5174 28.2672 15.6825L26.0577 19.4412V22.6285H21.8165C21.4609 22.6285 21.0926 22.7936 20.7879 23.0857C20.5212 23.327 20.3561 23.7333 20.3561 24.1143V31.0095C20.3561 31.8222 20.9784 32.4444 21.7911 32.4444C22.6038 32.4444 23.226 31.8222 23.226 31.0095V25.4984H29.6006C29.8418 25.4984 30.1466 25.4476 30.3879 25.3333C31.3911 24.9524 31.8736 24.3428 31.8736 22.9587C31.899 21.4603 31.8863 13.5365 28.1657 12.6857Z"/>
<circle cx="25.4081" cy="9.96231" r="2.56507" transform="rotate(-82.9809 25.4081 9.96231)"/>
<circle cx="6.5385" cy="9.96116" r="2.56519" transform="rotate(-61.8436 6.5385 9.96116)"/>
<path fill-rule="evenodd" clip-rule="evenodd" d="M20.7484 4.82538C20.7484 7.44125 18.6151 9.57458 15.9992 9.57458C13.3833 9.57458 11.25 7.45395 11.25 4.83807C11.25 2.2222 13.3833 0.0888672 15.9992 0.0888672C18.6151 0.0888672 20.7484 2.2095 20.7484 4.82538ZM15.5675 1.90474V2.52696C14.7675 2.59045 14.2214 3.09839 14.2341 3.7968C14.2341 4.46982 14.7167 4.78728 15.2119 5.02855C15.3179 5.08154 15.474 5.13367 15.6457 5.19102C16.1324 5.35355 16.7446 5.558 16.6976 5.94284C16.6595 6.2222 16.3675 6.42537 15.8722 6.36188C15.4405 6.29839 14.9833 5.94284 14.9833 5.94284L14.3611 6.56506C14.7421 6.86982 15.1484 7.0603 15.5802 7.14918V7.75871H16.4056V7.18728C17.1929 7.09839 17.777 6.56506 17.777 5.89204C17.777 4.90492 16.7442 4.61863 16.2756 4.48873C16.268 4.48662 16.2605 4.48455 16.2532 4.48252C15.3897 4.24125 15.3135 3.93649 15.3262 3.77141C15.3516 3.37776 15.7833 3.27617 16.177 3.36506C16.4817 3.42855 16.8119 3.61903 16.9897 3.75871L17.5611 3.09839C17.2817 2.89522 16.9135 2.65395 16.3929 2.55236V1.90474H15.5675Z"/>
</svg>
