<svg width="26" height="25" viewBox="0 0 26 25" fill="none" xmlns="http://www.w3.org/2000/svg">
<path fill-rule="evenodd" clip-rule="evenodd" d="M8.33333 1.40218C8.33333 0.168563 9.33527 -0.833374 10.5689 -0.833374H13.4311C14.6647 -0.833374 15.6667 0.168563 15.6667 1.40218V3.31419L17.0182 1.96263C17.8768 1.10409 19.3237 1.1059 20.1804 1.96263L22.204 3.98619L22.2047 3.98686C22.6249 4.40792 22.8587 4.97213 22.8587 5.56751C22.8587 6.1621 22.6252 6.72724 22.204 7.1484L22.2039 7.1485L20.8521 8.49996H22.7644C23.9981 8.49996 25 9.5019 25 10.7355V13.5977C25 14.8314 23.9981 15.8333 22.7644 15.8333H20.8516L22.2035 17.1848L22.2042 17.1855C22.6243 17.6065 22.8582 18.1706 22.8582 18.7657C22.8582 19.3606 22.6248 19.9258 22.2036 20.3471L20.18 22.3706C19.3233 23.2274 17.8763 23.2292 17.0178 22.3706L17.0177 22.3705L15.6662 21.0187V22.9311C15.6662 24.1647 14.6643 25.1666 13.4307 25.1666H10.5689C9.33527 25.1666 8.33333 24.1647 8.33333 22.9311V21.0187L6.98211 22.3703C6.98203 22.3704 6.98195 22.3704 6.98187 22.3705C6.12304 23.2299 4.67647 23.2275 3.81956 22.3706L1.796 20.3471L1.79533 20.3464C1.37507 19.9253 1.14133 19.3611 1.14133 18.7657C1.14133 18.1712 1.37485 17.606 1.796 17.1849L1.7961 17.1848L3.14794 15.8333H1.23556C0.00170323 15.8333 -1 14.8311 -1 13.5973V10.7355C-1 9.5019 0.00193729 8.49996 1.23556 8.49996H3.14794L1.7961 7.1485L1.79533 7.14773C1.37521 6.7268 1.14133 6.16265 1.14133 5.56751C1.14133 4.97267 1.37471 4.40748 1.796 3.98619L3.81956 1.96263C4.67629 1.1059 6.12323 1.10409 6.98177 1.96263L8.33333 3.31419V1.40218ZM10.5689 1.16663C10.4398 1.16663 10.3333 1.27313 10.3333 1.40218V3.64751C10.3333 4.41232 9.89169 5.07372 9.18586 5.36707C8.47454 5.66404 7.69293 5.50128 7.15529 4.96457L7.15467 4.96395L5.56756 3.37684C5.54121 3.35049 5.48495 3.31937 5.40068 3.3194C5.31627 3.31943 5.25992 3.3507 5.23377 3.37684L3.21022 5.4004C3.16484 5.44577 3.14133 5.50191 3.14133 5.56751C3.14133 5.63184 3.16428 5.68806 3.21068 5.73465C3.21075 5.73472 3.21082 5.73479 3.21089 5.73486L4.79767 7.3212L4.79839 7.32191C5.33856 7.86303 5.49346 8.6436 5.2015 9.34995C4.90871 10.0583 4.24543 10.5 3.48089 10.5H1.23556C1.10651 10.5 1 10.6065 1 10.7355V13.5973C1 13.727 1.10674 13.8333 1.23556 13.8333H3.48089C4.24623 13.8333 4.90802 14.2756 5.20106 14.9823C5.4946 15.6901 5.33783 16.471 4.79839 17.0113L4.79767 17.0121L3.21022 18.5991C3.16471 18.6446 3.14133 18.7008 3.14133 18.7657C3.14133 18.8307 3.16439 18.8868 3.2106 18.9332C3.2107 18.9333 3.21079 18.9334 3.21089 18.9335L5.23377 20.9564C5.26041 20.983 5.31691 21.0142 5.40085 21.0142C5.48465 21.0142 5.54073 20.9833 5.56722 20.9567L5.56746 20.9565L7.15457 19.369L7.15529 19.3682C7.69574 18.8287 8.47593 18.6722 9.18394 18.9654L9.18437 18.9656C9.89107 19.2586 10.3333 19.9204 10.3333 20.6857V22.9311C10.3333 23.0601 10.4398 23.1666 10.5689 23.1666H13.4307C13.5597 23.1666 13.6662 23.0601 13.6662 22.9311V20.6857C13.6662 19.9206 14.1082 19.259 14.8146 18.9658C15.5241 18.671 16.3045 18.8295 16.8443 19.3682L16.845 19.369L18.432 20.9564C18.4583 20.9828 18.5146 21.0139 18.5989 21.0138C18.6833 21.0138 18.7396 20.9826 18.7658 20.9564L20.7893 18.9329C20.8347 18.8875 20.8582 18.8313 20.8582 18.7657C20.8582 18.7014 20.8352 18.6451 20.7887 18.5985C20.7887 18.5984 20.7887 18.5984 20.7887 18.5984L19.2019 17.0121L19.2012 17.0113C18.661 16.4702 18.5061 15.6897 18.7981 14.9833C19.0911 14.2744 19.7552 13.8333 20.5191 13.8333H22.7644C22.8935 13.8333 23 13.7268 23 13.5977V10.7355C23 10.6065 22.8935 10.5 22.7644 10.5H20.5191C19.7538 10.5 19.092 10.0577 18.7989 9.351C18.5054 8.6431 18.6622 7.8623 19.2016 7.32191L19.2023 7.3212L20.7898 5.73419C20.7898 5.73415 20.7898 5.73412 20.7899 5.73409C20.8353 5.68859 20.8587 5.63243 20.8587 5.56751C20.8587 5.50263 20.8356 5.44652 20.7895 5.4001C20.7894 5.39998 20.7892 5.39985 20.7891 5.39973L18.7662 3.37684C18.7401 3.3507 18.6837 3.31943 18.5993 3.3194C18.515 3.31937 18.4588 3.35049 18.4324 3.37684L16.8453 4.96396L16.8447 4.96457C16.3062 5.50218 15.5245 5.663 14.8145 5.36723C14.1085 5.07396 13.6667 4.41246 13.6667 3.64751V1.40218C13.6667 1.27313 13.5602 1.16663 13.4311 1.16663H10.5689ZM11.2222 2.05551V3.64751C11.2222 4.77329 10.5648 5.75827 9.52394 6.18876C8.48239 6.62008 7.32128 6.3879 6.52578 5.5924L5.40044 4.46706L4.3005 5.56701L5.42591 6.6921C5.42598 6.69217 5.42605 6.69224 5.42612 6.69231C6.22294 7.4886 6.4537 8.65031 6.02262 9.69047C5.5918 10.7311 4.60699 11.3888 3.48089 11.3888H1.88889V12.9444H3.48089C4.60676 12.9444 5.59145 13.6019 6.0224 14.6418M5.86338 4.00413C5.86299 4.00451 5.86261 4.0049 5.86222 4.00529L5.86338 4.00413ZM11.2222 2.05551H12.7778V3.64751C12.7778 4.77358 13.4355 5.75837 14.4761 6.1892C15.5174 6.62045 16.6781 6.38893 17.4742 5.59284L18.5996 4.46751L19.6995 5.56745L18.5739 6.69275L18.5738 6.69285C17.7779 7.48873 17.5461 8.65024 17.9774 9.69092C18.4082 10.7315 19.393 11.3893 20.5191 11.3893H22.1111V12.9444H20.5191C19.393 12.9444 18.4082 13.6022 17.9774 14.6428C17.5463 15.6829 17.7771 16.8447 18.5739 17.6409C18.574 17.641 18.574 17.6411 18.5741 17.6412L19.6995 18.7662L18.5996 19.8661L17.4743 18.7405L17.4742 18.7404C16.6769 17.9431 15.5158 17.7143 14.4767 18.1438L14.4762 18.144C13.4355 18.5748 12.7778 19.5596 12.7778 20.6857V22.2777H11.2222V20.6857C11.2222 19.5596 10.5645 18.5748 9.52385 18.144C9.18131 18.0019 8.82128 17.9297 8.46 17.9297C7.7398 17.9297 7.0498 18.2159 6.52578 18.74L6.52568 18.7401L5.40038 19.8657L4.3005 18.7658L5.42612 17.6405L5.42622 17.6404C6.22215 16.8445 6.45394 15.6828 6.02253 14.6421M3.83877 19.2274L3.83856 19.2276L3.8375 19.2287C3.83792 19.2282 3.83835 19.2278 3.83877 19.2274ZM5.86338 20.3287L5.86222 20.3275C5.86261 20.3279 5.86299 20.3283 5.86338 20.3287ZM20.1617 18.304L20.1613 18.3044C20.1615 18.3043 20.1616 18.3042 20.1617 18.304ZM20.1625 18.3032L20.1617 18.304C20.162 18.3038 20.1622 18.3035 20.1625 18.3032ZM22.7668 11.3893C22.766 11.3893 22.7652 11.3893 22.7644 11.3893L22.7668 11.3893ZM20.1625 5.10458L20.1614 5.10564C20.1618 5.10529 20.1621 5.10494 20.1625 5.10458ZM18.1355 4.0034L18.1378 4.00573C18.137 4.00496 18.1362 4.00418 18.1355 4.0034ZM9.22222 1.40218C9.22222 0.658783 9.8255 0.0555149 10.5689 0.0555149H13.4307C14.1737 0.0555149 14.7778 0.65795 14.7778 1.40218V3.64751C14.7778 3.96497 14.9485 4.22016 15.2412 4.34134L15.2413 4.34138C15.535 4.46303 15.8356 4.40299 16.06 4.17863L17.6471 2.59152L17.6483 2.59036C18.172 2.06835 19.0247 2.06275 19.5525 2.59202C19.5531 2.59263 19.5537 2.59324 19.5543 2.59385L21.5756 4.61507C22.1006 5.14016 22.1027 5.99343 21.5755 6.52005M21.5744 6.52111L19.988 8.10707C19.988 8.1071 19.9879 8.10713 19.9879 8.10716C19.7635 8.33158 19.7038 8.63288 19.8251 8.92536L19.8253 8.92589C19.9465 9.2186 20.2017 9.38929 20.5191 9.38929H22.7638M21.5744 19.7198L19.552 21.7422C19.0289 22.2653 18.1754 22.2714 17.6467 21.7417C17.6464 21.7415 17.6462 21.7413 17.646 21.741L16.06 20.1546C16.06 20.1546 16.0599 20.1546 16.0599 20.1545C15.836 19.9307 15.5352 19.8706 15.2412 19.9919C14.9485 20.1131 14.7778 20.3683 14.7778 20.6857V22.9311C14.7778 23.6745 14.1745 24.2777 13.4311 24.2777H10.5689C9.8255 24.2777 9.22222 23.6745 9.22222 22.9311V20.6857C9.22222 20.3683 9.05153 20.1131 8.75882 19.9919L8.75763 19.9914C8.65341 19.9481 8.55342 19.9297 8.46 19.9297C8.27891 19.9297 8.09517 19.9991 7.94009 20.1541C7.94009 20.1541 7.94008 20.1541 7.94007 20.1541C7.94004 20.1541 7.94002 20.1542 7.94 20.1542L6.35298 21.7416L6.35288 21.7417C5.82573 22.2689 4.97254 22.2667 4.448 21.7417M4.44684 21.7406L2.42445 19.7182C1.89906 19.1928 1.89734 18.3388 2.42546 17.8123C2.42551 17.8122 2.42556 17.8122 2.42561 17.8121L4.012 16.2262C4.01204 16.2262 4.01207 16.2261 4.0121 16.2261C4.23645 16.0017 4.29622 15.7004 4.17494 15.4079L4.17481 15.4076C4.05369 15.1152 3.79846 14.9444 3.48089 14.9444H1.23556C0.492157 14.9444 -0.111111 14.3411 -0.111111 13.5977V10.7355C-0.111111 9.99212 0.492157 9.38885 1.23556 9.38885H3.48089C3.79835 9.38885 4.05354 9.21815 4.17472 8.92544L4.17494 8.92492C4.29641 8.63198 4.23652 8.33094 4.01231 8.10693L4.0121 8.10672L2.42455 6.51961L2.42445 6.51951C1.89926 5.99433 1.89734 5.14083 2.42485 4.61423L2.42445 4.61463L3.13156 5.32174L2.42561 4.61347M4.44684 2.59224L5.15511 3.29818L4.448 2.59107L4.44761 2.59147C4.44735 2.59173 4.4471 2.59198 4.44684 2.59224Z" fill="white"/>
<path d="M15.6667 3.31419H15.4167C15.4167 3.41531 15.4776 3.50646 15.571 3.54516C15.6644 3.58385 15.7719 3.56247 15.8434 3.49097L15.6667 3.31419ZM17.0182 1.96263L16.8414 1.78585L17.0182 1.96263ZM20.1804 1.96263L20.3572 1.78585V1.78585L20.1804 1.96263ZM22.204 3.98619L22.381 3.8096L22.3808 3.80941L22.204 3.98619ZM22.2047 3.98686L22.0277 4.16345L22.0277 4.16347L22.2047 3.98686ZM22.2039 7.1485L22.3806 7.3253L22.3807 7.32528L22.2039 7.1485ZM20.8521 8.49996L20.6753 8.32316C20.6038 8.39465 20.5824 8.50219 20.6211 8.59561C20.6598 8.68904 20.7509 8.74996 20.8521 8.74996V8.49996ZM20.8516 15.8333V15.5833C20.7505 15.5833 20.6593 15.6442 20.6206 15.7376C20.5819 15.8311 20.6033 15.9386 20.6749 16.0101L20.8516 15.8333ZM22.2035 17.1848L22.3802 17.008L22.3802 17.008L22.2035 17.1848ZM22.2042 17.1855L22.3812 17.0089L22.381 17.0087L22.2042 17.1855ZM20.18 22.3706L20.3568 22.5474L20.18 22.3706ZM17.0178 22.3706L16.8393 22.5457L16.841 22.5474L17.0178 22.3706ZM17.0177 22.3705L17.1962 22.1955L17.1945 22.1938L17.0177 22.3705ZM15.6662 21.0187L15.843 20.8419C15.7715 20.7704 15.664 20.749 15.5706 20.7877C15.4771 20.8264 15.4162 20.9176 15.4162 21.0187H15.6662ZM8.33333 21.0187H8.58333C8.58333 20.9176 8.52242 20.8264 8.42899 20.7877C8.33556 20.749 8.22803 20.7704 8.15653 20.8419L8.33333 21.0187ZM6.98211 22.3703L6.80531 22.1935L6.80428 22.1946L6.98211 22.3703ZM6.98187 22.3705L7.15871 22.5472L7.1597 22.5462L6.98187 22.3705ZM3.81956 22.3706L3.64278 22.5474L3.81956 22.3706ZM1.796 20.3471L1.61912 20.5237L1.61923 20.5238L1.796 20.3471ZM1.79533 20.3464L1.61839 20.523L1.61845 20.5231L1.79533 20.3464ZM1.796 17.1849L1.62062 17.0067L1.61923 17.0081L1.796 17.1849ZM1.7961 17.1848L1.97148 17.3629L1.97286 17.3616L1.7961 17.1848ZM3.14794 15.8333L3.32469 16.0101C3.39621 15.9386 3.41761 15.8311 3.37892 15.7376C3.34023 15.6442 3.24906 15.5833 3.14794 15.5833V15.8333ZM3.14794 8.49996V8.74996C3.24906 8.74996 3.34023 8.68904 3.37892 8.59561C3.41761 8.50219 3.39621 8.39465 3.32469 8.32316L3.14794 8.49996ZM1.7961 7.1485L1.61927 7.32522L1.61935 7.3253L1.7961 7.1485ZM1.79533 7.14773L1.61839 7.32434L1.6185 7.32445L1.79533 7.14773ZM3.81956 1.96263L3.64278 1.78585L3.81956 1.96263ZM6.98177 1.96263L6.805 2.13941V2.13941L6.98177 1.96263ZM8.33333 3.31419L8.15656 3.49097C8.22806 3.56247 8.33559 3.58385 8.429 3.54516C8.52242 3.50646 8.58333 3.41531 8.58333 3.31419H8.33333ZM9.18586 5.36707L9.08992 5.13622L9.08955 5.13637L9.18586 5.36707ZM7.15529 4.96457L6.97858 5.14142L6.97867 5.1415L7.15529 4.96457ZM7.15467 4.96395L6.97789 5.14073L6.97796 5.1408L7.15467 4.96395ZM5.56756 3.37684L5.74434 3.20007L5.74434 3.20007L5.56756 3.37684ZM5.40068 3.3194L5.40059 3.0694H5.40059L5.40068 3.3194ZM3.21022 5.4004L3.03344 5.22362L3.03344 5.22362L3.21022 5.4004ZM3.21068 5.73465L3.38805 5.55847L3.38781 5.55823L3.21068 5.73465ZM3.21089 5.73486L3.03382 5.91134L3.03414 5.91166L3.21089 5.73486ZM4.79767 7.3212L4.97445 7.14442L4.97443 7.1444L4.79767 7.3212ZM4.79839 7.32191L4.97532 7.14529L4.97517 7.14514L4.79839 7.32191ZM5.2015 9.34995L4.97046 9.25445L5.2015 9.34995ZM5.20106 14.9823L4.97013 15.078L5.20106 14.9823ZM4.79839 17.0113L4.97517 17.1881L4.97532 17.188L4.79839 17.0113ZM4.79767 17.0121L4.97443 17.1889L4.97445 17.1888L4.79767 17.0121ZM3.21022 18.5991L3.03347 18.4223L3.03344 18.4223L3.21022 18.5991ZM3.2106 18.9332L3.0334 19.1096L3.03361 19.1098L3.2106 18.9332ZM3.21089 18.9335L3.03411 19.1103L3.21089 18.9335ZM5.23377 20.9564L5.057 21.1332L5.057 21.1332L5.23377 20.9564ZM5.40085 21.0142L5.40094 20.7642H5.40093L5.40085 21.0142ZM5.56722 20.9567L5.74408 21.1334L5.74453 21.133L5.56722 20.9567ZM5.56746 20.9565L5.39066 20.7798L5.39015 20.7803L5.56746 20.9565ZM7.15457 19.369L6.97785 19.1921L6.97777 19.1922L7.15457 19.369ZM7.15529 19.3682L6.97867 19.1913L6.97857 19.1914L7.15529 19.3682ZM9.18394 18.9654L9.28009 18.7346L9.27959 18.7344L9.18394 18.9654ZM9.18437 18.9656L9.08822 19.1963L9.08861 19.1965L9.18437 18.9656ZM14.8146 18.9658L14.9104 19.1967L14.9105 19.1967L14.8146 18.9658ZM16.8443 19.3682L17.021 19.1915L17.0209 19.1913L16.8443 19.3682ZM16.845 19.369L17.0218 19.1922L17.0218 19.1922L16.845 19.369ZM18.432 20.9564L18.2552 21.1332L18.2552 21.1332L18.432 20.9564ZM18.5989 21.0138L18.599 21.2638H18.599L18.5989 21.0138ZM18.7658 20.9564L18.589 20.7796L18.589 20.7796L18.7658 20.9564ZM20.7893 18.9329L20.6126 18.7561L20.6126 18.7561L20.7893 18.9329ZM20.7887 18.5985L20.6059 18.7692L20.6117 18.775L20.7887 18.5985ZM20.7887 18.5984L20.9654 18.4216L20.9654 18.4216L20.7887 18.5984ZM19.2019 17.0121L19.0251 17.1888L19.0251 17.1889L19.2019 17.0121ZM19.2012 17.0113L19.0242 17.188L19.0244 17.1881L19.2012 17.0113ZM18.7981 14.9833L18.567 14.8878L18.7981 14.9833ZM18.7989 9.351L19.0299 9.25524L18.7989 9.351ZM19.2016 7.32191L19.0248 7.1452L19.0247 7.14529L19.2016 7.32191ZM19.2023 7.3212L19.0256 7.1444L19.0255 7.14448L19.2023 7.3212ZM20.7898 5.73419L20.9665 5.91099L20.9678 5.90967L20.7898 5.73419ZM20.7899 5.73409L20.613 5.5574L20.6118 5.55861L20.7899 5.73409ZM20.7895 5.4001L20.9668 5.22383L20.9666 5.22366L20.7895 5.4001ZM20.7891 5.39973L20.9662 5.22329L20.9659 5.22295L20.7891 5.39973ZM18.7662 3.37684L18.5894 3.55362L18.5894 3.55362L18.7662 3.37684ZM18.5993 3.3194L18.5994 3.0694H18.5994L18.5993 3.3194ZM18.4324 3.37684L18.6092 3.55362L18.6092 3.55362L18.4324 3.37684ZM16.8453 4.96396L16.6686 4.78718L16.8453 4.96396ZM16.8447 4.96457L17.0213 5.1415L17.0215 5.14135L16.8447 4.96457ZM14.8145 5.36723L14.9107 5.13646L14.9104 5.13636L14.8145 5.36723ZM11.2222 2.05551V1.80551C11.121 1.80551 11.0298 1.86653 10.9912 1.96006L11.2222 2.05551ZM9.52394 6.18876L9.42839 5.95774L9.42829 5.95778L9.52394 6.18876ZM6.52578 5.5924L6.70256 5.41562L6.52578 5.5924ZM5.40044 4.46706L5.57722 4.29029C5.47959 4.19265 5.3213 4.19265 5.22367 4.29029L5.40044 4.46706ZM4.3005 5.56701L4.12372 5.39023C4.07684 5.43712 4.0505 5.50071 4.0505 5.56702C4.05051 5.63333 4.07685 5.69693 4.12375 5.74381L4.3005 5.56701ZM5.42591 6.6921L5.60269 6.51532L5.60266 6.5153L5.42591 6.6921ZM5.42612 6.69231L5.24934 6.86909L5.2494 6.86914L5.42612 6.69231ZM6.02262 9.69047L5.79166 9.59476L5.79163 9.59485L6.02262 9.69047ZM1.88889 11.3888V11.1388C1.75082 11.1388 1.63889 11.2508 1.63889 11.3888H1.88889ZM1.88889 12.9444H1.63889C1.63889 13.0825 1.75082 13.1944 1.88889 13.1944V12.9444ZM6.0224 14.6418L5.79144 14.7375C5.83017 14.831 5.92138 14.8919 6.02253 14.8918C6.12368 14.8918 6.21483 14.8308 6.25346 14.7373L6.0224 14.6418ZM5.86338 4.00413L6.04044 4.18061C6.1379 4.08284 6.13766 3.92457 6.0399 3.8271C5.94214 3.72962 5.78388 3.72983 5.68638 3.82757L5.86338 4.00413ZM5.86222 4.00529L5.68515 3.8288C5.58776 3.92652 5.58793 4.08465 5.68553 4.18216C5.78314 4.27966 5.94127 4.27967 6.03889 4.18218L5.86222 4.00529ZM12.7778 2.05551H13.0278C13.0278 1.91744 12.9158 1.80551 12.7778 1.80551V2.05551ZM14.4761 6.1892L14.5717 5.95823L14.5717 5.95822L14.4761 6.1892ZM17.4742 5.59284L17.2974 5.41607V5.41607L17.4742 5.59284ZM18.5996 4.46751L18.7763 4.29073C18.6787 4.1931 18.5204 4.1931 18.4228 4.29073L18.5996 4.46751ZM19.6995 5.56745L19.8763 5.74425C19.9231 5.69737 19.9495 5.63378 19.9495 5.56747C19.9495 5.50116 19.9232 5.43756 19.8763 5.39067L19.6995 5.56745ZM18.5739 6.69275L18.3971 6.51595L18.3971 6.51598L18.5739 6.69275ZM18.5738 6.69285L18.7506 6.86963L18.5738 6.69285ZM17.9774 9.69092L18.2084 9.59529L18.2083 9.5952L17.9774 9.69092ZM22.1111 11.3893H22.3611C22.3611 11.2512 22.2492 11.1393 22.1111 11.1393V11.3893ZM22.1111 12.9444V13.1944C22.2492 13.1944 22.3611 13.0825 22.3611 12.9444H22.1111ZM17.9774 14.6428L18.2083 14.7385L18.2084 14.7384L17.9774 14.6428ZM18.5739 17.6409L18.3971 17.8178L18.3995 17.8201L18.5739 17.6409ZM18.5741 17.6412L18.7509 17.4643L18.7484 17.462L18.5741 17.6412ZM19.6995 18.7662L19.8763 18.943C19.9232 18.8961 19.9495 18.8325 19.9495 18.7662C19.9495 18.6999 19.9231 18.6363 19.8763 18.5894L19.6995 18.7662ZM18.5996 19.8661L18.4228 20.0429C18.4697 20.0898 18.5333 20.1161 18.5996 20.1161C18.6659 20.1161 18.7295 20.0898 18.7764 20.0429L18.5996 19.8661ZM17.4743 18.7405L17.6511 18.5638L17.6511 18.5637L17.4743 18.7405ZM14.4767 18.1438L14.5721 18.3749L14.5722 18.3748L14.4767 18.1438ZM14.4762 18.144L14.3807 17.9129L14.3805 17.913L14.4762 18.144ZM12.7778 22.2777V22.5277C12.9158 22.5277 13.0278 22.4158 13.0278 22.2777H12.7778ZM11.2222 22.2777H10.9722C10.9722 22.4158 11.0842 22.5277 11.2222 22.5277V22.2777ZM9.52385 18.144L9.42802 18.3749L9.42822 18.375L9.52385 18.144ZM6.52578 18.74L6.34901 18.5632L6.52578 18.74ZM6.52568 18.7401L6.34891 18.5633L6.34888 18.5633L6.52568 18.7401ZM5.40038 19.8657L5.2236 20.0425C5.27049 20.0893 5.33409 20.1157 5.4004 20.1157C5.46671 20.1157 5.5303 20.0893 5.57718 20.0424L5.40038 19.8657ZM4.3005 18.7658L4.12375 18.589C4.07685 18.6359 4.05051 18.6995 4.0505 18.7658C4.0505 18.8321 4.07684 18.8957 4.12372 18.9426L4.3005 18.7658ZM5.42612 17.6405L5.60287 17.8173L5.60332 17.8168L5.42612 17.6405ZM5.42622 17.6404L5.24944 17.4636L5.24902 17.464L5.42622 17.6404ZM6.02253 14.6421L5.79147 14.5467C5.76617 14.6079 5.76621 14.6767 5.79158 14.7379L6.02253 14.6421ZM3.83856 19.2276L3.66189 19.0507L3.66185 19.0508L3.83856 19.2276ZM3.83877 19.2274L4.01565 19.4041C4.11318 19.3064 4.11314 19.1482 4.01555 19.0506C3.91796 18.953 3.75974 18.953 3.6621 19.0505L3.83877 19.2274ZM3.8375 19.2287L3.66078 19.0518C3.56315 19.1494 3.56306 19.3076 3.66059 19.4053C3.75813 19.503 3.91636 19.5031 4.01408 19.4056L3.8375 19.2287ZM5.86338 20.3287L5.68639 20.5052C5.78389 20.603 5.94215 20.6032 6.03991 20.5057C6.13766 20.4082 6.1379 20.25 6.04045 20.1522L5.86338 20.3287ZM5.86222 20.3275L6.03867 20.1504C5.94098 20.0531 5.78292 20.0532 5.68542 20.1508C5.58792 20.2483 5.5878 20.4063 5.68515 20.504L5.86222 20.3275ZM20.1613 18.3044L19.9832 18.129C19.8867 18.227 19.8875 18.3846 19.985 18.4816C20.0825 18.5787 20.2401 18.5787 20.3377 18.4816L20.1613 18.3044ZM20.1625 18.3032L20.3391 18.4802C20.4367 18.3828 20.437 18.2247 20.3397 18.1269C20.2424 18.0291 20.0843 18.0286 19.9864 18.1258L20.1625 18.3032ZM22.7668 11.3893L22.7674 11.6393C22.9054 11.6389 23.017 11.5268 23.0168 11.3888C23.0165 11.2508 22.9045 11.1391 22.7665 11.1393L22.7668 11.3893ZM22.7644 11.3893L22.7641 11.1393C22.6261 11.1395 22.5144 11.2514 22.5144 11.3894C22.5145 11.5275 22.6264 11.6393 22.7644 11.6393V11.3893ZM20.1625 5.10458L20.339 5.2816C20.4368 5.1841 20.437 5.02583 20.3395 4.92806C20.2421 4.8303 20.0838 4.83006 19.986 4.92753L20.1625 5.10458ZM20.1614 5.10564L19.9848 4.92875C19.8871 5.02628 19.887 5.18451 19.9845 5.28222C20.082 5.37993 20.2402 5.38014 20.3379 5.2827L20.1614 5.10564ZM18.1355 4.0034L18.3126 3.82695C18.2152 3.72921 18.057 3.72884 17.9592 3.82614C17.8613 3.92343 17.8608 4.0816 17.958 4.17953L18.1355 4.0034ZM18.1378 4.00573L17.9613 4.18284C18.059 4.28016 18.2171 4.28001 18.3146 4.18251C18.4121 4.08501 18.4122 3.92697 18.3149 3.82928L18.1378 4.00573ZM9.22222 1.40218H8.97222C8.97222 1.50329 9.03312 1.59445 9.12654 1.63314L9.22222 1.40218ZM15.2412 4.34134L15.1456 4.57233L15.1457 4.5724L15.2412 4.34134ZM15.2413 4.34138L15.3369 4.1104L15.3367 4.11032L15.2413 4.34138ZM16.06 4.17863L15.8832 4.00185L16.06 4.17863ZM17.6471 2.59152L17.4706 2.41449L17.4703 2.41474L17.6471 2.59152ZM17.6483 2.59036L17.4718 2.4133L17.4718 2.41333L17.6483 2.59036ZM19.5525 2.59202L19.7295 2.41551L19.7295 2.4155L19.5525 2.59202ZM19.5543 2.59385L19.3771 2.77016L19.3775 2.77063L19.5543 2.59385ZM21.5756 4.61508L21.7523 4.4383L21.7523 4.4383L21.5756 4.61508ZM21.5755 6.52005L21.4798 6.75102C21.5731 6.7897 21.6806 6.76836 21.7521 6.69693L21.5755 6.52005ZM19.988 8.10707L19.8112 7.93026L19.8099 7.93158L19.988 8.10707ZM21.5744 6.52111L21.8053 6.42535C21.7733 6.34825 21.705 6.29219 21.6231 6.27591C21.5413 6.25964 21.4567 6.2853 21.3976 6.34431L21.5744 6.52111ZM19.9879 8.10716L20.1647 8.28392L20.166 8.28265L19.9879 8.10716ZM19.8251 8.92536L19.5941 9.02112L19.5944 9.02167L19.8251 8.92536ZM19.8253 8.92589L20.0563 8.83026L20.056 8.82959L19.8253 8.92589ZM22.7638 9.38929V9.63929C22.8473 9.63929 22.9253 9.59759 22.9717 9.52814C23.0181 9.45869 23.0267 9.37067 22.9947 9.29353L22.7638 9.38929ZM19.552 21.7422L19.7288 21.919L19.552 21.7422ZM21.5744 19.7198L21.7512 19.8966C21.8265 19.8213 21.8458 19.7065 21.7993 19.6107C21.7529 19.5149 21.6508 19.459 21.5451 19.4715L21.5744 19.7198ZM17.6467 21.7417L17.8236 21.5651L17.8234 21.565L17.6467 21.7417ZM17.646 21.741L17.4692 21.9178L17.4692 21.9178L17.646 21.741ZM16.06 20.1546L16.2368 19.9779L16.2342 19.9753L16.06 20.1546ZM16.0599 20.1545L15.8831 20.3313L15.8857 20.3338L16.0599 20.1545ZM15.2412 19.9919L15.1458 19.7608L15.1456 19.7609L15.2412 19.9919ZM8.75882 19.9919L8.66282 20.2227L8.66319 20.2229L8.75882 19.9919ZM8.75763 19.9914L8.85363 19.7606L8.85356 19.7606L8.75763 19.9914ZM7.94009 20.1541L7.76329 19.9772L7.75884 19.9819L7.94009 20.1541ZM7.94007 20.1541L8.12028 20.3274L8.12132 20.3263L7.94007 20.1541ZM7.94 20.1542L8.11683 20.331L8.1202 20.3275L7.94 20.1542ZM6.35298 21.7416L6.52976 21.9184L6.52979 21.9184L6.35298 21.7416ZM6.35288 21.7417L6.52966 21.9185H6.52966L6.35288 21.7417ZM4.448 21.7417L4.41869 21.4935C4.32358 21.5047 4.24324 21.5693 4.21183 21.6597C4.18042 21.7502 4.20346 21.8507 4.27115 21.9184L4.448 21.7417ZM2.42445 19.7182L2.24767 19.895H2.24767L2.42445 19.7182ZM4.44684 21.7406L4.27006 21.9173C4.34536 21.9926 4.46009 22.012 4.5559 21.9655C4.65172 21.9191 4.7076 21.817 4.69512 21.7113L4.44684 21.7406ZM2.42546 17.8123L2.60198 17.9893L2.60331 17.988L2.42546 17.8123ZM2.42561 17.8121L2.24886 17.6353L2.24777 17.6364L2.42561 17.8121ZM4.012 16.2262L4.18876 16.403L4.18941 16.4023L4.012 16.2262ZM4.0121 16.2261L3.83529 16.0493L3.83406 16.0506L4.0121 16.2261ZM4.17494 15.4079L3.94395 15.5035L3.944 15.5036L4.17494 15.4079ZM4.17481 15.4076L4.40579 15.3119L4.40577 15.3119L4.17481 15.4076ZM4.17472 8.92544L3.94375 8.82977L3.94373 8.82981L4.17472 8.92544ZM4.17494 8.92492L3.944 8.82916L3.94397 8.82924L4.17494 8.92492ZM4.01231 8.10693L4.18901 7.93008L4.18899 7.93005L4.01231 8.10693ZM4.0121 8.10672L3.83535 8.28352L3.83543 8.2836L4.0121 8.10672ZM2.42455 6.51961L2.24766 6.69628L2.2478 6.69641L2.42455 6.51961ZM2.42445 6.51951L2.60133 6.34284L2.60123 6.34273L2.42445 6.51951ZM2.42485 4.61423L2.60162 4.79101C2.69923 4.69341 2.69926 4.53517 2.6017 4.43753C2.50414 4.33989 2.34591 4.33979 2.24822 4.4373L2.42485 4.61423ZM2.42445 4.61463L2.24767 4.43785C2.15004 4.53548 2.15004 4.69378 2.24767 4.79141L2.42445 4.61463ZM3.13156 5.32174L2.95478 5.49851C3.05235 5.59609 3.21053 5.59615 3.30819 5.49866C3.40584 5.40116 3.40604 5.24299 3.30862 5.14525L3.13156 5.32174ZM2.42561 4.61347L2.60268 4.43698C2.52745 4.36151 2.41265 4.34202 2.31673 4.38842C2.22081 4.43483 2.16484 4.53694 2.17733 4.64277L2.42561 4.61347ZM4.44684 2.59224L4.26982 2.41571C4.22299 2.46267 4.19674 2.5263 4.19684 2.59262C4.19695 2.65893 4.22339 2.72249 4.27036 2.7693L4.44684 2.59224ZM5.15511 3.29818L4.97862 3.47525C5.07636 3.57266 5.23454 3.57247 5.33203 3.47481C5.42953 3.37716 5.42946 3.21898 5.33189 3.1214L5.15511 3.29818ZM4.448 2.59107L4.62478 2.4143C4.52715 2.31667 4.36886 2.31667 4.27123 2.4143L4.448 2.59107ZM4.44761 2.59147L4.27083 2.4147L4.27066 2.41486L4.44761 2.59147ZM10.5689 -1.08337C9.1972 -1.08337 8.08333 0.030492 8.08333 1.40218H8.58333C8.58333 0.306635 9.47334 -0.583374 10.5689 -0.583374V-1.08337ZM13.4311 -1.08337H10.5689V-0.583374H13.4311V-1.08337ZM15.9167 1.40218C15.9167 0.030492 14.8028 -1.08337 13.4311 -1.08337V-0.583374C14.5267 -0.583374 15.4167 0.306635 15.4167 1.40218H15.9167ZM15.9167 3.31419V1.40218H15.4167V3.31419H15.9167ZM16.8414 1.78585L15.4899 3.13741L15.8434 3.49097L17.195 2.13941L16.8414 1.78585ZM20.3572 1.78585C19.403 0.831626 17.7978 0.829549 16.8414 1.78585L17.195 2.13941C17.9558 1.37863 19.2444 1.38018 20.0037 2.13941L20.3572 1.78585ZM22.3808 3.80941L20.3572 1.78585L20.0037 2.13941L22.0272 4.16296L22.3808 3.80941ZM22.3816 3.81027L22.381 3.8096L22.027 4.16277L22.0277 4.16345L22.3816 3.81027ZM23.1087 5.56751C23.1087 4.90583 22.8486 4.27813 22.3816 3.81025L22.0277 4.16347C22.4013 4.53771 22.6087 5.03842 22.6087 5.56751H23.1087ZM22.3808 7.32518C22.8489 6.85706 23.1087 6.2283 23.1087 5.56751H22.6087C22.6087 6.0959 22.4014 6.59742 22.0272 6.97162L22.3808 7.32518ZM22.3807 7.32528L22.3808 7.32518L22.0272 6.97162L22.0271 6.97172L22.3807 7.32528ZM21.0288 8.67676L22.3806 7.3253L22.0271 6.9717L20.6753 8.32316L21.0288 8.67676ZM22.7644 8.24996H20.8521V8.74996H22.7644V8.24996ZM25.25 10.7355C25.25 9.36383 24.1361 8.24996 22.7644 8.24996V8.74996C23.86 8.74996 24.75 9.63997 24.75 10.7355H25.25ZM25.25 13.5977V10.7355H24.75V13.5977H25.25ZM22.7644 16.0833C24.1361 16.0833 25.25 14.9694 25.25 13.5977H24.75C24.75 14.6933 23.86 15.5833 22.7644 15.5833V16.0833ZM20.8516 16.0833H22.7644V15.5833H20.8516V16.0833ZM22.3802 17.008L21.0284 15.6565L20.6749 16.0101L22.0267 17.3616L22.3802 17.008ZM22.381 17.0087L22.3802 17.008L22.0267 17.3615L22.0274 17.3623L22.381 17.0087ZM23.1082 18.7657C23.1082 18.1043 22.848 17.4766 22.3812 17.0089L22.0273 17.3621C22.4007 17.7363 22.6082 18.2369 22.6082 18.7657H23.1082ZM22.3803 20.5238C22.8486 20.0556 23.1082 19.4267 23.1082 18.7657H22.6082C22.6082 19.2944 22.4011 19.796 22.0268 20.1703L22.3803 20.5238ZM20.3568 22.5474L22.3803 20.5238L22.0268 20.1703L20.0032 22.1938L20.3568 22.5474ZM16.841 22.5474C17.7973 23.5037 19.4025 23.5016 20.3568 22.5474L20.0032 22.1938C19.244 22.9531 17.9553 22.9546 17.1946 22.1938L16.841 22.5474ZM16.8392 22.5456L16.8393 22.5457L17.1963 22.1956L17.1962 22.1955L16.8392 22.5456ZM15.4894 21.1954L16.8409 22.5473L17.1945 22.1938L15.843 20.8419L15.4894 21.1954ZM15.9162 22.9311V21.0187H15.4162V22.9311H15.9162ZM13.4307 25.4166C14.8024 25.4166 15.9162 24.3028 15.9162 22.9311H15.4162C15.4162 24.0266 14.5262 24.9166 13.4307 24.9166V25.4166ZM10.5689 25.4166H13.4307V24.9166H10.5689V25.4166ZM8.08333 22.9311C8.08333 24.3028 9.1972 25.4166 10.5689 25.4166V24.9166C9.47334 24.9166 8.58333 24.0266 8.58333 22.9311H8.08333ZM8.08333 21.0187V22.9311H8.58333V21.0187H8.08333ZM7.15891 22.547L8.51013 21.1954L8.15653 20.8419L6.80531 22.1935L7.15891 22.547ZM7.1597 22.5462L7.15994 22.546L6.80428 22.1946L6.80404 22.1948L7.1597 22.5462ZM3.64278 22.5474C4.59713 23.5017 6.20203 23.5045 7.15871 22.5472L6.80504 22.1938C6.04405 22.9553 4.75581 22.9533 3.99634 22.1938L3.64278 22.5474ZM1.61923 20.5238L3.64278 22.5474L3.99634 22.1938L1.97278 20.1703L1.61923 20.5238ZM1.61845 20.5231L1.61912 20.5237L1.97289 20.1704L1.97222 20.1697L1.61845 20.5231ZM0.891333 18.7657C0.891333 19.4274 1.1514 20.0551 1.61839 20.523L1.97228 20.1698C1.59875 19.7955 1.39133 19.2948 1.39133 18.7657H0.891333ZM1.61923 17.0081C1.15111 17.4762 0.891333 18.1049 0.891333 18.7657H1.39133C1.39133 18.2374 1.59858 17.7358 1.97278 17.3616L1.61923 17.0081ZM1.62073 17.0066L1.62063 17.0067L1.97138 17.363L1.97148 17.3629L1.62073 17.0066ZM2.97119 15.6565L1.61935 17.008L1.97286 17.3616L3.32469 16.0101L2.97119 15.6565ZM1.23556 16.0833H3.14794V15.5833H1.23556V16.0833ZM-1.25 13.5973C-1.25 14.9691 -0.136434 16.0833 1.23556 16.0833V15.5833C0.139841 15.5833 -0.75 14.6931 -0.75 13.5973H-1.25ZM-1.25 10.7355V13.5973H-0.75V10.7355H-1.25ZM1.23556 8.24996C-0.136134 8.24996 -1.25 9.36383 -1.25 10.7355H-0.75C-0.75 9.63997 0.140009 8.74996 1.23556 8.74996V8.24996ZM3.14794 8.24996H1.23556V8.74996H3.14794V8.24996ZM1.61935 7.3253L2.97119 8.67676L3.32469 8.32316L1.97286 6.9717L1.61935 7.3253ZM1.6185 7.32445L1.61927 7.32522L1.97293 6.97178L1.97216 6.971L1.6185 7.32445ZM0.891333 5.56751C0.891333 6.22899 1.15157 6.85662 1.61839 7.32434L1.97228 6.97112C1.59885 6.59698 1.39133 6.09631 1.39133 5.56751H0.891333ZM1.61923 3.80941C1.15094 4.27769 0.891333 4.90652 0.891333 5.56751H1.39133C1.39133 5.03883 1.59848 4.53726 1.97278 4.16296L1.61923 3.80941ZM3.64278 1.78585L1.61923 3.80941L1.97278 4.16296L3.99634 2.13941L3.64278 1.78585ZM7.15855 1.78585C6.20225 0.829549 4.59701 0.831626 3.64278 1.78585L3.99634 2.13941C4.75557 1.38018 6.04422 1.37863 6.805 2.13941L7.15855 1.78585ZM8.51011 3.13741L7.15855 1.78585L6.805 2.13941L8.15656 3.49097L8.51011 3.13741ZM8.08333 1.40218V3.31419H8.58333V1.40218H8.08333ZM10.5833 1.40218C10.5833 1.40771 10.5809 1.41138 10.5795 1.41279C10.5781 1.41419 10.5744 1.41663 10.5689 1.41663V0.916626C10.3018 0.916626 10.0833 1.13506 10.0833 1.40218H10.5833ZM10.5833 3.64751V1.40218H10.0833V3.64751H10.5833ZM9.28181 5.59793C10.0809 5.26582 10.5833 4.51336 10.5833 3.64751H10.0833C10.0833 4.31128 9.7025 4.88162 9.08992 5.13622L9.28181 5.59793ZM6.97867 5.1415C7.5869 5.74868 8.47596 5.93436 9.28218 5.59777L9.08955 5.13637C8.47311 5.39373 7.79896 5.25388 7.33191 4.78764L6.97867 5.1415ZM6.97796 5.1408L6.97858 5.14142L7.332 4.78773L7.33138 4.78711L6.97796 5.1408ZM5.39078 3.55362L6.97789 5.14073L7.33145 4.78718L5.74434 3.20007L5.39078 3.55362ZM5.40077 3.5694C5.41176 3.5694 5.41553 3.57136 5.41362 3.5706C5.41282 3.57028 5.41053 3.56929 5.40698 3.56701C5.40365 3.56487 5.39791 3.56075 5.39078 3.55362L5.74434 3.20007C5.66739 3.12313 5.5458 3.06935 5.40059 3.0694L5.40077 3.5694ZM5.41055 3.55362C5.40331 3.56086 5.39751 3.56501 5.39421 3.56713C5.39068 3.5694 5.38842 3.57037 5.38769 3.57066C5.3859 3.57138 5.38976 3.56941 5.40077 3.5694L5.40059 3.0694C5.2553 3.06945 5.13368 3.12338 5.057 3.20007L5.41055 3.55362ZM3.38699 5.57718L5.41055 3.55362L5.057 3.20007L3.03344 5.22362L3.38699 5.57718ZM3.39133 5.56751C3.39133 5.56516 3.39162 5.56746 3.38976 5.57197C3.38789 5.57648 3.38591 5.57826 3.387 5.57718L3.03344 5.22362C2.9411 5.31596 2.89133 5.43572 2.89133 5.56751H3.39133ZM3.38781 5.55823C3.38598 5.55639 3.38779 5.55774 3.38966 5.56226C3.39153 5.56678 3.39133 5.56934 3.39133 5.56751H2.89133C2.89133 5.69802 2.94052 5.81766 3.03354 5.91106L3.38781 5.55823ZM3.38796 5.55838L3.38805 5.55847L3.03331 5.91083L3.03382 5.91134L3.38796 5.55838ZM4.97443 7.1444L3.38764 5.55806L3.03414 5.91166L4.62092 7.498L4.97443 7.1444ZM4.97517 7.14514L4.97445 7.14442L4.6209 7.49797L4.62161 7.49869L4.97517 7.14514ZM5.43254 9.44545C5.76304 8.64584 5.58687 7.75791 4.97532 7.14529L4.62146 7.49854C5.09025 7.96815 5.22387 8.64135 4.97046 9.25445L5.43254 9.44545ZM3.48089 10.75C4.34633 10.75 5.10099 10.2476 5.43254 9.44545L4.97046 9.25445C4.71643 9.86904 4.14454 10.25 3.48089 10.25V10.75ZM1.23556 10.75H3.48089V10.25H1.23556V10.75ZM1.25 10.7355C1.25 10.741 1.24757 10.7447 1.24616 10.7461C1.24476 10.7475 1.24109 10.75 1.23556 10.75V10.25C0.968436 10.25 0.75 10.4684 0.75 10.7355H1.25ZM1.25 13.5973V10.7355H0.75V13.5973H1.25ZM1.23556 13.5833C1.24114 13.5833 1.24482 13.5857 1.24624 13.5872C1.24773 13.5886 1.25 13.5922 1.25 13.5973H0.75C0.75 13.8651 0.968686 14.0833 1.23556 14.0833V13.5833ZM3.48089 13.5833H1.23556V14.0833H3.48089V13.5833ZM5.432 14.8865C5.10025 14.0865 4.34735 13.5833 3.48089 13.5833V14.0833C4.14512 14.0833 4.71579 14.4647 4.97013 15.078L5.432 14.8865ZM4.97532 17.188C5.58594 16.5763 5.76438 15.688 5.432 14.8865L4.97013 15.078C5.22483 15.6922 5.08973 16.3656 4.62146 16.8347L4.97532 17.188ZM4.97445 17.1888L4.97517 17.1881L4.62161 16.8346L4.6209 16.8353L4.97445 17.1888ZM3.38697 18.7759L4.97443 17.1889L4.62092 16.8353L3.03347 18.4223L3.38697 18.7759ZM3.39133 18.7657C3.39133 18.7638 3.39155 18.7663 3.3897 18.7707C3.38784 18.7752 3.38589 18.7769 3.38699 18.7758L3.03344 18.4223C2.94099 18.5147 2.89133 18.6345 2.89133 18.7657H3.39133ZM3.3878 18.7569C3.386 18.7551 3.38784 18.7565 3.38972 18.761C3.3916 18.7656 3.39133 18.768 3.39133 18.7657H2.89133C2.89133 18.8968 2.94057 19.0163 3.0334 19.1096L3.3878 18.7569ZM3.38767 18.7567L3.3876 18.7567L3.03361 19.1098C3.03368 19.1099 3.03389 19.1101 3.03411 19.1103L3.38767 18.7567ZM5.41055 20.7796L3.38767 18.7567L3.03411 19.1103L5.057 21.1332L5.41055 20.7796ZM5.40093 20.7642C5.39018 20.7642 5.38641 20.7623 5.38818 20.763C5.38891 20.7632 5.39113 20.7642 5.39459 20.7664C5.39784 20.7685 5.4035 20.7726 5.41055 20.7796L5.057 21.1332C5.13412 21.2103 5.25586 21.2641 5.40076 21.2642L5.40093 20.7642ZM5.39037 20.7801C5.39741 20.773 5.4031 20.7689 5.40645 20.7667C5.41001 20.7644 5.41235 20.7634 5.41322 20.7631C5.41527 20.7623 5.41169 20.7642 5.40094 20.7642L5.40076 21.2642C5.5456 21.2642 5.66703 21.2106 5.74408 21.1334L5.39037 20.7801ZM5.39015 20.7803L5.38992 20.7805L5.74453 21.133L5.74477 21.1328L5.39015 20.7803ZM6.97777 19.1922L5.39066 20.7798L5.74426 21.1333L7.33137 19.5457L6.97777 19.1922ZM6.97857 19.1914L6.97785 19.1921L7.33129 19.5458L7.33201 19.5451L6.97857 19.1914ZM9.27959 18.7344C8.47801 18.4025 7.59044 18.5806 6.97867 19.1913L7.33191 19.5452C7.80104 19.0769 8.47386 18.9419 9.08829 19.1964L9.27959 18.7344ZM9.28053 18.7348L9.28009 18.7346L9.08778 19.1961L9.08822 19.1963L9.28053 18.7348ZM10.5833 20.6857C10.5833 19.8193 10.0802 19.0664 9.28013 18.7346L9.08861 19.1965C9.70197 19.4508 10.0833 20.0215 10.0833 20.6857H10.5833ZM10.5833 22.9311V20.6857H10.0833V22.9311H10.5833ZM10.5689 22.9166C10.5744 22.9166 10.5781 22.9191 10.5795 22.9205C10.5809 22.9219 10.5833 22.9255 10.5833 22.9311H10.0833C10.0833 23.1982 10.3018 23.4166 10.5689 23.4166V22.9166ZM13.4307 22.9166H10.5689V23.4166H13.4307V22.9166ZM13.4162 22.9311C13.4162 22.9255 13.4187 22.9219 13.4201 22.9205C13.4215 22.9191 13.4251 22.9166 13.4307 22.9166V23.4166C13.6978 23.4166 13.9162 23.1982 13.9162 22.9311H13.4162ZM13.4162 20.6857V22.9311H13.9162V20.6857H13.4162ZM14.7187 18.7349C13.9191 19.0668 13.4162 19.8195 13.4162 20.6857H13.9162C13.9162 20.0217 14.2974 19.4512 14.9104 19.1967L14.7187 18.7349ZM17.0209 19.1913C16.41 18.5815 15.5222 18.4011 14.7187 18.7349L14.9105 19.1967C15.526 18.941 16.199 19.0774 16.6676 19.5452L17.0209 19.1913ZM17.0218 19.1922L17.021 19.1915L16.6675 19.545L16.6682 19.5457L17.0218 19.1922ZM18.6088 20.7797L17.0218 19.1922L16.6682 19.5457L18.2552 21.1332L18.6088 20.7797ZM18.5988 20.7638C18.5878 20.7639 18.584 20.7619 18.5859 20.7627C18.5867 20.763 18.589 20.764 18.5926 20.7662C18.5959 20.7684 18.6017 20.7725 18.6088 20.7796L18.2552 21.1332C18.3322 21.2101 18.4538 21.2639 18.599 21.2638L18.5988 20.7638ZM18.589 20.7796C18.5962 20.7724 18.602 20.7682 18.6053 20.7661C18.6089 20.7639 18.6111 20.7629 18.6119 20.7626C18.6137 20.7619 18.6098 20.7638 18.5988 20.7638L18.599 21.2638C18.7443 21.2638 18.8659 21.2099 18.9426 21.1332L18.589 20.7796ZM20.6126 18.7561L18.589 20.7796L18.9426 21.1332L20.9661 19.1096L20.6126 18.7561ZM20.6082 18.7657C20.6082 18.7681 20.6079 18.7658 20.6098 18.7613C20.6117 18.7568 20.6136 18.755 20.6126 18.7561L20.9661 19.1096C21.0585 19.0173 21.1082 18.8975 21.1082 18.7657H20.6082ZM20.6117 18.775C20.6136 18.7769 20.6118 18.7755 20.6099 18.771C20.608 18.7665 20.6082 18.7639 20.6082 18.7657H21.1082C21.1082 18.6351 21.0589 18.5154 20.9658 18.4219L20.6117 18.775ZM20.6119 18.7752C20.6128 18.7761 20.6136 18.7768 20.6138 18.7771C20.6144 18.7776 20.6136 18.7769 20.6134 18.7767C20.6127 18.776 20.6097 18.773 20.606 18.7691L20.9715 18.4279C20.9678 18.4239 20.9648 18.4209 20.964 18.4202C20.9638 18.42 20.963 18.4192 20.9636 18.4198C20.9638 18.42 20.9645 18.4207 20.9654 18.4216L20.6119 18.7752ZM19.0251 17.1889L20.6119 18.7752L20.9654 18.4216L19.3786 16.8353L19.0251 17.1889ZM19.0244 17.1881L19.0251 17.1888L19.3787 16.8353L19.3779 16.8346L19.0244 17.1881ZM18.567 14.8878C18.2365 15.6874 18.4127 16.5753 19.0242 17.188L19.3781 16.8347C18.9093 16.3651 18.7757 15.6919 19.0291 15.0788L18.567 14.8878ZM20.5191 13.5833C19.6544 13.5833 18.8989 14.0849 18.567 14.8878L19.0291 15.0788C19.2833 14.4638 19.8559 14.0833 20.5191 14.0833V13.5833ZM22.7644 13.5833H20.5191V14.0833H22.7644V13.5833ZM22.75 13.5977C22.75 13.5922 22.7524 13.5885 22.7538 13.5871C22.7552 13.5857 22.7589 13.5833 22.7644 13.5833V14.0833C23.0316 14.0833 23.25 13.8649 23.25 13.5977H22.75ZM22.75 10.7355V13.5977H23.25V10.7355H22.75ZM22.7644 10.75C22.7589 10.75 22.7552 10.7475 22.7538 10.7461C22.7524 10.7447 22.75 10.741 22.75 10.7355H23.25C23.25 10.4684 23.0316 10.25 22.7644 10.25V10.75ZM20.5191 10.75H22.7644V10.25H20.5191V10.75ZM18.568 9.44676C18.8997 10.2468 19.6527 10.75 20.5191 10.75V10.25C19.8549 10.25 19.2842 9.8686 19.0299 9.25524L18.568 9.44676ZM19.0247 7.14529C18.4141 7.75697 18.2356 8.6452 18.568 9.44676L19.0299 9.25524C18.7752 8.64101 18.9103 7.96762 19.3785 7.49854L19.0247 7.14529ZM19.0255 7.14448L19.0248 7.1452L19.3784 7.49863L19.3792 7.49792L19.0255 7.14448ZM20.613 5.55738L19.0256 7.1444L19.3791 7.498L20.9665 5.91099L20.613 5.55738ZM20.6118 5.55861L20.6117 5.5587L20.9678 5.90967L20.9679 5.90957L20.6118 5.55861ZM20.6087 5.56751C20.6087 5.56944 20.6084 5.56701 20.6103 5.56253C20.6122 5.55805 20.6141 5.55631 20.613 5.5574L20.9667 5.91077C21.0591 5.81834 21.1087 5.6986 21.1087 5.56751H20.6087ZM20.6122 5.57637C20.614 5.57817 20.6122 5.57677 20.6103 5.57223C20.6084 5.56768 20.6087 5.56526 20.6087 5.56751H21.1087C21.1087 5.43658 21.0595 5.3171 20.9668 5.22383L20.6122 5.57637ZM20.612 5.57616L20.6124 5.57654L20.9666 5.22366L20.9662 5.22329L20.612 5.57616ZM18.5894 3.55362L20.6123 5.5765L20.9659 5.22295L18.943 3.20007L18.5894 3.55362ZM18.5992 3.5694C18.6102 3.56941 18.6141 3.57138 18.6123 3.57066C18.6116 3.57037 18.6093 3.5694 18.6058 3.56713C18.6025 3.56501 18.5967 3.56086 18.5894 3.55362L18.943 3.20007C18.8663 3.12338 18.7447 3.06945 18.5994 3.0694L18.5992 3.5694ZM18.6092 3.55362C18.6021 3.56075 18.5964 3.56487 18.593 3.56701C18.5895 3.56929 18.5872 3.57028 18.5864 3.5706C18.5845 3.57136 18.5882 3.5694 18.5992 3.5694L18.5994 3.0694C18.4542 3.06935 18.3326 3.12312 18.2557 3.20007L18.6092 3.55362ZM17.0221 5.14073L18.6092 3.55362L18.2557 3.20007L16.6686 4.78718L17.0221 5.14073ZM17.0215 5.14135L17.0221 5.14073L16.6686 4.78718L16.6679 4.78779L17.0215 5.14135ZM14.7184 5.59801C15.5229 5.93314 16.412 5.74981 17.0213 5.1415L16.6681 4.78764C16.2004 5.25455 15.5261 5.39285 14.9107 5.13646L14.7184 5.59801ZM13.4167 3.64751C13.4167 4.51352 13.9193 5.26609 14.7186 5.59811L14.9104 5.13636C14.2976 4.88182 13.9167 4.3114 13.9167 3.64751H13.4167ZM13.4167 1.40218V3.64751H13.9167V1.40218H13.4167ZM13.4311 1.41663C13.4256 1.41663 13.4219 1.41419 13.4205 1.41279C13.4191 1.41138 13.4167 1.40771 13.4167 1.40218H13.9167C13.9167 1.13506 13.6982 0.916626 13.4311 0.916626V1.41663ZM10.5689 1.41663H13.4311V0.916626H10.5689V1.41663ZM11.4722 3.64751V2.05551H10.9722V3.64751H11.4722ZM9.61949 6.41978C10.7539 5.95057 11.4722 4.87431 11.4722 3.64751H10.9722C10.9722 4.67226 10.3756 5.56597 9.42839 5.95774L9.61949 6.41978ZM6.34901 5.76918C7.21593 6.6361 8.48454 6.88978 9.61959 6.41974L9.42829 5.95778C8.48024 6.35038 7.42663 6.13969 6.70256 5.41562L6.34901 5.76918ZM5.22367 4.64384L6.34901 5.76918L6.70256 5.41562L5.57722 4.29029L5.22367 4.64384ZM4.47728 5.74378L5.57722 4.64384L5.22367 4.29029L4.12372 5.39023L4.47728 5.74378ZM5.60266 6.5153L4.47725 5.3902L4.12375 5.74381L5.24916 6.8689L5.60266 6.5153ZM5.6029 6.51553C5.6029 6.51553 5.6029 6.51553 5.6029 6.51553C5.6029 6.51553 5.60289 6.51553 5.60289 6.51553L5.60289 6.51553C5.60289 6.51553 5.60289 6.51553 5.60289 6.51553C5.60289 6.51553 5.60289 6.51553 5.60289 6.51553C5.60289 6.51553 5.60289 6.51553 5.60289 6.51553C5.60289 6.51553 5.60289 6.51553 5.60289 6.51553C5.60289 6.51553 5.60289 6.51553 5.60289 6.51553C5.60289 6.51553 5.60289 6.51553 5.60289 6.51553L5.60289 6.51553C5.60289 6.51553 5.60289 6.51553 5.60289 6.51553C5.60289 6.51553 5.60289 6.51553 5.60289 6.51553C5.60289 6.51553 5.60289 6.51553 5.60289 6.51553C5.60289 6.51553 5.60289 6.51553 5.60289 6.51553C5.60289 6.51553 5.60289 6.51553 5.60289 6.51553C5.60289 6.51553 5.60289 6.51553 5.60289 6.51553L5.60289 6.51553C5.60289 6.51553 5.60289 6.51552 5.60289 6.51552C5.60289 6.51552 5.60289 6.51552 5.60289 6.51552C5.60289 6.51552 5.60289 6.51552 5.60289 6.51552C5.60289 6.51552 5.60289 6.51552 5.60289 6.51552C5.60289 6.51552 5.60289 6.51552 5.60289 6.51552C5.60289 6.51552 5.60289 6.51552 5.60289 6.51552L5.60289 6.51552C5.60289 6.51552 5.60289 6.51552 5.60289 6.51552C5.60289 6.51552 5.60289 6.51552 5.60288 6.51552C5.60288 6.51552 5.60288 6.51552 5.60288 6.51552C5.60288 6.51552 5.60288 6.51552 5.60288 6.51552C5.60288 6.51552 5.60288 6.51552 5.60288 6.51552C5.60288 6.51552 5.60288 6.51552 5.60288 6.51552L5.60288 6.51552C5.60288 6.51552 5.60288 6.51552 5.60288 6.51552C5.60288 6.51552 5.60288 6.51552 5.60288 6.51552C5.60288 6.51552 5.60288 6.51552 5.60288 6.51552C5.60288 6.51552 5.60288 6.51552 5.60288 6.51552C5.60288 6.51552 5.60288 6.51552 5.60288 6.51552C5.60288 6.51552 5.60288 6.51552 5.60288 6.51552C5.60288 6.51552 5.60288 6.51552 5.60288 6.51552C5.60288 6.51552 5.60288 6.51552 5.60288 6.51552C5.60288 6.51552 5.60288 6.51552 5.60288 6.51552C5.60288 6.51552 5.60288 6.51552 5.60288 6.51552C5.60288 6.51552 5.60288 6.51552 5.60288 6.51552C5.60288 6.51551 5.60288 6.51551 5.60288 6.51551C5.60288 6.51551 5.60288 6.51551 5.60288 6.51551C5.60288 6.51551 5.60288 6.51551 5.60288 6.51551C5.60288 6.51551 5.60288 6.51551 5.60288 6.51551C5.60288 6.51551 5.60288 6.51551 5.60288 6.51551C5.60288 6.51551 5.60288 6.51551 5.60288 6.51551C5.60288 6.51551 5.60288 6.51551 5.60288 6.51551C5.60288 6.51551 5.60288 6.51551 5.60288 6.51551C5.60288 6.51551 5.60287 6.51551 5.60287 6.51551C5.60287 6.51551 5.60287 6.51551 5.60287 6.51551C5.60287 6.51551 5.60287 6.51551 5.60287 6.51551C5.60287 6.51551 5.60287 6.51551 5.60287 6.51551C5.60287 6.51551 5.60287 6.51551 5.60287 6.51551C5.60287 6.51551 5.60287 6.51551 5.60287 6.51551C5.60287 6.51551 5.60287 6.51551 5.60287 6.51551C5.60287 6.51551 5.60287 6.51551 5.60287 6.51551C5.60287 6.51551 5.60287 6.51551 5.60287 6.51551C5.60287 6.51551 5.60287 6.51551 5.60287 6.51551C5.60287 6.51551 5.60287 6.51551 5.60287 6.51551C5.60287 6.51551 5.60287 6.51551 5.60287 6.51551C5.60287 6.51551 5.60287 6.51551 5.60287 6.51551C5.60287 6.51551 5.60287 6.51551 5.60287 6.51551C5.60287 6.51551 5.60287 6.51551 5.60287 6.51551C5.60287 6.51551 5.60287 6.51551 5.60287 6.51551C5.60287 6.51551 5.60287 6.5155 5.60287 6.5155C5.60287 6.5155 5.60287 6.5155 5.60287 6.5155C5.60287 6.5155 5.60287 6.5155 5.60287 6.5155C5.60287 6.5155 5.60287 6.5155 5.60287 6.5155C5.60287 6.5155 5.60287 6.5155 5.60287 6.5155L5.60287 6.5155C5.60287 6.5155 5.60287 6.5155 5.60287 6.5155C5.60287 6.5155 5.60287 6.5155 5.60287 6.5155C5.60287 6.5155 5.60287 6.5155 5.60287 6.5155C5.60286 6.5155 5.60286 6.5155 5.60286 6.5155C5.60286 6.5155 5.60286 6.5155 5.60286 6.5155C5.60286 6.5155 5.60286 6.5155 5.60286 6.5155L5.60286 6.5155C5.60286 6.5155 5.60286 6.5155 5.60286 6.5155C5.60286 6.5155 5.60286 6.5155 5.60286 6.5155C5.60286 6.5155 5.60286 6.5155 5.60286 6.5155C5.60286 6.5155 5.60286 6.5155 5.60286 6.5155C5.60286 6.5155 5.60286 6.5155 5.60286 6.5155C5.60286 6.5155 5.60286 6.5155 5.60286 6.5155L5.60286 6.5155C5.60286 6.5155 5.60286 6.5155 5.60286 6.5155C5.60286 6.5155 5.60286 6.5155 5.60286 6.5155C5.60286 6.5155 5.60286 6.5155 5.60286 6.5155C5.60286 6.5155 5.60286 6.5155 5.60286 6.5155C5.60286 6.5155 5.60286 6.5155 5.60286 6.5155C5.60286 6.51549 5.60286 6.51549 5.60286 6.51549L5.60286 6.51549C5.60286 6.51549 5.60286 6.51549 5.60286 6.51549C5.60286 6.51549 5.60286 6.51549 5.60286 6.51549C5.60286 6.51549 5.60286 6.51549 5.60286 6.51549C5.60286 6.51549 5.60286 6.51549 5.60286 6.51549C5.60286 6.51549 5.60286 6.51549 5.60286 6.51549C5.60286 6.51549 5.60286 6.51549 5.60286 6.51549L5.60285 6.51549C5.60285 6.51549 5.60285 6.51549 5.60285 6.51549C5.60285 6.51549 5.60285 6.51549 5.60285 6.51549C5.60285 6.51549 5.60285 6.51549 5.60285 6.51549C5.60285 6.51549 5.60285 6.51549 5.60285 6.51549C5.60285 6.51549 5.60285 6.51549 5.60285 6.51549C5.60285 6.51549 5.60285 6.51549 5.60285 6.51549L5.60285 6.51549C5.60285 6.51549 5.60285 6.51549 5.60285 6.51549C5.60285 6.51549 5.60285 6.51549 5.60285 6.51549C5.60285 6.51549 5.60285 6.51549 5.60285 6.51549C5.60285 6.51549 5.60285 6.51549 5.60285 6.51549C5.60285 6.51549 5.60285 6.51549 5.60285 6.51549C5.60285 6.51549 5.60285 6.51549 5.60285 6.51549L5.60285 6.51549C5.60285 6.51549 5.60285 6.51549 5.60285 6.51549C5.60285 6.51549 5.60285 6.51549 5.60285 6.51548C5.60285 6.51548 5.60285 6.51548 5.60285 6.51548C5.60285 6.51548 5.60285 6.51548 5.60285 6.51548C5.60285 6.51548 5.60285 6.51548 5.60285 6.51548C5.60285 6.51548 5.60285 6.51548 5.60285 6.51548L5.60285 6.51548C5.60285 6.51548 5.60285 6.51548 5.60285 6.51548C5.60285 6.51548 5.60285 6.51548 5.60285 6.51548C5.60285 6.51548 5.60285 6.51548 5.60285 6.51548C5.60284 6.51548 5.60284 6.51548 5.60284 6.51548C5.60284 6.51548 5.60284 6.51548 5.60284 6.51548C5.60284 6.51548 5.60284 6.51548 5.60284 6.51548C5.60284 6.51548 5.60284 6.51548 5.60284 6.51548C5.60284 6.51548 5.60284 6.51548 5.60284 6.51548C5.60284 6.51548 5.60284 6.51548 5.60284 6.51548C5.60284 6.51548 5.60284 6.51548 5.60284 6.51548C5.60284 6.51548 5.60284 6.51548 5.60284 6.51548C5.60284 6.51548 5.60284 6.51548 5.60284 6.51548C5.60284 6.51548 5.60284 6.51548 5.60284 6.51548C5.60284 6.51548 5.60284 6.51548 5.60284 6.51548C5.60284 6.51548 5.60284 6.51548 5.60284 6.51548C5.60284 6.51548 5.60284 6.51548 5.60284 6.51548C5.60284 6.51548 5.60284 6.51548 5.60284 6.51548C5.60284 6.51548 5.60284 6.51548 5.60284 6.51548C5.60284 6.51548 5.60284 6.51548 5.60284 6.51548C5.60284 6.51547 5.60284 6.51547 5.60284 6.51547C5.60284 6.51547 5.60284 6.51547 5.60284 6.51547C5.60284 6.51547 5.60284 6.51547 5.60284 6.51547C5.60284 6.51547 5.60284 6.51547 5.60284 6.51547C5.60284 6.51547 5.60284 6.51547 5.60284 6.51547C5.60284 6.51547 5.60284 6.51547 5.60284 6.51547C5.60284 6.51547 5.60284 6.51547 5.60284 6.51547C5.60284 6.51547 5.60284 6.51547 5.60284 6.51547C5.60284 6.51547 5.60284 6.51547 5.60283 6.51547C5.60283 6.51547 5.60283 6.51547 5.60283 6.51547C5.60283 6.51547 5.60283 6.51547 5.60283 6.51547C5.60283 6.51547 5.60283 6.51547 5.60283 6.51547C5.60283 6.51547 5.60283 6.51547 5.60283 6.51547C5.60283 6.51547 5.60283 6.51547 5.60283 6.51547C5.60283 6.51547 5.60283 6.51547 5.60283 6.51547C5.60283 6.51547 5.60283 6.51547 5.60283 6.51547C5.60283 6.51547 5.60283 6.51547 5.60283 6.51547C5.60283 6.51547 5.60283 6.51547 5.60283 6.51547C5.60283 6.51547 5.60283 6.51547 5.60283 6.51547C5.60283 6.51547 5.60283 6.51547 5.60283 6.51547C5.60283 6.51547 5.60283 6.51547 5.60283 6.51547L5.60283 6.51547C5.60283 6.51547 5.60283 6.51547 5.60283 6.51547C5.60283 6.51547 5.60283 6.51547 5.60283 6.51547C5.60283 6.51547 5.60283 6.51547 5.60283 6.51546C5.60283 6.51546 5.60283 6.51546 5.60283 6.51546C5.60283 6.51546 5.60283 6.51546 5.60283 6.51546C5.60283 6.51546 5.60283 6.51546 5.60283 6.51546L5.60283 6.51546C5.60283 6.51546 5.60283 6.51546 5.60283 6.51546C5.60283 6.51546 5.60283 6.51546 5.60283 6.51546C5.60283 6.51546 5.60283 6.51546 5.60283 6.51546C5.60283 6.51546 5.60283 6.51546 5.60283 6.51546C5.60282 6.51546 5.60282 6.51546 5.60282 6.51546C5.60282 6.51546 5.60282 6.51546 5.60282 6.51546L5.60282 6.51546C5.60282 6.51546 5.60282 6.51546 5.60282 6.51546C5.60282 6.51546 5.60282 6.51546 5.60282 6.51546C5.60282 6.51546 5.60282 6.51546 5.60282 6.51546C5.60282 6.51546 5.60282 6.51546 5.60282 6.51546C5.60282 6.51546 5.60282 6.51546 5.60282 6.51546C5.60282 6.51546 5.60282 6.51546 5.60282 6.51546L5.60282 6.51546C5.60282 6.51546 5.60282 6.51546 5.60282 6.51546C5.60282 6.51546 5.60282 6.51546 5.60282 6.51546C5.60282 6.51546 5.60282 6.51546 5.60282 6.51546C5.60282 6.51546 5.60282 6.51546 5.60282 6.51546C5.60282 6.51546 5.60282 6.51546 5.60282 6.51546C5.60282 6.51546 5.60282 6.51546 5.60282 6.51546L5.60282 6.51545C5.60282 6.51545 5.60282 6.51545 5.60282 6.51545C5.60282 6.51545 5.60282 6.51545 5.60282 6.51545C5.60282 6.51545 5.60282 6.51545 5.60282 6.51545C5.60282 6.51545 5.60282 6.51545 5.60282 6.51545C5.60282 6.51545 5.60282 6.51545 5.60282 6.51545C5.60282 6.51545 5.60282 6.51545 5.60282 6.51545L5.60282 6.51545C5.60282 6.51545 5.60282 6.51545 5.60281 6.51545C5.60281 6.51545 5.60281 6.51545 5.60281 6.51545C5.60281 6.51545 5.60281 6.51545 5.60281 6.51545C5.60281 6.51545 5.60281 6.51545 5.60281 6.51545C5.60281 6.51545 5.60281 6.51545 5.60281 6.51545C5.60281 6.51545 5.60281 6.51545 5.60281 6.51545L5.60281 6.51545C5.60281 6.51545 5.60281 6.51545 5.60281 6.51545C5.60281 6.51545 5.60281 6.51545 5.60281 6.51545C5.60281 6.51545 5.60281 6.51545 5.60281 6.51545C5.60281 6.51545 5.60281 6.51545 5.60281 6.51545C5.60281 6.51545 5.60281 6.51545 5.60281 6.51545C5.60281 6.51545 5.60281 6.51545 5.60281 6.51545C5.60281 6.51545 5.60281 6.51545 5.60281 6.51545C5.60281 6.51545 5.60281 6.51545 5.60281 6.51545C5.60281 6.51545 5.60281 6.51545 5.60281 6.51545C5.60281 6.51545 5.60281 6.51545 5.60281 6.51544C5.60281 6.51544 5.60281 6.51544 5.60281 6.51544C5.60281 6.51544 5.60281 6.51544 5.60281 6.51544C5.60281 6.51544 5.60281 6.51544 5.60281 6.51544C5.60281 6.51544 5.60281 6.51544 5.60281 6.51544C5.60281 6.51544 5.60281 6.51544 5.60281 6.51544C5.60281 6.51544 5.60281 6.51544 5.60281 6.51544C5.60281 6.51544 5.60281 6.51544 5.60281 6.51544C5.60281 6.51544 5.60281 6.51544 5.60281 6.51544C5.60281 6.51544 5.6028 6.51544 5.6028 6.51544C5.6028 6.51544 5.6028 6.51544 5.6028 6.51544C5.6028 6.51544 5.6028 6.51544 5.6028 6.51544C5.6028 6.51544 5.6028 6.51544 5.6028 6.51544C5.6028 6.51544 5.6028 6.51544 5.6028 6.51544C5.6028 6.51544 5.6028 6.51544 5.6028 6.51544C5.6028 6.51544 5.6028 6.51544 5.6028 6.51544C5.6028 6.51544 5.6028 6.51544 5.6028 6.51544C5.6028 6.51544 5.6028 6.51544 5.6028 6.51544C5.6028 6.51544 5.6028 6.51544 5.6028 6.51544C5.6028 6.51544 5.6028 6.51544 5.6028 6.51544C5.6028 6.51544 5.6028 6.51544 5.6028 6.51544C5.6028 6.51544 5.6028 6.51544 5.6028 6.51544C5.6028 6.51544 5.6028 6.51544 5.6028 6.51544C5.6028 6.51544 5.6028 6.51544 5.6028 6.51544C5.6028 6.51544 5.6028 6.51544 5.6028 6.51544C5.6028 6.51544 5.6028 6.51543 5.6028 6.51543C5.6028 6.51543 5.6028 6.51543 5.6028 6.51543C5.6028 6.51543 5.6028 6.51543 5.6028 6.51543C5.6028 6.51543 5.6028 6.51543 5.6028 6.51543C5.6028 6.51543 5.6028 6.51543 5.6028 6.51543C5.6028 6.51543 5.6028 6.51543 5.6028 6.51543L5.6028 6.51543C5.6028 6.51543 5.6028 6.51543 5.6028 6.51543C5.6028 6.51543 5.6028 6.51543 5.60279 6.51543C5.60279 6.51543 5.60279 6.51543 5.60279 6.51543C5.60279 6.51543 5.60279 6.51543 5.60279 6.51543C5.60279 6.51543 5.60279 6.51543 5.60279 6.51543C5.60279 6.51543 5.60279 6.51543 5.60279 6.51543L5.60279 6.51543C5.60279 6.51543 5.60279 6.51543 5.60279 6.51543C5.60279 6.51543 5.60279 6.51543 5.60279 6.51543C5.60279 6.51543 5.60279 6.51543 5.60279 6.51543C5.60279 6.51543 5.60279 6.51543 5.60279 6.51543C5.60279 6.51543 5.60279 6.51543 5.60279 6.51543C5.60279 6.51543 5.60279 6.51543 5.60279 6.51543L5.60279 6.51543C5.60279 6.51543 5.60279 6.51543 5.60279 6.51543C5.60279 6.51543 5.60279 6.51543 5.60279 6.51543C5.60279 6.51543 5.60279 6.51543 5.60279 6.51543C5.60279 6.51543 5.60279 6.51543 5.60279 6.51543C5.60279 6.51542 5.60279 6.51542 5.60279 6.51542C5.60279 6.51542 5.60279 6.51542 5.60279 6.51542L5.60279 6.51542C5.60279 6.51542 5.60279 6.51542 5.60279 6.51542C5.60279 6.51542 5.60279 6.51542 5.60279 6.51542C5.60279 6.51542 5.60279 6.51542 5.60279 6.51542C5.60279 6.51542 5.60279 6.51542 5.60279 6.51542C5.60279 6.51542 5.60279 6.51542 5.60279 6.51542C5.60279 6.51542 5.60278 6.51542 5.60278 6.51542L5.60278 6.51542C5.60278 6.51542 5.60278 6.51542 5.60278 6.51542C5.60278 6.51542 5.60278 6.51542 5.60278 6.51542C5.60278 6.51542 5.60278 6.51542 5.60278 6.51542C5.60278 6.51542 5.60278 6.51542 5.60278 6.51542C5.60278 6.51542 5.60278 6.51542 5.60278 6.51542C5.60278 6.51542 5.60278 6.51542 5.60278 6.51542L5.60278 6.51542C5.60278 6.51542 5.60278 6.51542 5.60278 6.51542C5.60278 6.51542 5.60278 6.51542 5.60278 6.51542C5.60278 6.51542 5.60278 6.51542 5.60278 6.51542C5.60278 6.51542 5.60278 6.51542 5.60278 6.51542C5.60278 6.51542 5.60278 6.51542 5.60278 6.51542C5.60278 6.51542 5.60278 6.51542 5.60278 6.51542L5.60278 6.51542C5.60278 6.51542 5.60278 6.51541 5.60278 6.51541C5.60278 6.51541 5.60278 6.51541 5.60278 6.51541C5.60278 6.51541 5.60278 6.51541 5.60278 6.51541C5.60278 6.51541 5.60278 6.51541 5.60278 6.51541C5.60278 6.51541 5.60278 6.51541 5.60278 6.51541C5.60278 6.51541 5.60278 6.51541 5.60278 6.51541C5.60278 6.51541 5.60278 6.51541 5.60278 6.51541C5.60278 6.51541 5.60278 6.51541 5.60278 6.51541C5.60278 6.51541 5.60278 6.51541 5.60278 6.51541C5.60277 6.51541 5.60277 6.51541 5.60277 6.51541C5.60277 6.51541 5.60277 6.51541 5.60277 6.51541C5.60277 6.51541 5.60277 6.51541 5.60277 6.51541C5.60277 6.51541 5.60277 6.51541 5.60277 6.51541C5.60277 6.51541 5.60277 6.51541 5.60277 6.51541C5.60277 6.51541 5.60277 6.51541 5.60277 6.51541C5.60277 6.51541 5.60277 6.51541 5.60277 6.51541C5.60277 6.51541 5.60277 6.51541 5.60277 6.51541C5.60277 6.51541 5.60277 6.51541 5.60277 6.51541C5.60277 6.51541 5.60277 6.51541 5.60277 6.51541C5.60277 6.51541 5.60277 6.51541 5.60277 6.51541C5.60277 6.51541 5.60277 6.51541 5.60277 6.51541C5.60277 6.51541 5.60277 6.51541 5.60277 6.51541C5.60277 6.51541 5.60277 6.51541 5.60277 6.51541C5.60277 6.51541 5.60277 6.51541 5.60277 6.51541C5.60277 6.51541 5.60277 6.51541 5.60277 6.51541C5.60277 6.5154 5.60277 6.5154 5.60277 6.5154C5.60277 6.5154 5.60277 6.5154 5.60277 6.5154C5.60277 6.5154 5.60277 6.5154 5.60277 6.5154C5.60277 6.5154 5.60277 6.5154 5.60277 6.5154C5.60277 6.5154 5.60277 6.5154 5.60277 6.5154C5.60277 6.5154 5.60277 6.5154 5.60277 6.5154C5.60277 6.5154 5.60277 6.5154 5.60277 6.5154C5.60277 6.5154 5.60277 6.5154 5.60277 6.5154C5.60277 6.5154 5.60276 6.5154 5.60276 6.5154C5.60276 6.5154 5.60276 6.5154 5.60276 6.5154C5.60276 6.5154 5.60276 6.5154 5.60276 6.5154C5.60276 6.5154 5.60276 6.5154 5.60276 6.5154C5.60276 6.5154 5.60276 6.5154 5.60276 6.5154C5.60276 6.5154 5.60276 6.5154 5.60276 6.5154C5.60276 6.5154 5.60276 6.5154 5.60276 6.5154L5.60276 6.5154C5.60276 6.5154 5.60276 6.5154 5.60276 6.5154C5.60276 6.5154 5.60276 6.5154 5.60276 6.5154C5.60276 6.5154 5.60276 6.5154 5.60276 6.5154C5.60276 6.5154 5.60276 6.5154 5.60276 6.5154C5.60276 6.5154 5.60276 6.5154 5.60276 6.5154C5.60276 6.5154 5.60276 6.5154 5.60276 6.5154L5.60276 6.5154C5.60276 6.5154 5.60276 6.5154 5.60276 6.5154C5.60276 6.5154 5.60276 6.5154 5.60276 6.51539C5.60276 6.51539 5.60276 6.51539 5.60276 6.51539C5.60276 6.51539 5.60276 6.51539 5.60276 6.51539C5.60276 6.51539 5.60276 6.51539 5.60276 6.51539C5.60276 6.51539 5.60276 6.51539 5.60276 6.51539L5.60276 6.51539C5.60276 6.51539 5.60276 6.51539 5.60276 6.51539C5.60276 6.51539 5.60276 6.51539 5.60276 6.51539C5.60276 6.51539 5.60276 6.51539 5.60276 6.51539C5.60275 6.51539 5.60275 6.51539 5.60275 6.51539C5.60275 6.51539 5.60275 6.51539 5.60275 6.51539C5.60275 6.51539 5.60275 6.51539 5.60275 6.51539L5.60275 6.51539C5.60275 6.51539 5.60275 6.51539 5.60275 6.51539C5.60275 6.51539 5.60275 6.51539 5.60275 6.51539C5.60275 6.51539 5.60275 6.51539 5.60275 6.51539C5.60275 6.51539 5.60275 6.51539 5.60275 6.51539C5.60275 6.51539 5.60275 6.51539 5.60275 6.51539C5.60275 6.51539 5.60275 6.51539 5.60275 6.51539L5.60275 6.51539C5.60275 6.51539 5.60275 6.51539 5.60275 6.51539C5.60275 6.51539 5.60275 6.51539 5.60275 6.51539C5.60275 6.51539 5.60275 6.51539 5.60275 6.51539C5.60275 6.51539 5.60275 6.51539 5.60275 6.51539C5.60275 6.51539 5.60275 6.51539 5.60275 6.51539C5.60275 6.51538 5.60275 6.51538 5.60275 6.51538L5.60275 6.51538C5.60275 6.51538 5.60275 6.51538 5.60275 6.51538C5.60275 6.51538 5.60275 6.51538 5.60275 6.51538C5.60275 6.51538 5.60275 6.51538 5.60275 6.51538C5.60275 6.51538 5.60275 6.51538 5.60275 6.51538C5.60275 6.51538 5.60275 6.51538 5.60275 6.51538C5.60275 6.51538 5.60275 6.51538 5.60275 6.51538L5.60274 6.51538C5.60274 6.51538 5.60274 6.51538 5.60274 6.51538C5.60274 6.51538 5.60274 6.51538 5.60274 6.51538C5.60274 6.51538 5.60274 6.51538 5.60274 6.51538C5.60274 6.51538 5.60274 6.51538 5.60274 6.51538C5.60274 6.51538 5.60274 6.51538 5.60274 6.51538C5.60274 6.51538 5.60274 6.51538 5.60274 6.51538L5.60274 6.51538C5.60274 6.51538 5.60274 6.51538 5.60274 6.51538C5.60274 6.51538 5.60274 6.51538 5.60274 6.51538C5.60274 6.51538 5.60274 6.51538 5.60274 6.51538C5.60274 6.51538 5.60274 6.51538 5.60274 6.51538C5.60274 6.51538 5.60274 6.51538 5.60274 6.51538C5.60274 6.51538 5.60274 6.51538 5.60274 6.51538C5.60274 6.51538 5.60274 6.51538 5.60274 6.51538C5.60274 6.51538 5.60274 6.51538 5.60274 6.51538C5.60274 6.51538 5.60274 6.51538 5.60274 6.51537C5.60274 6.51537 5.60274 6.51537 5.60274 6.51537C5.60274 6.51537 5.60274 6.51537 5.60274 6.51537C5.60274 6.51537 5.60274 6.51537 5.60274 6.51537C5.60274 6.51537 5.60274 6.51537 5.60274 6.51537C5.60274 6.51537 5.60274 6.51537 5.60274 6.51537C5.60274 6.51537 5.60274 6.51537 5.60274 6.51537C5.60274 6.51537 5.60274 6.51537 5.60274 6.51537C5.60274 6.51537 5.60274 6.51537 5.60274 6.51537C5.60273 6.51537 5.60273 6.51537 5.60273 6.51537C5.60273 6.51537 5.60273 6.51537 5.60273 6.51537C5.60273 6.51537 5.60273 6.51537 5.60273 6.51537C5.60273 6.51537 5.60273 6.51537 5.60273 6.51537C5.60273 6.51537 5.60273 6.51537 5.60273 6.51537C5.60273 6.51537 5.60273 6.51537 5.60273 6.51537C5.60273 6.51537 5.60273 6.51537 5.60273 6.51537C5.60273 6.51537 5.60273 6.51537 5.60273 6.51537C5.60273 6.51537 5.60273 6.51537 5.60273 6.51537C5.60273 6.51537 5.60273 6.51537 5.60273 6.51537C5.60273 6.51537 5.60273 6.51537 5.60273 6.51537C5.60273 6.51537 5.60273 6.51537 5.60273 6.51537C5.60273 6.51537 5.60273 6.51537 5.60273 6.51537C5.60273 6.51537 5.60273 6.51537 5.60273 6.51537C5.60273 6.51537 5.60273 6.51537 5.60273 6.51537C5.60273 6.51537 5.60273 6.51537 5.60273 6.51537C5.60273 6.51536 5.60273 6.51536 5.60273 6.51536C5.60273 6.51536 5.60273 6.51536 5.60273 6.51536C5.60273 6.51536 5.60273 6.51536 5.60273 6.51536C5.60273 6.51536 5.60273 6.51536 5.60273 6.51536C5.60273 6.51536 5.60273 6.51536 5.60273 6.51536C5.60273 6.51536 5.60273 6.51536 5.60273 6.51536C5.60273 6.51536 5.60273 6.51536 5.60273 6.51536L5.60273 6.51536C5.60273 6.51536 5.60273 6.51536 5.60272 6.51536C5.60272 6.51536 5.60272 6.51536 5.60272 6.51536C5.60272 6.51536 5.60272 6.51536 5.60272 6.51536C5.60272 6.51536 5.60272 6.51536 5.60272 6.51536C5.60272 6.51536 5.60272 6.51536 5.60272 6.51536C5.60272 6.51536 5.60272 6.51536 5.60272 6.51536L5.60272 6.51536C5.60272 6.51536 5.60272 6.51536 5.60272 6.51536C5.60272 6.51536 5.60272 6.51536 5.60272 6.51536C5.60272 6.51536 5.60272 6.51536 5.60272 6.51536C5.60272 6.51536 5.60272 6.51536 5.60272 6.51536C5.60272 6.51536 5.60272 6.51536 5.60272 6.51536C5.60272 6.51536 5.60272 6.51536 5.60272 6.51536L5.60272 6.51536C5.60272 6.51536 5.60272 6.51536 5.60272 6.51536C5.60272 6.51536 5.60272 6.51536 5.60272 6.51536C5.60272 6.51536 5.60272 6.51536 5.60272 6.51535C5.60272 6.51535 5.60272 6.51535 5.60272 6.51535C5.60272 6.51535 5.60272 6.51535 5.60272 6.51535C5.60272 6.51535 5.60272 6.51535 5.60272 6.51535L5.60272 6.51535C5.60272 6.51535 5.60272 6.51535 5.60272 6.51535C5.60272 6.51535 5.60272 6.51535 5.60272 6.51535C5.60272 6.51535 5.60272 6.51535 5.60272 6.51535C5.60272 6.51535 5.60272 6.51535 5.60272 6.51535C5.60271 6.51535 5.60271 6.51535 5.60271 6.51535C5.60271 6.51535 5.60271 6.51535 5.60271 6.51535L5.60271 6.51535C5.60271 6.51535 5.60271 6.51535 5.60271 6.51535C5.60271 6.51535 5.60271 6.51535 5.60271 6.51535C5.60271 6.51535 5.60271 6.51535 5.60271 6.51535C5.60271 6.51535 5.60271 6.51535 5.60271 6.51535C5.60271 6.51535 5.60271 6.51535 5.60271 6.51535C5.60271 6.51535 5.60271 6.51535 5.60271 6.51535L5.60271 6.51535C5.60271 6.51535 5.60271 6.51535 5.60271 6.51535C5.60271 6.51535 5.60271 6.51535 5.60271 6.51535C5.60271 6.51535 5.60271 6.51535 5.60271 6.51535C5.60271 6.51535 5.60271 6.51535 5.60271 6.51535C5.60271 6.51535 5.60271 6.51535 5.60271 6.51535C5.60271 6.51535 5.60271 6.51535 5.60271 6.51535L5.60271 6.51534C5.60271 6.51534 5.60271 6.51534 5.60271 6.51534C5.60271 6.51534 5.60271 6.51534 5.60271 6.51534C5.60271 6.51534 5.60271 6.51534 5.60271 6.51534C5.60271 6.51534 5.60271 6.51534 5.60271 6.51534C5.60271 6.51534 5.60271 6.51534 5.60271 6.51534C5.60271 6.51534 5.60271 6.51534 5.60271 6.51534C5.60271 6.51534 5.60271 6.51534 5.60271 6.51534C5.60271 6.51534 5.60271 6.51534 5.6027 6.51534C5.6027 6.51534 5.6027 6.51534 5.6027 6.51534C5.6027 6.51534 5.6027 6.51534 5.6027 6.51534C5.6027 6.51534 5.6027 6.51534 5.6027 6.51534C5.6027 6.51534 5.6027 6.51534 5.6027 6.51534C5.6027 6.51534 5.6027 6.51534 5.6027 6.51534C5.6027 6.51534 5.6027 6.51534 5.6027 6.51534C5.6027 6.51534 5.6027 6.51534 5.6027 6.51534C5.6027 6.51534 5.6027 6.51534 5.6027 6.51534C5.6027 6.51534 5.6027 6.51534 5.6027 6.51534C5.6027 6.51534 5.6027 6.51534 5.6027 6.51534C5.6027 6.51534 5.6027 6.51534 5.6027 6.51534C5.6027 6.51534 5.6027 6.51534 5.6027 6.51534C5.6027 6.51534 5.6027 6.51534 5.6027 6.51534C5.6027 6.51534 5.6027 6.51534 5.6027 6.51534C5.6027 6.51534 5.6027 6.51534 5.6027 6.51534C5.6027 6.51534 5.6027 6.51534 5.6027 6.51533C5.6027 6.51533 5.6027 6.51533 5.6027 6.51533C5.6027 6.51533 5.6027 6.51533 5.6027 6.51533C5.6027 6.51533 5.6027 6.51533 5.6027 6.51533C5.6027 6.51533 5.6027 6.51533 5.6027 6.51533C5.6027 6.51533 5.6027 6.51533 5.6027 6.51533C5.6027 6.51533 5.6027 6.51533 5.6027 6.51533C5.6027 6.51533 5.6027 6.51533 5.6027 6.51533C5.60269 6.51533 5.60269 6.51533 5.60269 6.51533C5.60269 6.51533 5.60269 6.51533 5.60269 6.51533C5.60269 6.51533 5.60269 6.51533 5.60269 6.51533C5.60269 6.51533 5.60269 6.51533 5.60269 6.51533C5.60269 6.51533 5.60269 6.51533 5.60269 6.51533C5.60269 6.51533 5.60269 6.51533 5.60269 6.51533C5.60269 6.51533 5.60269 6.51533 5.60269 6.51533C5.60269 6.51533 5.60269 6.51533 5.60269 6.51533C5.60269 6.51533 5.60269 6.51533 5.60269 6.51533L5.60269 6.51533C5.60269 6.51533 5.60269 6.51533 5.60269 6.51533C5.60269 6.51533 5.60269 6.51533 5.60269 6.51533C5.60269 6.51533 5.60269 6.51533 5.60269 6.51533C5.60269 6.51533 5.60269 6.51533 5.60269 6.51533C5.60269 6.51533 5.60269 6.51533 5.60269 6.51533C5.60269 6.51533 5.60269 6.51533 5.60269 6.51533L5.60269 6.51533C5.60269 6.51533 5.60269 6.51532 5.60269 6.51532C5.60269 6.51532 5.60269 6.51532 5.60269 6.51532C5.60269 6.51532 5.60269 6.51532 5.60269 6.51532C5.60269 6.51532 5.60269 6.51532 5.60269 6.51532L5.24913 6.86888C5.24913 6.86888 5.24913 6.86888 5.24913 6.86888C5.24913 6.86888 5.24913 6.86888 5.24913 6.86888C5.24913 6.86888 5.24913 6.86888 5.24913 6.86888C5.24913 6.86888 5.24914 6.86888 5.24914 6.86888L5.24914 6.86888C5.24914 6.86888 5.24914 6.86888 5.24914 6.86888C5.24914 6.86888 5.24914 6.86888 5.24914 6.86888C5.24914 6.86888 5.24914 6.86888 5.24914 6.86888C5.24914 6.86888 5.24914 6.86888 5.24914 6.86888C5.24914 6.86888 5.24914 6.86888 5.24914 6.86888C5.24914 6.86888 5.24914 6.86888 5.24914 6.86888L5.24914 6.86888C5.24914 6.86888 5.24914 6.86888 5.24914 6.86888C5.24914 6.86888 5.24914 6.86888 5.24914 6.86888C5.24914 6.86888 5.24914 6.86888 5.24914 6.86888C5.24914 6.86888 5.24914 6.86888 5.24914 6.86888C5.24914 6.86888 5.24914 6.86888 5.24914 6.86888C5.24914 6.86888 5.24914 6.86888 5.24914 6.86888C5.24914 6.86888 5.24914 6.86888 5.24914 6.86888C5.24914 6.86888 5.24914 6.86889 5.24914 6.86889C5.24914 6.86889 5.24914 6.86889 5.24914 6.86889C5.24914 6.86889 5.24914 6.86889 5.24914 6.86889C5.24914 6.86889 5.24914 6.86889 5.24914 6.86889C5.24914 6.86889 5.24914 6.86889 5.24914 6.86889C5.24914 6.86889 5.24914 6.86889 5.24914 6.86889C5.24914 6.86889 5.24914 6.86889 5.24914 6.86889C5.24914 6.86889 5.24914 6.86889 5.24914 6.86889C5.24914 6.86889 5.24914 6.86889 5.24914 6.86889C5.24915 6.86889 5.24915 6.86889 5.24915 6.86889C5.24915 6.86889 5.24915 6.86889 5.24915 6.86889C5.24915 6.86889 5.24915 6.86889 5.24915 6.86889C5.24915 6.86889 5.24915 6.86889 5.24915 6.86889C5.24915 6.86889 5.24915 6.86889 5.24915 6.86889C5.24915 6.86889 5.24915 6.86889 5.24915 6.86889C5.24915 6.86889 5.24915 6.86889 5.24915 6.86889C5.24915 6.86889 5.24915 6.86889 5.24915 6.86889C5.24915 6.86889 5.24915 6.86889 5.24915 6.86889C5.24915 6.86889 5.24915 6.86889 5.24915 6.86889C5.24915 6.86889 5.24915 6.86889 5.24915 6.86889C5.24915 6.86889 5.24915 6.86889 5.24915 6.86889C5.24915 6.86889 5.24915 6.86889 5.24915 6.86889C5.24915 6.86889 5.24915 6.86889 5.24915 6.86889C5.24915 6.86889 5.24915 6.86889 5.24915 6.86889C5.24915 6.86889 5.24915 6.86889 5.24915 6.86889C5.24915 6.8689 5.24915 6.8689 5.24915 6.8689C5.24915 6.8689 5.24915 6.8689 5.24915 6.8689C5.24915 6.8689 5.24915 6.8689 5.24915 6.8689C5.24915 6.8689 5.24915 6.8689 5.24915 6.8689C5.24915 6.8689 5.24915 6.8689 5.24915 6.8689C5.24915 6.8689 5.24915 6.8689 5.24915 6.8689C5.24915 6.8689 5.24915 6.8689 5.24915 6.8689C5.24915 6.8689 5.24915 6.8689 5.24915 6.8689L5.24916 6.8689C5.24916 6.8689 5.24916 6.8689 5.24916 6.8689C5.24916 6.8689 5.24916 6.8689 5.24916 6.8689C5.24916 6.8689 5.24916 6.8689 5.24916 6.8689C5.24916 6.8689 5.24916 6.8689 5.24916 6.8689C5.24916 6.8689 5.24916 6.8689 5.24916 6.8689C5.24916 6.8689 5.24916 6.8689 5.24916 6.8689L5.24916 6.8689C5.24916 6.8689 5.24916 6.8689 5.24916 6.8689C5.24916 6.8689 5.24916 6.8689 5.24916 6.8689C5.24916 6.8689 5.24916 6.8689 5.24916 6.8689C5.24916 6.8689 5.24916 6.8689 5.24916 6.8689C5.24916 6.8689 5.24916 6.8689 5.24916 6.8689C5.24916 6.8689 5.24916 6.8689 5.24916 6.8689L5.24916 6.8689C5.24916 6.8689 5.24916 6.8689 5.24916 6.8689C5.24916 6.8689 5.24916 6.8689 5.24916 6.86891C5.24916 6.86891 5.24916 6.86891 5.24916 6.86891C5.24916 6.86891 5.24916 6.86891 5.24916 6.86891C5.24916 6.86891 5.24916 6.86891 5.24916 6.86891C5.24916 6.86891 5.24916 6.86891 5.24916 6.86891L5.24916 6.86891C5.24916 6.86891 5.24916 6.86891 5.24916 6.86891C5.24916 6.86891 5.24916 6.86891 5.24916 6.86891C5.24916 6.86891 5.24916 6.86891 5.24916 6.86891C5.24917 6.86891 5.24917 6.86891 5.24917 6.86891C5.24917 6.86891 5.24917 6.86891 5.24917 6.86891C5.24917 6.86891 5.24917 6.86891 5.24917 6.86891L5.24917 6.86891C5.24917 6.86891 5.24917 6.86891 5.24917 6.86891C5.24917 6.86891 5.24917 6.86891 5.24917 6.86891C5.24917 6.86891 5.24917 6.86891 5.24917 6.86891C5.24917 6.86891 5.24917 6.86891 5.24917 6.86891C5.24917 6.86891 5.24917 6.86891 5.24917 6.86891C5.24917 6.86891 5.24917 6.86891 5.24917 6.86891L5.24917 6.86891C5.24917 6.86891 5.24917 6.86891 5.24917 6.86891C5.24917 6.86891 5.24917 6.86891 5.24917 6.86891C5.24917 6.86891 5.24917 6.86891 5.24917 6.86891C5.24917 6.86891 5.24917 6.86891 5.24917 6.86891C5.24917 6.86891 5.24917 6.86891 5.24917 6.86891C5.24917 6.86892 5.24917 6.86892 5.24917 6.86892L5.24917 6.86892C5.24917 6.86892 5.24917 6.86892 5.24917 6.86892C5.24917 6.86892 5.24917 6.86892 5.24917 6.86892C5.24917 6.86892 5.24917 6.86892 5.24917 6.86892C5.24917 6.86892 5.24917 6.86892 5.24917 6.86892C5.24917 6.86892 5.24917 6.86892 5.24917 6.86892C5.24917 6.86892 5.24917 6.86892 5.24917 6.86892C5.24917 6.86892 5.24917 6.86892 5.24918 6.86892C5.24918 6.86892 5.24918 6.86892 5.24918 6.86892C5.24918 6.86892 5.24918 6.86892 5.24918 6.86892C5.24918 6.86892 5.24918 6.86892 5.24918 6.86892C5.24918 6.86892 5.24918 6.86892 5.24918 6.86892C5.24918 6.86892 5.24918 6.86892 5.24918 6.86892C5.24918 6.86892 5.24918 6.86892 5.24918 6.86892C5.24918 6.86892 5.24918 6.86892 5.24918 6.86892C5.24918 6.86892 5.24918 6.86892 5.24918 6.86892C5.24918 6.86892 5.24918 6.86892 5.24918 6.86892C5.24918 6.86892 5.24918 6.86892 5.24918 6.86892C5.24918 6.86892 5.24918 6.86892 5.24918 6.86892C5.24918 6.86892 5.24918 6.86892 5.24918 6.86892C5.24918 6.86892 5.24918 6.86892 5.24918 6.86892C5.24918 6.86892 5.24918 6.86892 5.24918 6.86892C5.24918 6.86892 5.24918 6.86892 5.24918 6.86892C5.24918 6.86892 5.24918 6.86892 5.24918 6.86893C5.24918 6.86893 5.24918 6.86893 5.24918 6.86893C5.24918 6.86893 5.24918 6.86893 5.24918 6.86893C5.24918 6.86893 5.24918 6.86893 5.24918 6.86893C5.24918 6.86893 5.24918 6.86893 5.24918 6.86893C5.24918 6.86893 5.24918 6.86893 5.24918 6.86893C5.24918 6.86893 5.24918 6.86893 5.24918 6.86893C5.24918 6.86893 5.24918 6.86893 5.24918 6.86893C5.24918 6.86893 5.24918 6.86893 5.24918 6.86893C5.24919 6.86893 5.24919 6.86893 5.24919 6.86893C5.24919 6.86893 5.24919 6.86893 5.24919 6.86893C5.24919 6.86893 5.24919 6.86893 5.24919 6.86893C5.24919 6.86893 5.24919 6.86893 5.24919 6.86893C5.24919 6.86893 5.24919 6.86893 5.24919 6.86893C5.24919 6.86893 5.24919 6.86893 5.24919 6.86893C5.24919 6.86893 5.24919 6.86893 5.24919 6.86893C5.24919 6.86893 5.24919 6.86893 5.24919 6.86893C5.24919 6.86893 5.24919 6.86893 5.24919 6.86893L5.24919 6.86893C5.24919 6.86893 5.24919 6.86893 5.24919 6.86893C5.24919 6.86893 5.24919 6.86893 5.24919 6.86893C5.24919 6.86893 5.24919 6.86893 5.24919 6.86893C5.24919 6.86893 5.24919 6.86893 5.24919 6.86893C5.24919 6.86893 5.24919 6.86893 5.24919 6.86893C5.24919 6.86893 5.24919 6.86893 5.24919 6.86893L5.24919 6.86894C5.24919 6.86894 5.24919 6.86894 5.24919 6.86894C5.24919 6.86894 5.24919 6.86894 5.24919 6.86894C5.24919 6.86894 5.24919 6.86894 5.24919 6.86894C5.24919 6.86894 5.24919 6.86894 5.24919 6.86894C5.24919 6.86894 5.24919 6.86894 5.24919 6.86894C5.24919 6.86894 5.24919 6.86894 5.24919 6.86894L5.24919 6.86894C5.24919 6.86894 5.24919 6.86894 5.2492 6.86894C5.2492 6.86894 5.2492 6.86894 5.2492 6.86894C5.2492 6.86894 5.2492 6.86894 5.2492 6.86894C5.2492 6.86894 5.2492 6.86894 5.2492 6.86894C5.2492 6.86894 5.2492 6.86894 5.2492 6.86894C5.2492 6.86894 5.2492 6.86894 5.2492 6.86894L5.2492 6.86894C5.2492 6.86894 5.2492 6.86894 5.2492 6.86894C5.2492 6.86894 5.2492 6.86894 5.2492 6.86894C5.2492 6.86894 5.2492 6.86894 5.2492 6.86894C5.2492 6.86894 5.2492 6.86894 5.2492 6.86894C5.2492 6.86894 5.2492 6.86894 5.2492 6.86894C5.2492 6.86894 5.2492 6.86894 5.2492 6.86894L5.2492 6.86894C5.2492 6.86894 5.2492 6.86894 5.2492 6.86894C5.2492 6.86894 5.2492 6.86894 5.2492 6.86894C5.2492 6.86894 5.2492 6.86894 5.2492 6.86895C5.2492 6.86895 5.2492 6.86895 5.2492 6.86895C5.2492 6.86895 5.2492 6.86895 5.2492 6.86895C5.2492 6.86895 5.2492 6.86895 5.2492 6.86895L5.2492 6.86895C5.2492 6.86895 5.2492 6.86895 5.2492 6.86895C5.2492 6.86895 5.2492 6.86895 5.2492 6.86895C5.2492 6.86895 5.2492 6.86895 5.2492 6.86895C5.2492 6.86895 5.2492 6.86895 5.2492 6.86895C5.24921 6.86895 5.24921 6.86895 5.24921 6.86895C5.24921 6.86895 5.24921 6.86895 5.24921 6.86895L5.24921 6.86895C5.24921 6.86895 5.24921 6.86895 5.24921 6.86895C5.24921 6.86895 5.24921 6.86895 5.24921 6.86895C5.24921 6.86895 5.24921 6.86895 5.24921 6.86895C5.24921 6.86895 5.24921 6.86895 5.24921 6.86895C5.24921 6.86895 5.24921 6.86895 5.24921 6.86895C5.24921 6.86895 5.24921 6.86895 5.24921 6.86895L5.24921 6.86895C5.24921 6.86895 5.24921 6.86895 5.24921 6.86895C5.24921 6.86895 5.24921 6.86895 5.24921 6.86895C5.24921 6.86895 5.24921 6.86895 5.24921 6.86895C5.24921 6.86895 5.24921 6.86895 5.24921 6.86895C5.24921 6.86895 5.24921 6.86895 5.24921 6.86895C5.24921 6.86895 5.24921 6.86895 5.24921 6.86895C5.24921 6.86895 5.24921 6.86896 5.24921 6.86896C5.24921 6.86896 5.24921 6.86896 5.24921 6.86896C5.24921 6.86896 5.24921 6.86896 5.24921 6.86896C5.24921 6.86896 5.24921 6.86896 5.24921 6.86896C5.24921 6.86896 5.24921 6.86896 5.24921 6.86896C5.24921 6.86896 5.24921 6.86896 5.24921 6.86896C5.24921 6.86896 5.24921 6.86896 5.24921 6.86896C5.24921 6.86896 5.24921 6.86896 5.24921 6.86896C5.24921 6.86896 5.24921 6.86896 5.24922 6.86896C5.24922 6.86896 5.24922 6.86896 5.24922 6.86896C5.24922 6.86896 5.24922 6.86896 5.24922 6.86896C5.24922 6.86896 5.24922 6.86896 5.24922 6.86896C5.24922 6.86896 5.24922 6.86896 5.24922 6.86896C5.24922 6.86896 5.24922 6.86896 5.24922 6.86896C5.24922 6.86896 5.24922 6.86896 5.24922 6.86896C5.24922 6.86896 5.24922 6.86896 5.24922 6.86896C5.24922 6.86896 5.24922 6.86896 5.24922 6.86896C5.24922 6.86896 5.24922 6.86896 5.24922 6.86896C5.24922 6.86896 5.24922 6.86896 5.24922 6.86896C5.24922 6.86896 5.24922 6.86896 5.24922 6.86896C5.24922 6.86896 5.24922 6.86896 5.24922 6.86896C5.24922 6.86896 5.24922 6.86896 5.24922 6.86896C5.24922 6.86896 5.24922 6.86896 5.24922 6.86896C5.24922 6.86896 5.24922 6.86896 5.24922 6.86896C5.24922 6.86896 5.24922 6.86896 5.24922 6.86897C5.24922 6.86897 5.24922 6.86897 5.24922 6.86897C5.24922 6.86897 5.24922 6.86897 5.24922 6.86897C5.24922 6.86897 5.24922 6.86897 5.24922 6.86897C5.24922 6.86897 5.24922 6.86897 5.24922 6.86897C5.24922 6.86897 5.24922 6.86897 5.24922 6.86897C5.24922 6.86897 5.24922 6.86897 5.24922 6.86897C5.24922 6.86897 5.24922 6.86897 5.24922 6.86897C5.24922 6.86897 5.24922 6.86897 5.24922 6.86897C5.24922 6.86897 5.24923 6.86897 5.24923 6.86897L5.24923 6.86897C5.24923 6.86897 5.24923 6.86897 5.24923 6.86897C5.24923 6.86897 5.24923 6.86897 5.24923 6.86897C5.24923 6.86897 5.24923 6.86897 5.24923 6.86897C5.24923 6.86897 5.24923 6.86897 5.24923 6.86897C5.24923 6.86897 5.24923 6.86897 5.24923 6.86897C5.24923 6.86897 5.24923 6.86897 5.24923 6.86897L5.24923 6.86897C5.24923 6.86897 5.24923 6.86897 5.24923 6.86897C5.24923 6.86897 5.24923 6.86897 5.24923 6.86897C5.24923 6.86897 5.24923 6.86897 5.24923 6.86897C5.24923 6.86897 5.24923 6.86897 5.24923 6.86897C5.24923 6.86897 5.24923 6.86897 5.24923 6.86897C5.24923 6.86897 5.24923 6.86897 5.24923 6.86897L5.24923 6.86897C5.24923 6.86897 5.24923 6.86898 5.24923 6.86898C5.24923 6.86898 5.24923 6.86898 5.24923 6.86898C5.24923 6.86898 5.24923 6.86898 5.24923 6.86898C5.24923 6.86898 5.24923 6.86898 5.24923 6.86898C5.24923 6.86898 5.24923 6.86898 5.24923 6.86898C5.24923 6.86898 5.24923 6.86898 5.24923 6.86898L5.24923 6.86898C5.24923 6.86898 5.24923 6.86898 5.24923 6.86898C5.24923 6.86898 5.24923 6.86898 5.24924 6.86898C5.24924 6.86898 5.24924 6.86898 5.24924 6.86898C5.24924 6.86898 5.24924 6.86898 5.24924 6.86898C5.24924 6.86898 5.24924 6.86898 5.24924 6.86898C5.24924 6.86898 5.24924 6.86898 5.24924 6.86898L5.24924 6.86898C5.24924 6.86898 5.24924 6.86898 5.24924 6.86898C5.24924 6.86898 5.24924 6.86898 5.24924 6.86898C5.24924 6.86898 5.24924 6.86898 5.24924 6.86898C5.24924 6.86898 5.24924 6.86898 5.24924 6.86898C5.24924 6.86898 5.24924 6.86898 5.24924 6.86898C5.24924 6.86898 5.24924 6.86898 5.24924 6.86898L5.24924 6.86898C5.24924 6.86898 5.24924 6.86898 5.24924 6.86898C5.24924 6.86898 5.24924 6.86898 5.24924 6.86898C5.24924 6.86898 5.24924 6.86898 5.24924 6.86898C5.24924 6.86898 5.24924 6.86898 5.24924 6.86898C5.24924 6.86899 5.24924 6.86899 5.24924 6.86899C5.24924 6.86899 5.24924 6.86899 5.24924 6.86899L5.24924 6.86899C5.24924 6.86899 5.24924 6.86899 5.24924 6.86899C5.24924 6.86899 5.24924 6.86899 5.24924 6.86899C5.24924 6.86899 5.24924 6.86899 5.24924 6.86899C5.24924 6.86899 5.24924 6.86899 5.24924 6.86899C5.24924 6.86899 5.24924 6.86899 5.24924 6.86899C5.24924 6.86899 5.24925 6.86899 5.24925 6.86899C5.24925 6.86899 5.24925 6.86899 5.24925 6.86899C5.24925 6.86899 5.24925 6.86899 5.24925 6.86899C5.24925 6.86899 5.24925 6.86899 5.24925 6.86899C5.24925 6.86899 5.24925 6.86899 5.24925 6.86899C5.24925 6.86899 5.24925 6.86899 5.24925 6.86899C5.24925 6.86899 5.24925 6.86899 5.24925 6.86899C5.24925 6.86899 5.24925 6.86899 5.24925 6.86899C5.24925 6.86899 5.24925 6.86899 5.24925 6.86899C5.24925 6.86899 5.24925 6.86899 5.24925 6.86899C5.24925 6.86899 5.24925 6.86899 5.24925 6.86899C5.24925 6.86899 5.24925 6.86899 5.24925 6.86899C5.24925 6.86899 5.24925 6.86899 5.24925 6.86899C5.24925 6.86899 5.24925 6.86899 5.24925 6.86899C5.24925 6.86899 5.24925 6.86899 5.24925 6.86899C5.24925 6.86899 5.24925 6.86899 5.24925 6.86899C5.24925 6.86899 5.24925 6.869 5.24925 6.869C5.24925 6.869 5.24925 6.869 5.24925 6.869C5.24925 6.869 5.24925 6.869 5.24925 6.869C5.24925 6.869 5.24925 6.869 5.24925 6.869C5.24925 6.869 5.24925 6.869 5.24925 6.869C5.24925 6.869 5.24925 6.869 5.24925 6.869C5.24925 6.869 5.24925 6.869 5.24925 6.869C5.24925 6.869 5.24925 6.869 5.24925 6.869C5.24925 6.869 5.24925 6.869 5.24925 6.869C5.24926 6.869 5.24926 6.869 5.24926 6.869C5.24926 6.869 5.24926 6.869 5.24926 6.869C5.24926 6.869 5.24926 6.869 5.24926 6.869C5.24926 6.869 5.24926 6.869 5.24926 6.869C5.24926 6.869 5.24926 6.869 5.24926 6.869C5.24926 6.869 5.24926 6.869 5.24926 6.869C5.24926 6.869 5.24926 6.869 5.24926 6.869C5.24926 6.869 5.24926 6.869 5.24926 6.869C5.24926 6.869 5.24926 6.869 5.24926 6.869C5.24926 6.869 5.24926 6.869 5.24926 6.869L5.24926 6.869C5.24926 6.869 5.24926 6.869 5.24926 6.869C5.24926 6.869 5.24926 6.869 5.24926 6.869C5.24926 6.869 5.24926 6.869 5.24926 6.869C5.24926 6.869 5.24926 6.869 5.24926 6.869C5.24926 6.869 5.24926 6.869 5.24926 6.869C5.24926 6.86901 5.24926 6.86901 5.24926 6.86901L5.24926 6.86901C5.24926 6.86901 5.24926 6.86901 5.24926 6.86901C5.24926 6.86901 5.24926 6.86901 5.24926 6.86901C5.24926 6.86901 5.24926 6.86901 5.24926 6.86901C5.24926 6.86901 5.24926 6.86901 5.24926 6.86901C5.24926 6.86901 5.24926 6.86901 5.24926 6.86901C5.24926 6.86901 5.24926 6.86901 5.24926 6.86901L5.24927 6.86901C5.24927 6.86901 5.24927 6.86901 5.24927 6.86901C5.24927 6.86901 5.24927 6.86901 5.24927 6.86901C5.24927 6.86901 5.24927 6.86901 5.24927 6.86901C5.24927 6.86901 5.24927 6.86901 5.24927 6.86901C5.24927 6.86901 5.24927 6.86901 5.24927 6.86901C5.24927 6.86901 5.24927 6.86901 5.24927 6.86901L5.24927 6.86901C5.24927 6.86901 5.24927 6.86901 5.24927 6.86901C5.24927 6.86901 5.24927 6.86901 5.24927 6.86901C5.24927 6.86901 5.24927 6.86901 5.24927 6.86901C5.24927 6.86901 5.24927 6.86901 5.24927 6.86901C5.24927 6.86901 5.24927 6.86901 5.24927 6.86901C5.24927 6.86901 5.24927 6.86901 5.24927 6.86901L5.24927 6.86901C5.24927 6.86901 5.24927 6.86901 5.24927 6.86901C5.24927 6.86901 5.24927 6.86901 5.24927 6.86902C5.24927 6.86902 5.24927 6.86902 5.24927 6.86902C5.24927 6.86902 5.24927 6.86902 5.24927 6.86902C5.24927 6.86902 5.24927 6.86902 5.24927 6.86902C5.24927 6.86902 5.24927 6.86902 5.24927 6.86902L5.24927 6.86902C5.24927 6.86902 5.24927 6.86902 5.24927 6.86902C5.24927 6.86902 5.24927 6.86902 5.24927 6.86902C5.24927 6.86902 5.24927 6.86902 5.24927 6.86902C5.24928 6.86902 5.24928 6.86902 5.24928 6.86902C5.24928 6.86902 5.24928 6.86902 5.24928 6.86902C5.24928 6.86902 5.24928 6.86902 5.24928 6.86902L5.24928 6.86902C5.24928 6.86902 5.24928 6.86902 5.24928 6.86902C5.24928 6.86902 5.24928 6.86902 5.24928 6.86902C5.24928 6.86902 5.24928 6.86902 5.24928 6.86902C5.24928 6.86902 5.24928 6.86902 5.24928 6.86902C5.24928 6.86902 5.24928 6.86902 5.24928 6.86902C5.24928 6.86902 5.24928 6.86902 5.24928 6.86902C5.24928 6.86902 5.24928 6.86902 5.24928 6.86902C5.24928 6.86902 5.24928 6.86902 5.24928 6.86902C5.24928 6.86902 5.24928 6.86902 5.24928 6.86902C5.24928 6.86902 5.24928 6.86902 5.24928 6.86902C5.24928 6.86902 5.24928 6.86902 5.24928 6.86902C5.24928 6.86902 5.24928 6.86902 5.24928 6.86902C5.24928 6.86903 5.24928 6.86903 5.24928 6.86903C5.24928 6.86903 5.24928 6.86903 5.24928 6.86903C5.24928 6.86903 5.24928 6.86903 5.24928 6.86903C5.24928 6.86903 5.24928 6.86903 5.24928 6.86903C5.24928 6.86903 5.24928 6.86903 5.24928 6.86903C5.24928 6.86903 5.24928 6.86903 5.24928 6.86903C5.24928 6.86903 5.24928 6.86903 5.24928 6.86903C5.24928 6.86903 5.24928 6.86903 5.24928 6.86903C5.24928 6.86903 5.24928 6.86903 5.24929 6.86903C5.24929 6.86903 5.24929 6.86903 5.24929 6.86903C5.24929 6.86903 5.24929 6.86903 5.24929 6.86903C5.24929 6.86903 5.24929 6.86903 5.24929 6.86903C5.24929 6.86903 5.24929 6.86903 5.24929 6.86903C5.24929 6.86903 5.24929 6.86903 5.24929 6.86903C5.24929 6.86903 5.24929 6.86903 5.24929 6.86903C5.24929 6.86903 5.24929 6.86903 5.24929 6.86903C5.24929 6.86903 5.24929 6.86903 5.24929 6.86903C5.24929 6.86903 5.24929 6.86903 5.24929 6.86903C5.24929 6.86903 5.24929 6.86903 5.24929 6.86903C5.24929 6.86903 5.24929 6.86903 5.24929 6.86903C5.24929 6.86903 5.24929 6.86903 5.24929 6.86903C5.24929 6.86903 5.24929 6.86903 5.24929 6.86903C5.24929 6.86903 5.24929 6.86903 5.24929 6.86903C5.24929 6.86903 5.24929 6.86903 5.24929 6.86903C5.24929 6.86903 5.24929 6.86903 5.24929 6.86904C5.24929 6.86904 5.24929 6.86904 5.24929 6.86904C5.24929 6.86904 5.24929 6.86904 5.24929 6.86904C5.24929 6.86904 5.24929 6.86904 5.24929 6.86904L5.24929 6.86904C5.24929 6.86904 5.24929 6.86904 5.24929 6.86904C5.24929 6.86904 5.24929 6.86904 5.24929 6.86904C5.24929 6.86904 5.24929 6.86904 5.24929 6.86904C5.24929 6.86904 5.24929 6.86904 5.24929 6.86904C5.2493 6.86904 5.2493 6.86904 5.2493 6.86904C5.2493 6.86904 5.2493 6.86904 5.2493 6.86904L5.2493 6.86904C5.2493 6.86904 5.2493 6.86904 5.2493 6.86904C5.2493 6.86904 5.2493 6.86904 5.2493 6.86904C5.2493 6.86904 5.2493 6.86904 5.2493 6.86904C5.2493 6.86904 5.2493 6.86904 5.2493 6.86904C5.2493 6.86904 5.2493 6.86904 5.2493 6.86904C5.2493 6.86904 5.2493 6.86904 5.2493 6.86904L5.2493 6.86904C5.2493 6.86904 5.2493 6.86904 5.2493 6.86904C5.2493 6.86904 5.2493 6.86904 5.2493 6.86904C5.2493 6.86904 5.2493 6.86904 5.2493 6.86904C5.2493 6.86904 5.2493 6.86904 5.2493 6.86904C5.2493 6.86904 5.2493 6.86904 5.2493 6.86904C5.2493 6.86904 5.2493 6.86904 5.2493 6.86904L5.2493 6.86905C5.2493 6.86905 5.2493 6.86905 5.2493 6.86905C5.2493 6.86905 5.2493 6.86905 5.2493 6.86905C5.2493 6.86905 5.2493 6.86905 5.2493 6.86905C5.2493 6.86905 5.2493 6.86905 5.2493 6.86905C5.2493 6.86905 5.2493 6.86905 5.2493 6.86905C5.2493 6.86905 5.2493 6.86905 5.2493 6.86905L5.2493 6.86905C5.2493 6.86905 5.2493 6.86905 5.24931 6.86905C5.24931 6.86905 5.24931 6.86905 5.24931 6.86905C5.24931 6.86905 5.24931 6.86905 5.24931 6.86905C5.24931 6.86905 5.24931 6.86905 5.24931 6.86905C5.24931 6.86905 5.24931 6.86905 5.24931 6.86905C5.24931 6.86905 5.24931 6.86905 5.24931 6.86905L5.24931 6.86905C5.24931 6.86905 5.24931 6.86905 5.24931 6.86905C5.24931 6.86905 5.24931 6.86905 5.24931 6.86905C5.24931 6.86905 5.24931 6.86905 5.24931 6.86905C5.24931 6.86905 5.24931 6.86905 5.24931 6.86905C5.24931 6.86905 5.24931 6.86905 5.24931 6.86905C5.24931 6.86905 5.24931 6.86905 5.24931 6.86905L5.24931 6.86905C5.24931 6.86905 5.24931 6.86905 5.24931 6.86905C5.24931 6.86905 5.24931 6.86905 5.24931 6.86905C5.24931 6.86905 5.24931 6.86905 5.24931 6.86906C5.24931 6.86906 5.24931 6.86906 5.24931 6.86906C5.24931 6.86906 5.24931 6.86906 5.24931 6.86906C5.24931 6.86906 5.24931 6.86906 5.24931 6.86906L5.24931 6.86906C5.24931 6.86906 5.24931 6.86906 5.24931 6.86906C5.24931 6.86906 5.24931 6.86906 5.24931 6.86906C5.24931 6.86906 5.24931 6.86906 5.24931 6.86906C5.24931 6.86906 5.24931 6.86906 5.24931 6.86906C5.24931 6.86906 5.24932 6.86906 5.24932 6.86906C5.24932 6.86906 5.24932 6.86906 5.24932 6.86906C5.24932 6.86906 5.24932 6.86906 5.24932 6.86906C5.24932 6.86906 5.24932 6.86906 5.24932 6.86906C5.24932 6.86906 5.24932 6.86906 5.24932 6.86906C5.24932 6.86906 5.24932 6.86906 5.24932 6.86906C5.24932 6.86906 5.24932 6.86906 5.24932 6.86906C5.24932 6.86906 5.24932 6.86906 5.24932 6.86906C5.24932 6.86906 5.24932 6.86906 5.24932 6.86906C5.24932 6.86906 5.24932 6.86906 5.24932 6.86906C5.24932 6.86906 5.24932 6.86906 5.24932 6.86906C5.24932 6.86906 5.24932 6.86906 5.24932 6.86906C5.24932 6.86906 5.24932 6.86906 5.24932 6.86906C5.24932 6.86906 5.24932 6.86906 5.24932 6.86906C5.24932 6.86906 5.24932 6.86906 5.24932 6.86906C5.24932 6.86906 5.24932 6.86906 5.24932 6.86906C5.24932 6.86906 5.24932 6.86907 5.24932 6.86907C5.24932 6.86907 5.24932 6.86907 5.24932 6.86907C5.24932 6.86907 5.24932 6.86907 5.24932 6.86907C5.24932 6.86907 5.24932 6.86907 5.24932 6.86907C5.24932 6.86907 5.24932 6.86907 5.24932 6.86907C5.24932 6.86907 5.24932 6.86907 5.24932 6.86907C5.24932 6.86907 5.24932 6.86907 5.24932 6.86907C5.24932 6.86907 5.24932 6.86907 5.24932 6.86907C5.24932 6.86907 5.24932 6.86907 5.24933 6.86907C5.24933 6.86907 5.24933 6.86907 5.24933 6.86907C5.24933 6.86907 5.24933 6.86907 5.24933 6.86907C5.24933 6.86907 5.24933 6.86907 5.24933 6.86907C5.24933 6.86907 5.24933 6.86907 5.24933 6.86907C5.24933 6.86907 5.24933 6.86907 5.24933 6.86907C5.24933 6.86907 5.24933 6.86907 5.24933 6.86907C5.24933 6.86907 5.24933 6.86907 5.24933 6.86907C5.24933 6.86907 5.24933 6.86907 5.24933 6.86907C5.24933 6.86907 5.24933 6.86907 5.24933 6.86907C5.24933 6.86907 5.24933 6.86907 5.24933 6.86907C5.24933 6.86907 5.24933 6.86907 5.24933 6.86907L5.24933 6.86907C5.24933 6.86907 5.24933 6.86907 5.24933 6.86907C5.24933 6.86907 5.24933 6.86907 5.24933 6.86907C5.24933 6.86907 5.24933 6.86907 5.24933 6.86907C5.24933 6.86907 5.24933 6.86907 5.24933 6.86907C5.24933 6.86908 5.24933 6.86908 5.24933 6.86908C5.24933 6.86908 5.24933 6.86908 5.24933 6.86908L5.24933 6.86908C5.24933 6.86908 5.24933 6.86908 5.24933 6.86908C5.24933 6.86908 5.24933 6.86908 5.24933 6.86908C5.24933 6.86908 5.24933 6.86908 5.24933 6.86908C5.24933 6.86908 5.24933 6.86908 5.24933 6.86908C5.24933 6.86908 5.24933 6.86908 5.24933 6.86908C5.24933 6.86908 5.24934 6.86908 5.24934 6.86908L5.24934 6.86908C5.24934 6.86908 5.24934 6.86908 5.24934 6.86908C5.24934 6.86908 5.24934 6.86908 5.24934 6.86908C5.24934 6.86908 5.24934 6.86908 5.24934 6.86908C5.24934 6.86908 5.24934 6.86908 5.24934 6.86908C5.24934 6.86908 5.24934 6.86908 5.24934 6.86908C5.24934 6.86908 5.24934 6.86908 5.24934 6.86908L5.24934 6.86908C5.24934 6.86908 5.24934 6.86908 5.24934 6.86908C5.24934 6.86908 5.24934 6.86908 5.24934 6.86908C5.24934 6.86908 5.24934 6.86908 5.24934 6.86908C5.24934 6.86908 5.24934 6.86908 5.24934 6.86908C5.24934 6.86908 5.24934 6.86908 5.24934 6.86908C5.24934 6.86908 5.24934 6.86908 5.24934 6.86908L5.24934 6.86908C5.24934 6.86908 5.24934 6.86909 5.24934 6.86909C5.24934 6.86909 5.24934 6.86909 5.24934 6.86909L5.6029 6.51553ZM6.25357 9.78619C6.72336 8.65261 6.47125 7.38331 5.60284 6.51547L5.2494 6.86914C5.97464 7.5939 6.18403 8.648 5.79166 9.59476L6.25357 9.78619ZM3.48089 11.6388C4.70806 11.6388 5.78408 10.9202 6.2536 9.7861L5.79163 9.59485C5.39952 10.542 4.50591 11.1388 3.48089 11.1388V11.6388ZM1.88889 11.6388H3.48089V11.1388H1.88889V11.6388ZM2.13889 12.9444V11.3888H1.63889V12.9444H2.13889ZM3.48089 12.6944H1.88889V13.1944H3.48089V12.6944ZM6.25335 14.5461C5.78367 13.4127 4.7078 12.6944 3.48089 12.6944V13.1944C4.50572 13.1944 5.39922 13.7911 5.79144 14.7375L6.25335 14.5461ZM6.25346 14.7373L11.4533 2.15097L10.9912 1.96006L5.79134 14.5464L6.25346 14.7373ZM5.68638 3.82757C5.68606 3.82789 5.6857 3.82826 5.68561 3.82834C5.68545 3.8285 5.68547 3.82848 5.68555 3.8284L6.03889 4.18218C6.03935 4.18171 6.03976 4.1813 6.03998 4.18108C6.04028 4.18077 6.04031 4.18075 6.04037 4.18069L5.68638 3.82757ZM6.03929 4.18178L6.04044 4.18061L5.68631 3.82764L5.68515 3.8288L6.03929 4.18178ZM11.2222 2.30551H12.7778V1.80551H11.2222V2.30551ZM12.5278 2.05551V3.64751H13.0278V2.05551H12.5278ZM12.5278 3.64751C12.5278 4.87465 13.2464 5.95064 14.3804 6.42019L14.5717 5.95822C13.6246 5.56609 13.0278 4.67251 13.0278 3.64751H12.5278ZM14.3804 6.42018C15.5152 6.89012 16.7834 6.63717 17.651 5.76962L17.2974 5.41607C16.5728 6.14069 15.5196 6.35077 14.5717 5.95823L14.3804 6.42018ZM17.651 5.76962L18.7763 4.64428L18.4228 4.29073L17.2974 5.41607L17.651 5.76962ZM18.4228 4.64428L19.5227 5.74423L19.8763 5.39067L18.7763 4.29073L18.4228 4.64428ZM19.5227 5.39065L18.3971 6.51595L18.7506 6.86955L19.8763 5.74425L19.5227 5.39065ZM18.3971 6.51598L18.397 6.51608L18.7506 6.86963L18.7507 6.86953L18.3971 6.51598ZM18.397 6.51608C17.5297 7.38339 17.2764 8.65243 17.7464 9.78663L18.2083 9.5952C17.8158 8.64806 18.0261 7.59408 18.7506 6.86963L18.397 6.51608ZM17.7464 9.78655C18.2159 10.9207 19.2919 11.6393 20.5191 11.6393V11.1393C19.4941 11.1393 18.6005 10.5424 18.2084 9.59529L17.7464 9.78655ZM20.5191 11.6393H22.1111V11.1393H20.5191V11.6393ZM21.8611 11.3893V12.9444H22.3611V11.3893H21.8611ZM22.1111 12.6944H20.5191V13.1944H22.1111V12.6944ZM20.5191 12.6944C19.2919 12.6944 18.2159 13.413 17.7464 14.5471L18.2084 14.7384C18.6005 13.7913 19.4941 13.1944 20.5191 13.1944V12.6944ZM17.7464 14.5471C17.2766 15.6806 17.5287 16.9499 18.3972 17.8178L18.7506 17.4641C18.0254 16.7394 17.816 15.6852 18.2083 14.7385L17.7464 14.5471ZM18.3995 17.8201L18.3998 17.8203L18.7484 17.462L18.7482 17.4618L18.3995 17.8201ZM18.3973 17.818L19.5227 18.943L19.8763 18.5894L18.7508 17.4643L18.3973 17.818ZM19.5227 18.5895L18.4228 19.6893L18.7764 20.0429L19.8763 18.943L19.5227 18.5895ZM18.7764 19.6894L17.6511 18.5638L17.2975 18.9173L18.4228 20.0429L18.7764 19.6894ZM17.6511 18.5637L17.651 18.5636L17.2974 18.9172L17.2975 18.9173L17.6511 18.5637ZM17.651 18.5636C16.782 17.6946 15.5134 17.4448 14.3812 17.9127L14.5722 18.3748C15.5182 17.9838 16.5718 18.1915 17.2974 18.9172L17.651 18.5636ZM14.3812 17.9127L14.3807 17.9129L14.5716 18.3751L14.5721 18.3749L14.3812 17.9127ZM14.3805 17.913C13.2464 18.3825 12.5278 19.4586 12.5278 20.6857H13.0278C13.0278 19.6607 13.6246 18.7671 14.5718 18.375L14.3805 17.913ZM12.5278 20.6857V22.2777H13.0278V20.6857H12.5278ZM12.7778 22.0277H11.2222V22.5277H12.7778V22.0277ZM11.4722 22.2777V20.6857H10.9722V22.2777H11.4722ZM11.4722 20.6857C11.4722 19.4586 10.7536 18.3825 9.61948 17.913L9.42822 18.375C10.3754 18.7671 10.9722 19.6607 10.9722 20.6857H11.4722ZM9.61967 17.9131C9.24733 17.7586 8.85477 17.6797 8.46 17.6797V18.1797C8.78778 18.1797 9.11529 18.2451 9.42802 18.3749L9.61967 17.9131ZM8.46 17.6797C7.67239 17.6797 6.91912 17.9931 6.34901 18.5632L6.70256 18.9167C7.18048 18.4388 7.80721 18.1797 8.46 18.1797V17.6797ZM6.34901 18.5632L6.34891 18.5633L6.70246 18.9168L6.70256 18.9167L6.34901 18.5632ZM6.34888 18.5633L5.22358 19.6889L5.57718 20.0424L6.70248 18.9168L6.34888 18.5633ZM5.57716 19.6889L4.47728 18.589L4.12372 18.9426L5.2236 20.0425L5.57716 19.6889ZM4.47725 18.9426L5.60287 17.8173L5.24937 17.4637L4.12375 18.589L4.47725 18.9426ZM5.60332 17.8168L5.60342 17.8167L5.24902 17.464L5.24892 17.4641L5.60332 17.8168ZM5.60299 17.8172C6.47037 16.9498 6.72366 15.6806 6.25347 14.5464L5.79158 14.7379C6.18422 15.685 5.97394 16.7391 5.24944 17.4636L5.60299 17.8172ZM6.25359 14.7376L11.4533 2.15097L10.9912 1.96006L5.79147 14.5467L6.25359 14.7376ZM4.01524 19.4045L4.01545 19.4043L3.6621 19.0505L3.66189 19.0507L4.01524 19.4045ZM4.01422 19.4055L4.01528 19.4044L3.66185 19.0508L3.66078 19.0518L4.01422 19.4055ZM3.6619 19.0507C3.6616 19.051 3.66128 19.0513 3.66092 19.0517L4.01408 19.4056C4.01457 19.4052 4.0151 19.4046 4.01565 19.4041L3.6619 19.0507ZM6.04045 20.1522L6.03928 20.151L5.68515 20.504L5.68632 20.5052L6.04045 20.1522ZM5.68577 20.5046L5.68639 20.5052L6.04037 20.1521C6.0404 20.1521 6.0404 20.1521 6.04033 20.1521C6.0403 20.1521 6.04027 20.152 6.04022 20.152C6.04017 20.1519 6.04011 20.1519 6.04004 20.1518C6.03978 20.1515 6.03927 20.151 6.03867 20.1504L5.68577 20.5046ZM19.9854 18.1268L19.985 18.1272L20.3377 18.4816L20.3381 18.4812L19.9854 18.1268ZM20.3394 18.4798C20.3383 18.481 20.3374 18.4819 20.3373 18.482C20.3369 18.4824 20.3378 18.4815 20.3385 18.4808L19.9849 18.1273C19.9855 18.1267 19.9863 18.1259 19.9857 18.1264C19.9856 18.1266 19.9845 18.1277 19.9832 18.129L20.3394 18.4798ZM19.9859 18.1263L19.9852 18.127L20.3383 18.481L20.3391 18.4802L19.9859 18.1263ZM20.3385 18.4808L20.3386 18.4807L19.9864 18.1258C19.9857 18.1265 19.9851 18.127 19.9849 18.1273L20.3385 18.4808ZM22.7662 11.1393C22.7656 11.1393 22.765 11.1393 22.7644 11.1393V11.6393C22.7654 11.6393 22.7664 11.6393 22.7674 11.6393L22.7662 11.1393ZM22.7648 11.6393L22.7671 11.6393L22.7665 11.1393L22.7641 11.1393L22.7648 11.6393ZM19.986 4.92753L19.9849 4.92859L20.3379 5.2827L20.339 5.28164L19.986 4.92753ZM20.3381 5.28254C20.3385 5.28217 20.3383 5.28236 20.339 5.2816L19.986 4.92757C19.9858 4.92769 19.9857 4.92779 19.9855 4.92801C19.9853 4.9282 19.9851 4.92846 19.9848 4.92875L20.3381 5.28254ZM17.9584 4.17985L17.9607 4.18218L18.3149 3.82928L18.3126 3.82695L17.9584 4.17985ZM18.3142 3.82863C18.314 3.82843 18.3137 3.82814 18.3129 3.82728L17.958 4.17953C17.9587 4.18022 17.96 4.18149 17.9613 4.18284L18.3142 3.82863ZM10.5689 -0.194485C9.68742 -0.194485 8.97222 0.520711 8.97222 1.40218H9.47222C9.47222 0.796855 9.96357 0.305515 10.5689 0.305515V-0.194485ZM13.4307 -0.194485H10.5689V0.305515H13.4307V-0.194485ZM15.0278 1.40218C15.0278 0.519623 14.3115 -0.194485 13.4307 -0.194485V0.305515C14.0359 0.305515 14.5278 0.796277 14.5278 1.40218H15.0278ZM15.0278 3.64751V1.40218H14.5278V3.64751H15.0278ZM15.3368 4.11036C15.1376 4.02787 15.0278 3.86388 15.0278 3.64751H14.5278C14.5278 4.06606 14.7594 4.41245 15.1456 4.57233L15.3368 4.11036ZM15.3367 4.11032L15.3366 4.11029L15.1457 4.5724L15.1458 4.57244L15.3367 4.11032ZM15.8832 4.00185C15.7303 4.15474 15.5372 4.19335 15.3369 4.1104L15.1456 4.57236C15.5328 4.7327 15.941 4.65124 16.2368 4.35541L15.8832 4.00185ZM17.4703 2.41474L15.8832 4.00185L16.2368 4.35541L17.8239 2.7683L17.4703 2.41474ZM17.4718 2.41333L17.4706 2.41449L17.8236 2.76855L17.8248 2.76739L17.4718 2.41333ZM19.7295 2.4155C19.1033 1.78748 18.0923 1.79482 17.4718 2.4133L17.8248 2.76743C18.2517 2.34189 18.9462 2.33801 19.3755 2.76855L19.7295 2.4155ZM19.7316 2.41754C19.7312 2.41717 19.7303 2.41624 19.7295 2.41551L19.3755 2.76854C19.3759 2.76902 19.3762 2.76931 19.3771 2.77016L19.7316 2.41754ZM21.7523 4.4383L19.7311 2.41707L19.3775 2.77063L21.3988 4.79185L21.7523 4.4383ZM21.7521 6.69693C22.3774 6.07236 22.3748 5.06073 21.7523 4.4383L21.3988 4.79185C21.8265 5.21959 21.8279 5.91449 21.3988 6.34318L21.7521 6.69693ZM21.6711 6.28909L9.31791 1.17122L9.12654 1.63314L21.4798 6.75102L21.6711 6.28909ZM20.1647 8.28387L21.7511 6.69792L21.3976 6.34431L19.8112 7.93026L20.1647 8.28387ZM20.166 8.28265L20.1661 8.28255L19.8099 7.93158L19.8098 7.93168L20.166 8.28265ZM20.056 8.8296C19.9735 8.63062 20.0118 8.43687 20.1647 8.28391L19.8111 7.93042C19.5153 8.2263 19.4341 8.63514 19.5941 9.02112L20.056 8.8296ZM20.056 8.82959L20.0558 8.82906L19.5944 9.02167L19.5946 9.02219L20.056 8.82959ZM20.5191 9.13929C20.3027 9.13929 20.1388 9.02949 20.0563 8.83026L19.5943 9.02152C19.7542 9.40771 20.1006 9.63929 20.5191 9.63929V9.13929ZM22.7638 9.13929H20.5191V9.63929H22.7638V9.13929ZM22.9947 9.29353L21.8053 6.42535L21.3435 6.61688L22.5328 9.48506L22.9947 9.29353ZM19.7288 21.919L21.7512 19.8966L21.3976 19.543L19.3752 21.5654L19.7288 21.919ZM17.4697 21.9183C18.0969 22.5466 19.1088 22.5389 19.7288 21.919L19.3752 21.5654C18.949 21.9916 18.2539 21.9962 17.8236 21.5651L17.4697 21.9183ZM17.4692 21.9178C17.4691 21.9177 17.469 21.9176 17.4692 21.9178C17.4693 21.9179 17.4696 21.9182 17.4699 21.9185L17.8234 21.565C17.8235 21.565 17.8236 21.5651 17.8234 21.565C17.8234 21.5649 17.8231 21.5646 17.8227 21.5642L17.4692 21.9178ZM15.8832 20.3314L17.4692 21.9178L17.8228 21.5643L16.2368 19.9779L15.8832 20.3314ZM15.8857 20.3338L15.8858 20.3339L16.2342 19.9753L16.2341 19.9752L15.8857 20.3338ZM15.3365 20.223C15.5374 20.1401 15.7309 20.1791 15.8832 20.3313L16.2367 19.9777C15.9412 19.6824 15.533 19.6011 15.1458 19.7608L15.3365 20.223ZM15.0278 20.6857C15.0278 20.4694 15.1376 20.3054 15.3368 20.2229L15.1456 19.7609C14.7594 19.9208 14.5278 20.2672 14.5278 20.6857H15.0278ZM15.0278 22.9311V20.6857H14.5278V22.9311H15.0278ZM13.4311 24.5277C14.3126 24.5277 15.0278 23.8125 15.0278 22.9311H14.5278C14.5278 23.5364 14.0364 24.0277 13.4311 24.0277V24.5277ZM10.5689 24.5277H13.4311V24.0277H10.5689V24.5277ZM8.97222 22.9311C8.97222 23.8125 9.68743 24.5277 10.5689 24.5277V24.0277C9.96357 24.0277 9.47222 23.5364 9.47222 22.9311H8.97222ZM8.97222 20.6857V22.9311H9.47222V20.6857H8.97222ZM8.66319 20.2229C8.86242 20.3054 8.97222 20.4694 8.97222 20.6857H9.47222C9.47222 20.2672 9.24064 19.9208 8.85445 19.7609L8.66319 20.2229ZM8.66163 20.2222L8.66282 20.2227L8.85482 19.7611L8.85363 19.7606L8.66163 20.2222ZM8.46 20.1797C8.5199 20.1797 8.58733 20.1914 8.6617 20.2223L8.85356 19.7606C8.71949 19.7048 8.58694 19.6797 8.46 19.6797V20.1797ZM8.11685 20.3309C8.22574 20.222 8.34618 20.1797 8.46 20.1797V19.6797C8.21163 19.6797 7.9646 19.7761 7.76334 19.9773L8.11685 20.3309ZM8.12132 20.3263C8.11609 20.3318 8.1114 20.3362 8.11202 20.3356H8.11202C8.11202 20.3356 8.11202 20.3356 8.11202 20.3356C8.11202 20.3356 8.11202 20.3356 8.11202 20.3356C8.11202 20.3356 8.11202 20.3356 8.11203 20.3356C8.11203 20.3356 8.11204 20.3356 8.11206 20.3355C8.11208 20.3355 8.11212 20.3355 8.11218 20.3354C8.11228 20.3353 8.11244 20.3352 8.11265 20.335C8.11305 20.3346 8.1137 20.334 8.11449 20.3332C8.11608 20.3317 8.11849 20.3293 8.12134 20.3263L7.75884 19.9819C7.76407 19.9764 7.76876 19.972 7.76814 19.9726H7.76814C7.76814 19.9726 7.76814 19.9726 7.76814 19.9726C7.76814 19.9726 7.76814 19.9726 7.76813 19.9726C7.76813 19.9726 7.76812 19.9726 7.7681 19.9726C7.76808 19.9727 7.76804 19.9727 7.76799 19.9728C7.76788 19.9729 7.76772 19.973 7.76752 19.9732C7.76711 19.9736 7.76646 19.9742 7.76567 19.975C7.76408 19.9765 7.76167 19.9789 7.75882 19.9819L8.12132 20.3263ZM8.1202 20.3275L8.12028 20.3274L7.75986 19.9808L7.75979 19.9809L8.1202 20.3275ZM6.52979 21.9184L8.1168 20.3309L7.76319 19.9774L6.17618 21.5649L6.52979 21.9184ZM6.52966 21.9185L6.52976 21.9184L6.17621 21.5649L6.17611 21.565L6.52966 21.9185ZM4.27115 21.9184C4.89311 22.5409 5.90465 22.5435 6.52966 21.9185L6.17611 21.565C5.7468 21.9943 5.05196 21.9925 4.62486 21.565L4.27115 21.9184ZM4.47732 21.99L21.6037 19.9681L21.5451 19.4715L4.41869 21.4935L4.47732 21.99ZM2.24767 19.895L4.27006 21.9173L4.62362 21.5638L2.60123 19.5414L2.24767 19.895ZM2.24895 17.6352C1.62261 18.2597 1.62488 19.2722 2.24767 19.895L2.60123 19.5414C2.17324 19.1134 2.17207 18.418 2.60198 17.9893L2.24895 17.6352ZM2.24777 17.6364L2.24762 17.6366L2.60331 17.988L2.60345 17.9878L2.24777 17.6364ZM3.83525 16.0494L2.24886 17.6353L2.60236 17.9889L4.18876 16.403L3.83525 16.0494ZM3.83406 16.0506L3.83459 16.05L4.18941 16.4023C4.18893 16.4028 4.18842 16.4033 4.18867 16.4031C4.18872 16.403 4.18936 16.4024 4.19015 16.4016L3.83406 16.0506ZM3.944 15.5036C4.02651 15.7026 3.9882 15.8964 3.8353 16.0493L4.18891 16.4028C4.4847 16.1069 4.56592 15.6981 4.40587 15.3121L3.944 15.5036ZM3.94383 15.5032L3.94395 15.5035L4.40592 15.3122L4.40579 15.3119L3.94383 15.5032ZM3.48089 15.1944C3.6974 15.1944 3.86144 15.3044 3.94384 15.5033L4.40577 15.3119C4.24594 14.9261 3.89953 14.6944 3.48089 14.6944V15.1944ZM1.23556 15.1944H3.48089V14.6944H1.23556V15.1944ZM-0.361111 13.5977C-0.361111 14.4792 0.354085 15.1944 1.23556 15.1944V14.6944C0.630229 14.6944 0.138889 14.2031 0.138889 13.5977H-0.361111ZM-0.361111 10.7355V13.5977H0.138889V10.7355H-0.361111ZM1.23556 9.13885C0.354085 9.13885 -0.361111 9.85405 -0.361111 10.7355H0.138889C0.138889 10.1302 0.630229 9.63885 1.23556 9.63885V9.13885ZM3.48089 9.13885H1.23556V9.63885H3.48089V9.13885ZM3.94373 8.82981C3.86125 9.02905 3.69726 9.13885 3.48089 9.13885V9.63885C3.89944 9.63885 4.24582 9.40726 4.4057 9.02107L3.94373 8.82981ZM3.94397 8.82924L3.94375 8.82977L4.40568 9.02112L4.4059 9.0206L3.94397 8.82924ZM3.83561 8.28378C3.98821 8.43625 4.02673 8.62966 3.944 8.82916L4.40587 9.02068C4.56609 8.6343 4.48483 8.22563 4.18901 7.93008L3.83561 8.28378ZM3.83543 8.2836L3.83564 8.28381L4.18899 7.93005L4.18878 7.92984L3.83543 8.2836ZM2.2478 6.69641L3.83535 8.28352L4.18886 7.92992L2.6013 6.34281L2.2478 6.69641ZM2.24757 6.69618L2.24766 6.69628L2.60143 6.34294L2.60133 6.34284L2.24757 6.69618ZM2.24822 4.4373C1.62261 5.06184 1.62513 6.07374 2.24767 6.69629L2.60123 6.34273C2.1734 5.91491 2.17207 5.21983 2.60147 4.79116L2.24822 4.4373ZM2.24807 4.43746L2.24767 4.43785L2.60123 4.79141L2.60162 4.79101L2.24807 4.43746ZM2.24767 4.79141L2.95478 5.49851L3.30833 5.14496L2.60123 4.43785L2.24767 4.79141ZM3.30862 5.14525L2.60268 4.43698L2.24854 4.78996L2.95449 5.49822L3.30862 5.14525ZM2.17733 4.64277L4.19856 21.7699L4.69512 21.7113L2.67389 4.58417L2.17733 4.64277ZM4.27036 2.7693L4.97862 3.47525L5.3316 3.12111L4.62333 2.41517L4.27036 2.7693ZM5.33189 3.1214L4.62478 2.4143L4.27123 2.76785L4.97833 3.47496L5.33189 3.1214ZM4.27123 2.4143L4.27083 2.4147L4.62438 2.76825L4.62478 2.76785L4.27123 2.4143ZM4.27066 2.41486C4.27036 2.41517 4.27007 2.41546 4.26982 2.41571L4.62387 2.76876C4.62413 2.7685 4.62434 2.76829 4.62455 2.76808L4.27066 2.41486Z" fill="white"/>
<path fill-rule="evenodd" clip-rule="evenodd" d="M12 8.16663C9.79422 8.16663 8 9.96085 8 12.1666C8 14.3724 9.79422 16.1666 12 16.1666C14.2058 16.1666 16 14.3724 16 12.1666C16 9.96085 14.2058 8.16663 12 8.16663ZM12 15.2777C10.2849 15.2777 8.88889 13.8817 8.88889 12.1666C8.88889 10.4515 10.2849 9.05551 12 9.05551C13.7151 9.05551 15.1111 10.4515 15.1111 12.1666C15.1111 13.8817 13.7151 15.2777 12 15.2777Z" fill="white"/>
<path d="M12 7.91663C9.65615 7.91663 7.75 9.82278 7.75 12.1666H8.25C8.25 10.0989 9.93229 8.41663 12 8.41663V7.91663ZM7.75 12.1666C7.75 14.5105 9.65615 16.4166 12 16.4166V15.9166C9.93229 15.9166 8.25 14.2343 8.25 12.1666H7.75ZM12 16.4166C14.3438 16.4166 16.25 14.5105 16.25 12.1666H15.75C15.75 14.2343 14.0677 15.9166 12 15.9166V16.4166ZM16.25 12.1666C16.25 9.82278 14.3438 7.91663 12 7.91663V8.41663C14.0677 8.41663 15.75 10.0989 15.75 12.1666H16.25ZM12 15.0277C10.423 15.0277 9.13889 13.7437 9.13889 12.1666H8.63889C8.63889 14.0198 10.1468 15.5277 12 15.5277V15.0277ZM9.13889 12.1666C9.13889 10.5896 10.423 9.30551 12 9.30551V8.80551C10.1468 8.80551 8.63889 10.3134 8.63889 12.1666H9.13889ZM12 9.30551C13.577 9.30551 14.8611 10.5896 14.8611 12.1666H15.3611C15.3611 10.3134 13.8532 8.80551 12 8.80551V9.30551ZM14.8611 12.1666C14.8611 13.7437 13.577 15.0277 12 15.0277V15.5277C13.8532 15.5277 15.3611 14.0198 15.3611 12.1666H14.8611Z" fill="white"/>
</svg>
