<svg width="13" height="12" viewBox="0 0 13 12" fill="none" xmlns="http://www.w3.org/2000/svg">
<path opacity="0.501674" fill-rule="evenodd" clip-rule="evenodd" d="M8.39926 2.21053C8.39926 0.995297 9.39456 0 10.6098 0C11.825 0 12.8203 0.995297 12.8203 2.21053C12.8203 3.42576 11.825 4.42105 10.6098 4.42105C9.92089 4.42105 9.32796 4.08191 8.92167 3.58347L5.13528 5.47759C5.14556 5.51836 5.15693 5.55876 5.16829 5.59913L5.16829 5.59914L5.16829 5.59914L5.16829 5.59915C5.20486 5.72914 5.24136 5.85886 5.24136 6C5.24136 6.14114 5.20486 6.27086 5.16829 6.40085L5.16829 6.40086L5.16829 6.40086L5.16829 6.40087C5.15693 6.44124 5.14556 6.48164 5.13528 6.52241L8.92167 8.41653C9.32796 7.91809 9.92089 7.57895 10.6098 7.57895C11.825 7.57895 12.8203 8.57424 12.8203 9.78947C12.8203 11.0047 11.825 12 10.6098 12C9.39456 12 8.39926 11.0047 8.39926 9.78947C8.39926 9.64833 8.43576 9.51861 8.47234 9.38862L8.47234 9.3886C8.4837 9.34823 8.49506 9.30783 8.50535 9.26706L4.71896 7.37294C4.31267 7.87139 3.71973 8.21053 3.03084 8.21053C1.81561 8.21053 0.820312 7.21523 0.820312 6C0.820312 4.78477 1.81561 3.78947 3.03084 3.78947C3.71973 3.78947 4.31267 4.12861 4.71896 4.62706L8.50535 2.73294C8.49506 2.69217 8.4837 2.65177 8.47234 2.61141L8.47234 2.61139L8.47233 2.61138L8.47233 2.61138C8.43576 2.48139 8.39926 2.35166 8.39926 2.21053ZM11.8729 2.21053C11.8729 1.50729 11.313 0.947368 10.6098 0.947368C9.90655 0.947368 9.34663 1.50729 9.34663 2.21053C9.34663 2.91376 9.90655 3.47368 10.6098 3.47368C11.313 3.47368 11.8729 2.91376 11.8729 2.21053ZM3.03084 4.73684C3.73407 4.73684 4.294 5.29677 4.294 6C4.294 6.70323 3.73407 7.26316 3.03084 7.26316C2.3276 7.26316 1.76768 6.70323 1.76768 6C1.76768 5.29677 2.3276 4.73684 3.03084 4.73684ZM11.8729 9.78947C11.8729 9.08624 11.313 8.52632 10.6098 8.52632C9.90655 8.52632 9.34663 9.08624 9.34663 9.78947C9.34663 10.4927 9.90655 11.0526 10.6098 11.0526C11.313 11.0526 11.8729 10.4927 11.8729 9.78947Z" fill="#222222"/>
</svg>
