<svg width="36" height="36" viewBox="0 0 36 36" fill="none" xmlns="http://www.w3.org/2000/svg">
<path fill-rule="evenodd" clip-rule="evenodd" d="M18 0C8.05881 0 0 8.05888 0 17.9998C0 27.9414 8.05881 36 18 36C27.9412 36 36 27.9414 36 17.9998C36 8.05888 27.9412 0 18 0ZM21.8569 15.0048L21.6543 17.7122H19.0144V26.7815H15.5398V17.7122H13.7807V15.0048H15.5398V12.3875C15.5398 12.3875 15.4156 9.39089 19.0144 9.2292C20.7619 9.14987 22.219 9.54435 22.219 9.54435L21.8496 12.2065C21.8496 12.2065 19.0144 11.327 19.0144 13.0416V15.0048H21.8569Z" fill="#006AFF"/>
</svg>
