<svg width="36" height="36" viewBox="0 0 36 36" fill="none" xmlns="http://www.w3.org/2000/svg">
<circle cx="17.8719" cy="17.8719" r="17.8719" fill="#55ACEE"/>
<path d="M28.8181 12.8441C28.0522 13.1837 27.2284 13.4134 26.3644 13.516C27.2465 12.9874 27.9235 12.1512 28.2431 11.153C27.4176 11.6427 26.503 11.9979 25.5303 12.1894C24.7511 11.3595 23.6408 10.8408 22.4114 10.8408C20.0526 10.8408 18.1395 12.7539 18.1395 15.1127C18.1395 15.4475 18.1774 15.7735 18.2507 16.0863C14.7004 15.9082 11.5524 14.2076 9.44533 11.6223C9.07769 12.2531 8.86678 12.9874 8.86678 13.7702C8.86678 15.2519 9.62151 16.56 10.7671 17.3259C10.0672 17.3039 9.40806 17.1118 8.83238 16.791C8.83206 16.8092 8.83206 16.8273 8.83206 16.8452C8.83206 18.915 10.3052 20.6414 12.2591 21.0336C11.901 21.1317 11.5228 21.1837 11.1338 21.1837C10.8579 21.1837 10.5906 21.1572 10.33 21.1075C10.8735 22.8043 12.4509 24.0394 14.3206 24.0742C12.8583 25.2201 11.0166 25.9028 9.01461 25.9028C8.67054 25.9028 8.32965 25.8828 7.99609 25.8429C9.88562 27.0555 12.1316 27.7624 14.544 27.7624C22.4015 27.7624 26.6986 21.2531 26.6986 15.6075C26.6986 15.4224 26.6944 15.2379 26.6861 15.0551C27.5215 14.4529 28.2456 13.7007 28.8181 12.8441Z" fill="#F1F2F2"/>
</svg>
