<svg width="24" height="24" viewBox="0 0 24 24" fill="none" xmlns="http://www.w3.org/2000/svg">
<circle cx="12" cy="12" r="12" fill="#F4F4F4"/>
<path opacity="0.501674" fill-rule="evenodd" clip-rule="evenodd" d="M13.5789 8.21053C13.5789 6.9953 14.5742 6 15.7895 6C17.0047 6 18 6.9953 18 8.21053C18 9.42576 17.0047 10.4211 15.7895 10.4211C15.1006 10.4211 14.5076 10.0819 14.1014 9.58347L10.315 11.4776C10.3252 11.5184 10.3366 11.5588 10.348 11.5991L10.348 11.5991L10.348 11.5991L10.348 11.5991C10.3846 11.7291 10.4211 11.8589 10.4211 12C10.4211 12.1411 10.3846 12.2709 10.348 12.4009L10.348 12.4009L10.348 12.4009L10.348 12.4009C10.3366 12.4412 10.3252 12.4816 10.315 12.5224L14.1014 14.4165C14.5076 13.9181 15.1006 13.5789 15.7895 13.5789C17.0047 13.5789 18 14.5742 18 15.7895C18 17.0047 17.0047 18 15.7895 18C14.5742 18 13.5789 17.0047 13.5789 15.7895C13.5789 15.6483 13.6154 15.5186 13.652 15.3886L13.652 15.3886C13.6634 15.3482 13.6748 15.3078 13.685 15.2671L9.89864 13.3729C9.49235 13.8714 8.89942 14.2105 8.21053 14.2105C6.9953 14.2105 6 13.2152 6 12C6 10.7848 6.9953 9.78947 8.21053 9.78947C8.89942 9.78947 9.49235 10.1286 9.89864 10.6271L13.685 8.73294C13.6748 8.69217 13.6634 8.65177 13.652 8.61141L13.652 8.61139L13.652 8.61138L13.652 8.61138C13.6154 8.48139 13.5789 8.35166 13.5789 8.21053ZM17.0526 8.21053C17.0526 7.50729 16.4927 6.94737 15.7895 6.94737C15.0862 6.94737 14.5263 7.50729 14.5263 8.21053C14.5263 8.91376 15.0862 9.47368 15.7895 9.47368C16.4927 9.47368 17.0526 8.91376 17.0526 8.21053ZM8.21053 10.7368C8.91376 10.7368 9.47368 11.2968 9.47368 12C9.47368 12.7032 8.91376 13.2632 8.21053 13.2632C7.50729 13.2632 6.94737 12.7032 6.94737 12C6.94737 11.2968 7.50729 10.7368 8.21053 10.7368ZM17.0526 15.7895C17.0526 15.0862 16.4927 14.5263 15.7895 14.5263C15.0862 14.5263 14.5263 15.0862 14.5263 15.7895C14.5263 16.4927 15.0862 17.0526 15.7895 17.0526C16.4927 17.0526 17.0526 16.4927 17.0526 15.7895Z" fill="#222222"/>
</svg>
