<svg width="36" height="36" viewBox="0 0 36 36" fill="none" xmlns="http://www.w3.org/2000/svg">
<path d="M35.9636 26.8475C35.9636 27.0442 35.9576 27.4708 35.9458 27.8004C35.9169 28.6068 35.8529 29.6474 35.7563 30.1215C35.611 30.834 35.3916 31.5065 35.1057 32.0662C34.7673 32.7284 34.3358 33.3215 33.8229 33.8334C33.3112 34.3443 32.7186 34.7742 32.0575 35.1111C31.4948 35.3979 30.8181 35.6173 30.1015 35.762C29.6321 35.8568 28.5994 35.9195 27.7981 35.948C27.4682 35.9597 27.0415 35.9657 26.8455 35.9657L9.15333 35.9628C8.95659 35.9628 8.53 35.9568 8.20042 35.945C7.394 35.9161 6.35344 35.8521 5.8793 35.7555C5.16681 35.6102 4.49428 35.3909 3.93456 35.1049C3.27238 34.7665 2.6793 34.3349 2.1674 33.8221C1.65652 33.3104 1.22663 32.7178 0.889683 32.0567C0.602876 31.494 0.383437 30.8173 0.23877 30.1008C0.144033 29.6314 0.0813317 28.5986 0.0528054 27.7973C0.0410861 27.4674 0.0351562 27.0407 0.0351562 26.8447L0.0379633 9.15251C0.0379633 8.95578 0.0439633 8.52914 0.0557878 8.19956C0.0847352 7.39314 0.14863 6.35258 0.245297 5.87848C0.390595 5.16599 0.609893 4.49346 0.895893 3.93371C1.23424 3.27156 1.66586 2.67844 2.17866 2.16655C2.69038 1.65571 3.28295 1.22578 3.9441 0.888793C4.50681 0.602056 5.18354 0.382618 5.90007 0.237951C6.36944 0.143179 7.40224 0.0804772 8.20351 0.051986C8.5334 0.0402316 8.96017 0.0343018 9.1561 0.0343018L26.8483 0.0371439C27.0451 0.0371439 27.4716 0.0431439 27.8012 0.0549684C28.6076 0.0839158 29.6482 0.147811 30.1223 0.244477C30.8348 0.389775 31.5073 0.609074 32.0671 0.895074C32.7292 1.23342 33.3223 1.66504 33.8342 2.17785C34.3451 2.68956 34.775 3.28209 35.1119 3.94328C35.3987 4.50599 35.6182 5.18269 35.7628 5.89921C35.8576 6.36862 35.9202 7.40139 35.9488 8.20269C35.9606 8.53258 35.9665 8.95932 35.9665 9.15532C35.9665 9.15532 35.9636 26.6508 35.9636 26.8475Z" fill="#24CF1E"/>
<path fill-rule="evenodd" clip-rule="evenodd" d="M27.5213 8.53492C25.0887 6.10029 21.8536 4.75881 18.4068 4.75745C11.305 4.75745 5.52494 10.5353 5.5221 17.6372C5.52119 19.9073 6.11448 22.1233 7.24199 24.0765L5.41406 30.7512L12.2444 28.9601C14.1264 29.9862 16.2452 30.527 18.4017 30.5279H18.407C25.5081 30.5279 31.2887 24.7494 31.2915 17.6474C31.2929 14.2058 29.954 10.9696 27.5213 8.53492ZM18.407 28.3525H18.4026C16.4809 28.3518 14.5962 27.8357 12.9519 26.8603L12.5608 26.6283L8.50761 27.6912L9.5895 23.7406L9.3348 23.3355C8.2628 21.631 7.69662 19.6608 7.69747 17.638C7.69978 11.7352 12.504 6.93288 18.4111 6.93288C21.2715 6.93397 23.9604 8.04906 25.9823 10.0726C28.0042 12.0961 29.1171 14.786 29.1161 17.6466C29.1137 23.5499 24.3096 28.3525 18.407 28.3525ZM22.0813 19.2873C22.3764 19.3947 23.9592 20.1733 24.2812 20.3344C24.344 20.3659 24.4027 20.3942 24.4571 20.4205C24.6817 20.529 24.8334 20.6023 24.8982 20.7104C24.9787 20.8446 24.9787 21.489 24.7104 22.2408C24.4421 22.9926 23.1559 23.6787 22.5374 23.7711C21.9826 23.854 21.2808 23.8885 20.5095 23.6436C20.042 23.4953 19.4423 23.2972 18.6742 22.9657C15.6566 21.6631 13.6172 18.7395 13.2311 18.1861C13.204 18.1472 13.1851 18.12 13.1745 18.1059L13.1719 18.1025C13.0015 17.8752 11.8599 16.3525 11.8599 14.7766C11.8599 13.2941 12.5884 12.5171 12.9237 12.1594C12.9466 12.1349 12.9678 12.1124 12.9867 12.0917C13.2818 11.7695 13.6306 11.689 13.8452 11.689C14.0598 11.689 14.2746 11.6909 14.4622 11.7003C14.4853 11.7014 14.5094 11.7013 14.5342 11.7011C14.7219 11.7 14.9559 11.6986 15.1866 12.2528C15.2754 12.4661 15.4053 12.7823 15.5424 13.1159C15.8194 13.79 16.1254 14.5346 16.1792 14.6424C16.2597 14.8035 16.3134 14.9914 16.2061 15.2063C16.19 15.2383 16.1752 15.2686 16.1611 15.2975C16.0804 15.4623 16.0211 15.5834 15.8841 15.7432C15.8304 15.8059 15.7749 15.8735 15.7194 15.9411C15.6085 16.0761 15.4977 16.211 15.4012 16.3071C15.2401 16.4676 15.0722 16.6417 15.26 16.9639C15.4478 17.2861 16.094 18.3402 17.051 19.1935C18.0798 20.1108 18.974 20.4986 19.4272 20.6951C19.5157 20.7335 19.5874 20.7646 19.64 20.7909C19.9619 20.952 20.1497 20.9251 20.3375 20.7103C20.5254 20.4956 21.1423 19.7706 21.3569 19.4484C21.5716 19.1262 21.7862 19.1799 22.0813 19.2873Z" fill="white"/>
</svg>
