<svg width="13" height="16" viewBox="0 0 13 16" fill="none" xmlns="http://www.w3.org/2000/svg">
<path fill-rule="evenodd" clip-rule="evenodd" d="M4.34564 2.13363C5.1108 0.822937 6.5197 0 8.06395 0C10.438 0 12.3695 1.93178 12.3695 4.30628V15.2727C12.3695 15.6744 12.0439 16 11.6422 16C11.2406 16 10.915 15.6744 10.915 15.2727V4.30628C10.915 2.73384 9.63602 1.45456 8.06395 1.45456C7.23064 1.45456 6.45692 1.81653 5.92464 2.42003C7.56508 3.04784 8.73314 4.63844 8.73314 6.49697C8.73314 6.89862 8.40752 7.22425 8.00586 7.22425H0.733141C0.331484 7.22425 0.00585938 6.89862 0.00585938 6.49697C0.00585938 4.09888 1.95042 2.14656 4.34564 2.13363ZM1.55242 5.76969H7.18655C6.86283 4.51638 5.72255 3.58787 4.36955 3.58787C3.01642 3.58787 1.87614 4.51634 1.55242 5.76969Z" fill="black"/>
<path d="M1.4597 12.5576C1.05805 12.5576 0.732422 12.8832 0.732422 13.2849V14.2546C0.732422 14.6562 1.05805 14.9819 1.4597 14.9819C1.86136 14.9819 2.18698 14.6562 2.18698 14.2546V13.2849C2.18698 12.8832 1.86136 12.5576 1.4597 12.5576Z" fill="black"/>
<path d="M4.36986 12.5576C3.9682 12.5576 3.64258 12.8832 3.64258 13.2849V14.2546C3.64258 14.6562 3.9682 14.9819 4.36986 14.9819C4.77152 14.9819 5.09714 14.6562 5.09714 14.2546V13.2849C5.09714 12.8832 4.77152 12.5576 4.36986 12.5576Z" fill="black"/>
<path d="M7.27806 12.5576C6.87641 12.5576 6.55078 12.8832 6.55078 13.2849V14.2546C6.55078 14.6562 6.87641 14.9819 7.27806 14.9819C7.67972 14.9819 8.00534 14.6562 8.00534 14.2546V13.2849C8.00534 12.8832 7.67972 12.5576 7.27806 12.5576Z" fill="black"/>
<path d="M1.4597 8.67883C1.05805 8.67883 0.732422 9.00446 0.732422 9.40611V10.3758C0.732422 10.7775 1.05805 11.1031 1.4597 11.1031C1.86136 11.1031 2.18698 10.7775 2.18698 10.3758V9.40611C2.18698 9.00446 1.86136 8.67883 1.4597 8.67883Z" fill="black"/>
<path d="M4.36986 8.67883C3.9682 8.67883 3.64258 9.00446 3.64258 9.40611V10.3758C3.64258 10.7775 3.9682 11.1031 4.36986 11.1031C4.77152 11.1031 5.09714 10.7775 5.09714 10.3758V9.40611C5.09714 9.00446 4.77152 8.67883 4.36986 8.67883Z" fill="black"/>
<path d="M7.27806 8.67883C6.87641 8.67883 6.55078 9.00446 6.55078 9.40611V10.3758C6.55078 10.7775 6.87641 11.1031 7.27806 11.1031C7.67972 11.1031 8.00534 10.7775 8.00534 10.3758V9.40611C8.00534 9.00446 7.67972 8.67883 7.27806 8.67883Z" fill="black"/>
</svg>
