<svg width="13" height="12" viewBox="0 0 13 12" fill="none" xmlns="http://www.w3.org/2000/svg">
<path d="M10.0938 6.25H4.25V5.75H10.0938H10.6973L10.2705 5.32322L9.30668 4.35938L9.67188 3.99418L11.4931 5.81545L11.6697 6L11.4931 6.18455L9.67188 8.00582L9.30668 7.64062L10.2705 6.67678L10.6973 6.25H10.0938ZM0.25 6C0.25 2.82948 2.82948 0.25 6 0.25C7.85157 0.25 9.50231 1.12704 10.5542 2.49057L10.1485 2.7792C9.18744 1.54503 7.68981 0.75 6 0.75C3.09435 0.75 0.75 3.09435 0.75 6C0.75 8.90565 3.09435 11.25 6 11.25C7.68953 11.25 9.18897 10.4552 10.1487 9.22092L10.5542 9.50943C9.50231 10.873 7.85157 11.75 6 11.75C2.82948 11.75 0.25 9.17052 0.25 6Z" stroke="#979797" stroke-width="0.5"/>
</svg>
