<svg width="600" height="490" viewBox="0 0 600 490" fill="none" xmlns="http://www.w3.org/2000/svg">
<path d="M580.209 140.302C565.851 105.304 543.851 72.8439 515.582 48.2377C482.418 19.3911 430.105 -2.85597 385.881 12.926C340.105 29.2008 309.493 68.1705 275.552 99.9436C263.612 111.082 250.597 121.638 235.119 127.85C164.299 156.218 116.194 117.517 53.3881 161.414C-9.41787 205.311 -14.7761 293.046 26.6568 348.559C68.0896 404.072 166.955 396.338 241.806 396.338C316.657 396.338 304.612 449.268 435.582 450.552C569.508 451.881 611.776 309.753 597.299 203.385C594.292 181.719 588.55 160.522 580.209 140.302Z" fill="#B2D235"/>
<path opacity="0.7" d="M580.209 140.302C565.851 105.304 543.851 72.8439 515.582 48.2377C482.418 19.3911 430.105 -2.85597 385.881 12.926C340.105 29.2008 309.493 68.1705 275.552 99.9436C263.612 111.082 250.597 121.638 235.119 127.85C164.299 156.218 116.194 117.517 53.3881 161.414C-9.41787 205.311 -14.7761 293.046 26.6568 348.559C68.0896 404.072 166.955 396.338 241.806 396.338C316.657 396.338 304.612 449.268 435.582 450.552C569.508 451.881 611.776 309.753 597.299 203.385C594.292 181.719 588.55 160.522 580.209 140.302Z" fill="white"/>
<path d="M282.428 51.8764C273.775 47.1779 269.837 51.0909 266.69 47.1779C263.542 43.265 275.342 33.0972 251.772 22.9294C251.772 22.9294 250.206 1.03758 217.925 0.252023C185.644 -0.533534 194.281 22.2328 185.614 27.6428C176.947 33.0527 174.59 24.5153 165.938 29.9846C157.286 35.4539 161.209 46.4072 154.124 47.9783C147.038 49.5494 137.595 40.9379 128.928 46.4072C120.261 51.8764 120.276 56.5898 116.338 56.5898C112.4 56.5898 104.523 53.4475 99.8096 56.5898C95.0957 59.732 89.5763 63.6301 89.5763 63.6301H288.752C288.752 63.6301 291.109 56.5898 282.428 51.8764Z" fill="#B2D235"/>
<path opacity="0.5" d="M282.428 51.8764C273.775 47.1779 269.837 51.0909 266.69 47.1779C263.542 43.265 275.342 33.0972 251.772 22.9294C251.772 22.9294 250.206 1.03758 217.925 0.252023C185.644 -0.533534 194.281 22.2328 185.614 27.6428C176.947 33.0527 174.59 24.5153 165.938 29.9846C157.286 35.4539 161.209 46.4072 154.124 47.9783C147.038 49.5494 137.595 40.9379 128.928 46.4072C120.261 51.8764 120.276 56.5898 116.338 56.5898C112.4 56.5898 104.523 53.4475 99.8096 56.5898C95.0957 59.732 89.5763 63.6301 89.5763 63.6301H288.752C288.752 63.6301 291.109 56.5898 282.428 51.8764Z" fill="white"/>
<path d="M445.936 84.944C440.372 81.9796 437.836 84.44 435.822 81.9796C433.809 79.5192 441.387 72.9235 426.216 66.4019C426.216 66.4019 425.201 52.3211 404.466 51.8172C383.731 51.3132 389.295 65.8979 383.731 69.4107C378.167 72.9235 376.645 67.3949 371.081 70.8929C365.517 74.3908 368.098 81.446 363.488 82.4539C358.879 83.4618 352.867 77.9184 347.318 81.446C341.769 84.9736 341.754 87.9676 339.218 87.9676C336.682 87.9676 331.625 85.9667 328.597 87.9676C325.568 89.9686 322.018 92.5031 322.018 92.5031H449.979C449.979 92.5031 451.5 87.9528 445.936 84.944Z" fill="white"/>
<rect x="94.08" y="229.599" width="406.776" height="128.116" fill="white"/>
<path fill-rule="evenodd" clip-rule="evenodd" d="M94.08 358.46H500.856C501.268 358.46 501.603 358.127 501.603 357.715V229.569C501.603 229.158 501.268 228.824 500.856 228.824H94.08C93.6677 228.824 93.3335 229.158 93.3335 229.569V357.715C93.3335 358.127 93.6677 358.46 94.08 358.46ZM500.11 356.97H94.7816L94.8264 230.315H500.11V356.97Z" fill="#263238"/>
<path d="M298.013 112.704L95.1548 229.599H500.856L298.013 112.704Z" fill="#B2D235"/>
<path fill-rule="evenodd" clip-rule="evenodd" d="M95.1548 230.344H500.856C501.193 230.351 501.493 230.131 501.588 229.808C501.677 229.481 501.528 229.135 501.229 228.974L298.386 112.063C298.155 111.93 297.871 111.93 297.64 112.063L94.7816 228.959C94.4936 229.129 94.3546 229.47 94.4415 229.793C94.5285 230.116 94.82 230.341 95.1548 230.344ZM498.049 228.854H97.9466L297.998 113.568L498.049 228.854Z" fill="#263238"/>
<rect x="279.232" y="219.184" width="100.668" height="138.531" fill="white"/>
<path fill-rule="evenodd" clip-rule="evenodd" d="M279.232 358.46H379.9C380.312 358.46 380.646 358.127 380.646 357.715V219.139C380.638 218.731 380.309 218.402 379.9 218.394H279.232C278.82 218.394 278.485 218.728 278.485 219.139V357.715C278.485 358.127 278.82 358.46 279.232 358.46ZM379.093 356.97H279.978V219.884H379.093V356.97Z" fill="#263238"/>
<rect x="279.232" y="219.184" width="100.668" height="5.88576" fill="#263238"/>
<path fill-rule="evenodd" clip-rule="evenodd" d="M279.232 225.829H379.9C380.309 225.822 380.638 225.493 380.646 225.084V219.124C380.638 218.716 380.309 218.387 379.9 218.379H279.232C278.82 218.379 278.485 218.713 278.485 219.124V225.084C278.485 225.496 278.82 225.829 279.232 225.829ZM379.093 224.339H279.978V219.869H379.093V224.339Z" fill="#263238"/>
<path d="M354.699 357.715H304.447V271.127C304.443 264.474 307.089 258.091 311.801 253.385C316.514 248.679 322.907 246.035 329.573 246.035C343.458 246.035 354.714 257.269 354.714 271.127L354.699 357.715Z" fill="#263238"/>
<path fill-rule="evenodd" clip-rule="evenodd" d="M304.447 358.46H354.699C354.9 358.464 355.093 358.388 355.237 358.248C355.38 358.107 355.461 357.916 355.461 357.715V271.128C355.686 261.751 350.803 252.989 342.703 248.235C334.603 243.481 324.558 243.481 316.458 248.235C308.358 252.989 303.475 261.751 303.701 271.128V357.715C303.701 358.127 304.035 358.46 304.447 358.46ZM353.953 356.97H305.179V271.128C304.96 262.288 309.559 254.025 317.195 249.541C324.83 245.057 334.301 245.057 341.937 249.541C349.572 254.025 354.172 262.288 353.953 271.128V356.97Z" fill="#263238"/>
<rect x="64.8784" y="252.04" width="233.164" height="105.675" fill="white"/>
<path fill-rule="evenodd" clip-rule="evenodd" d="M64.8784 358.46H298.043C298.455 358.46 298.789 358.127 298.789 357.715V252.04C298.789 251.628 298.455 251.295 298.043 251.295H64.8784C64.4662 251.295 64.132 251.628 64.132 252.04V357.715C64.132 358.127 64.4662 358.46 64.8784 358.46ZM297.296 356.97H65.5801V252.815H297.296V356.97Z" fill="#263238"/>
<rect x="64.8784" y="252.04" width="233.164" height="4.70861" fill="#263238"/>
<path fill-rule="evenodd" clip-rule="evenodd" d="M64.8784 257.493H298.043C298.455 257.493 298.789 257.16 298.789 256.748V252.04C298.789 251.628 298.455 251.295 298.043 251.295H64.8784C64.4662 251.295 64.132 251.628 64.132 252.04V256.748C64.132 257.16 64.4662 257.493 64.8784 257.493ZM297.296 256.003H65.5801V252.815H297.296V256.003Z" fill="#263238"/>
<rect x="90.5267" y="260.757" width="181.853" height="96.9586" fill="#B2D235"/>
<path fill-rule="evenodd" clip-rule="evenodd" d="M90.5267 358.46H272.379C272.792 358.46 273.126 358.127 273.126 357.715V260.757C273.126 260.345 272.792 260.012 272.379 260.012H90.5267C90.1145 260.012 89.7803 260.345 89.7803 260.757V357.715C89.7803 358.127 90.1145 358.46 90.5267 358.46ZM271.603 356.97H91.2732V261.502H271.603V356.97Z" fill="#263238"/>
<path d="M181.461 174.72L57.7124 246.035H305.209L181.461 174.72Z" fill="#B2D235"/>
<path fill-rule="evenodd" clip-rule="evenodd" d="M57.7124 246.854H305.209V246.75C305.544 246.747 305.835 246.521 305.922 246.198C306.009 245.876 305.87 245.535 305.582 245.364L181.834 174.154C181.603 174.021 181.318 174.021 181.087 174.154L57.3392 245.469C57.0512 245.639 56.9123 245.98 56.9992 246.303C57.0861 246.625 57.3776 246.851 57.7124 246.854ZM302.357 245.364H60.5042L181.431 175.659L302.357 245.364Z" fill="#263238"/>
<rect x="57.7124" y="246.035" width="247.481" height="6.00497" fill="white"/>
<path fill-rule="evenodd" clip-rule="evenodd" d="M57.7124 252.815H305.209C305.621 252.815 305.955 252.481 305.955 252.07V246.109C305.955 245.698 305.621 245.364 305.209 245.364H57.7124C57.3001 245.364 56.9659 245.698 56.9659 246.109V252.07C56.9659 252.481 57.3001 252.815 57.7124 252.815ZM304.447 251.325H58.4589V246.854H304.447V251.325Z" fill="#263238"/>
<path d="M329.558 178.982L265.482 215.906H393.649L329.558 178.982Z" fill="#B2D235"/>
<path fill-rule="evenodd" clip-rule="evenodd" d="M265.482 216.651H393.649C393.984 216.647 394.276 216.422 394.363 216.099C394.45 215.776 394.311 215.435 394.023 215.265L329.932 178.311C329.697 178.192 329.42 178.192 329.185 178.311L265.109 215.265C264.81 215.426 264.661 215.772 264.751 216.099C264.839 216.428 265.141 216.656 265.482 216.651ZM390.843 215.161H268.244L329.558 179.801L390.843 215.161Z" fill="#263238"/>
<rect x="265.482" y="215.906" width="128.167" height="5.93046" fill="white"/>
<path fill-rule="evenodd" clip-rule="evenodd" d="M265.482 222.581H393.649C394.062 222.581 394.396 222.248 394.396 221.836V215.876C394.396 215.464 394.062 215.131 393.649 215.131H265.482C265.07 215.131 264.736 215.464 264.736 215.876V221.836C264.736 222.248 265.07 222.581 265.482 222.581ZM392.903 221.091H266.229V216.621H392.903V221.091Z" fill="#263238"/>
<rect x="97.1554" y="268.55" width="14.7202" height="14.6921" fill="white"/>
<path fill-rule="evenodd" clip-rule="evenodd" d="M97.1404 283.987H111.861C112.273 283.987 112.607 283.653 112.607 283.242V268.55C112.607 268.138 112.273 267.805 111.861 267.805H97.1404C96.7281 267.805 96.3939 268.138 96.3939 268.55V283.242C96.3939 283.653 96.7281 283.987 97.1404 283.987ZM111.114 282.497H97.8868V269.295H111.114V282.497Z" fill="#263238"/>
<rect x="119.251" y="268.55" width="14.7202" height="14.6921" fill="white"/>
<path fill-rule="evenodd" clip-rule="evenodd" d="M119.325 283.987H133.971C134.181 284.008 134.391 283.939 134.548 283.797C134.704 283.655 134.793 283.453 134.792 283.242V268.55C134.792 268.138 134.458 267.805 134.045 267.805H119.325C118.913 267.805 118.579 268.138 118.579 268.55V283.242C118.579 283.653 118.913 283.987 119.325 283.987ZM133.224 282.497H119.997V269.295H133.224V282.497Z" fill="#263238"/>
<rect x="141.331" y="268.55" width="14.7202" height="14.6921" fill="white"/>
<path fill-rule="evenodd" clip-rule="evenodd" d="M141.331 283.987H156.066C156.478 283.987 156.813 283.653 156.813 283.242V268.55C156.813 268.138 156.478 267.805 156.066 267.805H141.331C140.919 267.805 140.584 268.138 140.584 268.55V283.242C140.584 283.653 140.919 283.987 141.331 283.987ZM155.32 282.497H142.077V269.295H155.32V282.497Z" fill="#263238"/>
<rect x="163.426" y="268.55" width="14.7202" height="14.6921" fill="white"/>
<path fill-rule="evenodd" clip-rule="evenodd" d="M163.426 283.987H178.161C178.574 283.987 178.908 283.653 178.908 283.242V268.55C178.908 268.138 178.574 267.805 178.161 267.805H163.426C163.014 267.805 162.68 268.138 162.68 268.55V283.242C162.68 283.653 163.014 283.987 163.426 283.987ZM177.415 282.497H164.173L164.113 269.295H177.415V282.497Z" fill="#263238"/>
<rect x="185.521" y="268.55" width="14.7202" height="14.6921" fill="white"/>
<path fill-rule="evenodd" clip-rule="evenodd" d="M185.521 283.987H200.242C200.654 283.987 200.988 283.653 200.988 283.242V268.55C200.988 268.138 200.654 267.805 200.242 267.805H185.521C185.109 267.805 184.775 268.138 184.775 268.55V283.242C184.775 283.653 185.109 283.987 185.521 283.987ZM199.495 282.497H186.268V269.295H199.495V282.497Z" fill="#263238"/>
<rect x="207.602" y="268.55" width="14.7202" height="14.6921" fill="white"/>
<path fill-rule="evenodd" clip-rule="evenodd" d="M207.602 283.987H222.337C222.749 283.987 223.083 283.653 223.083 283.242V268.55C223.083 268.138 222.749 267.805 222.337 267.805H207.602C207.189 267.805 206.855 268.138 206.855 268.55V283.242C206.855 283.653 207.189 283.987 207.602 283.987ZM221.59 282.497H208.348V269.295H221.59V282.497Z" fill="#263238"/>
<rect x="229.697" y="268.55" width="14.7202" height="14.6921" fill="white"/>
<path fill-rule="evenodd" clip-rule="evenodd" d="M229.697 283.987H244.432C244.844 283.987 245.178 283.653 245.178 283.242V268.55C245.178 268.138 244.844 267.805 244.432 267.805H229.697C229.285 267.805 228.95 268.138 228.95 268.55V283.242C228.95 283.653 229.285 283.987 229.697 283.987ZM243.686 282.497H230.443V269.295H243.686V282.497Z" fill="#263238"/>
<rect x="251.792" y="268.55" width="14.7202" height="14.6921" fill="white"/>
<path fill-rule="evenodd" clip-rule="evenodd" d="M251.792 283.987H266.512C266.71 283.987 266.9 283.908 267.04 283.769C267.18 283.629 267.259 283.439 267.259 283.242V268.55C267.259 268.138 266.925 267.805 266.512 267.805H251.792C251.38 267.805 251.046 268.138 251.046 268.55V283.242C251.046 283.653 251.38 283.987 251.792 283.987ZM265.766 282.497H252.539V269.295H265.766V282.497Z" fill="#263238"/>
<rect x="97.1554" y="290.186" width="14.7202" height="14.6921" fill="white"/>
<path fill-rule="evenodd" clip-rule="evenodd" d="M97.1404 305.623H111.861C112.273 305.623 112.607 305.289 112.607 304.878V290.185C112.607 289.774 112.273 289.44 111.861 289.44H97.1404C96.7281 289.44 96.3939 289.774 96.3939 290.185V304.878C96.3939 305.289 96.7281 305.623 97.1404 305.623ZM111.114 304.132H97.8868V290.93H111.114V304.132Z" fill="#263238"/>
<rect x="119.251" y="290.186" width="14.7202" height="14.6921" fill="white"/>
<path fill-rule="evenodd" clip-rule="evenodd" d="M119.325 305.623H133.971C134.181 305.644 134.391 305.575 134.548 305.433C134.704 305.29 134.793 305.089 134.792 304.878V290.185C134.792 289.774 134.458 289.44 134.045 289.44H119.325C118.913 289.44 118.579 289.774 118.579 290.185V304.878C118.579 305.289 118.913 305.623 119.325 305.623ZM133.224 304.132H119.997V290.93H133.224V304.132Z" fill="#263238"/>
<rect x="141.331" y="290.186" width="14.7202" height="14.6921" fill="white"/>
<path fill-rule="evenodd" clip-rule="evenodd" d="M141.331 305.623H156.066C156.478 305.623 156.813 305.289 156.813 304.878V290.185C156.813 289.774 156.478 289.44 156.066 289.44H141.331C140.919 289.44 140.584 289.774 140.584 290.185V304.878C140.584 305.289 140.919 305.623 141.331 305.623ZM155.32 304.132H142.077V290.93H155.32V304.132Z" fill="#263238"/>
<rect x="163.426" y="290.186" width="14.7202" height="14.6921" fill="white"/>
<path fill-rule="evenodd" clip-rule="evenodd" d="M163.426 305.623H178.161C178.574 305.623 178.908 305.289 178.908 304.878V290.185C178.908 289.774 178.574 289.44 178.161 289.44H163.426C163.014 289.44 162.68 289.774 162.68 290.185V304.878C162.68 305.289 163.014 305.623 163.426 305.623ZM177.415 304.132H164.173L164.113 290.93H177.415V304.132Z" fill="#263238"/>
<rect x="185.521" y="290.186" width="14.7202" height="14.6921" fill="white"/>
<path fill-rule="evenodd" clip-rule="evenodd" d="M185.521 305.623H200.242C200.654 305.623 200.988 305.289 200.988 304.878V290.185C200.988 289.774 200.654 289.44 200.242 289.44H185.521C185.109 289.44 184.775 289.774 184.775 290.185V304.878C184.775 305.289 185.109 305.623 185.521 305.623ZM199.495 304.132H186.268V290.93H199.495V304.132Z" fill="#263238"/>
<rect x="207.602" y="290.186" width="14.7202" height="14.6921" fill="white"/>
<path fill-rule="evenodd" clip-rule="evenodd" d="M207.602 305.623H222.337C222.749 305.623 223.083 305.289 223.083 304.878V290.185C223.083 289.774 222.749 289.44 222.337 289.44H207.602C207.189 289.44 206.855 289.774 206.855 290.185V304.878C206.855 305.289 207.189 305.623 207.602 305.623ZM221.59 304.132H208.348V290.93H221.59V304.132Z" fill="#263238"/>
<rect x="229.697" y="290.186" width="14.7202" height="14.6921" fill="white"/>
<path fill-rule="evenodd" clip-rule="evenodd" d="M229.697 305.623H244.432C244.844 305.623 245.178 305.289 245.178 304.878V290.185C245.178 289.774 244.844 289.44 244.432 289.44H229.697C229.285 289.44 228.95 289.774 228.95 290.185V304.878C228.95 305.289 229.285 305.623 229.697 305.623ZM243.686 304.132H230.443V290.93H243.686V304.132Z" fill="#263238"/>
<rect x="251.792" y="290.186" width="14.7202" height="14.6921" fill="white"/>
<path fill-rule="evenodd" clip-rule="evenodd" d="M251.792 305.623H266.512C266.71 305.623 266.9 305.544 267.04 305.404C267.18 305.265 267.259 305.075 267.259 304.878V290.185C267.259 289.774 266.925 289.44 266.512 289.44H251.792C251.38 289.44 251.046 289.774 251.046 290.185V304.878C251.046 305.289 251.38 305.623 251.792 305.623ZM265.766 304.132H252.539V290.93H265.766V304.132Z" fill="#263238"/>
<rect x="97.1554" y="311.806" width="14.7202" height="14.6921" fill="white"/>
<path fill-rule="evenodd" clip-rule="evenodd" d="M97.1404 327.318H111.861C112.273 327.318 112.607 326.984 112.607 326.573V311.866C112.607 311.454 112.273 311.121 111.861 311.121H97.1404C96.7281 311.121 96.3939 311.454 96.3939 311.866V326.573C96.3939 326.984 96.7281 327.318 97.1404 327.318ZM111.114 325.828H97.8868V312.611H111.114V325.828Z" fill="#263238"/>
<rect x="119.251" y="311.806" width="14.7202" height="14.6921" fill="white"/>
<path fill-rule="evenodd" clip-rule="evenodd" d="M119.325 327.318H133.971C134.181 327.339 134.391 327.27 134.548 327.128C134.704 326.986 134.793 326.784 134.792 326.573V311.866C134.792 311.454 134.458 311.121 134.045 311.121H119.325C118.913 311.121 118.579 311.454 118.579 311.866V326.573C118.579 326.984 118.913 327.318 119.325 327.318ZM133.224 325.828H119.997V312.611H133.224V325.828Z" fill="#263238"/>
<rect x="141.331" y="311.806" width="14.7202" height="14.6921" fill="white"/>
<path fill-rule="evenodd" clip-rule="evenodd" d="M141.331 327.318H156.066C156.478 327.318 156.813 326.984 156.813 326.573V311.866C156.813 311.454 156.478 311.121 156.066 311.121H141.331C140.919 311.121 140.584 311.454 140.584 311.866V326.573C140.592 326.981 140.922 327.31 141.331 327.318ZM155.32 325.828H142.077V312.611H155.32V325.828Z" fill="#263238"/>
<rect x="163.426" y="311.806" width="14.7202" height="14.6921" fill="white"/>
<path fill-rule="evenodd" clip-rule="evenodd" d="M163.426 327.318H178.161C178.57 327.31 178.9 326.981 178.908 326.573V311.866C178.908 311.454 178.574 311.121 178.161 311.121H163.426C163.014 311.121 162.68 311.454 162.68 311.866V326.573C162.68 326.984 163.014 327.318 163.426 327.318ZM177.355 325.828H164.113V312.611H177.355V325.828Z" fill="#263238"/>
<rect x="185.521" y="311.806" width="14.7202" height="14.6921" fill="white"/>
<path fill-rule="evenodd" clip-rule="evenodd" d="M185.521 327.318H200.242C200.654 327.318 200.988 326.984 200.988 326.573V311.866C200.988 311.454 200.654 311.121 200.242 311.121H185.521C185.109 311.121 184.775 311.454 184.775 311.866V326.573C184.775 326.984 185.109 327.318 185.521 327.318ZM199.495 325.828H186.268V312.611H199.495V325.828Z" fill="#263238"/>
<rect x="207.602" y="311.806" width="14.7202" height="14.6921" fill="white"/>
<path fill-rule="evenodd" clip-rule="evenodd" d="M207.602 327.318H222.337C222.749 327.318 223.083 326.984 223.083 326.573V311.866C223.083 311.454 222.749 311.121 222.337 311.121H207.602C207.189 311.121 206.855 311.454 206.855 311.866V326.573C206.863 326.981 207.193 327.31 207.602 327.318ZM221.59 325.828H208.348V312.611H221.59V325.828Z" fill="#263238"/>
<rect x="229.697" y="311.806" width="14.7202" height="14.6921" fill="white"/>
<path fill-rule="evenodd" clip-rule="evenodd" d="M229.697 327.318H244.432C244.841 327.31 245.171 326.981 245.178 326.573V311.866C245.178 311.454 244.844 311.121 244.432 311.121H229.697C229.285 311.121 228.95 311.454 228.95 311.866V326.573C228.958 326.981 229.288 327.31 229.697 327.318ZM243.686 325.828H230.443V312.611H243.686V325.828Z" fill="#263238"/>
<rect x="251.792" y="311.806" width="14.7202" height="14.6921" fill="white"/>
<path fill-rule="evenodd" clip-rule="evenodd" d="M251.792 327.318H266.512C266.71 327.318 266.9 327.239 267.04 327.1C267.18 326.96 267.259 326.77 267.259 326.573V311.866C267.259 311.454 266.925 311.121 266.512 311.121H251.792C251.38 311.121 251.046 311.454 251.046 311.866V326.573C251.046 326.984 251.38 327.318 251.792 327.318ZM265.766 325.828H252.539V312.611H265.766V325.828Z" fill="#263238"/>
<rect x="97.1554" y="333.442" width="14.7202" height="14.6921" fill="white"/>
<path fill-rule="evenodd" clip-rule="evenodd" d="M97.1404 348.879H111.861C112.256 348.88 112.583 348.573 112.607 348.179V333.442C112.607 333.031 112.273 332.697 111.861 332.697H97.1404C96.7281 332.697 96.3939 333.031 96.3939 333.442V348.134C96.3939 348.546 96.7281 348.879 97.1404 348.879ZM111.114 347.389H97.8868V334.187H111.114V347.389Z" fill="#263238"/>
<rect x="119.251" y="333.442" width="14.7202" height="14.6921" fill="white"/>
<path fill-rule="evenodd" clip-rule="evenodd" d="M119.325 348.879H133.971C134.174 348.9 134.376 348.837 134.531 348.704C134.687 348.572 134.781 348.382 134.792 348.179V333.442C134.792 333.031 134.458 332.697 134.045 332.697H119.325C118.913 332.697 118.579 333.031 118.579 333.442V348.134C118.579 348.546 118.913 348.879 119.325 348.879ZM133.224 347.389H119.997V334.187H133.224V347.389Z" fill="#263238"/>
<rect x="141.331" y="333.442" width="14.7202" height="14.6921" fill="white"/>
<path fill-rule="evenodd" clip-rule="evenodd" d="M141.331 348.879H156.066C156.461 348.88 156.789 348.573 156.813 348.179V333.442C156.813 333.031 156.478 332.697 156.066 332.697H141.331C140.919 332.697 140.584 333.031 140.584 333.442V348.134C140.584 348.546 140.919 348.879 141.331 348.879ZM155.32 347.389H142.077V334.187H155.32V347.389Z" fill="#263238"/>
<rect x="163.426" y="333.442" width="14.7202" height="14.6921" fill="white"/>
<path fill-rule="evenodd" clip-rule="evenodd" d="M163.426 348.879H178.161C178.557 348.88 178.884 348.573 178.908 348.179V333.442C178.908 333.031 178.574 332.697 178.161 332.697H163.426C163.014 332.697 162.68 333.031 162.68 333.442V348.134C162.68 348.546 163.014 348.879 163.426 348.879ZM177.415 347.389H164.173L164.113 334.187H177.415V347.389Z" fill="#263238"/>
<rect x="185.521" y="333.442" width="14.7202" height="14.6921" fill="white"/>
<path fill-rule="evenodd" clip-rule="evenodd" d="M185.521 348.879H200.242C200.637 348.88 200.964 348.573 200.988 348.179V333.442C200.988 333.031 200.654 332.697 200.242 332.697H185.521C185.109 332.697 184.775 333.031 184.775 333.442V348.134C184.775 348.546 185.109 348.879 185.521 348.879ZM199.495 347.389H186.268V334.187H199.495V347.389Z" fill="#263238"/>
<rect x="207.602" y="333.442" width="14.7202" height="14.6921" fill="white"/>
<path fill-rule="evenodd" clip-rule="evenodd" d="M207.602 348.879H222.337C222.732 348.88 223.06 348.573 223.083 348.179V333.442C223.083 333.031 222.749 332.697 222.337 332.697H207.602C207.189 332.697 206.855 333.031 206.855 333.442V348.134C206.855 348.546 207.189 348.879 207.602 348.879ZM221.59 347.389H208.348V334.187H221.59V347.389Z" fill="#263238"/>
<rect x="229.697" y="333.442" width="14.7202" height="14.6921" fill="white"/>
<path fill-rule="evenodd" clip-rule="evenodd" d="M229.697 348.879H244.432C244.827 348.88 245.155 348.573 245.178 348.179V333.442C245.178 333.031 244.844 332.697 244.432 332.697H229.697C229.285 332.697 228.95 333.031 228.95 333.442V348.134C228.95 348.546 229.285 348.879 229.697 348.879ZM243.686 347.389H230.443V334.187H243.686V347.389Z" fill="#263238"/>
<rect x="251.792" y="333.442" width="14.7202" height="14.6921" fill="white"/>
<path fill-rule="evenodd" clip-rule="evenodd" d="M251.792 348.879H266.512C266.908 348.88 267.235 348.573 267.259 348.179V333.442C267.259 333.031 266.925 332.697 266.512 332.697H251.792C251.38 332.697 251.046 333.031 251.046 333.442V348.134C251.046 348.546 251.38 348.879 251.792 348.879ZM265.766 347.389H252.539V334.187H265.766V347.389Z" fill="#263238"/>
<path d="M314.569 358.46C314.157 358.46 313.823 358.127 313.823 357.715V342.338C313.823 341.926 314.157 341.593 314.569 341.593C314.982 341.593 315.316 341.926 315.316 342.338V357.715C315.316 358.127 314.982 358.46 314.569 358.46Z" fill="white"/>
<path d="M341.636 357.715V275.896H314.569V335.558" fill="#263238"/>
<path d="M341.636 358.46C341.224 358.46 340.89 358.127 340.89 357.715V276.656H315.316V335.573C315.316 335.984 314.982 336.318 314.569 336.318C314.157 336.318 313.823 335.984 313.823 335.573V275.97C313.831 275.562 314.161 275.233 314.569 275.225H341.636C342.045 275.233 342.375 275.562 342.383 275.97V357.715C342.383 358.127 342.048 358.46 341.636 358.46Z" fill="white"/>
<path d="M512.396 357.715H363.672V219.184L438.034 178.982L512.396 219.184V357.715Z" fill="white"/>
<path fill-rule="evenodd" clip-rule="evenodd" d="M362.925 357.715C362.925 358.127 363.259 358.46 363.672 358.46H512.396C512.809 358.46 513.143 358.127 513.143 357.715V219.139C513.14 218.867 512.992 218.617 512.755 218.484L438.392 178.252C438.168 178.133 437.9 178.133 437.676 178.252L363.313 218.484C363.076 218.617 362.927 218.867 362.925 219.139V357.715ZM511.65 219.631V356.97H364.418V219.601L438.034 179.801L511.65 219.631Z" fill="#263238"/>
<path d="M523.758 225.085L438.034 178.729L352.311 225.085L349.638 220.167L438.034 172.366L526.43 220.167L523.758 225.085Z" fill="white"/>
<path fill-rule="evenodd" clip-rule="evenodd" d="M523.414 225.74C523.519 225.799 523.637 225.83 523.757 225.829C524.07 225.84 524.355 225.656 524.474 225.368L527.146 220.465C527.219 220.284 527.219 220.081 527.146 219.899C527.088 219.71 526.96 219.55 526.788 219.452L438.392 171.651C438.168 171.531 437.9 171.531 437.676 171.651L349.28 219.452C349.105 219.547 348.976 219.707 348.919 219.897C348.863 220.087 348.886 220.291 348.981 220.465L351.653 225.368C351.744 225.543 351.899 225.677 352.086 225.74C352.27 225.807 352.471 225.807 352.654 225.74L438.034 179.548L523.414 225.74ZM438.392 178.073C438.281 178.015 438.159 177.985 438.034 177.983C437.945 177.999 437.859 178.029 437.78 178.073L352.684 224.071L350.728 220.465L438.064 173.215L525.444 220.465L523.489 224.071L438.392 178.073Z" fill="#263238"/>
<path d="M363.672 219.184V222.551L438.034 182.349L512.396 222.551V219.184L438.034 178.982L363.672 219.184Z" fill="#263238"/>
<path fill-rule="evenodd" clip-rule="evenodd" d="M512.038 223.207C512.149 223.265 512.272 223.295 512.396 223.296C512.532 223.304 512.666 223.273 512.785 223.207C513.008 223.071 513.144 222.828 513.143 222.566V219.199C513.14 218.927 512.992 218.677 512.755 218.543L438.392 178.311C438.168 178.192 437.9 178.192 437.676 178.311L363.313 218.543C363.076 218.677 362.928 218.927 362.925 219.199V222.566C362.92 222.833 363.064 223.079 363.298 223.207C363.524 223.341 363.804 223.341 364.03 223.207L438.034 183.199L512.038 223.207ZM438.392 181.664C438.282 181.606 438.159 181.576 438.034 181.575V181.604C437.912 181.596 437.789 181.617 437.676 181.664L364.418 221.27V219.601L438.034 179.801L511.65 219.601V221.27L438.392 181.664Z" fill="#263238"/>
<path d="M405.503 252.829V238.227H469.669V311.017" fill="white"/>
<path d="M469.669 311.761C469.257 311.761 468.923 311.428 468.923 311.016V238.972H406.22V252.814C406.22 253.226 405.886 253.56 405.473 253.56C405.061 253.56 404.727 253.226 404.727 252.814V238.212C404.727 237.8 405.061 237.467 405.473 237.467H469.669C470.081 237.467 470.415 237.8 470.415 238.212V311.002C470.419 311.202 470.343 311.395 470.202 311.538C470.062 311.681 469.87 311.762 469.669 311.761Z" fill="#263238"/>
<path d="M469.669 318.541V332.876H405.503V258.387" fill="white"/>
<path d="M469.669 333.621H405.473C405.061 333.621 404.727 333.287 404.727 332.876V258.372C404.727 257.961 405.061 257.627 405.473 257.627C405.886 257.627 406.22 257.961 406.22 258.372V332.116H468.923V318.526C468.923 318.115 469.257 317.781 469.669 317.781C470.081 317.781 470.415 318.115 470.415 318.526V332.861C470.416 333.275 470.084 333.613 469.669 333.621Z" fill="#263238"/>
<rect x="440.438" y="266.672" width="24.9616" height="17.3146" fill="#263238"/>
<path fill-rule="evenodd" clip-rule="evenodd" d="M440.438 284.732H465.384C465.797 284.732 466.131 284.398 466.131 283.987V266.672C466.131 266.261 465.797 265.927 465.384 265.927H440.438C440.025 265.927 439.691 266.261 439.691 266.672V283.987C439.691 284.398 440.025 284.732 440.438 284.732ZM464.638 283.242H441.184V267.417H464.638V283.242Z" fill="#263238"/>
<rect x="440.438" y="289.679" width="24.9616" height="17.3146" fill="#263238"/>
<path fill-rule="evenodd" clip-rule="evenodd" d="M440.438 307.724H465.384C465.797 307.724 466.131 307.39 466.131 306.979V289.679C466.131 289.267 465.797 288.934 465.384 288.934H440.438C440.025 288.934 439.691 289.267 439.691 289.679V306.979C439.691 307.39 440.025 307.724 440.438 307.724ZM464.638 306.234H441.184V290.424H464.638V306.234Z" fill="#263238"/>
<rect x="440.438" y="242.489" width="24.9616" height="18.4768" fill="#263238"/>
<path fill-rule="evenodd" clip-rule="evenodd" d="M440.438 261.755H465.384C465.588 261.755 465.782 261.673 465.923 261.526C466.064 261.38 466.139 261.183 466.131 260.98V242.488C466.131 242.077 465.797 241.743 465.384 241.743H440.438C440.025 241.743 439.691 242.077 439.691 242.488V261.01C439.691 261.421 440.025 261.755 440.438 261.755ZM464.638 260.265H441.184V243.233H464.638V260.265Z" fill="#263238"/>
<rect x="409.773" y="242.489" width="24.9616" height="18.4768" fill="#263238"/>
<path fill-rule="evenodd" clip-rule="evenodd" d="M409.773 261.755H434.735C434.937 261.751 435.129 261.667 435.269 261.522C435.409 261.377 435.485 261.182 435.481 260.98V242.488C435.473 242.08 435.144 241.751 434.735 241.743H409.773C409.361 241.743 409.026 242.077 409.026 242.488V261.01C409.026 261.421 409.361 261.755 409.773 261.755ZM433.988 260.265H410.519V243.233H433.988V260.265Z" fill="#263238"/>
<rect x="409.773" y="289.679" width="24.9616" height="17.3146" fill="#263238"/>
<path fill-rule="evenodd" clip-rule="evenodd" d="M409.773 307.724H434.735C435.147 307.724 435.481 307.39 435.481 306.979V289.679C435.481 289.267 435.147 288.934 434.735 288.934H409.773C409.361 288.934 409.026 289.267 409.026 289.679V306.979C409.026 307.39 409.361 307.724 409.773 307.724ZM433.988 306.234H410.519V290.424H433.988V306.234Z" fill="#263238"/>
<rect x="409.773" y="266.672" width="24.9616" height="17.3146" fill="#263238"/>
<path fill-rule="evenodd" clip-rule="evenodd" d="M409.773 284.732H434.735C435.144 284.724 435.473 284.395 435.481 283.987V266.672C435.481 266.261 435.147 265.927 434.735 265.927H409.773C409.361 265.927 409.026 266.261 409.026 266.672V283.987C409.026 284.398 409.361 284.732 409.773 284.732ZM433.988 283.242H410.519V267.417H433.988V283.242Z" fill="#263238"/>
<rect x="440.438" y="312.671" width="24.9616" height="15.9288" fill="#263238"/>
<path fill-rule="evenodd" clip-rule="evenodd" d="M440.438 329.344H465.384C465.797 329.344 466.131 329.011 466.131 328.599V312.671C466.131 312.259 465.797 311.926 465.384 311.926H440.438C440.025 311.926 439.691 312.259 439.691 312.671V328.599C439.691 329.011 440.025 329.344 440.438 329.344ZM464.638 327.854H441.184V313.416H464.638V327.854Z" fill="#263238"/>
<rect x="409.773" y="312.671" width="24.9616" height="15.9288" fill="#263238"/>
<path fill-rule="evenodd" clip-rule="evenodd" d="M409.773 329.344H434.735C435.147 329.344 435.481 329.011 435.481 328.599V312.671C435.473 312.262 435.144 311.933 434.735 311.926H409.773C409.361 311.926 409.026 312.259 409.026 312.671V328.599C409.026 329.011 409.361 329.344 409.773 329.344ZM433.988 327.854H410.519V313.416H433.988V327.854Z" fill="#263238"/>
<path fill-rule="evenodd" clip-rule="evenodd" d="M407.622 416.361H410.607C411.019 416.361 411.353 416.027 411.353 415.615C411.353 415.203 411.019 414.868 410.607 414.868H407.622C407.209 414.868 406.875 415.203 406.875 415.615C406.883 416.024 407.213 416.353 407.622 416.361ZM419.563 416.361H416.578C416.169 416.353 415.839 416.024 415.831 415.615C415.831 415.203 416.166 414.868 416.578 414.868H419.563C419.975 414.868 420.309 415.203 420.309 415.615C420.309 416.027 419.975 416.361 419.563 416.361ZM425.534 416.361H428.519C428.931 416.361 429.266 416.027 429.266 415.615C429.266 415.203 428.931 414.868 428.519 414.868H425.534C425.122 414.868 424.788 415.203 424.788 415.615C424.795 416.024 425.125 416.353 425.534 416.361ZM434.49 416.361H437.475C437.888 416.361 438.222 416.027 438.222 415.615C438.222 415.203 437.888 414.868 437.475 414.868H434.49C434.078 414.868 433.744 415.203 433.744 415.615C433.752 416.024 434.081 416.353 434.49 416.361Z" fill="#263238"/>
<path fill-rule="evenodd" clip-rule="evenodd" d="M102.575 78.1556H105.561H105.621C106.009 78.1244 106.308 77.7991 106.307 77.4091C106.307 76.9968 105.973 76.6626 105.561 76.6626H102.575C102.163 76.6626 101.829 76.9968 101.829 77.4091C101.837 77.818 102.167 78.1476 102.575 78.1556ZM93.7835 79.5291C93.4679 79.5335 93.185 79.3349 93.082 79.0364C92.942 78.6489 93.1424 78.2212 93.5298 78.0809C94.5068 77.7373 95.5038 77.4531 96.5151 77.2299C96.7092 77.1855 96.913 77.2204 97.0812 77.3269C97.2494 77.4335 97.368 77.6028 97.4108 77.7973C97.455 77.9895 97.4197 78.1915 97.3129 78.3573C97.2061 78.5232 97.0368 78.6389 96.8435 78.6781C95.9019 78.8875 94.9745 79.1568 94.0671 79.4843C94.0143 79.5054 93.9592 79.5204 93.9029 79.5291H93.7835ZM85.6036 83.8737C85.7425 84.0323 85.9453 84.12 86.1559 84.1126H86.2156C86.3625 84.0916 86.4987 84.0235 86.6037 83.9185C87.3231 83.276 88.0808 82.6777 88.8726 82.1269C89.107 81.9814 89.242 81.7184 89.2237 81.443C89.2054 81.1677 89.0366 80.9249 88.785 80.8118C88.5333 80.6986 88.2398 80.7336 88.0217 80.9027C87.1767 81.4887 86.3691 82.127 85.6036 82.8137C85.4623 82.9539 85.3828 83.1447 85.3828 83.3437C85.3828 83.5427 85.4623 83.7335 85.6036 83.8737ZM80.7971 91.2192C80.683 91.2233 80.5699 91.1976 80.4687 91.1445C80.2903 91.0577 80.1538 90.9034 80.0894 90.7157C80.025 90.528 80.038 90.3224 80.1254 90.1442C80.5648 89.2222 81.0634 88.3295 81.6181 87.4718C81.8448 87.1255 82.3093 87.0286 82.6555 87.2553C83.0018 87.4821 83.0987 87.9466 82.872 88.2929C82.3166 89.0932 81.8178 89.9313 81.3793 90.8012C81.2808 91.0151 81.0872 91.1701 80.8568 91.2192H80.7971ZM77.9983 99.5688C78.1299 99.7173 78.3152 99.8073 78.5133 99.8188H78.573C78.9484 99.8311 79.2744 99.5625 79.3343 99.1917C79.3989 98.2343 79.5235 97.2819 79.7075 96.3401C79.7899 95.9279 79.5226 95.5268 79.1104 95.4443C78.6982 95.3619 78.2972 95.6293 78.2148 96.0415C78.0228 97.0282 77.8883 98.0252 77.8117 99.0275C77.7995 99.2256 77.8666 99.4204 77.9983 99.5688ZM78.5133 108.777C78.1011 108.777 77.767 108.442 77.767 108.03V105.044C77.767 104.632 78.1011 104.298 78.5133 104.298C78.9255 104.298 79.2597 104.632 79.2597 105.044V108.03C79.2597 108.442 78.9255 108.777 78.5133 108.777ZM77.767 116.988C77.767 117.4 78.1011 117.735 78.5133 117.735C78.9255 117.735 79.2597 117.4 79.2597 116.988V114.002C79.2597 113.59 78.9255 113.256 78.5133 113.256C78.1011 113.256 77.767 113.59 77.767 114.002V116.988ZM78.5133 126.692C78.1011 126.692 77.767 126.358 77.767 125.946V122.96C77.767 122.548 78.1011 122.214 78.5133 122.214C78.9255 122.214 79.2597 122.548 79.2597 122.96V125.946C79.2597 126.358 78.9255 126.692 78.5133 126.692ZM77.767 134.904C77.767 135.316 78.1011 135.65 78.5133 135.65C78.9255 135.65 79.2597 135.316 79.2597 134.904V131.918C79.2597 131.506 78.9255 131.171 78.5133 131.171C78.1011 131.171 77.767 131.506 77.767 131.918V134.904ZM78.5133 144.608C78.1011 144.608 77.767 144.274 77.767 143.862V140.876C77.767 140.464 78.1011 140.129 78.5133 140.129C78.9255 140.129 79.2597 140.464 79.2597 140.876V143.862C79.2597 144.274 78.9255 144.608 78.5133 144.608ZM77.767 152.82C77.767 153.232 78.1011 153.566 78.5133 153.566C78.9255 153.566 79.2597 153.232 79.2597 152.82V149.834C79.2597 149.421 78.9255 149.087 78.5133 149.087C78.1011 149.087 77.767 149.421 77.767 149.834V152.82ZM78.5133 162.524C78.1011 162.524 77.767 162.19 77.767 161.778V158.792C77.767 158.379 78.1011 158.045 78.5133 158.045C78.9255 158.045 79.2597 158.379 79.2597 158.792V161.778C79.2597 162.19 78.9255 162.524 78.5133 162.524ZM77.767 170.736C77.767 171.148 78.1011 171.482 78.5133 171.482C78.9255 171.482 79.2597 171.148 79.2597 170.736V167.75C79.2597 167.337 78.9255 167.003 78.5133 167.003C78.1011 167.003 77.767 167.337 77.767 167.75V170.736ZM78.5133 180.44C78.1011 180.44 77.767 180.106 77.767 179.693V176.707C77.767 176.295 78.1011 175.961 78.5133 175.961C78.9255 175.961 79.2597 176.295 79.2597 176.707V179.693C79.2597 180.106 78.9255 180.44 78.5133 180.44ZM77.767 188.651C77.767 189.064 78.1011 189.398 78.5133 189.398C78.9255 189.398 79.2597 189.064 79.2597 188.651V185.665C79.2597 185.253 78.9255 184.919 78.5133 184.919C78.1011 184.919 77.767 185.253 77.767 185.665V188.651ZM78.5133 198.356C78.1011 198.356 77.767 198.022 77.767 197.609V194.623C77.767 194.211 78.1011 193.877 78.5133 193.877C78.9255 193.877 79.2597 194.211 79.2597 194.623V197.609C79.2597 198.022 78.9255 198.356 78.5133 198.356ZM77.767 206.567C77.767 206.979 78.1011 207.314 78.5133 207.314C78.9255 207.314 79.2597 206.979 79.2597 206.567V203.581C79.2597 203.169 78.9255 202.835 78.5133 202.835C78.1011 202.835 77.767 203.169 77.767 203.581V206.567ZM78.5133 216.272C78.1011 216.272 77.767 215.937 77.767 215.525V212.539C77.767 212.127 78.1011 211.793 78.5133 211.793C78.9255 211.793 79.2597 212.127 79.2597 212.539V215.525C79.2597 215.937 78.9255 216.272 78.5133 216.272ZM77.767 224.483C77.767 224.895 78.1011 225.229 78.5133 225.229C78.9255 225.229 79.2597 224.895 79.2597 224.483V221.497C79.2597 221.085 78.9255 220.751 78.5133 220.751C78.1011 220.751 77.767 221.085 77.767 221.497V224.483ZM78.5133 234.187C78.1011 234.187 77.767 233.853 77.767 233.441V230.455C77.767 230.043 78.1011 229.708 78.5133 229.708C78.9255 229.708 79.2597 230.043 79.2597 230.455V233.441C79.2597 233.853 78.9255 234.187 78.5133 234.187ZM77.767 242.399C77.767 242.811 78.1011 243.145 78.5133 243.145C78.9255 243.145 79.2597 242.811 79.2597 242.399V239.413C79.2597 239.001 78.9255 238.666 78.5133 238.666C78.1011 238.666 77.767 239.001 77.767 239.413V242.399ZM78.5133 252.103C78.1011 252.103 77.767 251.769 77.767 251.357V248.371C77.767 247.958 78.1011 247.624 78.5133 247.624C78.9255 247.624 79.2597 247.958 79.2597 248.371V251.357C79.2597 251.769 78.9255 252.103 78.5133 252.103ZM77.767 260.315C77.767 260.727 78.1011 261.061 78.5133 261.061C78.9255 261.061 79.2597 260.727 79.2597 260.315V257.329C79.2597 256.916 78.9255 256.582 78.5133 256.582C78.1011 256.582 77.767 256.916 77.767 257.329V260.315ZM78.5133 270.019C78.1011 270.019 77.767 269.685 77.767 269.272V266.287C77.767 265.874 78.1011 265.54 78.5133 265.54C78.9255 265.54 79.2597 265.874 79.2597 266.287V269.272C79.2597 269.685 78.9255 270.019 78.5133 270.019ZM77.767 278.23C77.767 278.643 78.1011 278.977 78.5133 278.977C78.9255 278.977 79.2597 278.643 79.2597 278.23V275.244C79.2597 274.832 78.9255 274.498 78.5133 274.498C78.1011 274.498 77.767 274.832 77.767 275.244V278.23ZM78.5133 287.935C78.1011 287.935 77.767 287.601 77.767 287.188V284.202C77.767 283.79 78.1011 283.456 78.5133 283.456C78.9255 283.456 79.2597 283.79 79.2597 284.202V287.188C79.2597 287.601 78.9255 287.935 78.5133 287.935ZM77.767 296.146C77.767 296.558 78.1011 296.893 78.5133 296.893C78.9255 296.893 79.2597 296.558 79.2597 296.146V293.16C79.2597 292.748 78.9255 292.414 78.5133 292.414C78.1011 292.414 77.767 292.748 77.767 293.16V296.146ZM78.5133 305.851C78.1011 305.851 77.767 305.516 77.767 305.104V302.118C77.767 301.706 78.1011 301.372 78.5133 301.372C78.9255 301.372 79.2597 301.706 79.2597 302.118V305.104C79.2597 305.516 78.9255 305.851 78.5133 305.851ZM77.767 314.062C77.767 314.474 78.1011 314.809 78.5133 314.809C78.9255 314.809 79.2597 314.474 79.2597 314.062V311.076C79.2597 310.664 78.9255 310.33 78.5133 310.33C78.1011 310.33 77.767 310.664 77.767 311.076V314.062ZM78.5133 323.766C78.1011 323.766 77.767 323.432 77.767 323.02V320.034C77.767 319.622 78.1011 319.287 78.5133 319.287C78.9255 319.287 79.2597 319.622 79.2597 320.034V323.02C79.2597 323.432 78.9255 323.766 78.5133 323.766ZM77.767 331.978C77.767 332.39 78.1011 332.724 78.5133 332.724C78.9255 332.724 79.2597 332.39 79.2597 331.978V328.992C79.2597 328.58 78.9255 328.245 78.5133 328.245C78.1011 328.245 77.767 328.58 77.767 328.992V331.978ZM78.5133 341.682C78.1011 341.682 77.767 341.348 77.767 340.936V337.95C77.767 337.538 78.1011 337.203 78.5133 337.203C78.9255 337.203 79.2597 337.538 79.2597 337.95V340.936C79.2597 341.348 78.9255 341.682 78.5133 341.682ZM77.767 349.894C77.767 350.306 78.1011 350.64 78.5133 350.64C78.9255 350.64 79.2597 350.306 79.2597 349.894V346.908C79.2597 346.495 78.9255 346.161 78.5133 346.161C78.1011 346.161 77.767 346.495 77.767 346.908V349.894ZM78.5133 359.598C78.1011 359.598 77.767 359.264 77.767 358.852V355.866C77.767 355.453 78.1011 355.119 78.5133 355.119C78.9255 355.119 79.2597 355.453 79.2597 355.866V358.852C79.2597 359.264 78.9255 359.598 78.5133 359.598ZM77.767 367.809C77.767 368.222 78.1011 368.556 78.5133 368.556C78.9255 368.556 79.2597 368.222 79.2597 367.809V364.823C79.2597 364.411 78.9255 364.077 78.5133 364.077C78.1011 364.077 77.767 364.411 77.767 364.823V367.809ZM78.5133 377.514C78.1011 377.514 77.767 377.18 77.767 376.767V373.781C77.767 373.369 78.1011 373.035 78.5133 373.035C78.9255 373.035 79.2597 373.369 79.2597 373.781V376.767C79.2597 377.18 78.9255 377.514 78.5133 377.514ZM77.767 385.725C77.767 386.138 78.1011 386.472 78.5133 386.472C78.9255 386.472 79.2597 386.138 79.2597 385.725V382.739C79.2597 382.327 78.9255 381.993 78.5133 381.993C78.1011 381.993 77.767 382.327 77.767 382.739V385.725ZM78.6327 395.43C78.2506 395.425 77.9313 395.137 77.8864 394.758C77.8864 394.364 77.8568 393.97 77.8271 393.575L77.8271 393.574C77.7971 393.175 77.767 392.774 77.767 392.369V391.697C77.767 391.285 78.1011 390.951 78.5133 390.951C78.9255 390.951 79.2597 391.285 79.2597 391.697V392.369C79.2618 393.117 79.3017 393.864 79.3791 394.608C79.4141 395.019 79.1165 395.383 78.7074 395.43H78.6327ZM80.5284 403.551C80.6607 403.8 80.919 403.955 81.2002 403.955C81.4597 403.953 81.6995 403.816 81.8335 403.593C81.9674 403.371 81.9763 403.095 81.8569 402.865C81.4062 402.011 81.0122 401.128 80.6777 400.222C80.6075 400.035 80.4654 399.884 80.2831 399.803C80.1008 399.721 79.8934 399.717 79.7075 399.789C79.326 399.935 79.1331 400.361 79.2746 400.745C79.6312 401.707 80.05 402.644 80.5284 403.551ZM86.7828 410.882C86.6028 410.881 86.4287 410.818 86.2902 410.703C85.5107 410.043 84.7729 409.335 84.081 408.583C83.8774 408.392 83.797 408.104 83.8726 407.836C83.9481 407.567 84.1671 407.363 84.4402 407.307C84.7133 407.25 84.9951 407.351 85.1707 407.568C85.8303 408.272 86.5279 408.94 87.2605 409.568C87.5731 409.839 87.6128 410.309 87.35 410.628C87.2045 410.788 86.999 410.88 86.7828 410.882ZM94.3209 415.212C94.3948 415.226 94.4709 415.226 94.5448 415.212V415.286C94.957 415.352 95.3446 415.072 95.4106 414.659C95.4765 414.247 95.1958 413.859 94.7836 413.793C93.8653 413.495 92.9677 413.136 92.0968 412.718C91.9169 412.632 91.7098 412.621 91.5219 412.688C91.3339 412.756 91.1808 412.896 91.0967 413.077C90.9253 413.452 91.0842 413.896 91.4549 414.077C92.3859 414.514 93.343 414.893 94.3209 415.212ZM101.68 416.361H100.351C100.153 416.35 99.968 416.26 99.8363 416.111C99.7047 415.963 99.6376 415.768 99.6498 415.57C99.6573 415.37 99.746 415.183 99.8954 415.05C100.045 414.918 100.242 414.852 100.441 414.868H101.754H103.382C103.794 414.868 104.128 415.203 104.128 415.615C104.128 416.027 103.794 416.361 103.382 416.361H101.68ZM381.022 416.361H378.036C377.624 416.361 377.29 416.027 377.29 415.615C377.29 415.203 377.624 414.868 378.036 414.868H381.022C381.434 414.868 381.768 415.203 381.768 415.615C381.768 416.027 381.434 416.361 381.022 416.361ZM369.08 416.361H372.066C372.478 416.361 372.812 416.027 372.812 415.615C372.812 415.203 372.478 414.868 372.066 414.868H369.08C368.668 414.868 368.334 415.203 368.334 415.615C368.334 416.027 368.668 416.361 369.08 416.361ZM363.109 416.361H360.124C359.712 416.361 359.378 416.027 359.378 415.615C359.378 415.203 359.712 414.868 360.124 414.868H363.109C363.522 414.868 363.856 415.203 363.856 415.615C363.856 416.027 363.522 416.361 363.109 416.361ZM351.168 416.361H354.153C354.566 416.361 354.9 416.027 354.9 415.615C354.9 415.203 354.566 414.868 354.153 414.868H351.168C350.756 414.868 350.422 415.203 350.422 415.615C350.422 416.027 350.756 416.361 351.168 416.361ZM345.197 416.361H342.212C341.8 416.361 341.466 416.027 341.466 415.615C341.466 415.203 341.8 414.868 342.212 414.868H345.197C345.609 414.868 345.944 415.203 345.944 415.615C345.944 416.027 345.609 416.361 345.197 416.361ZM333.256 416.361H336.241C336.653 416.361 336.987 416.027 336.987 415.615C336.987 415.203 336.653 414.868 336.241 414.868H333.256C332.844 414.868 332.509 415.203 332.509 415.615C332.509 416.027 332.844 416.361 333.256 416.361ZM327.285 416.361H324.3C323.887 416.361 323.553 416.027 323.553 415.615C323.553 415.203 323.887 414.868 324.3 414.868H327.285C327.697 414.868 328.031 415.203 328.031 415.615C328.031 416.027 327.697 416.361 327.285 416.361ZM315.343 416.361H318.329C318.741 416.361 319.075 416.027 319.075 415.615C319.075 415.203 318.741 414.868 318.329 414.868H315.343C314.931 414.868 314.597 415.203 314.597 415.615C314.597 416.027 314.931 416.361 315.343 416.361ZM309.373 416.361H306.387C305.975 416.361 305.641 416.027 305.641 415.615C305.641 415.203 305.975 414.868 306.387 414.868H309.373C309.785 414.868 310.119 415.203 310.119 415.615C310.119 416.027 309.785 416.361 309.373 416.361ZM297.431 416.361H300.417C300.829 416.361 301.163 416.027 301.163 415.615C301.163 415.203 300.829 414.868 300.417 414.868H297.431C297.019 414.868 296.685 415.203 296.685 415.615C296.685 416.027 297.019 416.361 297.431 416.361ZM291.46 416.361H288.475C288.063 416.361 287.729 416.027 287.729 415.615C287.729 415.203 288.063 414.868 288.475 414.868H291.46C291.873 414.868 292.207 415.203 292.207 415.615C292.207 416.027 291.873 416.361 291.46 416.361ZM279.519 416.361H282.504C282.916 416.361 283.251 416.027 283.251 415.615C283.251 415.203 282.916 414.868 282.504 414.868H279.519C279.107 414.868 278.773 415.203 278.773 415.615C278.773 416.027 279.107 416.361 279.519 416.361ZM273.548 416.361H270.563C270.151 416.361 269.816 416.027 269.816 415.615C269.816 415.203 270.151 414.868 270.563 414.868H273.548C273.96 414.868 274.294 415.203 274.294 415.615C274.294 416.027 273.96 416.361 273.548 416.361ZM261.607 416.361H264.592C265.004 416.361 265.338 416.027 265.338 415.615C265.338 415.203 265.004 414.868 264.592 414.868H261.607C261.194 414.868 260.86 415.203 260.86 415.615C260.86 416.027 261.194 416.361 261.607 416.361ZM255.636 416.361H252.65C252.238 416.361 251.904 416.027 251.904 415.615C251.904 415.203 252.238 414.868 252.65 414.868H255.636C256.048 414.868 256.382 415.203 256.382 415.615C256.382 416.027 256.048 416.361 255.636 416.361ZM243.694 416.361H246.68C247.092 416.361 247.426 416.027 247.426 415.615C247.426 415.203 247.092 414.868 246.68 414.868H243.694C243.282 414.868 242.948 415.203 242.948 415.615C242.948 416.027 243.282 416.361 243.694 416.361ZM237.724 416.361H234.738C234.326 416.361 233.992 416.027 233.992 415.615C233.992 415.203 234.326 414.868 234.738 414.868H237.724C238.136 414.868 238.47 415.203 238.47 415.615C238.47 416.027 238.136 416.361 237.724 416.361ZM225.782 416.361H228.767C229.18 416.361 229.514 416.027 229.514 415.615C229.514 415.203 229.18 414.868 228.767 414.868H225.782C225.37 414.868 225.036 415.203 225.036 415.615C225.036 416.027 225.37 416.361 225.782 416.361ZM219.811 416.361H216.826C216.414 416.361 216.08 416.027 216.08 415.615C216.08 415.203 216.414 414.868 216.826 414.868H219.811C220.224 414.868 220.558 415.203 220.558 415.615C220.558 416.027 220.224 416.361 219.811 416.361ZM207.87 416.361H210.855C211.267 416.361 211.602 416.027 211.602 415.615C211.602 415.203 211.267 414.868 210.855 414.868H207.87C207.458 414.868 207.123 415.203 207.123 415.615C207.123 416.027 207.458 416.361 207.87 416.361ZM201.899 416.361H198.914C198.501 416.361 198.167 416.027 198.167 415.615C198.167 415.203 198.501 414.868 198.914 414.868H201.899C202.311 414.868 202.645 415.203 202.645 415.615C202.645 416.027 202.311 416.361 201.899 416.361ZM189.958 416.361H192.943C193.355 416.361 193.689 416.027 193.689 415.615C193.689 415.203 193.355 414.868 192.943 414.868H189.958C189.545 414.868 189.211 415.203 189.211 415.615C189.211 416.027 189.545 416.361 189.958 416.361ZM183.987 416.361H181.001C180.589 416.361 180.255 416.027 180.255 415.615C180.255 415.203 180.589 414.868 181.001 414.868H183.987C184.399 414.868 184.733 415.203 184.733 415.615C184.733 416.027 184.399 416.361 183.987 416.361ZM172.045 416.361H175.031C175.443 416.361 175.777 416.027 175.777 415.615C175.777 415.203 175.443 414.868 175.031 414.868H172.045C171.633 414.868 171.299 415.203 171.299 415.615C171.299 416.027 171.633 416.361 172.045 416.361ZM166.074 416.361H163.089C162.677 416.361 162.343 416.027 162.343 415.615C162.343 415.203 162.677 414.868 163.089 414.868H166.074C166.487 414.868 166.821 415.203 166.821 415.615C166.821 416.027 166.487 416.361 166.074 416.361ZM154.133 416.361H157.118C157.531 416.361 157.865 416.027 157.865 415.615C157.865 415.203 157.531 414.868 157.118 414.868H154.133C153.721 414.868 153.387 415.203 153.387 415.615C153.387 416.027 153.721 416.361 154.133 416.361ZM148.162 416.361H145.177C144.765 416.361 144.43 416.027 144.43 415.615C144.43 415.203 144.765 414.868 145.177 414.868H148.162C148.574 414.868 148.909 415.203 148.909 415.615C148.909 416.027 148.574 416.361 148.162 416.361ZM136.221 416.361H139.206C139.618 416.361 139.952 416.027 139.952 415.615C139.952 415.203 139.618 414.868 139.206 414.868H136.221C135.808 414.868 135.474 415.203 135.474 415.615C135.474 416.027 135.808 416.361 136.221 416.361ZM130.25 416.361H127.265C126.852 416.361 126.518 416.027 126.518 415.615C126.518 415.203 126.852 414.868 127.265 414.868H130.25C130.662 414.868 130.996 415.203 130.996 415.615C130.996 416.027 130.662 416.361 130.25 416.361ZM118.308 416.361H121.294C121.706 416.361 122.04 416.027 122.04 415.615C122.04 415.203 121.706 414.868 121.294 414.868H118.308C117.896 414.868 117.562 415.203 117.562 415.615C117.562 416.027 117.896 416.361 118.308 416.361ZM112.338 416.361H109.352C108.94 416.361 108.606 416.027 108.606 415.615C108.606 415.203 108.94 414.868 109.352 414.868H112.338C112.75 414.868 113.084 415.203 113.084 415.615C113.084 416.027 112.75 416.361 112.338 416.361Z" fill="#263238"/>
<path fill-rule="evenodd" clip-rule="evenodd" d="M126.936 78.1407H129.922V78.1556C130.122 78.1557 130.314 78.075 130.455 77.9317C130.595 77.7885 130.672 77.5948 130.668 77.3942C130.668 76.9819 130.334 76.6477 129.922 76.6477H126.936C126.524 76.6477 126.19 76.9819 126.19 77.3942C126.19 77.8065 126.524 78.1407 126.936 78.1407ZM138.878 78.1407H135.892C135.48 78.1407 135.146 77.8065 135.146 77.3942C135.146 76.9819 135.48 76.6477 135.892 76.6477H138.878C139.29 76.6477 139.624 76.9819 139.624 77.3942C139.628 77.5948 139.551 77.7885 139.411 77.9317C139.27 78.075 139.078 78.1557 138.878 78.1556V78.1407ZM144.848 78.1407H147.834V78.1556C148.034 78.1557 148.227 78.075 148.367 77.9317C148.507 77.7885 148.584 77.5948 148.58 77.3942C148.58 76.9819 148.246 76.6477 147.834 76.6477H144.848C144.436 76.6477 144.102 76.9819 144.102 77.3942C144.102 77.8065 144.436 78.1407 144.848 78.1407ZM156.79 78.1407H153.805C153.392 78.1407 153.058 77.8065 153.058 77.3942C153.058 76.9819 153.392 76.6477 153.805 76.6477H156.79C157.202 76.6477 157.536 76.9819 157.536 77.3942C157.54 77.5948 157.463 77.7885 157.323 77.9317C157.183 78.075 156.991 78.1557 156.79 78.1556V78.1407ZM162.761 78.1407H165.746V78.1556C165.947 78.1557 166.139 78.075 166.279 77.9317C166.42 77.7885 166.496 77.5948 166.492 77.3942C166.492 76.9819 166.158 76.6477 165.746 76.6477H162.761C162.349 76.6477 162.014 76.9819 162.014 77.3942C162.014 77.8065 162.349 78.1407 162.761 78.1407ZM174.702 78.1407H171.717C171.305 78.1407 170.971 77.8065 170.971 77.3942C170.971 76.9819 171.305 76.6477 171.717 76.6477H174.702C175.114 76.6477 175.449 76.9819 175.449 77.3942C175.453 77.5948 175.376 77.7885 175.235 77.9317C175.095 78.075 174.903 78.1557 174.702 78.1556V78.1407ZM180.673 78.1407H183.658V78.1556C183.859 78.1557 184.051 78.075 184.191 77.9317C184.332 77.7885 184.409 77.5948 184.405 77.3942C184.405 76.9819 184.071 76.6477 183.658 76.6477H180.673C180.261 76.6477 179.927 76.9819 179.927 77.3942C179.927 77.8065 180.261 78.1407 180.673 78.1407ZM192.615 78.1407H189.629C189.217 78.1407 188.883 77.8065 188.883 77.3942C188.883 76.9819 189.217 76.6477 189.629 76.6477H192.615C193.027 76.6477 193.361 76.9819 193.361 77.3942C193.365 77.5948 193.288 77.7885 193.148 77.9317C193.007 78.075 192.815 78.1557 192.615 78.1556V78.1407ZM198.585 78.1407H201.571V78.1556C201.771 78.1557 201.963 78.075 202.104 77.9317C202.244 77.7885 202.321 77.5948 202.317 77.3942C202.317 76.9819 201.983 76.6477 201.571 76.6477H198.585C198.173 76.6477 197.839 76.9819 197.839 77.3942C197.839 77.8065 198.173 78.1407 198.585 78.1407ZM210.527 78.1407H207.541C207.129 78.1407 206.795 77.8065 206.795 77.3942C206.795 76.9819 207.129 76.6477 207.541 76.6477H210.527C210.939 76.6477 211.273 76.9819 211.273 77.3942C211.277 77.5948 211.2 77.7885 211.06 77.9317C210.919 78.075 210.727 78.1557 210.527 78.1556V78.1407ZM216.498 78.1407H219.483V78.1556C219.683 78.1557 219.876 78.075 220.016 77.9317C220.156 77.7885 220.233 77.5948 220.229 77.3942C220.229 76.9819 219.895 76.6477 219.483 76.6477H216.498C216.085 76.6477 215.751 76.9819 215.751 77.3942C215.751 77.8065 216.085 78.1407 216.498 78.1407ZM228.439 78.1407H225.454C225.041 78.1407 224.707 77.8065 224.707 77.3942C224.707 76.9819 225.041 76.6477 225.454 76.6477H228.439C228.851 76.6477 229.185 76.9819 229.185 77.3942C229.189 77.5948 229.113 77.7885 228.972 77.9317C228.832 78.075 228.64 78.1557 228.439 78.1556V78.1407ZM234.41 78.1407H237.395V78.1556C237.596 78.1557 237.788 78.075 237.928 77.9317C238.069 77.7885 238.146 77.5948 238.142 77.3942C238.142 76.9819 237.807 76.6477 237.395 76.6477H234.41C233.998 76.6477 233.663 76.9819 233.663 77.3942C233.663 77.8065 233.998 78.1407 234.41 78.1407ZM246.351 78.1407H243.366C242.954 78.1407 242.62 77.8065 242.62 77.3942C242.62 76.9819 242.954 76.6477 243.366 76.6477H246.351C246.764 76.6477 247.098 76.9819 247.098 77.3942C247.102 77.5948 247.025 77.7885 246.884 77.9317C246.744 78.075 246.552 78.1557 246.351 78.1556V78.1407ZM252.322 78.1407H255.307V78.1556C255.508 78.1557 255.7 78.075 255.841 77.9317C255.981 77.7885 256.058 77.5948 256.054 77.3942C256.054 76.9819 255.72 76.6477 255.307 76.6477H252.322C251.91 76.6477 251.576 76.9819 251.576 77.3942C251.576 77.8065 251.91 78.1407 252.322 78.1407ZM264.264 78.1407H261.278C260.866 78.1407 260.532 77.8065 260.532 77.3942C260.532 76.9819 260.866 76.6477 261.278 76.6477H264.264C264.676 76.6477 265.01 76.9819 265.01 77.3942C265.014 77.5948 264.937 77.7885 264.797 77.9317C264.656 78.075 264.464 78.1557 264.264 78.1556V78.1407ZM270.234 78.1407H273.22V78.1556C273.42 78.1557 273.612 78.075 273.753 77.9317C273.893 77.7885 273.97 77.5948 273.966 77.3942C273.966 76.9819 273.632 76.6477 273.22 76.6477H270.234C269.822 76.6477 269.488 76.9819 269.488 77.3942C269.488 77.8065 269.822 78.1407 270.234 78.1407ZM282.176 78.1407H279.19C278.778 78.1407 278.444 77.8065 278.444 77.3942C278.444 76.9819 278.778 76.6477 279.19 76.6477H282.176C282.588 76.6477 282.922 76.9819 282.922 77.3942C282.926 77.5948 282.849 77.7885 282.709 77.9317C282.569 78.075 282.376 78.1557 282.176 78.1556V78.1407ZM288.147 78.1407H291.132V78.1556C291.333 78.1557 291.525 78.075 291.665 77.9317C291.806 77.7885 291.882 77.5948 291.878 77.3942C291.878 76.9819 291.544 76.6477 291.132 76.6477H288.147C287.734 76.6477 287.4 76.9819 287.4 77.3942C287.4 77.8065 287.734 78.1407 288.147 78.1407ZM300.088 78.1407H297.103C296.691 78.1407 296.356 77.8065 296.356 77.3942C296.356 76.9819 296.691 76.6477 297.103 76.6477H300.088C300.5 76.6477 300.835 76.9819 300.835 77.3942C300.839 77.5948 300.762 77.7885 300.621 77.9317C300.481 78.075 300.289 78.1557 300.088 78.1556V78.1407ZM306.059 78.1407H309.044V78.1556C309.245 78.1557 309.437 78.075 309.577 77.9317C309.718 77.7885 309.795 77.5948 309.791 77.3942C309.791 76.9819 309.456 76.6477 309.044 76.6477H306.059C305.647 76.6477 305.313 76.9819 305.313 77.3942C305.313 77.8065 305.647 78.1407 306.059 78.1407ZM318 78.1407H315.015C314.603 78.1407 314.269 77.8065 314.269 77.3942C314.269 76.9819 314.603 76.6477 315.015 76.6477H318C318.413 76.6477 318.747 76.9819 318.747 77.3942C318.751 77.5948 318.674 77.7885 318.534 77.9317C318.393 78.075 318.201 78.1557 318 78.1556V78.1407ZM323.971 78.1407H326.957V78.1556C327.157 78.1557 327.349 78.075 327.49 77.9317C327.63 77.7885 327.707 77.5948 327.703 77.3942C327.703 76.9819 327.369 76.6477 326.957 76.6477H323.971C323.559 76.6477 323.225 76.9819 323.225 77.3942C323.225 77.8065 323.559 78.1407 323.971 78.1407ZM335.913 78.1407H332.927C332.515 78.1407 332.181 77.8065 332.181 77.3942C332.181 76.9819 332.515 76.6477 332.927 76.6477H335.913C336.325 76.6477 336.659 76.9819 336.659 77.3942C336.663 77.5948 336.586 77.7885 336.446 77.9317C336.305 78.075 336.113 78.1557 335.913 78.1556V78.1407ZM341.883 78.1407H344.869V78.1556C345.069 78.1557 345.262 78.075 345.402 77.9317C345.542 77.7885 345.619 77.5948 345.615 77.3942C345.615 76.9819 345.281 76.6477 344.869 76.6477H341.883C341.471 76.6477 341.137 76.9819 341.137 77.3942C341.137 77.8065 341.471 78.1407 341.883 78.1407ZM353.825 78.1407H350.84C350.427 78.1407 350.093 77.8065 350.093 77.3942C350.093 76.9819 350.427 76.6477 350.84 76.6477H353.825C354.237 76.6477 354.571 76.9819 354.571 77.3942C354.575 77.5948 354.498 77.7885 354.358 77.9317C354.218 78.075 354.026 78.1557 353.825 78.1556V78.1407ZM359.796 78.1407H362.781V78.1556C362.982 78.1557 363.174 78.075 363.314 77.9317C363.455 77.7885 363.531 77.5948 363.527 77.3942C363.527 76.9819 363.193 76.6477 362.781 76.6477H359.796C359.384 76.6477 359.049 76.9819 359.049 77.3942C359.049 77.8065 359.384 78.1407 359.796 78.1407ZM371.737 78.1407H368.752C368.34 78.1407 368.006 77.8065 368.006 77.3942C368.006 76.9819 368.34 76.6477 368.752 76.6477H371.737C372.149 76.6477 372.484 76.9819 372.484 77.3942C372.488 77.5948 372.411 77.7885 372.27 77.9317C372.13 78.075 371.938 78.1557 371.737 78.1556V78.1407ZM377.708 78.1407H380.693V78.1556C380.894 78.1557 381.086 78.075 381.226 77.9317C381.367 77.7885 381.444 77.5948 381.44 77.3942C381.44 76.9819 381.106 76.6477 380.693 76.6477H377.708C377.296 76.6477 376.962 76.9819 376.962 77.3942C376.962 77.8065 377.296 78.1407 377.708 78.1407ZM389.65 78.1407H386.664C386.252 78.1407 385.918 77.8065 385.918 77.3942C385.918 76.9819 386.252 76.6477 386.664 76.6477H389.65C390.062 76.6477 390.396 76.9819 390.396 77.3942C390.4 77.5948 390.323 77.7885 390.183 77.9317C390.042 78.075 389.85 78.1557 389.65 78.1556V78.1407ZM395.62 78.1407H398.606V78.1556C398.806 78.1557 398.998 78.075 399.139 77.9317C399.279 77.7885 399.356 77.5948 399.352 77.3942C399.352 76.9819 399.018 76.6477 398.606 76.6477H395.62C395.208 76.6477 394.874 76.9819 394.874 77.3942C394.874 77.8065 395.208 78.1407 395.62 78.1407ZM407.562 78.1407H404.576C404.164 78.1407 403.83 77.8065 403.83 77.3942C403.83 76.9819 404.164 76.6477 404.576 76.6477H407.562C407.974 76.6477 408.308 76.9819 408.308 77.3942C408.312 77.5948 408.235 77.7885 408.095 77.9317C407.954 78.075 407.762 78.1557 407.562 78.1556V78.1407ZM413.533 78.1407H416.518V78.1556C416.719 78.1557 416.911 78.075 417.051 77.9317C417.191 77.7885 417.268 77.5948 417.264 77.3942C417.264 76.9819 416.93 76.6477 416.518 76.6477H413.533C413.12 76.6477 412.786 76.9819 412.786 77.3942C412.786 77.8065 413.12 78.1407 413.533 78.1407ZM425.474 78.1407H422.489C422.077 78.1407 421.742 77.8065 421.742 77.3942C421.742 76.9819 422.077 76.6477 422.489 76.6477H425.474C425.886 76.6477 426.22 76.9819 426.22 77.3942C426.224 77.5948 426.148 77.7885 426.007 77.9317C425.867 78.075 425.675 78.1557 425.474 78.1556V78.1407ZM431.445 78.1407H434.43V78.1556C434.631 78.1557 434.823 78.075 434.963 77.9317C435.104 77.7885 435.181 77.5948 435.177 77.3942C435.177 76.9819 434.842 76.6477 434.43 76.6477H431.445C431.033 76.6477 430.698 76.9819 430.698 77.3942C430.698 77.8065 431.033 78.1407 431.445 78.1407ZM443.386 78.1407H440.401C439.989 78.1407 439.655 77.8065 439.655 77.3942C439.655 76.9819 439.989 76.6477 440.401 76.6477H443.386C443.799 76.6477 444.133 76.9819 444.133 77.3942C444.137 77.5948 444.06 77.7885 443.919 77.9317C443.779 78.075 443.587 78.1557 443.386 78.1556V78.1407ZM449.357 78.1407H452.342V78.1556C452.543 78.1557 452.735 78.075 452.876 77.9317C453.016 77.7885 453.093 77.5948 453.089 77.3942C453.089 76.9819 452.755 76.6477 452.342 76.6477H449.357C448.945 76.6477 448.611 76.9819 448.611 77.3942C448.611 77.8065 448.945 78.1407 449.357 78.1407ZM461.299 78.1407H458.313C457.901 78.1407 457.567 77.8065 457.567 77.3942C457.567 76.9819 457.901 76.6477 458.313 76.6477H461.299C461.711 76.6477 462.045 76.9819 462.045 77.3942C462.049 77.5948 461.972 77.7885 461.832 77.9317C461.691 78.075 461.499 78.1557 461.299 78.1556V78.1407ZM467.269 78.1407H470.255V78.1556C470.655 78.1477 470.978 77.8248 470.986 77.4241C470.994 77.2235 470.921 77.0282 470.784 76.8821C470.646 76.736 470.455 76.6516 470.255 76.6477H467.269C466.857 76.6477 466.523 76.9819 466.523 77.3942C466.523 77.8065 466.857 78.1407 467.269 78.1407ZM478.927 80.0965C478.829 80.1162 478.727 80.1162 478.629 80.0965C477.752 79.7061 476.849 79.3769 475.927 79.1111C475.734 79.0559 475.571 78.9249 475.475 78.7478C475.379 78.5708 475.359 78.3626 475.419 78.1705C475.541 77.7808 475.954 77.5613 476.345 77.6779C477.331 77.9659 478.298 78.3149 479.241 78.723C479.609 78.8984 479.774 79.3329 479.614 79.7083C479.472 79.9491 479.206 80.0881 478.927 80.0666V80.0965ZM485.704 84.9487C485.841 85.1016 486.036 85.1885 486.241 85.1876L486.182 85.2174C486.477 85.206 486.738 85.0252 486.853 84.7535C486.968 84.4818 486.916 84.1681 486.719 83.9484C486.001 83.2105 485.238 82.5174 484.435 81.8731C484.108 81.6788 483.688 81.7556 483.451 82.053C483.214 82.3503 483.233 82.7771 483.495 83.0526C484.272 83.6351 485.01 84.2685 485.704 84.9487ZM491.108 92.6525C490.805 92.6551 490.532 92.4711 490.421 92.1897C490.055 91.2969 489.632 90.4291 489.152 89.5919C488.958 89.2277 489.082 88.7751 489.436 88.5617C489.794 88.3604 490.248 88.4872 490.451 88.8454C490.958 89.741 491.407 90.6686 491.794 91.6223C491.873 91.8042 491.874 92.01 491.798 92.1929C491.722 92.3758 491.575 92.5201 491.391 92.5928C491.302 92.634 491.205 92.6545 491.108 92.6525ZM492.809 101.386C492.397 101.386 492.063 101.052 492.063 100.64C492.063 99.6767 492.003 98.7144 491.884 97.7585C491.831 97.3505 492.118 96.9766 492.526 96.9224C492.929 96.8854 493.293 97.165 493.362 97.5644C493.486 98.5849 493.551 99.6119 493.556 100.64C493.556 100.838 493.477 101.028 493.337 101.168C493.197 101.308 493.007 101.386 492.809 101.386Z" fill="#263238"/>
<path fill-rule="evenodd" clip-rule="evenodd" d="M404.088 171.419C418.701 135.554 453.477 112.026 492.197 111.808C545.048 111.51 588.14 154.109 588.461 206.97C588.696 245.699 565.58 280.754 529.895 295.788C494.21 310.822 452.985 302.873 425.445 275.648C397.905 248.423 389.476 207.285 404.088 171.419ZM415.908 207.986C416.147 250.425 450.737 284.635 493.168 284.396C513.544 284.282 533.04 276.076 547.367 261.584C561.694 247.091 569.679 227.5 569.563 207.12C569.324 164.681 534.733 130.472 492.303 130.711C449.872 130.95 415.67 165.548 415.908 207.986Z" fill="white"/>
<path fill-rule="evenodd" clip-rule="evenodd" d="M395.986 207.784C396.13 261.075 439.44 304.159 492.72 304.014H493.272C546.552 303.87 589.628 260.552 589.483 207.262C589.339 153.971 546.03 110.887 492.75 111.031H492.197C438.917 111.176 395.842 154.493 395.986 207.784ZM492.168 112.524H492.72H492.75C545.206 112.38 587.846 154.795 587.991 207.262C588.135 259.728 545.728 302.377 493.272 302.521H492.72C458.787 302.62 427.379 284.605 410.327 255.261C393.275 225.918 393.17 189.705 410.051 160.263C426.932 130.821 458.234 112.623 492.168 112.524ZM492.72 285.113C450.98 283.702 417.84 249.51 417.723 207.739C417.606 165.967 450.556 131.592 492.287 129.947H492.72C534.459 131.359 567.6 165.55 567.717 207.322C567.833 249.093 534.884 283.469 493.153 285.113H492.72ZM566.252 207.322C566.368 248.279 534.07 281.991 493.153 283.62H492.72C451.794 282.224 419.305 248.697 419.188 207.739C419.072 166.781 451.37 133.069 492.287 131.44H492.72C533.646 132.837 566.135 166.364 566.252 207.322Z" fill="#263238"/>
<path fill-rule="evenodd" clip-rule="evenodd" d="M404.061 165.933C418.675 130.071 453.449 106.546 492.167 106.328C545.03 106.031 588.127 148.648 588.431 201.521C588.654 240.247 565.531 275.293 529.845 290.318C494.159 305.342 452.938 297.385 425.404 270.158C397.87 242.931 389.447 201.795 404.061 165.933ZM421.88 231.873C433.937 260.521 462.061 279.083 493.138 278.902C535.558 278.656 569.75 244.069 569.519 201.64C569.349 170.558 550.475 142.639 521.698 130.903C492.921 119.168 459.91 125.927 438.06 148.03C416.209 170.132 409.823 203.224 421.88 231.873Z" fill="white"/>
<path fill-rule="evenodd" clip-rule="evenodd" d="M396.747 202.175C396.671 255.271 439.604 298.398 492.69 298.55H493.242C546.328 298.398 589.261 255.271 589.185 202.175C589.109 149.078 546.052 106.075 492.966 106.075C439.88 106.075 396.824 149.078 396.747 202.175ZM492.138 107.075H492.69C544.69 107.568 586.626 149.795 586.769 201.808C586.912 253.821 545.209 296.278 493.212 297.057H492.66C440.66 296.564 398.724 254.337 398.581 202.324C398.438 150.311 440.141 107.854 492.138 107.075ZM492.69 279.649C450.951 278.233 417.814 244.039 417.701 202.267C417.589 160.496 450.541 126.124 492.272 124.483H492.72C534.459 125.899 567.596 160.093 567.709 201.864C567.821 243.636 534.869 278.008 493.138 279.649H492.69ZM492.242 125.976H492.69C533.616 127.377 566.101 160.907 566.214 201.865C566.326 242.822 534.025 276.531 493.108 278.156H492.66C451.734 276.755 419.249 243.225 419.136 202.267C419.024 161.31 451.325 127.601 492.242 125.976Z" fill="#263238"/>
<path d="M484.229 300.439C484.213 298.848 485.49 297.546 487.08 297.53L504.487 297.356C506.078 297.34 507.38 298.617 507.396 300.207L508.192 379.816C508.208 381.407 506.931 382.709 505.341 382.725L487.934 382.899C486.343 382.915 485.041 381.639 485.025 380.048L484.229 300.439Z" fill="#B2D235"/>
<path fill-rule="evenodd" clip-rule="evenodd" d="M482.002 381.097C482.027 383.871 484.274 386.112 487.048 386.128L487.122 386.158L501.676 386.084C504.461 386.051 506.7 383.779 506.691 380.993L506.258 304.238C506.259 302.897 505.722 301.611 504.766 300.67C503.807 299.732 502.524 299.198 501.183 299.177L486.63 299.267C485.288 299.266 484.003 299.804 483.062 300.76C482.111 301.71 481.574 302.998 481.569 304.343L482.002 381.097ZM486.615 300.76L501.183 300.67V300.64C502.121 300.654 503.016 301.034 503.676 301.7C504.344 302.364 504.72 303.267 504.721 304.208L505.154 380.978C505.162 382.942 503.581 384.544 501.616 384.561L487.062 384.635C486.127 384.64 485.229 384.269 484.57 383.605C483.9 382.941 483.519 382.04 483.51 381.097L483.077 304.328C483.075 303.384 483.445 302.477 484.107 301.805C484.77 301.136 485.673 300.76 486.615 300.76Z" fill="#263238"/>
<path d="M503.631 488.786L484.062 488.906C481.168 488.921 478.387 487.787 476.329 485.751C474.272 483.716 473.107 480.946 473.091 478.052V363.465C473.079 361.204 473.966 359.031 475.556 357.424C477.146 355.817 479.309 354.907 481.569 354.895L505.885 354.776C508.147 354.76 510.322 355.645 511.93 357.237C513.537 358.828 514.445 360.994 514.453 363.256V477.843C514.478 483.85 509.638 488.745 503.631 488.786Z" fill="#263238"/>
<path fill-rule="evenodd" clip-rule="evenodd" d="M472.345 478.052C472.386 484.462 477.593 489.637 484.002 489.637H484.017L503.587 489.533C506.674 489.517 509.63 488.275 511.802 486.08C513.974 483.884 515.186 480.916 515.17 477.828V363.226C515.145 358.126 511 354.006 505.9 354.014L481.554 354.149C476.441 354.182 472.32 358.35 472.345 363.465V478.052ZM481.554 355.642L505.885 355.507C510.163 355.507 513.638 358.963 513.662 363.241V477.828C513.678 480.523 512.622 483.114 510.726 485.029C508.831 486.945 506.251 488.028 503.557 488.04L483.988 488.144C478.402 488.144 473.863 483.638 473.822 478.052V363.465C473.81 361.402 474.618 359.419 476.068 357.952C477.519 356.485 479.492 355.654 481.554 355.642Z" fill="#263238"/>
</svg>
