<svg width="18" height="16" viewBox="0 0 18 16" fill="none" xmlns="http://www.w3.org/2000/svg">
<path fill-rule="evenodd" clip-rule="evenodd" d="M11.9139 0.5H15.4997C16.6043 0.5 17.4997 1.39543 17.4997 2.5V6.08579C17.4997 6.351 17.3943 6.60536 17.2068 6.79289L10.4139 13.5858C9.63286 14.3668 8.36653 14.3668 7.58548 13.5858L4.41391 10.4142C3.63286 9.63316 3.63286 8.36683 4.41391 7.58579L11.2068 0.792893C11.3943 0.605357 11.6487 0.5 11.9139 0.5V0.5Z" stroke="black" stroke-linecap="round" stroke-linejoin="round"/>
<path d="M7.49908 13.5L5.48612 14.5065C4.49816 15.0005 3.29682 14.6 2.80284 13.6121C2.77156 13.5495 2.74359 13.4854 2.71903 13.4199L1.10419 9.11363C0.756431 8.18627 1.13978 7.14406 2.00556 6.66307L9.49908 2.5" stroke="black" stroke-linecap="round" stroke-linejoin="round"/>
<rect x="14" y="2" width="2" height="2" rx="1" fill="black"/>
</svg>
