<svg width="18" height="16" viewBox="0 0 18 16" fill="none" xmlns="http://www.w3.org/2000/svg">
<path fill-rule="evenodd" clip-rule="evenodd" d="M11.9142 0.5H15.4999C16.6045 0.5 17.4999 1.39543 17.4999 2.5V6.08579C17.4999 6.351 17.3946 6.60536 17.207 6.79289L10.4142 13.5858C9.63311 14.3668 8.36678 14.3668 7.58573 13.5858L4.41416 10.4142C3.63311 9.63316 3.63311 8.36683 4.41416 7.58579L11.207 0.792893C11.3946 0.605357 11.6489 0.5 11.9142 0.5V0.5Z" stroke="#D8D8D8" stroke-linecap="round" stroke-linejoin="round"/>
<path d="M7.50006 13.5L5.48709 14.5065C4.49914 15.0005 3.29779 14.6 2.80381 13.6121C2.77254 13.5495 2.74456 13.4854 2.72001 13.4199L1.10517 9.11363C0.757408 8.18627 1.14076 7.14406 2.00654 6.66307L9.50006 2.5" stroke="#D8D8D8" stroke-linecap="round" stroke-linejoin="round"/>
<rect x="14" y="2" width="2" height="2" rx="1" fill="#D8D8D8"/>
</svg>
