<svg width="16" height="21" viewBox="0 0 16 21" fill="none" xmlns="http://www.w3.org/2000/svg">
<path fill-rule="evenodd" clip-rule="evenodd" d="M1.94726 3.76936C2.02251 5.29319 2.66802 6.51202 3.76172 7.16179C4.27526 7.46684 4.85083 7.61937 5.42659 7.61937C6.00225 7.61937 6.57801 7.46679 7.0914 7.16179C8.31291 6.43618 8.97533 5.00069 8.90884 3.22339C8.84038 1.3959 7.55003 0.370172 6.17418 0.0687109C6.15894 0.0641121 5.98999 0.0366151 5.80843 0.0127109C5.67487 -0.00486993 5.21308 -0.00635496 4.98558 0.0219564C4.8571 0.0379085 4.72733 0.0573097 4.63435 0.0787708C3.2753 0.392591 2.01197 1.41578 1.94438 3.22339C1.93792 3.3958 1.93835 3.56485 1.94544 3.73046C1.94553 3.74354 1.94615 3.75647 1.94726 3.76936ZM6.60206 6.33812C5.87703 6.76888 4.97614 6.76888 4.25111 6.33812C3.57159 5.93439 3.12532 5.20701 2.96465 4.27527C3.68374 4.29247 4.39554 4.06996 4.98644 3.63202C5.05317 3.58258 5.11789 3.53075 5.18069 3.47657C5.93887 4.12912 6.93451 4.39963 7.89696 4.22531C7.74376 5.181 7.29375 5.92725 6.60206 6.33812ZM7.95018 3.22996C7.89839 2.14287 7.24876 1.46133 6.44005 1.14359C6.32963 1.75024 6.11645 2.29525 5.81193 2.75551C6.40857 3.26426 7.20728 3.44275 7.95018 3.22996ZM2.90184 3.25927C2.95942 1.71954 4.20853 0.983489 5.42673 0.934435C5.45226 0.935441 5.47784 0.936831 5.50342 0.938459C5.3588 1.77041 4.98093 2.44371 4.41605 2.86234C3.97413 3.18976 3.43703 3.3466 2.90007 3.31374C2.9006 3.29554 2.90112 3.27748 2.90184 3.25927ZM15.6101 16.0115C15.6101 15.9872 15.6083 15.9542 15.6048 15.9309C15.8174 15.882 15.976 15.6825 15.976 15.4548C15.976 15.1902 15.7615 14.9691 15.497 14.9691H15.1872L15.1871 12.6486C15.1877 12.6215 15.186 12.5972 15.1818 12.5696C15.1463 12.3354 14.945 12.1638 14.708 12.1638C14.6574 12.1638 14.6132 12.1727 14.566 12.1879L12.2751 12.8985V12.4444C12.2751 12.1798 12.0606 11.9653 11.7961 11.9653C11.5315 11.9653 11.317 12.1798 11.317 12.4444V13.1946L8.73193 13.9937C8.53126 14.0557 8.39487 14.2413 8.39487 14.4514V16.7896H8.07291C7.80833 16.7896 7.59387 17.0039 7.59387 17.2685C7.59387 17.496 7.75248 17.6863 7.96512 17.7353C7.96163 17.7586 7.95981 17.7825 7.95981 17.8069C7.95986 18.0714 8.17437 18.2858 8.43894 18.2858L9.28489 18.2856C9.54941 18.2856 9.76388 18.0711 9.76383 17.8065C9.76383 17.7822 9.76201 17.7584 9.75856 17.7351C9.97116 17.6862 10.1298 17.496 10.1298 17.2685C10.1298 17.0039 9.91526 16.7897 9.65073 16.7897H9.35296V14.8048L11.317 14.1975V19.089H10.7881C10.5235 19.089 10.3091 19.3035 10.3091 19.5681C10.3091 19.8326 10.5236 20.0471 10.7881 20.0471H11.7783H11.7851H11.792H12.7819C13.0465 20.0471 13.2609 19.8326 13.2609 19.5681C13.2609 19.3035 13.0464 19.089 12.7819 19.089H12.2752V13.9013L14.2345 13.2875L14.2292 14.9693H13.9194C13.6549 14.9693 13.4404 15.1904 13.4404 15.4549C13.4404 15.6824 13.5988 15.8761 13.8114 15.925C13.808 15.9484 13.8062 15.9856 13.8062 16.0099C13.8062 16.2745 14.0207 16.5022 14.2853 16.5022H15.1311C15.3956 16.5022 15.6101 16.276 15.6101 16.0115ZM3.61859 9.98004L4.98237 13.3616C5.05542 13.5428 5.23123 13.6615 5.42663 13.6615C5.62199 13.6615 5.79784 13.5428 5.8709 13.3616L7.23712 9.97415C7.8948 10.3007 8.43128 10.8338 8.66012 11.6052C8.73538 11.8588 9.00182 12.0034 9.25566 11.9282C9.50932 11.8529 9.65389 11.5863 9.57863 11.3326C9.30975 10.4264 8.70338 9.69051 7.8252 9.20452C7.05236 8.77683 6.10002 8.56931 5.14318 8.61951C4.21427 8.66842 3.32637 8.96198 2.64311 9.44605C1.86036 10.0005 1.35602 10.7831 1.18448 11.7092L0.0553762 17.8042C0.02946 17.9442 0.0671127 18.0884 0.158131 18.1978C0.249149 18.3072 0.384143 18.3705 0.526418 18.3705L5.84321 18.3704C6.10778 18.3704 6.32225 18.1558 6.32225 17.8913C6.32225 17.6267 6.10774 17.4123 5.84321 17.4123L1.10232 17.4124L2.12656 11.8838C2.30026 10.9456 2.90227 10.3365 3.61859 9.98004ZM6.32929 9.66363C5.95305 9.5844 5.56599 9.55676 5.19363 9.5763C4.97753 9.5877 4.7519 9.61693 4.52503 9.66608L5.42663 11.9017L6.32929 9.66363Z" fill="#222222"/>
</svg>
