<svg width="16" height="16" viewBox="0 0 16 16" fill="none" xmlns="http://www.w3.org/2000/svg">
<path fill-rule="evenodd" clip-rule="evenodd" d="M15.3878 7.98969C15.1086 7.95407 14.8603 7.91986 14.6382 7.88596V6.9689L14.8822 7.16858C15.1667 7.40128 15.5858 7.35936 15.8185 7.07495C16.0512 6.79053 16.0093 6.37135 15.7249 6.13865L8.40586 0.150347C8.40312 0.148103 8.40029 0.146049 8.39744 0.143992L8.39096 0.139181C8.38341 0.133349 8.37586 0.127579 8.36812 0.122121C8.35952 0.116039 8.35078 0.110331 8.34196 0.104717L8.33988 0.103391L8.33984 0.103366C8.33247 0.0986682 8.32511 0.0939762 8.31757 0.0896218C8.30935 0.0848518 8.30097 0.080479 8.29261 0.0761129L8.29258 0.0760974L8.29046 0.0749942L8.2874 0.0733989C8.28004 0.0695571 8.27268 0.065717 8.26517 0.0622378C8.25609 0.0580123 8.24685 0.054254 8.23759 0.0504826L8.23666 0.0501053L8.23113 0.0478188L8.23112 0.0478148C8.22448 0.045062 8.21785 0.0423158 8.21109 0.0398752C8.20238 0.0367185 8.19355 0.0340128 8.18471 0.0313026L8.18083 0.0301131L8.17359 0.0278365L8.17358 0.0278317C8.16763 0.0259481 8.16171 0.0240681 8.1557 0.0224717C8.14672 0.0200735 8.13766 0.0181657 8.12859 0.0162547L8.12289 0.0150487L8.11495 0.0132882L8.11494 0.0132867C8.10972 0.0121067 8.1045 0.0109277 8.09924 0.0099961C8.08812 0.00804385 8.07691 0.00674 8.06573 0.00543785L8.06176 0.00497466L8.05409 0.00395135C8.05009 0.00338655 8.04609 0.00282247 8.04207 0.00247953C8.00374 -0.000826511 7.96522 -0.000826511 7.92689 0.00247953C7.92287 0.00282249 7.91888 0.0033866 7.91487 0.00395144L7.90721 0.00497466L7.90349 0.00540844C7.8922 0.0067204 7.88094 0.00802915 7.86972 0.0099961C7.86446 0.0109077 7.85924 0.0120945 7.85401 0.0132822L7.84608 0.0150487L7.84038 0.0162552C7.8313 0.0181661 7.82224 0.0200737 7.81327 0.0224717C7.80714 0.0240996 7.80108 0.0260226 7.79503 0.0279435L7.78813 0.0301131L7.78387 0.0314251C7.77518 0.0340945 7.76648 0.036766 7.75788 0.0398752C7.75109 0.0423366 7.74439 0.0451087 7.73768 0.0478851L7.7323 0.0501053L7.73077 0.0507327L7.73076 0.0507353C7.72173 0.0544222 7.71271 0.0581066 7.7038 0.0622378C7.69629 0.0657156 7.68893 0.0695541 7.68157 0.0733944L7.6785 0.0749942C7.6694 0.0797037 7.66032 0.0844444 7.6514 0.0896218C7.64317 0.0943938 7.63509 0.09954 7.62701 0.104717C7.61821 0.110331 7.60945 0.116039 7.60084 0.122121C7.59311 0.127579 7.58556 0.133349 7.57801 0.139181L7.57185 0.143732C7.5689 0.145865 7.56595 0.147998 7.5631 0.150347L0.244055 6.13865C-0.0403583 6.37135 -0.0822765 6.79053 0.150425 7.07495C0.383127 7.35936 0.802308 7.40128 1.08672 7.16858L1.33074 6.9689V15.3034C1.33074 15.6708 1.62863 15.9687 1.9961 15.9687H12.642C12.7622 15.9687 12.8676 15.9412 12.9573 15.8945C13.0605 15.8544 13.1142 15.8334 13.1733 15.8096C13.5416 15.6612 13.8057 15.5236 14.0629 15.3212C15.2036 14.4248 15.9688 12.7246 15.9688 11.1734V8.64972C15.969 8.31478 15.72 8.03205 15.3878 7.98969ZM2.66161 14.6379V6.28705L7.98456 1.55554L13.3075 6.28705V7.57865C13.1871 7.53259 13.0904 7.48437 13.0155 7.43362C13.013 7.43191 13.0104 7.43028 13.0078 7.42868C13.0058 7.4274 13.0037 7.42615 13.0017 7.4249L12.9945 7.42052C12.9872 7.41597 12.9801 7.4111 12.9726 7.40683C12.9678 7.40411 12.963 7.40164 12.9581 7.39917L12.9581 7.39916L12.9508 7.39542C12.9432 7.39145 12.9358 7.38718 12.9281 7.38353C12.9232 7.38124 12.9184 7.3792 12.9135 7.37716L12.9058 7.37393L12.8986 7.37077C12.8932 7.36835 12.8878 7.36593 12.8823 7.36379C12.8777 7.36201 12.873 7.36046 12.8683 7.3589L12.8607 7.35634C12.8523 7.3534 12.8439 7.35022 12.8355 7.34763C12.8285 7.34551 12.8215 7.34398 12.8145 7.34211L12.8064 7.33992C12.8002 7.3382 12.7941 7.33649 12.7878 7.3351C12.7834 7.33411 12.7789 7.33334 12.7745 7.33257L12.7666 7.33117L12.7589 7.32966C12.7548 7.32885 12.7507 7.32803 12.7466 7.3273C12.7443 7.32688 12.7419 7.32649 12.7396 7.32614C12.737 7.32577 12.7344 7.32546 12.7318 7.32518C12.7299 7.32498 12.728 7.3248 12.7262 7.32462L12.7183 7.32381L12.7107 7.32288L12.7107 7.32288C12.7041 7.32207 12.6975 7.32125 12.6909 7.32078C12.6869 7.32048 12.6829 7.32038 12.6789 7.32029L12.6709 7.32003L12.6629 7.31966C12.6559 7.31931 12.649 7.31897 12.642 7.31897C12.6376 7.31897 12.6333 7.31918 12.6289 7.31939L12.6213 7.31972L12.614 7.31991C12.607 7.32007 12.6001 7.32024 12.5931 7.32075C12.5878 7.32113 12.5826 7.32178 12.5773 7.32243L12.5698 7.32334L12.5613 7.32421C12.5557 7.32476 12.55 7.32531 12.5444 7.32614C12.5387 7.32699 12.533 7.32813 12.5272 7.32928C12.5247 7.32978 12.5222 7.33028 12.5197 7.33076L12.5116 7.3322C12.5064 7.33309 12.5013 7.33398 12.4962 7.33513C12.4922 7.33602 12.4883 7.3371 12.4844 7.33818C12.482 7.33884 12.4796 7.3395 12.4773 7.34012L12.4695 7.34208C12.4654 7.3431 12.4613 7.34412 12.4572 7.34522C12.4543 7.346 12.4514 7.34681 12.4485 7.3477C12.4455 7.34861 12.4426 7.34968 12.4396 7.35075L12.433 7.35306L12.428 7.35472C12.4192 7.35761 12.4104 7.3605 12.4017 7.36385C12.397 7.36569 12.3924 7.36775 12.3878 7.36982C12.3852 7.37095 12.3827 7.37208 12.3801 7.37318L12.3725 7.37638C12.367 7.37869 12.3614 7.381 12.356 7.38359C12.3508 7.38605 12.3458 7.38877 12.3407 7.39149L12.3329 7.3957L12.3256 7.39942C12.3208 7.40183 12.3161 7.40423 12.3115 7.40689C12.2968 7.41528 12.2825 7.42423 12.2684 7.43381C11.9225 7.66869 11.2875 7.81223 9.89651 7.98963C9.56429 8.03198 9.31531 8.31471 9.31531 8.64965V11.3111C9.31531 11.3545 9.31609 11.3979 9.3173 11.4413L9.31836 11.4714L9.31874 11.4812C9.31986 11.5122 9.32123 11.5431 9.32295 11.574L9.32551 11.6175C9.32763 11.6503 9.33012 11.683 9.3329 11.7158L9.33561 11.7489C9.33957 11.7922 9.34406 11.8354 9.34918 11.8787L9.3528 11.9069C9.35704 11.9411 9.36156 11.9753 9.36649 12.0095L9.37291 12.0523C9.37759 12.0828 9.38255 12.1133 9.38779 12.1438L9.3949 12.185C9.40176 12.2232 9.40903 12.2613 9.41677 12.2993L9.4197 12.3144C9.42855 12.3573 9.43804 12.4001 9.44795 12.4428L9.45691 12.48C9.46433 12.511 9.472 12.5419 9.47998 12.5727L9.49118 12.6153C9.49951 12.6465 9.50818 12.6775 9.5171 12.7086L9.5272 12.7439C9.53959 12.786 9.55244 12.828 9.56585 12.8698L9.57268 12.8904C9.58409 12.9255 9.59585 12.9605 9.60798 12.9953L9.6223 13.0356C9.63272 13.0648 9.64338 13.0939 9.6543 13.123L9.66952 13.1632C9.68243 13.1968 9.69572 13.2302 9.70929 13.2635L9.71849 13.2864C9.73524 13.3269 9.75251 13.3672 9.7702 13.4073C9.77497 13.4182 9.77996 13.4289 9.7848 13.4397C9.79814 13.4694 9.81168 13.499 9.82553 13.5284L9.84452 13.5683C9.85815 13.5967 9.87206 13.6249 9.88619 13.653L9.89228 13.6652L9.90378 13.6881C9.92371 13.727 9.94398 13.7658 9.96479 13.8042L9.97006 13.8137C9.98927 13.849 10.0089 13.8841 10.0289 13.9189L10.0497 13.9544C10.0652 13.9811 10.081 14.0077 10.0971 14.034L10.1197 14.071C10.1375 14.0998 10.1556 14.1283 10.174 14.1567L10.1901 14.1819C10.2139 14.2182 10.238 14.2541 10.2626 14.2897L10.269 14.2988L10.2806 14.3154C10.2997 14.3426 10.3189 14.3696 10.3384 14.3964L10.3639 14.4311C10.3822 14.4557 10.4007 14.4801 10.4193 14.5044L10.4439 14.5363C10.4692 14.5686 10.4947 14.6005 10.5207 14.6321L10.5247 14.637L10.5254 14.6379H2.66161ZM13.2404 14.2752C14.0485 13.6402 14.6382 12.3298 14.6382 11.1734H14.6381V9.23158C13.6881 9.09594 13.0988 8.96282 12.642 8.74759L12.6222 8.75673L12.6015 8.7663L12.5785 8.77653L12.5574 8.78586L12.5342 8.79574L12.5124 8.80498L12.4892 8.81446L12.4666 8.82366L12.4428 8.83292L12.4198 8.84187L12.3949 8.85117L12.3721 8.85968L12.3467 8.86879L12.3232 8.87715L12.2979 8.88582L12.2733 8.89421L12.247 8.90281L12.2224 8.91086L12.1951 8.91944L12.1702 8.92724L12.1421 8.93569L12.117 8.94324L12.0882 8.95153L12.0623 8.95896L12.033 8.96706L12.0065 8.97436L11.9763 8.98238L11.9494 8.98949L11.9192 8.99716L11.8907 9.0044L11.8601 9.01188L11.8309 9.01899L11.7988 9.02651L11.7694 9.03337L11.7354 9.04105L11.7067 9.0475L11.6725 9.05492L11.642 9.06154L11.6086 9.06852L11.5761 9.07529L11.5383 9.0829L11.5087 9.08886L11.465 9.09734L11.4396 9.10227L11.3947 9.11069L11.3685 9.11562L11.3237 9.12373L11.2958 9.12878L11.2473 9.13726L11.2213 9.14182L11.173 9.15005L11.1449 9.15482L11.0957 9.16293L11.0667 9.16774L11.0064 9.1774L10.9867 9.18055L10.93 9.18941L10.9044 9.1934L10.8468 9.20214L10.8204 9.20616L10.75 9.21658L10.7343 9.21892L10.646 9.23167V11.3112C10.646 12.4334 11.2104 13.6203 12.0449 14.276C12.1824 14.3845 12.3455 14.4695 12.6059 14.5745L12.6388 14.5876L12.6421 14.5889L12.6763 14.5752C12.9377 14.4699 13.1013 14.3847 13.2404 14.2752Z" fill="#222222"/>
</svg>
