<svg width="14" height="14" viewBox="0 0 14 14" fill="none" xmlns="http://www.w3.org/2000/svg">
<path fill-rule="evenodd" clip-rule="evenodd" d="M0.0318989 7.11443C-0.0211467 3.18704 3.18509 -0.0191936 7.11247 0.033852C10.879 0.0862261 13.946 3.15313 13.9977 6.92037C14.0514 10.8478 10.8458 14.054 6.91775 14.0003C3.15118 13.9479 0.084273 10.881 0.0318989 7.11443ZM8.27948 4.51486L6.54878 6.49567C6.42248 6.64021 6.38288 6.84115 6.4449 7.02279C6.50692 7.20444 6.66113 7.3392 6.84945 7.37632C7.03778 7.41343 7.23159 7.34726 7.35789 7.20272L9.08859 5.22191C9.28384 4.99848 9.26099 4.65907 9.03756 4.46383C8.81413 4.26858 8.47472 4.29143 8.27948 4.51486ZM5.24413 9.54579C5.03438 9.75541 4.69445 9.75541 4.4847 9.54579L2.87487 7.93428C2.73921 7.79851 2.6863 7.60067 2.73606 7.4153C2.78581 7.22992 2.93069 7.08518 3.1161 7.03558C3.30152 6.98599 3.49931 7.03908 3.63497 7.17486L5.24648 8.78637C5.45544 8.99677 5.45439 9.33669 5.24413 9.54579ZM7.4237 9.51927L11.1799 5.22191H11.1809C11.3761 4.99848 11.3533 4.65907 11.1298 4.46383C10.9064 4.26858 10.567 4.29143 10.3718 4.51486L7.18231 8.16292C7.13336 8.21889 7.0634 8.25207 6.98908 8.25455C6.91476 8.25704 6.84274 8.2286 6.79017 8.17601L5.78969 7.17452C5.57998 6.96463 5.23983 6.96448 5.02993 7.17419C4.82004 7.3839 4.81989 7.72405 5.0296 7.93395L6.63909 9.54546C6.73986 9.6463 6.87658 9.70294 7.01914 9.70292H7.03727C7.18595 9.69785 7.32588 9.63136 7.4237 9.51927Z" fill="#B2D235"/>
</svg>
