<svg width="24" height="16" viewBox="0 0 24 16" fill="none" xmlns="http://www.w3.org/2000/svg">
<path fill-rule="evenodd" clip-rule="evenodd" d="M22.9091 8.20353C23.0291 8.20353 23.1413 8.26283 23.2091 8.36189C23.277 8.46098 23.2915 8.58705 23.2479 8.69891C22.7859 9.88745 20.9368 10.7174 18.7517 10.7174C16.5667 10.7174 14.7177 9.88745 14.2557 8.69891C14.212 8.58705 14.2265 8.46098 14.2944 8.36189C14.3622 8.26283 14.4744 8.20353 14.5944 8.20353H15.3372L18.1414 3.02171H12V13.6797H14.1683C14.2326 13.6797 14.2958 13.6968 14.3512 13.7291L16.8828 15.2039C17.0248 15.2866 17.0937 15.4542 17.0511 15.613C17.0081 15.7717 16.8643 15.8818 16.6999 15.8818H6.57207C6.40764 15.8818 6.26382 15.7717 6.22087 15.613C6.17826 15.4542 6.24713 15.2866 6.38917 15.2039L8.92149 13.7291C8.97691 13.6968 9.04011 13.6797 9.10437 13.6797H11.2727V3.02171H5.13873L8.01142 8.20353H8.67826C8.79826 8.20353 8.91047 8.26283 8.97833 8.36189C9.04615 8.46098 9.06069 8.58705 9.01702 8.69891C8.55502 9.88745 6.70593 10.7174 4.52127 10.7174C2.33593 10.7174 0.486838 9.88745 0.0248384 8.69891C-0.0188343 8.58705 -0.00428885 8.46098 0.0635293 8.36189C0.131384 8.26283 0.243602 8.20353 0.363602 8.20353H1.10669L4.20132 2.48513C4.21786 2.45469 4.23862 2.4276 4.26233 2.40353C4.26426 2.40159 4.26644 2.40002 4.26862 2.39845L4.26862 2.39844C4.27054 2.39706 4.27247 2.39567 4.27422 2.39403C4.30113 2.36894 4.33157 2.34912 4.36451 2.33323C4.3748 2.32818 4.38473 2.32378 4.39567 2.31974C4.43509 2.30509 4.47618 2.29465 4.5195 2.29443H4.52127H11.2727V0.482289C11.2727 0.28127 11.4353 0.118652 11.6363 0.118652C11.8373 0.118652 12 0.28127 12 0.482289V2.29443H18.75H18.7517C18.7956 2.29443 18.8372 2.30491 18.8771 2.31974C18.8877 2.32363 18.8976 2.32778 18.9077 2.33262C18.9425 2.34931 18.9749 2.36996 19.003 2.39687C19.004 2.39786 19.0052 2.39866 19.0063 2.39946C19.0076 2.40032 19.0088 2.40116 19.0098 2.40222C19.0331 2.42556 19.0535 2.452 19.0699 2.48156L22.2424 8.20353H22.9091ZM1.04935 8.9308C1.70204 9.55934 3.05041 9.99011 4.52127 9.99011C5.99182 9.99011 7.33982 9.55934 7.99251 8.9308H1.04935ZM1.93386 8.20353L4.5252 3.4148L7.17986 8.20353H1.93386ZM7.91902 15.1545H15.3533L14.0699 14.407H9.20241L7.91902 15.1545ZM18.7557 3.4148L21.4104 8.20353H16.1643L18.7557 3.4148ZM15.2801 8.9308C15.9329 9.55934 17.2809 9.99011 18.7517 9.99011C20.2226 9.99011 21.5707 9.55934 22.2233 8.9308H15.2801Z" fill="#222222"/>
</svg>
