<svg width="14" height="14" viewBox="0 0 14 14" fill="none" xmlns="http://www.w3.org/2000/svg">
<path fill-rule="evenodd" clip-rule="evenodd" d="M0 7C0 3.11818 3.11818 0 7 0C10.8818 0 14 3.11818 14 7C14 10.8818 10.8818 14 7 14C3.11818 14 0 10.8818 0 7ZM11.2931 9.4466C11.5831 9.51909 11.873 9.37411 11.9455 9.08414C12.018 8.72168 11.873 8.35922 11.5106 8.28673L7.74098 6.98188L7.66849 1.97994C7.66849 1.68997 7.37852 1.4 7.08856 1.4C6.79859 1.4 6.50862 1.61748 6.50862 1.97994L6.36364 7.77929C6.36364 8.06926 6.50862 8.28673 6.79859 8.43172C6.84692 8.45588 6.89524 8.4881 6.94357 8.52032C7.04023 8.58475 7.13688 8.64919 7.23354 8.64919L11.2931 9.4466Z" fill="#FE5D26"/>
</svg>
