<svg width="16" height="16" viewBox="0 0 16 16" fill="none" xmlns="http://www.w3.org/2000/svg">
<path fill-rule="evenodd" clip-rule="evenodd" d="M0.64 0H15.36C15.714 0 16 0.286 16 0.64V7.84C16 7.928 15.928 8 15.84 8H14.72C14.632 8 14.56 7.928 14.56 7.84V1.44H1.44V14.56H7.84C7.928 14.56 8 14.632 8 14.72V15.84C8 15.928 7.928 16 7.84 16H0.64C0.286 16 0 15.714 0 15.36V0.64C0 0.286 0.286 0 0.64 0ZM11.87 8.704L10.826 9.748L15.948 14.874C16.01 14.936 16.01 15.038 15.948 15.1L15.1 15.948C15.038 16.01 14.936 16.01 14.874 15.948L9.75 10.824L8.702 11.872C8.608 11.966 8.446 11.91 8.43 11.778L8.01 8.19C7.998 8.086 8.086 8 8.188 8.012L11.776 8.432C11.8367 8.43947 11.8879 8.48086 11.9079 8.53867C11.9278 8.59649 11.9131 8.66064 11.87 8.704Z" fill="#222222"/>
</svg>
