<svg width="16" height="15" viewBox="0 0 16 15" fill="none" xmlns="http://www.w3.org/2000/svg">
<g opacity="0.502813">
<path fill-rule="evenodd" clip-rule="evenodd" d="M11.4444 0H4.55556L4.47359 0.00228657C3.71398 0.0447796 3.11111 0.674208 3.11111 1.44444V2.66622L2.33333 2.66667C1.04467 2.66667 0 3.71134 0 5V11C0 11.7977 0.6467 12.4444 1.44444 12.4444L3.11111 12.444V13.2222C3.11111 14.02 3.75781 14.6667 4.55556 14.6667H11.4444C12.2422 14.6667 12.8889 14.02 12.8889 13.2222V12.444L14.5556 12.4444C15.3533 12.4444 16 11.7977 16 11V5C16 3.71134 14.9553 2.66667 13.6667 2.66667L12.8889 2.66622V1.44444L12.8866 1.36248C12.8441 0.602869 12.2147 0 11.4444 0ZM4.55556 9.11111H11.4444C11.6285 9.11111 11.7778 9.26035 11.7778 9.44444V13.2222C11.7778 13.4063 11.6285 13.5556 11.4444 13.5556H4.55556C4.37146 13.5556 4.22222 13.4063 4.22222 13.2222V9.44444C4.22222 9.26035 4.37146 9.11111 4.55556 9.11111ZM13.6667 3.77778H2.33333C1.65832 3.77778 1.11111 4.32499 1.11111 5V11C1.11111 11.1841 1.26035 11.3333 1.44444 11.3333L3.11111 11.3329V9.44444C3.11111 8.6467 3.75781 8 4.55556 8H11.4444C12.2422 8 12.8889 8.6467 12.8889 9.44444V11.3329L14.5556 11.3333C14.7397 11.3333 14.8889 11.1841 14.8889 11V5C14.8889 4.32499 14.3417 3.77778 13.6667 3.77778ZM4.55556 1.11111H11.4444L11.4897 1.11415C11.6524 1.13623 11.7778 1.27569 11.7778 1.44444V2.66622H4.22222V1.44444L4.22527 1.39921C4.24734 1.23651 4.3868 1.11111 4.55556 1.11111Z" fill="#212121"/>
</g>
</svg>
