<svg width="19" height="11" viewBox="0 0 19 11" fill="none" xmlns="http://www.w3.org/2000/svg">
<path fill-rule="evenodd" clip-rule="evenodd" d="M9.22675 0C5.70101 0 2.50369 1.92896 0.144389 5.06211C-0.0481297 5.31881 -0.0481297 5.67742 0.144389 5.93411C2.50369 9.07104 5.70101 11 9.22675 11C12.7525 11 15.9498 9.07104 18.3091 5.93789C18.5016 5.68119 18.5016 5.32258 18.3091 5.06589C15.9498 1.92896 12.7525 0 9.22675 0ZM9.47807 9.37334C7.13765 9.52056 5.20491 7.5916 5.35213 5.2474C5.47293 3.31466 7.0395 1.74809 8.97224 1.62729C11.3127 1.48007 13.2454 3.40903 13.0982 5.75323C12.9736 7.6822 11.407 9.24877 9.47807 9.37334ZM7.14283 5.36383C7.05978 6.62464 8.10165 7.66273 9.36246 7.58346C10.4005 7.51929 11.2461 6.67749 11.3141 5.63185C11.3971 4.37104 10.3553 3.33295 9.09444 3.41222C8.05258 3.48017 7.207 4.32196 7.14283 5.36383Z" fill="#222222" fill-opacity="0.5"/>
</svg>
