<svg width="24" height="25" viewBox="0 0 24 25" fill="none" xmlns="http://www.w3.org/2000/svg">
<path d="M22.8 6.66663L23.295 7.1616L23.7899 6.66663L23.295 6.17165L22.8 6.66663ZM1.2 18.6666L0.705025 18.1717L0.210051 18.6666L0.705025 19.1616L1.2 18.6666ZM0 7.36663H21.6V5.96663H0V7.36663ZM16.305 1.1616L22.305 7.1616L23.295 6.17165L17.295 0.171651L16.305 1.1616ZM22.305 6.17165L16.305 12.1717L17.295 13.1616L23.295 7.1616L22.305 6.17165ZM24 17.9666H2.4V19.3666H24V17.9666ZM6.70503 12.1717L0.705025 18.1717L1.69497 19.1616L7.69497 13.1616L6.70503 12.1717ZM0.705025 19.1616L6.70503 25.1616L7.69497 24.1717L1.69497 18.1717L0.705025 19.1616Z" fill="white"/>
</svg>
