<svg width="17" height="13" viewBox="0 0 17 13" fill="none" xmlns="http://www.w3.org/2000/svg">
<path fill-rule="evenodd" clip-rule="evenodd" d="M11.7657 0.234315L11.6903 0.167764C11.3765 -0.0762562 10.9227 -0.0540726 10.6343 0.234315L10.5678 0.30968C10.3237 0.623513 10.3459 1.0773 10.6343 1.36569L13.268 4H4L3.9067 4.00538C3.50883 4.05159 3.2 4.38973 3.2 4.8C3.2 5.24183 3.55817 5.6 4 5.6H15.2L15.2909 5.59521C15.9421 5.52574 16.2477 4.71637 15.7657 4.23431L11.7657 0.234315ZM12.8016 8C12.8016 7.55817 12.4434 7.2 12.0016 7.2H0.801604L0.710699 7.20479C0.0594697 7.27426 -0.246142 8.08362 0.235918 8.56569L4.23592 12.5657L4.31128 12.6322C4.62512 12.8763 5.0789 12.8541 5.36729 12.5657L5.43384 12.4903C5.67786 12.1765 5.65568 11.7227 5.36729 11.4343L2.7336 8.8H12.0016L12.0949 8.79462C12.4928 8.74841 12.8016 8.41027 12.8016 8Z" fill="#222222"/>
</svg>
