<svg width="16" height="22" viewBox="0 0 16 22" fill="none" xmlns="http://www.w3.org/2000/svg">
<path fill-rule="evenodd" clip-rule="evenodd" d="M15.9999 14.5023V17.7745C15.9999 19.748 14.3943 21.3535 12.4209 21.3535C11.487 21.3535 10.6354 20.9939 9.9975 20.406H0.538189C0.261173 20.406 0.0366211 20.1815 0.0366211 19.9044V0.501607C0.0366211 0.224591 0.261173 3.9459e-05 0.538189 3.9459e-05H10.6337C10.7638 -0.00161571 10.8926 0.048842 10.9892 0.143638L10.9893 0.143789L10.9903 0.144742L10.991 0.145394L10.9914 0.145845L10.9925 0.146949L14.4319 3.5863L14.4329 3.58735L14.4331 3.5876L14.434 3.58845L14.4341 3.58865C14.5044 3.65983 14.5502 3.74855 14.569 3.84265V3.8427L14.5696 3.84566V3.84571L14.5699 3.84716V3.84721C14.576 3.87941 14.579 3.91221 14.5787 3.94517V13.8571C14.9185 13.898 15.2552 13.9486 15.5878 14.0089C15.8264 14.0521 15.9999 14.2598 15.9999 14.5023ZM9.1658 6.86324H11.0671C11.3441 6.86324 11.5687 6.63869 11.5687 6.36167C11.5687 6.08465 11.3441 5.8601 11.0671 5.8601H9.1658C8.88878 5.8601 8.66423 6.08465 8.66423 6.36167C8.66423 6.63869 8.88883 6.86324 9.1658 6.86324ZM5.95105 16.3443C5.95105 16.6213 5.7265 16.8458 5.44949 16.8458H3.54819C3.27118 16.8458 3.04663 16.6213 3.04663 16.3443C3.04663 16.0672 3.27118 15.8427 3.54819 15.8427H5.44949C5.7265 15.8427 5.95105 16.0672 5.95105 16.3443ZM11.0671 8.98768H9.1658C8.88883 8.98768 8.66423 8.76312 8.66423 8.48611C8.66423 8.20909 8.88878 7.98454 9.1658 7.98454H11.0671C11.3441 7.98454 11.5687 8.20909 11.5687 8.48611C11.5687 8.76312 11.3441 8.98768 11.0671 8.98768ZM6.98754 10.0869H3.54819C3.27118 10.0869 3.04663 10.3114 3.04663 10.5884C3.04663 10.8654 3.27118 11.09 3.54819 11.09H6.98754C7.26456 11.09 7.48911 10.8654 7.48911 10.5884C7.48911 10.3114 7.26456 10.0869 6.98754 10.0869ZM3.54814 13.7287H6.95494C7.23196 13.7287 7.45651 13.9533 7.45651 14.2303C7.45651 14.5073 7.23196 14.7319 6.95494 14.7319H3.54814C3.27113 14.7319 3.04658 14.5073 3.04658 14.2303C3.04658 13.9533 3.27113 13.7287 3.54814 13.7287ZM12.8663 3.43939H11.1394V1.71249L12.8663 3.43939ZM8.84179 17.7745V14.5023C8.84179 14.2598 9.01528 14.052 9.25393 14.0088C10.2799 13.8228 11.3454 13.7286 12.4208 13.7286C12.8075 13.7286 13.1929 13.7408 13.5756 13.7651V4.44252H10.6378C10.3608 4.44252 10.1363 4.21797 10.1363 3.94095V1.00317H1.03976V19.403H9.23416C8.98333 18.9141 8.84179 18.3606 8.84179 17.7745ZM12.4208 14.7317C13.2929 14.7317 14.1575 14.7972 14.9968 14.9267V17.7745C14.9968 19.1948 13.8412 20.3503 12.4208 20.3503C11.0004 20.3503 9.84487 19.1948 9.84487 17.7745V14.9267C10.6841 14.7972 11.5486 14.7317 12.4208 14.7317ZM11.9192 16.1712V17.0395H11.051C10.774 17.0395 10.5494 17.264 10.5494 17.5411C10.5494 17.8181 10.774 18.0426 11.051 18.0426H11.9192V18.911C11.9192 19.188 12.1438 19.4126 12.4208 19.4126C12.6978 19.4126 12.9223 19.188 12.9223 18.911V18.0426H13.7908C14.0678 18.0426 14.2923 17.8181 14.2923 17.5411C14.2923 17.264 14.0678 17.0395 13.7908 17.0395H12.9223V16.1712C12.9223 15.8942 12.6978 15.6696 12.4208 15.6696C12.1438 15.6696 11.9192 15.8942 11.9192 16.1712ZM11.5687 10.5884C11.5687 10.8654 11.3441 11.09 11.0671 11.09H9.1658C8.88878 11.09 8.66423 10.8654 8.66423 10.5884C8.66423 10.3114 8.88878 10.0869 9.1658 10.0869H11.0671C11.3441 10.0869 11.5687 10.3114 11.5687 10.5884ZM6.98754 7.98454H3.54819C3.27118 7.98454 3.04663 8.20909 3.04663 8.48611C3.04663 8.76312 3.27118 8.98768 3.54819 8.98768H6.98754C7.26456 8.98768 7.48911 8.76312 7.48911 8.48611C7.48911 8.20909 7.26456 7.98454 6.98754 7.98454ZM3.54819 5.8601H6.98754C7.26456 5.8601 7.48911 6.08465 7.48911 6.36167C7.48911 6.63869 7.26456 6.86324 6.98754 6.86324H3.54819C3.27118 6.86324 3.04663 6.63869 3.04663 6.36167C3.04663 6.08465 3.27118 5.8601 3.54819 5.8601Z" fill="#222222"/>
</svg>
