<svg width="22" height="22" viewBox="0 0 22 22" fill="none" xmlns="http://www.w3.org/2000/svg">
<g opacity="0.504441">
<rect x="10.3125" y="13.75" width="1.375" height="2.75" fill="black"/>
<rect x="13.75" y="12.375" width="1.375" height="4.125" fill="black"/>
<rect x="6.875" y="9.625" width="1.375" height="6.875" fill="black"/>
<path fill-rule="evenodd" clip-rule="evenodd" d="M17.1875 3.4375H15.125V2.75C15.125 1.99061 14.5094 1.375 13.75 1.375H8.25C7.49061 1.375 6.875 1.99061 6.875 2.75V3.4375H4.8125C4.05311 3.4375 3.4375 4.05311 3.4375 4.8125V19.25C3.4375 20.0094 4.05311 20.625 4.8125 20.625H17.1875C17.9469 20.625 18.5625 20.0094 18.5625 19.25V4.8125C18.5625 4.05311 17.9469 3.4375 17.1875 3.4375ZM8.25 2.75H13.75V5.5H8.25V2.75ZM4.8125 19.25H17.1875V4.8125H15.125V6.875H6.875V4.8125H4.8125V19.25Z" fill="black"/>
</g>
</svg>
