<svg width="32" height="34" viewBox="0 0 32 34" fill="none" xmlns="http://www.w3.org/2000/svg">
<path d="M30.4 9L31.1071 9.70711L31.8142 9L31.1071 8.29289L30.4 9ZM1.6 25L0.892893 24.2929L0.185786 25L0.892893 25.7071L1.6 25ZM0 10H28.8V8H0V10ZM21.6929 1.70711L29.6929 9.70711L31.1071 8.29289L23.1071 0.292893L21.6929 1.70711ZM29.6929 8.29289L21.6929 16.2929L23.1071 17.7071L31.1071 9.70711L29.6929 8.29289ZM32 24H3.2V26H32V24ZM8.89289 16.2929L0.892893 24.2929L2.30711 25.7071L10.3071 17.7071L8.89289 16.2929ZM0.892893 25.7071L8.89289 33.7071L10.3071 32.2929L2.30711 24.2929L0.892893 25.7071Z"/>
</svg>
