<svg width="24" height="30" viewBox="0 0 24 30" fill="none" xmlns="http://www.w3.org/2000/svg">
<path d="M20.8891 27.3333H19.1113V22.8888C19.1084 20.4354 17.1203 18.4473 14.6669 18.4444H9.33355C6.88015 18.4473 4.892 20.4354 4.88911 22.8888V27.3333H3.11133V22.8888C3.11534 19.4541 5.89878 16.6706 9.33355 16.6666H14.6669C18.1017 16.6706 20.8851 19.4541 20.8891 22.8888V27.3333Z" fill="white"/>
<path fill-rule="evenodd" clip-rule="evenodd" d="M5.77734 8.66668C5.77734 5.23024 8.56313 2.44446 11.9996 2.44446C13.6498 2.44446 15.2324 3.10001 16.3993 4.2669C17.5662 5.4338 18.2218 7.01644 18.2218 8.66668C18.2218 12.1031 15.436 14.8889 11.9996 14.8889C8.56313 14.8889 5.77734 12.1031 5.77734 8.66668ZM16.444 8.66668C16.444 6.21208 14.4542 4.22224 11.9996 4.22224C9.54497 4.22224 7.55512 6.21208 7.55512 8.66668C7.55512 11.1213 9.54497 13.1111 11.9996 13.1111C14.4542 13.1111 16.444 11.1213 16.444 8.66668Z" fill="white"/>
</svg>
