<svg width="16" height="16" viewBox="0 0 16 16" fill="none" xmlns="http://www.w3.org/2000/svg">
<path fill-rule="evenodd" clip-rule="evenodd" d="M13.2157 2.28888e-05C13.9543 -6.23385e-05 14.6626 0.29329 15.1847 0.815563C16.2719 1.90285 16.2717 3.66561 15.1844 4.75277L5.60476 14.3324C5.52495 14.4123 5.42757 14.4726 5.3204 14.5084L0.95674 15.9629C0.882592 15.9873 0.804992 15.9999 0.726923 16C0.649025 15.9999 0.571595 15.9873 0.49766 15.9627C0.116565 15.8358 -0.0894734 15.424 0.0374733 15.0429L1.49201 10.6793C1.52785 10.5723 1.58781 10.475 1.66728 10.3949L11.247 0.816032C11.7678 0.291756 12.4768 -0.00210779 13.2157 2.28888e-05ZM4.70148 13.1797L14.1561 3.7251C14.406 3.47606 14.546 3.13754 14.5452 2.78474C14.5441 2.43382 14.4044 2.09755 14.1565 1.84916C13.6376 1.32919 12.7953 1.32833 12.2753 1.84728L2.81709 11.3018L1.87673 14.1229L4.70148 13.1797Z" fill="#B2D235"/>
</svg>
