<svg width="24" height="25" viewBox="0 0 24 25" fill="none" xmlns="http://www.w3.org/2000/svg">
<path d="M22.5 23.1666H21V19.4166C20.9976 17.3465 19.3201 15.669 17.25 15.6666V14.1666C20.1482 14.1698 22.4968 16.5185 22.5 19.4166V23.1666Z" fill="white"/>
<path d="M16.5 23.1666H15V19.4166C14.9976 17.3466 13.3201 15.6691 11.25 15.6666H6.75C4.67994 15.6691 3.00244 17.3466 3 19.4166V23.1666H1.5V19.4166C1.50339 16.5185 3.85191 14.17 6.75 14.1666H11.25C14.1481 14.17 16.4966 16.5185 16.5 19.4166V23.1666Z" fill="white"/>
<path d="M15 2.16663V3.66663C17.0711 3.66663 18.75 5.34556 18.75 7.41663C18.75 9.48769 17.0711 11.1666 15 11.1666V12.6666C17.8995 12.6666 20.25 10.3161 20.25 7.41663C20.25 4.51713 17.8995 2.16663 15 2.16663L15 2.16663Z" fill="white"/>
<path fill-rule="evenodd" clip-rule="evenodd" d="M3.75 7.41663C3.75 4.51713 6.10051 2.16663 9 2.16663C10.3924 2.16663 11.7277 2.71975 12.7123 3.70432C13.6969 4.68888 14.25 6.02424 14.25 7.41663C14.25 10.3161 11.8995 12.6666 9 12.6666C6.10051 12.6666 3.75 10.3161 3.75 7.41663ZM12.75 7.41663C12.75 5.34556 11.0711 3.66663 9 3.66663C6.92893 3.66663 5.25 5.34556 5.25 7.41663C5.25 9.48769 6.92893 11.1666 9 11.1666C11.0711 11.1666 12.75 9.48769 12.75 7.41663Z" fill="white"/>
</svg>
