<svg width="16" height="16" viewBox="0 0 16 16" fill="none" xmlns="http://www.w3.org/2000/svg">
<path d="M7.99985 3.72508C7.69623 3.72508 7.45003 3.97128 7.45003 4.2749V6.01497L5.67759 3.06073C5.52141 2.80026 5.18358 2.71595 4.92327 2.87213C4.66285 3.02836 4.57849 3.36608 4.73466 3.62644L7.52836 8.28288C7.52917 8.28417 7.53003 8.28465 7.53079 8.28584C7.62732 8.44395 7.80101 8.54987 7.9998 8.54987C8.30342 8.54987 8.54961 8.30367 8.54961 8.00005V4.2749C8.54967 3.97128 8.30347 3.72508 7.99985 3.72508Z" fill="black"/>
<path fill-rule="evenodd" clip-rule="evenodd" d="M0 8C0 3.58879 3.58863 0 7.99957 0C12.4105 0 15.9991 3.58879 15.9991 8C15.9991 12.4112 12.4105 16 7.99957 16C3.58863 16 0 12.4112 0 8ZM8.54939 14.5188V14.8785C11.9166 14.6118 14.6109 11.9171 14.8777 8.54987H14.5181C14.2145 8.54987 13.9683 8.30368 13.9683 8.00005C13.9683 7.69643 14.2145 7.45024 14.5181 7.45024H14.8777C14.611 4.08286 11.9166 1.38823 8.54939 1.12151V1.48116C8.54939 1.78478 8.30319 2.03098 7.99957 2.03098C7.69595 2.03098 7.44975 1.78478 7.44975 1.48116V1.12151C4.08259 1.38823 1.38823 4.08286 1.12145 7.45013H1.481C1.78462 7.45013 2.03081 7.69632 2.03081 7.99995C2.03081 8.30357 1.78462 8.54976 1.481 8.54976H1.12145C1.38818 11.9171 4.08259 14.6118 7.44975 14.8785V14.5188C7.44975 14.2152 7.69595 13.969 7.99957 13.969C8.30319 13.969 8.54939 14.2152 8.54939 14.5188Z" fill="black"/>
</svg>
