<svg width="18" height="12" viewBox="0 0 18 12" fill="none" xmlns="http://www.w3.org/2000/svg">
<path opacity="0.49628" fill-rule="evenodd" clip-rule="evenodd" d="M0.853559 0.0183411H16.2178C16.7015 0.0183411 17.0714 0.388205 17.0714 0.8719V6.56238C17.0714 7.04607 16.7015 7.41593 16.2178 7.41593H0.853559C0.369864 7.41593 0 7.04607 0 6.56238V0.8719C0 0.388205 0.369864 0.0183411 0.853559 0.0183411ZM16.2179 6.84688C16.3886 6.84688 16.5024 6.73309 16.5024 6.56238H16.5023V0.8719C16.5023 0.701189 16.3885 0.587392 16.2178 0.587392H0.853559C0.711322 0.587392 0.569051 0.701189 0.569051 0.8719V6.56238C0.569051 6.73309 0.682847 6.84688 0.853559 6.84688H16.2179Z" fill="#222222"/>
<path opacity="0.49628" d="M7.39755 2.57906H9.67375C9.84446 2.57906 9.95826 2.46526 9.95826 2.29455C9.95826 2.12384 9.84446 2.01004 9.67375 2.01004H7.39755C7.22683 2.01004 7.11304 2.12384 7.11304 2.29455C7.11304 2.46526 7.22683 2.57906 7.39755 2.57906Z" fill="#222222"/>
<path opacity="0.49628" d="M15.6489 5.70882H1.42269C1.25198 5.70882 1.13818 5.82261 1.13818 5.99332C1.13818 6.16404 1.25198 6.27783 1.42269 6.27783H15.6489C15.8196 6.27783 15.9334 6.16404 15.9334 5.99332C15.9334 5.82261 15.8196 5.70882 15.6489 5.70882Z" fill="#222222"/>
<path opacity="0.49628" d="M15.6489 4.57071H1.42269C1.25198 4.57071 1.13818 4.68451 1.13818 4.85522C1.13818 5.02593 1.25198 5.13973 1.42269 5.13973H15.6489C15.8196 5.13973 15.9334 5.02593 15.9334 4.85522C15.9334 4.68451 15.8196 4.57071 15.6489 4.57071Z" fill="#222222"/>
<path opacity="0.49628" d="M8.67796 9.43606C8.39345 9.29379 8.25118 9.12308 8.25118 8.98081C8.25118 8.83854 8.42189 8.66783 8.64952 8.49711C8.79179 8.4402 8.82023 8.26949 8.76332 8.12725C8.7064 7.98498 8.53569 7.9281 8.39345 8.01345C7.9382 8.26952 7.68213 8.61094 7.68213 8.98084C7.68213 9.35071 7.9382 9.69216 8.39345 9.97667C8.67796 10.1189 8.82023 10.2897 8.82023 10.4319C8.82023 10.5742 8.64952 10.7449 8.39345 10.8871C8.25118 10.9441 8.1943 11.1148 8.27965 11.257C8.33657 11.3424 8.42193 11.3993 8.53572 11.3993C8.59264 11.3993 8.62108 11.3993 8.67799 11.3708C9.13325 11.1148 9.38932 10.7734 9.38932 10.4035C9.38932 10.0336 9.13321 9.66369 8.67796 9.43606Z" fill="#222222"/>
<path opacity="0.49628" d="M5.54832 10.0051C5.26381 9.86285 5.12154 9.69214 5.12154 9.54987C5.12154 9.4076 5.29225 9.23689 5.51988 9.06617C5.66215 9.00926 5.71903 8.83855 5.63368 8.69631C5.57676 8.55404 5.40605 8.49716 5.26381 8.58251C4.80856 8.83858 4.55249 9.18 4.55249 9.5499C4.55249 9.91977 4.80856 10.2612 5.26381 10.5457C5.54832 10.688 5.69059 10.8587 5.69059 11.001C5.69059 11.1433 5.51988 11.314 5.26381 11.4562C5.12154 11.5132 5.06466 11.6839 5.15002 11.8261C5.20693 11.9115 5.29229 11.9684 5.40608 11.9684C5.463 11.9684 5.49144 11.9684 5.54835 11.9399C6.00361 11.6839 6.25968 11.3424 6.25968 10.9725C6.25968 10.6026 6.00357 10.2328 5.54832 10.0051Z" fill="#222222"/>
<path opacity="0.49628" d="M11.8078 10.0051C11.5233 9.86285 11.3811 9.69214 11.3811 9.54987C11.3811 9.4076 11.5518 9.23689 11.7794 9.06617C11.9217 9.00926 11.9501 8.83855 11.8932 8.69631C11.8363 8.55404 11.6656 8.49716 11.5233 8.58251C11.0681 8.83858 10.812 9.18 10.812 9.5499C10.812 9.91977 11.0681 10.2612 11.5233 10.5457C11.8078 10.688 11.9501 10.8587 11.9501 11.001C11.9501 11.1433 11.7794 11.314 11.5233 11.4562C11.3811 11.5132 11.3242 11.6839 11.4095 11.8261C11.4665 11.9115 11.5518 11.9684 11.6656 11.9684C11.7225 11.9684 11.751 11.9684 11.8079 11.9399C12.2631 11.6839 12.5192 11.3424 12.5192 10.9725C12.5192 10.6026 12.2631 10.2328 11.8078 10.0051Z" fill="#222222"/>
</svg>
