<svg width="12" height="12" viewBox="0 0 12 12" fill="none" xmlns="http://www.w3.org/2000/svg">
<path opacity="0.499209" fill-rule="evenodd" clip-rule="evenodd" d="M4.71321 6.52908H11.6497C11.8432 6.52908 12 6.68648 12 6.88064V8.04157C12 8.20294 11.8917 8.3389 11.7441 8.38024V9.39291C11.7441 10.2109 11.2275 10.9099 10.5045 11.1789L10.6859 11.4549C10.7925 11.6169 10.7479 11.835 10.5864 11.9419C10.5271 11.9812 10.4601 12 10.3939 12C10.2802 12 10.1686 11.9445 10.1012 11.842L9.74295 11.2969H2.25705L1.89877 11.842C1.83145 11.9445 1.71987 12 1.6061 12C1.53989 12 1.47298 11.9813 1.41356 11.9419C1.2521 11.835 1.20752 11.6169 1.31407 11.4549L1.49545 11.1789C0.772547 10.9099 0.255914 10.2109 0.255914 9.39291V8.38024C0.108281 8.3389 0 8.20294 0 8.04157V6.88064C0 6.68648 0.15682 6.52908 0.35025 6.52908H0.722906V1.32853C0.722906 0.595969 1.31665 0 2.04647 0C2.61265 0 3.11599 0.361336 3.29899 0.899156L3.43355 1.29633C4.15491 1.24704 4.84052 1.70536 5.0509 2.43007L5.15496 2.78857C5.18095 2.87808 5.17045 2.97431 5.12576 3.05604C5.08106 3.13779 5.00585 3.19837 4.91667 3.22446L2.56781 3.91141C2.38821 3.9679 2.18236 3.8543 2.13356 3.67221L2.02952 3.31371C1.82189 2.59842 2.14364 1.85252 2.76241 1.49925L2.63595 1.12596C2.54995 0.873211 2.31298 0.703125 2.04647 0.703125C1.7029 0.703125 1.42341 0.983672 1.42341 1.32853V6.52908H2.12461C2.14755 6.35719 2.29385 6.22453 2.47137 6.22453H4.36645C4.54397 6.22453 4.69027 6.35721 4.71321 6.52908ZM4.38445 2.64773L4.37836 2.62676C4.26738 2.2444 3.918 1.99552 3.53984 1.99552C3.45919 1.99552 3.37723 2.00684 3.29602 2.0306C2.83385 2.16577 2.56739 2.65312 2.70206 3.11702L2.70816 3.138L4.38445 2.64773ZM2.82162 6.92766H4.0162V9.2003H2.82162V6.92766ZM11.0436 8.29844C11.0436 8.09381 11.1447 7.91245 11.2995 7.80211H11.2995V7.2322H4.71673V9.55186C4.71673 9.74602 4.55991 9.90342 4.36648 9.90342H2.47139C2.27796 9.90342 2.12114 9.74602 2.12114 9.55186V7.2322H0.7005V7.80211C0.855258 7.91245 0.956414 8.09384 0.956414 8.29844V9.39291C0.956414 10.0551 1.49311 10.5938 2.15278 10.5938H9.84722C10.5069 10.5938 11.0436 10.0551 11.0436 9.39291V8.29844Z" fill="#222222"/>
</svg>
