<svg width="16" height="12" viewBox="0 0 16 12" fill="none" xmlns="http://www.w3.org/2000/svg">
<path opacity="0.5" fill-rule="evenodd" clip-rule="evenodd" d="M0.642857 11.2213C0.642857 11.3989 0.498884 11.5427 0.321429 11.5427C0.143973 11.5427 0 11.3989 0 11.2213V0.864168C0 0.686713 0.143973 0.54274 0.321429 0.54274C0.498884 0.54274 0.642857 0.686713 0.642857 0.864168V6.60435H15.3571V5.14988C15.3571 4.97243 15.5011 4.82845 15.6786 4.82845C15.856 4.82845 16 4.97243 16 5.14988V11.2213C16 11.3989 15.856 11.5427 15.6786 11.5427C15.5011 11.5427 15.3571 11.3989 15.3571 11.2213V9.03292H0.642857V11.2213ZM15.3571 8.39006V7.2472H0.642857V8.39006H15.3571Z" fill="#222222"/>
<path opacity="0.5" fill-rule="evenodd" clip-rule="evenodd" d="M1.59644 4.42578C1.59644 3.45926 2.37992 2.67578 3.34644 2.67578C4.31251 2.6769 5.09532 3.45982 5.09644 4.42578C5.09644 5.3923 4.31295 6.17578 3.34644 6.17578C2.37992 6.17578 1.59644 5.3923 1.59644 4.42578ZM2.23929 4.42578C2.23929 5.03728 2.73494 5.53292 3.34644 5.53292C3.9576 5.53225 4.45291 5.03705 4.45358 4.42578C4.45358 3.8144 3.95782 3.31864 3.34644 3.31864C2.73494 3.31864 2.23929 3.8144 2.23929 4.42578Z" fill="#222222"/>
<path opacity="0.5" fill-rule="evenodd" clip-rule="evenodd" d="M14.2016 6.17578H5.98732C5.80987 6.17578 5.66589 6.03203 5.66589 5.85435V2.64006C5.66589 2.46261 5.80987 2.31863 5.98732 2.31863H10.9873C12.9392 2.32087 14.521 3.90267 14.523 5.85435C14.523 6.03203 14.3793 6.17578 14.2016 6.17578ZM10.9873 2.96149H6.30875V5.53292H13.8623C13.6969 4.06975 12.46 2.9635 10.9873 2.96149Z" fill="#222222"/>
</svg>
