<svg width="36" height="36" viewBox="0 0 36 36" fill="none" xmlns="http://www.w3.org/2000/svg">
<g filter="url(#filter0_d_0_4422)">
<circle cx="18" cy="17" r="12" fill="#F4F4F4"/>
</g>
<path fill-rule="evenodd" clip-rule="evenodd" d="M21.3369 11C19.8546 11 18.5761 11.8849 17.9997 13.1536C17.4239 11.8849 16.1451 11 14.6635 11C12.643 11 11 12.6437 11 14.6637C11 15.0899 11.0732 15.4985 11.2078 15.8794C11.361 16.313 11.5932 16.709 11.8876 17.0506C12.0131 17.1967 12.1495 17.3325 12.2967 17.4571L17.8843 23.0074C17.9187 23.0418 17.9635 23.059 18.0087 23.059C18.0543 23.059 18.0994 23.0418 18.1341 23.0074L23.9292 17.2498C24.3043 16.8726 24.5989 16.4157 24.7833 15.9058C24.9234 15.5179 25 15.0995 25 14.6637C25 12.6437 23.3565 11 21.3369 11Z" stroke="#979797"/>
<defs>
<filter id="filter0_d_0_4422" x="0" y="0" width="36" height="36" filterUnits="userSpaceOnUse" color-interpolation-filters="sRGB">
<feFlood flood-opacity="0" result="BackgroundImageFix"/>
<feColorMatrix in="SourceAlpha" type="matrix" values="0 0 0 0 0 0 0 0 0 0 0 0 0 0 0 0 0 0 127 0" result="hardAlpha"/>
<feOffset dy="1"/>
<feGaussianBlur stdDeviation="3"/>
<feColorMatrix type="matrix" values="0 0 0 0 0.133333 0 0 0 0 0.133333 0 0 0 0 0.133333 0 0 0 0.163762 0"/>
<feBlend mode="normal" in2="BackgroundImageFix" result="effect1_dropShadow_0_4422"/>
<feBlend mode="normal" in="SourceGraphic" in2="effect1_dropShadow_0_4422" result="shape"/>
</filter>
</defs>
</svg>
