<svg width="8" height="10" viewBox="0 0 8 10" fill="none" xmlns="http://www.w3.org/2000/svg">
<path fill-rule="evenodd" clip-rule="evenodd" d="M0 3.77708C0 1.69417 1.6825 0 3.75 0C5.8175 0 7.5 1.69417 7.5 3.77708C7.5 6.73667 4.1025 9.7925 3.95792 9.92125C3.89833 9.97375 3.82417 10 3.75 10C3.67583 10 3.60167 9.97375 3.54208 9.92083C3.3975 9.7925 0 6.73667 0 3.77708ZM1.66667 3.75C1.66667 4.89875 2.60125 5.83333 3.75 5.83333C4.89875 5.83333 5.83333 4.89875 5.83333 3.75C5.83333 2.60125 4.89875 1.66667 3.75 1.66667C2.60125 1.66667 1.66667 2.60125 1.66667 3.75Z" fill="#CCCCCC"/>
</svg>
