<svg width="25" height="24" viewBox="0 0 25 24" fill="none" xmlns="http://www.w3.org/2000/svg">
<circle cx="12.8203" cy="12" r="12" fill="#F4F4F4"/>
<path opacity="0.501674" fill-rule="evenodd" clip-rule="evenodd" d="M14.3993 8.21053C14.3993 6.9953 15.3946 6 16.6098 6C17.825 6 18.8203 6.9953 18.8203 8.21053C18.8203 9.42576 17.825 10.4211 16.6098 10.4211C15.9209 10.4211 15.328 10.0819 14.9217 9.58347L11.1353 11.4776C11.1456 11.5184 11.1569 11.5588 11.1683 11.5991L11.1683 11.5991L11.1683 11.5991L11.1683 11.5991C11.2049 11.7291 11.2414 11.8589 11.2414 12C11.2414 12.1411 11.2049 12.2709 11.1683 12.4009L11.1683 12.4009L11.1683 12.4009L11.1683 12.4009C11.1569 12.4412 11.1456 12.4816 11.1353 12.5224L14.9217 14.4165C15.328 13.9181 15.9209 13.5789 16.6098 13.5789C17.825 13.5789 18.8203 14.5742 18.8203 15.7895C18.8203 17.0047 17.825 18 16.6098 18C15.3946 18 14.3993 17.0047 14.3993 15.7895C14.3993 15.6483 14.4358 15.5186 14.4723 15.3886L14.4723 15.3886C14.4837 15.3482 14.4951 15.3078 14.5053 15.2671L10.719 13.3729C10.3127 13.8714 9.71973 14.2105 9.03084 14.2105C7.81561 14.2105 6.82031 13.2152 6.82031 12C6.82031 10.7848 7.81561 9.78947 9.03084 9.78947C9.71973 9.78947 10.3127 10.1286 10.719 10.6271L14.5053 8.73294C14.4951 8.69217 14.4837 8.65177 14.4723 8.61141L14.4723 8.61139L14.4723 8.61138L14.4723 8.61138C14.4358 8.48139 14.3993 8.35166 14.3993 8.21053ZM17.8729 8.21053C17.8729 7.50729 17.313 6.94737 16.6098 6.94737C15.9066 6.94737 15.3466 7.50729 15.3466 8.21053C15.3466 8.91376 15.9066 9.47368 16.6098 9.47368C17.313 9.47368 17.8729 8.91376 17.8729 8.21053ZM9.03084 10.7368C9.73407 10.7368 10.294 11.2968 10.294 12C10.294 12.7032 9.73407 13.2632 9.03084 13.2632C8.3276 13.2632 7.76768 12.7032 7.76768 12C7.76768 11.2968 8.3276 10.7368 9.03084 10.7368ZM17.8729 15.7895C17.8729 15.0862 17.313 14.5263 16.6098 14.5263C15.9066 14.5263 15.3466 15.0862 15.3466 15.7895C15.3466 16.4927 15.9066 17.0526 16.6098 17.0526C17.313 17.0526 17.8729 16.4927 17.8729 15.7895Z" fill="#222222"/>
</svg>
