<svg width="15" height="12" viewBox="0 0 15 12" fill="none" xmlns="http://www.w3.org/2000/svg">
<path opacity="0.500744" d="M14.2892 3.44601C10.664 -1.13119 3.74234 -1.13913 0.110838 3.44601C-0.0650273 3.66803 -0.0275648 3.99062 0.194482 4.16646C0.416529 4.3423 0.739066 4.30486 0.914932 4.08282C4.12993 0.023562 10.2652 0.0173464 13.4851 4.08282C13.6611 4.30503 13.9836 4.34218 14.2056 4.16646C14.4276 3.99057 14.465 3.66803 14.2892 3.44601Z" fill="#222222"/>
<path opacity="0.500744" d="M2.45737 5.30058C2.28145 5.52257 2.3188 5.84513 2.54079 6.02103C2.76286 6.19701 3.08537 6.15954 3.26124 5.93761C5.27687 3.39401 9.11942 3.38934 11.1388 5.93761C11.3147 6.1596 11.6373 6.19695 11.8592 6.02103C12.0812 5.84511 12.1186 5.52257 11.9426 5.30058C9.51626 2.23861 4.88745 2.23394 2.45737 5.30058Z" fill="#222222"/>
<path opacity="0.500744" d="M4.80264 7.155C4.62686 7.3771 4.66438 7.69961 4.88648 7.87542C5.10858 8.0512 5.43112 8.01368 5.6069 7.79158C6.42042 6.76372 7.97834 6.76201 8.79324 7.79158C8.96905 8.01368 9.29153 8.05123 9.51366 7.87542C9.73576 7.69961 9.77325 7.3771 9.5975 7.155C8.37359 5.60863 6.02855 5.60615 4.80264 7.155Z" fill="#222222"/>
<circle opacity="0.500744" cx="7.20016" cy="10.1727" r="1.2922" stroke="#222222" stroke-width="0.8"/>
</svg>
