<svg width="23" height="17" viewBox="0 0 23 17" fill="none" xmlns="http://www.w3.org/2000/svg">
<path fill-rule="evenodd" clip-rule="evenodd" d="M1.13808 0.524445H21.6238C22.2687 0.524445 22.7619 1.0176 22.7619 1.66252V9.24982C22.7619 9.89475 22.2687 10.3879 21.6238 10.3879H1.13808C0.493152 10.3879 0 9.89475 0 9.24982V1.66252C0 1.0176 0.493152 0.524445 1.13808 0.524445ZM21.6238 9.62917C21.8514 9.62917 22.0032 9.47744 22.0032 9.24982H22.0031V1.66252C22.0031 1.43491 21.8514 1.28318 21.6238 1.28318H1.13808C0.948429 1.28318 0.758734 1.43491 0.758734 1.66252V9.24982C0.758734 9.47744 0.910463 9.62917 1.13808 9.62917H21.6238Z" fill="#222222"/>
<path d="M9.86372 3.93873H12.8987C13.1263 3.93873 13.278 3.787 13.278 3.55938C13.278 3.33177 13.1263 3.18004 12.8987 3.18004H9.86372C9.6361 3.18004 9.48438 3.33177 9.48438 3.55938C9.48438 3.787 9.6361 3.93873 9.86372 3.93873Z" fill="#222222"/>
<path d="M20.8651 8.11176H1.89692C1.66931 8.11176 1.51758 8.26348 1.51758 8.4911C1.51758 8.71872 1.66931 8.87044 1.89692 8.87044H20.8651C21.0928 8.87044 21.2445 8.71872 21.2445 8.4911C21.2445 8.26348 21.0928 8.11176 20.8651 8.11176Z" fill="#222222"/>
<path d="M20.8651 6.59428H1.89692C1.66931 6.59428 1.51758 6.74601 1.51758 6.97363C1.51758 7.20124 1.66931 7.35297 1.89692 7.35297H20.8651C21.0928 7.35297 21.2445 7.20124 21.2445 6.97363C21.2445 6.74601 21.0928 6.59428 20.8651 6.59428Z" fill="#222222"/>
<path d="M11.57 13.0814C11.1906 12.8917 11.0009 12.6641 11.0009 12.4744C11.0009 12.2847 11.2285 12.0571 11.532 11.8295C11.7217 11.7536 11.7597 11.526 11.6838 11.3363C11.6079 11.1466 11.3803 11.0708 11.1906 11.1846C10.5836 11.526 10.2422 11.9813 10.2422 12.4745C10.2422 12.9676 10.5836 13.4229 11.1906 13.8022C11.57 13.9919 11.7597 14.2196 11.7597 14.4092C11.7597 14.5989 11.532 14.8266 11.1906 15.0162C11.0009 15.0921 10.9251 15.3197 11.0389 15.5094C11.1148 15.6232 11.2286 15.6991 11.3803 15.6991C11.4562 15.6991 11.4941 15.6991 11.57 15.6611C12.177 15.3197 12.5184 14.8645 12.5184 14.3713C12.5184 13.8781 12.177 13.3849 11.57 13.0814Z" fill="#222222"/>
<path d="M7.39809 13.8402C7.01874 13.6505 6.82905 13.4228 6.82905 13.2331C6.82905 13.0435 7.05666 12.8158 7.36017 12.5882C7.54986 12.5123 7.6257 12.2847 7.51189 12.0951C7.43601 11.9054 7.20839 11.8295 7.01874 11.9433C6.41174 12.2848 6.07031 12.74 6.07031 13.2332C6.07031 13.7263 6.41174 14.1816 7.01874 14.561C7.39809 14.7507 7.58778 14.9783 7.58778 15.168C7.58778 15.3577 7.36017 15.5853 7.01874 15.775C6.82905 15.8509 6.75321 16.0785 6.86701 16.2681C6.9429 16.3819 7.05671 16.4578 7.20844 16.4578C7.28432 16.4578 7.32224 16.4578 7.39813 16.4199C8.00514 16.0785 8.34656 15.6233 8.34656 15.1301C8.34656 14.6369 8.00509 14.1437 7.39809 13.8402Z" fill="#222222"/>
<path d="M15.7438 13.8402C15.3644 13.6505 15.1748 13.4228 15.1748 13.2331C15.1748 13.0435 15.4024 12.8158 15.7059 12.5882C15.8956 12.5123 15.9335 12.2847 15.8576 12.0951C15.7817 11.9054 15.5541 11.8295 15.3644 11.9433C14.7574 12.2848 14.416 12.74 14.416 13.2332C14.416 13.7263 14.7574 14.1816 15.3644 14.561C15.7438 14.7507 15.9335 14.9783 15.9335 15.168C15.9335 15.3577 15.7059 15.5853 15.3644 15.775C15.1748 15.8509 15.0989 16.0785 15.2127 16.2681C15.2886 16.3819 15.4024 16.4578 15.5541 16.4578C15.63 16.4578 15.6679 16.4578 15.7438 16.4199C16.3508 16.0785 16.6923 15.6233 16.6923 15.1301C16.6923 14.6369 16.3508 14.1437 15.7438 13.8402Z" fill="#222222"/>
</svg>
