<svg width="11" height="18" viewBox="0 0 11 18" fill="none" xmlns="http://www.w3.org/2000/svg">
<path d="M10.7168 8.33766L3.14197 0.782931C2.96678 0.608058 2.7329 0.511719 2.48353 0.511719C2.23416 0.511719 2.00029 0.608058 1.8251 0.782931L1.26727 1.33916C0.904281 1.7016 0.904281 2.29067 1.26727 2.65257L7.62801 8.99657L1.26021 15.3476C1.08501 15.5225 0.988279 15.7556 0.988279 16.0042C0.988278 16.253 1.08501 16.4862 1.26021 16.6612L1.81804 17.2173C1.99337 17.3921 2.2271 17.4885 2.47647 17.4885C2.72584 17.4885 2.95972 17.3921 3.13491 17.2173L10.7168 9.65562C10.8924 9.4802 10.9888 9.24598 10.9883 8.99699C10.9888 8.74703 10.8924 8.51295 10.7168 8.33766Z" fill="white"/>
</svg>
