<svg width="16" height="17" viewBox="0 0 16 17" fill="none" xmlns="http://www.w3.org/2000/svg">
<path fill-rule="evenodd" clip-rule="evenodd" d="M6.28428 9.20544H15.533C15.7909 9.20544 16 9.41531 16 9.67419V11.2221C16 11.4373 15.8556 11.6185 15.6588 11.6737V13.0239C15.6588 14.1145 14.9699 15.0466 14.0061 15.4052L14.2479 15.7732C14.3899 15.9893 14.3305 16.28 14.1152 16.4226C14.0361 16.475 13.9468 16.5001 13.8585 16.5001C13.7069 16.5001 13.5581 16.426 13.4683 16.2894L12.9906 15.5625H3.00941L2.53169 16.2894C2.44194 16.426 2.29316 16.5001 2.14147 16.5001C2.05319 16.5001 1.96397 16.475 1.88475 16.4226C1.66947 16.28 1.61003 15.9893 1.75209 15.7732L1.99394 15.4052C1.03006 15.0466 0.341219 14.1145 0.341219 13.0239V11.6737C0.144375 11.6185 0 11.4373 0 11.2221V9.67419C0 9.41531 0.209094 9.20544 0.467 9.20544H0.963875V2.27137C0.963875 1.29462 1.75553 0.5 2.72863 0.5C3.48353 0.5 4.15466 0.981781 4.39866 1.69887L4.57806 2.22844C5.53988 2.16272 6.45403 2.77381 6.73453 3.74009L6.87328 4.21809C6.90794 4.33744 6.89394 4.46575 6.83434 4.57472C6.77475 4.68372 6.67447 4.7645 6.55556 4.79928L3.42375 5.71522C3.18428 5.79053 2.90981 5.63906 2.84475 5.39628L2.70603 4.91828C2.42919 3.96456 2.85819 2.97003 3.68322 2.499L3.51459 2.00128C3.39994 1.66428 3.08397 1.4375 2.72863 1.4375C2.27053 1.4375 1.89787 1.81156 1.89787 2.27137V9.20544H2.83281C2.86341 8.97625 3.05847 8.79937 3.29516 8.79937H5.82194C6.05863 8.79937 6.25369 8.97628 6.28428 9.20544ZM5.84594 4.03031L5.83781 4.00234C5.68984 3.49253 5.224 3.16069 4.71978 3.16069C4.61225 3.16069 4.50297 3.17578 4.39469 3.20747C3.77847 3.38769 3.42319 4.0375 3.60275 4.65603L3.61088 4.684L5.84594 4.03031ZM3.76216 9.73687H5.35494V12.7671H3.76216V9.73687ZM14.7248 11.5646C14.7248 11.2917 14.8597 11.0499 15.066 10.9028H15.066V10.1429H6.28897V13.2358C6.28897 13.4947 6.07987 13.7046 5.82197 13.7046H3.29519C3.03728 13.7046 2.82819 13.4947 2.82819 13.2358V10.1429H0.934V10.9028C1.14034 11.0499 1.27522 11.2918 1.27522 11.5646V13.0239C1.27522 13.9068 1.99081 14.625 2.87038 14.625H13.1296C14.0092 14.625 14.7248 13.9068 14.7248 13.0239V11.5646Z" fill="#222222"/>
</svg>
