<svg width="32" height="26" viewBox="0 0 32 26" fill="none" xmlns="http://www.w3.org/2000/svg">
<path fill-rule="evenodd" clip-rule="evenodd" d="M31.2381 2.08253H8.22857V0.812686C8.22857 0.391911 7.88754 0.0507812 7.46667 0.0507812H3.80952C3.38865 0.0507812 3.04762 0.391911 3.04762 0.812686V2.08253H0.761905C0.341029 2.08253 0 2.42366 0 2.84443V24.4825C0 24.9033 0.341029 25.2444 0.761905 25.2444H31.2381C31.659 25.2444 32 24.9033 32 24.4825V2.84443C32 2.42366 31.659 2.08253 31.2381 2.08253ZM4.57143 1.57459H6.70476V2.08253H4.57143V1.57459ZM1.52381 23.7206H30.4762V3.60634H1.52381V23.7206Z" fill="#B2D235"/>
<path fill-rule="evenodd" clip-rule="evenodd" d="M22.6539 13.2063C22.6539 16.8754 19.6689 19.8603 15.9999 19.8603C12.3309 19.8603 9.34595 16.8754 9.34595 13.2063C9.34595 9.53731 12.3309 6.55237 15.9999 6.55237C19.6689 6.55237 22.6539 9.53731 22.6539 13.2063ZM21.1301 13.2063C21.1301 10.3775 18.8287 8.07618 15.9999 8.07618C13.1711 8.07618 10.8698 10.3775 10.8698 13.2063C10.8698 16.0351 13.1711 18.3365 15.9999 18.3365C18.8287 18.3365 21.1301 16.0351 21.1301 13.2063Z" fill="#B2D235"/>
<path fill-rule="evenodd" clip-rule="evenodd" d="M20.1143 13.2063C20.1143 15.4749 18.2687 17.3206 16 17.3206C13.7314 17.3206 11.8857 15.4749 11.8857 13.2063C11.8857 10.9378 13.7314 9.09204 16 9.09204C18.2687 9.09204 20.1143 10.9378 20.1143 13.2063ZM18.5905 13.2063C18.5905 11.7779 17.4284 10.6159 16 10.6159C14.5716 10.6159 13.4096 11.7779 13.4096 13.2063C13.4096 14.6347 14.5716 15.7968 16 15.7968C17.4284 15.7968 18.5905 14.6347 18.5905 13.2063Z" fill="#B2D235"/>
<path fill-rule="evenodd" clip-rule="evenodd" d="M28.1904 9.90476H24.9396C24.5188 9.90476 24.1777 9.56363 24.1777 9.14286V5.89206C24.1777 5.47129 24.5188 5.13016 24.9396 5.13016H28.1904C28.6113 5.13016 28.9523 5.47129 28.9523 5.89206V9.14286C28.9523 9.56363 28.6113 9.90476 28.1904 9.90476ZM27.4285 6.65397H25.7015V8.38095H27.4285V6.65397Z" fill="#B2D235"/>
<path d="M3.91107 20.0635H6.85711C7.27798 20.0635 7.61901 19.7224 7.61901 19.3016C7.61901 18.8808 7.27798 18.5397 6.85711 18.5397H3.91107C3.4902 18.5397 3.14917 18.8808 3.14917 19.3016C3.14917 19.7224 3.4902 20.0635 3.91107 20.0635Z" fill="#B2D235"/>
<path d="M3.91107 22.1968H6.85711C7.27798 22.1968 7.61901 21.8557 7.61901 21.4349C7.61901 21.0142 7.27798 20.673 6.85711 20.673H3.91107C3.4902 20.673 3.14917 21.0142 3.14917 21.4349C3.14917 21.8557 3.4902 22.1968 3.91107 22.1968Z" fill="#B2D235"/>
</svg>