<svg width="32" height="32" viewBox="0 0 32 32" fill="none" xmlns="http://www.w3.org/2000/svg">
<rect x="26" y="20" width="6" height="2" transform="rotate(-180 26 20)" fill="#B2D235"/>
<rect x="30" y="28" width="6" height="2" transform="rotate(-180 30 28)" fill="#B2D235"/>
<rect x="28" y="24" width="6" height="2" transform="rotate(-180 28 24)" fill="#B2D235"/>
<path fill-rule="evenodd" clip-rule="evenodd" d="M17.0029 20C16.9884 18.2837 16.0761 16.7004 14.5985 15.8271L22 3L20.2691 2L12.6933 15.126C10.8037 14.7037 8.82899 15.2697 7.45002 16.6289C3.70642 20.24 3.99632 28.6821 4.01002 29.04C4.0315 29.5766 4.47299 30.0004 5.01002 30H20.0012C20.4316 30 20.8138 29.7246 20.9499 29.3162C21.086 28.9079 20.9456 28.4583 20.6012 28.2C17.0615 25.5439 17.0029 20.0537 17.0029 20ZM11.93 16.9971C13.5927 17.0153 14.947 18.3382 15.0041 20C15.0041 20.0381 15.006 20.208 15.0209 20.4688L9.12152 17.8452C9.90641 17.1979 10.9181 16.8925 11.93 16.9971ZM14 25C14.141 26.1319 14.6503 27.186 15.4494 28H17.5968C16.47 26.4529 15.698 24.6766 15.3357 22.7973L7.80272 19.4473C6.29002 22.1079 6.03102 26.1636 6.00002 28H8.66522C8.28784 26.6973 8.06458 25.3548 8.00002 24H10C10.0836 25.3588 10.3338 26.7022 10.7451 28H12.9684C12.4043 27.0946 12.0717 26.0643 12 25H14Z" fill="#B2D235"/>
</svg>
