<svg width="9" height="8" viewBox="0 0 9 8" fill="none" xmlns="http://www.w3.org/2000/svg">
<path d="M8.30554 0.322456C7.97078 -0.0123062 7.42811 -0.0123062 7.09335 0.322456L4.62821 2.7876L2.16297 0.32236C1.82821 -0.0124014 1.28554 -0.0124014 0.950778 0.32236C0.616017 0.657122 0.616017 1.19979 0.950778 1.53455L3.41602 3.99979L0.950778 6.46503C0.616017 6.79979 0.616017 7.34246 0.950778 7.67722C1.11811 7.84455 1.33754 7.92827 1.55687 7.92827C1.77621 7.92827 1.99554 7.84455 2.16297 7.67722L4.62821 5.21198L7.09345 7.67722C7.26078 7.84455 7.48021 7.92827 7.69954 7.92827C7.91887 7.92827 8.13821 7.84455 8.30564 7.67722C8.6404 7.34246 8.6404 6.79979 8.30564 6.46503L5.8404 3.99979L8.30564 1.53455C8.6403 1.19988 8.6403 0.657122 8.30554 0.322456Z" fill="#FE5D26"/>
</svg>
