<svg width="15" height="12" viewBox="0 0 15 12" fill="none" xmlns="http://www.w3.org/2000/svg">
<path fill-rule="evenodd" clip-rule="evenodd" d="M3.45952 0.00683594H13.3612C13.9421 0.00683594 14.4306 0.482117 14.4306 1.07622V7.22847C14.4306 7.80936 13.9553 8.29785 13.3612 8.29785H12.4106V9.61807C12.4106 9.8161 12.2522 9.96133 12.0674 9.96133C11.975 9.96133 11.8958 9.92172 11.8297 9.85571L10.2851 8.29785H3.45952C2.87862 8.29785 2.39014 7.82257 2.39014 7.22847V1.07622C2.39014 0.495319 2.86542 0.00683594 3.45952 0.00683594ZM3.98761 4.31077C3.98761 4.85206 4.43649 5.30094 4.97778 5.30094C5.53227 5.30094 5.96795 4.85206 5.96795 4.31077C5.96795 3.76948 5.51907 3.3206 4.97778 3.3206C4.43649 3.3206 3.98761 3.76948 3.98761 4.31077ZM8.44997 5.30094C7.90868 5.30094 7.4598 4.85206 7.4598 4.31077C7.4598 3.76948 7.90868 3.3206 8.44997 3.3206C8.99126 3.3206 9.44014 3.76948 9.44014 4.31077C9.44014 4.85206 8.99126 5.30094 8.44997 5.30094ZM10.9188 4.31077C10.9188 4.85206 11.3677 5.30094 11.909 5.30094C12.4502 5.30094 12.8991 4.85206 12.8991 4.31077C12.8991 3.76948 12.4502 3.3206 11.909 3.3206C11.3677 3.3206 10.9188 3.76948 10.9188 4.31077Z" fill="black" fill-opacity="0.322577"/>
<path d="M1.7827 7.25443V5.15527H0.700117C0.317252 5.15527 0.000398097 5.47213 0.000398097 5.85499V9.89488C-0.0128041 10.3042 0.30405 10.621 0.700117 10.621H1.32062V11.4924C1.32062 11.6112 1.42624 11.7168 1.54506 11.7168C1.61107 11.7168 1.66388 11.6904 1.70349 11.6508L2.72006 10.6342H7.20883C7.59169 10.6342 7.90854 10.3174 7.90854 9.93449V8.93112H3.45939C2.53523 8.93112 1.7827 8.17859 1.7827 7.25443Z" fill="black" fill-opacity="0.322577"/>
</svg>
