<svg width="13" height="10" viewBox="0 0 13 10" fill="none" xmlns="http://www.w3.org/2000/svg">
<path fill-rule="evenodd" clip-rule="evenodd" d="M1.46001 0.0067749H11.3617C11.9426 0.0067749 12.4311 0.482056 12.4311 1.07616V7.2284C12.4311 7.8093 11.9558 8.29779 11.3617 8.29779H10.4111V9.61801C10.4111 9.81604 10.2527 9.96127 10.0679 9.96127C9.97546 9.96127 9.89624 9.92166 9.83023 9.85565L8.28557 8.29779H1.46001C0.879108 8.29779 0.390625 7.8225 0.390625 7.2284V1.07616C0.390625 0.495258 0.865906 0.0067749 1.46001 0.0067749ZM1.9881 4.31071C1.9881 4.852 2.43697 5.30088 2.97827 5.30088C3.53276 5.30088 3.96843 4.852 3.96843 4.31071C3.96843 3.76942 3.51956 3.32054 2.97827 3.32054C2.43697 3.32054 1.9881 3.76942 1.9881 4.31071ZM6.45046 5.30088C5.90916 5.30088 5.46029 4.852 5.46029 4.31071C5.46029 3.76942 5.90916 3.32054 6.45046 3.32054C6.99175 3.32054 7.44063 3.76942 7.44063 4.31071C7.44063 4.852 6.99175 5.30088 6.45046 5.30088ZM8.91928 4.31071C8.91928 4.852 9.36815 5.30088 9.90944 5.30088C10.4507 5.30088 10.8996 4.852 10.8996 4.31071C10.8996 3.76942 10.4507 3.32054 9.90944 3.32054C9.36815 3.32054 8.91928 3.76942 8.91928 4.31071Z" fill="black" fill-opacity="0.322577"/>
</svg>
