<svg width="16" height="16" viewBox="0 0 16 16" fill="none" xmlns="http://www.w3.org/2000/svg">
<path fill-rule="evenodd" clip-rule="evenodd" d="M13.83 12.2441H14.7014C15.2065 12.2441 15.6173 12.6549 15.6173 13.16V15.3439H0.351938V13.16C0.351938 12.6549 0.762791 12.2441 1.26788 12.2441H2.13922V5.86125H0L7.98465 0.00524902L15.9693 5.86125H13.83V12.2441ZM7.98465 0.762582L1.86493 5.25064H14.1044L7.98465 0.762582ZM13.2194 5.86125V12.2441H11.614V5.86125H13.2194ZM11.0034 12.2441V5.86125H9.39805V12.2441H11.0034ZM8.78741 5.86125V12.2441H7.18202V5.86125H8.78741ZM6.57141 12.2441V5.86125H4.96586V12.2441H6.57141ZM4.35526 5.86125V12.2441H2.74986V5.86125H4.35526ZM0.962574 14.7333H15.0067V13.16C15.0067 12.9916 14.8697 12.8547 14.7014 12.8547H1.26788C1.09957 12.8547 0.962574 12.9915 0.962574 13.16V14.7333Z" fill="#B2D235"/>
</svg>
