<svg width="49" height="60" viewBox="0 0 49 60" fill="none" xmlns="http://www.w3.org/2000/svg">
<path d="M45 11.25H39.375V3.75C39.375 1.67906 37.6959 0 35.625 0H13.125C11.0541 0 9.375 1.67906 9.375 3.75V11.25H3.75C1.67906 11.25 0 12.9291 0 15V18.75H48.75V15C48.75 12.9291 47.0709 11.25 45 11.25ZM16.875 11.25V7.5H31.875V11.25H16.875Z" fill="#FE5D26"/>
<path d="M3.75 56.2505C3.75 58.3214 5.42859 60 7.49953 60H41.2509C43.3214 60 45 58.3214 45 56.2509V56.2505V22.5H3.75V56.2505ZM31.875 31.875C31.875 30.8395 32.7145 30 33.75 30C34.7855 30 35.625 30.8395 35.625 31.875V50.625C35.625 51.6605 34.7855 52.5 33.75 52.5C32.7145 52.5 31.875 51.6605 31.875 50.625V31.875ZM22.5 31.875C22.5 30.8395 23.3395 30 24.375 30C25.4105 30 26.25 30.8395 26.25 31.875V50.625C26.25 51.6605 25.4105 52.5 24.375 52.5C23.3395 52.5 22.5 51.6605 22.5 50.625V31.875ZM13.125 31.875C13.125 30.8395 13.9645 30 15 30C16.0355 30 16.875 30.8395 16.875 31.875V50.625C16.875 51.6605 16.0355 52.5 15 52.5C13.9645 52.5 13.125 51.6605 13.125 50.625V31.875Z" fill="#FE5D26"/>
</svg>
