<svg width="16" height="17" viewBox="0 0 16 17" fill="none" xmlns="http://www.w3.org/2000/svg">
<path fill-rule="evenodd" clip-rule="evenodd" d="M11.5003 16.18H10.0003C9.90081 16.18 9.82031 16.0995 9.82031 16V1.00001C9.82031 0.900507 9.90081 0.820007 10.0003 0.820007H11.0003C11.9268 0.820007 12.6803 1.57351 12.6803 2.50001V8.50001C12.6803 8.59951 12.5998 8.68001 12.5003 8.68001H11.6803V16C11.6803 16.0995 11.5998 16.18 11.5003 16.18ZM10.1803 15.82H11.3198V8.50001C11.3198 8.40051 11.4003 8.32001 11.4998 8.32001H12.3198V2.50001C12.3198 1.77201 11.7278 1.18001 10.9998 1.18001H10.1798L10.1803 15.82ZM4.50031 16.18H6.00031C6.09981 16.18 6.18031 16.0995 6.18031 16V7.18001H6.50031C7.15081 7.18001 7.68031 6.65051 7.68031 6.00001V1.00001H7.32031V6.00001C7.32031 6.45201 6.95231 6.82001 6.50031 6.82001H6.00031C5.90081 6.82001 5.82031 6.90051 5.82031 7.00001V15.82H4.68031V7.00001C4.68031 6.90051 4.59981 6.82001 4.50031 6.82001H4.00031C3.54831 6.82001 3.18031 6.45201 3.18031 6.00001V1.00001H2.82031V6.00001C2.82031 6.65051 3.34981 7.18001 4.00031 7.18001H4.32031V16C4.32031 16.0995 4.40081 16.18 4.50031 16.18ZM6.18031 5.00001H5.82031V1.00001H6.18031V5.00001ZM4.32031 5.00001H4.68031V1.00001H4.32031V5.00001Z" fill="black"/>
</svg>
