<svg width="18" height="12" viewBox="0 0 18 12" fill="none" xmlns="http://www.w3.org/2000/svg">
<path fill-rule="evenodd" clip-rule="evenodd" d="M9 0.75C5.25 0.75 2.0475 3.0825 0.75 6.375C2.0475 9.6675 5.25 12 9 12C12.75 12 15.9525 9.6675 17.25 6.375C15.9525 3.0825 12.75 0.75 9 0.75ZM9 10.125C6.93 10.125 5.25 8.445 5.25 6.375C5.25 4.305 6.93 2.625 9 2.625C11.07 2.625 12.75 4.305 12.75 6.375C12.75 8.445 11.07 10.125 9 10.125ZM9 4.125C7.755 4.125 6.75 5.13 6.75 6.375C6.75 7.62 7.755 8.625 9 8.625C10.245 8.625 11.25 7.62 11.25 6.375C11.25 5.13 10.245 4.125 9 4.125Z" fill="#969696"/>
</svg>
