<svg width="20" height="17" viewBox="0 0 20 17" fill="none" xmlns="http://www.w3.org/2000/svg">
<path fill-rule="evenodd" clip-rule="evenodd" d="M14.6025 1.70674L5.34712 0.557482C5.16252 0.536222 4.9754 0.525482 4.79101 0.525482C2.14926 0.525482 0 2.67841 0 5.32466V5.42406C0 7.2137 0.983178 8.77748 2.43671 9.60252L3.7166 14.7766C3.85814 15.3488 4.21414 15.8318 4.7189 16.1363C5.06751 16.3467 5.45819 16.4546 5.85512 16.4546C6.03299 16.4545 6.21211 16.4329 6.38921 16.3891L6.42438 16.3804C6.99666 16.2389 7.47962 15.8829 7.78416 15.3781C8.08871 14.8733 8.17852 14.2802 8.03693 13.7079L7.11282 9.97206L14.6025 9.04203C14.8083 9.0165 14.9628 8.84165 14.9628 8.63425V2.11458C14.9628 1.90718 14.8083 1.73228 14.6025 1.70674ZM7.23901 13.9052C7.32789 14.2644 7.27151 14.6367 7.08038 14.9535C6.88921 15.2703 6.58614 15.4937 6.2269 15.5825L6.19173 15.5912C5.83266 15.6802 5.46033 15.6238 5.14351 15.4326C4.82674 15.2414 4.60334 14.9383 4.51452 14.5792L3.38482 10.0122C3.8297 10.1493 4.30192 10.2232 4.79107 10.2232C4.97551 10.2232 5.16263 10.2125 5.35085 10.1907L6.2914 10.074L7.23901 13.9052ZM5.25315 9.37469L14.1409 8.27107H14.1409V2.47765L5.24953 1.37359C5.09967 1.35639 4.94416 1.3474 4.79101 1.3474C2.60247 1.3474 0.821918 3.13162 0.821918 5.32466V5.42406C0.821918 7.61715 2.60247 9.40132 4.79096 9.40132C4.94411 9.40132 5.09962 9.39233 5.25315 9.37469Z" fill="black"/>
<path fill-rule="evenodd" clip-rule="evenodd" d="M5.03035 8.10784C3.52307 8.10784 2.29688 6.88159 2.29688 5.37436C2.29688 3.86712 3.52312 2.64088 5.03035 2.64088C6.53759 2.64088 7.76383 3.86712 7.76383 5.37436C7.76383 6.88159 6.53764 8.10784 5.03035 8.10784ZM5.03035 7.28592C6.08438 7.28592 6.94192 6.42838 6.94192 5.37436C6.94192 4.32033 6.08438 3.46279 5.03035 3.46279C3.97633 3.46279 3.11879 4.32027 3.11879 5.37436C3.11879 6.42844 3.97633 7.28592 5.03035 7.28592Z" fill="black"/>
<path d="M15.9539 4.07753C16.1928 4.07753 16.3078 4.20614 16.5252 4.47364C16.7651 4.76899 17.0937 5.17342 17.7344 5.17342C18.3752 5.17342 18.7037 4.76899 18.9437 4.47364C19.161 4.20608 19.2761 4.07753 19.515 4.07753C19.7419 4.07753 19.9259 3.89359 19.9259 3.66657C19.9259 3.43956 19.7419 3.25562 19.515 3.25562C18.8742 3.25562 18.5457 3.66005 18.3057 3.9554C18.0884 4.22296 17.9733 4.35151 17.7344 4.35151C17.4955 4.35151 17.3804 4.2229 17.1631 3.9554C16.9232 3.66005 16.5946 3.25562 15.9539 3.25562C15.727 3.25562 15.543 3.43956 15.543 3.66657C15.543 3.89359 15.7269 4.07753 15.9539 4.07753Z" fill="black"/>
<path d="M19.515 5.73798C18.8742 5.73798 18.5457 6.14241 18.3057 6.43776C18.0884 6.70532 17.9733 6.83387 17.7344 6.83387C17.4955 6.83387 17.3804 6.70526 17.1631 6.43776C16.9232 6.14241 16.5946 5.73798 15.9539 5.73798C15.727 5.73798 15.543 5.92192 15.543 6.14893C15.543 6.37595 15.727 6.55989 15.9539 6.55989C16.1928 6.55989 16.3079 6.6885 16.5252 6.956C16.7651 7.25135 17.0937 7.65578 17.7345 7.65578C18.3752 7.65578 18.7038 7.25135 18.9437 6.956C19.1611 6.68844 19.2761 6.55989 19.515 6.55989C19.742 6.55989 19.926 6.37595 19.926 6.14893C19.926 5.92192 19.7419 5.73798 19.515 5.73798V5.73798Z" fill="black"/>
</svg>
