<svg width="40" height="40" viewBox="0 0 40 40" fill="none" xmlns="http://www.w3.org/2000/svg">
<g filter="url(#filter0_d_0_8647)">
<circle cx="20" cy="19" r="16" fill="white"/>
</g>
<path d="M17.028 25.2382L17.3811 24.8842L17.3581 24.8613L17.3323 24.8415L17.028 25.2382ZM17.4618 25.4294L17.4307 25.9285L17.4391 25.9288L17.4618 25.4294ZM18.9749 25.8519L19.1414 25.3804L19.1381 25.3792L18.9749 25.8519ZM20.0341 26.2051L20.1864 25.7288H20.1864L20.0341 26.2051ZM20.1249 26.2341L20.2826 25.7596L20.2775 25.758L20.1249 26.2341ZM21.285 26.5158L21.1853 27.0057L21.1872 27.0061L21.285 26.5158ZM23.8977 26.6667V27.1667L23.9037 27.1666L23.8977 26.6667ZM25.7841 25.9223L26.1639 26.2475L26.1664 26.2446L25.7841 25.9223ZM26.2583 24.192L25.9128 23.8306L25.7398 23.9959L25.76 24.2343L26.2583 24.192ZM26.7727 23.2968L26.2926 23.1574L26.29 23.1662L26.2877 23.1752L26.7727 23.2968ZM26.7727 22.1802L26.3757 21.8763L26.2177 22.0826L26.2959 22.3305L26.7727 22.1802ZM27.1863 20.8724H26.6863V20.8829L26.6868 20.8933L27.1863 20.8724ZM27.0451 20.1481L26.6693 19.8184L26.4822 20.0316L26.5692 20.3015L27.0451 20.1481ZM27.0249 17.4321L27.378 17.078V17.078L27.0249 17.4321ZM23.0806 16.8889L22.6064 16.7304L22.3863 17.3889H23.0806V16.8889ZM23.1056 16.8108L22.6282 16.6622L22.6282 16.6622L23.1056 16.8108ZM23.1613 16.6575L23.6083 16.8816L23.6242 16.8498L23.6355 16.816L23.1613 16.6575ZM23.2313 16.5066L22.7873 16.2766L22.7873 16.2766L23.2313 16.5066ZM23.2622 16.4463L23.7092 16.6704L23.7092 16.6704L23.2622 16.4463ZM23.3227 16.3319L22.8843 16.0914V16.0914L23.3227 16.3319ZM23.353 16.2753L22.9103 16.0427L22.906 16.0511L23.353 16.2753ZM23.7969 15.1687L23.3119 15.0471V15.0471L23.7969 15.1687ZM23.8876 14.0722H24.3876V14.0472L24.3851 14.0223L23.8876 14.0722ZM23.8816 14.0089L23.3838 14.0552L23.3838 14.0552L23.8816 14.0089ZM23.8372 13.6397L23.34 13.6922L23.3413 13.7051L23.3434 13.7179L23.8372 13.6397ZM23.4942 12.7343L23.9179 12.4688L23.914 12.4626L23.9099 12.4565L23.4942 12.7343ZM22.5359 12.1006L22.6811 11.6221L22.5359 12.1006ZM20.9925 12.6539L20.5408 12.4393L20.5408 12.4393L20.9925 12.6539ZM20.8008 13.1468L21.2815 13.2845L21.2861 13.2683L21.2896 13.2518L20.8008 13.1468ZM20.6797 13.7302L21.1669 13.843L21.1707 13.8263L21.1734 13.8094L20.6797 13.7302ZM20.6113 14.032L20.1234 13.9227V13.9227L20.6113 14.032ZM20.5486 14.3036L21.0336 14.4252L21.0336 14.4252L20.5486 14.3036ZM20.0846 15.2291L20.4376 15.5831V15.5831L20.0846 15.2291ZM19.1162 16.3759L18.7226 16.0673L18.7177 16.0738L19.1162 16.3759ZM18.1477 17.5327L18.5158 17.8711H18.5158L18.1477 17.5327ZM17.4214 18.096L17.4525 18.5951L17.4546 18.5949L17.4214 18.096ZM17.0078 18.2872L17.3609 18.6412L17.3686 18.6335L17.3759 18.6255L17.0078 18.2872ZM12.4179 18.2771L12.0649 17.923H12.0649L12.4179 18.2771ZM16.0495 25.2583L15.6964 24.9043L15.6964 24.9043L16.0495 25.2583ZM12.4179 25.2583L12.771 24.9043L12.771 24.9043L12.4179 25.2583ZM13.6486 24.0412L14.0017 23.6871L13.994 23.6794L13.986 23.6721L13.6486 24.0412ZM14.5162 24.0412L14.8692 24.3952L14.8692 24.3952L14.5162 24.0412ZM14.5162 23.176L14.8692 22.822L14.8692 22.822L14.5162 23.176ZM13.6486 23.176L14.0017 23.5301L14.0094 23.5224L14.0167 23.5144L13.6486 23.176ZM17.3363 24.8258V18.6996H16.3363V24.8258H17.3363ZM17.3323 24.8415C17.3297 24.8395 17.3304 24.8396 17.3325 24.8423C17.3347 24.845 17.3366 24.8482 17.3379 24.851C17.3392 24.8538 17.3389 24.8541 17.3382 24.8507C17.3375 24.8471 17.3363 24.8391 17.3363 24.8258H16.3363C16.3363 25.1289 16.4517 25.4263 16.7237 25.635L17.3323 24.8415ZM17.4929 24.9303C17.4404 24.9271 17.4075 24.9106 17.3811 24.8842L16.6749 25.5923C16.8906 25.8073 17.1604 25.9115 17.4307 25.9284L17.4929 24.9303ZM19.1381 25.3792C18.74 25.2418 18.4067 25.1351 18.141 25.0609C17.8881 24.9903 17.6578 24.9377 17.4844 24.9299L17.4391 25.9288C17.4876 25.931 17.6206 25.9539 17.872 26.0241C18.1107 26.0907 18.423 26.1903 18.8118 26.3245L19.1381 25.3792ZM20.1864 25.7288C19.9149 25.642 19.568 25.531 19.1414 25.3804L18.8084 26.3233C19.2502 26.4793 19.6094 26.5942 19.8818 26.6813L20.1864 25.7288ZM20.2775 25.758C20.2482 25.7486 20.2177 25.7388 20.1864 25.7288L19.8818 26.6813C19.9132 26.6913 19.9433 26.701 19.9723 26.7102L20.2775 25.758ZM21.3847 26.0258C20.8897 25.9251 20.5232 25.8396 20.2826 25.7596L19.9672 26.7086C20.2714 26.8097 20.6918 26.9053 21.1853 27.0057L21.3847 26.0258ZM22.667 26.1667C22.283 26.1667 21.8624 26.1211 21.3828 26.0254L21.1872 27.0061C21.7164 27.1117 22.2037 27.1667 22.667 27.1667V26.1667ZM22.8284 26.1667H22.667V27.1667H22.8284V26.1667ZM23.5547 26.1667H22.8284V27.1667H23.5547V26.1667ZM23.8977 26.1667H23.5547V27.1667H23.8977V26.1667ZM25.4044 25.597C25.111 25.9395 24.6418 26.1578 23.8918 26.1667L23.9037 27.1666C24.8484 27.1554 25.6301 26.8707 26.1639 26.2475L25.4044 25.597ZM25.76 24.2343C25.8119 24.8456 25.6725 25.2791 25.4019 25.5999L26.1664 26.2446C26.6423 25.6802 26.8257 24.9669 26.7565 24.1498L25.76 24.2343ZM26.2877 23.1752C26.2199 23.4459 26.0866 23.6645 25.9128 23.8306L26.6037 24.5535C26.9141 24.2569 27.144 23.8719 27.2577 23.4183L26.2877 23.1752ZM26.2959 22.3305C26.3748 22.581 26.3783 22.8621 26.2926 23.1574L27.2529 23.4361C27.3891 22.9669 27.3926 22.4835 27.2496 22.0299L26.2959 22.3305ZM26.6868 20.8933C26.702 21.2584 26.5976 21.5863 26.3757 21.8763L27.1698 22.484C27.5329 22.0095 27.711 21.4522 27.6859 20.8516L26.6868 20.8933ZM26.5692 20.3015C26.6534 20.5626 26.6863 20.7469 26.6863 20.8724H27.6863C27.6863 20.5956 27.6184 20.297 27.521 19.9948L26.5692 20.3015ZM27.0697 18.7197C27.0697 19.1494 26.9373 19.5129 26.6693 19.8184L27.4209 20.4779C27.8591 19.9786 28.0697 19.3764 28.0697 18.7197H27.0697ZM26.6719 17.7861C26.9441 18.0576 27.0697 18.364 27.0697 18.7197H28.0697C28.0697 18.0896 27.8321 17.5309 27.378 17.078L26.6719 17.7861ZM25.7337 17.3889C26.0917 17.3889 26.3996 17.5146 26.6719 17.7861L27.378 17.078C26.9239 16.6253 26.3643 16.3889 25.7337 16.3889V17.3889ZM23.0806 17.3889H25.7337V16.3889H23.0806V17.3889ZM22.6282 16.6622C22.6202 16.6877 22.6136 16.709 22.6064 16.7304L23.5548 17.0474C23.5658 17.0147 23.5754 16.9838 23.583 16.9594L22.6282 16.6622ZM22.7144 16.4334C22.671 16.5198 22.6427 16.6154 22.6282 16.6622L23.583 16.9594C23.5927 16.9281 23.5986 16.9092 23.6042 16.8934C23.6096 16.878 23.6109 16.8763 23.6083 16.8816L22.7144 16.4334ZM22.7873 16.2766C22.7643 16.3211 22.7171 16.4094 22.6871 16.499L23.6355 16.816C23.6339 16.8211 23.6345 16.8179 23.6423 16.8016C23.6501 16.7852 23.6599 16.7663 23.6752 16.7367L22.7873 16.2766ZM22.8152 16.2222C22.8065 16.2395 22.7976 16.2567 22.7873 16.2766L23.6752 16.7367C23.6851 16.7176 23.697 16.6946 23.7092 16.6704L22.8152 16.2222ZM22.8843 16.0914C22.8674 16.1224 22.8433 16.1661 22.8152 16.2222L23.7092 16.6704C23.7283 16.6322 23.7447 16.6023 23.7611 16.5723L22.8843 16.0914ZM22.906 16.0511C22.9027 16.0579 22.8975 16.0675 22.8843 16.0914L23.7611 16.5723C23.7716 16.5531 23.7866 16.526 23.8 16.4994L22.906 16.0511ZM23.1559 15.5447C23.1036 15.6664 23.0205 15.833 22.9103 16.0427L23.7956 16.5078C23.9074 16.2951 24.0059 16.0994 24.0746 15.9395L23.1559 15.5447ZM23.3119 15.0471C23.2544 15.2765 23.2014 15.4387 23.1559 15.5447L24.0746 15.9395C24.1502 15.7638 24.2183 15.5438 24.2818 15.2903L23.3119 15.0471ZM23.3876 14.4444C23.3876 14.6436 23.3627 14.8442 23.3119 15.0471L24.2818 15.2903C24.352 15.0104 24.3876 14.7281 24.3876 14.4444H23.3876ZM23.3876 14.0722V14.4444H24.3876V14.0722H23.3876ZM23.3838 14.0552C23.3858 14.0774 23.388 14.1004 23.3901 14.1221L24.3851 14.0223C24.3834 14.0049 24.3816 13.9857 24.3795 13.9625L23.3838 14.0552ZM23.3434 13.7179C23.365 13.8549 23.3751 13.9626 23.3838 14.0552L24.3795 13.9625C24.3706 13.8673 24.3581 13.7324 24.3311 13.5615L23.3434 13.7179ZM23.2597 13.3468C23.2947 13.4375 23.3245 13.5456 23.34 13.6922L24.3344 13.5872C24.3096 13.3515 24.2586 13.1578 24.1927 12.987L23.2597 13.3468ZM23.0706 12.9999C23.1693 13.1574 23.2278 13.2639 23.2597 13.3468L24.1927 12.987C24.1238 12.8083 24.0209 12.6331 23.9179 12.4688L23.0706 12.9999ZM22.8341 12.7685C22.9305 12.8326 23.0144 12.9163 23.0786 13.0122L23.9099 12.4565C23.7723 12.2506 23.5939 12.0728 23.3877 11.9357L22.8341 12.7685ZM22.3907 12.579C22.599 12.6423 22.7394 12.7055 22.8341 12.7685L23.3877 11.9357C23.1798 11.7975 22.9369 11.6998 22.6811 11.6221L22.3907 12.579ZM21.749 12.5C22.0093 12.5 22.2196 12.5271 22.3907 12.579L22.6811 11.6221C22.3881 11.5332 22.0738 11.5 21.749 11.5V12.5ZM21.6683 12.5351C21.6887 12.5148 21.7013 12.5086 21.7068 12.5063C21.712 12.5041 21.7236 12.5 21.749 12.5V11.5C21.4412 11.5 21.1742 11.6157 20.9622 11.827L21.6683 12.5351ZM21.4441 12.8684C21.5148 12.7196 21.5947 12.6085 21.6683 12.5351L20.9622 11.827C20.7937 11.9951 20.6517 12.2059 20.5408 12.4393L21.4441 12.8684ZM21.2896 13.2518C21.3059 13.176 21.3508 13.0648 21.4441 12.8684L20.5408 12.4393C20.4526 12.6252 20.3562 12.8359 20.312 13.0417L21.2896 13.2518ZM21.1734 13.8094C21.2122 13.5677 21.2488 13.3983 21.2815 13.2845L20.3201 13.0091C20.2721 13.1769 20.228 13.3898 20.1861 13.651L21.1734 13.8094ZM21.0992 14.1413C21.1187 14.0541 21.1409 13.955 21.1669 13.843L20.1926 13.6175C20.1658 13.7334 20.1429 13.8355 20.1234 13.9227L21.0992 14.1413ZM21.0336 14.4252C21.0526 14.3495 21.0745 14.2517 21.0992 14.1413L20.1234 13.9227C20.0975 14.0382 20.0788 14.1215 20.0636 14.182L21.0336 14.4252ZM20.8377 14.9608C20.9158 14.7761 20.9924 14.5897 21.0336 14.4252L20.0636 14.182C20.0443 14.259 19.9999 14.3744 19.9165 14.5719L20.8377 14.9608ZM20.4376 15.5831C20.6079 15.4133 20.7405 15.1911 20.8377 14.9608L19.9165 14.5719C19.8523 14.7238 19.7831 14.8236 19.7315 14.875L20.4376 15.5831ZM19.5096 16.6844C19.943 16.1316 20.2495 15.7708 20.4376 15.5831L19.7315 14.875C19.496 15.1099 19.1568 15.5136 18.7227 16.0674L19.5096 16.6844ZM18.5158 17.8711C18.8585 17.4983 19.1915 17.104 19.5146 16.6779L18.7177 16.0738C18.4153 16.4726 18.1028 16.8428 17.7796 17.1943L18.5158 17.8711ZM17.4546 18.5949C17.6909 18.5792 17.8922 18.4434 18.0238 18.3408C18.176 18.2222 18.341 18.0612 18.5158 17.8711L17.7796 17.1943C17.6215 17.3663 17.499 17.482 17.4092 17.552C17.3646 17.5867 17.3372 17.6029 17.3254 17.6089C17.3107 17.6164 17.3349 17.6007 17.3882 17.5971L17.4546 18.5949ZM17.3759 18.6255C17.3868 18.6137 17.3951 18.6087 17.4021 18.6055C17.4099 18.602 17.4252 18.5968 17.4525 18.5951L17.3903 17.597C17.1142 17.6142 16.8472 17.7231 16.6397 17.9488L17.3759 18.6255ZM17.3363 18.6996C17.3363 18.6829 17.3392 18.6734 17.3416 18.6679C17.344 18.6622 17.3489 18.6532 17.3609 18.6412L16.6548 17.9331C16.4516 18.1357 16.3363 18.4031 16.3363 18.6996H17.3363ZM11.7363 18.7096V24.8258H12.7363V18.7096H11.7363ZM12.0649 17.923C11.8497 18.1376 11.7363 18.4159 11.7363 18.7096H12.7363C12.7363 18.6815 12.744 18.658 12.771 18.6311L12.0649 17.923ZM12.8517 17.596C12.5439 17.596 12.2768 17.7117 12.0649 17.923L12.771 18.6311C12.7913 18.6109 12.804 18.6046 12.8094 18.6023C12.8146 18.6001 12.8263 18.596 12.8517 18.596V17.596ZM15.6157 17.596H12.8517V18.596H15.6157V17.596ZM16.4025 17.923C16.1874 17.7085 15.909 17.596 15.6157 17.596V18.596C15.6452 18.596 15.6694 18.6042 15.6964 18.6311L16.4025 17.923ZM16.7311 18.7096C16.7311 18.4014 16.6145 18.1344 16.4025 17.923L15.6964 18.6311C15.7168 18.6514 15.7229 18.6639 15.725 18.669C15.727 18.6737 15.7311 18.6848 15.7311 18.7096H16.7311ZM16.7311 24.8258V18.7096H15.7311V24.8258H16.7311ZM16.4025 25.6124C16.6177 25.3978 16.7311 25.1195 16.7311 24.8258H15.7311C15.7311 24.8539 15.7234 24.8774 15.6964 24.9043L16.4025 25.6124ZM15.6157 25.9394C15.9235 25.9394 16.1906 25.8237 16.4025 25.6124L15.6964 24.9043C15.6761 24.9246 15.6634 24.9308 15.6579 24.9331C15.6528 24.9353 15.6411 24.9394 15.6157 24.9394V25.9394ZM12.8517 25.9394H15.6157V24.9394H12.8517V25.9394ZM12.0648 25.6124C12.28 25.8269 12.5584 25.9394 12.8517 25.9394V24.9394C12.8222 24.9394 12.798 24.9312 12.771 24.9043L12.0648 25.6124ZM11.7363 24.8258C11.7363 25.134 11.8529 25.401 12.0649 25.6124L12.771 24.9043C12.7506 24.884 12.7445 24.8715 12.7423 24.8664C12.7403 24.8617 12.7363 24.8506 12.7363 24.8258H11.7363ZM13.986 23.6721C13.9796 23.6663 13.9766 23.6615 13.9742 23.6559C13.9716 23.6494 13.967 23.6349 13.967 23.6086H12.967C12.967 23.9037 13.0752 24.1944 13.3113 24.4102L13.986 23.6721ZM14.0824 23.7222C14.057 23.7222 14.0453 23.7181 14.0401 23.7159C14.0347 23.7136 14.022 23.7074 14.0017 23.6871L13.2956 24.3952C13.5075 24.6065 13.7746 24.7222 14.0824 24.7222V23.7222ZM14.1631 23.6871C14.1361 23.714 14.1119 23.7222 14.0824 23.7222V24.7222C14.3757 24.7222 14.6541 24.6097 14.8692 24.3952L14.1631 23.6871ZM14.1977 23.6086C14.1977 23.6334 14.1937 23.6445 14.1917 23.6492C14.1896 23.6543 14.1834 23.6668 14.1631 23.6871L14.8692 24.3952C15.0812 24.1838 15.1977 23.9168 15.1977 23.6086H14.1977ZM14.1631 23.5301C14.19 23.557 14.1977 23.5804 14.1977 23.6086H15.1977C15.1977 23.3148 15.0844 23.0365 14.8692 22.822L14.1631 23.5301ZM14.0824 23.495C14.1078 23.495 14.1195 23.4991 14.1246 23.5013C14.1301 23.5035 14.1428 23.5098 14.1631 23.5301L14.8692 22.822C14.6573 22.6106 14.3902 22.495 14.0824 22.495V23.495ZM14.0167 23.5144C14.0225 23.5081 14.0274 23.5049 14.0335 23.5024C14.0404 23.4996 14.0555 23.495 14.0824 23.495V22.495C13.7877 22.495 13.4969 22.6023 13.2805 22.8377L14.0167 23.5144ZM13.967 23.6086C13.967 23.5838 13.9711 23.5727 13.973 23.5679C13.9752 23.5629 13.9813 23.5504 14.0017 23.5301L13.2956 22.822C13.0836 23.0334 12.967 23.3003 12.967 23.6086H13.967Z" fill="#AAD300"/>
<defs>
<filter id="filter0_d_0_8647" x="0" y="0" width="40" height="40" filterUnits="userSpaceOnUse" color-interpolation-filters="sRGB">
<feFlood flood-opacity="0" result="BackgroundImageFix"/>
<feColorMatrix in="SourceAlpha" type="matrix" values="0 0 0 0 0 0 0 0 0 0 0 0 0 0 0 0 0 0 127 0" result="hardAlpha"/>
<feOffset dy="1"/>
<feGaussianBlur stdDeviation="2"/>
<feColorMatrix type="matrix" values="0 0 0 0 0.133333 0 0 0 0 0.133333 0 0 0 0 0.133333 0 0 0 0.162232 0"/>
<feBlend mode="normal" in2="BackgroundImageFix" result="effect1_dropShadow_0_8647"/>
<feBlend mode="normal" in="SourceGraphic" in2="effect1_dropShadow_0_8647" result="shape"/>
</filter>
</defs>
</svg>
