<svg width="18" height="17" viewBox="0 0 18 17" fill="none" xmlns="http://www.w3.org/2000/svg">
<path d="M6.02799 14.2382L6.38105 13.8842L6.35807 13.8613L6.33231 13.8415L6.02799 14.2382ZM6.46177 14.4294L6.43066 14.9285L6.43913 14.9288L6.46177 14.4294ZM7.97492 14.8519L8.14144 14.3804L8.13807 14.3792L7.97492 14.8519ZM9.03413 15.2051L9.18642 14.7288H9.18642L9.03413 15.2051ZM9.12492 15.2341L9.28265 14.7596L9.27754 14.758L9.12492 15.2341ZM10.285 15.5158L10.1853 16.0057L10.1872 16.0061L10.285 15.5158ZM12.8977 15.6667V16.1667L12.9037 16.1666L12.8977 15.6667ZM14.7841 14.9223L15.1639 15.2475L15.1664 15.2446L14.7841 14.9223ZM15.2583 13.192L14.9128 12.8306L14.7398 12.9959L14.76 13.2343L15.2583 13.192ZM15.7727 12.2968L15.2926 12.1574L15.29 12.1662L15.2877 12.1752L15.7727 12.2968ZM15.7727 11.1802L15.3757 10.8763L15.2177 11.0826L15.2959 11.3305L15.7727 11.1802ZM16.1863 9.87243H15.6863V9.88287L15.6868 9.8933L16.1863 9.87243ZM16.0451 9.14815L15.6693 8.81837L15.4822 9.03158L15.5692 9.30154L16.0451 9.14815ZM16.0249 6.4321L16.378 6.07805V6.07805L16.0249 6.4321ZM12.0806 5.88889L11.6064 5.73038L11.3863 6.38889H12.0806V5.88889ZM12.1056 5.81079L11.6282 5.66215L11.6282 5.66216L12.1056 5.81079ZM12.1613 5.65752L12.6083 5.88163L12.6242 5.84981L12.6355 5.81604L12.1613 5.65752ZM12.2313 5.50663L11.7873 5.2766L11.7873 5.2766L12.2313 5.50663ZM12.2622 5.44627L12.7092 5.67039L12.7092 5.67039L12.2622 5.44627ZM12.3227 5.33188L11.8843 5.09144V5.09144L12.3227 5.33188ZM12.353 5.27526L11.9103 5.04271L11.906 5.05115L12.353 5.27526ZM12.7969 4.16872L12.3119 4.04713V4.04714L12.7969 4.16872ZM12.8876 3.07225H13.3876V3.04723L13.3851 3.02235L12.8876 3.07225ZM12.8816 3.00887L12.3838 3.05518L12.3838 3.05519L12.8816 3.00887ZM12.8372 2.63969L12.34 2.69218L12.3413 2.70507L12.3434 2.71788L12.8372 2.63969ZM12.4942 1.73434L12.9179 1.46881L12.914 1.46257L12.9099 1.45645L12.4942 1.73434ZM11.5359 1.10059L11.6811 0.622144L11.5359 1.10059ZM9.99247 1.65386L9.54083 1.43933L9.54083 1.43933L9.99247 1.65386ZM9.8008 2.14678L10.2815 2.28449L10.2861 2.2683L10.2896 2.25182L9.8008 2.14678ZM9.67975 2.73022L10.1669 2.84295L10.1707 2.82631L10.1734 2.80944L9.67975 2.73022ZM9.61129 3.032L9.12339 2.92266V2.92267L9.61129 3.032ZM9.54861 3.30361L10.0336 3.4252L10.0336 3.4252L9.54861 3.30361ZM9.08457 4.22908L9.43763 4.58313V4.58313L9.08457 4.22908ZM8.11615 5.37586L7.72262 5.06732L7.71773 5.07376L8.11615 5.37586ZM7.14773 6.53269L7.51584 6.87107H7.51584L7.14773 6.53269ZM6.42142 7.09602L6.45252 7.59506L6.45458 7.59492L6.42142 7.09602ZM6.00782 7.28715L6.36088 7.6412L6.36857 7.63353L6.37592 7.62553L6.00782 7.28715ZM1.41791 7.27709L1.06485 6.92304H1.06485L1.41791 7.27709ZM5.04949 14.2583L4.69643 13.9043L4.69643 13.9043L5.04949 14.2583ZM1.41791 14.2583L1.77097 13.9043L1.77096 13.9043L1.41791 14.2583ZM2.64861 13.0412L3.00167 12.6871L2.99397 12.6794L2.98596 12.6721L2.64861 13.0412ZM3.51615 13.0412L3.86921 13.3952L3.86921 13.3952L3.51615 13.0412ZM3.51615 12.176L3.86921 11.822L3.86921 11.822L3.51615 12.176ZM2.64861 12.176L3.00167 12.5301L3.00936 12.5224L3.01671 12.5144L2.64861 12.176ZM6.33633 13.8258V7.69959H5.33633V13.8258H6.33633ZM6.33231 13.8415C6.32973 13.8395 6.33042 13.8396 6.33253 13.8423C6.33469 13.845 6.33664 13.8482 6.33795 13.851C6.33919 13.8538 6.3389 13.8541 6.33822 13.8507C6.33751 13.8471 6.33633 13.8391 6.33633 13.8258H5.33633C5.33633 14.1289 5.45172 14.4263 5.72368 14.635L6.33231 13.8415ZM6.49287 13.9303C6.44036 13.9271 6.40752 13.9106 6.38105 13.8842L5.67494 14.5923C5.89057 14.8073 6.16037 14.9115 6.43067 14.9284L6.49287 13.9303ZM8.13807 14.3792C7.73999 14.2418 7.4067 14.1351 7.14097 14.0609C6.88806 13.9903 6.65782 13.9377 6.48441 13.9299L6.43913 14.9288C6.48764 14.931 6.62056 14.9539 6.87204 15.0241C7.11069 15.0907 7.42302 15.1903 7.81178 15.3245L8.13807 14.3792ZM9.18642 14.7288C8.9149 14.642 8.56798 14.531 8.14143 14.3804L7.80842 15.3233C8.25022 15.4793 8.60944 15.5942 8.88184 15.6813L9.18642 14.7288ZM9.27754 14.758C9.24816 14.7486 9.21773 14.7388 9.18642 14.7288L8.88184 15.6813C8.91321 15.6913 8.94331 15.701 8.97231 15.7102L9.27754 14.758ZM10.3847 15.0258C9.88965 14.9251 9.5232 14.8396 9.28264 14.7596L8.96721 15.7086C9.27139 15.8097 9.69177 15.9053 10.1853 16.0057L10.3847 15.0258ZM11.667 15.1667C11.283 15.1667 10.8624 15.1211 10.3828 15.0254L10.1872 16.0061C10.7164 16.1117 11.2037 16.1667 11.667 16.1667V15.1667ZM11.8284 15.1667H11.667V16.1667H11.8284V15.1667ZM12.5547 15.1667H11.8284V16.1667H12.5547V15.1667ZM12.8977 15.1667H12.5547V16.1667H12.8977V15.1667ZM14.4044 14.597C14.111 14.9395 13.6418 15.1578 12.8918 15.1667L12.9037 16.1666C13.8484 16.1554 14.6301 15.8707 15.1639 15.2475L14.4044 14.597ZM14.76 13.2343C14.8119 13.8456 14.6725 14.2791 14.4019 14.5999L15.1664 15.2446C15.6423 14.6802 15.8257 13.9669 15.7565 13.1498L14.76 13.2343ZM15.2877 12.1752C15.2199 12.4459 15.0866 12.6645 14.9128 12.8306L15.6037 13.5535C15.9141 13.2569 16.144 12.8719 16.2577 12.4183L15.2877 12.1752ZM15.2959 11.3305C15.3748 11.581 15.3783 11.8621 15.2926 12.1574L16.2529 12.4361C16.3891 11.9669 16.3926 11.4835 16.2496 11.0299L15.2959 11.3305ZM15.6868 9.8933C15.702 10.2584 15.5976 10.5863 15.3757 10.8763L16.1698 11.484C16.5329 11.0095 16.711 10.4522 16.6859 9.85155L15.6868 9.8933ZM15.5692 9.30154C15.6534 9.56262 15.6863 9.74688 15.6863 9.87243H16.6863C16.6863 9.5956 16.6184 9.29701 16.521 8.99475L15.5692 9.30154ZM16.0697 7.71971C16.0697 8.14941 15.9373 8.51294 15.6693 8.81837L16.4209 9.47792C16.8591 8.9786 17.0697 8.37642 17.0697 7.71971H16.0697ZM15.6719 6.78615C15.9441 7.05763 16.0697 7.36404 16.0697 7.71971H17.0697C17.0697 7.08955 16.8321 6.53085 16.378 6.07805L15.6719 6.78615ZM14.7337 6.38889C15.0917 6.38889 15.3996 6.51464 15.6719 6.78615L16.378 6.07805C15.9239 5.62528 15.3643 5.38889 14.7337 5.38889V6.38889ZM12.0806 6.38889H14.7337V5.38889H12.0806V6.38889ZM11.6282 5.66216C11.6202 5.68772 11.6136 5.70903 11.6064 5.73038L12.5548 6.04739C12.5658 6.01471 12.5754 5.98377 12.583 5.95941L11.6282 5.66216ZM11.7144 5.43341C11.671 5.51984 11.6427 5.61536 11.6282 5.66215L12.583 5.95942C12.5927 5.92815 12.5986 5.90922 12.6042 5.89341C12.6096 5.87803 12.6109 5.87634 12.6083 5.88163L11.7144 5.43341ZM11.7873 5.2766C11.7643 5.32109 11.7171 5.40939 11.6871 5.499L12.6355 5.81604C12.6339 5.82107 12.6345 5.8179 12.6423 5.80157C12.6501 5.78521 12.6599 5.76625 12.6752 5.73665L11.7873 5.2766ZM11.8152 5.22216C11.8065 5.23951 11.7976 5.25674 11.7873 5.2766L12.6752 5.73666C12.6851 5.71762 12.697 5.69461 12.7092 5.67039L11.8152 5.22216ZM11.8843 5.09144C11.8674 5.12236 11.8433 5.16611 11.8152 5.22216L12.7092 5.67039C12.7283 5.63216 12.7447 5.60234 12.7611 5.57232L11.8843 5.09144ZM11.906 5.05115C11.9027 5.05788 11.8975 5.06751 11.8843 5.09144L12.7611 5.57232C12.7716 5.55314 12.7866 5.52598 12.8 5.49938L11.906 5.05115ZM12.1559 4.54469C12.1036 4.66645 12.0205 4.83296 11.9103 5.04275L12.7956 5.50778C12.9074 5.29507 13.0059 5.09944 13.0746 4.93954L12.1559 4.54469ZM12.3119 4.04714C12.2544 4.27649 12.2014 4.43874 12.1559 4.54469L13.0746 4.93954C13.1502 4.76382 13.2183 4.54381 13.2818 4.29031L12.3119 4.04714ZM12.3876 3.44444C12.3876 3.64363 12.3627 3.84424 12.3119 4.04713L13.2818 4.29031C13.352 4.01036 13.3876 3.72812 13.3876 3.44444H12.3876ZM12.3876 3.07225V3.44444H13.3876V3.07225H12.3876ZM12.3838 3.05519C12.3858 3.07744 12.388 3.10044 12.3901 3.12214L13.3851 3.02235C13.3834 3.0049 13.3816 2.98569 13.3795 2.96254L12.3838 3.05519ZM12.3434 2.71788C12.365 2.85487 12.3751 2.96259 12.3838 3.05518L13.3795 2.96255C13.3706 2.86727 13.3581 2.73238 13.3311 2.5615L12.3434 2.71788ZM12.2597 2.34683C12.2947 2.43752 12.3245 2.54561 12.34 2.69218L13.3344 2.5872C13.3096 2.35151 13.2586 2.15782 13.1927 1.98697L12.2597 2.34683ZM12.0706 1.99987C12.1693 2.15744 12.2278 2.2639 12.2597 2.34683L13.1927 1.98697C13.1238 1.80835 13.0209 1.63315 12.9179 1.46881L12.0706 1.99987ZM11.8341 1.76846C11.9305 1.83255 12.0144 1.91628 12.0786 2.01223L12.9099 1.45645C12.7723 1.25062 12.5939 1.0728 12.3877 0.935697L11.8341 1.76846ZM11.3907 1.57904C11.599 1.64226 11.7394 1.70552 11.8341 1.76846L12.3877 0.935697C12.1798 0.797452 11.9369 0.699764 11.6811 0.622144L11.3907 1.57904ZM10.749 1.5C11.0093 1.5 11.2196 1.52712 11.3907 1.57904L11.6811 0.622144C11.3881 0.533234 11.0738 0.5 10.749 0.5V1.5ZM10.6683 1.53512C10.6887 1.51484 10.7013 1.50857 10.7068 1.50628C10.712 1.50411 10.7236 1.5 10.749 1.5V0.5C10.4412 0.5 10.1742 0.615674 9.96222 0.827021L10.6683 1.53512ZM10.4441 1.8684C10.5148 1.71958 10.5947 1.60851 10.6683 1.53512L9.96222 0.827021C9.79371 0.995058 9.65172 1.20589 9.54083 1.43933L10.4441 1.8684ZM10.2896 2.25182C10.3059 2.17597 10.3508 2.06482 10.4441 1.8684L9.54083 1.43933C9.45256 1.62516 9.35619 1.83592 9.31196 2.04173L10.2896 2.25182ZM10.1734 2.80944C10.2122 2.56769 10.2488 2.39835 10.2815 2.28449L9.32014 2.00906C9.27206 2.17687 9.22798 2.38979 9.18606 2.65101L10.1734 2.80944ZM10.0992 3.14134C10.1187 3.05405 10.1409 2.95502 10.1669 2.84295L9.19262 2.61749C9.16581 2.73335 9.14292 2.8355 9.12339 2.92266L10.0992 3.14134ZM10.0336 3.4252C10.0526 3.34952 10.0745 3.25171 10.0992 3.14134L9.12339 2.92267C9.0975 3.03821 9.0788 3.12147 9.06362 3.18203L10.0336 3.4252ZM9.83774 3.96084C9.91575 3.77608 9.99237 3.58967 10.0336 3.4252L9.06362 3.18202C9.04432 3.25898 8.99989 3.37435 8.91649 3.57186L9.83774 3.96084ZM9.43763 4.58313C9.60793 4.4133 9.74051 4.19111 9.83774 3.96084L8.91649 3.57186C8.85232 3.72384 8.78314 3.82355 8.73152 3.87503L9.43763 4.58313ZM8.50964 5.68435C8.94304 5.13155 9.24946 4.77077 9.43763 4.58313L8.73152 3.87503C8.496 4.10989 8.15681 4.51362 7.72267 5.06736L8.50964 5.68435ZM7.51584 6.87107C7.85848 6.49832 8.19154 6.10399 8.51457 5.67795L7.71773 5.07376C7.41533 5.47259 7.10277 5.84278 6.77963 6.19432L7.51584 6.87107ZM6.45458 7.59492C6.69092 7.57921 6.89215 7.44335 7.02377 7.34082C7.17603 7.2222 7.34104 7.06122 7.51584 6.87107L6.77963 6.19432C6.62152 6.36631 6.49904 6.48197 6.4092 6.55196C6.3646 6.5867 6.33722 6.60294 6.3254 6.60894C6.31071 6.61641 6.33489 6.60067 6.38825 6.59712L6.45458 7.59492ZM6.37592 7.62553C6.38678 7.61372 6.39512 7.60867 6.40212 7.60549C6.40992 7.60196 6.42517 7.59676 6.45252 7.59505L6.39031 6.59699C6.1142 6.6142 5.84721 6.72305 5.63971 6.94877L6.37592 7.62553ZM6.33633 7.69959C6.33633 7.68288 6.33923 7.67342 6.34156 7.66787C6.34395 7.66217 6.34888 7.65316 6.36088 7.6412L5.65476 6.9331C5.45162 7.13568 5.33633 7.40314 5.33633 7.69959H6.33633ZM0.736328 7.70965V13.8258H1.73633V7.70965H0.736328ZM1.06485 6.92304C0.849691 7.1376 0.736328 7.41589 0.736328 7.70965H1.73633C1.73633 7.6815 1.74402 7.65801 1.77096 7.63114L1.06485 6.92304ZM1.85168 6.59602C1.54387 6.59602 1.27679 6.7117 1.06485 6.92304L1.77096 7.63114C1.7913 7.61087 1.80398 7.6046 1.80944 7.6023C1.81461 7.60013 1.82626 7.59602 1.85168 7.59602V6.59602ZM4.61571 6.59602H1.85168V7.59602H4.61571V6.59602ZM5.40254 6.92304C5.18743 6.70853 4.90901 6.59602 4.61571 6.59602V7.59602C4.64522 7.59602 4.66943 7.60422 4.69643 7.63114L5.40254 6.92304ZM5.73106 7.70965C5.73106 7.4014 5.61451 7.13442 5.40254 6.92304L4.69643 7.63114C4.71678 7.65143 4.72291 7.66393 4.72505 7.669C4.72704 7.67373 4.73107 7.68483 4.73107 7.70965H5.73106ZM5.73106 13.8258V7.70965H4.73107V13.8258H5.73106ZM5.40254 14.6124C5.6177 14.3978 5.73106 14.1195 5.73106 13.8258H4.73107C4.73107 13.8539 4.72338 13.8774 4.69643 13.9043L5.40254 14.6124ZM4.61571 14.9394C4.92353 14.9394 5.1906 14.8237 5.40254 14.6124L4.69643 13.9043C4.6761 13.9246 4.66341 13.9308 4.65795 13.9331C4.65279 13.9353 4.64114 13.9394 4.61571 13.9394V14.9394ZM1.85168 14.9394H4.61571V13.9394H1.85168V14.9394ZM1.06485 14.6124C1.27996 14.8269 1.55838 14.9394 1.85168 14.9394V13.9394C1.82217 13.9394 1.79796 13.9312 1.77097 13.9043L1.06485 14.6124ZM0.736328 13.8258C0.736328 14.134 0.85288 14.401 1.06485 14.6124L1.77096 13.9043C1.75062 13.884 1.74449 13.8715 1.74235 13.8664C1.74035 13.8617 1.73633 13.8506 1.73633 13.8258H0.736328ZM2.98596 12.6721C2.97959 12.6663 2.97659 12.6615 2.97424 12.6559C2.97157 12.6494 2.96703 12.6349 2.96703 12.6086H1.96703C1.96703 12.9037 2.07516 13.1944 2.31126 13.4102L2.98596 12.6721ZM3.08238 12.7222C3.05696 12.7222 3.04531 12.7181 3.04015 12.7159C3.03468 12.7136 3.022 12.7074 3.00167 12.6871L2.29555 13.3952C2.50749 13.6065 2.77457 13.7222 3.08238 13.7222V12.7222ZM3.1631 12.6871C3.1361 12.714 3.11189 12.7222 3.08238 12.7222V13.7222C3.37568 13.7222 3.6541 13.6097 3.86921 13.3952L3.1631 12.6871ZM3.19773 12.6086C3.19773 12.6334 3.19371 12.6445 3.19171 12.6492C3.18957 12.6543 3.18344 12.6668 3.1631 12.6871L3.86921 13.3952C4.08118 13.1838 4.19773 12.9168 4.19773 12.6086H3.19773ZM3.1631 12.5301C3.19004 12.557 3.19773 12.5804 3.19773 12.6086H4.19773C4.19773 12.3148 4.08437 12.0365 3.86921 11.822L3.1631 12.5301ZM3.08238 12.495C3.1078 12.495 3.11945 12.4991 3.12461 12.5013C3.13008 12.5035 3.14276 12.5098 3.1631 12.5301L3.86921 11.822C3.65727 11.6106 3.3902 11.495 3.08238 11.495V12.495ZM3.01671 12.5144C3.02251 12.5081 3.02743 12.5049 3.03352 12.5024C3.04039 12.4996 3.05552 12.495 3.08238 12.495V11.495C2.78768 11.495 2.4969 11.6023 2.2805 11.8377L3.01671 12.5144ZM2.96703 12.6086C2.96703 12.5838 2.97105 12.5727 2.97305 12.5679C2.97519 12.5629 2.98132 12.5504 3.00167 12.5301L2.29555 11.822C2.08358 12.0334 1.96703 12.3003 1.96703 12.6086H2.96703Z" fill="#AAD300"/>
</svg>
