<svg width="32" height="31" viewBox="0 0 32 31" fill="none" xmlns="http://www.w3.org/2000/svg">
<path d="M28.5205 15.9C28.2039 15.9 27.9409 16.1485 27.9409 16.4626V28.9749H5.05912V25.3436C5.05912 25.0296 4.79624 24.781 4.47956 24.781C4.16295 24.781 3.9 25.0295 3.9 25.3436V29.5374C3.9 29.8514 4.16288 30.1 4.47956 30.1H28.5204C28.837 30.1 29.1 29.8515 29.1 29.5374V16.4626C29.1001 16.1485 28.8371 15.9 28.5205 15.9Z" fill="#B2D235"  stroke-width="0.2"/>
<path d="M16.3439 0.0145531L16.3439 0.0145592L30.8741 10.9256C30.8741 10.9256 30.8741 10.9256 30.8741 10.9256C31.0692 11.072 31.1485 11.3259 31.0701 11.5564C31.0701 11.5564 31.0701 11.5564 31.0701 11.5564L30.9755 11.5243C30.9112 11.7135 30.732 11.841 30.5303 11.841L16.3439 0.0145531ZM16.3439 0.0145531C16.1405 -0.13817 15.8595 -0.1382 15.6561 0.0145589C15.6561 0.0145637 15.6561 0.0145684 15.6561 0.0145732L9.89613 4.33983L3.94623 8.80772L1.12584 10.9256M16.3439 0.0145531L15.7162 0.0945238L9.95618 4.41979L4.00628 8.88768L1.18587 11.0056M0.92988 11.5564C1.00817 11.7867 1.22577 11.9409 1.46975 11.9409H3.65579V22.535C3.65579 22.8479 3.91181 23.1 4.22553 23.1C4.53919 23.1 4.79528 22.848 4.79528 22.535V11.376C4.79528 11.0631 4.53926 10.811 4.22553 10.811H3.16587L15.9999 1.1736L28.8341 10.811H27.7745C27.4608 10.811 27.2047 11.063 27.2047 11.376V13.6078C27.2047 13.9208 27.4608 14.1728 27.7745 14.1728C28.0881 14.1728 28.3442 13.9208 28.3442 13.6078V11.941L3.65579 11.8409H1.46975C1.26807 11.8409 1.08889 11.7135 1.02456 11.5242C0.960223 11.335 1.02514 11.1262 1.18587 11.0056M0.92988 11.5564L1.02455 11.5242L0.929883 11.5564C0.929882 11.5564 0.929881 11.5564 0.92988 11.5564ZM0.92988 11.5564C0.851521 11.3259 0.930784 11.072 1.12584 10.9256M1.12584 10.9256L1.12582 10.9256L1.18587 11.0056M1.12584 10.9256L1.18587 11.0056" fill="#B2D235"  stroke-width="0.2"/>
<mask id="path-3-outside-1_0_16872" maskUnits="userSpaceOnUse" x="6" y="9" width="21" height="19" fill="black">
<rect fill="white" x="6" y="9" width="21" height="19"/>
<path fill-rule="evenodd" clip-rule="evenodd" d="M22.4821 22.1396L25.6301 25.0251C26.1233 25.4771 26.1233 26.2127 25.6301 26.6648C25.1426 27.1117 24.3289 27.1117 23.8414 26.6648L20.6934 23.7792C20.3049 23.4231 20.2238 22.8914 20.4474 22.4607L18.3914 20.576C17.1814 21.6518 15.5326 22.3153 13.7177 22.3153C10.0135 22.3153 7 19.553 7 16.1577C7 12.7623 10.0135 10 13.7177 10C14.9352 10 16.128 10.3018 17.167 10.8727C17.3667 10.9825 17.4316 11.2198 17.3119 11.4029C17.1921 11.5859 16.9332 11.6455 16.7335 11.5357C15.8254 11.0367 14.7826 10.773 13.7177 10.773C10.4786 10.773 7.84325 13.1885 7.84325 16.1577C7.84325 19.1268 10.4785 21.5423 13.7177 21.5423C16.9569 21.5423 19.5922 19.1268 19.5922 16.1576C19.5922 14.9421 19.161 13.795 18.3454 12.8404C18.2018 12.6724 18.234 12.4295 18.4174 12.2979C18.6006 12.1663 18.8657 12.1958 19.0092 12.3638C19.9422 13.4557 20.4353 14.7676 20.4353 16.1576C20.4353 17.6115 19.8824 18.9491 18.9595 20.0037L21.0433 21.9137C21.5226 21.7036 22.1068 21.7954 22.4821 22.1396ZM24.2797 25.878C24.4516 26.05 24.742 26.0386 24.9001 25.8538C25.0416 25.6884 25.0315 25.4337 24.8778 25.2799L21.7203 22.122C21.5483 21.95 21.258 21.9614 21.0999 22.1462C20.9584 22.3116 20.9685 22.5663 21.1223 22.7201L24.2797 25.878Z"/>
</mask>
<path fill-rule="evenodd" clip-rule="evenodd" d="M22.4821 22.1396L25.6301 25.0251C26.1233 25.4771 26.1233 26.2127 25.6301 26.6648C25.1426 27.1117 24.3289 27.1117 23.8414 26.6648L20.6934 23.7792C20.3049 23.4231 20.2238 22.8914 20.4474 22.4607L18.3914 20.576C17.1814 21.6518 15.5326 22.3153 13.7177 22.3153C10.0135 22.3153 7 19.553 7 16.1577C7 12.7623 10.0135 10 13.7177 10C14.9352 10 16.128 10.3018 17.167 10.8727C17.3667 10.9825 17.4316 11.2198 17.3119 11.4029C17.1921 11.5859 16.9332 11.6455 16.7335 11.5357C15.8254 11.0367 14.7826 10.773 13.7177 10.773C10.4786 10.773 7.84325 13.1885 7.84325 16.1577C7.84325 19.1268 10.4785 21.5423 13.7177 21.5423C16.9569 21.5423 19.5922 19.1268 19.5922 16.1576C19.5922 14.9421 19.161 13.795 18.3454 12.8404C18.2018 12.6724 18.234 12.4295 18.4174 12.2979C18.6006 12.1663 18.8657 12.1958 19.0092 12.3638C19.9422 13.4557 20.4353 14.7676 20.4353 16.1576C20.4353 17.6115 19.8824 18.9491 18.9595 20.0037L21.0433 21.9137C21.5226 21.7036 22.1068 21.7954 22.4821 22.1396ZM24.2797 25.878C24.4516 26.05 24.742 26.0386 24.9001 25.8538C25.0416 25.6884 25.0315 25.4337 24.8778 25.2799L21.7203 22.122C21.5483 21.95 21.258 21.9614 21.0999 22.1462C20.9584 22.3116 20.9685 22.5663 21.1223 22.7201L24.2797 25.878Z" fill="#B2D235"/>
<path d="M25.6301 25.0251L25.495 25.1726L25.495 25.1726L25.6301 25.0251ZM22.4821 22.1396L22.347 22.287L22.347 22.287L22.4821 22.1396ZM25.6301 26.6648L25.495 26.5173L25.495 26.5173L25.6301 26.6648ZM23.8414 26.6648L23.9766 26.5173L23.9765 26.5173L23.8414 26.6648ZM20.6934 23.7792L20.8285 23.6317L20.6934 23.7792ZM20.4474 22.4607L20.625 22.5528L20.6956 22.4168L20.5826 22.3132L20.4474 22.4607ZM18.3914 20.576L18.5266 20.4286L18.3935 20.3066L18.2586 20.4266L18.3914 20.576ZM17.167 10.8727L17.0707 11.048L17.0707 11.048L17.167 10.8727ZM16.7335 11.5357L16.8298 11.3604L16.8298 11.3604L16.7335 11.5357ZM18.3454 12.8404L18.4975 12.7105L18.4975 12.7105L18.3454 12.8404ZM18.4174 12.2979L18.534 12.4604L18.534 12.4603L18.4174 12.2979ZM19.0092 12.3638L18.8572 12.4938L18.8572 12.4938L19.0092 12.3638ZM18.9595 20.0037L18.809 19.872L18.6803 20.0191L18.8244 20.1512L18.9595 20.0037ZM21.0433 21.9137L20.9081 22.0611L21.0042 22.1492L21.1236 22.0969L21.0433 21.9137ZM24.9001 25.8538L24.7482 25.7237L24.7481 25.7238L24.9001 25.8538ZM24.2797 25.878L24.4211 25.7366V25.7366L24.2797 25.878ZM24.8778 25.2799L25.0192 25.1385L25.0192 25.1385L24.8778 25.2799ZM21.7203 22.122L21.8618 21.9806L21.8617 21.9806L21.7203 22.122ZM21.0999 22.1462L21.2519 22.2763L21.2519 22.2762L21.0999 22.1462ZM21.1223 22.7201L20.9808 22.8615L20.9808 22.8615L21.1223 22.7201ZM25.7653 24.8777L22.6173 21.9921L22.347 22.287L25.495 25.1726L25.7653 24.8777ZM25.7653 26.8122C26.3449 26.2809 26.3449 25.409 25.7653 24.8777L25.495 25.1726C25.9017 25.5453 25.9017 26.1446 25.495 26.5173L25.7653 26.8122ZM23.7062 26.8122C24.2702 27.3293 25.2013 27.3293 25.7653 26.8122L25.495 26.5173C25.0839 26.8942 24.3876 26.8942 23.9766 26.5173L23.7062 26.8122ZM20.5582 23.9266L23.7062 26.8122L23.9765 26.5173L20.8285 23.6317L20.5582 23.9266ZM20.2699 22.3685C20.0047 22.8795 20.103 23.5094 20.5582 23.9266L20.8285 23.6317C20.5067 23.3368 20.443 22.9034 20.625 22.5528L20.2699 22.3685ZM18.2563 20.7235L20.3123 22.6081L20.5826 22.3132L18.5266 20.4286L18.2563 20.7235ZM13.7177 22.5153C15.5815 22.5153 17.2776 21.8339 18.5243 20.7255L18.2586 20.4266C17.0851 21.4698 15.4836 22.1153 13.7177 22.1153V22.5153ZM6.8 16.1577C6.8 19.6795 9.91984 22.5153 13.7177 22.5153V22.1153C10.1073 22.1153 7.2 19.4265 7.2 16.1577H6.8ZM13.7177 9.8C9.91984 9.8 6.8 12.6358 6.8 16.1577H7.2C7.2 12.8888 10.1073 10.2 13.7177 10.2V9.8ZM17.2633 10.6975C16.194 10.1099 14.968 9.8 13.7177 9.8V10.2C14.9025 10.2 16.062 10.4938 17.0707 11.048L17.2633 10.6975ZM17.4793 11.5124C17.6675 11.2246 17.5574 10.859 17.2633 10.6974L17.0707 11.048C17.1761 11.1059 17.1958 11.2151 17.1445 11.2934L17.4793 11.5124ZM16.6372 11.711C16.9225 11.8678 17.2986 11.7885 17.4793 11.5124L17.1445 11.2934C17.0857 11.3834 16.944 11.4232 16.8298 11.3604L16.6372 11.711ZM13.7177 10.973C14.7498 10.973 15.7594 11.2287 16.6372 11.711L16.8298 11.3604C15.8914 10.8448 14.8153 10.573 13.7177 10.573V10.973ZM8.04325 16.1577C8.04325 13.315 10.5723 10.973 13.7177 10.973V10.573C10.3849 10.573 7.64325 13.062 7.64325 16.1577H8.04325ZM13.7177 21.3423C10.5722 21.3423 8.04325 19.0003 8.04325 16.1577H7.64325C7.64325 19.2533 10.3848 21.7423 13.7177 21.7423V21.3423ZM19.3922 16.1576C19.3922 19.0003 16.8632 21.3423 13.7177 21.3423V21.7423C17.0507 21.7423 19.7922 19.2533 19.7922 16.1576H19.3922ZM18.1934 12.9703C18.9791 13.89 19.3922 14.9914 19.3922 16.1576H19.7922C19.7922 14.8927 19.3429 13.7 18.4975 12.7105L18.1934 12.9703ZM18.3007 12.1354C18.0259 12.3327 17.9708 12.71 18.1934 12.9704L18.4975 12.7105C18.4329 12.6349 18.4422 12.5263 18.534 12.4604L18.3007 12.1354ZM19.1613 12.2339C18.948 11.9842 18.5655 11.9452 18.3007 12.1355L18.534 12.4603C18.6357 12.3873 18.7833 12.4073 18.8572 12.4938L19.1613 12.2339ZM20.6353 16.1576C20.6353 14.7183 20.1241 13.3607 19.1613 12.2339L18.8572 12.4938C19.7603 13.5508 20.2353 14.817 20.2353 16.1576H20.6353ZM19.11 20.1354C20.0622 19.0474 20.6353 17.6638 20.6353 16.1576H20.2353C20.2353 17.5593 19.7025 18.8509 18.809 19.872L19.11 20.1354ZM21.1784 21.7663L19.0947 19.8563L18.8244 20.1512L20.9081 22.0611L21.1784 21.7663ZM22.6173 21.9921C22.1815 21.5926 21.5123 21.4897 20.963 21.7305L21.1236 22.0969C21.5329 21.9174 22.032 21.9983 22.347 22.287L22.6173 21.9921ZM24.7481 25.7238C24.6658 25.82 24.5106 25.826 24.4211 25.7366L24.1383 26.0194C24.3927 26.2739 24.8183 26.2571 25.0521 25.9838L24.7481 25.7238ZM24.7363 25.4213C24.8164 25.5014 24.8217 25.6378 24.7482 25.7237L25.0521 25.9838C25.2616 25.7389 25.2467 25.3661 25.0192 25.1385L24.7363 25.4213ZM21.5789 22.2634L24.7363 25.4213L25.0192 25.1385L21.8618 21.9806L21.5789 22.2634ZM21.2519 22.2762C21.3342 22.18 21.4894 22.1739 21.5789 22.2635L21.8617 21.9806C21.6072 21.7261 21.1817 21.7429 20.9479 22.0162L21.2519 22.2762ZM21.2637 22.5787C21.1836 22.4986 21.1783 22.3622 21.2519 22.2763L20.9479 22.0162C20.7384 22.261 20.7533 22.6339 20.9808 22.8615L21.2637 22.5787ZM24.4211 25.7366L21.2637 22.5787L20.9808 22.8615L24.1383 26.0194L24.4211 25.7366Z" fill="#AAD300" mask="url(#path-3-outside-1_0_16872)"/>
</svg>
