<svg width="28" height="32" viewBox="0 0 28 32" fill="none" xmlns="http://www.w3.org/2000/svg">
<path fill-rule="evenodd" clip-rule="evenodd" d="M27.5054 5.88525C27.1251 5.39755 26.5799 5.08893 25.97 5.01624C24.7112 4.86596 23.5668 5.78038 23.4183 7.0542L22.5681 14.3565C22.1332 14.2319 21.6718 14.2402 21.2326 14.3854C20.663 14.5736 20.1975 14.9699 19.9171 15.5039L15.4082 22.1822C15.1376 22.5457 14.4918 23.4235 14 24.1686C13.5081 23.4235 12.8623 22.5458 12.5917 22.1822L8.0829 15.5038C7.80251 14.9699 7.33695 14.5737 6.7674 14.3854C6.32817 14.2402 5.86673 14.2317 5.43192 14.3564L4.58173 7.05401C4.43322 5.78032 3.28907 4.86583 2.02996 5.01618C1.42026 5.08893 0.874976 5.39749 0.494566 5.88519C0.114219 6.37288 -0.0557573 6.98139 0.0161296 7.59839L0.017001 7.60526L0.90317 14.5657C1.12692 16.3234 1.68963 17.9896 2.57543 19.5181C2.58433 19.5333 2.59373 19.5482 2.60381 19.5627L7.36739 26.4156C7.59512 26.7742 7.76846 27.1633 7.88317 27.5731V30.1388C7.88317 30.1941 7.8902 30.2491 7.90414 30.3025C8.18092 31.3655 9.17533 32 10.5644 32H17.4357C18.8247 32 19.8191 31.3654 20.0959 30.3026C20.1097 30.2491 20.1168 30.1941 20.1168 30.1389V27.5732C20.2315 27.1634 20.4048 26.7743 20.6326 26.4157L25.3962 19.5627C25.4063 19.5483 25.4157 19.5334 25.4246 19.5181C26.3104 17.9897 26.8729 16.3234 27.0968 14.5658L27.983 7.60532L27.9839 7.59845C28.0558 6.98139 27.8858 6.37295 27.5054 5.88525ZM13.3653 30.7152H10.5645C10.1184 30.7152 9.35788 30.6259 9.15292 30.0439V27.4871C9.15292 27.4319 9.14595 27.3769 9.13195 27.3235C8.98264 26.7497 8.74556 26.2061 8.42721 25.7079C8.42279 25.7009 8.41806 25.694 8.41333 25.6872L3.65765 18.8456C2.86634 17.4732 2.36325 15.9782 2.16253 14.4016L1.27686 7.44489C1.24561 7.16971 1.32173 6.89862 1.49134 6.68107C1.66162 6.46276 1.90567 6.32457 2.17865 6.29201C2.74291 6.22518 3.25459 6.63415 3.32094 7.20429L4.24918 15.1774C3.76184 15.8308 3.63245 16.7225 3.98024 17.5187C3.9968 17.5567 4.01447 17.5943 4.03321 17.6317C4.04516 17.6556 4.05854 17.6787 4.07341 17.7009L5.89212 20.4279C6.0148 20.6118 6.21496 20.7111 6.41886 20.7111C6.54103 20.7111 6.66452 20.6754 6.77337 20.6011C7.06397 20.4026 7.14059 20.0034 6.94447 19.7092L5.15035 17.0191L5.14132 16.9991C4.9251 16.5038 5.12215 15.9262 5.58901 15.6674C5.83405 15.5419 6.11251 15.5203 6.37336 15.6065C6.63464 15.6928 6.847 15.877 6.97142 16.125C6.98381 16.1499 6.99781 16.1737 7.01331 16.1967L11.5519 22.919C11.5574 22.9272 11.5632 22.9353 11.5691 22.9431C12.3044 23.9307 13.151 25.1452 13.3654 25.5606V30.7152H13.3653ZM25.8377 14.4016L26.7234 7.44489C26.7546 7.16977 26.6785 6.89869 26.5088 6.68107C26.3386 6.46276 26.0945 6.32457 25.8215 6.29201C25.257 6.22499 24.7457 6.63415 24.6792 7.20442L23.751 15.1774C24.2383 15.8308 24.3677 16.7225 24.0201 17.5185C24.0033 17.5568 23.9857 17.5944 23.967 17.6318C23.955 17.6556 23.9416 17.6787 23.9268 17.7009L22.1081 20.428C21.9855 20.6119 21.7852 20.7111 21.5813 20.7111C21.4592 20.7111 21.3357 20.6755 21.2268 20.6012C20.9361 20.4026 20.8595 20.0034 21.0557 19.7093L22.8498 17.0192L22.859 16.999C23.0751 16.5039 22.878 15.9263 22.4112 15.6674C22.1664 15.542 21.8879 15.5203 21.6269 15.6065C21.3657 15.6929 21.1533 15.8771 21.0289 16.1251C21.0165 16.1499 21.0025 16.1739 20.987 16.1968L16.4484 22.9191C16.4429 22.9272 16.4372 22.9353 16.4312 22.9432C15.6959 23.9309 14.8494 25.1453 14.6349 25.5607V30.7151H17.4358C17.8818 30.7151 18.6424 30.6259 18.8473 30.0438V27.487C18.8473 27.4319 18.8544 27.3769 18.8683 27.3235C19.0176 26.7497 19.2547 26.206 19.573 25.7079C19.5775 25.7008 19.5821 25.6939 19.5869 25.6871L24.3426 18.8455C25.1339 17.4731 25.637 15.9782 25.8377 14.4016Z" fill="#B2D235"/>
<path fill-rule="evenodd" clip-rule="evenodd" d="M19.7426 4.11298L14.3913 0.129267C14.1598 -0.0430889 13.8402 -0.0430889 13.6087 0.129267L8.25749 4.11305C8.09529 4.23379 8 4.42237 8 4.6226V13.3612C8 13.714 8.2905 14 8.64874 14H19.3513C19.7095 14 20 13.714 20 13.3612V4.62253C20.0001 4.42237 19.9047 4.23379 19.7426 4.11298ZM15.1565 8.44511V12.7225H12.8436V8.44511H15.1565ZM16.454 12.7225H18.7025V4.94038L14 1.43953L9.29761 4.94038V12.7225H11.5461V7.80635C11.5461 7.45356 11.8366 7.1676 12.1948 7.1676H15.8053C16.1635 7.1676 16.454 7.45356 16.454 7.80635V12.7225Z" fill="#B2D235"/>
<path d="M16.5 25C16.2239 25 16 25.407 16 25.9091V26.0909C16 26.593 16.2239 27 16.5 27C16.7761 27 17 26.593 17 26.0909V25.9091C17 25.407 16.7762 25 16.5 25Z" fill="#B2D235"/>
<path d="M16.5 28C16.2239 28 16 28.2035 16 28.4545V29.5455C16 29.7965 16.2239 30 16.5 30C16.7761 30 17 29.7965 17 29.5455V28.4545C17 28.2035 16.7762 28 16.5 28Z" fill="#B2D235"/>
</svg>
