<svg width="13" height="17" viewBox="0 0 13 17" fill="none" xmlns="http://www.w3.org/2000/svg">
<path fill-rule="evenodd" clip-rule="evenodd" d="M0 6.13776C0 2.75302 2.73406 0 6.09375 0C9.45344 0 12.1875 2.75302 12.1875 6.13776C12.1875 10.9471 6.66656 15.9128 6.43161 16.122C6.33479 16.2073 6.21427 16.25 6.09375 16.25C5.97323 16.25 5.85271 16.2073 5.75589 16.1214C5.52094 15.9128 0 10.9471 0 6.13776ZM2.70833 6.09375C2.70833 7.96047 4.22703 9.47917 6.09375 9.47917C7.96047 9.47917 9.47917 7.96047 9.47917 6.09375C9.47917 4.22703 7.96047 2.70833 6.09375 2.70833C4.22703 2.70833 2.70833 4.22703 2.70833 6.09375Z" fill="#B2D235"/>
</svg>
