<?xml version="1.0" encoding="utf-8"?>
<!-- Generator: Adobe Illustrator 26.0.3, SVG Export Plug-In . SVG Version: 6.00 Build 0)  -->
<svg version="1.1" id="Layer_1" xmlns="http://www.w3.org/2000/svg" xmlns:xlink="http://www.w3.org/1999/xlink" x="0px" y="0px"
	 viewBox="0 0 776.4 449.1" style="enable-background:new 0 0 776.4 449.1;" xml:space="preserve">
<style type="text/css">
	.st0{fill:#B2D235;}
	.st1{fill:#FFFFFF;}
</style>
<g>
	<g>
		<g>
			<path class="st0" d="M49.5,156.2h30.6v17.5c5-11.9,13.1-19.7,27.6-19v32.2h-2.6c-16,0-25,9.2-25,29.3v27.1H49.5V156.2z"/>
			<path class="st0" d="M553,156.2h30.6v17.5c5-11.9,13.1-19.7,27.6-19v32.2h-2.6c-16,0-25,9.2-25,29.3v27.1H553V156.2z"/>
			<path class="st0" d="M622,125.7h31.9v22.6H622V125.7z M622.6,156.2h30.6v87.2h-30.6V156.2z"/>
			<path class="st0" d="M716.3,134.5c-5.6,0-10.5,3.4-10.5,9.1v13.6l8.1-0.1v23.5l-7.6,0.1v62.7h-30.5v-62.7l-8.1,0.2v-24l8.1-0.2
				v-13.4c0-10,2.3-17.4,7.4-22.6c5.3-5.3,22.8-7.3,33.1-7.3 M735.4,125.7h31.9v22.6h-31.9V125.7L735.4,125.7z M736.1,156.2h30.6
				v87.2h-30.6V156.2z"/>
			<path class="st0" d="M184.4,210.7c-3.2,3.1-9.7,6.4-13,7.9c-3.1,1.3-6.2,2-9.7,2c-9.5,0-16.4-4.8-18.8-14.4h58.3v-0.1
				c0.1-2.1,0.1-4.3,0.1-6.3c0-20.1-8.5-37.9-26.5-44.7c-5.1-2-10.8-3-17.4-3c-8.1,0-15.5,2-21.8,5.6c-13.7,7.6-22.3,22.6-22.3,40.1
				v0.3c0,19.3,9.7,34,25.3,40.9c6.3,2.9,13.6,4.4,21.5,4.4c7,0,13.2-1.2,18.5-3.2c8.1-3,17.7-9.2,22.7-15.5L184.4,210.7z
				 M157.4,180c7.2,0,12.1,3.5,13.1,9h-26.2C145.7,183.6,150.4,180,157.4,180z"/>
			<path class="st0" d="M508.3,218.6c-3.1,1.3-6.2,2-9.7,2c-9.5,0-16.4-4.8-18.8-14.4h58.3v-0.1c0.1-2.1,0.1-4.3,0.1-6.3
				c0-20.1-8.5-37.9-26.5-44.7c-5.1-2-10.8-3-17.4-3c-8.1,0-15.5,2-21.8,5.6c-13.7,7.6-22.3,22.6-22.3,40.1v0.3
				c0,19.3,9.7,34,25.3,40.9c6.3,2.9,13.6,4.4,21.5,4.4c7,0,13.2-1.2,18.5-3.2c8.1-3,17.7-9.2,22.7-15.5l-16.9-14
				C518.1,213.8,511.6,217.1,508.3,218.6z M494.2,180c7.2,0,12.1,3.5,13.1,9h-26.2C482.5,183.6,487.2,180,494.2,180z"/>
		</g>
	</g>
	<g>
		<polygon class="st0" points="37.9,408.6 9.1,367.2 115.8,285.4 124.5,296 152.4,274.8 171.7,299.8 142.8,320 150.5,328.7 
			41.2,412.7 		"/>
		<g>
			<path class="st0" d="M288.3,73.9c15.5,0,30.2,3.1,43.7,8.5l24.1-30.2c-20.5-10-43.5-15.8-67.8-15.8c-70.3,0-129.8,46.9-149.1,111
				h39.6C196.5,104.3,238.9,73.9,288.3,73.9z"/>
			<path class="st0" d="M388.6,73.2L373.2,88l0,0l-11.6,11.2l-0.2,0.1l0,0l-77.1,77.2l-31-45.2l-36,20.8l59.3,91.2L390,132
				c10.5,17.6,16.7,38.1,16.7,60.2c0,65.3-53.1,118.3-118.3,118.3c-45.2,0-84.6-25.5-104.5-62.9h-41C165.3,306.2,222,348,288.4,348
				c85.9,0,155.8-69.9,155.8-155.8C444.1,144.5,422.5,101.8,388.6,73.2z"/>
		</g>
	</g>
</g>

</svg>
