<?xml version="1.0" encoding="utf-8"?>
<!-- Generator: Adobe Illustrator 26.0.3, SVG Export Plug-In . SVG Version: 6.00 Build 0)  -->
<svg version="1.1" id="Layer_1" xmlns="http://www.w3.org/2000/svg" xmlns:xlink="http://www.w3.org/1999/xlink" x="0px" y="0px"
	 viewBox="0 0 776.4 449.1" style="enable-background:new 0 0 776.4 449.1;" xml:space="preserve">
<style type="text/css">
	.st0{fill:#B2D235;}
	.st1{fill:#FFFFFF;}
</style>
<g>
	<g>
		<g>
			<path class="st0" d="M49.5,156.2h30.6v17.5c5-11.9,13.1-19.7,27.6-19v32.2h-2.6c-16,0-25,9.2-25,29.3v27.1H49.5V156.2z"/>
			<path class="st0" d="M553,156.2h30.6v17.5c5-11.9,13.1-19.7,27.6-19v32.2h-2.6c-16,0-25,9.2-25,29.3v27.1H553V156.2z"/>
			<path class="st0" d="M622,125.7h31.9v22.6H622V125.7z M622.6,156.2h30.6v87.2h-30.6V156.2z"/>
			<path class="st0" d="M716.3,134.5c-5.6,0-10.5,3.4-10.5,9.1v13.6l8.1-0.1v23.5l-7.6,0.1v62.7h-30.5v-62.7l-8.1,0.2v-24l8.1-0.2
				v-13.4c0-10,2.3-17.4,7.4-22.6c5.3-5.3,22.8-7.3,33.1-7.3 M735.4,125.7h31.9v22.6h-31.9V125.7L735.4,125.7z M736.1,156.2h30.6
				v87.2h-30.6V156.2z"/>
			<path class="st0" d="M184.4,210.7c-3.2,3.1-9.7,6.4-13,7.9c-3.1,1.3-6.2,2-9.7,2c-9.5,0-16.4-4.8-18.8-14.4h58.3v-0.1
				c0.1-2.1,0.1-4.3,0.1-6.3c0-20.1-8.5-37.9-26.5-44.7c-5.1-2-10.8-3-17.4-3c-8.1,0-15.5,2-21.8,5.6c-13.7,7.6-22.3,22.6-22.3,40.1
				v0.3c0,19.3,9.7,34,25.3,40.9c6.3,2.9,13.6,4.4,21.5,4.4c7,0,13.2-1.2,18.5-3.2c8.1-3,17.7-9.2,22.7-15.5L184.4,210.7z
				 M157.4,180c7.2,0,12.1,3.5,13.1,9h-26.2C145.7,183.6,150.4,180,157.4,180z"/>
			<path class="st0" d="M508.3,218.6c-3.1,1.3-6.2,2-9.7,2c-9.5,0-16.4-4.8-18.8-14.4h58.3v-0.1c0.1-2.1,0.1-4.3,0.1-6.3
				c0-20.1-8.5-37.9-26.5-44.7c-5.1-2-10.8-3-17.4-3c-8.1,0-15.5,2-21.8,5.6c-13.7,7.6-22.3,22.6-22.3,40.1v0.3
				c0,19.3,9.7,34,25.3,40.9c6.3,2.9,13.6,4.4,21.5,4.4c7,0,13.2-1.2,18.5-3.2c8.1-3,17.7-9.2,22.7-15.5l-16.9-14
				C518.1,213.8,511.6,217.1,508.3,218.6z M494.2,180c7.2,0,12.1,3.5,13.1,9h-26.2C482.5,183.6,487.2,180,494.2,180z"/>
		</g>
	</g>
	<g>
		<polygon class="st0" points="37.9,408.6 9.1,367.2 115.8,285.4 124.5,296 152.4,274.8 171.7,299.8 142.8,320 150.5,328.7 
			41.2,412.7 		"/>
		<g>
			<path class="st0" d="M288.3,73.9c15.5,0,30.2,3.1,43.7,8.5l24.1-30.2c-20.5-10-43.5-15.8-67.8-15.8c-70.3,0-129.8,46.9-149.1,111
				h39.6C196.5,104.3,238.9,73.9,288.3,73.9z"/>
			<path class="st0" d="M388.6,73.2L373.2,88l0,0l-11.6,11.2l-0.2,0.1l0,0l-77.1,77.2l-31-45.2l-36,20.8l59.3,91.2L390,132
				c10.5,17.6,16.7,38.1,16.7,60.2c0,65.3-53.1,118.3-118.3,118.3c-45.2,0-84.6-25.5-104.5-62.9h-41C165.3,306.2,222,348,288.4,348
				c85.9,0,155.8-69.9,155.8-155.8C444.1,144.5,422.5,101.8,388.6,73.2z"/>
		</g>
	</g>
</g>
<circle class="st0" cx="686.3" cy="728.7" r="192.8"/>
<g>
	<g>
		<g>
			<path class="st1" d="M579.6,682h20.9v12c3.4-8.1,8.9-13.5,18.9-13v22h-1.8c-10.9,0-17.1,6.3-17.1,20v18.5h-20.9
				C579.6,741.5,579.6,682,579.6,682z"/>
			<g>
				<path class="st1" d="M683.2,716c0.1-1.4,0.1-2.9,0.1-4.3c0-13.7-5.8-25.9-18.1-30.5c-3.5-1.4-7.4-2-11.9-2
					c-5.5,0-10.6,1.4-14.9,3.8c-9.4,5.2-15.2,15.4-15.2,27.4v0.2c0,13.2,6.6,23.2,17.3,27.9c4.3,2,9.3,3,14.7,3
					c4.8,0,9-0.8,12.6-2.2c5.5-2,12.1-6.3,15.5-10.6l-11.5-9.6c-2.2,2.1-6.6,4.4-8.9,5.4c-2.1,0.9-4.2,1.4-6.6,1.4
					c-6.5,0-11.2-3.3-12.8-9.8L683.2,716L683.2,716z"/>
				<path class="st0" d="M662.2,704.4c-0.7-3.8-4-6.1-8.9-6.1c-4.8,0-8,2.5-8.9,6.1H662.2z"/>
			</g>
		</g>
	</g>
	<g>
		<polygon class="st1" points="571.7,854.4 552,826.1 624.9,770.2 630.8,777.5 649.9,763 663.1,780 643.3,793.8 648.6,799.8 
			573.9,857.2 		"/>
		<g>
			<path class="st1" d="M742.7,625.8c10.6,0,20.6,2.1,29.8,5.8l16.5-20.7c-14-6.8-29.7-10.8-46.3-10.8c-48,0-88.7,32-101.8,75.8h27
				C680,646.5,709,625.8,742.7,625.8z"/>
			<path class="st1" d="M811.2,625.3l-10.5,10.1l0,0l-7.9,7.6l-0.1,0.1l0,0L740,695.8l-21.2-30.9l-24.6,14.2l40.5,62.3l77.5-76
				c7.2,12,11.4,26,11.4,41.1c0,44.6-36.3,80.8-80.8,80.8c-30.9,0-57.8-17.4-71.4-43h-28c15.3,40,54,68.6,99.4,68.6
				c58.7,0,106.4-47.7,106.4-106.4C849.1,674,834.4,644.8,811.2,625.3z"/>
		</g>
	</g>
</g>
<circle class="st1" cx="209.3" cy="728.7" r="192.8"/>
<g>
	<g>
		<g>
			<path class="st0" d="M102.6,682h20.9v12c3.4-8.1,8.9-13.5,18.9-13v22h-1.8c-10.9,0-17.1,6.3-17.1,20v18.5h-20.9V682z"/>
			<g>
				<path class="st0" d="M206.2,716c0.1-1.4,0.1-2.9,0.1-4.3c0-13.7-5.8-25.9-18.1-30.5c-3.5-1.4-7.4-2-11.9-2
					c-5.5,0-10.6,1.4-14.9,3.8c-9.4,5.2-15.2,15.4-15.2,27.4v0.2c0,13.2,6.6,23.2,17.3,27.9c4.3,2,9.3,3,14.7,3
					c4.8,0,9-0.8,12.6-2.2c5.5-2,12.1-6.3,15.5-10.6l-11.5-9.6c-2.2,2.1-6.6,4.4-8.9,5.4c-2.1,0.9-4.2,1.4-6.6,1.4
					c-6.5,0-11.2-3.3-12.8-9.8L206.2,716L206.2,716z"/>
				<path class="st1" d="M185.2,704.4c-0.7-3.8-4-6.1-8.9-6.1c-4.8,0-8,2.5-8.9,6.1H185.2z"/>
			</g>
		</g>
	</g>
	<g>
		<polygon class="st0" points="94.7,854.4 75,826.1 147.9,770.2 153.8,777.5 172.9,763 186.1,780 166.3,793.8 171.6,799.8 
			96.9,857.2 		"/>
		<g>
			<path class="st0" d="M265.7,625.8c10.6,0,20.6,2.1,29.8,5.8L312,611c-14-6.8-29.7-10.8-46.3-10.8c-48,0-88.7,32-101.8,75.8h27
				C203,646.5,232,625.8,265.7,625.8z"/>
			<path class="st0" d="M334.2,625.3l-10.5,10.1l0,0l-7.9,7.6l-0.1,0.1l0,0L263,695.8l-21.2-30.9l-24.6,14.2l40.5,62.3l77.5-76
				c7.2,12,11.4,26,11.4,41.1c0,44.6-36.3,80.8-80.8,80.8c-30.9,0-57.8-17.4-71.4-43h-28c15.3,40,54,68.6,99.4,68.6
				c58.7,0,106.4-47.7,106.4-106.4C372.1,674,357.4,644.8,334.2,625.3z"/>
		</g>
	</g>
</g>
</svg>
