<svg width="447" height="260" viewBox="0 0 447 260" fill="none" xmlns="http://www.w3.org/2000/svg">
<g clip-path="url(#clip0_272_3006)">
<g style="mix-blend-mode:multiply" opacity="0.1">
<path d="M172.754 2.19824L0 102.456L272.653 260L447 158.15L172.754 2.19824Z" fill="#D1D3D4"/>
</g>
<g style="mix-blend-mode:multiply" opacity="0.1214">
<path d="M172.848 2.45605L0.517822 102.468L272.5 259.624L446.418 158.024L172.848 2.45605Z" fill="#D0D2D3"/>
</g>
<g style="mix-blend-mode:multiply" opacity="0.1429">
<path d="M172.941 2.71387L1.03564 102.479L272.347 259.248L445.836 157.899L172.941 2.71387Z" fill="#CFD1D2"/>
</g>
<g style="mix-blend-mode:multiply" opacity="0.1643">
<path d="M173.034 2.97266L1.55469 102.491L272.196 258.872L445.256 157.773L173.034 2.97266Z" fill="#CED0D1"/>
</g>
<g style="mix-blend-mode:multiply" opacity="0.1857">
<path d="M173.127 3.23047L2.07251 102.502L272.043 258.495L444.674 157.648L173.127 3.23047Z" fill="#CDCFD0"/>
</g>
<g style="mix-blend-mode:multiply" opacity="0.2071">
<path d="M173.22 3.48828L2.59033 102.513L271.89 258.119L444.092 157.523L173.22 3.48828Z" fill="#CCCECF"/>
</g>
<g style="mix-blend-mode:multiply" opacity="0.2286">
<path d="M173.313 3.74707L3.10815 102.525L271.738 257.744L443.511 157.397L173.313 3.74707Z" fill="#CBCDCE"/>
</g>
<g style="mix-blend-mode:multiply" opacity="0.25">
<path d="M173.406 4.00488L3.62598 102.536L271.585 257.367L442.929 157.271L173.406 4.00488Z" fill="#CACCCD"/>
</g>
<g style="mix-blend-mode:multiply" opacity="0.2714">
<path d="M173.499 4.2627L4.14478 102.548L271.432 256.991L442.347 157.146L173.499 4.2627Z" fill="#C9CBCC"/>
</g>
<g style="mix-blend-mode:multiply" opacity="0.2929">
<path d="M173.592 4.52051L4.66284 102.559L271.279 256.615L441.766 157.02L173.592 4.52051Z" fill="#C8CACB"/>
</g>
<g style="mix-blend-mode:multiply" opacity="0.3143">
<path d="M173.686 4.7793L5.18066 102.571L271.127 256.239L441.185 156.894L173.686 4.7793Z" fill="#C7C9CA"/>
</g>
<g style="mix-blend-mode:multiply" opacity="0.3357">
<path d="M173.779 5.03711L5.69849 102.582L270.974 255.862L440.603 156.769L173.779 5.03711Z" fill="#C6C8C9"/>
</g>
<g style="mix-blend-mode:multiply" opacity="0.3571">
<path d="M173.872 5.29492L6.21729 102.594L270.821 255.487L440.021 156.643L173.872 5.29492Z" fill="#C5C7C8"/>
</g>
<g style="mix-blend-mode:multiply" opacity="0.3786">
<path d="M173.965 5.55371L6.73511 102.605L270.669 255.111L439.44 156.518L173.965 5.55371Z" fill="#C4C6C7"/>
</g>
<g style="mix-blend-mode:multiply" opacity="0.4">
<path d="M174.058 5.81152L7.25293 102.617L270.516 254.734L438.858 156.393L174.058 5.81152Z" fill="#C3C5C6"/>
</g>
<g style="mix-blend-mode:multiply" opacity="0.4214">
<path d="M174.151 6.06934L7.771 102.628L270.363 254.358L438.277 156.267L174.151 6.06934Z" fill="#C2C4C5"/>
</g>
<g style="mix-blend-mode:multiply" opacity="0.4429">
<path d="M174.244 6.32703L8.28882 102.64L270.211 253.982L437.695 156.141L174.244 6.32703Z" fill="#C1C3C4"/>
</g>
<g style="mix-blend-mode:multiply" opacity="0.4643">
<path d="M174.337 6.58594L8.80762 102.651L270.058 253.606L437.114 156.016L174.337 6.58594Z" fill="#C0C2C3"/>
</g>
<g style="mix-blend-mode:multiply" opacity="0.4857">
<path d="M174.431 6.84363L9.32544 102.662L269.905 253.23L436.532 155.89L174.431 6.84363Z" fill="#BFC1C2"/>
</g>
<g style="mix-blend-mode:multiply" opacity="0.5071">
<path d="M174.524 7.10144L9.84326 102.674L269.752 252.854L435.95 155.764L174.524 7.10144Z" fill="#BEC0C1"/>
</g>
<g style="mix-blend-mode:multiply" opacity="0.5286">
<path d="M174.617 7.36023L10.3611 102.685L269.6 252.478L435.369 155.639L174.617 7.36023Z" fill="#BDBFC0"/>
</g>
<g style="mix-blend-mode:multiply" opacity="0.55">
<path d="M174.71 7.61804L10.8792 102.697L269.447 252.101L434.788 155.513L174.71 7.61804Z" fill="#BDBFC0"/>
</g>
<g style="mix-blend-mode:multiply" opacity="0.5714">
<path d="M174.803 7.87585L11.3979 102.708L269.294 251.725L434.206 155.387L174.803 7.87585Z" fill="#BCBEBF"/>
</g>
<g style="mix-blend-mode:multiply" opacity="0.5929">
<path d="M174.896 8.13367L11.9158 102.72L269.142 251.35L433.625 155.262L174.896 8.13367Z" fill="#BBBDBE"/>
</g>
<g style="mix-blend-mode:multiply" opacity="0.6143">
<path d="M174.989 8.39246L12.4336 102.731L268.989 250.973L433.043 155.136L174.989 8.39246Z" fill="#BABCBD"/>
</g>
<g style="mix-blend-mode:multiply" opacity="0.6357">
<path d="M175.082 8.65027L12.9514 102.743L268.836 250.597L432.461 155.012L175.082 8.65027Z" fill="#B9BBBC"/>
</g>
<g style="mix-blend-mode:multiply" opacity="0.6571">
<path d="M175.176 8.90808L13.4705 102.754L268.684 250.221L431.879 154.886L175.176 8.90808Z" fill="#B8BABB"/>
</g>
<g style="mix-blend-mode:multiply" opacity="0.6786">
<path d="M175.269 9.16589L13.9883 102.765L268.532 249.845L431.299 154.76L175.269 9.16589Z" fill="#B7B9BA"/>
</g>
<g style="mix-blend-mode:multiply" opacity="0.7">
<path d="M175.362 9.42468L14.5061 102.777L268.378 249.469L430.717 154.635L175.362 9.42468Z" fill="#B6B8B9"/>
</g>
<g style="mix-blend-mode:multiply" opacity="0.7214">
<path d="M175.455 9.6825L15.0239 102.788L268.227 249.092L430.135 154.509L175.455 9.6825Z" fill="#B5B7B8"/>
</g>
<g style="mix-blend-mode:multiply" opacity="0.7429">
<path d="M175.547 9.94031L15.5417 102.8L268.073 248.717L429.554 154.383L175.547 9.94031Z" fill="#B4B6B7"/>
</g>
<g style="mix-blend-mode:multiply" opacity="0.7643">
<path d="M175.64 10.1991L16.0605 102.811L267.921 248.34L428.972 154.258L175.64 10.1991Z" fill="#B3B5B6"/>
</g>
<g style="mix-blend-mode:multiply" opacity="0.7857">
<path d="M175.734 10.4569L16.5786 102.823L267.768 247.964L428.39 154.132L175.734 10.4569Z" fill="#B2B4B5"/>
</g>
<g style="mix-blend-mode:multiply" opacity="0.8071">
<path d="M175.827 10.7147L17.0964 102.834L267.616 247.589L427.808 154.006L175.827 10.7147Z" fill="#B1B3B4"/>
</g>
<g style="mix-blend-mode:multiply" opacity="0.8286">
<path d="M175.92 10.9725L17.6143 102.846L267.463 247.212L427.228 153.882L175.92 10.9725Z" fill="#B0B2B3"/>
</g>
<g style="mix-blend-mode:multiply" opacity="0.85">
<path d="M176.013 11.2313L18.1321 102.857L267.31 246.836L426.646 153.756L176.013 11.2313Z" fill="#AFB1B2"/>
</g>
<g style="mix-blend-mode:multiply" opacity="0.8714">
<path d="M176.106 11.489L18.6509 102.869L267.158 246.459L426.064 153.63L176.106 11.489Z" fill="#AEB0B1"/>
</g>
<g style="mix-blend-mode:multiply" opacity="0.8929">
<path d="M176.199 11.7468L19.1687 102.88L267.005 246.084L425.483 153.505L176.199 11.7468Z" fill="#ADAFB0"/>
</g>
<g style="mix-blend-mode:multiply" opacity="0.9143">
<path d="M176.292 12.0056L19.6868 102.891L266.852 245.708L424.901 153.379L176.292 12.0056Z" fill="#ACAEAF"/>
</g>
<g style="mix-blend-mode:multiply" opacity="0.9357">
<path d="M176.385 12.2634L20.2046 102.903L266.7 245.331L424.319 153.253L176.385 12.2634Z" fill="#ABADAE"/>
</g>
<g style="mix-blend-mode:multiply" opacity="0.9571">
<path d="M176.478 12.5212L20.7234 102.914L266.547 244.956L423.738 153.128L176.478 12.5212Z" fill="#AAACAD"/>
</g>
<g style="mix-blend-mode:multiply" opacity="0.9786">
<path d="M176.571 12.7791L21.2412 102.926L266.394 244.579L423.157 153.002L176.571 12.7791Z" fill="#A9ABAC"/>
</g>
<g style="mix-blend-mode:multiply">
<path d="M176.665 13.0378L21.759 102.937L266.242 244.203L422.575 152.876L176.665 13.0378Z" fill="#A8AAAB"/>
</g>
<path d="M272.653 257.802L447 155.952L383.219 103.878L317.5 81.9513L253.093 32.0241L172.754 0L0 100.258L79.0087 132.283L144.422 183.369L208.851 205.137L272.653 257.802Z" fill="white"/>
<path d="M211.324 200.698L146.828 178.908L81.5361 127.917L11.3311 99.4597L173.161 5.54065L250.586 36.4037L315.11 86.4208L380.766 108.327L438.262 155.269L273.144 251.727L211.324 200.698Z" fill="url(#paint0_linear_272_3006)"/>
<path d="M178.378 57.5273L172.379 61.1915L179.711 69.8508L190.375 64.5219L178.378 57.5273Z" fill="#D1D3D4"/>
<path d="M137.911 171.944L174.666 148.877L187.147 158.154C187.273 158.247 187.413 158.32 187.562 158.371L195.276 160.98L176.455 171.977L177.969 174.565L199.629 161.908C199.877 161.763 200.079 161.549 200.209 161.293C200.339 161.037 200.393 160.748 200.364 160.462C200.335 160.176 200.224 159.904 200.045 159.68C199.865 159.455 199.625 159.286 199.353 159.194L188.747 155.607L177.392 147.166L188.173 140.4L186.578 137.861L135.398 169.981L137.911 171.944Z" fill="#D1D3D4"/>
<path d="M56.9066 84.6773L23.5466 104.411L27.0407 105.828L60.3407 86.1301L60.2107 85.9103L75.3816 91.5729L76.4293 88.7641L48.027 78.1633L44.6709 80.1108L56.9066 84.6773Z" fill="#D1D3D4"/>
<path d="M143.693 90.7053C143.918 90.8053 144.164 90.8485 144.409 90.8311C144.655 90.8136 144.892 90.7361 145.101 90.6053L157.556 82.7948L162.221 84.7841L189.022 109.588L191.061 107.388L184.787 101.582L217.651 81.4545C217.851 81.3318 218.02 81.164 218.143 80.9645C218.266 80.765 218.341 80.5393 218.361 80.3057C218.382 80.0721 218.347 79.837 218.259 79.6193C218.172 79.4015 218.035 79.2073 217.859 79.0521L199.531 62.8987C199.473 62.8469 199.41 62.8 199.344 62.7582L179.682 50.2679L178.073 52.7972L197.635 65.2251L206.868 73.3622L175.208 92.7172L164.068 82.4077C163.942 82.2908 163.796 82.1964 163.638 82.1286L121.649 64.2256L120.472 66.9835L154.197 81.3629L144.184 87.6422L92.3474 64.537L112.584 52.4011L111.042 49.8308L89.0042 63.0465L80.5602 59.2828L77.3611 61.1395L143.693 90.7053ZM209.222 75.4363L214.353 79.9587L182.5 99.4658L177.494 94.8325L209.222 75.4363Z" fill="#D1D3D4"/>
<path d="M327.043 197.004L324.967 199.166L339.41 213.016L342.102 211.444L327.043 197.004Z" fill="#D1D3D4"/>
<path d="M215.855 190.013L214.215 187.504L199.917 196.844L203.531 198.065L215.855 190.013Z" fill="#D1D3D4"/>
<path d="M346.188 141.048C346.236 141.326 346.361 141.586 346.549 141.796C346.738 142.007 346.982 142.159 347.254 142.237L370.581 148.899L371.405 146.016L348.986 139.615L347.702 132.079L384.213 111.141L381.727 109.112L347.166 128.931L346.478 124.89C346.439 124.66 346.346 124.442 346.208 124.254C346.07 124.066 345.889 123.913 345.681 123.807L338.595 120.191L367.131 103.778L363.327 102.509L335.409 118.567L313.69 107.487L312.327 110.156L343.648 126.135L346.188 141.048Z" fill="#D1D3D4"/>
<path d="M265.994 48.3474L254.609 54.8963L256.105 57.4933L268.555 50.3329L265.994 48.3474Z" fill="#D1D3D4"/>
<path d="M216.702 102.825L257.357 101.16L294.347 93.4994L312.342 102.825L281.017 122.144L269.687 119.146L218.367 137.465L202.705 108.488L216.702 102.825Z" fill="#CFE4BD"/>
<path d="M172.047 3.90198L107.564 42.3721L131.557 54.3628L158.55 43.3713L177.545 44.8701L209.536 27.3837L206.537 17.8911L172.047 3.90198Z" fill="#CFE4BD"/>
<path d="M232.53 146.291L201.039 157.283L201.538 163.778L206.037 176.268L231.03 187.259L235.529 190.257L238.029 192.256L284.016 202.248L295.013 209.742L318.007 195.753L307.01 177.267L318.007 155.784L307.51 147.291L271.02 130.803L232.53 146.291Z" fill="#CFE4BD"/>
<path d="M240.39 224.691L267.509 247.076C270.225 232.839 275.076 203.34 276.685 182.431C278.195 162.822 261.486 153.22 252.692 143.794C247.285 137.998 245.245 132.493 243.036 125.712C240.207 117.027 241.853 109.052 243.76 99.8192C245.717 90.3325 250.628 78.399 247.359 66.5206C243.695 53.2018 225.197 46.4018 206.895 37.1609C192.847 29.9135 180.8 19.3223 171.816 6.32153L147.128 20.6491C159.657 35.7225 182.703 42.7761 200.705 51.8649C211.761 57.4465 224.076 68.2242 225.39 72.9998C227.384 80.2462 225.898 87.4447 224.177 95.78C222.009 106.278 216.446 118.9 220.916 132.623C224.495 143.61 231.685 151.317 238.028 158.116C246.812 167.53 254.851 172.637 254.053 182.996C252.965 197.135 245.843 213.762 240.39 224.691Z" fill="url(#paint1_linear_272_3006)"/>
<path d="M300.248 218.263L374.57 172.323C375.016 172.048 375.382 171.659 375.631 171.198C375.881 170.737 376.004 170.218 375.99 169.694L375.035 133.863L395.255 120.157L390.408 116.199L370.309 129.822C369.893 130.104 369.554 130.487 369.324 130.934C369.094 131.382 368.981 131.88 368.994 132.383L369.948 168.13L295.435 214.187L295.493 214.281L284.943 205.446C284.553 205.12 284.087 204.898 283.588 204.801L235.502 195.483L230.652 190.636C230.347 190.331 229.979 190.095 229.574 189.945L168.103 167.153L118.148 123.756L177.089 88.4091C177.692 88.0474 178.149 87.4852 178.379 86.8209C178.61 86.1566 178.599 85.4325 178.349 84.7753L168.601 59.0872L211.259 35.1924L233.518 43.999L296.657 93.6904C296.802 93.8036 296.956 93.9035 297.118 93.989L314.315 103.012L278.92 125.269L282.114 130.343L339.188 94.454L331.829 91.9987L319.645 99.6605L319.901 99.172L300.151 88.8079L236.884 39.0178C236.656 38.8382 236.403 38.6929 236.133 38.5865L212.14 29.0939C211.726 28.9297 211.28 28.8599 210.835 28.8896C210.39 28.9193 209.958 29.0477 209.569 29.2656L164.667 54.4179L130.683 56.8103L106.349 44.3153L100.188 47.891L123.925 60.0791L40.0195 111.088L46.9452 113.896L130.995 62.7981L162.746 60.563L171.853 84.5586L111.519 120.74C111.113 120.983 110.771 121.319 110.52 121.721C110.269 122.122 110.116 122.577 110.075 123.048C110.034 123.52 110.104 123.994 110.282 124.433C110.459 124.872 110.738 125.262 111.095 125.573L164.581 172.037C164.853 172.273 165.167 172.459 165.505 172.584L183.874 179.395L171.797 187.344L179.005 189.779L190.851 181.982L226.873 195.339L231.909 200.371C232.332 200.794 232.872 201.08 233.459 201.195L281.685 210.54L307.148 231.863L312.65 228.649L300.248 218.263Z" fill="#FEE2A6"/>
<path d="M315.681 139.821C315.366 139.538 315.008 139.307 314.62 139.137L272.632 120.652C271.702 120.241 270.651 120.201 269.692 120.54L200.824 144.776L179.047 127.081C180.467 125.502 181.265 123.461 181.292 121.338C181.285 120.368 181.106 119.408 180.763 118.501L210.208 102.249L255.328 98.8171C255.941 98.7705 256.536 98.5828 257.065 98.2687L298.598 73.6213L291.805 68.3558L253.787 90.9183L208.733 94.3445C208.161 94.3873 207.605 94.5531 207.103 94.8304L175.063 112.515C171.915 110.952 168.439 110.159 164.924 110.203C162.972 110.199 161.026 110.432 159.129 110.896L141.078 96.2277C140.782 95.9875 140.453 95.7907 140.102 95.6433L69.1605 65.8986L60.4895 70.9309L136.479 102.792L151.472 114.975C150.622 115.788 149.94 116.761 149.467 117.837C148.993 118.914 148.737 120.073 148.712 121.249C148.727 122.752 149.143 124.224 149.919 125.512L109.714 149.923L116.453 155.186L156.573 130.827C159.286 131.875 162.171 132.402 165.079 132.382C167.333 132.388 169.577 132.074 171.742 131.448L197.515 152.391C198.046 152.823 198.679 153.112 199.353 153.229C200.028 153.346 200.721 153.288 201.366 153.059L270.855 128.605L310.811 146.195L367.167 196.801L374.417 192.566L315.681 139.821ZM171.722 122.862C169.671 123.919 167.387 124.444 165.08 124.388C162.738 124.443 160.419 123.907 158.339 122.831C157.12 122.128 156.711 121.45 156.711 121.248C156.711 121.055 157.107 120.402 158.284 119.723C160.334 118.665 162.618 118.14 164.925 118.197C167.267 118.142 169.586 118.677 171.667 119.754C172.886 120.457 173.295 121.136 173.295 121.338C173.294 121.531 172.899 122.183 171.722 122.862Z" fill="url(#paint2_linear_272_3006)"/>
<path d="M375.492 191.256L364.994 180.765L378.991 171.772L395.486 128.805L401.485 126.307L436.975 155.284L375.492 191.256Z" fill="#CFE4BD"/>
<path d="M109.063 147.291L83.5703 128.305L81.071 109.32L70.074 102.326L94.0675 87.3372L131.057 101.826L128.558 108.82L109.063 120.312L100.566 125.807L113.562 129.305L117.561 143.793L109.063 147.291Z" fill="#CFE4BD"/>
<path d="M322.838 118.563C322.663 118.563 322.49 118.526 322.33 118.455L320.504 117.64C320.201 117.505 319.965 117.255 319.846 116.946C319.728 116.636 319.737 116.293 319.872 115.99C320.007 115.687 320.257 115.451 320.567 115.333C320.877 115.214 321.22 115.224 321.523 115.359L323.349 116.173C323.61 116.29 323.824 116.493 323.954 116.748C324.084 117.003 324.122 117.295 324.062 117.575C324.002 117.855 323.848 118.106 323.625 118.286C323.402 118.466 323.125 118.564 322.838 118.563Z" fill="url(#paint3_linear_272_3006)"/>
<path d="M317.434 116.152C317.259 116.152 317.086 116.115 316.926 116.044L313.348 114.447C313.198 114.38 313.063 114.285 312.95 114.166C312.837 114.046 312.749 113.906 312.69 113.753C312.631 113.6 312.603 113.437 312.608 113.273C312.612 113.109 312.649 112.947 312.716 112.797C312.783 112.647 312.879 112.512 312.998 112.4C313.117 112.287 313.257 112.198 313.411 112.14C313.564 112.081 313.727 112.053 313.891 112.058C314.055 112.062 314.217 112.099 314.367 112.166L317.945 113.762C318.207 113.879 318.42 114.082 318.55 114.337C318.68 114.592 318.718 114.884 318.658 115.164C318.598 115.444 318.444 115.695 318.221 115.875C317.999 116.054 317.721 116.152 317.434 116.152Z" fill="url(#paint4_linear_272_3006)"/>
<path d="M306.745 113.18C306.472 113.18 306.207 113.091 305.989 112.926C305.772 112.761 305.614 112.53 305.541 112.267C305.467 112.004 305.482 111.725 305.582 111.471C305.683 111.217 305.864 111.004 306.097 110.862L307.808 109.827C307.98 109.722 308.176 109.661 308.377 109.648C308.579 109.636 308.78 109.672 308.964 109.755L310.79 110.569C311.093 110.705 311.329 110.954 311.448 111.264C311.566 111.573 311.557 111.917 311.422 112.22C311.287 112.522 311.037 112.759 310.727 112.877C310.418 112.995 310.074 112.986 309.771 112.851L308.543 112.303L307.392 112.999C307.197 113.117 306.973 113.18 306.745 113.18Z" fill="url(#paint5_linear_272_3006)"/>
<path d="M285.731 125.9C285.458 125.901 285.192 125.812 284.975 125.647C284.757 125.482 284.6 125.25 284.526 124.988C284.453 124.725 284.467 124.445 284.568 124.192C284.668 123.938 284.849 123.724 285.083 123.583L288.585 121.462C288.725 121.377 288.881 121.321 289.043 121.296C289.205 121.271 289.371 121.279 289.53 121.318C289.69 121.357 289.84 121.427 289.972 121.524C290.104 121.621 290.216 121.744 290.301 121.884C290.386 122.024 290.442 122.18 290.467 122.342C290.492 122.504 290.485 122.67 290.446 122.829C290.406 122.988 290.336 123.138 290.239 123.27C290.142 123.403 290.02 123.514 289.879 123.599L286.377 125.72C286.182 125.838 285.959 125.9 285.731 125.9ZM292.736 121.659C292.463 121.66 292.197 121.571 291.98 121.406C291.762 121.241 291.605 121.009 291.531 120.747C291.458 120.484 291.472 120.204 291.573 119.951C291.673 119.697 291.854 119.483 292.088 119.342L295.59 117.221C295.73 117.137 295.886 117.08 296.048 117.055C296.21 117.03 296.376 117.038 296.535 117.077C296.694 117.116 296.845 117.186 296.977 117.283C297.109 117.38 297.221 117.503 297.306 117.643C297.391 117.783 297.447 117.939 297.472 118.101C297.497 118.263 297.49 118.429 297.45 118.588C297.411 118.747 297.341 118.897 297.244 119.03C297.147 119.162 297.024 119.274 296.884 119.358L293.382 121.479C293.187 121.597 292.964 121.659 292.736 121.659H292.736ZM299.741 117.42C299.468 117.42 299.202 117.331 298.985 117.166C298.767 117.001 298.61 116.77 298.536 116.507C298.463 116.244 298.477 115.964 298.578 115.711C298.678 115.457 298.859 115.243 299.093 115.102L302.594 112.982C302.878 112.81 303.218 112.758 303.54 112.837C303.699 112.876 303.849 112.946 303.982 113.044C304.114 113.141 304.226 113.263 304.311 113.403C304.396 113.543 304.452 113.699 304.477 113.861C304.502 114.023 304.495 114.189 304.455 114.348C304.416 114.507 304.346 114.657 304.249 114.79C304.152 114.922 304.029 115.034 303.889 115.119L300.387 117.239C300.192 117.357 299.969 117.42 299.741 117.42H299.741Z" fill="url(#paint6_linear_272_3006)"/>
<path d="M280.517 129.055C280.369 129.055 280.223 129.029 280.084 128.978L278.209 128.287C278.055 128.23 277.914 128.144 277.793 128.032C277.673 127.921 277.575 127.787 277.506 127.638C277.438 127.489 277.399 127.328 277.393 127.164C277.386 127 277.412 126.837 277.469 126.683C277.526 126.529 277.612 126.388 277.724 126.267C277.835 126.147 277.969 126.049 278.118 125.981C278.267 125.912 278.428 125.873 278.592 125.867C278.756 125.861 278.92 125.886 279.074 125.943L280.384 126.426L281.58 125.702C281.863 125.531 282.204 125.479 282.526 125.558C282.847 125.637 283.125 125.84 283.296 126.124C283.468 126.407 283.52 126.747 283.441 127.069C283.362 127.39 283.158 127.668 282.875 127.839L281.164 128.874C280.969 128.992 280.745 129.055 280.517 129.055Z" fill="url(#paint7_linear_272_3006)"/>
<path d="M205.58 148.589C205.285 148.588 205 148.484 204.775 148.294C204.55 148.104 204.399 147.84 204.349 147.55C204.3 147.26 204.354 146.961 204.504 146.707C204.653 146.453 204.887 146.26 205.165 146.162L208.82 144.876C208.976 144.817 209.142 144.789 209.309 144.795C209.475 144.801 209.639 144.84 209.79 144.91C209.942 144.981 210.077 145.08 210.189 145.204C210.301 145.327 210.388 145.471 210.443 145.629C210.498 145.786 210.522 145.952 210.512 146.119C210.502 146.285 210.458 146.448 210.384 146.597C210.311 146.746 210.208 146.879 210.081 146.988C209.955 147.097 209.809 147.18 209.65 147.231L205.995 148.517C205.862 148.565 205.721 148.589 205.58 148.589ZM212.89 146.015C212.595 146.015 212.31 145.911 212.085 145.721C211.859 145.531 211.709 145.267 211.659 144.977C211.609 144.686 211.664 144.388 211.813 144.134C211.962 143.88 212.197 143.687 212.475 143.589L216.13 142.303C216.286 142.243 216.452 142.216 216.618 142.222C216.785 142.228 216.949 142.267 217.1 142.337C217.251 142.407 217.387 142.507 217.499 142.63C217.611 142.754 217.697 142.898 217.752 143.055C217.808 143.212 217.831 143.379 217.821 143.545C217.811 143.712 217.768 143.874 217.694 144.024C217.62 144.173 217.517 144.306 217.391 144.415C217.265 144.524 217.118 144.607 216.96 144.658L213.304 145.944C213.171 145.992 213.031 146.016 212.89 146.015ZM220.2 143.443C219.905 143.443 219.62 143.339 219.395 143.149C219.17 142.958 219.019 142.695 218.969 142.405C218.92 142.114 218.974 141.816 219.124 141.562C219.273 141.308 219.507 141.115 219.785 141.016L223.441 139.73C223.596 139.671 223.762 139.644 223.929 139.65C224.096 139.656 224.259 139.695 224.411 139.765C224.562 139.835 224.697 139.935 224.809 140.058C224.922 140.181 225.008 140.326 225.063 140.483C225.118 140.64 225.142 140.807 225.132 140.973C225.122 141.14 225.078 141.302 225.005 141.451C224.931 141.601 224.828 141.734 224.702 141.843C224.576 141.952 224.429 142.034 224.27 142.086L220.615 143.372C220.482 143.419 220.342 143.443 220.2 143.443ZM227.51 140.87C227.215 140.87 226.93 140.765 226.705 140.575C226.479 140.385 226.329 140.122 226.279 139.831C226.229 139.541 226.284 139.242 226.433 138.988C226.583 138.734 226.817 138.541 227.095 138.443L230.75 137.157C231.06 137.056 231.398 137.081 231.69 137.225C231.982 137.37 232.206 137.623 232.315 137.93C232.423 138.238 232.407 138.575 232.27 138.871C232.132 139.167 231.885 139.397 231.58 139.513L227.925 140.799C227.791 140.846 227.651 140.87 227.51 140.87ZM234.82 138.298C234.526 138.298 234.24 138.193 234.015 138.003C233.79 137.813 233.639 137.55 233.59 137.259C233.54 136.969 233.594 136.67 233.744 136.416C233.893 136.162 234.127 135.969 234.405 135.871L238.061 134.585C238.371 134.484 238.708 134.509 239 134.653C239.293 134.798 239.517 135.051 239.625 135.358C239.734 135.666 239.717 136.003 239.58 136.299C239.443 136.594 239.195 136.825 238.89 136.94L235.235 138.227C235.102 138.274 234.962 138.298 234.82 138.298ZM242.13 135.725C241.835 135.724 241.55 135.62 241.325 135.43C241.1 135.24 240.949 134.976 240.899 134.686C240.849 134.396 240.904 134.097 241.053 133.843C241.203 133.589 241.437 133.396 241.715 133.298L245.37 132.012C245.526 131.953 245.692 131.925 245.859 131.931C246.025 131.937 246.189 131.976 246.34 132.046C246.491 132.117 246.627 132.216 246.739 132.34C246.851 132.463 246.937 132.607 246.993 132.765C247.048 132.922 247.071 133.088 247.061 133.255C247.051 133.421 247.008 133.584 246.934 133.733C246.86 133.882 246.757 134.015 246.631 134.124C246.505 134.233 246.358 134.316 246.2 134.367L242.545 135.653C242.411 135.701 242.271 135.725 242.13 135.725ZM249.44 133.152C249.146 133.152 248.86 133.048 248.635 132.858C248.41 132.668 248.259 132.404 248.21 132.114C248.16 131.823 248.215 131.525 248.364 131.271C248.513 131.017 248.748 130.824 249.025 130.726L252.681 129.44C252.836 129.38 253.003 129.353 253.169 129.359C253.336 129.365 253.499 129.404 253.651 129.474C253.802 129.544 253.937 129.644 254.05 129.767C254.162 129.891 254.248 130.035 254.303 130.192C254.359 130.349 254.382 130.516 254.372 130.682C254.362 130.849 254.319 131.011 254.245 131.161C254.171 131.31 254.068 131.443 253.942 131.552C253.816 131.661 253.669 131.744 253.51 131.795L249.855 133.081C249.722 133.128 249.582 133.152 249.441 133.152H249.44ZM256.75 130.579C256.455 130.579 256.17 130.475 255.945 130.285C255.72 130.094 255.569 129.831 255.519 129.541C255.47 129.25 255.524 128.952 255.673 128.698C255.823 128.444 256.057 128.251 256.335 128.152L259.99 126.866C260.146 126.807 260.312 126.78 260.479 126.786C260.645 126.792 260.809 126.831 260.96 126.901C261.111 126.971 261.247 127.071 261.359 127.194C261.471 127.317 261.557 127.462 261.613 127.619C261.668 127.776 261.691 127.943 261.681 128.109C261.671 128.276 261.628 128.438 261.554 128.587C261.48 128.737 261.377 128.87 261.251 128.979C261.125 129.088 260.978 129.17 260.82 129.222L257.165 130.508C257.032 130.555 256.891 130.579 256.75 130.579ZM264.06 128.007C263.766 128.007 263.48 127.902 263.255 127.712C263.03 127.522 262.879 127.259 262.83 126.968C262.78 126.678 262.835 126.379 262.984 126.125C263.133 125.871 263.368 125.678 263.646 125.58L267.301 124.294C267.457 124.235 267.623 124.208 267.789 124.213C267.956 124.219 268.119 124.259 268.271 124.329C268.422 124.399 268.558 124.499 268.67 124.622C268.782 124.745 268.868 124.89 268.923 125.047C268.979 125.204 269.002 125.371 268.992 125.537C268.982 125.703 268.939 125.866 268.865 126.015C268.791 126.165 268.688 126.298 268.562 126.407C268.436 126.516 268.289 126.598 268.13 126.65L264.475 127.936C264.342 127.983 264.202 128.007 264.06 128.007ZM275.005 127.025C274.857 127.026 274.711 126.999 274.572 126.948L270.936 125.609C270.625 125.495 270.373 125.261 270.234 124.96C270.095 124.66 270.082 124.316 270.196 124.005C270.311 123.694 270.545 123.442 270.846 123.303C271.147 123.164 271.491 123.151 271.802 123.265L275.437 124.604C275.713 124.706 275.943 124.901 276.089 125.155C276.235 125.41 276.287 125.707 276.235 125.996C276.184 126.285 276.032 126.546 275.807 126.734C275.582 126.922 275.298 127.026 275.005 127.025Z" fill="url(#paint8_linear_272_3006)"/>
<path d="M200.039 150.538C199.751 150.538 199.473 150.439 199.25 150.259L197.698 148.998C197.441 148.789 197.278 148.486 197.244 148.156C197.21 147.827 197.309 147.497 197.518 147.24C197.727 146.983 198.03 146.82 198.359 146.786C198.689 146.752 199.019 146.851 199.276 147.06L200.284 147.879L201.51 147.448C201.82 147.347 202.158 147.371 202.451 147.515C202.743 147.66 202.968 147.913 203.076 148.221C203.185 148.528 203.168 148.866 203.031 149.162C202.893 149.458 202.645 149.688 202.34 149.804L200.453 150.467C200.32 150.514 200.18 150.538 200.039 150.538Z" fill="url(#paint9_linear_272_3006)"/>
<path d="M195.729 147.037C195.443 147.038 195.164 146.939 194.942 146.757L192.185 144.517C192.053 144.415 191.943 144.288 191.86 144.143C191.778 143.998 191.726 143.838 191.706 143.672C191.687 143.506 191.701 143.338 191.748 143.178C191.794 143.018 191.873 142.869 191.978 142.74C192.083 142.61 192.213 142.503 192.361 142.425C192.508 142.346 192.669 142.298 192.836 142.283C193.002 142.268 193.169 142.287 193.328 142.338C193.487 142.388 193.634 142.47 193.761 142.579L196.518 144.82C196.719 144.982 196.864 145.203 196.933 145.452C197.003 145.7 196.994 145.964 196.907 146.207C196.821 146.45 196.661 146.661 196.45 146.809C196.239 146.958 195.987 147.038 195.729 147.038V147.037ZM190.214 142.555C189.927 142.556 189.649 142.457 189.427 142.276L186.67 140.035C186.538 139.933 186.428 139.806 186.346 139.661C186.264 139.516 186.212 139.356 186.192 139.19C186.173 139.025 186.187 138.857 186.234 138.697C186.281 138.537 186.359 138.388 186.464 138.259C186.569 138.129 186.699 138.022 186.846 137.944C186.993 137.866 187.155 137.818 187.321 137.802C187.487 137.787 187.654 137.806 187.813 137.856C187.972 137.907 188.119 137.989 188.246 138.097L191.003 140.338C191.203 140.5 191.348 140.721 191.418 140.97C191.488 141.218 191.479 141.482 191.392 141.725C191.306 141.968 191.146 142.179 190.935 142.327C190.724 142.476 190.472 142.556 190.214 142.556V142.555ZM184.699 138.074C184.412 138.075 184.134 137.976 183.912 137.795L181.155 135.554C181.023 135.452 180.912 135.325 180.83 135.18C180.748 135.035 180.696 134.875 180.676 134.709C180.657 134.544 180.671 134.376 180.718 134.216C180.764 134.055 180.842 133.906 180.948 133.777C181.053 133.647 181.183 133.54 181.33 133.462C181.478 133.384 181.639 133.336 181.805 133.321C181.972 133.306 182.139 133.324 182.298 133.375C182.457 133.426 182.604 133.508 182.731 133.616L185.488 135.857C185.688 136.02 185.833 136.24 185.903 136.489C185.973 136.737 185.964 137.001 185.877 137.244C185.791 137.488 185.631 137.698 185.42 137.847C185.209 137.995 184.957 138.075 184.699 138.075V138.074ZM179.184 133.593C178.897 133.593 178.619 133.494 178.397 133.313L175.64 131.072C175.509 130.97 175.4 130.843 175.319 130.698C175.238 130.553 175.187 130.393 175.169 130.229C175.15 130.064 175.165 129.897 175.211 129.738C175.258 129.578 175.336 129.43 175.441 129.301C175.545 129.173 175.675 129.066 175.821 128.988C175.967 128.909 176.128 128.861 176.293 128.845C176.458 128.83 176.625 128.847 176.783 128.897C176.942 128.946 177.089 129.027 177.216 129.134L179.973 131.374C180.173 131.537 180.318 131.758 180.388 132.006C180.458 132.255 180.449 132.519 180.362 132.762C180.276 133.005 180.116 133.215 179.905 133.364C179.694 133.513 179.442 133.593 179.184 133.593Z" fill="url(#paint10_linear_272_3006)"/>
<path d="M173.67 129.112C173.383 129.112 173.105 129.013 172.883 128.832L171.331 127.571C171.184 127.452 171.066 127.301 170.986 127.13C170.906 126.959 170.866 126.772 170.869 126.583C170.872 126.395 170.917 126.209 171.002 126.04C171.087 125.871 171.21 125.724 171.36 125.61C171.815 125.241 172.238 124.834 172.625 124.394C172.734 124.271 172.866 124.171 173.014 124.099C173.161 124.027 173.321 123.985 173.485 123.976C173.649 123.966 173.813 123.988 173.968 124.042C174.123 124.095 174.267 124.179 174.389 124.288C174.512 124.396 174.612 124.528 174.684 124.676C174.756 124.823 174.798 124.983 174.808 125.147C174.818 125.311 174.795 125.475 174.742 125.63C174.688 125.785 174.605 125.928 174.496 126.051C174.337 126.231 174.181 126.396 174.033 126.547L174.459 126.894C174.659 127.057 174.804 127.277 174.874 127.526C174.943 127.774 174.934 128.038 174.848 128.281C174.761 128.525 174.602 128.735 174.391 128.884C174.18 129.032 173.928 129.112 173.67 129.112V129.112Z" fill="url(#paint11_linear_272_3006)"/>
<path d="M175.432 123.381C175.235 123.381 175.04 123.334 174.864 123.245C174.688 123.155 174.536 123.025 174.42 122.865C174.304 122.706 174.228 122.521 174.197 122.326C174.167 122.131 174.183 121.932 174.244 121.744C174.385 121.326 174.459 120.888 174.464 120.447C174.464 119.97 174.368 119.498 174.181 119.06C174.053 118.754 174.051 118.41 174.177 118.104C174.303 117.797 174.545 117.553 174.851 117.425C175.157 117.298 175.501 117.296 175.808 117.422C176.115 117.548 176.359 117.79 176.487 118.096C176.801 118.84 176.963 119.639 176.963 120.447C176.959 121.151 176.843 121.851 176.62 122.519C176.538 122.77 176.379 122.988 176.166 123.143C175.953 123.297 175.696 123.381 175.432 123.381ZM173.065 117.033C172.789 117.033 172.521 116.942 172.303 116.773C171.447 116.133 170.486 115.648 169.463 115.341C169.147 115.241 168.883 115.02 168.73 114.727C168.577 114.433 168.547 114.09 168.647 113.774C168.746 113.458 168.967 113.195 169.262 113.042C169.556 112.889 169.898 112.859 170.214 112.958C171.518 113.353 172.742 113.975 173.83 114.796C174.036 114.955 174.188 115.175 174.263 115.425C174.338 115.674 174.333 115.941 174.249 116.188C174.164 116.434 174.005 116.649 173.793 116.8C173.58 116.952 173.326 117.033 173.065 117.033ZM166.271 114.729C166.237 114.729 166.202 114.728 166.167 114.725C165.018 114.637 163.864 114.63 162.715 114.705C162.55 114.719 162.385 114.7 162.228 114.648C162.071 114.596 161.927 114.513 161.803 114.404C161.679 114.295 161.578 114.162 161.507 114.014C161.436 113.865 161.396 113.703 161.389 113.538C161.378 113.375 161.4 113.211 161.453 113.055C161.506 112.9 161.589 112.757 161.698 112.634C161.806 112.511 161.938 112.41 162.085 112.338C162.233 112.266 162.393 112.223 162.556 112.213C163.828 112.13 165.103 112.137 166.374 112.236C166.696 112.261 166.996 112.41 167.21 112.652C167.425 112.894 167.537 113.209 167.524 113.532C167.511 113.855 167.373 114.16 167.139 114.383C166.906 114.607 166.594 114.731 166.271 114.73V114.729Z" fill="url(#paint12_linear_272_3006)"/>
<path d="M157.05 115.566C156.756 115.565 156.472 115.462 156.247 115.273L154.716 113.988C154.47 113.772 154.318 113.469 154.293 113.143C154.267 112.817 154.371 112.495 154.582 112.244C154.792 111.994 155.092 111.836 155.418 111.804C155.743 111.773 156.068 111.87 156.323 112.075L157.371 112.954C157.721 112.874 158.202 112.774 158.784 112.67C158.947 112.638 159.115 112.639 159.277 112.673C159.44 112.706 159.594 112.772 159.731 112.865C159.868 112.959 159.985 113.079 160.075 113.219C160.165 113.358 160.227 113.514 160.256 113.677C160.285 113.841 160.281 114.008 160.244 114.17C160.208 114.332 160.14 114.485 160.043 114.62C159.947 114.755 159.825 114.87 159.684 114.958C159.543 115.045 159.385 115.103 159.222 115.129C158.096 115.329 157.383 115.521 157.376 115.523C157.27 115.551 157.16 115.565 157.05 115.566Z" fill="url(#paint13_linear_272_3006)"/>
<path d="M152.374 111.64C152.08 111.64 151.796 111.536 151.571 111.347L148.427 108.707C148.18 108.491 148.028 108.188 148.003 107.862C147.978 107.536 148.082 107.214 148.292 106.963C148.503 106.713 148.803 106.555 149.128 106.523C149.454 106.492 149.779 106.589 150.034 106.794L153.178 109.435C153.375 109.599 153.515 109.821 153.582 110.068C153.648 110.316 153.636 110.578 153.548 110.819C153.46 111.059 153.301 111.267 153.091 111.414C152.88 111.561 152.63 111.64 152.374 111.64Z" fill="url(#paint14_linear_272_3006)"/>
<path d="M146.083 106.36C145.789 106.36 145.505 106.256 145.28 106.067L143.749 104.781C143.596 104.652 143.476 104.488 143.399 104.303C143.322 104.117 143.291 103.916 143.309 103.717C143.326 103.517 143.391 103.324 143.499 103.155C143.607 102.986 143.753 102.845 143.927 102.744L145.656 101.741C145.943 101.583 146.279 101.543 146.594 101.631C146.91 101.718 147.178 101.925 147.342 102.208C147.506 102.49 147.553 102.826 147.472 103.143C147.391 103.46 147.189 103.732 146.91 103.902L146.72 104.013L146.888 104.154C147.085 104.319 147.226 104.541 147.292 104.788C147.358 105.036 147.346 105.298 147.258 105.539C147.17 105.78 147.01 105.988 146.8 106.135C146.59 106.282 146.34 106.36 146.083 106.36H146.083Z" fill="url(#paint15_linear_272_3006)"/>
<path d="M149.343 102.295C149.068 102.295 148.801 102.205 148.583 102.038C148.364 101.871 148.207 101.636 148.135 101.371C148.064 101.106 148.082 100.824 148.186 100.57C148.291 100.316 148.477 100.103 148.715 99.9654L151.774 98.1904C152.06 98.0239 152.401 97.9781 152.722 98.0631C153.042 98.148 153.316 98.3566 153.482 98.6431C153.649 98.9296 153.695 99.2704 153.61 99.5907C153.525 99.9109 153.316 100.184 153.029 100.351L149.97 102.126C149.779 102.236 149.563 102.294 149.343 102.295ZM155.462 98.7436C155.187 98.7439 154.919 98.6535 154.701 98.4865C154.483 98.3195 154.326 98.0853 154.254 97.8199C154.182 97.5546 154.2 97.2731 154.305 97.019C154.41 96.7649 154.595 96.5524 154.833 96.4144L157.892 94.6394C158.179 94.473 158.52 94.4272 158.84 94.5121C159.161 94.597 159.434 94.8057 159.601 95.0922C159.767 95.3786 159.813 95.7195 159.728 96.0398C159.643 96.36 159.434 96.6334 159.148 96.7998L156.088 98.5749C155.898 98.6851 155.682 98.7433 155.462 98.7436H155.462ZM161.58 95.1927C161.305 95.193 161.038 95.1026 160.819 94.9356C160.601 94.7686 160.444 94.5343 160.372 94.269C160.301 94.0037 160.319 93.7222 160.423 93.4681C160.528 93.214 160.714 93.0015 160.951 92.8635L164.011 91.0885C164.152 91.0061 164.309 90.9524 164.472 90.9306C164.635 90.9087 164.8 90.9191 164.959 90.9612C165.117 91.0032 165.266 91.0761 165.397 91.1756C165.527 91.2751 165.637 91.3994 165.719 91.5412C165.801 91.6831 165.855 91.8398 165.877 92.0024C165.899 92.1649 165.888 92.3302 165.846 92.4888C165.804 92.6474 165.731 92.7961 165.632 92.9265C165.532 93.057 165.408 93.1665 165.266 93.2489L162.207 95.0239C162.017 95.1342 161.8 95.1925 161.58 95.1927H161.58ZM167.698 91.6417C167.423 91.642 167.156 91.5517 166.938 91.3847C166.719 91.2177 166.562 90.9834 166.491 90.7181C166.419 90.4527 166.437 90.1712 166.542 89.9171C166.646 89.663 166.832 89.4505 167.07 89.3125L170.129 87.5375C170.416 87.3711 170.757 87.3253 171.078 87.4103C171.398 87.4952 171.671 87.7038 171.838 87.9903C172.004 88.2768 172.05 88.6177 171.965 88.9379C171.88 89.2582 171.672 89.5315 171.385 89.6979L168.325 91.473C168.135 91.5833 167.919 91.6416 167.699 91.6419L167.698 91.6417Z" fill="url(#paint16_linear_272_3006)"/>
<path d="M173.817 88.0918C173.542 88.0921 173.275 88.0017 173.056 87.8347C172.838 87.6677 172.681 87.4334 172.609 87.1681C172.537 86.9027 172.555 86.6212 172.66 86.3671C172.765 86.1129 172.95 85.9004 173.188 85.7625L174.083 85.2434L173.805 84.248C173.723 83.9309 173.768 83.594 173.931 83.31C174.095 83.0259 174.364 82.8175 174.68 82.7297C174.996 82.6418 175.333 82.6816 175.62 82.8404C175.907 82.9992 176.12 83.2643 176.213 83.5786L176.749 85.5038C176.823 85.7701 176.807 86.0535 176.703 86.3095C176.598 86.5656 176.412 86.7799 176.173 86.9188L174.444 87.9228C174.253 88.0333 174.037 88.0916 173.817 88.0918Z" fill="url(#paint17_linear_272_3006)"/>
<path d="M174.017 81.6104C173.745 81.6102 173.479 81.5209 173.262 81.356C173.045 81.191 172.888 80.9596 172.815 80.6971L171.824 77.1451C171.734 76.826 171.776 76.4846 171.939 76.196C172.101 75.9074 172.372 75.6953 172.691 75.6063C173.011 75.5172 173.352 75.5586 173.641 75.7213C173.93 75.884 174.142 76.1546 174.231 76.4737L175.222 80.0257C175.274 80.2114 175.282 80.4065 175.246 80.5958C175.21 80.7852 175.13 80.9636 175.013 81.1171C174.897 81.2706 174.746 81.395 174.573 81.4806C174.4 81.5662 174.21 81.6106 174.017 81.6104Z" fill="url(#paint18_linear_272_3006)"/>
<path d="M172.036 74.5052C171.763 74.505 171.498 74.4155 171.281 74.2504C171.064 74.0853 170.907 73.8537 170.834 73.591L170.297 71.6656C170.221 71.3907 170.241 71.0978 170.354 70.8357C170.467 70.5737 170.667 70.3583 170.919 70.2254L172.688 69.2954C172.982 69.1411 173.324 69.1097 173.641 69.2079C173.958 69.3062 174.222 69.5262 174.377 69.8194C174.531 70.1126 174.562 70.4551 174.464 70.7715C174.366 71.0879 174.146 71.3523 173.852 71.5066L172.975 71.9672L173.241 72.9216C173.293 73.1072 173.301 73.3022 173.264 73.4914C173.228 73.6806 173.149 73.8588 173.032 74.0122C172.915 74.1655 172.765 74.2899 172.592 74.3754C172.419 74.4609 172.229 74.5054 172.036 74.5052Z" fill="url(#paint19_linear_272_3006)"/>
<path d="M177.215 69.4949C176.935 69.4951 176.664 69.4016 176.444 69.2295C176.224 69.0574 176.068 68.8166 176.001 68.5454C175.934 68.2743 175.96 67.9886 176.074 67.7339C176.189 67.4792 176.385 67.2702 176.633 67.1403L179.13 65.9147C179.276 65.8342 179.436 65.7835 179.601 65.7656C179.767 65.7478 179.934 65.7632 180.094 65.8109C180.253 65.8586 180.401 65.9376 180.53 66.0433C180.658 66.1491 180.764 66.2794 180.842 66.4267C180.919 66.574 180.966 66.7352 180.98 66.901C180.995 67.0667 180.976 67.2336 180.924 67.3919C180.873 67.5501 180.791 67.6966 180.682 67.8226C180.574 67.9487 180.441 68.0517 180.292 68.1258L177.795 69.3514C177.616 69.4458 177.417 69.4951 177.215 69.4949Z" fill="url(#paint20_linear_272_3006)"/>
<path d="M183.683 67.6605C183.002 68.0043 182.249 68.1828 181.486 68.1814C180.723 68.18 179.971 67.9988 179.291 67.6525C178.075 66.9505 178.069 65.8158 179.278 65.1181C179.959 64.7744 180.712 64.5959 181.475 64.5973C182.238 64.5987 182.99 64.7799 183.67 65.1261C184.886 65.8282 184.892 66.9628 183.683 67.6605Z" fill="url(#paint21_linear_272_3006)"/>
<path d="M328.337 191.091L346.332 180.432L324.672 160.447L318.34 164.777L330.337 178.101L322.339 183.097L328.337 191.091Z" fill="#D1D3D4"/>
<path d="M284.349 241.717L302.344 231.06L285.849 216.571L279.518 220.9L278.351 233.723L284.349 241.717Z" fill="#D1D3D4"/>
<path d="M311.342 115.815L297.013 124.808L306.499 130.124L315.536 127.456L325.672 133.136L336.669 126.807L311.342 115.815Z" fill="#D1D3D4"/>
<path d="M143.054 64.8546L139.055 67.5195L158.05 75.8461L162.049 71.8492L158.383 64.8546H143.054Z" fill="#D1D3D4"/>
<path d="M157.051 152.121L171.38 143.128L165.715 137.465L159.717 140.796L154.051 135.467L143.387 141.795L157.051 152.121Z" fill="#D1D3D4"/>
<path d="M255.024 85.8383L268.687 76.5125L255.024 64.5219L250.358 68.8515L257.69 74.5141L251.358 79.8429L255.024 85.8383Z" fill="#D1D3D4"/>
<path d="M355.997 171.439L365.994 165.111L365.661 149.123L357.996 147.79L355.997 158.116L352.331 160.78L336.002 146.458L330.671 149.456L355.997 171.439Z" fill="#D1D3D4"/>
<path d="M201.039 141.795L212.036 136.133L199.372 111.153L189.375 116.481L189.042 123.809L183.71 127.806L201.039 141.795Z" fill="#D1D3D4"/>
<g style="mix-blend-mode:multiply">
<path d="M317.5 81.9514L253.092 32.0242L79.0085 132.283L144.422 183.369L317.5 81.9514Z" fill="#C8CACC"/>
</g>
<g style="mix-blend-mode:multiply">
<path d="M208.851 205.137L272.653 257.802L447 155.952L383.219 103.878L208.851 205.137Z" fill="#C8CACC"/>
</g>
<path style="mix-blend-mode:multiply" d="M328.553 129.849C342.928 129.849 354.581 123.91 354.581 116.584C354.581 109.258 342.928 103.319 328.553 103.319C314.179 103.319 302.526 109.258 302.526 116.584C302.526 123.91 314.179 129.849 328.553 129.849Z" fill="url(#paint22_radial_272_3006)"/>
<path d="M328.952 17.3937C320.471 12.4995 312.872 12.354 307.612 16.0195L301.518 18.8618L302.267 22.7713C300.838 26.2582 300.139 30.0014 300.216 33.769C300.216 46.2369 306.885 65.9036 313.798 82.9485L321.004 120.559L328.952 116.587C328.952 116.587 357.688 92.8158 357.688 66.9341C357.688 48.7315 344.822 26.5518 328.952 17.3937Z" fill="url(#paint23_linear_272_3006)"/>
<path d="M349.74 70.9059C349.74 96.7876 321.004 120.559 321.004 120.559C321.004 120.559 292.268 63.6227 292.268 37.7411C292.268 19.5389 305.133 12.2073 321.004 21.3656C336.874 30.5239 349.74 52.7038 349.74 70.9059Z" fill="url(#paint24_linear_272_3006)"/>
<path style="mix-blend-mode:color-dodge" d="M322.826 20.3727C314.536 15.589 307.089 15.3408 301.844 18.7539C306.93 16.4557 313.632 17.1117 321.004 21.3659C336.874 30.5241 349.74 52.7038 349.74 70.9061C349.74 93.0839 328.655 113.697 322.616 119.147C322.741 119.398 322.826 119.566 322.826 119.566C322.826 119.566 351.562 95.7948 351.562 69.9131C351.562 51.7105 338.696 29.5309 322.826 20.3727Z" fill="url(#paint25_radial_272_3006)"/>
<path d="M333.501 61.5353C333.501 69.4509 327.906 72.6392 321.004 68.6565C314.102 64.6738 308.507 55.0284 308.507 47.1127C308.507 39.1971 314.102 36.0088 321.004 39.9915C327.906 43.9743 333.501 53.6192 333.501 61.5353Z" fill="url(#paint26_linear_272_3006)"/>
<g style="mix-blend-mode:multiply">
<path d="M324.86 66.8768C317.959 62.894 312.364 53.2489 312.364 45.3335C312.364 42.1992 313.252 39.8212 314.74 38.3207C311.017 38.6542 308.507 41.818 308.507 47.1127C308.507 55.0285 314.102 64.6736 321.004 68.656C325.173 71.0618 328.854 70.8359 331.124 68.5477C328.914 68.6469 326.727 68.0635 324.86 66.8768Z" fill="#D1D3D4"/>
</g>
</g>
<defs>
<linearGradient id="paint0_linear_272_3006" x1="329.611" y1="328.768" x2="149.137" y2="-18.3696" gradientUnits="userSpaceOnUse">
<stop offset="0.0758" stop-color="#F0EFF2"/>
<stop offset="1" stop-color="white"/>
</linearGradient>
<linearGradient id="paint1_linear_272_3006" x1="147.555" y1="264.472" x2="276.079" y2="-16.6921" gradientUnits="userSpaceOnUse">
<stop offset="0.0354" stop-color="#138BBD"/>
<stop offset="0.2257" stop-color="#169AC7"/>
<stop offset="0.5946" stop-color="#1FC3DF"/>
<stop offset="1" stop-color="#2AF6FF"/>
</linearGradient>
<linearGradient id="paint2_linear_272_3006" x1="242.31" y1="127.867" x2="-23.91" y2="15.5241" gradientUnits="userSpaceOnUse">
<stop offset="0.0354" stop-color="#FFA98C"/>
<stop offset="0.3169" stop-color="#FFB892"/>
<stop offset="0.8601" stop-color="#FEE1A3"/>
<stop offset="1" stop-color="#FEECA8"/>
</linearGradient>
<linearGradient id="paint3_linear_272_3006" x1="324.009" y1="118.288" x2="149.361" y2="2.29844" gradientUnits="userSpaceOnUse">
<stop offset="0.0354" stop-color="#9F19AB"/>
<stop offset="0.2438" stop-color="#AE25B1"/>
<stop offset="0.6455" stop-color="#D744BF"/>
<stop offset="1" stop-color="#FF63CE"/>
</linearGradient>
<linearGradient id="paint4_linear_272_3006" x1="3411.61" y1="908.981" x2="2635.23" y2="143.954" gradientUnits="userSpaceOnUse">
<stop offset="0.0354" stop-color="#9F19AB"/>
<stop offset="0.2438" stop-color="#AE25B1"/>
<stop offset="0.6455" stop-color="#D744BF"/>
<stop offset="1" stop-color="#FF63CE"/>
</linearGradient>
<linearGradient id="paint5_linear_272_3006" x1="3376.01" y1="803.409" x2="2711.17" y2="49.6118" gradientUnits="userSpaceOnUse">
<stop offset="0.0354" stop-color="#9F19AB"/>
<stop offset="0.2438" stop-color="#AE25B1"/>
<stop offset="0.6455" stop-color="#D744BF"/>
<stop offset="1" stop-color="#FF63CE"/>
</linearGradient>
<linearGradient id="paint6_linear_272_3006" x1="10309.4" y1="2837.74" x2="7825.62" y2="319.011" gradientUnits="userSpaceOnUse">
<stop offset="0.0354" stop-color="#9F19AB"/>
<stop offset="0.2438" stop-color="#AE25B1"/>
<stop offset="0.6455" stop-color="#D744BF"/>
<stop offset="1" stop-color="#FF63CE"/>
</linearGradient>
<linearGradient id="paint7_linear_272_3006" x1="3278.47" y1="902.09" x2="2614.37" y2="142.885" gradientUnits="userSpaceOnUse">
<stop offset="0.0354" stop-color="#9F19AB"/>
<stop offset="0.2438" stop-color="#AE25B1"/>
<stop offset="0.6455" stop-color="#D744BF"/>
<stop offset="1" stop-color="#FF63CE"/>
</linearGradient>
<linearGradient id="paint8_linear_272_3006" x1="34471.5" y1="6345.1" x2="30477" y2="-1162.99" gradientUnits="userSpaceOnUse">
<stop offset="0.0354" stop-color="#9F19AB"/>
<stop offset="0.2438" stop-color="#AE25B1"/>
<stop offset="0.6455" stop-color="#D744BF"/>
<stop offset="1" stop-color="#FF63CE"/>
</linearGradient>
<linearGradient id="paint9_linear_272_3006" x1="2908.11" y1="1167.96" x2="2196.01" y2="424.72" gradientUnits="userSpaceOnUse">
<stop offset="0.0354" stop-color="#9F19AB"/>
<stop offset="0.2438" stop-color="#AE25B1"/>
<stop offset="0.6455" stop-color="#D744BF"/>
<stop offset="1" stop-color="#FF63CE"/>
</linearGradient>
<linearGradient id="paint10_linear_272_3006" x1="10194.6" y1="5058.7" x2="6831.85" y2="2382.31" gradientUnits="userSpaceOnUse">
<stop offset="0.0354" stop-color="#9F19AB"/>
<stop offset="0.2438" stop-color="#AE25B1"/>
<stop offset="0.6455" stop-color="#D744BF"/>
<stop offset="1" stop-color="#FF63CE"/>
</linearGradient>
<linearGradient id="paint11_linear_272_3006" x1="2037.18" y1="1504.92" x2="1236.52" y2="1085.91" gradientUnits="userSpaceOnUse">
<stop offset="0.0354" stop-color="#9F19AB"/>
<stop offset="0.2438" stop-color="#AE25B1"/>
<stop offset="0.6455" stop-color="#D744BF"/>
<stop offset="1" stop-color="#FF63CE"/>
</linearGradient>
<linearGradient id="paint12_linear_272_3006" x1="7394.56" y1="3066.06" x2="5273.18" y2="1111.93" gradientUnits="userSpaceOnUse">
<stop offset="0.0354" stop-color="#9F19AB"/>
<stop offset="0.2438" stop-color="#AE25B1"/>
<stop offset="0.6455" stop-color="#D744BF"/>
<stop offset="1" stop-color="#FF63CE"/>
</linearGradient>
<linearGradient id="paint13_linear_272_3006" x1="2917.6" y1="1118.66" x2="2204.26" y2="366.238" gradientUnits="userSpaceOnUse">
<stop offset="0.0354" stop-color="#9F19AB"/>
<stop offset="0.2438" stop-color="#AE25B1"/>
<stop offset="0.6455" stop-color="#D744BF"/>
<stop offset="1" stop-color="#FF63CE"/>
</linearGradient>
<linearGradient id="paint14_linear_272_3006" x1="2745" y1="1474.76" x2="1820.27" y2="800.786" gradientUnits="userSpaceOnUse">
<stop offset="0.0354" stop-color="#9F19AB"/>
<stop offset="0.2438" stop-color="#AE25B1"/>
<stop offset="0.6455" stop-color="#D744BF"/>
<stop offset="1" stop-color="#FF63CE"/>
</linearGradient>
<linearGradient id="paint15_linear_272_3006" x1="2089.67" y1="1370.09" x2="1300.56" y2="908.561" gradientUnits="userSpaceOnUse">
<stop offset="0.0354" stop-color="#9F19AB"/>
<stop offset="0.2438" stop-color="#AE25B1"/>
<stop offset="0.6455" stop-color="#D744BF"/>
<stop offset="1" stop-color="#FF63CE"/>
</linearGradient>
<linearGradient id="paint16_linear_272_3006" x1="11415.1" y1="3862.94" x2="8590.06" y2="858.36" gradientUnits="userSpaceOnUse">
<stop offset="0.0354" stop-color="#9F19AB"/>
<stop offset="0.2438" stop-color="#AE25B1"/>
<stop offset="0.6455" stop-color="#D744BF"/>
<stop offset="1" stop-color="#FF63CE"/>
</linearGradient>
<linearGradient id="paint17_linear_272_3006" x1="2201.9" y1="1379.28" x2="1363.26" y2="943.957" gradientUnits="userSpaceOnUse">
<stop offset="0.0354" stop-color="#9F19AB"/>
<stop offset="0.2438" stop-color="#AE25B1"/>
<stop offset="0.6455" stop-color="#D744BF"/>
<stop offset="1" stop-color="#FF63CE"/>
</linearGradient>
<linearGradient id="paint18_linear_272_3006" x1="1856.78" y1="1500.1" x2="1090.44" y2="1206.62" gradientUnits="userSpaceOnUse">
<stop offset="0.0354" stop-color="#9F19AB"/>
<stop offset="0.2438" stop-color="#AE25B1"/>
<stop offset="0.6455" stop-color="#D744BF"/>
<stop offset="1" stop-color="#FF63CE"/>
</linearGradient>
<linearGradient id="paint19_linear_272_3006" x1="2243.02" y1="1306.68" x2="1403.57" y2="862.379" gradientUnits="userSpaceOnUse">
<stop offset="0.0354" stop-color="#9F19AB"/>
<stop offset="0.2438" stop-color="#AE25B1"/>
<stop offset="0.6455" stop-color="#D744BF"/>
<stop offset="1" stop-color="#FF63CE"/>
</linearGradient>
<linearGradient id="paint20_linear_272_3006" x1="2632.63" y1="908.602" x2="1928.69" y2="280.729" gradientUnits="userSpaceOnUse">
<stop offset="0.0354" stop-color="#9F19AB"/>
<stop offset="0.2438" stop-color="#AE25B1"/>
<stop offset="0.6455" stop-color="#D744BF"/>
<stop offset="1" stop-color="#FF63CE"/>
</linearGradient>
<linearGradient id="paint21_linear_272_3006" x1="3226.73" y1="864.978" x2="2553.7" y2="90.7755" gradientUnits="userSpaceOnUse">
<stop offset="0.0354" stop-color="#9F19AB"/>
<stop offset="0.2438" stop-color="#AE25B1"/>
<stop offset="0.6455" stop-color="#D744BF"/>
<stop offset="1" stop-color="#FF63CE"/>
</linearGradient>
<radialGradient id="paint22_radial_272_3006" cx="0" cy="0" r="1" gradientUnits="userSpaceOnUse" gradientTransform="translate(329.061 116.584) scale(26.0275 13.2649)">
<stop stop-color="#C7C8C9"/>
<stop offset="1" stop-color="white"/>
</radialGradient>
<linearGradient id="paint23_linear_272_3006" x1="348.126" y1="108.627" x2="306.765" y2="14.6077" gradientUnits="userSpaceOnUse">
<stop offset="0.0354" stop-color="#B2D235"/>
<stop offset="0.1641" stop-color="#89B620"/>
<stop offset="0.4123" stop-color="#7FB93C"/>
<stop offset="0.583333" stop-color="#AAD300"/>
<stop offset="0.8737" stop-color="#B2D235"/>
</linearGradient>
<linearGradient id="paint24_linear_272_3006" x1="26831.6" y1="17975" x2="33213.6" y2="15077.3" gradientUnits="userSpaceOnUse">
<stop offset="0.0354" stop-color="#B2D235"/>
<stop offset="0.2438" stop-color="#89B620"/>
<stop offset="0.6455" stop-color="#7FB93C"/>
<stop offset="1" stop-color="#89B620"/>
</linearGradient>
<radialGradient id="paint25_radial_272_3006" cx="0" cy="0" r="1" gradientUnits="userSpaceOnUse" gradientTransform="translate(335.313 52.7817) scale(40.4903 40.4699)">
<stop stop-color="white"/>
<stop offset="1"/>
</radialGradient>
<linearGradient id="paint26_linear_272_3006" x1="330.444" y1="69.2814" x2="304.252" y2="47.1946" gradientUnits="userSpaceOnUse">
<stop stop-color="#D4D1D8"/>
<stop offset="1" stop-color="white"/>
</linearGradient>
<clipPath id="clip0_272_3006">
<rect width="447" height="260" fill="white"/>
</clipPath>
</defs>
</svg>
