<svg width="15" height="16" viewBox="0 0 15 16" fill="none" xmlns="http://www.w3.org/2000/svg">
<path fill-rule="evenodd" clip-rule="evenodd" d="M7.26291 6.15784C8.28042 6.15784 9.10502 6.98244 9.10502 7.99994C9.10502 9.01745 8.28042 9.84205 7.26291 9.84205C6.24541 9.84205 5.42081 9.01745 5.42081 7.99994C5.42081 6.98244 6.24541 6.15784 7.26291 6.15784Z" stroke="#222222" stroke-linecap="round" stroke-linejoin="round"/>
<path fill-rule="evenodd" clip-rule="evenodd" d="M13.2817 4.50018C12.7781 3.62168 11.663 3.32108 10.7915 3.82838C10.0335 4.26873 9.08618 3.71775 9.08618 2.83634C9.08618 1.82246 8.26961 1 7.26301 1C6.25641 1 5.43981 1.82246 5.43981 2.83634C5.43981 3.71775 4.49246 4.26873 3.73515 3.82838C2.86295 3.32108 1.74795 3.62168 1.24428 4.50018C0.741339 5.37868 1.03978 6.50174 1.91198 7.00828C2.66929 7.44936 2.66929 8.55064 1.91198 8.99172C1.03978 9.49896 0.741339 10.6221 1.24428 11.4999C1.74795 12.3783 2.86295 12.6789 3.73443 12.1724H3.73515C4.49246 11.7313 5.43981 12.2822 5.43981 13.1636C5.43981 14.1775 6.25641 15 7.26301 15C8.26961 15 9.08618 14.1775 9.08618 13.1636C9.08618 12.2822 10.0335 11.7313 10.7915 12.1724C11.663 12.6789 12.7781 12.3783 13.2817 11.4999C13.7853 10.6221 13.4862 9.49896 12.6147 8.99172H12.614C11.8567 8.55064 11.8567 7.44936 12.6147 7.00828C13.4862 6.50174 13.7853 5.37868 13.2817 4.50018Z" stroke="#222222" stroke-linecap="round" stroke-linejoin="round"/>
</svg>
