<svg width="16" height="18" viewBox="0 0 16 18" fill="none" xmlns="http://www.w3.org/2000/svg">
<path fill-rule="evenodd" clip-rule="evenodd" d="M15.9532 12.3123C15.9532 12.3023 15.9492 12.2935 15.9454 12.2849C15.9424 12.2783 15.9395 12.2719 15.9386 12.2652C15.9391 12.261 15.9413 12.2576 15.9435 12.2542C15.9461 12.2501 15.9488 12.246 15.9488 12.2403C15.9488 10.6395 14.6291 9.33679 13.0061 9.33679C11.4854 9.33679 10.2463 10.4858 10.0954 11.9495C9.88274 11.6767 9.57968 11.496 9.23099 11.496H8.50836V1.37183C8.50836 0.85146 8.17209 0.5 7.67217 0.5C7.17246 0.5 6.83578 0.85092 6.83578 1.37183V11.4954H6.11194C5.81773 11.4954 5.55477 11.628 5.35096 11.8304V8.76538C5.35096 8.64798 5.25489 8.55192 5.13722 8.55192H1.15808C1.04027 8.55192 0.944477 8.64852 0.944477 8.76538V8.86631H0.193084V10.0034H0.944544V10.0367C0.944544 10.1546 1.04027 10.2499 1.15815 10.2499H2.2743V10.6048C2.2743 11.0783 1.89199 11.4619 1.42265 11.4619C1.30485 11.4619 1.20919 11.5582 1.20919 11.6751C1.20919 11.793 1.30485 11.8882 1.42265 11.8882C2.12753 11.8882 2.70205 11.3117 2.70205 10.6048V10.2498H3.24571V12.5191H1.34414C0.632713 12.5191 0.0546875 13.1016 0.0546875 13.8137V17.6446C0.0546875 17.7625 0.15062 17.8574 0.268156 17.8574H5.13762C5.14139 17.8574 5.14417 17.8555 5.14695 17.8535C5.14931 17.8518 5.15167 17.8501 5.15464 17.8496C5.15768 17.8501 5.16007 17.8519 5.1624 17.8536C5.16503 17.8556 5.16758 17.8574 5.17091 17.8574H10.173C10.291 17.8574 10.3867 17.7606 10.3867 17.6446V14.1624L10.986 17.6808C11.0036 17.7834 11.092 17.8583 11.1956 17.8583H14.7811C14.8836 17.8583 14.9715 17.7844 14.9913 17.6841L15.9458 12.5269C15.9526 12.4921 15.9396 12.4591 15.9272 12.4276L15.922 12.4141C15.925 12.3996 15.9309 12.3858 15.9367 12.3721C15.945 12.3526 15.9532 12.3332 15.9532 12.3123ZM7.67103 0.927747C7.82373 0.927747 8.0798 0.984456 8.0798 1.37183V9.19502H7.26252V1.37183C7.26198 0.984456 7.51845 0.927747 7.67103 0.927747ZM8.07987 9.62135H7.26198V11.4949H8.07987V9.62135ZM1.37108 9.82267V8.97872H4.92314V11.5293H3.67238V10.0369C3.67238 9.91954 3.57631 9.82381 3.45864 9.82381L1.37108 9.82267ZM3.45816 12.9464H1.34306C0.86765 12.9464 0.480814 13.336 0.479801 13.8127V14.7515C0.845979 14.5285 1.58785 14.3159 2.80824 15.0247C4.12854 15.7898 4.61361 14.999 4.90228 14.5269L4.9226 14.5353V11.9557H3.6719V12.7335C3.6719 12.8506 3.57583 12.9464 3.45816 12.9464ZM0.480814 17.4293V15.2728C0.487036 15.2688 0.493983 15.2663 0.500958 15.2638C0.512903 15.2594 0.52493 15.2551 0.53354 15.2433C0.557574 15.2143 1.1383 14.5491 2.59538 15.3935C3.06167 15.6656 3.45452 15.769 3.78471 15.769C4.3067 15.769 4.67018 15.5071 4.92314 15.2257V17.4293H0.480814V17.4293ZM9.14991 17.4293H9.95876V12.7759C9.95876 12.3065 9.63167 11.9226 9.22991 11.9226H8.50762H6.8347H6.1114C5.70951 11.9226 5.38377 12.3044 5.38377 12.7759V17.4293H6.19241V15.2422C6.19241 15.1261 6.28848 15.0301 6.40588 15.0301C6.52368 15.0301 6.61975 15.1248 6.61975 15.2422V17.4293H7.45762V15.2422C7.45762 15.1261 7.55335 15.0301 7.67109 15.0301C7.7889 15.0301 7.88456 15.1248 7.88456 15.2422V17.4293H8.7227V15.2422C8.7227 15.1261 8.8185 15.0301 8.93617 15.0301C9.05411 15.0301 9.14991 15.1248 9.14991 15.2422V17.4293ZM15.2051 14.1703L15.2011 14.1687C15.0458 14.4588 14.7861 14.9435 14.3299 15.0585C14.0112 15.1367 13.623 15.029 13.1748 14.732C11.9711 13.9295 11.2273 14.1833 10.8645 14.4338L10.5994 12.8801C11.2309 13.1528 12.2805 13.244 13.0061 13.244C13.7461 13.244 14.8218 13.1488 15.4475 12.8636L15.2051 14.1703ZM13.0062 12.8149C14.6717 12.8149 15.4833 12.4521 15.5255 12.3076C15.4822 12.171 14.6694 11.8088 13.0062 11.8087C11.3437 11.8087 10.5302 12.1731 10.4855 12.3162C10.5292 12.4521 11.341 12.8149 13.0062 12.8149ZM13.0061 9.76427C14.2306 9.76427 15.2492 10.6319 15.4721 11.7747C14.8507 11.4784 13.7574 11.3826 13.0072 11.3826C12.2556 11.3826 11.161 11.48 10.5393 11.7747C10.7625 10.6308 11.7814 9.76427 13.0061 9.76427ZM11.3748 17.4293H14.6024L15.0304 15.1205C14.8672 15.2747 14.68 15.4105 14.4365 15.4719C14.3332 15.4979 14.2285 15.5109 14.1205 15.5109C13.7585 15.5109 13.3622 15.3681 12.9388 15.0859C11.5357 14.1516 10.9752 14.8761 10.9473 14.9167L11.3748 17.4293Z" fill="black"/>
</svg>
