<svg width="24" height="24" viewBox="0 0 24 24" fill="none" xmlns="http://www.w3.org/2000/svg">
<circle cx="12" cy="12" r="12" fill="#B2D235"/>
<path d="M12.5039 5.06932L14.44 8.99887H14.4287L14.43 9.00112L18.9359 9.00124C19.2207 9.00124 19.456 9.21286 19.4932 9.48741L19.4984 9.56374C19.4984 9.84851 19.2868 10.0839 19.0122 10.1211L18.9359 10.1262H14.0762C13.887 10.1262 13.7125 10.0314 13.609 9.87713L13.5692 9.8075L12.9707 8.56312L11.9993 6.5909L10.3604 9.91844C10.2784 10.0848 10.1197 10.2001 9.9362 10.2266L6.26505 10.7571L8.92326 13.3441C9.05616 13.4734 9.11677 13.66 9.08527 13.8427L8.45536 17.4982L11.7097 15.7833C11.6547 15.95 11.625 16.1278 11.625 16.3121C11.625 16.5644 11.6803 16.8037 11.7796 17.0186L7.96923 19.0258C7.55638 19.2432 7.07351 18.8924 7.15276 18.4325L7.9263 13.9437L4.66201 10.7668C4.32761 10.4414 4.51204 9.87374 4.97388 9.807L9.48206 9.15555L11.4947 5.06932C11.7009 4.65072 12.2977 4.65072 12.5039 5.06932ZM18.9375 15.7496C19.2481 15.7496 19.5 16.0015 19.5 16.3121C19.5 16.5969 19.2883 16.8322 19.0138 16.8695L18.9375 16.8746H13.3125C13.0018 16.8746 12.75 16.6228 12.75 16.3121C12.75 16.0273 12.9616 15.792 13.2361 15.7547L13.3125 15.7496H18.9375ZM18.9359 12.3815C19.2466 12.3815 19.4984 12.6334 19.4984 12.944C19.4984 13.2288 19.2868 13.4641 19.0122 13.5013L18.9359 13.5065H13.3109C13.0003 13.5065 12.7484 13.2547 12.7484 12.944C12.7484 12.6592 12.96 12.4239 13.2346 12.3866L13.3109 12.3815H18.9359Z" fill="white"/>
</svg>
