<svg width="16" height="17" viewBox="0 0 16 17" fill="none" xmlns="http://www.w3.org/2000/svg">
<path fill-rule="evenodd" clip-rule="evenodd" d="M2.27888 0.5H13.7211C14.9777 0.5 16 1.52231 16 2.77888V14.2211C16 15.4777 14.9777 16.5 13.7211 16.5H2.27888C1.02231 16.5 0 15.4777 0 14.2211V2.77888C0 1.52231 1.02231 0.5 2.27888 0.5ZM13.7211 15.8626C14.6262 15.8626 15.3626 15.1262 15.3626 14.2211H15.3625V2.77888C15.3625 1.87378 14.6262 1.13744 13.7211 1.13744H2.27888C1.37378 1.13744 0.637438 1.87378 0.637438 2.77888V14.2211C0.637438 15.1262 1.37378 15.8626 2.27888 15.8626H13.7211Z" fill="black"/>
<path fill-rule="evenodd" clip-rule="evenodd" d="M5.67431 3.39616H8.28272C9.92719 3.39616 11.203 4.20422 11.203 6.4015V6.54325C11.203 8.74056 9.913 9.56278 8.25437 9.56278H6.21297V13.3904C6.21297 13.6314 5.972 13.7589 5.74516 13.7589C5.50419 13.7589 5.27734 13.6314 5.27734 13.3904V3.73641H5.27738C5.27738 3.55209 5.43331 3.41034 5.67431 3.39616ZM8.25444 8.75478C9.51609 8.75478 10.2674 8.06013 10.2674 6.58581V6.41569C10.2674 4.94134 9.51612 4.26091 8.25444 4.26091H6.21303V8.75478H8.25444Z" fill="black"/>
<path d="M1.4027 10.1255C1.2267 10.1255 1.08398 10.2682 1.08398 10.4442V10.5717C1.08398 10.7477 1.2267 10.8904 1.4027 10.8904C1.5787 10.8904 1.72142 10.7477 1.72142 10.5717V10.4442C1.72142 10.2682 1.57867 10.1255 1.4027 10.1255Z" fill="black"/>
<path d="M1.4027 11.4004C1.2267 11.4004 1.08398 11.5431 1.08398 11.7191V14.3008C1.08398 14.4768 1.2267 14.6195 1.4027 14.6195C1.5787 14.6195 1.72142 14.4768 1.72142 14.3008V11.7191C1.72142 11.5431 1.57867 11.4004 1.4027 11.4004Z" fill="black"/>
</svg>
