<svg width="17" height="17" viewBox="0 0 17 17" fill="none" xmlns="http://www.w3.org/2000/svg">
<path fill-rule="evenodd" clip-rule="evenodd" d="M13.0084 10.2165L15.5241 12.7233C16.0945 13.2948 16.0945 14.22 15.5242 14.7914L14.8393 15.4763C13.9952 16.329 12.8473 16.8119 11.6475 16.8193C11.2976 16.8198 10.9488 16.7777 10.609 16.6939C9.28712 16.3441 8.02973 15.7849 6.88455 15.0377C5.84282 14.3711 4.87757 13.592 4.00617 12.7143C3.20465 11.9166 2.48486 11.0409 1.85745 10.1001C1.16053 9.07385 0.609138 7.95605 0.219053 6.7785C-0.303701 5.16901 0.125885 3.4023 1.32924 2.21247L2.12604 1.41567C2.70577 0.861443 3.61892 0.861443 4.19865 1.41567L6.71442 3.93145C7.28476 4.50289 7.28476 5.42816 6.71442 5.99959L5.23718 7.47684C5.12749 7.58622 5.11416 7.75933 5.20586 7.88418C5.71177 8.57921 6.27156 9.23327 6.88009 9.84043C7.55954 10.5221 8.29806 11.1424 9.08699 11.6937C9.21341 11.7823 9.38527 11.7672 9.49433 11.6579L10.9357 10.2165L10.9382 10.214C11.5105 9.64303 12.4374 9.64413 13.0084 10.2165ZM14.8884 14.1827L14.8902 14.1809C15.1117 13.9584 15.111 13.5984 14.8884 13.377L12.3681 10.8522L12.3663 10.8504C12.1438 10.6289 11.7839 10.6297 11.5623 10.8522L10.1343 12.3026C9.71833 12.7158 9.06637 12.7723 8.58548 12.4369C7.75322 11.8549 6.97425 11.2003 6.25771 10.4806C5.61504 9.84022 5.02377 9.15023 4.48948 8.41696C4.13764 7.93565 4.19093 7.26942 4.6148 6.85016L6.09205 5.37292L6.09383 5.37113C6.31537 5.14866 6.31458 4.78868 6.09205 4.56715L3.57627 2.05137L3.57449 2.04959C3.35201 1.82805 2.99204 1.82884 2.7705 2.05137L1.9737 2.84817C1.00672 3.79936 0.660128 5.21517 1.07838 6.50546C1.44324 7.60379 1.95844 8.64626 2.60935 9.60321C3.20444 10.4926 3.88672 11.3204 4.64617 12.0742C5.47156 12.9047 6.38582 13.6417 7.37236 14.2722C8.43424 14.9697 9.60093 15.4926 10.8282 15.8211C12.0464 16.1119 13.328 15.7453 14.208 14.8542L14.8929 14.1692L14.8884 14.1827Z" fill="#B2D235"/>
<path d="M15.5241 12.7233L15.6303 12.6174L15.63 12.6171L15.5241 12.7233ZM13.0084 10.2165L12.9022 10.3224L12.9025 10.3227L13.0084 10.2165ZM15.5242 14.7914L15.6302 14.8975L15.6303 14.8974L15.5242 14.7914ZM14.8393 15.4763L14.7332 15.3702L14.7327 15.3708L14.8393 15.4763ZM11.6475 16.8193L11.6477 16.9693L11.6484 16.9693L11.6475 16.8193ZM10.609 16.6939L10.5706 16.839L10.5731 16.8396L10.609 16.6939ZM6.88455 15.0377L6.96652 14.912L6.9654 14.9113L6.88455 15.0377ZM4.00617 12.7143L4.11262 12.6087L4.11199 12.608L4.00617 12.7143ZM1.85745 10.1001L1.98225 10.0168L1.98154 10.0158L1.85745 10.1001ZM0.219053 6.7785L0.0763865 6.82484L0.0766622 6.82567L0.219053 6.7785ZM1.32924 2.21247L1.43471 2.31914L1.43531 2.31854L1.32924 2.21247ZM2.12604 1.41567L2.02236 1.30722L2.01998 1.30961L2.12604 1.41567ZM4.19865 1.41567L4.30474 1.30958L4.3023 1.30725L4.19865 1.41567ZM6.71442 3.93145L6.82059 3.82549L6.82049 3.82538L6.71442 3.93145ZM6.71442 5.99959L6.82049 6.10566L6.82059 6.10556L6.71442 5.99959ZM5.23718 7.47684L5.34309 7.58306L5.34324 7.58291L5.23718 7.47684ZM5.20586 7.88418L5.32713 7.79591L5.32676 7.79539L5.20586 7.88418ZM6.88009 9.84043L6.98633 9.73454L6.98604 9.73425L6.88009 9.84043ZM9.08699 11.6937L9.17307 11.5709L9.17291 11.5708L9.08699 11.6937ZM9.49433 11.6579L9.38827 11.5518L9.38814 11.5519L9.49433 11.6579ZM10.9357 10.2165L11.0418 10.3225L11.0418 10.3225L10.9357 10.2165ZM10.9382 10.214L10.8323 10.1078L10.8321 10.1079L10.9382 10.214ZM14.8902 14.1809L14.9963 14.287L14.9965 14.2867L14.8902 14.1809ZM14.8884 14.1827L14.7461 14.1354L14.9945 14.2888L14.8884 14.1827ZM14.8884 13.377L14.7822 13.4829L14.7826 13.4833L14.8884 13.377ZM12.3681 10.8522L12.4742 10.7462L12.4742 10.7461L12.3681 10.8522ZM12.3663 10.8504L12.4724 10.7444L12.4721 10.7441L12.3663 10.8504ZM11.5623 10.8522L11.456 10.7464L11.4554 10.747L11.5623 10.8522ZM10.1343 12.3026L10.24 12.409L10.2412 12.4078L10.1343 12.3026ZM8.58548 12.4369L8.49952 12.5598L8.49967 12.5599L8.58548 12.4369ZM6.25771 10.4806L6.36401 10.3748L6.36359 10.3744L6.25771 10.4806ZM4.48948 8.41696L4.61071 8.32862L4.61057 8.32844L4.48948 8.41696ZM4.6148 6.85016L4.72029 6.95681L4.72087 6.95623L4.6148 6.85016ZM6.09383 5.37113L6.1999 5.4772L6.20012 5.47697L6.09383 5.37113ZM6.09205 4.56715L5.98598 4.67321L5.98622 4.67345L6.09205 4.56715ZM3.57627 2.05137L3.68234 1.9453V1.9453L3.57627 2.05137ZM3.57449 2.04959L3.68056 1.94352L3.68033 1.9433L3.57449 2.04959ZM2.7705 2.05137L2.87657 2.15744L2.87681 2.1572L2.7705 2.05137ZM1.9737 2.84817L2.07889 2.95511L2.07977 2.95424L1.9737 2.84817ZM1.07838 6.50546L0.93569 6.55171L0.936032 6.55274L1.07838 6.50546ZM2.60935 9.60321L2.73402 9.51979L2.73338 9.51885L2.60935 9.60321ZM4.64617 12.0742L4.75256 11.9685L4.75185 11.9678L4.64617 12.0742ZM7.37236 14.2722L7.45472 14.1468L7.45314 14.1458L7.37236 14.2722ZM10.8282 15.8211L10.7894 15.966L10.7934 15.967L10.8282 15.8211ZM14.208 14.8542L14.1019 14.7481L14.1013 14.7488L14.208 14.8542ZM14.8929 14.1692L15.0352 14.2165L14.7868 14.0632L14.8929 14.1692ZM15.63 12.6171L13.1142 10.1102L12.9025 10.3227L15.4183 12.8296L15.63 12.6171ZM15.6303 14.8974C16.2591 14.2674 16.2591 13.2473 15.6303 12.6174L15.418 12.8293C15.9299 13.3422 15.9298 14.1726 15.418 14.6854L15.6303 14.8974ZM14.9453 15.5824L15.6302 14.8975L15.4181 14.6853L14.7332 15.3702L14.9453 15.5824ZM11.6484 16.9693C12.8879 16.9617 14.0738 16.4627 14.9459 15.5818L14.7327 15.3708C13.9165 16.1952 12.8067 16.6622 11.6466 16.6693L11.6484 16.9693ZM10.5731 16.8396C10.9247 16.9263 11.2856 16.9698 11.6477 16.9693L11.6473 16.6693C11.3095 16.6698 10.9729 16.6292 10.6449 16.5483L10.5731 16.8396ZM6.80258 15.1633C7.96116 15.9193 9.23327 16.485 10.5706 16.8389L10.6474 16.5489C9.34097 16.2032 8.0983 15.6506 6.96652 14.912L6.80258 15.1633ZM3.89973 12.82C4.77888 13.7055 5.75271 14.4915 6.8037 15.164L6.9654 14.9113C5.93293 14.2506 4.97626 13.4785 4.11262 12.6087L3.89973 12.82ZM1.73266 10.1833C2.36561 11.1324 3.09176 12.0159 3.90036 12.8207L4.11199 12.608C3.31755 11.8173 2.60412 10.9493 1.98225 10.0168L1.73266 10.1833ZM0.0766622 6.82567C0.471106 8.01638 1.02866 9.14666 1.73336 10.1843L1.98154 10.0158C1.29241 9.00104 0.74717 7.89573 0.361443 6.73134L0.0766622 6.82567ZM1.22378 2.10581C-0.0198995 3.3355 -0.463883 5.16141 0.0763889 6.82484L0.361716 6.73217C-0.14352 5.17661 0.271671 3.46909 1.43471 2.31914L1.22378 2.10581ZM2.01998 1.30961L1.22318 2.10641L1.43531 2.31854L2.23211 1.52174L2.01998 1.30961ZM4.3023 1.30725C3.66459 0.697584 2.6601 0.697584 2.02239 1.30725L2.2297 1.5241C2.75144 1.0253 3.57325 1.0253 4.09499 1.5241L4.3023 1.30725ZM6.82049 3.82538L4.30471 1.30961L4.09258 1.52174L6.60836 4.03752L6.82049 3.82538ZM6.82059 6.10556C7.44937 5.47557 7.44937 4.45548 6.82059 3.82549L6.60825 4.03741C7.12015 4.55029 7.12015 5.38075 6.60825 5.89363L6.82059 6.10556ZM5.34324 7.58291L6.82049 6.10566L6.60836 5.89353L5.13111 7.37077L5.34324 7.58291ZM5.32676 7.79539C5.27897 7.73033 5.2859 7.64009 5.34309 7.58306L5.13126 7.37062C4.96907 7.53235 4.94935 7.78834 5.08496 7.97298L5.32676 7.79539ZM6.98604 9.73425C6.38308 9.13264 5.82841 8.48457 5.32713 7.79591L5.08459 7.97246C5.59513 8.67385 6.16005 9.3339 6.77414 9.94662L6.98604 9.73425ZM9.17291 11.5708C8.39125 11.0245 7.65953 10.41 6.98633 9.73454L6.77385 9.94632C7.45955 10.6343 8.20487 11.2602 9.00106 11.8167L9.17291 11.5708ZM9.38814 11.5519C9.33054 11.6097 9.2398 11.6176 9.17307 11.5709L9.0009 11.8165C9.18703 11.947 9.44 11.9247 9.60052 11.7638L9.38814 11.5519ZM10.8297 10.1104L9.38827 11.5518L9.6004 11.7639L11.0418 10.3225L10.8297 10.1104ZM10.8321 10.1079L10.8297 10.1104L11.0418 10.3225L11.0443 10.32L10.8321 10.1079ZM13.1145 10.1105C12.4851 9.47954 11.4632 9.47833 10.8323 10.1078L11.0442 10.3202C11.5578 9.80773 12.3897 9.80872 12.9022 10.3224L13.1145 10.1105ZM14.7842 14.0748L14.7824 14.0766L14.9945 14.2888L14.9963 14.287L14.7842 14.0748ZM14.7826 13.4833C14.9464 13.6463 14.947 13.9112 14.7839 14.0751L14.9965 14.2867C15.2765 14.0055 15.2755 13.5506 14.9942 13.2706L14.7826 13.4833ZM12.2619 10.9582L14.7822 13.4829L14.9945 13.271L12.4742 10.7462L12.2619 10.9582ZM12.2602 10.9565L12.262 10.9583L12.4742 10.7461L12.4724 10.7444L12.2602 10.9565ZM11.6686 10.958C11.8317 10.7942 12.0967 10.7936 12.2605 10.9567L12.4721 10.7441C12.191 10.4641 11.736 10.4651 11.456 10.7464L11.6686 10.958ZM10.2412 12.4078L11.6692 10.9574L11.4554 10.747L10.0274 12.1974L10.2412 12.4078ZM8.49967 12.5599C9.04003 12.9368 9.7726 12.8733 10.24 12.409L10.0286 12.1962C9.66406 12.5583 9.09271 12.6078 8.67129 12.3139L8.49967 12.5599ZM6.15142 10.5865C6.87422 11.3124 7.65999 11.9728 8.49952 12.5598L8.67144 12.314C7.84645 11.7371 7.07429 11.0882 6.36401 10.3748L6.15142 10.5865ZM4.36825 8.50529C4.90719 9.24494 5.50358 9.94092 6.15184 10.5869L6.36359 10.3744C5.72649 9.73953 5.14036 9.05552 4.61071 8.32862L4.36825 8.50529ZM4.50932 6.74352C4.03265 7.21499 3.97272 7.96422 4.36838 8.50548L4.61057 8.32844C4.30256 7.90708 4.34922 7.32384 4.72029 6.95681L4.50932 6.74352ZM5.98598 5.26685L4.50874 6.7441L4.72087 6.95623L6.19812 5.47898L5.98598 5.26685ZM5.98777 5.26507L5.98598 5.26685L6.19812 5.47898L6.1999 5.4772L5.98777 5.26507ZM5.98622 4.67345C6.15004 4.83654 6.15061 5.10153 5.98754 5.26529L6.20012 5.47697C6.48012 5.19578 6.47912 4.74083 6.19788 4.46084L5.98622 4.67345ZM3.47021 2.15744L5.98598 4.67321L6.19812 4.46108L3.68234 1.9453L3.47021 2.15744ZM3.46842 2.15565L3.47021 2.15744L3.68234 1.9453L3.68055 1.94352L3.46842 2.15565ZM2.87681 2.1572C3.03989 1.99338 3.30488 1.99281 3.46865 2.15588L3.68033 1.9433C3.39914 1.6633 2.94418 1.6643 2.6642 1.94554L2.87681 2.1572ZM2.07977 2.95424L2.87657 2.15744L2.66444 1.9453L1.86764 2.7421L2.07977 2.95424ZM1.22107 6.4592C0.820338 5.22296 1.15242 3.86645 2.07889 2.95511L1.86851 2.74124C0.861034 3.73226 0.499918 5.20738 0.935693 6.55171L1.22107 6.4592ZM2.73338 9.51885C2.09026 8.57335 1.58122 7.54336 1.22074 6.45817L0.936032 6.55274C1.30525 7.66422 1.82662 8.71916 2.48532 9.68758L2.73338 9.51885ZM4.75185 11.9678C3.99949 11.2209 3.32356 10.4008 2.73401 9.51979L2.48468 9.68663C3.08532 10.5843 3.77396 11.4198 4.5405 12.1807L4.75185 11.9678ZM7.45314 14.1458C6.47586 13.5212 5.57019 12.7911 4.75256 11.9685L4.53979 12.18C5.37293 13.0182 6.29578 13.7622 7.29159 14.3986L7.45314 14.1458ZM10.867 15.6762C9.65518 15.3518 8.5032 14.8355 7.45471 14.1468L7.29002 14.3976C8.36528 15.1038 9.54667 15.6333 10.7894 15.966L10.867 15.6762ZM14.1013 14.7488C13.2581 15.6025 12.0302 15.9538 10.863 15.6752L10.7934 15.967C12.0625 16.27 13.3979 15.888 14.3147 14.9595L14.1013 14.7488ZM14.7868 14.0632L14.1019 14.7481L14.314 14.9602L14.999 14.2753L14.7868 14.0632ZM15.0308 14.2299L15.0352 14.2165L14.7505 14.122L14.7461 14.1354L15.0308 14.2299Z" fill="#B2D235"/>
</svg>
