<svg width="24" height="20" viewBox="0 0 24 20" fill="none" xmlns="http://www.w3.org/2000/svg">
<path fill-rule="evenodd" clip-rule="evenodd" d="M21.1304 3.31458H18.6261L17.2435 1.24297C16.7217 0.466113 15.8087 0 14.8696 0H9.13043C8.1913 0 7.27826 0.466113 6.75652 1.24297L5.37391 3.31458H2.86957C1.27826 3.31458 0 4.58344 0 6.16304V16.2104C0 17.79 1.27826 19.0588 2.86957 19.0588H21.1304C22.7217 19.0588 24 17.79 24 16.2104V6.16304C24 4.58344 22.7217 3.31458 21.1304 3.31458ZM12 16.7283C8.42609 16.7283 5.53043 13.8539 5.53043 10.3063C5.53043 6.75863 8.42609 3.91017 12 3.91017C15.5739 3.91017 18.4696 6.78453 18.4696 10.3322C18.4696 13.8539 15.5739 16.7283 12 16.7283ZM20.6609 7.32832H20.7652C21.2348 7.30243 21.5739 6.914 21.5478 6.44789C21.5217 5.98178 21.1304 5.61925 20.6609 5.64514H19.6174C19.1739 5.67104 18.8348 6.00767 18.8087 6.44789C18.7826 6.914 19.1478 7.30243 19.6174 7.32832H20.6609Z" fill="white"/>
<path d="M12.0001 7.05884C10.0564 7.05884 8.4707 8.65028 8.4707 10.6011C8.4707 12.5519 10.0564 14.1177 12.0001 14.1177C13.9438 14.1177 15.5295 12.5262 15.5295 10.5754C15.5295 8.62461 13.9438 7.05884 12.0001 7.05884Z" fill="white"/>
</svg>
