<svg width="16" height="19" viewBox="0 0 16 19" fill="none" xmlns="http://www.w3.org/2000/svg">
<path fill-rule="evenodd" clip-rule="evenodd" d="M1.22461 9.36261C1.22461 8.05946 2.28483 6.99924 3.58798 6.99924C4.89106 6.99924 5.95135 8.05946 5.95135 9.36261C5.95135 10.6658 4.89109 11.726 3.58798 11.726C2.28483 11.726 1.22461 10.6658 1.22461 9.36261ZM1.79908 9.36261C1.79908 10.34 2.61055 11.1351 3.58798 11.1351C4.56538 11.1351 5.34413 10.34 5.34413 9.36261C5.34413 8.48588 4.73692 7.75628 3.85065 7.6152V8.18096C3.85065 8.34426 3.71836 8.47638 3.55523 8.47638C3.3921 8.47638 3.25981 8.34426 3.25981 8.18096V7.6152C2.44738 7.75628 1.79908 8.48588 1.79908 9.36261Z" fill="black"/>
<path fill-rule="evenodd" clip-rule="evenodd" d="M3.84949 1.67189V5.83083C5.69586 5.98157 7.11138 7.50736 7.11135 9.36261C7.11135 11.3175 5.53334 12.9077 3.57858 12.9077C1.62386 12.9077 0.0253906 11.3175 0.0253906 9.36261C0.0253906 7.50736 1.48612 5.98157 3.25865 5.83083V1.67189C3.25865 1.50858 3.39094 1.37646 3.55407 1.37646C3.7172 1.37646 3.84949 1.50858 3.84949 1.67189ZM0.632608 9.36261C0.632608 10.9915 1.95782 12.3168 3.58682 12.3168C5.21576 12.3168 6.54103 10.9915 6.54103 9.36261C6.54103 7.73374 5.21579 6.4084 3.58682 6.4084C1.95782 6.4084 0.632608 7.73374 0.632608 9.36261Z" fill="black"/>
<path fill-rule="evenodd" clip-rule="evenodd" d="M11.8256 0.795421V9.07815C14.189 9.23083 15.9738 11.1543 15.9737 13.4985C15.9737 15.942 13.9982 17.9298 11.5547 17.9298C9.11129 17.9298 7.11523 15.942 7.11523 13.4985C7.11523 11.1543 8.94526 9.23083 11.2348 9.07815V0.795421C11.2348 0.632119 11.367 0.5 11.5302 0.5C11.6933 0.5 11.8256 0.632119 11.8256 0.795421ZM7.72245 13.4985C7.72245 15.6161 9.44517 17.3389 11.5629 17.3389C13.6806 17.3389 15.4034 15.6161 15.4034 13.4985C15.4034 11.3809 13.6806 9.65799 11.5629 9.65799C9.44517 9.65799 7.72245 11.3809 7.72245 13.4985Z" fill="black"/>
<path fill-rule="evenodd" clip-rule="evenodd" d="M8.31445 13.4985C8.31445 11.7066 9.77219 10.2489 11.5641 10.2489C13.356 10.2489 14.8137 11.7066 14.8137 13.4985C14.8137 15.2904 13.356 16.7481 11.5641 16.7481C9.77219 16.7481 8.31445 15.2904 8.31445 13.4985ZM8.88892 13.4985C8.88892 14.9646 10.098 16.1573 11.5641 16.1573C13.0301 16.1573 14.2065 14.9646 14.2065 13.4985C14.2065 12.1322 13.1562 11.004 11.8268 10.8565V11.4305C11.8268 11.5938 11.6945 11.7259 11.5313 11.7259C11.3682 11.7259 11.2359 11.5938 11.2359 11.4305V10.8565C9.90652 11.004 8.88892 12.1322 8.88892 13.4985Z" fill="black"/>
</svg>
