<svg width="12" height="17" viewBox="0 0 12 17" fill="none" xmlns="http://www.w3.org/2000/svg">
<path fill-rule="evenodd" clip-rule="evenodd" d="M0.0214844 3.22357C0.0214844 1.99395 1.0219 0.993851 2.25121 0.993851C3.48083 0.993851 4.48093 1.99395 4.48093 3.22357C4.48093 4.45288 3.48083 5.4533 2.25121 5.4533C1.0219 5.4533 0.0214844 4.4532 0.0214844 3.22357ZM0.913373 3.22357C0.913373 3.96234 1.51244 4.56141 2.25121 4.56141C2.99001 4.56141 3.58904 3.96234 3.58904 3.22357C3.58904 2.4848 2.98998 1.88574 2.25121 1.88574C1.51244 1.88574 0.913373 2.4848 0.913373 3.22357Z" fill="black"/>
<path d="M7.57553 15.5575L5.79175 10.6521C5.72782 10.4758 5.56045 10.3587 5.37288 10.3587H2.25126V6.34518C2.25126 6.09873 2.05177 5.89924 1.80532 5.89924C1.55887 5.89924 1.35938 6.09873 1.35938 6.34518V10.8046C1.35938 11.0511 1.55887 11.2506 1.80532 11.2506H5.06071L6.73778 15.8625C6.80349 16.0436 6.97472 16.156 7.15665 16.156C7.20721 16.156 7.25863 16.1474 7.30918 16.1289C7.54044 16.0448 7.66026 15.7891 7.57553 15.5575Z" fill="black"/>
<path d="M4.21336 12.1425H0.467429C0.220975 12.1425 0.0214844 12.342 0.0214844 12.5884C0.0214844 12.8349 0.220975 13.0343 0.467429 13.0343H4.21336C4.45982 13.0343 4.65931 12.8349 4.65931 12.5884C4.65931 12.342 4.45982 12.1425 4.21336 12.1425Z" fill="black"/>
<path d="M8.75713 0.746451C8.64714 0.526161 8.37867 0.437251 8.15897 0.54696C7.93868 0.657262 7.84918 0.924828 7.95948 1.14543C8.75681 2.74073 8.38549 4.13207 7.95561 5.74281C7.69073 6.73308 7.4172 7.75788 7.39849 8.9102C7.39463 9.15665 7.59084 9.35969 7.83702 9.36356C7.8397 9.36356 7.84238 9.36356 7.84444 9.36356C8.08734 9.36356 8.28652 9.16853 8.29038 8.92504C8.30731 7.88212 8.56655 6.91146 8.81691 5.97289C9.25421 4.3363 9.7058 2.64408 8.75713 0.746451Z" fill="black"/>
<path d="M11.056 0.746451C10.9454 0.526161 10.6784 0.437251 10.4575 0.54696C10.2372 0.657262 10.1477 0.924828 10.258 1.14543C11.0559 2.74073 10.6843 4.13207 10.2541 5.74343C9.79632 7.45764 9.27721 9.40077 10.2429 11.8142C10.3124 11.9887 10.4801 12.0946 10.657 12.0946C10.7123 12.0946 10.7685 12.0845 10.8226 12.0628C11.0512 11.9712 11.1627 11.7117 11.0711 11.4831C10.2155 9.34429 10.6731 7.63068 11.1154 5.97327C11.5528 4.33662 12.0049 2.6444 11.056 0.746451Z" fill="black"/>
</svg>
