<svg width="14" height="14" viewBox="0 0 14 14" fill="none" xmlns="http://www.w3.org/2000/svg">
<path d="M2.30224 1.79988C2.16445 1.66209 1.94341 1.66209 1.80562 1.79701C1.66496 1.9348 1.66496 2.15583 1.80275 2.29362L2.64097 3.13758C2.707 3.20361 2.79598 3.24093 2.89071 3.24093C2.98257 3.24093 3.07156 3.20361 3.13759 3.13758L5.68957 0.599959C5.82736 0.462169 5.82736 0.241132 5.69244 0.103342C5.55465 -0.0344474 5.33361 -0.0344474 5.19582 0.103342L4.42362 0.869797C4.01313 0.444946 3.44187 0.200943 2.84191 0.200943C1.62764 0.200943 0.640152 1.18844 0.640152 2.40271C0.640152 3.61698 1.62764 4.60447 2.84191 4.60447C3.82079 4.60447 4.66763 3.9758 4.95182 3.03998C5.00923 2.85339 4.90302 2.65819 4.71643 2.60078C4.52984 2.54624 4.33463 2.64958 4.27722 2.83617C4.08776 3.46196 3.49641 3.90117 2.84191 3.90117C2.01518 3.90117 1.34345 3.22944 1.34345 2.40271C1.34345 1.57597 2.01518 0.904244 2.84191 0.904244C3.25241 0.904244 3.64282 1.07648 3.92414 1.36928L2.89359 2.39409L2.30224 1.79988Z" fill="#222222"/>
<path d="M2.84192 4.89722C1.62765 4.89722 0.640152 5.88471 0.640152 7.09898C0.640152 8.31325 1.62765 9.30074 2.84192 9.30074C4.05619 9.30074 5.04368 8.31325 5.04368 7.09898C5.04368 5.88471 4.05619 4.89722 2.84192 4.89722ZM2.84192 8.59744C2.01518 8.59744 1.34345 7.92572 1.34345 7.09898C1.34345 6.27224 2.01518 5.60052 2.84192 5.60052C3.66866 5.60052 4.34038 6.27224 4.34038 7.09898C4.34038 7.92572 3.66866 8.59744 2.84192 8.59744Z" fill="#222222"/>
<path d="M5.04368 11.7982C5.04368 10.5839 4.05619 9.59644 2.84192 9.59644C1.62765 9.59644 0.640152 10.5839 0.640152 11.7982C0.640152 13.0125 1.62765 14 2.84192 14C4.05619 14 5.04368 13.0125 5.04368 11.7982ZM2.84192 13.2995C2.01518 13.2995 1.34345 12.6278 1.34345 11.8011C1.34345 10.9743 2.01518 10.3026 2.84192 10.3026C3.66866 10.3026 4.34038 10.9743 4.34038 11.8011C4.34038 12.6278 3.66866 13.2995 2.84192 13.2995Z" fill="#222222"/>
<path d="M13.0068 6.74597H6.16609C5.97089 6.74597 5.813 6.90386 5.813 7.09906C5.813 7.29426 5.97089 7.45214 6.16609 7.45214H13.0068C13.202 7.45214 13.3598 7.29426 13.3598 7.09906C13.3598 6.90386 13.202 6.74597 13.0068 6.74597Z" fill="#222222"/>
<path d="M13.0068 2.05249H6.16609C5.97089 2.05249 5.813 2.21037 5.813 2.40558C5.813 2.60078 5.97089 2.75866 6.16609 2.75866H13.0068C13.202 2.75866 13.3598 2.60078 13.3598 2.40558C13.3598 2.21037 13.202 2.05249 13.0068 2.05249Z" fill="#222222"/>
<path d="M13.0068 11.448H6.16609C5.97089 11.448 5.813 11.6059 5.813 11.8011C5.813 11.9963 5.97089 12.1542 6.16609 12.1542H13.0068C13.202 12.1542 13.3598 11.9963 13.3598 11.8011C13.3598 11.603 13.202 11.448 13.0068 11.448Z" fill="#222222"/>
</svg>
