<svg width="20" height="18" viewBox="0 0 14 18" fill="none" xmlns="http://www.w3.org/2000/svg">
<path fill-rule="evenodd" clip-rule="evenodd" d="M6.78086 1C8.58842 1 10.2878 1.70391 11.566 2.98206C12.8441 4.26025 13.548 5.95962 13.548 7.76716C13.548 11.4237 10.0907 14.4651 8.23318 16.0991L8.23311 16.0991L8.23159 16.1005C7.97411 16.327 7.75173 16.5226 7.57448 16.6882C7.35195 16.896 7.06642 16.9999 6.78083 16.9999C6.4953 16.9999 6.2097 16.896 5.9872 16.6882C5.80961 16.5223 5.5867 16.3262 5.32858 16.0991C3.47111 14.4652 0.0136719 11.4238 0.0136719 7.76716C0.0136719 5.95962 0.717578 4.26025 1.99573 2.98206C3.27386 1.70391 4.9733 1 6.78086 1ZM6.93467 16.0033C7.12248 15.8279 7.35027 15.6275 7.61405 15.3954C9.3603 13.8593 12.6107 11 12.6107 7.76719C12.6107 4.55256 9.99542 1.93728 6.7808 1.93728C3.56614 1.93728 0.950859 4.55256 0.950859 7.76719C0.950859 11 4.20133 13.8593 5.94758 15.3954L5.94887 15.3965C6.21211 15.6281 6.43948 15.8281 6.62695 16.0033C6.71327 16.0838 6.84839 16.0838 6.93467 16.0033Z" fill="#B2D235"/>
<path d="M11.566 2.98206L11.3892 3.15884L11.566 2.98206ZM13.548 7.76716H13.798V7.76715L13.548 7.76716ZM8.23318 16.0991L8.39781 16.2872L8.3983 16.2868L8.23318 16.0991ZM8.23311 16.0991L8.06848 15.911L8.068 15.9114L8.23311 16.0991ZM8.23159 16.1005L8.06648 15.9127L8.06647 15.9128L8.23159 16.1005ZM7.57448 16.6882L7.74513 16.8709L7.74515 16.8708L7.57448 16.6882ZM5.9872 16.6882L6.15786 16.5055L6.15785 16.5055L5.9872 16.6882ZM5.32858 16.0991L5.4937 15.9114H5.4937L5.32858 16.0991ZM1.99573 2.98206L1.81896 2.80529H1.81896L1.99573 2.98206ZM7.61405 15.3954L7.77917 15.5832L7.77917 15.5831L7.61405 15.3954ZM6.93467 16.0033L7.10525 16.186L7.10531 16.186L6.93467 16.0033ZM12.6107 7.76719H12.3607V7.76719L12.6107 7.76719ZM5.94758 15.3954L5.78246 15.5831L5.78247 15.5831L5.94758 15.3954ZM5.94887 15.3965L6.11399 15.2088L6.11398 15.2088L5.94887 15.3965ZM6.62695 16.0033L6.45627 16.1859L6.45637 16.186L6.62695 16.0033ZM11.7427 2.80529C10.4177 1.48024 8.65473 0.75 6.78086 0.75V1.25C8.52212 1.25 10.1579 1.92757 11.3892 3.15884L11.7427 2.80529ZM13.798 7.76715C13.798 5.89332 13.0678 4.13036 11.7427 2.80529L11.3892 3.15884C12.6204 4.39014 13.298 6.02593 13.298 7.76716L13.798 7.76715ZM8.3983 16.2868C9.3256 15.471 10.6719 14.2876 11.7851 12.8443C12.8972 11.4024 13.798 9.67446 13.798 7.76716H13.298C13.298 9.51644 12.4701 11.1374 11.3892 12.5389C10.3094 13.9389 8.99824 15.0931 8.06806 15.9114L8.3983 16.2868ZM8.39774 16.2873L8.3978 16.2872L8.06855 15.9109L8.06848 15.911L8.39774 16.2873ZM8.3967 16.2882L8.39822 16.2868L8.068 15.9114L8.06648 15.9127L8.3967 16.2882ZM7.74515 16.8708C7.91906 16.7084 8.13825 16.5155 8.39671 16.2882L8.06647 15.9128C7.80997 16.1384 7.5844 16.3368 7.40382 16.5055L7.74515 16.8708ZM6.78083 17.2499C7.1269 17.2499 7.47424 17.1239 7.74513 16.8709L7.40384 16.5055C7.22967 16.6681 7.00594 16.7499 6.78083 16.7499V17.2499ZM5.81655 16.8708C6.08742 17.1239 6.43483 17.2499 6.78083 17.2499V16.7499C6.55576 16.7499 6.33199 16.6681 6.15786 16.5055L5.81655 16.8708ZM5.16346 16.2868C5.42255 16.5148 5.64229 16.7081 5.81656 16.8709L6.15785 16.5055C5.97693 16.3365 5.75085 16.1376 5.4937 15.9114L5.16346 16.2868ZM-0.236328 7.76716C-0.236328 9.67448 0.66449 11.4025 1.77662 12.8443C2.88987 14.2877 4.23616 15.4711 5.16346 16.2868L5.4937 15.9114C4.56353 15.0932 3.25236 13.939 2.17253 12.539C1.09157 11.1375 0.263672 9.51646 0.263672 7.76716H-0.236328ZM1.81896 2.80529C0.493918 4.13036 -0.236328 5.89332 -0.236328 7.76716H0.263672C0.263672 6.02593 0.941238 4.39014 2.17251 3.15884L1.81896 2.80529ZM6.78086 0.75C4.907 0.75 3.14397 1.48024 1.81896 2.80529L2.17251 3.15884C3.40375 1.92757 5.0396 1.25 6.78086 1.25V0.75ZM7.44893 15.2077C7.18604 15.439 6.95515 15.6421 6.76403 15.8206L7.10531 16.186C7.28982 16.0137 7.5145 15.816 7.77917 15.5832L7.44893 15.2077ZM12.3607 7.76719C12.3607 9.30121 11.5878 10.7696 10.5707 12.063C9.55596 13.3535 8.32357 14.4383 7.44893 15.2077L7.77917 15.5831C8.65077 14.8164 9.91673 13.7036 10.9637 12.3721C12.0084 11.0436 12.8607 9.46595 12.8607 7.76719L12.3607 7.76719ZM6.7808 2.18728C9.85735 2.18728 12.3607 4.69063 12.3607 7.76719H12.8607C12.8607 4.41449 10.1335 1.68728 6.7808 1.68728V2.18728ZM1.20086 7.76719C1.20086 4.69063 3.70421 2.18728 6.7808 2.18728V1.68728C3.42807 1.68728 0.700859 4.41449 0.700859 7.76719H1.20086ZM6.1127 15.2077C5.23805 14.4383 4.00566 13.3534 2.99089 12.063C1.9738 10.7696 1.20086 9.3012 1.20086 7.76719H0.700859C0.700859 9.46595 1.55316 11.0436 2.59786 12.3721C3.64489 13.7036 4.91085 14.8164 5.78246 15.5831L6.1127 15.2077ZM6.11398 15.2088L6.11269 15.2077L5.78247 15.5831L5.78376 15.5843L6.11398 15.2088ZM6.79764 15.8206C6.60683 15.6423 6.37631 15.4396 6.11399 15.2088L5.78375 15.5843C6.0479 15.8166 6.27213 16.0139 6.45627 16.1859L6.79764 15.8206ZM6.76409 15.8205C6.7693 15.8157 6.77572 15.8137 6.78081 15.8137C6.78589 15.8137 6.79233 15.8157 6.79754 15.8205L6.45637 16.186C6.63876 16.3563 6.92295 16.3562 7.10525 16.186L6.76409 15.8205Z" fill="#AAD300"/>
</svg>
