<svg width="32" height="28" viewBox="0 0 32 28" fill="none" xmlns="http://www.w3.org/2000/svg">
<path fill-rule="evenodd" clip-rule="evenodd" d="M31.4139 17.2705L27.0216 2.78369H16.9959V0.986495C16.9959 0.500135 16.505 0 16.0002 0C15.5092 0 15.0044 0.486359 15.0044 0.986495V2.79746H4.9787L0.58644 17.2708H0.490917H0C0 20.5547 2.68705 23.2305 6.01555 23.2305C9.34375 23.2305 12.0311 20.5684 12.0311 17.2708H11.4583H11.3627L7.21564 3.68932H15.086V24.825H7.29725V27.8519H8.29299H15.9998H23.7067H24.7024V24.8247H16.9137V3.68932H24.7841L20.6373 17.2705H20.5417H19.9689C19.9689 20.5544 22.6559 23.2302 25.9845 23.2302C29.313 23.2302 32 20.5681 32 17.2705H31.5091H31.4139ZM9.99821 17.2705H2.03229L5.97444 4.09452L9.99821 17.2705ZM26.0259 4.09452L22.0018 17.2705H29.968L26.0259 4.09452Z" fill="#B2D235"/>
</svg>
