<svg width="12" height="12" viewBox="0 0 12 12" fill="none" xmlns="http://www.w3.org/2000/svg">
<path opacity="0.501674" fill-rule="evenodd" clip-rule="evenodd" d="M7.57895 2.21053C7.57895 0.995297 8.57424 0 9.78947 0C11.0047 0 12 0.995297 12 2.21053C12 3.42576 11.0047 4.42105 9.78947 4.42105C9.10058 4.42105 8.50765 4.08191 8.10136 3.58347L4.31497 5.47759C4.32525 5.51836 4.33662 5.55876 4.34797 5.59913L4.34798 5.59914L4.34798 5.59914L4.34798 5.59915C4.38455 5.72914 4.42105 5.85886 4.42105 6C4.42105 6.14114 4.38455 6.27086 4.34798 6.40085L4.34798 6.40086L4.34798 6.40086L4.34797 6.40087C4.33662 6.44124 4.32525 6.48164 4.31497 6.52241L8.10136 8.41653C8.50765 7.91809 9.10058 7.57895 9.78947 7.57895C11.0047 7.57895 12 8.57424 12 9.78947C12 11.0047 11.0047 12 9.78947 12C8.57424 12 7.57895 11.0047 7.57895 9.78947C7.57895 9.64833 7.61545 9.51861 7.65202 9.38862L7.65203 9.3886C7.66339 9.34823 7.67475 9.30783 7.68503 9.26706L3.89864 7.37294C3.49235 7.87139 2.89942 8.21053 2.21053 8.21053C0.995296 8.21053 0 7.21523 0 6C0 4.78477 0.995296 3.78947 2.21053 3.78947C2.89942 3.78947 3.49235 4.12861 3.89864 4.62706L7.68503 2.73294C7.67475 2.69217 7.66339 2.65177 7.65203 2.61141L7.65203 2.61139L7.65202 2.61138L7.65202 2.61138C7.61545 2.48139 7.57895 2.35166 7.57895 2.21053ZM11.0526 2.21053C11.0526 1.50729 10.4927 0.947368 9.78947 0.947368C9.08624 0.947368 8.52632 1.50729 8.52632 2.21053C8.52632 2.91376 9.08624 3.47368 9.78947 3.47368C10.4927 3.47368 11.0526 2.91376 11.0526 2.21053ZM2.21053 4.73684C2.91376 4.73684 3.47368 5.29677 3.47368 6C3.47368 6.70323 2.91376 7.26316 2.21053 7.26316C1.50729 7.26316 0.947368 6.70323 0.947368 6C0.947368 5.29677 1.50729 4.73684 2.21053 4.73684ZM11.0526 9.78947C11.0526 9.08624 10.4927 8.52632 9.78947 8.52632C9.08624 8.52632 8.52632 9.08624 8.52632 9.78947C8.52632 10.4927 9.08624 11.0526 9.78947 11.0526C10.4927 11.0526 11.0526 10.4927 11.0526 9.78947Z" fill="#222222"/>
</svg>
