<svg width="29" height="17" viewBox="0 0 29 17" fill="none" xmlns="http://www.w3.org/2000/svg">
<path fill-rule="evenodd" clip-rule="evenodd" d="M6.23879 11.6657C5.41479 11.6657 4.59194 11.3484 3.96044 10.7166L3.92311 10.6794C3.07664 9.83295 1.72908 9.81035 0.854921 10.6279C0.649969 10.8195 0.328572 10.8086 0.136953 10.6037C-0.0546662 10.3989 -0.0438726 10.0774 0.160953 9.8859C1.43765 8.69225 3.40565 8.72527 4.64108 9.96082L4.67841 9.99803C5.28514 10.6049 6.14965 10.7885 6.91194 10.5425V3.0294C6.91194 2.1946 6.23283 1.51549 5.39803 1.51549H5.35714C4.52235 1.51549 3.84324 2.1946 3.84324 3.0294V3.38394C3.84324 3.66444 3.61581 3.89187 3.3353 3.89187C3.05479 3.89187 2.82737 3.66444 2.82737 3.38394V3.0294C2.82737 1.63448 3.96222 0.499619 5.35714 0.499619H5.39803C6.79295 0.499619 7.92781 1.63448 7.92781 3.0294V6.97924H13.4288V3.0294C13.4288 2.1946 12.7497 1.51549 11.9149 1.51549H11.874C11.0393 1.51549 10.3601 2.1946 10.3601 3.0294V3.38394C10.3601 3.66444 10.1326 3.89187 9.85213 3.89187C9.57162 3.89187 9.34419 3.66444 9.34419 3.38394V3.0294C9.34419 1.63448 10.479 0.499619 11.874 0.499619H11.9149C13.3098 0.499619 14.4446 1.63448 14.4446 3.0294V10.6026C14.8294 10.523 15.198 10.339 15.5074 10.0496L15.6826 9.88578C16.959 8.692 18.9272 8.72502 20.1627 9.9607L20.2006 9.99854C21.0464 10.8444 22.3941 10.8671 23.2681 10.0496L23.4434 9.88578C24.7201 8.692 26.6878 8.72514 27.9235 9.9607C28.122 10.1592 28.122 10.4807 27.9235 10.679C27.7253 10.8774 27.4034 10.8774 27.2053 10.679C26.3589 9.8327 25.0112 9.81022 24.1373 10.6277L23.9621 10.7916C22.6853 11.9852 20.7174 11.9522 19.482 10.7166L19.4441 10.6788C18.5983 9.83282 17.2506 9.81022 16.3766 10.6277L16.2013 10.7917C14.9244 11.9853 12.9566 11.9523 11.7212 10.7168L11.6839 10.6796C10.8374 9.83308 9.48997 9.81035 8.61581 10.6279L8.44032 10.7919C7.81632 11.3753 7.02698 11.6657 6.23879 11.6657ZM6.23892 16.3824C5.41479 16.3824 4.59194 16.065 3.96044 15.4332L3.92311 15.396C3.07664 14.5497 1.72908 14.5269 0.854921 15.3443C0.649969 15.5362 0.328572 15.525 0.136953 15.3203C-0.0546662 15.1155 -0.0438726 14.794 0.160953 14.6025C1.43765 13.4088 3.40552 13.4417 4.64108 14.6774L4.67841 14.7146C5.52489 15.5611 6.87232 15.5838 7.74648 14.7663L7.92197 14.6022C9.19841 13.4086 11.1664 13.4416 12.4018 14.6774L12.4392 14.7146C13.2858 15.5611 14.6332 15.5837 15.5074 14.7663L15.6826 14.6023C16.959 13.4088 18.927 13.4416 20.1627 14.6773L20.2006 14.7151C21.0464 15.5611 22.3941 15.5837 23.2681 14.7662L23.4434 14.6022C24.7201 13.4086 26.6878 13.4415 27.9235 14.6771C28.122 14.8755 28.122 15.1971 27.9235 15.3955C27.7253 15.594 27.4036 15.5938 27.2053 15.3955C26.3589 14.5493 25.0114 14.5268 24.1373 15.3441L23.9621 15.508C22.6854 16.7017 20.7177 16.6688 19.482 15.4331L19.4441 15.3952C18.5983 14.5493 17.2506 14.5267 16.3766 15.3442L16.2013 15.5081C14.9246 16.7018 12.9569 16.6689 11.7212 15.4332L11.6839 15.396C10.8374 14.5495 9.48997 14.5269 8.61581 15.3443L8.44032 15.5084C7.81645 16.0919 7.02698 16.3823 6.23892 16.3824ZM12.4018 9.96082C11.7704 9.32908 10.9475 9.01175 10.1235 9.01175C9.33772 9.01175 8.55079 9.30051 7.92781 9.88019V7.99511H13.4288V10.5725C13.0669 10.4751 12.7245 10.2834 12.4392 9.99803L12.4018 9.96082Z" fill="black"/>
</svg>
