<svg width="22" height="17" viewBox="0 0 22 17" fill="none" xmlns="http://www.w3.org/2000/svg">
<path fill-rule="evenodd" clip-rule="evenodd" d="M2.66667 0.5H18.6667C18.6667 0.5 21.3333 0.5 21.3333 3.16667V11.1667C21.3333 11.1667 21.3333 13.8333 18.6667 13.8333H2.66667C2.66667 13.8333 0 13.8333 0 11.1667V3.16667C0 3.16667 0 0.5 2.66667 0.5ZM18.6547 1.83333L18.6867 1.83467C18.9358 1.85163 19.1793 1.91636 19.404 2.02533C19.5658 2.10064 19.7047 2.2175 19.8067 2.364C19.896 2.49733 20 2.73333 20 3.16667V11.1547L19.9987 11.1867C19.9816 11.4358 19.9168 11.6793 19.808 11.904C19.7326 12.0658 19.6158 12.2047 19.4693 12.3067C19.336 12.396 19.1 12.5 18.6667 12.5H2.67867L2.64667 12.4987C2.39756 12.4816 2.15405 12.4168 1.92933 12.308C1.76756 12.2326 1.62863 12.1158 1.52667 11.9693C1.43733 11.836 1.33333 11.6 1.33333 11.1667V3.17867L1.33467 3.14667C1.35163 2.89754 1.41636 2.654 1.52533 2.42933C1.60069 2.26756 1.71754 2.12863 1.864 2.02667C1.99733 1.93733 2.23333 1.83333 2.66667 1.83333H18.6547ZM3.33333 15.8333C3.33333 15.4651 3.63181 15.1667 4 15.1667H17.3333C17.7015 15.1667 18 15.4651 18 15.8333C18 16.2015 17.7015 16.5 17.3333 16.5H4C3.63181 16.5 3.33333 16.2015 3.33333 15.8333Z" fill="black"/>
</svg>
