<svg width="20" height="17" viewBox="0 0 20 17" fill="none" xmlns="http://www.w3.org/2000/svg">
<path d="M19.0522 5.09469C14.2186 -1.00825 4.98978 -1.01882 0.147784 5.09469C-0.0867031 5.39071 -0.0367531 5.82084 0.259309 6.05529C0.555372 6.28974 0.985422 6.23983 1.21991 5.94376C5.50657 0.531426 13.6869 0.523139 17.9802 5.94376C18.2148 6.24005 18.6448 6.28959 18.9408 6.05529C19.2368 5.82076 19.2867 5.39071 19.0522 5.09469Z" fill="#222222"/>
<path d="M3.27682 7.56744C3.04225 7.86343 3.09205 8.29351 3.38804 8.52804C3.68414 8.76268 4.11415 8.71273 4.34864 8.41681C7.03615 5.02535 12.1596 5.01913 14.852 8.41681C15.0866 8.7128 15.5167 8.7626 15.8126 8.52804C16.1086 8.29348 16.1584 7.86343 15.9238 7.56744C12.6887 3.48481 6.51693 3.47859 3.27682 7.56744Z" fill="#222222"/>
<path d="M6.40352 10.04C6.16914 10.3361 6.21917 10.7661 6.51531 11.0006C6.81144 11.2349 7.24149 11.1849 7.47587 10.8888C8.56056 9.5183 10.6378 9.51601 11.7243 10.8888C11.9587 11.1849 12.3887 11.235 12.6849 11.0006C12.981 10.7661 13.031 10.3361 12.7967 10.04C11.1648 7.97817 8.03807 7.97487 6.40352 10.04Z" fill="#222222"/>
<circle cx="9.59989" cy="14.0636" r="1.72294" stroke="#222222" stroke-width="0.8"/>
</svg>
